<svg width="24" height="20" viewBox="0 0 24 20" fill="none" xmlns="http://www.w3.org/2000/svg">
<path d="M4 0C2.93913 0 1.92172 0.421427 1.17157 1.17157C0.421427 1.92172 0 2.93913 0 4V4.402L12 10.864L24 4.404V4C24 2.93913 23.5786 1.92172 22.8284 1.17157C22.0783 0.421427 21.0609 0 20 0H4ZM24 6.674L12.474 12.88C12.3283 12.9584 12.1655 12.9995 12 12.9995C11.8345 12.9995 11.6717 12.9584 11.526 12.88L0 6.674V16C0 17.0609 0.421427 18.0783 1.17157 18.8284C1.92172 19.5786 2.93913 20 4 20H20C21.0609 20 22.0783 19.5786 22.8284 18.8284C23.5786 18.0783 24 17.0609 24 16V6.674Z" fill="#50439F"/>
</svg>
