<svg width="26" height="26" viewBox="0 0 26 26" fill="none" xmlns="http://www.w3.org/2000/svg">
<path d="M13.0001 8.83472C10.7064 8.83472 8.83452 10.7066 8.83452 13.0003C8.83452 15.2941 10.7064 17.166 13.0001 17.166C15.2939 17.166 17.1658 15.2941 17.1658 13.0003C17.1658 10.7066 15.2939 8.83472 13.0001 8.83472ZM25.4939 13.0003C25.4939 11.2753 25.5095 9.56597 25.4126 7.84409C25.3158 5.84409 24.8595 4.06909 23.397 2.60659C21.9314 1.14097 20.1595 0.687844 18.1595 0.590969C16.4345 0.494094 14.7251 0.509719 13.0033 0.509719C11.2783 0.509719 9.5689 0.494094 7.84702 0.590969C5.84702 0.687844 4.07202 1.14409 2.60952 2.60659C1.1439 4.07222 0.690773 5.84409 0.593898 7.84409C0.497023 9.56909 0.512648 11.2785 0.512648 13.0003C0.512648 14.7222 0.497023 16.4347 0.593898 18.1566C0.690773 20.1566 1.14702 21.9316 2.60952 23.3941C4.07515 24.8597 5.84702 25.3128 7.84702 25.4097C9.57202 25.5066 11.2814 25.491 13.0033 25.491C14.7283 25.491 16.4376 25.5066 18.1595 25.4097C20.1595 25.3128 21.9345 24.8566 23.397 23.3941C24.8626 21.9285 25.3158 20.1566 25.4126 18.1566C25.5126 16.4347 25.4939 14.7253 25.4939 13.0003ZM13.0001 19.4097C9.45327 19.4097 6.59077 16.5472 6.59077 13.0003C6.59077 9.45347 9.45327 6.59097 13.0001 6.59097C16.547 6.59097 19.4095 9.45347 19.4095 13.0003C19.4095 16.5472 16.547 19.4097 13.0001 19.4097ZM19.672 7.82534C18.8439 7.82534 18.1751 7.15659 18.1751 6.32847C18.1751 5.50034 18.8439 4.83159 19.672 4.83159C20.5001 4.83159 21.1689 5.50034 21.1689 6.32847C21.1691 6.52511 21.1306 6.71987 21.0555 6.90159C20.9803 7.08331 20.8701 7.24842 20.731 7.38747C20.592 7.52652 20.4269 7.63677 20.2451 7.7119C20.0634 7.78704 19.8687 7.82559 19.672 7.82534Z" fill="#50439F"/>
</svg>
