<svg width="22" height="28" viewBox="0 0 22 28" fill="none" xmlns="http://www.w3.org/2000/svg">
<path d="M10.9999 14C11.7333 14 12.3613 13.7391 12.8839 13.2173C13.4066 12.6956 13.6675 12.0676 13.6666 11.3333C13.6657 10.5991 13.4048 9.97155 12.8839 9.45066C12.363 8.92978 11.735 8.66844 10.9999 8.66666C10.2648 8.66489 9.63725 8.92622 9.11725 9.45066C8.59725 9.97511 8.33592 10.6027 8.33325 11.3333C8.33059 12.064 8.59192 12.692 9.11725 13.2173C9.64259 13.7427 10.2701 14.0036 10.9999 14ZM10.9999 27.3333C7.42214 24.2889 4.75014 21.4613 2.98392 18.8507C1.2177 16.24 0.334141 13.8231 0.333252 11.6C0.333252 8.26666 1.4057 5.61111 3.55059 3.63333C5.69547 1.65555 8.17859 0.666664 10.9999 0.666664C13.8213 0.666664 16.3048 1.65555 18.4506 3.63333C20.5964 5.61111 21.6684 8.26666 21.6666 11.6C21.6666 13.8222 20.7835 16.2391 19.0173 18.8507C17.251 21.4622 14.5786 24.2898 10.9999 27.3333Z" fill="#50439F"/>
</svg>
