<svg width="26" height="32" viewBox="0 0 26 32" fill="none" xmlns="http://www.w3.org/2000/svg">
<path fill-rule="evenodd" clip-rule="evenodd" d="M13.3429 30.9716C13.9356 30.9716 24.5275 19.6547 24.5275 13.4776C24.5275 7.30051 19.5199 2.29297 13.3429 2.29297C7.16574 2.29297 2.1582 7.30051 2.1582 13.4776C2.1582 19.6547 12.7501 30.9716 13.3429 30.9716ZM13.3429 19.0718C16.4747 19.0718 19.0135 16.5329 19.0135 13.4011C19.0135 10.2693 16.4747 7.73051 13.3429 7.73051C10.2111 7.73051 7.67226 10.2693 7.67226 13.4011C7.67226 16.5329 10.2111 19.0718 13.3429 19.0718Z" fill="url(#paint0_linear_1602_33956)" fill-opacity="0.75"/>
<path fill-rule="evenodd" clip-rule="evenodd" d="M2.1582 13.4776C2.1582 19.6547 12.7501 30.9716 13.3429 30.9716V19.0718C10.2111 19.0717 7.67226 16.5329 7.67226 13.4011C7.67226 10.2694 10.2111 7.73053 13.3429 7.73051V2.29297C7.16574 2.29297 2.1582 7.30051 2.1582 13.4776Z" fill="url(#paint1_linear_1602_33956)" fill-opacity="0.75"/>
<defs>
<linearGradient id="paint0_linear_1602_33956" x1="22.9621" y1="34.0337" x2="-4.66533" y2="23.4978" gradientUnits="userSpaceOnUse">
<stop stop-color="#50439F" stop-opacity="0.6"/>
<stop offset="0.48" stop-color="#50439F"/>
<stop offset="0.9999" stop-color="#50439F" stop-opacity="0.5"/>
</linearGradient>
<linearGradient id="paint1_linear_1602_33956" x1="12.5601" y1="34.0337" x2="-2.70743" y2="31.1225" gradientUnits="userSpaceOnUse">
<stop stop-color="#50439F" stop-opacity="0.6"/>
<stop offset="0.48" stop-color="#50439F"/>
<stop offset="0.9999" stop-color="#50439F" stop-opacity="0.5"/>
</linearGradient>
</defs>
</svg>
