<svg width="26" height="26" viewBox="0 0 26 26" fill="none" xmlns="http://www.w3.org/2000/svg">
<path d="M24.675 4.19375L21.3469 0.86875C21.1121 0.632949 20.8331 0.445856 20.5258 0.31822C20.2185 0.190584 19.889 0.12492 19.5563 0.125C18.8781 0.125 18.2406 0.390625 17.7625 0.86875L14.1813 4.45C13.9454 4.68477 13.7584 4.96382 13.6307 5.27111C13.5031 5.5784 13.4374 5.90788 13.4375 6.24063C13.4375 6.91875 13.7031 7.55625 14.1813 8.03438L16.8 10.6531C16.187 12.0043 15.3348 13.2334 14.2844 14.2812C13.2366 15.3342 12.0076 16.1896 10.6563 16.8062L8.0375 14.1875C7.80273 13.9517 7.52369 13.7646 7.21639 13.637C6.9091 13.5093 6.57962 13.4437 6.24688 13.4438C5.56875 13.4438 4.93125 13.7094 4.45313 14.1875L0.868752 17.7656C0.632675 18.0008 0.44543 18.2804 0.317789 18.5882C0.190149 18.8961 0.12463 19.2261 0.125002 19.5594C0.125002 20.2375 0.390627 20.875 0.868752 21.3531L4.19063 24.675C4.95313 25.4406 6.00625 25.875 7.0875 25.875C7.31563 25.875 7.53438 25.8563 7.75 25.8188C11.9625 25.125 16.1406 22.8844 19.5125 19.5156C22.8813 16.15 25.1188 11.975 25.8219 7.75C26.0344 6.45937 25.6063 5.13125 24.675 4.19375Z" fill="#50439F"/>
</svg>
