<svg width="73" height="72" viewBox="0 0 73 72" fill="none" xmlns="http://www.w3.org/2000/svg">
<rect x="1" y="0.5" width="71" height="71" rx="35.5" stroke="#50439F"/>
<path d="M35.3281 21.9375H37.6719C37.8802 21.9375 37.9844 22.0417 37.9844 22.25V49.75C37.9844 49.9583 37.8802 50.0625 37.6719 50.0625H35.3281C35.1198 50.0625 35.0156 49.9583 35.0156 49.75V22.25C35.0156 22.0417 35.1198 21.9375 35.3281 21.9375Z" fill="#50439F"/>
<path d="M24 34.5156H50.25C50.4583 34.5156 50.5625 34.6198 50.5625 34.8281V37.1719C50.5625 37.3802 50.4583 37.4844 50.25 37.4844H22.75C22.5417 37.4844 22.4375 37.3802 22.4375 37.1719V34.8281C22.4375 34.6198 22.5417 34.5156 22.75 34.5156H24Z" fill="#50439F"/>
</svg>
