<svg width="251" height="185" viewBox="0 0 251 185" fill="none" xmlns="http://www.w3.org/2000/svg">
    <path d="M54.5012 64.5C58.9191 63.3768 66.0012 62.5 66.0012 62.5L66.0012 88C66.0012 88 60.6041 88.5855 57.5012 90C54.6919 91.2806 53.4205 91.5823 51.001 93.5C48.0774 95.8172 46.5409 98.2676 44.0012 101C40.9698 104.261 39.4364 106.272 37.0012 110C35.0407 113.001 34.5045 114.746 33.001 118C31.6015 121.029 31.501 122.5 29.5012 126C28.7446 127.324 27.5198 128.138 26.001 128C24.6262 127.875 24.4379 127.31 24.0014 126.001L24.0012 126C23.6924 125.074 23.5011 123.476 23.5011 122.5C23.5011 120.352 23.7445 120.132 24.0012 118C24.1831 116.489 24.7365 114.653 25.2766 113.121C24.8721 114.103 24.4188 115.152 24.0012 116C23.1132 117.804 23.0011 118 21.5011 120.5C20.5244 122.128 20.0559 123.427 18.5012 124C17.2186 124.473 15.8907 124.538 15.0012 123.5C14.2387 122.61 14.5011 121.672 14.5011 120.5C14.5011 118.743 14.826 117.749 15.0012 116C15.3202 112.815 17.2403 108.573 18.0933 106.816C17.1979 108.607 15.0189 112.965 13.5012 116C12.5011 118 12.0011 119.5 10.0012 120.5C9.30259 120.849 8.7149 120.817 8.00117 120.5C6.39528 119.786 7.00107 118 7.5013 116C8.2827 112.876 8.54029 111.074 9.5011 108C10.6262 104.401 11.7288 102.329 13.5012 99C15.5388 95.1732 17.2363 93.3395 20.0012 90C22.3802 87.1266 23.9168 85.6903 26.5012 83C29.562 79.8137 31.1557 77.886 34.5012 75C37.9906 71.9898 39.8995 70.1007 44.0012 68C47.8483 66.0297 50.3121 65.565 54.5012 64.5Z" fill="#7263B1"/>
    <path d="M68.0012 59.5C68.0012 59.5 60.9191 60.3768 56.5012 61.5C52.3121 62.565 49.8483 63.0297 46.0012 65C41.8995 67.1007 39.9906 68.9898 36.5012 72C33.1557 74.886 31.562 76.8137 28.5012 80C25.9168 82.6903 24.3802 84.1266 22.0012 87C19.2363 90.3395 17.5388 92.1732 15.5012 96C13.7288 99.3287 12.6262 101.401 11.5011 105C10.5403 108.074 10.2827 109.876 9.5013 113C9.00107 115 8.39528 116.786 10.0012 117.5C10.7149 117.817 11.3026 117.849 12.0012 117.5C14.0011 116.5 14.5011 115 15.5012 113C17.454 109.095 20.5012 103 20.5012 103C20.5012 103 17.4135 108.883 17.0012 113C16.826 114.749 16.5011 115.743 16.5011 117.5C16.5011 118.672 16.2387 119.61 17.0012 120.5C17.8907 121.538 19.2186 121.473 20.5012 121C22.0559 120.427 22.5244 119.128 23.5011 117.5C25.0011 115 25.1132 114.804 26.0012 113C27.1223 110.723 28.5012 107 28.5012 107C28.5012 107 26.3923 111.75 26.0012 115C25.7445 117.132 25.5011 117.352 25.5011 119.5C25.5011 120.476 25.6924 122.074 26.0012 123C26.4378 124.31 26.6259 124.875 28.001 125C29.5198 125.138 30.7446 124.324 31.5012 123C33.501 119.5 33.6015 118.029 35.001 115C36.5045 111.746 37.0407 110.001 39.0012 107C41.4364 103.272 42.9698 101.261 46.0012 98C48.5409 95.2676 50.0774 92.8172 53.001 90.5C55.4205 88.5823 56.6919 88.2806 59.5012 87C62.6041 85.5855 68.0012 85 68.0012 85L68.0012 59.5Z" stroke="#E93405" stroke-width="2"/>
    <path d="M187.5 42C183.571 44.2776 177 47 177 47L184.5 70C184.5 70 193.15 66.9251 198.5 64.5C202.477 62.6975 204.839 61.8799 208.5 59.5C212.336 57.0062 214.336 55.305 217.5 52C220.876 48.4737 222.489 46.186 225 42C227.336 38.1054 228.216 35.6766 230 31.5C231.966 26.8973 233.5 24.5 234.5 19.5C234.96 17.2024 235 15.8431 235 13.5C235 12.5 234.707 11.0083 233.5 10.5C231.7 9.74227 231 12 230 14C228.982 16.0367 227.5 19.5 227.5 19.5L225 27C225 27 225.39 24.8624 225.5 23.5C225.745 20.4786 226.5 18.5 227 16C227.5 13.5 228.076 11.8588 227 9.99999C226.447 9.04407 226.083 8.71662 225 8.49999C223.619 8.22385 223 9 222 10.5C220.643 12.5357 220.113 13.8212 219 16C217.53 18.8783 215.5 23.5 215.5 23.5C215.5 23.5 216.794 18.0305 217.5 14.5C218 12 218.5 10.5 218 8.5C217.732 7.42841 217.105 7 216 7C214.895 7 214.221 7.66319 213.5 8.5C211.729 10.5551 211.259 12.0972 210 14.5C208.215 17.9069 207.81 20.1062 206 23.5C204.266 26.7508 203.384 28.6911 201 31.5C198.943 33.9235 197.494 35.0288 195 37C192.238 39.1829 190.545 40.2347 187.5 42Z" fill="#7263B1"/>
    <path d="M191.5 41C187.571 43.2776 181 46 181 46L188.5 69C188.5 69 197.15 65.9251 202.5 63.5C206.477 61.6975 208.839 60.8799 212.5 58.5C216.336 56.0062 218.336 54.305 221.5 51C224.876 47.4737 226.489 45.186 229 41C231.336 37.1054 232.216 34.6766 234 30.5C235.966 25.8973 237.5 23.5 238.5 18.5C238.96 16.2024 239 14.8431 239 12.5C239 11.5 238.707 10.0083 237.5 9.49999C235.7 8.74227 235 11 234 13C232.982 15.0367 231.5 18.5 231.5 18.5L229 26C229 26 229.39 23.8624 229.5 22.5C229.745 19.4786 230.5 17.5 231 15C231.5 12.5 232.076 10.8588 231 8.99999C230.447 8.04407 230.083 7.71662 229 7.49999C227.619 7.22385 227 8 226 9.5C224.643 11.5357 224.113 12.8212 223 15C221.53 17.8783 219.5 22.5 219.5 22.5C219.5 22.5 220.794 17.0305 221.5 13.5C222 11 222.5 9.5 222 7.5C221.732 6.42841 221.105 6 220 6C218.895 6 218.221 6.66319 217.5 7.5C215.729 9.55508 215.259 11.0972 214 13.5C212.215 16.9069 211.81 19.1062 210 22.5C208.266 25.7508 207.384 27.6911 205 30.5C202.943 32.9235 201.494 34.0288 199 36C196.238 38.1829 194.545 39.2347 191.5 41Z" stroke="#E93405" stroke-width="2"/>
    <path d="M105.001 146.5C106.501 141.5 107.501 135.5 107.501 135.5L121.501 137.5C121.501 137.5 121.492 142.52 121.001 146C120.579 149.002 120.418 151.111 119.501 154C118.491 157.18 118.001 158.5 116.501 162C115.413 164.538 114.07 165.988 111.501 167C109.139 167.93 107.477 167.557 105.001 167C102.699 166.482 101.663 165.443 99.5008 164.5C97.1741 163.485 95.812 160.95 93.5008 162C91.5131 162.903 92.0014 165 91.0008 167C89.6194 169.761 88.7323 171.443 87.0014 174C85.8174 175.749 85.5204 177.382 83.5008 178C82.5672 178.286 81.3632 178.407 81.0008 177.5C80.0014 175 81.0008 173.429 81.0008 170.5L81.0008 162L81.0008 154C81.0008 151.223 81.2916 149.328 83.5008 148.5C84.5978 148.089 86.5008 148.5 86.5008 148.5C86.5008 148.5 89.311 149.017 91.0008 149.5C94.5012 150.5 95.4935 151.204 99.0012 151.5C100.169 151.598 101.408 151.923 102.501 151.5C104.537 150.712 104.373 148.591 105.001 146.5Z" fill="#7263B1"/>
    <path d="M108.001 143.5C109.501 138.5 110.501 132.5 110.501 132.5L124.501 134.5C124.501 134.5 124.492 139.52 124.001 143C123.579 146.002 123.418 148.111 122.501 151C121.491 154.18 121.001 155.5 119.501 159C118.413 161.538 117.07 162.988 114.501 164C112.139 164.93 110.477 164.557 108.001 164C105.699 163.482 104.663 162.443 102.501 161.5C100.174 160.485 98.812 157.95 96.5008 159C94.5131 159.903 95.0014 162 94.0008 164C92.6194 166.761 91.7323 168.443 90.0014 171C88.8174 172.749 88.5204 174.382 86.5008 175C85.5672 175.286 84.3632 175.407 84.0008 174.5C83.0014 172 84.0008 170.429 84.0008 167.5L84.0008 159L84.0008 151C84.0008 148.223 84.2916 146.328 86.5008 145.5C87.5978 145.089 89.5008 145.5 89.5008 145.5C89.5008 145.5 92.311 146.017 94.0008 146.5C97.5012 147.5 98.4935 148.204 102.001 148.5C103.169 148.598 104.408 148.923 105.501 148.5C107.537 147.712 107.373 145.591 108.001 143.5Z" stroke="#FFAB0B" stroke-width="2"/>
    <path d="M148.5 147.5C146.673 143.234 144 136.5 144 136.5L157 129.5C157 129.5 159.06 134.818 160.5 138.5C161.807 141.843 162.865 144.094 164 147.5C165 150.5 165.832 154.471 169 154C171.326 153.654 171.766 152.088 173.5 150.5C176.095 148.122 178.011 146.989 180.5 144.5C182 143 182.5 142 184.5 142C185.476 142 186.121 142.6 186.5 143.5C187.106 144.94 187.217 145 187 147C186.594 150.749 185.534 152.055 184 155.5C182.579 158.691 180.988 160.628 179 163.5C177.034 166.341 176.007 167.623 173.5 170C171.994 171.428 170.451 173.292 168.5 174C166.664 174.666 165.802 175.251 164 174.5C162.216 173.757 161.698 172.517 160.5 171C158.713 168.738 157.888 167.027 156.5 164.5C154.775 161.358 154.114 159.701 152.5 156.5C150.769 153.066 150.014 151.036 148.5 147.5Z" fill="#7263B1"/>
    <path d="M151.5 144.5C149.673 140.234 147 133.5 147 133.5L160 126.5C160 126.5 162.06 131.818 163.5 135.5C164.807 138.843 165.865 141.094 167 144.5C168 147.5 168.832 151.471 172 151C174.326 150.654 174.766 149.088 176.5 147.5C179.095 145.122 181.011 143.989 183.5 141.5C185 140 185.5 139 187.5 139C188.476 139 189.121 139.6 189.5 140.5C190.106 141.94 190.217 142 190 144C189.594 147.749 188.534 149.055 187 152.5C185.579 155.691 183.988 157.628 182 160.5C180.034 163.341 179.007 164.623 176.5 167C174.994 168.428 173.451 170.292 171.5 171C169.664 171.666 168.802 172.251 167 171.5C165.216 170.757 164.698 169.517 163.5 168C161.713 165.738 160.888 164.027 159.5 161.5C157.775 158.358 157.114 156.701 155.5 153.5C153.769 150.066 153.014 148.036 151.5 144.5Z" stroke="#FFAB0B" stroke-width="2"/>
    <path d="M95.501 18.5007C101.632 15.1243 105.287 13.4811 112.001 11.5007C118.283 9.64772 121.953 8.62574 128.501 8.50071C135.819 8.361 139.99 9.40045 147.001 11.5007C153.534 13.4578 157.184 14.9399 163.001 18.5007C168.333 21.7646 171.13 24.031 175.501 28.5007C181.484 34.6197 184.272 38.7976 188.001 46.5007C191.904 54.5643 193.609 59.5866 194.501 68.5007C195.459 78.0704 195.645 81.2536 193.001 90.5007C190.696 98.5649 188.447 106.122 183.001 112.501C178.842 117.372 175.66 120.704 170.501 124.501C164.742 128.739 161.431 129.873 155.001 133.001C148.054 136.379 143.652 137.438 136.001 138.501C128.652 139.522 124.345 139.561 117.001 138.501C109.541 137.424 105.41 136.013 98.501 133.001C91.1953 129.815 87.2507 127.447 81.001 122.501C76.5606 118.987 73.7866 117.113 70.501 112.501C65.8064 105.911 64.097 100.816 62.001 93.0007C60.0962 85.8989 59.8829 81.8526 60.001 74.5007C60.1099 67.7234 61.4944 63.9751 63.501 57.5007C65.5731 50.8149 66.8011 46.9425 70.501 41.0007C73.8709 35.5889 81.001 28.5007 81.001 28.5007C81.001 28.5007 89.4756 21.8189 95.501 18.5007Z" fill="#FFAB0B" stroke="#FFAB0B" stroke-width="2"/>
    <path d="M92.4991 21.5007C98.6304 18.1243 102.286 16.4811 108.999 14.5007C115.281 12.6477 118.951 11.6257 125.499 11.5007C132.817 11.361 136.988 12.4004 143.999 14.5007C150.532 16.4578 154.182 17.9399 159.999 21.5007C165.331 24.7646 168.128 27.031 172.499 31.5007C178.482 37.6197 181.27 41.7976 184.999 49.5007C188.902 57.5643 190.607 62.5866 191.499 71.5007C192.457 81.0704 192.643 84.2536 189.999 93.5007C187.694 101.565 185.445 109.122 179.999 115.501C175.84 120.372 172.658 123.704 167.499 127.501C161.74 131.739 158.429 132.873 151.999 136.001C145.052 139.379 140.65 140.438 132.999 141.501C125.65 142.522 121.343 142.561 113.999 141.501C106.539 140.424 102.408 139.013 95.4991 136.001C88.1934 132.815 84.2488 130.447 77.9991 125.501C73.5587 121.987 70.7847 120.113 67.4991 115.501C62.8044 108.911 61.095 103.816 58.999 96.0007C57.0943 88.8989 56.8809 84.8526 56.9991 77.5007C57.1079 70.7234 58.4925 66.9751 60.4991 60.5007C62.5712 53.8149 63.7992 49.9425 67.4991 44.0007C70.8689 38.5889 77.9991 31.5007 77.9991 31.5007C77.9991 31.5007 86.4736 24.8189 92.4991 21.5007Z" fill="#7263B1"/>
    <path d="M95.4991 18.5007C101.63 15.1243 105.286 13.4811 111.999 11.5007C118.281 9.64772 121.951 8.62574 128.499 8.50071C135.817 8.361 139.988 9.40045 146.999 11.5007C153.532 13.4578 157.182 14.9399 162.999 18.5007C168.331 21.7646 171.128 24.031 175.499 28.5007C181.482 34.6197 184.27 38.7976 187.999 46.5007C191.902 54.5643 193.607 59.5866 194.499 68.5007C195.457 78.0704 195.643 81.2536 192.999 90.5007C190.694 98.5649 188.445 106.122 182.999 112.501C178.84 117.372 175.658 120.704 170.499 124.501C164.74 128.739 161.429 129.873 154.999 133.001C148.052 136.379 143.65 137.438 135.999 138.501C128.65 139.522 124.343 139.561 116.999 138.501C109.539 137.424 105.408 136.013 98.4991 133.001C91.1934 129.815 87.2488 127.447 80.9991 122.501C76.5587 118.987 73.7847 117.113 70.4991 112.501C65.8044 105.911 64.095 100.816 61.999 93.0007C60.0943 85.8989 59.8809 81.8526 59.9991 74.5007C60.1079 67.7234 61.4925 63.9751 63.4991 57.5007C65.5712 50.8149 66.7992 46.9425 70.4991 41.0007C73.8689 35.5889 80.9991 28.5007 80.9991 28.5007C80.9991 28.5007 89.4736 21.8189 95.4991 18.5007Z" stroke="#E93405" stroke-width="2"/>
    <ellipse cx="141.5" cy="46.5" rx="5.5" ry="8" fill="#2F245E"/>
    <ellipse cx="158.5" cy="46.5" rx="5.5" ry="8" fill="#2F245E"/>
    <path d="M121.018 55.4604C120.066 55.3307 119.177 55.9825 119.092 56.9394C118.652 61.8803 119.802 66.845 122.423 71.2179C125.347 76.0965 129.942 79.9714 135.507 82.2528C141.072 84.5342 147.303 85.0972 153.252 83.8562C158.56 82.7488 163.384 80.2591 167.147 76.709C167.877 76.0196 167.772 74.8519 166.974 74.2425C166.273 73.7075 165.284 73.7999 164.644 74.4072C161.352 77.5348 157.119 79.7276 152.458 80.6999C147.265 81.7833 141.825 81.2918 136.966 79.3001C132.108 77.3084 128.097 73.9255 125.544 69.6665C123.312 65.9418 122.301 61.7254 122.61 57.5163C122.683 56.5203 122.008 55.5952 121.018 55.4604Z" fill="#2F245E"/>
    <path d="M137.218 114.388C137.218 114.388 144.815 102.245 160.089 102.196C166.189 102.18 160.478 128.807 157.993 128.819C155.508 128.832 144.587 132.415 136.659 119.953C137.102 117.088 137.22 114.398 137.22 114.398L137.218 114.388Z" fill="#E93405"/>
    <path d="M156.829 102.279L161.925 117.977C161.257 121.532 160.339 124.932 159.427 127.304L151.647 103.322C153.263 102.855 154.984 102.492 156.829 102.279Z" fill="#FFF8FC"/>
    <path d="M153.506 129.415C151.819 129.477 149.892 129.371 147.856 128.885L141.258 108.437C142.5 107.362 143.979 106.235 145.677 105.177L153.495 129.409L153.506 129.415Z" fill="#FFF8FC"/>
    <mask id="mask0_873_36931" style="mask-type:luminance" maskUnits="userSpaceOnUse" x="136" y="102" width="27" height="28">
        <path d="M137.199 114.773C137.199 114.773 144.946 102.601 160.283 102.173C166.407 102.005 160.412 128.422 157.917 128.496C155.422 128.571 144.422 132.378 136.584 120.279C137.057 117.441 137.201 114.783 137.201 114.783L137.199 114.773Z" fill="white"/>
    </mask>
    <g mask="url(#mask0_873_36931)">
        <g style="mix-blend-mode:multiply">
            <path d="M134.054 122.499C134.537 119.602 137.509 114.594 137.509 114.594C137.509 114.594 140.081 110.54 145.193 106.984C141.777 116.244 145.403 124.801 162.219 122.701C161.768 125.423 158.41 136.229 158.41 136.229C158.41 136.229 142.018 134.843 134.045 122.504L134.054 122.499Z" fill="#CDD0D1"/>
        </g>
    </g>
    <path d="M135.189 109.842C135.189 109.842 131.34 97.7074 116.046 97.7573C109.938 97.7741 107.422 124.441 109.901 124.432C112.389 124.42 122.218 127.949 134.025 115.404C134.469 112.535 135.189 109.842 135.189 109.842Z" fill="#E93405"/>
    <path d="M130.299 120.182C128.741 121.392 127.232 122.389 125.785 123.187L117.532 97.6669C119.686 97.797 121.623 98.1244 123.338 98.629L130.299 120.182Z" fill="#FFF8FC"/>
    <path d="M112.206 101.534L119.632 124.461C117.565 124.831 115.751 124.875 114.236 124.814L109.77 111.027C110.323 107.676 111.143 104.269 112.206 101.534Z" fill="#FFF8FC"/>
    <mask id="mask1_873_36931" style="mask-type:luminance" maskUnits="userSpaceOnUse" x="108" y="98" width="28" height="27">
        <path d="M135.248 109.481C135.248 109.481 131.502 97.6009 116.142 98.034C110.009 98.2038 107.218 124.587 109.709 124.516C112.207 124.441 122.043 127.678 134.024 115C134.498 112.157 135.248 109.481 135.248 109.481Z" fill="white"/>
    </mask>
    <g mask="url(#mask1_873_36931)">
        <g style="mix-blend-mode:multiply">
            <path d="M136.334 117.893C136.791 115.147 135.498 110.514 135.498 110.514C135.498 110.514 134.293 106.765 130.472 103.611C130.832 112.288 124.57 120.656 108.919 119.483C108.492 122.064 108.295 132.229 108.295 132.229C108.295 132.229 124.654 130.091 136.334 117.893Z" fill="#CDD0D1"/>
        </g>
    </g>
    <path d="M128.971 113.485C128.315 118.422 130.959 122.548 134.877 122.712C138.793 122.866 142.499 118.989 143.154 114.052C143.81 109.116 141.166 104.99 137.248 104.826C133.331 104.672 129.626 108.549 128.963 113.489L128.971 113.485Z" fill="#E93405"/>
    <path opacity="0.5" d="M135.159 110.411C134.887 112.478 135.986 114.202 137.625 114.263C139.265 114.324 140.813 112.712 141.085 110.645C141.357 108.579 140.258 106.855 138.618 106.793C136.978 106.732 135.431 108.345 135.159 110.411Z" fill="#FFFCF5"/>
    <path d="M141.51 62.9687C141.51 69.5956 146.883 74.9687 153.51 74.9687C160.137 74.9687 165.51 69.5956 165.51 62.9687C165.51 56.3419 160.137 50.9688 153.51 50.9688C146.883 50.9688 141.51 56.3419 141.51 62.9687Z" fill="#E93405"/>
    <path d="M152.955 58.0435C152.955 60.4076 154.871 62.3241 157.235 62.3241C159.599 62.3241 161.516 60.4076 161.516 58.0435C161.516 55.6793 159.599 53.7629 157.235 53.7629C154.871 53.7629 152.955 55.6793 152.955 58.0435Z" fill="#FFFCF5"/>
    <g style="mix-blend-mode:multiply">
        <path d="M145.424 54.1211C145.335 54.7211 145.272 55.3301 145.272 55.9569C145.272 62.5838 150.645 67.9569 157.272 67.9569C160.388 67.9569 163.218 66.7569 165.35 64.8047C164.463 70.5629 159.511 74.9688 153.511 74.9688C146.884 74.9688 141.511 69.5957 141.511 62.9688C141.511 59.4584 143.024 56.3151 145.424 54.1211Z" fill="#CDD0D1"/>
    </g>
</svg>
