<svg width="260" height="192" viewBox="0 0 260 192" fill="none" xmlns="http://www.w3.org/2000/svg">
    <g clip-path="url(#clip0_2181_6088)">
        <path d="M63.5012 64.5C67.9191 63.3768 75.0012 62.5 75.0012 62.5L75.0012 88C75.0012 88 69.6041 88.5855 66.5012 90C63.6919 91.2806 62.4205 91.5823 60.001 93.5C57.0774 95.8172 55.5409 98.2676 53.0012 101C49.9698 104.261 48.4364 106.272 46.0012 110C44.0407 113.001 43.5045 114.746 42.001 118C40.6015 121.029 40.501 122.5 38.5012 126C37.7446 127.324 36.5198 128.138 35.001 128C33.6262 127.875 33.4379 127.31 33.0014 126.001L33.0012 126C32.6924 125.074 32.5011 123.476 32.5011 122.5C32.5011 120.352 32.7445 120.132 33.0012 118C33.1831 116.489 33.7365 114.653 34.2766 113.121C33.8721 114.103 33.4188 115.152 33.0012 116C32.1132 117.804 32.0011 118 30.5011 120.5C29.5244 122.128 29.0559 123.427 27.5012 124C26.2186 124.473 24.8907 124.538 24.0012 123.5C23.2387 122.61 23.5011 121.672 23.5011 120.5C23.5011 118.743 23.826 117.749 24.0012 116C24.3202 112.815 26.2403 108.573 27.0933 106.816C26.1979 108.607 24.0189 112.965 22.5012 116C21.5011 118 21.0011 119.5 19.0012 120.5C18.3026 120.849 17.7149 120.817 17.0012 120.5C15.3953 119.786 16.0011 118 16.5013 116C17.2827 112.876 17.5403 111.074 18.5011 108C19.6262 104.401 20.7288 102.329 22.5012 99C24.5388 95.1732 26.2363 93.3395 29.0012 90C31.3802 87.1266 32.9168 85.6903 35.5012 83C38.562 79.8137 40.1557 77.886 43.5012 75C46.9906 71.9898 48.8995 70.1007 53.0012 68C56.8483 66.0297 59.3121 65.565 63.5012 64.5Z" fill="#7263B1"/>
        <path d="M77.0012 59.5C77.0012 59.5 69.9191 60.3768 65.5012 61.5C61.3121 62.565 58.8483 63.0297 55.0012 65C50.8995 67.1007 48.9906 68.9898 45.5012 72C42.1557 74.886 40.562 76.8137 37.5012 80C34.9168 82.6903 33.3802 84.1266 31.0012 87C28.2363 90.3395 26.5388 92.1732 24.5012 96C22.7288 99.3287 21.6262 101.401 20.5011 105C19.5403 108.074 19.2827 109.876 18.5013 113C18.0011 115 17.3953 116.786 19.0012 117.5C19.7149 117.817 20.3026 117.849 21.0012 117.5C23.0011 116.5 23.5011 115 24.5012 113C26.454 109.095 29.5012 103 29.5012 103C29.5012 103 26.4135 108.883 26.0012 113C25.826 114.749 25.5011 115.743 25.5011 117.5C25.5011 118.672 25.2387 119.61 26.0012 120.5C26.8907 121.538 28.2186 121.473 29.5012 121C31.0559 120.427 31.5244 119.128 32.5011 117.5C34.0011 115 34.1132 114.804 35.0012 113C36.1223 110.723 37.5012 107 37.5012 107C37.5012 107 35.3923 111.75 35.0012 115C34.7445 117.132 34.5011 117.352 34.5011 119.5C34.5011 120.476 34.6924 122.074 35.0012 123C35.4378 124.31 35.6259 124.875 37.001 125C38.5198 125.138 39.7446 124.324 40.5012 123C42.501 119.5 42.6015 118.029 44.001 115C45.5045 111.746 46.0407 110.001 48.0012 107C50.4364 103.272 51.9698 101.261 55.0012 98C57.5409 95.2676 59.0774 92.8172 62.001 90.5C64.4205 88.5823 65.6919 88.2806 68.5012 87C71.6041 85.5855 77.0012 85 77.0012 85L77.0012 59.5Z" stroke="#E93405" stroke-width="2"/>
        <path d="M196.5 40C192.571 42.2776 186 47 186 47L193.5 70C193.5 70 202.15 66.9251 207.5 64.5C211.477 62.6975 212.685 61.8415 216 59C219.5 56 220 54.5 222 51.5C224 48.5 226.817 42.8663 229 38.5001L229 38.5C231 34.5 233 31.4 234.5 27.5C237 21 237.5 19.5 239 15C239.741 12.7771 240 11.8431 240 9.49999C240 8.49999 238.707 6.00829 237.5 5.49999C235.7 4.74227 235 6.99999 234 8.99999C232.982 11.0367 231.5 14.5 231.5 14.5L229 22C229 22 229.39 19.8624 229.5 18.5C229.745 15.4786 230.5 13.5 231 11C231.5 8.5 232.076 6.85883 231 5C230.447 4.04407 230.083 3.71662 229 3.5C227.619 3.22385 227 4 226 5.5C224.643 7.53571 224.113 8.82124 223 11C221.53 13.8783 219.5 18.5 219.5 18.5C219.5 18.5 220.794 13.0305 221.5 9.5C222 7 222.5 5.5 222 3.5C221.732 2.42841 221.105 2 220 2C218.895 2 218.221 2.66319 217.5 3.5C215.729 5.55508 215.069 7.00666 214 9.5C212.5 13 211.515 14.9648 210 18.5C208.5 22 208 24 206 27.5C203.954 31.0799 203.326 32.2437 201 35.5C198.5 39 199.545 38.2347 196.5 40Z" fill="#7263B1"/>
        <path d="M200.5 41C197.592 44.489 190 46 190 46L197.5 69C197.5 69 206.659 66.8279 211.5 63.5C219.5 58 229.489 40.186 232 36C234.336 32.1054 236.216 28.1766 238 24C239.966 19.3973 240.5 18.5 241.5 13.5C241.96 11.2024 242 9.84314 242 7.49999C242 6.49999 241.707 5.00829 240.5 4.49999C238.7 3.74227 238 5.99999 237 7.99999C235.982 10.0367 234.5 13.5 234.5 13.5L232 21C232 21 232.39 18.8624 232.5 17.5C232.745 14.4786 233.5 12.5 234 10C234.5 7.5 235.076 5.85883 234 4C233.447 3.04407 233.083 2.71662 232 2.5C230.619 2.22385 230 3 229 4.5C227.643 6.53571 227.113 7.82124 226 10C224.53 12.8783 222.5 17.5 222.5 17.5C222.5 17.5 223.794 12.0305 224.5 8.5C225 6 225.5 4.5 225 2.5C224.732 1.42841 224.105 0.999996 223 0.999996C221.895 0.999997 221.221 1.66319 220.5 2.5C218.729 4.55508 218.259 6.0972 217 8.5C215.215 11.9069 214.81 14.1062 213 17.5C211.266 20.7508 210.648 22.2047 209 25.5L205 33.5C203.5 36.5 203 38 200.5 41Z" stroke="#E93405" stroke-width="2"/>
        <path d="M114.001 146.5C115.501 141.5 116.501 135.5 116.501 135.5L130.501 137.5C130.501 137.5 130.492 142.52 130.001 146C129.579 149.002 129.418 151.111 128.501 154C127.491 157.18 127.001 158.5 125.501 162C124.413 164.538 123.07 165.988 120.501 167C118.139 167.93 116.477 167.557 114.001 167C111.699 166.482 110.663 165.443 108.501 164.5C106.174 163.485 104.812 160.95 102.501 162C100.513 162.903 101.001 165 100.001 167C98.6194 169.761 97.7323 171.443 96.0014 174C94.8174 175.749 94.5204 177.382 92.5008 178C91.5672 178.286 90.3632 178.407 90.0008 177.5C89.0014 175 90.0008 173.429 90.0008 170.5L90.0008 162L90.0008 154C90.0008 151.223 90.2916 149.328 92.5008 148.5C93.5978 148.089 95.5008 148.5 95.5008 148.5C95.5008 148.5 98.311 149.017 100.001 149.5C103.501 150.5 104.493 151.204 108.001 151.5C109.169 151.598 110.408 151.923 111.501 151.5C113.537 150.712 113.373 148.591 114.001 146.5Z" fill="#7263B1"/>
        <path d="M117.001 143.5C118.501 138.5 119.501 132.5 119.501 132.5L133.501 134.5C133.501 134.5 133.492 139.52 133.001 143C132.579 146.002 132.418 148.111 131.501 151C130.491 154.18 130.001 155.5 128.501 159C127.413 161.538 126.07 162.988 123.501 164C121.139 164.93 119.477 164.557 117.001 164C114.699 163.482 113.663 162.443 111.501 161.5C109.174 160.485 107.812 157.95 105.501 159C103.513 159.903 104.001 162 103.001 164C101.619 166.761 100.732 168.443 99.0014 171C97.8174 172.749 97.5204 174.382 95.5008 175C94.5672 175.286 93.3632 175.407 93.0008 174.5C92.0014 172 93.0008 170.429 93.0008 167.5L93.0008 159L93.0008 151C93.0008 148.223 93.2916 146.328 95.5008 145.5C96.5978 145.089 98.5008 145.5 98.5008 145.5C98.5008 145.5 101.311 146.017 103.001 146.5C106.501 147.5 107.493 148.204 111.001 148.5C112.169 148.598 113.408 148.923 114.501 148.5C116.537 147.712 116.373 145.591 117.001 143.5Z" stroke="#FFAB0B" stroke-width="2"/>
        <path d="M157.5 147.5C155.673 143.234 153 136.5 153 136.5L166 129.5C166 129.5 168.06 134.818 169.5 138.5C170.807 141.843 171.865 144.094 173 147.5C174 150.5 174.832 154.471 178 154C180.326 153.654 180.766 152.088 182.5 150.5C185.095 148.122 187.011 146.989 189.5 144.5C191 143 191.5 142 193.5 142C194.476 142 195.121 142.6 195.5 143.5C196.106 144.94 196.217 145 196 147C195.594 150.749 194.534 152.055 193 155.5C191.579 158.691 189.988 160.628 188 163.5C186.034 166.341 185.007 167.623 182.5 170C180.994 171.428 179.451 173.292 177.5 174C175.664 174.666 174.802 175.251 173 174.5C171.216 173.757 170.698 172.517 169.5 171C167.713 168.738 166.888 167.027 165.5 164.5C163.775 161.358 163.114 159.701 161.5 156.5C159.769 153.066 159.014 151.036 157.5 147.5Z" fill="#7263B1"/>
        <path d="M160.5 144.5C158.673 140.234 156 133.5 156 133.5L169 126.5C169 126.5 171.06 131.818 172.5 135.5C173.807 138.843 174.865 141.094 176 144.5C177 147.5 177.832 151.471 181 151C183.326 150.654 183.766 149.088 185.5 147.5C188.095 145.122 190.011 143.989 192.5 141.5C194 140 194.5 139 196.5 139C197.476 139 198.121 139.6 198.5 140.5C199.106 141.94 199.217 142 199 144C198.594 147.749 197.534 149.055 196 152.5C194.579 155.691 192.988 157.628 191 160.5C189.034 163.341 188.007 164.623 185.5 167C183.994 168.428 182.451 170.292 180.5 171C178.664 171.666 177.802 172.251 176 171.5C174.216 170.757 173.698 169.517 172.5 168C170.713 165.738 169.888 164.027 168.5 161.5C166.775 158.358 166.114 156.701 164.5 153.5C162.769 150.066 162.014 148.036 160.5 144.5Z" stroke="#FFAB0B" stroke-width="2"/>
        <path d="M104.501 18.5007C110.632 15.1243 114.287 13.4811 121.001 11.5007C127.283 9.64772 130.953 8.62574 137.501 8.50071C144.819 8.361 148.99 9.40045 156.001 11.5007C162.534 13.4578 166.184 14.9399 172.001 18.5007C177.333 21.7646 180.13 24.031 184.501 28.5007C190.484 34.6197 193.272 38.7976 197.001 46.5007C200.904 54.5643 202.609 59.5866 203.501 68.5007C204.459 78.0704 204.645 81.2536 202.001 90.5007C199.696 98.5649 197.447 106.122 192.001 112.501C187.842 117.372 184.66 120.704 179.501 124.501C173.742 128.739 170.431 129.873 164.001 133.001C157.054 136.379 152.652 137.438 145.001 138.501C137.652 139.522 133.345 139.561 126.001 138.501C118.541 137.424 114.41 136.013 107.501 133.001C100.195 129.815 96.2507 127.447 90.001 122.501C85.5606 118.987 82.7866 117.113 79.501 112.501C74.8064 105.911 73.097 100.816 71.001 93.0007C69.0962 85.8989 68.8829 81.8526 69.001 74.5007C69.1099 67.7234 70.4944 63.9751 72.501 57.5007C74.5731 50.8149 75.8011 46.9425 79.501 41.0007C82.8709 35.5889 90.001 28.5007 90.001 28.5007C90.001 28.5007 98.4756 21.8189 104.501 18.5007Z" fill="#FFAB0B" stroke="#FFAB0B" stroke-width="2"/>
        <path d="M101.499 21.5007C107.63 18.1243 111.286 16.4811 117.999 14.5007C124.281 12.6477 127.951 11.6257 134.499 11.5007C141.817 11.361 145.988 12.4004 152.999 14.5007C159.532 16.4578 163.182 17.9399 168.999 21.5007C174.331 24.7646 177.128 27.031 181.499 31.5007C187.482 37.6197 190.27 41.7976 193.999 49.5007C197.902 57.5643 199.607 62.5866 200.499 71.5007C201.457 81.0704 201.643 84.2536 198.999 93.5007C196.694 101.565 194.445 109.122 188.999 115.501C184.84 120.372 181.658 123.704 176.499 127.501C170.74 131.739 167.429 132.873 160.999 136.001C154.052 139.379 149.65 140.438 141.999 141.501C134.65 142.522 130.343 142.561 122.999 141.501C115.539 140.424 111.408 139.013 104.499 136.001C97.1934 132.815 93.2488 130.447 86.9991 125.501C82.5587 121.987 79.7847 120.113 76.4991 115.501C71.8044 108.911 70.095 103.816 67.999 96.0007C66.0943 88.8989 65.8809 84.8526 65.9991 77.5007C66.1079 70.7234 67.4925 66.9751 69.4991 60.5007C71.5712 53.8149 72.7992 49.9425 76.4991 44.0007C79.8689 38.5889 86.9991 31.5007 86.9991 31.5007C86.9991 31.5007 95.4736 24.8189 101.499 21.5007Z" fill="#7263B1"/>
        <path d="M104.499 18.5007C110.63 15.1243 114.286 13.4811 120.999 11.5007C127.281 9.64772 130.951 8.62574 137.499 8.50071C144.817 8.361 148.988 9.40045 155.999 11.5007C162.532 13.4578 166.182 14.9399 171.999 18.5007C177.331 21.7646 180.128 24.031 184.499 28.5007C190.482 34.6197 193.27 38.7976 196.999 46.5007C200.902 54.5643 202.607 59.5866 203.499 68.5007C204.457 78.0704 204.643 81.2536 201.999 90.5007C199.694 98.5649 197.445 106.122 191.999 112.501C187.84 117.372 184.658 120.704 179.499 124.501C173.74 128.739 170.429 129.873 163.999 133.001C157.052 136.379 152.65 137.438 144.999 138.501C137.65 139.522 133.343 139.561 125.999 138.501C118.539 137.424 114.408 136.013 107.499 133.001C100.193 129.815 96.2488 127.447 89.9991 122.501C85.5587 118.987 82.7847 117.113 79.4991 112.501C74.8044 105.911 73.095 100.816 70.999 93.0007C69.0943 85.8989 68.8809 81.8526 68.9991 74.5007C69.1079 67.7234 70.4925 63.9751 72.4991 57.5007C74.5712 50.8149 75.7992 46.9425 79.4991 41.0007C82.8689 35.5889 89.9991 28.5007 89.9991 28.5007C89.9991 28.5007 98.4736 21.8189 104.499 18.5007Z" stroke="#E93405" stroke-width="2"/>
        <ellipse cx="148.5" cy="49" rx="7.5" ry="3" fill="#2F245E"/>
        <ellipse cx="167.5" cy="46.5" rx="5.5" ry="8" fill="#2F245E"/>
        <path d="M130.018 55.4604C129.066 55.3307 128.177 55.9825 128.092 56.9394C127.652 61.8803 128.802 66.845 131.423 71.2179C134.347 76.0965 138.942 79.9714 144.507 82.2528C150.072 84.5342 156.303 85.0972 162.252 83.8562C167.56 82.7488 172.384 80.2591 176.147 76.709C176.877 76.0196 176.772 74.8519 175.974 74.2425C175.273 73.7075 174.284 73.7999 173.644 74.4072C170.352 77.5348 166.119 79.7276 161.458 80.6999C156.265 81.7833 150.825 81.2918 145.966 79.3001C141.108 77.3084 137.097 73.9255 134.544 69.6665C132.312 65.9418 131.301 61.7254 131.61 57.5163C131.683 56.5203 131.008 55.5952 130.018 55.4604Z" fill="#2F245E"/>
        <path d="M142.136 111.73C142.136 111.73 150.012 99.1256 165.837 99.0618C172.156 99.0395 166.227 126.666 163.653 126.682C161.079 126.697 149.762 130.423 141.554 117.503C142.014 114.531 142.138 111.74 142.138 111.74L142.136 111.73Z" fill="#E93405"/>
        <path d="M162.456 99.1496L167.732 115.436C167.037 119.126 166.084 122.656 165.137 125.118L157.082 100.238C158.758 99.7513 160.543 99.3726 162.456 99.1496Z" fill="#FFF8FC"/>
        <path d="M159.008 127.304C157.259 127.371 155.261 127.262 153.15 126.76L146.321 105.547C147.609 104.43 149.142 103.259 150.904 102.159L158.996 127.299L159.008 127.304Z" fill="#FFF8FC"/>
        <mask id="mask0_2181_6088" style="mask-type:luminance" maskUnits="userSpaceOnUse" x="141" y="99" width="28" height="28">
            <path d="M142.116 112.132C142.116 112.132 150.148 99.4977 166.039 99.0372C172.384 98.8565 166.158 126.265 163.574 126.344C160.989 126.424 149.59 130.385 141.475 117.843C141.967 114.899 142.118 112.142 142.118 112.142L142.116 112.132Z" fill="white"/>
        </mask>
        <g mask="url(#mask0_2181_6088)">
            <g style="mix-blend-mode:multiply">
                <path d="M138.854 120.149C139.356 117.144 142.439 111.945 142.439 111.945C142.439 111.945 145.106 107.736 150.404 104.042C146.86 113.652 150.612 122.525 168.038 120.328C167.569 123.153 164.084 134.366 164.084 134.366C164.084 134.366 147.099 132.946 138.845 120.154L138.854 120.149Z" fill="#CDD0D1"/>
            </g>
        </g>
        <path d="M140.039 106.985C140.039 106.985 136.056 94.4007 120.211 94.4661C113.883 94.4889 111.264 122.154 113.833 122.144C116.41 122.128 126.592 125.781 138.83 112.757C139.291 109.78 140.039 106.985 140.039 106.985Z" fill="#E93405"/>
        <path d="M134.97 117.722C133.354 118.98 131.789 120.015 130.288 120.845L121.745 94.3691C123.978 94.5019 125.986 94.8397 127.763 95.3617L134.97 117.722Z" fill="#FFF8FC"/>
        <path d="M116.232 98.378L123.92 122.164C121.776 122.55 119.895 122.597 118.325 122.535L113.702 108.232C114.277 104.753 115.129 101.218 116.232 98.378Z" fill="#FFF8FC"/>
        <mask id="mask1_2181_6088" style="mask-type:luminance" maskUnits="userSpaceOnUse" x="112" y="94" width="29" height="29">
            <path d="M140.1 106.608C140.1 106.608 136.225 94.2894 120.311 94.755C113.956 94.9377 111.051 122.307 113.631 122.231C116.22 122.151 126.409 125.498 138.829 112.335C139.321 109.385 140.1 106.608 140.1 106.608Z" fill="white"/>
        </mask>
        <g mask="url(#mask1_2181_6088)">
            <g style="mix-blend-mode:multiply">
                <path d="M141.222 115.338C141.697 112.49 140.361 107.687 140.361 107.687C140.361 107.687 139.114 103.8 135.158 100.534C135.526 109.532 129.035 118.216 112.822 117.016C112.379 119.692 112.169 130.235 112.169 130.235C112.169 130.235 129.117 128.001 141.222 115.338Z" fill="#CDD0D1"/>
            </g>
        </g>
        <path d="M133.594 110.783C132.913 115.906 135.651 120.184 139.71 120.352C143.768 120.51 147.608 116.485 148.289 111.363C148.969 106.24 146.232 101.961 142.172 101.793C138.115 101.635 134.275 105.66 133.586 110.787L133.594 110.783Z" fill="#E93405"/>
        <path opacity="0.5" d="M140.003 107.59C139.721 109.734 140.859 111.522 142.558 111.585C144.256 111.648 145.86 109.974 146.143 107.829C146.425 105.685 145.287 103.897 143.589 103.834C141.89 103.772 140.286 105.446 140.003 107.59Z" fill="#FFFCF5"/>
        <path d="M150.51 62.9687C150.51 69.5956 155.883 74.9687 162.51 74.9687C169.137 74.9687 174.51 69.5956 174.51 62.9687C174.51 56.3419 169.137 50.9688 162.51 50.9688C155.883 50.9688 150.51 56.3419 150.51 62.9687Z" fill="#E93405"/>
        <path d="M161.955 58.0433C161.955 60.4075 163.871 62.3239 166.235 62.3239C168.599 62.3239 170.516 60.4075 170.516 58.0433C170.516 55.6791 168.599 53.7627 166.235 53.7627C163.871 53.7627 161.955 55.6791 161.955 58.0433Z" fill="#FFFCF5"/>
        <g style="mix-blend-mode:multiply">
            <path d="M154.424 54.1211C154.335 54.7211 154.272 55.3301 154.272 55.9569C154.272 62.5838 159.645 67.9569 166.272 67.9569C169.388 67.9569 172.218 66.7569 174.35 64.8047C173.463 70.5629 168.511 74.9688 162.511 74.9688C155.884 74.9688 150.511 69.5957 150.511 62.9688C150.511 59.4584 152.024 56.3151 154.424 54.1211Z" fill="#CDD0D1"/>
        </g>
    </g>
    <defs>
        <clipPath id="clip0_2181_6088">
            <rect width="260" height="192" fill="white" transform="matrix(-1 1.0804e-07 1.0804e-07 1 260 0)"/>
        </clipPath>
    </defs>
</svg>
