<svg width="232" height="172" viewBox="0 0 232 172" fill="none" xmlns="http://www.w3.org/2000/svg">
<g clip-path="url(#clip0_2151_10644)">
<path d="M47.5012 58.5C51.9191 57.3768 59.0012 56.5 59.0012 56.5L59.0012 82C59.0012 82 53.6041 82.5855 50.5012 84C47.6919 85.2807 46.4205 85.5823 44.001 87.5C41.0774 89.8172 39.5409 92.2676 37.0012 95C33.9698 98.2614 32.4364 100.272 30.0012 104C28.0407 107.001 27.5045 108.746 26.001 112C24.6015 115.029 24.501 116.5 22.5012 120C21.7446 121.324 20.5198 122.138 19.001 122C17.6262 121.875 17.4378 121.31 17.0014 120.001L17.0012 120C16.6924 119.074 16.5011 117.476 16.5011 116.5C16.5011 114.352 16.7445 114.132 17.0012 112C17.1831 110.489 17.7365 108.653 18.2766 107.121C17.8721 108.103 17.4187 109.152 17.0012 110C16.1132 111.804 16.0011 112 14.5011 114.5C13.5243 116.128 13.0559 117.427 11.5012 118C10.2186 118.473 8.89068 118.538 8.00116 117.5C7.23871 116.61 7.50106 115.672 7.50106 114.5C7.50106 112.743 7.82602 111.749 8.00116 110C8.32016 106.815 10.2403 102.573 11.0933 100.816C10.1979 102.607 8.01894 106.965 6.50116 110C5.50106 112 5.00106 113.5 3.00116 114.5C2.30257 114.849 1.71489 114.817 1.00116 114.5C-0.604737 113.786 0.00105658 112 0.501292 110C1.28269 106.876 1.54028 105.074 2.50109 102C3.62622 98.4006 4.72877 96.3287 6.50116 93C8.53881 89.1732 10.2363 87.3395 13.0012 84C15.3802 81.1266 16.9168 79.6903 19.5012 77C22.562 73.8137 24.1557 71.886 27.5012 69C30.9906 65.9898 32.8995 64.1007 37.0012 62C40.8483 60.0297 43.3121 59.565 47.5012 58.5Z" fill="#7263B1"/>
<path d="M61.0012 53.5C61.0012 53.5 53.9191 54.3768 49.5012 55.5C45.3121 56.565 42.8483 57.0297 39.0012 59C34.8995 61.1007 32.9906 62.9898 29.5012 66C26.1557 68.886 24.562 70.8137 21.5012 74C18.9168 76.6903 17.3802 78.1266 15.0012 81C12.2363 84.3395 10.5388 86.1732 8.50116 90C6.72877 93.3287 5.62622 95.4006 4.50109 99C3.54028 102.074 3.28269 103.876 2.50129 107C2.00106 109 1.39526 110.786 3.00116 111.5C3.71489 111.817 4.30257 111.849 5.00116 111.5C7.00106 110.5 7.50106 109 8.50116 107C10.4539 103.095 13.5012 97 13.5012 97C13.5012 97 10.4135 102.883 10.0012 107C9.82602 108.749 9.50106 109.743 9.50106 111.5C9.50106 112.672 9.23871 113.61 10.0012 114.5C10.8907 115.538 12.2186 115.473 13.5012 115C15.0559 114.427 15.5243 113.128 16.5011 111.5C18.0011 109 18.1132 108.804 19.0012 107C20.1223 104.723 21.5012 101 21.5012 101C21.5012 101 19.3923 105.75 19.0012 109C18.7445 111.132 18.5011 111.352 18.5011 113.5C18.5011 114.476 18.6924 116.074 19.0012 117C19.4378 118.31 19.6259 118.875 21.001 119C22.5198 119.138 23.7446 118.324 24.5012 117C26.501 113.5 26.6015 112.029 28.001 109C29.5045 105.746 30.0407 104.001 32.0012 101C34.4364 97.2723 35.9698 95.2614 39.0012 92C41.5409 89.2676 43.0774 86.8172 46.001 84.5C48.4205 82.5823 49.6919 82.2807 52.5012 81C55.6041 79.5855 61.0012 79 61.0012 79L61.0012 53.5Z" stroke="#E93405" stroke-width="2"/>
<path d="M180.5 36C176.571 38.2776 170 41 170 41L177.5 64C177.5 64 186.15 60.9251 191.5 58.5C195.477 56.6975 197.839 55.8799 201.5 53.5C205.336 51.0062 207.336 49.305 210.5 46C213.876 42.4737 215.489 40.1861 218 36C220.336 32.1054 221.216 29.6766 223 25.5C224.966 20.8973 226.5 18.5 227.5 13.5C227.96 11.2024 228 9.84315 228 7.50001C228 6.50001 227.707 5.00831 226.5 4.50001C224.7 3.74228 224 6.00001 223 8.00001C221.982 10.0367 220.5 13.5 220.5 13.5L218 21C218 21 218.39 18.8624 218.5 17.5C218.745 14.4786 219.5 12.5 220 10C220.5 7.50001 221.076 5.85884 220 4.00001C219.447 3.04408 219.083 2.71663 218 2.50001C216.619 2.22386 216 3 215 4.5C213.643 6.53572 213.113 7.82125 212 10C210.529 12.8783 208.5 17.5 208.5 17.5C208.5 17.5 209.794 12.0305 210.5 8.5C211 6 211.5 4.5 211 2.5C210.732 1.42841 210.105 1 209 1C207.895 1 207.221 1.66319 206.5 2.5C204.729 4.55509 204.259 6.09721 203 8.5C201.215 11.9069 200.81 14.1062 199 17.5C197.266 20.7508 196.384 22.6911 194 25.5C191.943 27.9235 190.494 29.0288 188 31C185.238 33.1829 183.545 34.2347 180.5 36Z" fill="#7263B1"/>
<path d="M184.5 35C180.571 37.2776 174 40 174 40L181.5 63C181.5 63 190.15 59.9251 195.5 57.5C199.477 55.6975 201.839 54.8799 205.5 52.5C209.336 50.0062 211.336 48.305 214.5 45C217.876 41.4737 219.489 39.1861 222 35C224.336 31.1054 225.216 28.6766 227 24.5C228.966 19.8973 230.5 17.5 231.5 12.5C231.96 10.2024 232 8.84315 232 6.50001C232 5.50001 231.707 4.00831 230.5 3.50001C228.7 2.74228 228 5.00001 227 7.00001C225.982 9.03673 224.5 12.5 224.5 12.5L222 20C222 20 222.39 17.8624 222.5 16.5C222.745 13.4786 223.5 11.5 224 9.00001C224.5 6.50001 225.076 4.85884 224 3.00001C223.447 2.04408 223.083 1.71663 222 1.50001C220.619 1.22386 220 2 219 3.5C217.643 5.53572 217.113 6.82125 216 9C214.529 11.8783 212.5 16.5 212.5 16.5C212.5 16.5 213.794 11.0305 214.5 7.5C215 5 215.5 3.5 215 1.5C214.732 0.428414 214.105 4.33291e-06 213 4.21357e-06C211.895 4.09423e-06 211.221 0.663195 210.5 1.5C208.729 3.55509 208.259 5.09721 207 7.5C205.215 10.9069 204.81 13.1062 203 16.5C201.266 19.7508 200.384 21.6911 198 24.5C195.943 26.9235 194.494 28.0288 192 30C189.238 32.1829 187.545 33.2347 184.5 35Z" stroke="#E93405" stroke-width="2"/>
<path d="M98.0008 140.5C99.5012 135.5 100.501 129.5 100.501 129.5L114.501 131.5C114.501 131.5 114.492 136.52 114.001 140C113.579 143.002 113.418 145.111 112.501 148C111.491 151.18 111.001 152.5 109.501 156C108.413 158.538 107.07 159.988 104.501 161C102.139 161.93 100.477 161.557 98.0008 161C95.6989 160.482 94.6634 159.443 92.5008 158.5C90.1741 157.485 88.812 154.95 86.5008 156C84.5131 156.903 85.0014 159 84.0008 161C82.6193 163.761 81.7323 165.443 80.0014 168C78.8174 169.749 78.5204 171.382 76.5008 172C75.5672 172.286 74.3632 172.407 74.0008 171.5C73.0014 169 74.0008 167.429 74.0008 164.5L74.0008 156L74.0008 148C74.0008 145.223 74.2916 143.328 76.5008 142.5C77.5978 142.089 79.5008 142.5 79.5008 142.5C79.5008 142.5 82.311 143.017 84.0008 143.5C87.5012 144.5 88.4935 145.204 92.0012 145.5C93.1686 145.598 94.4082 145.923 95.5008 145.5C97.5367 144.712 97.3733 142.591 98.0008 140.5Z" fill="#7263B1"/>
<path d="M101.001 137.5C102.501 132.5 103.501 126.5 103.501 126.5L117.501 128.5C117.501 128.5 117.492 133.52 117.001 137C116.579 140.002 116.418 142.111 115.501 145C114.491 148.18 114.001 149.5 112.501 153C111.413 155.538 110.07 156.988 107.501 158C105.139 158.93 103.477 158.557 101.001 158C98.6989 157.482 97.6634 156.443 95.5008 155.5C93.1741 154.485 91.812 151.95 89.5008 153C87.5131 153.903 88.0014 156 87.0008 158C85.6193 160.761 84.7323 162.443 83.0014 165C81.8174 166.749 81.5204 168.382 79.5008 169C78.5672 169.286 77.3632 169.407 77.0008 168.5C76.0014 166 77.0008 164.429 77.0008 161.5L77.0008 153L77.0008 145C77.0008 142.223 77.2916 140.328 79.5008 139.5C80.5978 139.089 82.5008 139.5 82.5008 139.5C82.5008 139.5 85.311 140.017 87.0008 140.5C90.5012 141.5 91.4935 142.204 95.0012 142.5C96.1686 142.598 97.4082 142.923 98.5008 142.5C100.537 141.712 100.373 139.591 101.001 137.5Z" stroke="#E93405" stroke-width="2"/>
<path d="M141.5 141.5C139.673 137.234 137 130.5 137 130.5L150 123.5C150 123.5 152.06 128.818 153.5 132.5C154.807 135.843 155.865 138.094 157 141.5C158 144.5 158.832 148.471 162 148C164.326 147.654 164.766 146.088 166.5 144.5C169.095 142.122 171.011 140.989 173.5 138.5C175 137 175.5 136 177.5 136C178.476 136 179.121 136.6 179.5 137.5C180.106 138.94 180.217 139 180 141C179.594 144.749 178.534 146.055 177 149.5C175.579 152.691 173.988 154.628 172 157.5C170.034 160.341 169.007 161.623 166.5 164C164.994 165.428 163.451 167.292 161.5 168C159.664 168.666 158.802 169.251 157 168.5C155.216 167.757 154.698 166.517 153.5 165C151.713 162.738 150.888 161.027 149.5 158.5C147.775 155.358 147.114 153.701 145.5 150.5C143.769 147.066 143.014 145.036 141.5 141.5Z" fill="#7263B1"/>
<path d="M144.5 138.5C142.673 134.234 140 127.5 140 127.5L153 120.5C153 120.5 155.06 125.818 156.5 129.5C157.807 132.843 158.865 135.094 160 138.5C161 141.5 161.832 145.471 165 145C167.326 144.654 167.766 143.088 169.5 141.5C172.095 139.122 174.011 137.989 176.5 135.5C178 134 178.5 133 180.5 133C181.476 133 182.121 133.6 182.5 134.5C183.106 135.94 183.217 136 183 138C182.594 141.749 181.534 143.055 180 146.5C178.579 149.691 176.988 151.628 175 154.5C173.034 157.341 172.007 158.623 169.5 161C167.994 162.428 166.451 164.292 164.5 165C162.664 165.666 161.802 166.251 160 165.5C158.216 164.757 157.698 163.517 156.5 162C154.713 159.738 153.888 158.027 152.5 155.5C150.775 152.358 150.114 150.701 148.5 147.5C146.769 144.066 146.014 142.036 144.5 138.5Z" stroke="#E93405" stroke-width="2"/>
<path d="M88.501 12.5007C94.6323 9.12426 98.2875 7.48111 105.001 5.50073C111.283 3.64774 114.953 2.62575 121.501 2.50073C128.819 2.36101 132.99 3.40047 140.001 5.50073C146.534 7.45785 150.184 8.93987 156.001 12.5007C161.333 15.7646 164.13 18.031 168.501 22.5007C174.484 28.6197 177.272 32.7976 181.001 40.5007C184.904 48.5644 186.609 53.5866 187.501 62.5007C188.459 72.0704 188.645 75.2537 186.001 84.5007C183.696 92.5649 181.447 100.122 176.001 106.501C171.842 111.372 168.66 114.704 163.501 118.501C157.742 122.739 154.431 123.873 148.001 127.001C141.054 130.379 136.652 131.438 129.001 132.501C121.652 133.522 117.345 133.561 110.001 132.501C102.541 131.424 98.41 130.013 91.501 127.001C84.1953 123.815 80.2507 121.447 74.001 116.501C69.5606 112.987 66.7866 111.113 63.501 106.501C58.8063 99.911 57.0969 94.8156 55.001 87.0007C53.0962 79.8989 52.8829 75.8526 53.001 68.5007C53.1099 61.7234 54.4944 57.9751 56.501 51.5007C58.5731 44.8149 59.8011 40.9425 63.501 35.0007C66.8709 29.5889 74.001 22.5007 74.001 22.5007C74.001 22.5007 82.4756 15.8189 88.501 12.5007Z" fill="#FFE6B6" stroke="#FFAB0B" stroke-width="2"/>
<path d="M85.499 15.5007C91.6304 12.1243 95.2855 10.4811 101.999 8.50073C108.281 6.64774 111.951 5.62575 118.499 5.50073C125.817 5.36101 129.988 6.40047 136.999 8.50073C143.532 10.4578 147.182 11.9399 152.999 15.5007C158.331 18.7646 161.128 21.031 165.499 25.5007C171.482 31.6197 174.27 35.7976 177.999 43.5007C181.902 51.5644 183.607 56.5866 184.499 65.5007C185.457 75.0704 185.643 78.2537 182.999 87.5007C180.694 95.5649 178.445 103.122 172.999 109.501C168.84 114.372 165.658 117.704 160.499 121.501C154.74 125.739 151.429 126.873 144.999 130.001C138.052 133.379 133.65 134.438 125.999 135.501C118.65 136.522 114.343 136.561 106.999 135.501C99.5391 134.424 95.4081 133.013 88.499 130.001C81.1934 126.815 77.2487 124.447 70.999 119.501C66.5587 115.987 63.7846 114.113 60.499 109.501C55.8044 102.911 54.095 97.8156 51.999 90.0007C50.0943 82.8989 49.8809 78.8526 49.999 71.5007C50.1079 64.7234 51.4925 60.9751 53.499 54.5007C55.5712 47.8149 56.7992 43.9425 60.499 38.0007C63.8689 32.5889 70.999 25.5007 70.999 25.5007C70.999 25.5007 79.4736 18.8189 85.499 15.5007Z" fill="#7263B1"/>
<path d="M88.499 12.5007C94.6304 9.12426 98.2855 7.48111 104.999 5.50073C111.281 3.64774 114.951 2.62575 121.499 2.50073C128.817 2.36101 132.988 3.40047 139.999 5.50073C146.532 7.45785 150.182 8.93987 155.999 12.5007C161.331 15.7646 164.128 18.031 168.499 22.5007C174.482 28.6197 177.27 32.7976 180.999 40.5007C184.902 48.5644 186.607 53.5866 187.499 62.5007C188.457 72.0704 188.643 75.2537 185.999 84.5007C183.694 92.5649 181.445 100.122 175.999 106.501C171.84 111.372 168.658 114.704 163.499 118.501C157.74 122.739 154.429 123.873 147.999 127.001C141.052 130.379 136.65 131.438 128.999 132.501C121.65 133.522 117.343 133.561 109.999 132.501C102.539 131.424 98.4081 130.013 91.499 127.001C84.1934 123.815 80.2487 121.447 73.999 116.501C69.5587 112.987 66.7846 111.113 63.499 106.501C58.8044 99.911 57.095 94.8156 54.999 87.0007C53.0943 79.8989 52.8809 75.8526 52.999 68.5007C53.1079 61.7234 54.4925 57.9751 56.499 51.5007C58.5712 44.8149 59.7992 40.9425 63.499 35.0007C66.8689 29.5889 73.999 22.5007 73.999 22.5007C73.999 22.5007 82.4736 15.8189 88.499 12.5007Z" stroke="#E93405" stroke-width="2"/>
<ellipse cx="134.5" cy="40.5" rx="5.5" ry="8" fill="#2F245E"/>
<ellipse cx="151.5" cy="40.5" rx="5.5" ry="8" fill="#2F245E"/>
<path d="M114.018 49.4604C113.066 49.3307 112.177 49.9825 112.092 50.9394C111.652 55.8803 112.802 60.845 115.423 65.2179C118.347 70.0965 122.942 73.9714 128.507 76.2528C134.072 78.5342 140.303 79.0972 146.252 77.8562C151.56 76.7488 156.384 74.2591 160.147 70.709C160.877 70.0196 160.772 68.8519 159.974 68.2425C159.273 67.7075 158.284 67.7999 157.644 68.4073C154.352 71.5348 150.119 73.7276 145.458 74.6999C140.265 75.7834 134.825 75.2918 129.966 73.3001C125.108 71.3084 121.097 67.9255 118.544 63.6665C116.312 59.9418 115.301 55.7254 115.61 51.5163C115.683 50.5203 115.008 49.5952 114.018 49.4604Z" fill="#2F245E"/>
<path d="M129.345 108.332C129.345 108.332 136.975 96.1931 152.368 96.2028C158.515 96.2099 152.815 122.869 150.311 122.872C147.807 122.875 136.808 126.424 128.793 113.906C129.233 111.037 129.347 108.342 129.347 108.342L129.345 108.332Z" fill="#E93405"/>
<path d="M149.095 96.2739L154.25 111.997C153.587 115.55 152.673 118.948 151.762 121.316L143.893 97.2956C145.515 96.8349 147.243 96.479 149.095 96.2739Z" fill="#FFF8FC"/>
<path d="M145.768 123.446C144.074 123.501 142.137 123.386 140.09 122.891L133.416 102.409C134.661 101.339 136.144 100.218 137.848 99.1668L145.756 123.44L145.768 123.446Z" fill="#FFF8FC"/>
<mask id="mask0_2151_10644" style="mask-type:luminance" maskUnits="userSpaceOnUse" x="128" y="96" width="28" height="28">
<path d="M129.327 108.706C129.327 108.706 137.105 96.5393 152.559 96.18C158.73 96.0396 152.751 122.495 150.237 122.558C147.723 122.621 136.647 126.388 128.72 114.222C129.19 111.38 129.329 108.716 129.329 108.716L129.327 108.706Z" fill="white"/>
</mask>
<g mask="url(#mask0_2151_10644)">
<g style="mix-blend-mode:multiply">
<path d="M126.169 116.435C126.648 113.535 129.63 108.531 129.63 108.531C129.63 108.531 132.211 104.481 137.35 100.941C133.932 110.204 137.604 118.793 154.536 116.766C154.088 119.492 150.732 130.302 150.732 130.302C150.732 130.302 134.219 128.839 126.16 116.44L126.169 116.435Z" fill="#CDD0D1"/>
</g>
</g>
<path d="M127.281 103.898C127.281 103.898 123.377 91.7254 107.965 91.7169C101.81 91.7104 99.3295 118.42 101.828 118.421C104.335 118.418 114.247 121.992 126.119 109.468C126.561 106.594 127.281 103.898 127.281 103.898Z" fill="#E93405"/>
<path d="M122.364 114.215C120.801 115.419 119.287 116.409 117.835 117.201L109.487 91.6386C111.652 91.778 113.598 92.1139 115.321 92.6261L122.364 114.215Z" fill="#FFF8FC"/>
<path d="M104.094 95.5267L111.606 118.491C109.53 118.852 107.708 118.888 106.187 118.82L101.669 105.011C102.217 101.661 103.033 98.2578 104.094 95.5267Z" fill="#FFF8FC"/>
<mask id="mask1_2151_10644" style="mask-type:luminance" maskUnits="userSpaceOnUse" x="100" y="91" width="28" height="28">
<path d="M127.338 103.547C127.338 103.547 123.535 91.6218 108.058 91.9858C101.878 92.128 99.1294 118.562 101.639 118.503C104.156 118.439 114.075 121.729 126.118 109.075C126.588 106.227 127.338 103.547 127.338 103.547Z" fill="white"/>
</mask>
<g mask="url(#mask1_2151_10644)">
<g style="mix-blend-mode:multiply">
<path d="M128.443 111.96C128.897 109.207 127.583 104.552 127.583 104.552C127.583 104.552 126.359 100.785 122.499 97.604C122.882 106.312 116.588 114.681 100.803 113.434C100.378 116.021 100.203 126.221 100.203 126.221C100.203 126.221 116.694 124.148 128.443 111.96Z" fill="#CDD0D1"/>
</g>
</g>
<path d="M121.027 107.468C120.374 112.408 123.044 116.546 126.993 116.72C130.94 116.885 134.668 113.013 135.322 108.072C135.975 103.131 133.304 98.9941 129.355 98.8195C125.408 98.6549 121.68 102.527 121.019 107.471L121.027 107.468Z" fill="#E93405"/>
<path opacity="0.5" d="M127.267 104.404C126.996 106.472 128.106 108.201 129.758 108.267C131.411 108.333 132.968 106.722 133.239 104.654C133.51 102.586 132.4 100.857 130.747 100.791C129.095 100.726 127.538 102.336 127.267 104.404Z" fill="#FFFCF5"/>
<path d="M134.51 56.9687C134.51 63.5956 139.883 68.9687 146.51 68.9687C153.137 68.9687 158.51 63.5956 158.51 56.9687C158.51 50.3419 153.137 44.9687 146.51 44.9687C139.883 44.9687 134.51 50.3419 134.51 56.9687Z" fill="#E93405"/>
<path d="M145.954 52.0435C145.954 54.4077 147.871 56.3241 150.235 56.3241C152.599 56.3241 154.516 54.4077 154.516 52.0435C154.516 49.6794 152.599 47.7629 150.235 47.7629C147.871 47.7629 145.954 49.6794 145.954 52.0435Z" fill="#FFFCF5"/>
<g style="mix-blend-mode:multiply">
<path d="M138.424 48.1211C138.335 48.7211 138.272 49.33 138.272 49.9569C138.272 56.5838 143.645 61.9569 150.272 61.9569C153.388 61.9569 156.218 60.7569 158.35 58.8047C157.463 64.5629 152.511 68.9688 146.511 68.9688C139.884 68.9688 134.511 63.5957 134.511 56.9688C134.511 53.4584 136.024 50.3151 138.424 48.1211Z" fill="#CDD0D1"/>
</g>
</g>
<defs>
<clipPath id="clip0_2151_10644">
<rect width="232" height="172" fill="white" transform="matrix(-1 -1.0804e-07 -1.0804e-07 1 232 0)"/>
</clipPath>
</defs>
</svg>
