<svg width="155" height="164" viewBox="0 0 155 164" fill="none" xmlns="http://www.w3.org/2000/svg">
<path d="M122.97 74.7058C119.197 72.1904 112.657 69.3711 112.657 69.3711V84.3081L115.146 98.1783C115.146 98.1783 118.586 99.9072 120.125 101.735C121.97 103.924 122.07 105.774 122.97 108.492C123.648 110.539 124.127 111.687 124.393 113.827C124.632 115.756 124.808 116.906 124.393 118.806C124.073 120.267 123.28 120.899 122.97 122.362C122.597 124.129 122.175 125.364 122.97 126.985C123.362 127.784 123.554 128.469 124.393 128.764C125.629 129.197 126.265 127.863 127.238 126.985C128.813 125.566 130.083 122.362 130.083 122.362C130.083 122.362 129.347 126.374 130.083 128.764C130.651 130.608 130.795 132.281 132.573 133.031C133.724 133.517 134.638 133.555 135.773 133.031C137.465 132.251 138.619 128.764 138.619 128.764C138.619 128.764 139.392 130.799 140.753 131.609C142.304 132.532 143.651 133.565 145.376 133.031C146.412 132.711 146.955 132.185 147.51 131.253C148.362 129.821 147.51 126.985 147.51 126.985C147.51 126.985 148.746 130.56 150.71 131.253C151.889 131.669 152.911 132.003 153.911 131.253C155.245 130.253 154.978 128.652 154.978 126.985C154.978 123.791 154.58 121.929 153.911 118.806C152.845 113.827 152.298 112.399 150.71 108.492C149.004 104.291 147.812 102.003 145.376 98.1783C142.824 94.1711 140.963 91.7703 137.907 88.5759L130.083 80.3961C127.028 77.2016 125.93 76.679 122.97 74.7058Z" fill="#E93405"/>
<path d="M145.376 124.853C145.376 124.853 146.612 128.427 148.577 129.12C149.755 129.536 150.777 129.87 151.777 129.12C153.111 128.12 152.845 126.519 152.845 124.853C152.845 121.658 152.447 119.796 151.777 116.673C150.711 111.694 150.164 110.266 148.577 106.359C146.87 102.158 145.678 99.8704 143.242 96.0455C140.69 92.0383 138.829 89.6375 135.773 86.4431C132.718 83.2486 131.005 81.4577 127.949 78.2632C124.894 75.0688 123.796 74.5462 120.836 72.5729C117.063 70.0576 110.523 67.2383 110.523 67.2383V82.1753L113.012 96.0455C113.012 96.0455 116.452 97.7744 117.991 99.6019C119.836 101.792 119.936 103.641 120.836 106.359C121.514 108.406 121.993 109.554 122.259 111.694C122.499 113.623 122.675 114.773 122.259 116.673C121.939 118.134 121.146 118.766 120.836 120.229C120.463 121.996 120.041 123.232 120.836 124.853C121.228 125.651 121.42 126.336 122.259 126.631C123.495 127.065 124.131 125.73 125.104 124.853C126.679 123.433 127.949 120.229 127.949 120.229C127.949 120.229 127.213 124.242 127.949 126.631C128.517 128.475 128.661 130.149 130.439 130.899C131.591 131.384 132.505 131.422 133.64 130.899C135.331 130.118 136.485 126.631 136.485 126.631M145.376 124.853L143.242 120.229M145.376 124.853C145.376 124.853 146.228 127.688 145.376 129.12C144.821 130.053 144.278 130.578 143.242 130.899C141.517 131.432 140.17 130.399 138.619 129.476C137.258 128.666 136.485 126.631 136.485 126.631M136.485 126.631L135.773 122.007" stroke="#FFAB0B" stroke-width="1.42258"/>
<path d="M43.3047 67.2381C43.3047 67.2381 39.0951 66.8481 36.9031 65.4599C35.2437 64.409 34.5 63.6984 33.7023 61.9035C32.7998 59.8728 32.991 57.2802 32.991 55.1463C32.991 51.6741 33.3467 50.7942 33.3467 47.322C33.3467 45.0998 33.6472 43.8335 33.3467 41.6317C33.0138 39.1933 32.6499 37.7965 31.5684 35.5858C30.6034 33.6132 29.6854 32.3636 28.3676 30.6069C27.3007 29.1845 26.6754 27.8223 25.1668 28.8286C24.0999 29.5402 24.2777 30.6069 24.4556 31.3184C24.9731 33.3885 25.1668 33.7803 25.1668 35.5858C22.8058 34.8914 21.5565 34.1611 19.1209 33.8076C16.6468 33.4484 15.1752 33.3403 12.7193 33.8076C10.691 34.1935 9.87415 34.2186 7.74028 35.5858C6.08646 36.6454 4.86774 37.301 4.18384 39.1422C3.29215 41.5429 4.28881 43.3478 5.60642 45.5438C6.61697 47.2281 8.80722 49.1003 8.80722 49.1003C8.80722 49.1003 10.1667 55.2451 11.2967 59.0583C12.2643 62.3235 12.6723 63.6645 13.7862 66.8828C15.3866 71.5064 16.6103 73.6839 19.1209 77.1961C21.1206 79.9936 22.5221 81.4 25.1668 83.5977C27.4777 85.518 28.8939 86.4964 31.5684 87.8655C34.4626 89.347 39.3926 90.7106 39.3926 90.7106L43.3047 79.33V67.2381Z" fill="#E93405"/>
<path d="M22.3231 34.1625C22.3231 32.357 22.1294 31.9653 21.6118 29.8951C21.4339 29.1836 21.2562 28.1169 22.3231 27.4053C23.8317 26.399 24.8126 27.414 25.8795 28.8364C27.1973 30.5931 28.1369 32.1899 29.1019 34.1625C30.1834 36.3733 30.17 37.77 30.5029 40.2085C30.8035 42.4102 30.5029 43.6766 30.5029 45.8988C30.5029 49.371 30.1473 50.2508 30.1473 53.723C30.1473 55.8569 29.956 58.4496 30.8585 60.4802C31.6563 62.2751 32.3999 62.9857 34.0593 64.0366C36.2514 65.4248 40.4609 65.8148 40.4609 65.8148V77.9067L36.5489 89.2873C36.5489 89.2873 31.6188 87.9237 28.7247 86.4422C26.0501 85.0731 24.634 84.0947 22.3231 82.1745C19.6783 79.9768 18.2768 78.5703 16.2771 75.7729C13.7665 72.2607 12.5429 70.0831 10.9425 65.4595C9.82854 62.2412 9.42056 60.9003 8.45297 57.635C7.323 53.8218 5.96346 47.677 5.96346 47.677M22.3231 34.1625C23.5731 35.5514 23.799 36.326 24.457 38.0749C25.0927 39.7648 25.3087 40.6294 25.8795 42.3423C26.2352 43.4095 26.5562 44.9697 25.5239 45.8988C24.5948 46.735 23.2992 46.6795 22.3231 45.8988C20.5449 44.4765 20.5103 43.7907 19.4779 42.3423C18.8966 41.5268 18.0554 40.2085 18.0554 40.2085C18.0554 40.2085 18.7667 43.7652 18.0554 45.8988C17.7448 46.8304 17.2214 47.4072 16.2771 47.677C14.9022 48.0698 13.7876 46.6103 13.0763 45.8988C12.4159 45.238 12.0637 44.8468 11.4759 44.1205M22.3231 34.1625C19.962 33.4681 18.7127 32.7378 16.2771 32.3843C13.8031 32.0252 12.3315 31.917 9.87555 32.3843C7.84723 32.7702 7.0304 32.7953 4.89653 34.1625C3.24271 35.2221 2.02399 35.8777 1.34009 37.719C0.4484 40.1197 1.44506 41.9245 2.76267 44.1205C3.77322 45.8048 5.96346 47.677 5.96346 47.677M10.2312 41.6313C10.2312 41.6313 10.851 43.4261 11.4759 44.1205M11.4759 44.1205C11.2926 45.9341 10.9246 47.5598 9.16426 48.0329C8.35949 48.2492 5.96346 47.677 5.96346 47.677" stroke="#FFAB0B" stroke-width="1.42258"/>
<path d="M107.677 118.806C107.677 115.973 106.966 110.626 106.966 110.626L94.168 116.672L86.6995 123.429C86.6995 123.429 87.3707 129.747 88.122 133.743C88.7011 136.822 89.2159 138.509 89.9003 141.567C90.8938 146.007 91.3684 148.514 92.3898 152.948C93.0629 155.869 93.0961 157.927 94.168 160.416C94.5197 161.233 94.728 161.978 95.5906 162.194C97.0082 162.55 99.9257 162.194 102.703 162.194H109.461H117.285C118.674 162.194 120.249 162.739 120.841 161.483C120.924 161.308 121.061 161.075 120.841 160.416C120.35 158.943 118.702 159.272 117.285 158.638C115.519 157.848 114.332 157.836 112.661 156.86C111.294 156.061 110.39 155.652 109.461 154.37C107.504 151.671 108.311 149.157 108.038 145.835C107.761 142.467 108.038 140.5 108.038 137.299V129.119C108.038 125.231 107.677 122.718 107.677 118.806Z" fill="#E93405"/>
<path d="M105.544 117.384C105.544 114.551 104.832 109.204 104.832 109.204L92.0342 115.25L84.5657 122.007C84.5657 122.007 85.2369 128.325 85.9883 132.321C86.5673 135.4 87.0822 137.087 87.7665 140.145C88.76 144.585 89.2346 147.092 90.256 151.526C90.9291 154.447 90.9623 156.505 92.0342 158.994C92.3859 159.811 92.5942 160.556 93.4568 160.772C94.8744 161.128 97.7919 160.772 100.57 160.772H107.327H115.151C116.54 160.772 118.115 161.317 118.708 160.061C118.79 159.886 118.927 159.653 118.708 158.994C118.216 157.521 116.568 157.85 115.151 157.216C113.385 156.426 112.198 156.414 110.528 155.438C109.16 154.639 108.256 154.23 107.327 152.948C105.371 150.249 106.177 147.735 105.904 144.413C105.628 141.045 105.904 139.078 105.904 135.877V127.698C105.904 123.809 105.544 121.296 105.544 117.384Z" stroke="#FFAB0B" stroke-width="1.42258"/>
<path d="M69.6237 133.031C69.9724 129.437 70.335 124.14 70.335 124.14L61.0882 121.651L49.7076 112.76V121.651V127.697V137.655V147.257V154.37C49.7076 156.148 48.9963 156.504 46.8625 157.215C44.4871 158.007 44.0173 158.282 40.8165 159.349C39.4599 159.801 38.6826 159.705 37.6157 161.127C37.0324 161.905 36.7461 162.826 37.6157 163.261C38.327 163.617 40.1052 163.617 40.8165 163.617H46.8625H54.6866C57.1866 163.617 60.3769 163.889 61.0882 163.617C62.6714 163.011 63.4956 162.374 64.6447 161.127C67.0886 158.476 66.9047 153.659 67.1342 152.236C67.3636 150.814 68.5567 141.567 68.5567 141.567C68.5567 141.567 69.3238 136.123 69.6237 133.031Z" fill="#E93405"/>
<path d="M67.4899 131.61C67.8386 128.015 68.2012 122.719 68.2012 122.719L58.9544 120.229L47.5738 111.338V120.229V126.275V136.233V145.835V152.948C47.5738 154.726 46.8625 155.082 44.7287 155.793C42.3533 156.585 41.8835 156.86 38.6827 157.927C37.3262 158.379 36.5488 158.283 35.4819 159.705C34.8986 160.483 34.6123 161.405 35.4819 161.839C36.1932 162.195 37.9714 162.195 38.6827 162.195H44.7287H52.5528C55.0528 162.195 58.2431 162.467 58.9544 162.195C60.5376 161.589 61.3618 160.952 62.5109 159.705C64.9548 157.054 64.7709 152.237 65.0004 150.814C65.2298 149.392 66.423 140.145 66.423 140.145C66.423 140.145 67.19 134.701 67.4899 131.61Z" stroke="#FFAB0B" stroke-width="1.42258"/>
<path d="M111.589 64.3933C109.271 60.6191 107.333 58.9064 104.12 55.8578C101.398 53.275 99.8314 51.8048 96.6518 49.8119C93.6515 47.9313 91.8511 46.958 88.472 45.8998C84.3292 44.6024 81.7878 44.5403 77.447 44.4772C72.5548 44.4061 69.7759 44.8395 64.9995 45.8998C60.2831 46.9467 57.5176 47.5225 53.2632 49.8119C49.2513 51.9707 47.1114 53.5815 44.0165 56.9247C40.666 60.544 39.2676 63.0895 37.2592 67.5941C35.4878 71.5671 34.7745 73.9726 34.0584 78.2634C33.121 83.8801 33.0317 87.2437 34.0584 92.8448C34.7949 96.8627 35.4718 99.1298 37.2592 102.803C39.5201 107.449 41.3017 109.951 45.0834 113.472C48.9193 117.043 51.6824 118.439 56.464 120.585C61.5986 122.889 64.7489 123.805 70.3341 124.497C74.8826 125.061 77.5432 125.212 82.0704 124.497C86.8425 123.744 89.4816 122.738 93.8066 120.585C98.1867 118.405 100.422 116.675 104.12 113.472C107.313 110.707 109.231 109.153 111.589 105.648C113.809 102.348 114.672 100.198 115.857 96.4012C117.156 92.2381 117.682 89.7372 117.635 85.3763C117.591 81.3115 116.956 79.0258 115.874 75.1265L115.857 75.0626C114.657 70.7384 113.937 68.2172 111.589 64.3933Z" fill="white" stroke="#FFAB0B" stroke-width="1.42258"/>
<path d="M113.012 65.8151C110.694 62.041 108.756 60.3283 105.543 57.2797C102.821 54.6968 101.254 53.2267 98.0746 51.2337C95.0744 49.3531 93.274 48.3798 89.8948 47.3216C85.752 46.0243 83.2106 45.9622 78.8699 45.8991C73.9777 45.828 71.1988 46.2614 66.4223 47.3216C61.7059 48.3686 58.9404 48.9444 54.6861 51.2337C50.6742 53.3926 48.5343 55.0034 45.4393 58.3466C42.0889 61.9658 40.6904 64.5114 38.6821 69.0159C36.9107 72.989 36.1974 75.3945 35.4813 79.6853C34.5439 85.302 34.4546 88.6656 35.4813 94.2667C36.2178 98.2845 36.8947 100.552 38.6821 104.225C40.943 108.871 42.7246 111.373 46.5063 114.894C50.3422 118.465 53.1053 119.861 57.8869 122.007C63.0215 124.311 66.1718 125.227 71.757 125.919C76.3055 126.483 78.966 126.634 83.4932 125.919C88.2653 125.165 90.9045 124.16 95.2295 122.007C99.6096 119.827 101.845 118.097 105.543 114.894C108.736 112.129 110.654 110.574 113.012 107.07C115.232 103.77 116.095 101.62 117.279 97.8231C118.579 93.6599 119.105 91.159 119.058 86.7981C119.014 82.7334 118.379 80.4477 117.297 76.5484L117.279 76.4845C116.079 72.1603 115.36 69.6391 113.012 65.8151Z" fill="#E93405"/>
<path d="M111.589 64.3933C109.271 60.6191 107.333 58.9064 104.12 55.8578C101.398 53.275 99.8314 51.8048 96.6518 49.8119C93.6515 47.9313 91.8511 46.958 88.472 45.8998C84.3292 44.6024 81.7878 44.5403 77.447 44.4772C72.5548 44.4061 69.7759 44.8395 64.9995 45.8998C60.2831 46.9467 57.5176 47.5225 53.2632 49.8119C49.2513 51.9707 47.1114 53.5815 44.0165 56.9247C40.666 60.544 39.2676 63.0895 37.2592 67.5941C35.4878 71.5671 34.7745 73.9726 34.0584 78.2634C33.121 83.8801 33.0317 87.2437 34.0584 92.8448C34.7949 96.8627 35.4718 99.1298 37.2592 102.803C39.5201 107.449 41.3017 109.951 45.0834 113.472C48.9193 117.043 51.6824 118.439 56.464 120.585C61.5986 122.889 64.7489 123.805 70.3341 124.497C74.8826 125.061 77.5432 125.212 82.0704 124.497C86.8425 123.744 89.4816 122.738 93.8066 120.585C98.1867 118.405 100.422 116.675 104.12 113.472C107.313 110.707 109.231 109.153 111.589 105.648C113.809 102.348 114.672 100.198 115.857 96.4012C117.156 92.2381 117.682 89.7372 117.635 85.3763C117.591 81.3115 116.956 79.0258 115.874 75.1265L115.857 75.0626C114.657 70.7384 113.937 68.2172 111.589 64.3933Z" stroke="#FFAB0B" stroke-width="1.42258"/>
<ellipse cx="2.48951" cy="2.84515" rx="2.48951" ry="2.84515" transform="matrix(-1 0 0 1 82.0703 57.9912)" fill="#2F245E"/>
<ellipse cx="2.48951" cy="2.84515" rx="2.48951" ry="2.84515" transform="matrix(-1 0 0 1 72.8242 57.9912)" fill="#2F245E"/>
<path d="M71.7427 76.855C71.4311 77.1666 71.4294 77.6741 71.762 77.9631C73.488 79.4626 75.6311 80.4118 77.9145 80.6766C80.4628 80.9722 83.0362 80.3982 85.2173 79.0476C87.3984 77.697 89.0592 75.6492 89.9303 73.2362C90.7108 71.0741 90.8163 68.7325 90.2431 66.5192C90.1327 66.0926 89.6776 65.868 89.2598 66.008V66.008C88.842 66.1481 88.6203 66.5998 88.7259 67.0276C89.1876 68.8985 89.0878 70.8707 88.4294 72.6944C87.6805 74.769 86.2525 76.5298 84.3772 77.691C82.502 78.8522 80.2894 79.3458 78.0984 79.0916C76.1724 78.8682 74.3624 78.0786 72.8933 76.8314C72.5574 76.5462 72.0542 76.5434 71.7427 76.855V76.855Z" fill="#2F245E"/>
<path d="M109.811 61.0094C109.811 61.0094 88.8016 63.4456 70.0025 46.5348C69.669 46.6897 105.837 9.10352 105.837 9.10352L109.811 61.0034V61.0094Z" fill="#FFAB0B"/>
<path d="M87.1278 38.4463L84.5426 40.954L81.0163 40.2452L82.6008 43.4796L80.8317 46.6188L84.3997 46.1065L86.8359 48.7572L87.4554 45.207L90.7256 43.7119L87.5448 42.0262L87.1278 38.4463Z" fill="#FFFCF5"/>
<path d="M106.498 18.8535L106.576 18.776L107.034 24.7445L106.349 24.0059L102.787 24.5122L104.55 21.3731L102.966 18.1387L106.498 18.8535Z" fill="#FFFCF5"/>
<path d="M97.2247 24.8877L95.9858 26.0969L94.2881 25.7514L95.0506 27.3061L94.1988 28.8131L95.9143 28.5689L97.0877 29.8436L97.3796 28.14L98.9521 27.4193L97.4273 26.6091L97.2247 24.8877Z" fill="#FFFCF5"/>
<path d="M103.948 37.8447L102.709 39.048L101.012 38.7084L101.774 40.2571L100.922 41.7642L102.638 41.5259L103.811 42.7947L104.109 41.0911L105.676 40.3703L104.151 39.5602L103.948 37.8447Z" fill="#FFFCF5"/>
<path d="M101.776 52.4502L100.538 53.6534L98.8399 53.3079L99.6023 54.8626L98.7505 56.3696L100.466 56.1254L101.639 57.4001L101.937 55.6965L103.504 54.9758L101.979 54.1657L101.776 52.4502Z" fill="#FFFCF5"/>
<g style="mix-blend-mode:multiply">
<path d="M70.0026 46.5398C69.6929 46.6888 101.239 13.8917 105.385 9.5791C105.57 9.60888 105.736 9.63271 105.879 9.65654L106.296 15.083C105.707 14.9281 105.087 14.7554 104.45 14.5529C100.489 13.2782 95.759 23.452 88.9506 32.4763C82.6187 40.8751 78.2228 50.5546 109.304 54.474L109.805 61.0203C109.805 61.0203 88.7957 63.4566 69.9967 46.5458L70.0026 46.5398Z" fill="#CDD0D1"/>
</g>
<path d="M101.078 4.65384C99.97 7.76319 101.59 11.1823 104.7 12.2902C107.809 13.3981 111.228 11.7779 112.336 8.66859C113.444 5.55924 111.824 2.14014 108.714 1.03222C105.605 -0.0757126 102.186 1.54449 101.078 4.65384Z" fill="#7263B1"/>
<g style="mix-blend-mode:multiply">
<path d="M105.486 0.817383C105.486 0.817383 105.48 0.829283 105.48 0.841196C104.372 3.95054 105.992 7.36964 109.101 8.47757C110.18 8.85879 111.294 8.91241 112.336 8.69202C111.216 11.7835 107.809 13.3977 104.711 12.2898C101.602 11.1819 99.9819 7.76279 101.09 4.65344C101.817 2.62224 103.526 1.23435 105.492 0.817383H105.486Z" fill="#CDD0D1"/>
</g>
<path d="M79.2423 70.0332C79.2423 73.3721 76.5352 76.0792 73.1963 76.0792C69.8575 76.0792 67.1504 73.3721 67.1504 70.0332C67.1504 66.6944 69.8575 63.9873 73.1963 63.9873C76.5352 63.9873 79.2423 66.6944 79.2423 70.0332Z" fill="#E93405"/>
<path d="M73.4755 67.5512C73.4755 68.7424 72.5099 69.7079 71.3188 69.7079C70.1277 69.7079 69.1621 68.7424 69.1621 67.5512C69.1621 66.3601 70.1277 65.3945 71.3188 65.3945C72.5099 65.3945 73.4755 66.3601 73.4755 67.5512Z" fill="#FFFCF5"/>
<g style="mix-blend-mode:multiply">
<path d="M77.2704 65.5752C77.3155 65.8775 77.3471 66.1843 77.3471 66.5001C77.3471 69.8389 74.64 72.5461 71.3012 72.5461C69.731 72.5461 68.3053 71.9415 67.2314 70.9579C67.6781 73.859 70.1732 76.0789 73.1962 76.0789C76.535 76.0789 79.2421 73.3718 79.2421 70.033C79.2421 68.2643 78.4796 66.6806 77.2704 65.5752Z" fill="#CDD0D1"/>
</g>
</svg>
