<svg width="142" height="105" viewBox="0 0 142 105" fill="none" xmlns="http://www.w3.org/2000/svg">
<g clip-path="url(#clip0_2151_10686)">
<path d="M28.9963 35.7121C31.6932 35.0265 36.0166 34.4912 36.0166 34.4912L36.0166 50.0581C36.0166 50.0581 32.7219 50.4155 30.8277 51.279C29.1127 52.0608 28.3366 52.2449 26.8595 53.4156C25.0748 54.8302 24.1368 56.3261 22.5864 57.9941C20.7358 59.9851 19.7997 61.2127 18.3131 63.4883C17.1163 65.3203 16.789 66.3856 15.8711 68.372C15.0168 70.2211 14.9554 71.1191 13.7346 73.2557C13.2728 74.0641 12.525 74.561 11.5979 74.4767C10.7586 74.4004 10.6436 74.0555 10.3772 73.2562L10.3771 73.2557C10.1886 72.6903 10.0718 71.7151 10.0718 71.1191C10.0718 69.8079 10.2204 69.6738 10.3771 68.372C10.4881 67.4493 10.826 66.3285 11.1557 65.3935C10.9087 65.9931 10.632 66.6333 10.3771 67.1511C9.83502 68.2521 9.76654 68.372 8.85084 69.8982C8.2546 70.8919 7.9686 71.6851 7.01951 72.0348C6.23655 72.3233 5.42591 72.3631 4.88288 71.7296C4.41743 71.1866 4.57759 70.6134 4.57759 69.8982C4.57759 68.8254 4.77597 68.2186 4.88288 67.1511C5.07762 65.2068 6.24979 62.6173 6.77053 61.5444C6.22389 62.6378 4.89373 65.2982 3.96719 67.1511C3.35666 68.372 3.05143 69.2877 1.83056 69.8982C1.4041 70.1114 1.04534 70.0918 0.609628 69.8982C-0.370715 69.4625 -0.000899332 68.372 0.304477 67.1511C0.781491 65.2439 0.938742 64.1437 1.52528 62.2674C2.21214 60.0701 2.8852 58.8052 3.96719 56.7732C5.2111 54.437 6.24734 53.3176 7.93521 51.279C9.38753 49.5249 10.3256 48.6481 11.9032 47.0057C13.7718 45.0606 14.7447 43.8838 16.787 42.122C18.9171 40.2844 20.0824 39.1312 22.5864 37.8488C24.9349 36.6459 26.439 36.3623 28.9963 35.7121Z" fill="#E93405"/>
<path d="M37.2373 32.6602C37.2373 32.6602 32.9139 33.1954 30.217 33.8811C27.6597 34.5312 26.1556 34.8149 23.8071 36.0177C21.3031 37.3001 20.1378 38.4534 18.0077 40.291C15.9654 42.0528 14.9925 43.2296 13.1239 45.1747C11.5463 46.817 10.6082 47.6938 9.15591 49.4479C7.46804 51.4866 6.4318 52.606 5.18789 54.9421C4.10591 56.9742 3.43284 58.239 2.74598 60.4363C2.15945 62.3127 2.00219 63.4129 1.52518 65.32C1.2198 66.541 0.849988 67.6314 1.83033 68.0671C2.26604 68.2608 2.6248 68.2804 3.05126 68.0671C4.27213 67.4567 4.57736 66.541 5.18789 65.32C6.37999 62.9361 8.24021 59.2154 8.24021 59.2154C8.24021 59.2154 6.35531 62.8068 6.10359 65.32C5.99667 66.3875 5.79829 66.9943 5.79829 68.0671C5.79829 68.7823 5.63814 69.3555 6.10359 69.8985C6.64661 70.5321 7.45726 70.4922 8.24021 70.2038C9.1893 69.8541 9.4753 69.0609 10.0715 68.0671C10.9872 66.541 11.0557 66.4211 11.5978 65.32C12.2822 63.9298 13.1239 61.6572 13.1239 61.6572C13.1239 61.6572 11.8365 64.5571 11.5978 66.541C11.4411 67.8428 11.2925 67.9769 11.2925 69.2881C11.2925 69.8841 11.4093 70.8593 11.5978 71.4247C11.8643 72.2243 11.9792 72.5693 12.8186 72.6456C13.7458 72.7299 14.4935 72.233 14.9553 71.4247C16.1761 69.2881 16.2375 68.39 17.0918 66.541C18.0097 64.5545 18.337 63.4892 19.5338 61.6572C21.0204 59.3816 21.9565 58.154 23.8071 56.1631C25.3575 54.495 26.2955 52.9991 28.0802 51.5846C29.5573 50.4139 30.3334 50.2297 32.0484 49.4479C33.9426 48.5844 37.2373 48.227 37.2373 48.227L37.2373 32.6602Z" stroke="#50439F" stroke-width="1.22093"/>
<path d="M110.187 21.9766C107.789 23.367 103.777 25.029 103.777 25.029L108.356 39.0697C108.356 39.0697 113.636 37.1925 116.902 35.7121C119.33 34.6117 120.772 34.1126 123.007 32.6598C125.349 31.1374 126.57 30.0989 128.501 28.0813C130.562 25.9286 131.547 24.5321 133.08 21.9766C134.506 19.5991 135.043 18.1164 136.132 15.5668C137.332 12.757 138.269 11.2935 138.879 8.24117C139.16 6.83854 139.184 6.00879 139.184 4.57838C139.184 3.96791 139.006 3.05728 138.269 2.74698C137.17 2.28442 136.742 3.66268 136.132 4.88361C135.51 6.12696 134.606 8.24117 134.606 8.24117L133.08 12.8197C133.08 12.8197 133.318 11.5147 133.385 10.683C133.534 8.83857 133.995 7.6307 134.301 6.10454C134.606 4.57838 134.958 3.5765 134.301 2.44175C133.963 1.85819 133.741 1.65829 133.08 1.52605C132.237 1.35748 131.859 1.83128 131.248 2.74698C130.42 3.98972 130.096 4.77449 129.417 6.10454C128.519 7.86163 127.28 10.683 127.28 10.683C127.28 10.683 128.07 7.34411 128.501 5.18884C128.806 3.66268 129.112 2.74698 128.806 1.52605C128.643 0.871884 128.26 0.610354 127.585 0.610354C126.911 0.610354 126.499 1.01521 126.059 1.52605C124.978 2.78061 124.691 3.72202 123.923 5.18884C122.833 7.26861 122.586 8.61124 121.481 10.683C120.423 12.6675 119.884 13.852 118.429 15.5667C117.173 17.0462 116.288 17.721 114.766 18.9243C113.08 20.2569 112.046 20.899 110.187 21.9766Z" fill="#E93405"/>
<path d="M112.629 21.3663C110.23 22.7567 106.219 24.4186 106.219 24.4186L110.797 38.4593C110.797 38.4593 116.078 36.5822 119.344 35.1017C121.771 34.0014 123.214 33.5023 125.448 32.0494C127.79 30.527 129.011 29.4885 130.943 27.4709C133.003 25.3182 133.988 23.9217 135.521 21.3663C136.947 18.9888 137.484 17.5061 138.573 14.9564C139.774 12.1466 140.71 10.6831 141.32 7.63082C141.601 6.22819 141.626 5.39844 141.626 3.96803C141.626 3.35756 141.447 2.44693 140.71 2.13663C139.611 1.67406 139.184 3.05233 138.573 4.27326C137.952 5.51661 137.047 7.63082 137.047 7.63082L135.521 12.2093C135.521 12.2093 135.759 10.9044 135.826 10.0727C135.976 8.22821 136.437 7.02035 136.742 5.49419C137.047 3.96803 137.399 2.96615 136.742 1.8314C136.404 1.24784 136.182 1.04794 135.521 0.915701C134.678 0.747125 134.3 1.22093 133.69 2.13663C132.861 3.37937 132.538 4.16414 131.858 5.49419C130.961 7.25128 129.722 10.0727 129.722 10.0727C129.722 10.0727 130.512 6.73376 130.943 4.57849C131.248 3.05233 131.553 2.13663 131.248 0.9157C131.084 0.261532 130.701 2.64509e-06 130.027 2.57224e-06C129.353 2.49939e-06 128.941 0.404857 128.501 0.9157C127.42 2.17026 127.133 3.11167 126.364 4.57849C125.274 6.65826 125.027 8.00089 123.922 10.0727C122.864 12.0572 122.325 13.2416 120.87 14.9564C119.614 16.4358 118.729 17.1106 117.207 18.314C115.521 19.6466 114.488 20.2886 112.629 21.3663Z" stroke="#50439F" stroke-width="1.22093"/>
<path d="M59.8227 85.7698C60.7386 82.7175 61.3489 79.0547 61.3489 79.0547L69.8954 80.2756C69.8954 80.2756 69.8899 83.3399 69.5905 85.4646C69.3324 87.297 69.2342 88.5845 68.6744 90.3483C68.0582 92.2898 67.7591 93.0954 66.843 95.232C66.1787 96.7814 65.3591 97.6665 63.7907 98.2843C62.3489 98.8523 61.3345 98.6244 59.8227 98.2843C58.4175 97.9683 57.7853 97.334 56.4651 96.7582C55.0447 96.1387 54.2133 94.5912 52.8023 95.232C51.5889 95.7831 51.887 97.0634 51.2762 98.2843C50.4329 99.9699 49.8913 100.997 48.8347 102.558C48.1119 103.625 47.9306 104.622 46.6977 104.999C46.1278 105.174 45.3928 105.248 45.1715 104.694C44.5615 103.168 45.1715 102.209 45.1715 100.421L45.1715 95.232L45.1715 90.3483C45.1715 88.6528 45.3491 87.4965 46.6977 86.9907C47.3674 86.7396 48.5291 86.9907 48.5291 86.9907C48.5291 86.9907 50.2446 87.3065 51.2762 87.6012C53.413 88.2117 54.0188 88.6416 56.1601 88.8221C56.8728 88.8822 57.6295 89.0803 58.2965 88.8221C59.5394 88.341 59.4396 87.0463 59.8227 85.7698Z" fill="#E93405"/>
<path d="M61.6547 83.9397C62.5707 80.8874 63.1809 77.2246 63.1809 77.2246L71.7274 78.4455C71.7274 78.4455 71.7219 81.5099 71.4226 83.6345C71.1644 85.4669 71.0663 86.7544 70.5065 88.5182C69.8903 90.4597 69.5912 91.2653 68.6751 93.4019C68.0108 94.9513 67.1912 95.8364 65.6227 96.4543C64.181 97.0222 63.1666 96.7943 61.6547 96.4543C60.2495 96.1382 59.6174 95.5039 58.2972 94.9281C56.8768 94.3086 56.0453 92.7612 54.6344 93.4019C53.4209 93.953 53.7191 95.2333 53.1082 96.4543C52.2649 98.1398 51.7233 99.1668 50.6667 100.728C49.9439 101.795 49.7626 102.792 48.5297 103.169C47.9598 103.344 47.2248 103.418 47.0036 102.864C46.3935 101.338 47.0036 100.379 47.0036 98.5909L47.0036 93.4019L47.0036 88.5182C47.0036 86.8227 47.1811 85.6664 48.5297 85.1607C49.1994 84.9095 50.3611 85.1607 50.3611 85.1607C50.3611 85.1607 52.0767 85.4764 53.1082 85.7711C55.2451 86.3816 55.8508 86.8115 57.9922 86.9921C58.7049 87.0521 59.4616 87.2502 60.1286 86.9921C61.3714 86.511 61.2717 85.2162 61.6547 83.9397Z" stroke="#50439F" stroke-width="1.22093"/>
<path d="M86.378 86.3809C85.2624 83.7764 83.6309 79.6658 83.6309 79.6658L91.5669 75.3926C91.5669 75.3926 92.8246 78.6388 93.7035 80.8868C94.5015 82.9278 95.1472 84.3019 95.8402 86.381C96.4506 88.2123 96.9587 90.6367 98.8925 90.349C100.312 90.1377 100.581 89.182 101.64 88.2123C103.224 86.7606 104.393 86.0691 105.913 84.5496C106.829 83.6339 107.134 83.0234 108.355 83.0234C108.951 83.0234 109.344 83.3898 109.576 83.9391C109.946 84.818 110.013 84.8548 109.881 86.0757C109.633 88.3645 108.986 89.1617 108.049 91.2647C107.182 93.2125 106.21 94.3949 104.997 96.1484C103.797 97.8826 103.17 98.6654 101.64 100.116C100.72 100.988 99.7784 102.126 98.5873 102.558C97.4667 102.965 96.9405 103.322 95.8402 102.864C94.7509 102.41 94.435 101.653 93.7035 100.727C92.6125 99.3459 92.1088 98.3016 91.2617 96.7589C90.2084 94.8408 89.8049 93.8291 88.8198 91.8751C87.7628 89.7785 87.3024 88.5393 86.378 86.3809Z" fill="#E93405"/>
<path d="M88.21 84.5489C87.0944 81.9444 85.4629 77.8338 85.4629 77.8338L93.3989 73.5605C93.3989 73.5605 94.6567 76.8068 95.5356 79.0547C96.3336 81.0958 96.9792 82.4699 97.6722 84.5489C98.2827 86.3803 98.7908 88.8047 100.725 88.5169C102.144 88.3057 102.413 87.35 103.472 86.3803C105.056 84.9286 106.225 84.237 107.745 82.7175C108.661 81.8018 108.966 81.1914 110.187 81.1914C110.783 81.1914 111.176 81.5578 111.408 82.1071C111.778 82.9859 111.845 83.0228 111.713 84.2437C111.465 86.5324 110.818 87.3297 109.881 89.4326C109.014 91.3805 108.043 92.5629 106.829 94.3164C105.629 96.0505 105.002 96.8334 103.472 98.2844C102.552 99.1562 101.61 100.294 100.419 100.726C99.2987 101.133 98.7725 101.49 97.6722 101.031C96.5829 100.578 96.2671 99.8208 95.5356 98.8948C94.4446 97.5138 93.9408 96.4695 93.0937 94.9268C92.0405 93.0087 91.6369 91.9971 90.6518 90.0431C89.5948 87.9465 89.1344 86.7073 88.21 84.5489Z" stroke="#50439F" stroke-width="1.22093"/>
<path d="M54.0236 7.6308C57.7665 5.56959 59.9978 4.5665 64.0962 3.35755C67.931 2.22636 70.1715 1.60248 74.1689 1.52615C78.6361 1.44086 81.1824 2.07541 85.4625 3.35755C89.4509 4.5523 91.679 5.45703 95.2299 7.63081C98.4848 9.6233 100.193 11.0069 102.861 13.7355C106.513 17.4709 108.215 20.0213 110.492 24.7238C112.874 29.6464 113.915 32.7123 114.46 38.1541C115.044 43.996 115.158 45.9393 113.544 51.5843C112.137 56.5072 110.764 61.1207 107.439 65.0145C104.9 67.9881 102.958 70.0225 99.8084 72.3401C96.2928 74.9274 94.2717 75.62 90.3462 77.5291C86.1055 79.5914 83.4181 80.2378 78.7474 80.8866C74.2608 81.5099 71.6317 81.5337 67.1486 80.8866C62.5945 80.2293 60.0727 79.3681 55.8549 77.5291C51.3951 75.5844 48.987 74.1384 45.1718 71.1192C42.4611 68.974 40.7677 67.8299 38.7619 65.0145C35.896 60.9917 34.8525 57.8811 33.573 53.1104C32.4102 48.775 32.2799 46.3049 32.352 41.8168C32.4185 37.6796 33.2637 35.3913 34.4887 31.4389C35.7536 27.3575 36.5033 24.9935 38.7619 21.3663C40.8191 18.0625 45.1718 13.7355 45.1718 13.7355C45.1718 13.7355 50.3452 9.65642 54.0236 7.6308Z" fill="#FFE6B6" stroke="#FFE6B6" stroke-width="1.22093"/>
<path d="M52.1915 9.46283C55.9345 7.40162 58.1658 6.39853 62.2642 5.18958C66.099 4.05839 68.3395 3.43451 72.3369 3.35819C76.8041 3.27289 79.3503 3.90744 83.6305 5.18958C87.6189 6.38433 89.8469 7.28906 93.3979 9.46284C96.6528 11.4553 98.3606 12.8389 101.029 15.5675C104.681 19.3029 106.383 21.8534 108.66 26.5559C111.042 31.4784 112.083 34.5443 112.628 39.9861C113.212 45.8281 113.326 47.7713 111.712 53.4163C110.305 58.3392 108.932 62.9528 105.607 66.8466C103.068 69.8201 101.126 71.8545 97.9764 74.1721C94.4607 76.7595 92.4397 77.452 88.5142 79.3611C84.2735 81.4235 81.5861 82.0698 76.9154 82.7186C72.4288 83.3419 69.7997 83.3657 65.3165 82.7186C60.7625 82.0613 58.2406 81.2001 54.0229 79.3611C49.5631 77.4165 47.155 75.9705 43.3398 72.9512C40.6291 70.806 38.9356 69.662 36.9299 66.8465C34.064 62.8237 33.0204 59.7132 31.7409 54.9425C30.5781 50.607 30.4479 48.137 30.52 43.6489C30.5865 39.5116 31.4317 37.2233 32.6566 33.271C33.9216 29.1895 34.6713 26.8255 36.9299 23.1983C38.9871 19.8946 43.3398 15.5675 43.3398 15.5675C43.3398 15.5675 48.5132 11.4885 52.1915 9.46283Z" fill="#E93405"/>
<path d="M54.0236 7.6308C57.7665 5.56959 59.9978 4.5665 64.0962 3.35755C67.931 2.22636 70.1715 1.60248 74.1689 1.52615C78.6361 1.44086 81.1824 2.07541 85.4625 3.35755C89.4509 4.5523 91.679 5.45703 95.2299 7.63081C98.4848 9.6233 100.193 11.0069 102.861 13.7355C106.513 17.4709 108.215 20.0213 110.492 24.7238C112.874 29.6464 113.915 32.7123 114.46 38.1541C115.044 43.996 115.158 45.9393 113.544 51.5843C112.137 56.5072 110.764 61.1207 107.439 65.0145C104.9 67.9881 102.958 70.0225 99.8084 72.3401C96.2928 74.9274 94.2717 75.62 90.3462 77.5291C86.1055 79.5914 83.4181 80.2378 78.7474 80.8866C74.2608 81.5099 71.6317 81.5337 67.1486 80.8866C62.5945 80.2293 60.0727 79.3681 55.8549 77.5291C51.3951 75.5844 48.987 74.1384 45.1718 71.1192C42.4611 68.974 40.7677 67.8299 38.7619 65.0145C35.896 60.9917 34.8525 57.8811 33.573 53.1104C32.4102 48.775 32.2799 46.3049 32.352 41.8168C32.4185 37.6796 33.2637 35.3913 34.4887 31.4389C35.7536 27.3575 36.5033 24.9935 38.7619 21.3663C40.8191 18.0625 45.1718 13.7355 45.1718 13.7355C45.1718 13.7355 50.3452 9.65642 54.0236 7.6308Z" stroke="#50439F" stroke-width="1.22093"/>
<ellipse cx="82.1056" cy="24.7236" rx="3.35756" ry="4.88372" fill="#2F245E"/>
<ellipse cx="92.4826" cy="24.7236" rx="3.35756" ry="4.88372" fill="#2F245E"/>
<path d="M69.6031 30.1942C69.022 30.115 68.479 30.5128 68.427 31.097C68.1584 34.1133 68.8608 37.144 70.4609 39.8136C72.246 42.7918 75.0506 45.1572 78.4479 46.55C81.8452 47.9427 85.6492 48.2864 89.2808 47.5288C92.5213 46.8528 95.4662 45.3329 97.7629 43.1657C98.2089 42.7448 98.1449 42.032 97.6574 41.66C97.2294 41.3333 96.6257 41.3898 96.2354 41.7605C94.2253 43.6698 91.6412 45.0084 88.7961 45.602C85.6257 46.2634 82.3048 45.9633 79.3389 44.7474C76.3729 43.5316 73.9244 41.4665 72.366 38.8665C71.0031 36.5927 70.3863 34.0187 70.5748 31.4492C70.6194 30.8412 70.2072 30.2764 69.6031 30.1942Z" fill="#2F245E"/>
<path d="M78.9612 66.1325C78.9612 66.1325 83.6194 58.722 93.0163 58.7279C96.7687 58.7322 93.2889 75.0066 91.7603 75.0084C90.2317 75.0101 83.5176 77.1766 78.6243 69.5351C78.8933 67.7839 78.9624 66.1383 78.9624 66.1383L78.9612 66.1325Z" fill="#FFAB0B"/>
<path d="M91.018 58.7718L94.1645 68.3703C93.7598 70.5394 93.2017 72.6133 92.6457 74.0588L87.8419 59.3955C88.8323 59.1143 89.8869 58.897 91.018 58.7718Z" fill="#FFF8FC"/>
<path d="M88.9876 75.3601C87.9532 75.3939 86.771 75.3237 85.5215 75.0215L81.4471 62.518C82.2072 61.8646 83.1125 61.1804 84.1527 60.5385L88.9806 75.3567L88.9876 75.3601Z" fill="#FFF8FC"/>
<mask id="mask0_2151_10686" style="mask-type:luminance" maskUnits="userSpaceOnUse" x="78" y="58" width="17" height="18">
<path d="M78.9486 66.36C78.9486 66.36 83.6963 58.9323 93.1305 58.713C96.8977 58.6273 93.2482 74.7774 91.7134 74.8158C90.1787 74.8542 83.4172 77.1539 78.5778 69.7273C78.8646 67.9919 78.9498 66.3657 78.9498 66.3657L78.9486 66.36Z" fill="white"/>
</mask>
<g mask="url(#mask0_2151_10686)">
<g style="mix-blend-mode:multiply">
<path d="M77.0226 71.0799C77.3152 69.3095 79.1357 66.2546 79.1357 66.2546C79.1357 66.2546 80.7111 63.7819 83.8487 61.6214C81.7619 67.2757 84.0038 72.5194 94.3398 71.2818C94.0667 72.9458 92.0177 79.5453 92.0177 79.5453C92.0177 79.5453 81.937 78.6521 77.0173 71.0826L77.0226 71.0799Z" fill="#CDD0D1"/>
</g>
</g>
<path d="M77.7 63.4252C77.7 63.4252 75.3168 55.9941 65.9082 55.989C62.1512 55.985 60.6366 72.2903 62.162 72.291C63.6926 72.2891 69.7434 74.4707 76.991 66.8251C77.2603 65.071 77.7 63.4252 77.7 63.4252Z" fill="#FFAB0B"/>
<path d="M74.6942 69.7209C73.7403 70.4557 72.816 71.0602 71.9299 71.5439L66.8337 55.9387C68.1549 56.0238 69.3428 56.2288 70.3951 56.5415L74.6942 69.7209Z" fill="#FFF8FC"/>
<path d="M63.543 58.3128L68.1284 72.3319C66.861 72.5523 65.7488 72.5739 64.8202 72.5326L62.0625 64.1026C62.3967 62.0579 62.8952 59.9801 63.543 58.3128Z" fill="#FFF8FC"/>
<mask id="mask1_2151_10686" style="mask-type:luminance" maskUnits="userSpaceOnUse" x="61" y="56" width="17" height="17">
<path d="M77.7354 63.2111C77.7354 63.2111 75.414 55.9309 65.9661 56.1531C62.1934 56.2399 60.5152 72.377 62.047 72.3408C63.5839 72.302 69.639 74.3101 76.9906 66.5854C77.278 64.8469 77.7354 63.2111 77.7354 63.2111Z" fill="white"/>
</mask>
<g mask="url(#mask1_2151_10686)">
<g style="mix-blend-mode:multiply">
<path d="M78.4097 68.3466C78.6872 66.6661 77.885 63.8247 77.885 63.8247C77.885 63.8247 77.1378 61.5248 74.7814 59.583C75.0148 64.899 71.1726 70.0077 61.5365 69.2465C61.2775 70.826 61.1705 77.0524 61.1705 77.0524C61.1705 77.0524 71.2375 75.7872 78.4097 68.3466Z" fill="#CDD0D1"/>
</g>
</g>
<path d="M73.8826 65.6055C73.4838 68.6216 75.114 71.1473 77.5248 71.2538C79.9342 71.3544 82.21 68.9907 82.6088 65.9746C83.0076 62.9584 81.3774 60.4327 78.9666 60.3262C76.5572 60.2257 74.2814 62.5893 73.8775 65.6079L73.8826 65.6055Z" fill="#FFAB0B"/>
<path opacity="0.5" d="M77.6904 63.7359C77.525 64.9984 78.2026 66.0538 79.2114 66.094C80.2202 66.1341 81.1708 65.1509 81.3362 63.8884C81.5016 62.6259 80.824 61.5705 79.8152 61.5303C78.8064 61.4902 77.8558 62.4734 77.6904 63.7359Z" fill="#FFFCF5"/>
<path d="M82.1125 34.7787C82.1125 38.8242 85.3926 42.1043 89.4381 42.1043C93.4836 42.1043 96.7637 38.8242 96.7637 34.7787C96.7637 30.7332 93.4836 27.4531 89.4381 27.4531C85.3926 27.4531 82.1125 30.7332 82.1125 34.7787Z" fill="#E93405"/>
<path d="M89.0999 31.7721C89.0999 33.2153 90.2698 34.3852 91.713 34.3852C93.1563 34.3852 94.3262 33.2153 94.3262 31.7721C94.3262 30.3288 93.1563 29.1589 91.713 29.1589C90.2698 29.1589 89.0999 30.3288 89.0999 31.7721Z" fill="#FFFCF5"/>
<g style="mix-blend-mode:multiply">
<path d="M84.5023 29.377C84.4476 29.7432 84.4093 30.115 84.4093 30.4977C84.4093 34.5431 87.6895 37.8232 91.7349 37.8232C93.6374 37.8232 95.3649 37.0907 96.666 35.8989C96.1248 39.4141 93.1016 42.1038 89.4388 42.1038C85.3934 42.1038 82.1133 38.8237 82.1133 34.7782C82.1133 32.6352 83.0372 30.7163 84.5023 29.377Z" fill="#CDD0D1"/>
</g>
</g>
<defs>
<clipPath id="clip0_2151_10686">
<rect width="141.628" height="105" fill="white" transform="matrix(-1 -1.0804e-07 -1.0804e-07 1 141.627 0)"/>
</clipPath>
</defs>
</svg>
