<svg width="61" height="46" viewBox="0 0 61 46" fill="none" xmlns="http://www.w3.org/2000/svg">
<g clip-path="url(#clip0_2151_10728)">
<path d="M12.4879 15.3813C13.6495 15.086 15.5115 14.8555 15.5115 14.8555L15.5115 21.5601C15.5115 21.5601 14.0925 21.714 13.2767 22.086C12.538 22.4227 12.2037 22.502 11.5676 23.0062C10.7989 23.6155 10.3949 24.2597 9.72715 24.9781C8.93011 25.8357 8.52694 26.3644 7.88666 27.3445C7.37121 28.1335 7.23021 28.5923 6.8349 29.4479C6.46693 30.2443 6.44051 30.6311 5.91471 31.5513C5.71578 31.8995 5.39374 32.1135 4.99441 32.0772C4.63294 32.0443 4.58343 31.8958 4.46867 31.5515L4.46861 31.5513C4.38743 31.3078 4.33712 30.8878 4.33712 30.6311C4.33712 30.0663 4.40113 30.0086 4.46861 29.4479C4.51644 29.0505 4.66196 28.5678 4.80396 28.165C4.6976 28.4233 4.57841 28.699 4.46861 28.922C4.23515 29.3963 4.20566 29.4479 3.81127 30.1052C3.55446 30.5332 3.43128 30.8749 3.02251 31.0255C2.68529 31.1497 2.33615 31.1669 2.10227 30.894C1.9018 30.6601 1.97078 30.4133 1.97078 30.1052C1.97078 29.6432 2.05622 29.3818 2.10227 28.922C2.18617 28.0844 2.6913 26.9687 2.91548 26.5068L1.70788 28.922C1.44493 29.4479 1.31346 29.8423 0.787636 30.1052C0.60396 30.1971 0.449442 30.1886 0.261783 30.1052C-0.16045 29.9176 -0.00117038 29.4479 0.130355 28.922C0.335805 28.1006 0.403532 27.6268 0.656154 26.8186C0.951983 25.8723 1.24187 25.3275 1.70788 24.4523C2.24363 23.4461 2.68994 22.964 3.4169 22.086C4.04242 21.3304 4.44643 20.9528 5.12593 20.2455C5.93071 19.4077 6.34973 18.9009 7.22934 18.1421C8.1468 17.3506 8.6487 16.8539 9.72715 16.3016C10.7387 15.7835 11.3865 15.6613 12.4879 15.3813Z" fill="#FFAB0B"/>
<path d="M16.0369 14.0664C16.0369 14.0664 14.1749 14.2969 13.0133 14.5923C11.9119 14.8723 11.264 14.9944 10.2525 15.5125C9.17409 16.0648 8.67219 16.5615 7.75473 17.353C6.87512 18.1118 6.4561 18.6186 5.65132 19.4564C4.97182 20.1637 4.56781 20.5414 3.94229 21.2969C3.21533 22.1749 2.76902 22.657 2.23327 23.6632C1.76726 24.5384 1.47737 25.0832 1.18154 26.0296C0.928923 26.8377 0.861195 27.3116 0.655746 28.133C0.52422 28.6588 0.364941 29.1285 0.787174 29.3162C0.974833 29.3996 1.12935 29.408 1.31303 29.3162C1.83885 29.0532 1.97032 28.6588 2.23327 28.133C2.74671 27.1062 3.5479 25.5037 3.5479 25.5037C3.5479 25.5037 2.73608 27.0505 2.62766 28.133C2.58161 28.5927 2.49617 28.8541 2.49617 29.3162C2.49617 29.6242 2.42719 29.8711 2.62766 30.1049C2.86154 30.3778 3.21068 30.3606 3.5479 30.2364C3.95668 30.0858 4.07985 29.7442 4.33666 29.3162C4.73105 28.6588 4.76054 28.6072 4.994 28.133C5.28878 27.5342 5.65132 26.5554 5.65132 26.5554C5.65132 26.5554 5.09683 27.8044 4.994 28.6588C4.92652 29.2195 4.86251 29.2773 4.86251 29.842C4.86251 30.0987 4.91282 30.5187 4.994 30.7623C5.1088 31.1066 5.15827 31.2552 5.5198 31.2881C5.91913 31.3244 6.24117 31.1104 6.4401 30.7623C6.9659 29.842 6.99232 29.4552 7.36029 28.6588C7.7556 27.8033 7.8966 27.3444 8.41205 26.5554C9.05233 25.5753 9.4555 25.0466 10.2525 24.1891C10.9203 23.4707 11.3243 22.8264 12.093 22.2171C12.7291 21.7129 13.0634 21.6336 13.802 21.2969C14.6179 20.925 16.0369 20.771 16.0369 20.771L16.0369 14.0664Z" stroke="#E93405" stroke-width="0.525853"/>
<path d="M47.456 9.46611C46.4229 10.065 44.6953 10.7807 44.6953 10.7807L46.6673 16.8281C46.6673 16.8281 48.9415 16.0196 50.3482 15.382C51.3938 14.908 52.015 14.6931 52.9775 14.0673C53.986 13.4116 54.512 12.9643 55.3438 12.0954C56.2314 11.1682 56.6555 10.5667 57.3158 9.46611C57.9301 8.44211 58.1614 7.80353 58.6304 6.70538C59.1473 5.49521 59.5507 4.86489 59.8136 3.55026C59.9344 2.94615 59.9451 2.58877 59.9451 1.9727C59.9451 1.70977 59.8681 1.31756 59.5507 1.18392C59.0775 0.98469 58.8934 1.57831 58.6304 2.10416C58.3627 2.63967 57.9731 3.55026 57.9731 3.55026L57.3158 5.52221C57.3158 5.52221 57.4183 4.96017 57.4473 4.60196C57.5115 3.80755 57.7102 3.28733 57.8416 2.63001C57.9731 1.9727 58.1246 1.54119 57.8416 1.05245C57.6961 0.801115 57.6006 0.715019 57.3158 0.658063C56.9528 0.585458 56.7899 0.789527 56.527 1.18392C56.1702 1.71916 56.0309 2.05716 55.7382 2.63001C55.3516 3.38679 54.818 4.60196 54.818 4.60196C54.818 4.60196 55.1582 3.1639 55.3438 2.23562C55.4753 1.57831 55.6068 1.18392 55.4753 0.658063C55.4049 0.376313 55.2399 0.263673 54.9495 0.263673C54.659 0.263673 54.4817 0.438043 54.2921 0.658063C53.8266 1.1984 53.7029 1.60386 53.3719 2.23562C52.9025 3.13138 52.796 3.70965 52.3202 4.60196C51.8644 5.45669 51.6324 5.96683 51.0056 6.70538C50.4648 7.34257 50.0836 7.6332 49.428 8.15147C48.7019 8.72543 48.2568 9.00195 47.456 9.46611Z" fill="#FFAB0B"/>
<path d="M48.5088 9.20243C47.4757 9.80128 45.748 10.5171 45.748 10.5171L47.72 16.5644C47.72 16.5644 49.9943 15.7559 51.401 15.1183C52.4466 14.6443 53.0678 14.4294 54.0302 13.8037C55.0388 13.148 55.5648 12.7007 56.3966 11.8317C57.2841 10.9045 57.7082 10.3031 58.3685 9.20243C58.9828 8.17844 59.2141 7.53985 59.6832 6.4417C60.2001 5.23154 60.6034 4.60122 60.8663 3.28659C60.9872 2.68247 60.9978 2.3251 60.9978 1.70903C60.9978 1.4461 60.9208 1.05389 60.6034 0.920245C60.1302 0.721018 59.9461 1.31463 59.6832 1.84049C59.4154 2.376 59.0258 3.28658 59.0258 3.28658L58.3685 5.25853C58.3685 5.25853 58.471 4.6965 58.5 4.33829C58.5643 3.54388 58.7629 3.02366 58.8944 2.36634C59.0258 1.70902 59.1773 1.27752 58.8944 0.788781C58.7489 0.537444 58.6533 0.451348 58.3685 0.394391C58.0055 0.321786 57.8427 0.525855 57.5797 0.920245C57.2229 1.45549 57.0836 1.79349 56.791 2.36634C56.4043 3.12312 55.8707 4.33829 55.8707 4.33829C55.8707 4.33829 56.2109 2.90022 56.3966 1.97195C56.528 1.31463 56.6595 0.920245 56.528 0.394391C56.4576 0.112642 56.2926 1.13924e-06 56.0022 1.10786e-06C55.7118 1.07648e-06 55.5344 0.174372 55.3449 0.394391C54.8793 0.934728 54.7557 1.34019 54.4246 1.97195C53.9553 2.8677 53.8488 3.44598 53.3729 4.33829C52.9171 5.19302 52.6851 5.70316 52.0583 6.4417C51.5175 7.0789 51.1364 7.36953 50.4807 7.8878C49.7546 8.46175 49.3095 8.73828 48.5088 9.20243Z" stroke="#E93405" stroke-width="0.525853"/>
<path d="M25.7649 36.941C26.1594 35.6264 26.4222 34.0488 26.4222 34.0488L30.1032 34.5747C30.1032 34.5747 30.1008 35.8945 29.9719 36.8096C29.8607 37.5988 29.8184 38.1533 29.5773 38.913C29.3119 39.7492 29.1831 40.0961 28.7886 41.0164C28.5024 41.6837 28.1495 42.0649 27.4739 42.331C26.853 42.5756 26.4161 42.4775 25.7649 42.331C25.1597 42.1949 24.8874 41.9217 24.3188 41.6737C23.7071 41.4069 23.3489 40.7404 22.7413 41.0164C22.2186 41.2537 22.347 41.8052 22.0839 42.331C21.7207 43.057 21.4875 43.4993 21.0324 44.1715C20.7211 44.6314 20.643 45.0607 20.112 45.2232C19.8665 45.2984 19.55 45.3301 19.4547 45.0917C19.1919 44.4344 19.4547 44.0214 19.4547 43.2513L19.4547 41.0164L19.4547 38.913C19.4547 38.1827 19.5311 37.6847 20.112 37.4669C20.4004 37.3587 20.9008 37.4669 20.9008 37.4669C20.9008 37.4669 21.6397 37.6029 22.0839 37.7298C23.0043 37.9927 23.2652 38.1779 24.1875 38.2557C24.4944 38.2815 24.8203 38.3669 25.1076 38.2557C25.6429 38.0484 25.5999 37.4908 25.7649 36.941Z" fill="#FFAB0B"/>
<path d="M26.554 36.152C26.9485 34.8373 27.2113 33.2598 27.2113 33.2598L30.8923 33.7856C30.8923 33.7856 30.8899 35.1054 30.761 36.0205C30.6498 36.8097 30.6075 37.3642 30.3664 38.1239C30.101 38.9601 29.9722 39.3071 29.5776 40.2273C29.2915 40.8946 28.9385 41.2758 28.263 41.542C27.642 41.7866 27.2051 41.6884 26.554 41.542C25.9488 41.4058 25.6765 41.1326 25.1079 40.8846C24.4961 40.6178 24.138 39.9513 23.5303 40.2273C23.0077 40.4647 23.1361 41.0161 22.873 41.542C22.5098 42.2679 22.2765 42.7103 21.8215 43.3824C21.5101 43.8423 21.432 44.2716 20.901 44.4341C20.6556 44.5093 20.339 44.541 20.2437 44.3027C19.981 43.6454 20.2437 43.2323 20.2437 42.4622L20.2437 40.2273L20.2437 38.1239C20.2437 37.3937 20.3202 36.8956 20.901 36.6778C21.1895 36.5697 21.6898 36.6778 21.6898 36.6778C21.6898 36.6778 22.4287 36.8138 22.873 36.9407C23.7933 37.2037 24.0543 37.3888 24.9765 37.4666C25.2835 37.4925 25.6094 37.5778 25.8967 37.4666C26.4319 37.2594 26.389 36.7017 26.554 36.152Z" stroke="#E93405" stroke-width="0.525853"/>
<path d="M37.2027 37.2034C36.7222 36.0816 36.0195 34.3112 36.0195 34.3112L39.4376 32.4707C39.4376 32.4707 39.9793 33.8689 40.3578 34.837C40.7015 35.7161 40.9796 36.308 41.2781 37.2034C41.541 37.9922 41.7598 39.0363 42.5927 38.9124C43.2042 38.8214 43.3201 38.4098 43.7759 37.9922C44.4583 37.3669 44.9619 37.0691 45.6164 36.4146C46.0107 36.0202 46.1422 35.7573 46.6681 35.7573C46.9248 35.7573 47.0943 35.9151 47.1939 36.1517C47.3533 36.5302 47.3823 36.5461 47.3254 37.0719C47.2186 38.0577 46.94 38.4011 46.5366 39.3068C46.1629 40.1457 45.7445 40.655 45.222 41.4102C44.7051 42.1571 44.435 42.4943 43.7759 43.1192C43.3798 43.4947 42.9743 43.9849 42.4612 44.1709C41.9786 44.346 41.752 44.4999 41.2781 44.3024C40.8089 44.1069 40.6729 43.781 40.3578 43.3822C39.8879 42.7874 39.671 42.3376 39.3061 41.6731C38.8525 40.847 38.6787 40.4113 38.2544 39.5697C37.7992 38.6667 37.6009 38.133 37.2027 37.2034Z" fill="#FFAB0B"/>
<path d="M37.9918 36.4143C37.5113 35.2926 36.8086 33.5221 36.8086 33.5221L40.2266 31.6816C40.2266 31.6816 40.7683 33.0798 41.1469 34.048C41.4906 34.927 41.7686 35.5189 42.0671 36.4143C42.3301 37.2031 42.5489 38.2473 43.3818 38.1233C43.9932 38.0324 44.1091 37.6207 44.5649 37.2031C45.2473 36.5779 45.751 36.28 46.4054 35.6255C46.7998 35.2312 46.9313 34.9682 47.4571 34.9682C47.7138 34.9682 47.8834 35.126 47.983 35.3626C48.1424 35.7411 48.1714 35.757 48.1144 36.2829C48.0077 37.2686 47.7291 37.612 47.3257 38.5177C46.952 39.3567 46.5336 39.8659 46.011 40.6211C45.4942 41.3681 45.224 41.7052 44.5649 42.3302C44.1689 42.7057 43.7633 43.1958 43.2503 43.3819C42.7677 43.5569 42.541 43.7108 42.0671 43.5133C41.598 43.3179 41.4619 42.9919 41.1469 42.5931C40.677 41.9983 40.46 41.5485 40.0952 40.8841C39.6415 40.058 39.4678 39.6222 39.0435 38.7807C38.5882 37.8777 38.3899 37.3439 37.9918 36.4143Z" stroke="#E93405" stroke-width="0.525853"/>
<path d="M23.2686 3.28684C24.8807 2.39907 25.8417 1.96704 27.6069 1.44635C29.2585 0.959149 30.2235 0.690442 31.9452 0.65757C33.8692 0.620834 34.9658 0.894135 36.8093 1.44635C38.5271 1.96093 39.4867 2.35059 41.0161 3.28684C42.418 4.145 43.1536 4.7409 44.3027 5.9161C45.8759 7.52496 46.6089 8.62342 47.5893 10.6488C48.6156 12.7689 49.0637 14.0894 49.2983 16.4332C49.5502 18.9493 49.599 19.7863 48.9039 22.2176C48.2978 24.3378 47.7066 26.3249 46.2747 28.0019C45.1811 29.2827 44.3444 30.1589 42.9881 31.1571C41.4739 32.2714 40.6034 32.5697 38.9127 33.3919C37.0862 34.2802 35.9288 34.5586 33.9171 34.838C31.9847 35.1065 30.8524 35.1167 28.9215 34.838C26.9601 34.5549 25.8739 34.184 24.0573 33.3919C22.1365 32.5544 21.0993 31.9316 19.4561 30.6312C18.2886 29.7073 17.5593 29.2145 16.6954 28.0019C15.4611 26.2693 15.0116 24.9296 14.4605 22.8749C13.9597 21.0076 13.9036 19.9437 13.9347 18.0107C13.9633 16.2288 14.3273 15.2433 14.8549 13.541C15.3997 11.7831 15.7226 10.7649 16.6954 9.20268C17.5814 7.77978 19.4561 5.9161 19.4561 5.9161C19.4561 5.9161 21.6843 4.15927 23.2686 3.28684Z" fill="#FFE6B6" stroke="#FFE6B6" stroke-width="0.525853"/>
<path d="M22.4795 4.07492C24.0916 3.18716 25.0526 2.75513 26.8178 2.23444C28.4694 1.74723 29.4344 1.47853 31.1561 1.44566C33.0801 1.40892 34.1768 1.68222 36.0202 2.23444C37.738 2.74901 38.6977 3.13868 40.2271 4.07492C41.6289 4.93309 42.3645 5.52899 43.5136 6.70419C45.0868 8.31304 45.8198 9.41151 46.8002 11.4369C47.8265 13.557 48.2746 14.8775 48.5092 17.2213C48.7611 19.7374 48.8099 20.5743 48.1149 23.0056C47.5087 25.1259 46.9175 27.113 45.4856 28.79C44.392 30.0708 43.5553 30.947 42.199 31.9452C40.6848 33.0595 39.8143 33.3578 38.1236 34.18C36.2972 35.0683 35.1397 35.3467 33.128 35.6261C31.1957 35.8946 30.0633 35.9048 28.1324 35.6261C26.171 35.343 25.0849 34.9721 23.2683 34.18C21.3474 33.3425 20.3103 32.7197 18.6671 31.4193C17.4996 30.4954 16.7702 30.0026 15.9063 28.79C14.672 27.0574 14.2225 25.7177 13.6715 23.663C13.1706 21.7957 13.1146 20.7318 13.1456 18.7988C13.1742 17.0169 13.5383 16.0313 14.0659 14.3291C14.6107 12.5712 14.9335 11.553 15.9063 9.99077C16.7924 8.56786 18.6671 6.70419 18.6671 6.70419C18.6671 6.70419 20.8953 4.94735 22.4795 4.07492Z" fill="#FFAB0B"/>
<path d="M23.2686 3.28684C24.8807 2.39907 25.8417 1.96704 27.6069 1.44635C29.2585 0.959149 30.2235 0.690442 31.9452 0.65757C33.8692 0.620834 34.9658 0.894135 36.8093 1.44635C38.5271 1.96093 39.4867 2.35059 41.0161 3.28684C42.418 4.145 43.1536 4.7409 44.3027 5.9161C45.8759 7.52496 46.6089 8.62342 47.5893 10.6488C48.6156 12.7689 49.0637 14.0894 49.2983 16.4332C49.5502 18.9493 49.599 19.7863 48.9039 22.2176C48.2978 24.3378 47.7066 26.3249 46.2747 28.0019C45.1811 29.2827 44.3444 30.1589 42.9881 31.1571C41.4739 32.2714 40.6034 32.5697 38.9127 33.3919C37.0862 34.2802 35.9288 34.5586 33.9171 34.838C31.9847 35.1065 30.8524 35.1167 28.9215 34.838C26.9601 34.5549 25.8739 34.184 24.0573 33.3919C22.1365 32.5544 21.0993 31.9316 19.4561 30.6312C18.2886 29.7073 17.5593 29.2145 16.6954 28.0019C15.4611 26.2693 15.0116 24.9296 14.4605 22.8749C13.9597 21.0076 13.9036 19.9437 13.9347 18.0107C13.9633 16.2288 14.3273 15.2433 14.8549 13.541C15.3997 11.7831 15.7226 10.7649 16.6954 9.20268C17.5814 7.77978 19.4561 5.9161 19.4561 5.9161C19.4561 5.9161 21.6843 4.15927 23.2686 3.28684Z" stroke="#E93405" stroke-width="0.525853"/>
<ellipse cx="35.3621" cy="10.6483" rx="1.4461" ry="2.10341" fill="#2F245E"/>
<ellipse cx="39.8328" cy="10.6483" rx="1.4461" ry="2.10341" fill="#2F245E"/>
<path d="M29.9759 13.0044C29.7257 12.9704 29.4918 13.1417 29.4694 13.3933C29.3537 14.6924 29.6562 15.9978 30.3454 17.1475C31.1142 18.4302 32.3222 19.449 33.7854 20.0489C35.2486 20.6487 36.887 20.7968 38.4511 20.4705C39.8468 20.1793 41.1151 19.5247 42.1043 18.5913C42.2964 18.41 42.2688 18.103 42.0589 17.9428C41.8745 17.8021 41.6146 17.8264 41.4464 17.9861C40.5807 18.8084 39.4677 19.3849 38.2424 19.6406C36.8768 19.9254 35.4465 19.7962 34.1691 19.2725C32.8917 18.7489 31.8371 17.8594 31.1659 16.7396C30.5789 15.7603 30.3132 14.6517 30.3944 13.545C30.4136 13.2831 30.2361 13.0399 29.9759 13.0044Z" fill="#2F245E"/>
<path d="M34.0065 28.4831C34.0065 28.4831 36.0128 25.2914 40.06 25.294C41.6762 25.2958 40.1775 32.3052 39.5191 32.306C38.8607 32.3067 35.9689 33.2398 33.8614 29.9486C33.9773 29.1944 34.007 28.4856 34.007 28.4856L34.0065 28.4831Z" fill="#50439F"/>
<path d="M39.202 25.3115L40.5572 29.4456C40.3829 30.3798 40.1426 31.273 39.9031 31.8956L37.8341 25.5801C38.2606 25.459 38.7149 25.3654 39.202 25.3115Z" fill="#FFF8FC"/>
<path d="M38.3272 32.4546C37.8817 32.4691 37.3725 32.4389 36.8344 32.3087L35.0795 26.9235C35.4069 26.6421 35.7968 26.3474 36.2448 26.0709L38.3242 32.4531L38.3272 32.4546Z" fill="#FFF8FC"/>
<mask id="mask0_2151_10728" style="mask-type:luminance" maskUnits="userSpaceOnUse" x="33" y="25" width="8" height="8">
<path d="M34.0019 28.5815C34.0019 28.5815 36.0468 25.3825 40.1101 25.288C41.7326 25.2511 40.1607 32.2069 39.4997 32.2235C38.8387 32.24 35.9265 33.2305 33.8422 30.0318C33.9657 29.2844 34.0024 28.584 34.0024 28.584L34.0019 28.5815Z" fill="white"/>
</mask>
<g mask="url(#mask0_2151_10728)">
<g style="mix-blend-mode:multiply">
<path d="M33.1704 30.6132C33.2964 29.8507 34.0805 28.535 34.0805 28.535C34.0805 28.535 34.759 27.47 36.1103 26.5395C35.2115 28.9748 36.1771 31.2332 40.6288 30.7002C40.5112 31.4169 39.6287 34.2593 39.6287 34.2593C39.6287 34.2593 35.287 33.8745 33.1681 30.6144L33.1704 30.6132Z" fill="#CDD0D1"/>
</g>
</g>
<path d="M33.4605 27.3169C33.4605 27.3169 32.4341 24.1163 28.3818 24.1141C26.7636 24.1124 26.1113 31.1351 26.7683 31.1353C27.4275 31.1345 30.0336 32.0742 33.1551 28.7812C33.2711 28.0257 33.4605 27.3169 33.4605 27.3169Z" fill="#50439F"/>
<path d="M32.1665 30.0309C31.7556 30.3474 31.3576 30.6078 30.9759 30.8161L28.781 24.095C29.35 24.1316 29.8617 24.2199 30.3149 24.3546L32.1665 30.0309Z" fill="#FFF8FC"/>
<path d="M27.3629 25.1185L29.3378 31.1565C28.792 31.2514 28.3129 31.2607 27.913 31.2429L26.7252 27.6121C26.8692 26.7315 27.0839 25.8366 27.3629 25.1185Z" fill="#FFF8FC"/>
<mask id="mask1_2151_10728" style="mask-type:luminance" maskUnits="userSpaceOnUse" x="26" y="24" width="8" height="8">
<path d="M33.4749 27.2266C33.4749 27.2266 32.475 24.091 28.4058 24.1867C26.781 24.2241 26.0582 31.1743 26.7179 31.1588C27.3799 31.142 29.9878 32.0069 33.1541 28.6799C33.2779 27.9311 33.4749 27.2266 33.4749 27.2266Z" fill="white"/>
</mask>
<g mask="url(#mask1_2151_10728)">
<g style="mix-blend-mode:multiply">
<path d="M33.7679 29.4385C33.8875 28.7147 33.5419 27.4909 33.5419 27.4909C33.5419 27.4909 33.2201 26.5004 32.2052 25.664C32.3058 27.9536 30.6509 30.1539 26.5007 29.8261C26.3891 30.5064 26.343 33.1881 26.343 33.1881C26.343 33.1881 30.6789 32.6431 33.7679 29.4385Z" fill="#CDD0D1"/>
</g>
</g>
<path d="M31.8201 28.2559C31.6483 29.555 32.3504 30.6428 33.3887 30.6887C34.4265 30.732 35.4067 29.714 35.5784 28.4149C35.7502 27.1159 35.0481 26.0281 34.0098 25.9822C32.972 25.9389 31.9918 26.9569 31.8179 28.257L31.8201 28.2559Z" fill="#50439F"/>
<path opacity="0.5" d="M33.4594 27.4511C33.3881 27.9949 33.68 28.4495 34.1145 28.4668C34.5489 28.484 34.9584 28.0606 35.0296 27.5168C35.1008 26.9731 34.809 26.5185 34.3745 26.5012C33.94 26.4839 33.5306 26.9074 33.4594 27.4511Z" fill="#FFFCF5"/>
<path d="M35.3636 14.9793C35.3636 16.7217 36.7763 18.1345 38.5187 18.1345C40.2611 18.1345 41.6738 16.7217 41.6738 14.9793C41.6738 13.237 40.2611 11.8242 38.5187 11.8242C36.7763 11.8242 35.3636 13.237 35.3636 14.9793Z" fill="#E93405"/>
<path d="M38.374 13.6851C38.374 14.3067 38.8779 14.8105 39.4995 14.8105C40.1211 14.8105 40.625 14.3067 40.625 13.6851C40.625 13.0634 40.1211 12.5596 39.4995 12.5596C38.8779 12.5596 38.374 13.0634 38.374 13.6851Z" fill="#FFFCF5"/>
<g style="mix-blend-mode:multiply">
<path d="M36.3919 12.6533C36.3684 12.8111 36.3519 12.9712 36.3519 13.136C36.3519 14.8784 37.7647 16.2911 39.507 16.2911C40.3264 16.2911 41.0705 15.9756 41.6309 15.4623C41.3978 16.9763 40.0957 18.1347 38.5181 18.1347C36.7757 18.1347 35.363 16.722 35.363 14.9796C35.363 14.0566 35.7609 13.2302 36.3919 12.6533Z" fill="#CDD0D1"/>
</g>
</g>
<defs>
<clipPath id="clip0_2151_10728">
<rect width="60.999" height="45.2234" fill="white" transform="matrix(-1 -1.0804e-07 -1.0804e-07 1 60.998 0)"/>
</clipPath>
</defs>
</svg>
