<svg width="105" height="81" viewBox="0 0 105 81" fill="none" xmlns="http://www.w3.org/2000/svg">
<path d="M82.4539 26.9463C80.3587 26.4149 77 26 77 26L77 38.0659C77 38.0659 79.5596 38.3429 81.0311 39.0123C82.3634 39.6182 82.9664 39.7609 84.1139 40.6684C85.5004 41.7648 86.2291 42.9242 87.4336 44.2171C88.8712 45.7604 89.5984 46.7118 90.7533 48.4757C91.6831 49.8957 91.9374 50.7214 92.6504 52.2611C93.3142 53.6943 93.3618 54.3904 94.3102 56.0465C94.669 56.673 95.2499 57.0581 95.9702 56.9928C96.6222 56.9337 96.7115 56.6663 96.9185 56.0468L96.9186 56.0465C97.065 55.6082 97.1558 54.8523 97.1558 54.3904C97.1558 53.374 97.0403 53.2701 96.9186 52.2611C96.8324 51.5459 96.5699 50.6772 96.3137 49.9524C96.5056 50.4171 96.7206 50.9134 96.9186 51.3147C97.3397 52.1682 97.3929 52.2611 98.1043 53.444C98.5675 54.2143 98.7897 54.8291 99.527 55.1001C100.135 55.3237 100.765 55.3546 101.187 54.8635C101.548 54.4426 101.424 53.9984 101.424 53.444C101.424 52.6125 101.27 52.1421 101.187 51.3147C101.036 49.8073 100.124 47.7993 99.7201 46.9683L101.898 51.3147C102.373 52.2611 102.61 52.9708 103.558 53.444C103.889 53.6093 104.168 53.5941 104.507 53.444C105.268 53.1063 104.981 52.2611 104.744 51.3147C104.373 49.8365 104.251 48.9837 103.795 47.5294C103.262 45.8262 102.739 44.8458 101.898 43.2708C100.932 41.46 100.127 40.5924 98.8156 39.0122C97.6874 37.6526 96.9586 36.973 95.733 35.7C94.2814 34.1924 93.5256 33.2802 91.939 31.9147C90.2841 30.4903 89.3788 29.5965 87.4336 28.6025C85.6091 27.6701 84.4406 27.4503 82.4539 26.9463Z" fill="#FFAB0B"/>
<path d="M76 25C76 25 79.2388 25.4149 81.2591 25.9463C83.1748 26.4503 84.3016 26.6701 86.0609 27.6025C87.9367 28.5965 88.8097 29.4903 90.4054 30.9147C91.9354 32.2802 92.6642 33.1924 94.064 34.7C95.2458 35.973 95.9485 36.6526 97.0365 38.0122C98.3009 39.5924 99.0772 40.46 100.009 42.2708C100.82 43.8458 101.324 44.8262 101.838 46.5294C102.278 47.9837 102.396 48.8365 102.753 50.3147C102.982 51.2611 103.259 52.1063 102.524 52.444C102.198 52.5941 101.929 52.6093 101.61 52.444C100.695 51.9708 100.466 51.2611 100.009 50.3147C99.116 48.4669 97.7225 45.583 97.7225 45.583C97.7225 45.583 99.1345 48.3667 99.3231 50.3147C99.4032 51.1421 99.5518 51.6125 99.5518 52.444C99.5518 52.9984 99.6718 53.4426 99.3231 53.8635C98.9163 54.3546 98.309 54.3237 97.7225 54.1001C97.0115 53.8291 96.7972 53.2143 96.3506 52.444C95.6646 51.2611 95.6133 51.1682 95.2072 50.3147C94.6945 49.2371 94.064 47.4757 94.064 47.4757C94.064 47.4757 95.0284 49.7234 95.2072 51.2611C95.3246 52.2701 95.436 52.374 95.436 53.3904C95.436 53.8523 95.3484 54.6082 95.2072 55.0465C95.0076 55.6663 94.9215 55.9337 94.2927 55.9928C93.5981 56.0581 93.038 55.673 92.692 55.0465C91.7775 53.3904 91.7315 52.6943 91.0915 51.2611C90.4039 49.7214 90.1587 48.8957 89.2621 47.4757C88.1485 45.7118 87.4472 44.7604 86.0609 43.2171C84.8995 41.9242 84.1968 40.7648 82.8598 39.6684C81.7533 38.7609 81.1719 38.6182 79.8872 38.0123C78.4682 37.3429 76 37.0659 76 37.0659L76 25Z" stroke="#E93405" stroke-width="0.525853"/>
<path d="M26.5306 41.1642C28.4192 40.1137 31.5663 38.8771 31.5663 38.8771L28.2405 27.7914C28.2405 27.7914 24.1027 29.1758 21.538 30.2825C19.6317 31.1051 18.5017 31.4726 16.7396 32.5748C14.8932 33.7297 13.9261 34.5238 12.3905 36.0738C10.752 37.7277 9.96284 38.8064 8.72794 40.7848C7.57901 42.6254 7.13665 43.7791 6.24712 45.7604C5.26685 47.9437 4.51412 49.0757 3.98837 51.459C3.74678 52.5542 3.7137 53.2045 3.68979 54.3261C3.67959 54.8048 3.80336 55.5218 4.37129 55.7773C5.21789 56.1582 5.57343 55.0846 6.06857 54.1373C6.57281 53.1727 7.31153 51.5299 7.31153 51.5299L8.57489 47.965C8.57489 47.965 8.36806 48.9843 8.30182 49.6354C8.15491 51.0792 7.77606 52.0187 7.51319 53.2103C7.25031 54.402 6.96004 55.1817 7.45197 56.0824C7.70495 56.5456 7.87416 56.706 8.38614 56.8207C9.0388 56.9668 9.34072 56.6016 9.83076 55.8937C10.4958 54.9329 10.7604 54.3229 11.3111 53.2913C12.0386 51.9284 13.0492 49.7366 13.0492 49.7366C13.0492 49.7366 12.3791 52.3416 12.0079 54.0245C11.745 55.2161 11.4923 55.9291 11.7093 56.8915C11.8255 57.4072 12.1191 57.6186 12.6435 57.6298C13.1678 57.641 13.4948 57.3303 13.8456 56.9371C14.7072 55.9712 14.9462 55.2378 15.5684 54.1004C16.4506 52.4876 16.6653 51.4389 17.5592 49.8327C18.4154 48.2941 18.8541 47.3743 20.0145 46.0538C21.0157 44.9145 21.7151 44.4001 22.919 43.4818C24.2523 42.4648 25.0667 41.9784 26.5306 41.1642Z" fill="#FFAB0B"/>
<path d="M23.9075 41.1135C25.7961 40.063 28.9433 38.8263 28.9433 38.8263L25.6174 27.7407C25.6174 27.7407 21.4796 29.1251 18.915 30.2318C17.0087 31.0544 15.8787 31.4218 14.1166 32.524C12.2702 33.6789 11.3031 34.473 9.76744 36.0231C8.12894 37.6769 7.3398 38.7556 6.10489 40.734C4.95596 42.5746 4.51361 43.7284 3.62408 45.7096C2.64381 47.8929 1.89108 49.025 1.36533 51.4083C1.12373 52.5035 1.09065 53.1537 1.06674 54.2753C1.05654 54.754 1.18032 55.471 1.74824 55.7265C2.59485 56.1075 2.95038 55.0338 3.44553 54.0866C3.94976 53.1219 4.68848 51.4791 4.68848 51.4791L5.95185 47.9143C5.95185 47.9143 5.74501 48.9336 5.67877 49.5846C5.53187 51.0284 5.15302 51.9679 4.89014 53.1595C4.62727 54.3512 4.337 55.131 4.82893 56.0316C5.08191 56.4948 5.25111 56.6553 5.76309 56.7699C6.41575 56.9161 6.71767 56.5508 7.20771 55.8429C7.87277 54.8822 8.13737 54.2722 8.68804 53.2405C9.41551 51.8776 10.4261 49.6858 10.4261 49.6858C10.4261 49.6858 9.75607 52.2908 9.38484 53.9737C9.12196 55.1653 8.86929 55.8783 9.08625 56.8407C9.2025 57.3564 9.49604 57.5678 10.0204 57.579C10.5448 57.5902 10.8718 57.2795 11.2226 56.8863C12.0841 55.9205 12.3231 55.187 12.9454 54.0496C13.8276 52.4368 14.0423 51.3881 14.9361 49.7819C15.7923 48.2433 16.231 47.3235 17.3914 46.003C18.3926 44.8638 19.092 44.3493 20.296 43.431C21.6293 42.414 22.4437 41.9277 23.9075 41.1135Z" stroke="#E93405" stroke-width="0.525853"/>
<path d="M58.2538 66.1512C57.5942 63.8097 57.1547 61 57.1547 61L51 61.9366C51 61.9366 51.0039 64.2872 51.2195 65.917C51.4054 67.3226 51.4761 68.3103 51.8792 69.6633C52.323 71.1526 52.5384 71.7706 53.1981 73.4096C53.6765 74.5981 54.2667 75.2771 55.3962 75.751C56.4345 76.1867 57.165 76.0119 58.2538 75.751C59.2657 75.5086 59.721 75.022 60.6717 74.5803C61.6946 74.1051 62.2934 72.918 63.3095 73.4096C64.1833 73.8323 63.9686 74.8144 64.4085 75.751C65.0158 77.044 65.4058 77.8318 66.1667 79.029C66.6873 79.848 66.8178 80.6127 67.7057 80.9022C68.1161 81.036 68.6454 81.0926 68.8047 80.668C69.2441 79.4973 68.8047 78.7616 68.8047 77.39L68.8047 73.4096L68.8047 69.6633C68.8047 68.3627 68.6769 67.4757 67.7057 67.0877C67.2234 66.8951 66.3868 67.0877 66.3868 67.0877C66.3868 67.0877 65.1514 67.33 64.4085 67.556C62.8696 68.0243 62.4334 68.3541 60.8913 68.4926C60.3781 68.5387 59.8332 68.6906 59.3528 68.4926C58.4578 68.1235 58.5296 67.1303 58.2538 66.1512Z" fill="#FFAB0B"/>
<path d="M57.2538 65.1512C56.5942 62.8097 56.1547 60 56.1547 60L50 60.9366C50 60.9366 50.0039 63.2872 50.2195 64.917C50.4054 66.3226 50.4761 67.3103 50.8792 68.6633C51.323 70.1526 51.5384 70.7706 52.1981 72.4096C52.6765 73.5981 53.2667 74.2771 54.3962 74.751C55.4345 75.1867 56.165 75.0119 57.2538 74.751C58.2657 74.5086 58.721 74.022 59.6717 73.5803C60.6946 73.1051 61.2934 71.918 62.3095 72.4096C63.1833 72.8323 62.9686 73.8144 63.4085 74.751C64.0158 76.044 64.4058 76.8318 65.1667 78.029C65.6873 78.848 65.8178 79.6127 66.7057 79.9022C67.1161 80.036 67.6454 80.0926 67.8047 79.668C68.2441 78.4973 67.8047 77.7616 67.8047 76.39L67.8047 72.4096L67.8047 68.6633C67.8047 67.3627 67.6769 66.4757 66.7057 66.0877C66.2234 65.8951 65.3868 66.0877 65.3868 66.0877C65.3868 66.0877 64.1514 66.33 63.4085 66.556C61.8696 67.0243 61.4334 67.3541 59.8913 67.4926C59.3781 67.5387 58.8332 67.6906 58.3528 67.4926C57.4578 67.1235 57.5296 66.1303 57.2538 65.1512Z" stroke="#E93405" stroke-width="0.525853"/>
<path d="M36.9119 67.3348C37.7599 65.3592 39 62.2413 39 62.2413L32.9678 59C32.9678 59 32.0118 61.4623 31.3438 63.1674C30.7372 64.7155 30.2465 65.7578 29.7197 67.3348C29.2557 68.7239 28.8695 70.5628 27.3997 70.3446C26.3205 70.1843 26.116 69.4594 25.3116 68.7239C24.1073 67.6228 23.2185 67.0982 22.0635 65.9457C21.3675 65.2511 21.1355 64.788 20.2074 64.788C19.7544 64.788 19.4552 65.066 19.2794 65.4826C18.9981 66.1492 18.9469 66.1772 19.0474 67.1033C19.2358 68.8393 19.7274 69.444 20.4394 71.0391C21.0989 72.5166 21.8373 73.4135 22.7595 74.7435C23.6716 76.0589 24.1484 76.6526 25.3116 77.7533C26.0105 78.4146 26.7262 79.2777 27.6317 79.6054C28.4834 79.9137 28.8834 80.1847 29.7197 79.837C30.5477 79.4927 30.7878 78.9186 31.3438 78.2163C32.173 77.1688 32.5559 76.3767 33.1998 75.2065C34.0004 73.7516 34.3071 72.9843 35.0559 71.5022C35.8593 69.9119 36.2093 68.9719 36.9119 67.3348Z" fill="#FFAB0B"/>
<path d="M35.9119 65.3348C36.7599 63.3592 38 60.2413 38 60.2413L31.9678 57C31.9678 57 31.0118 59.4623 30.3438 61.1674C29.7372 62.7155 29.2465 63.7578 28.7197 65.3348C28.2557 66.7239 27.8695 68.5628 26.3997 68.3446C25.3205 68.1843 25.116 67.4594 24.3116 66.7239C23.1073 65.6228 22.2185 65.0982 21.0635 63.9457C20.3675 63.2511 20.1355 62.788 19.2074 62.788C18.7544 62.788 18.4552 63.066 18.2794 63.4826C17.9981 64.1492 17.9469 64.1772 18.0474 65.1033C18.2358 66.8393 18.7274 67.444 19.4394 69.0391C20.0989 70.5166 20.8373 71.4135 21.7595 72.7435C22.6716 74.0589 23.1484 74.6526 24.3116 75.7533C25.0105 76.4146 25.7262 77.2777 26.6317 77.6054C27.4834 77.9137 27.8834 78.1847 28.7197 77.837C29.5477 77.4927 29.7878 76.9186 30.3438 76.2163C31.173 75.1688 31.5559 74.3767 32.1998 73.2065C33.0004 71.7516 33.3071 70.9843 34.0559 69.5022C34.8593 67.9119 35.2093 66.9719 35.9119 65.3348Z" stroke="#E93405" stroke-width="0.525853"/>
<path d="M62.9167 5.74622C59.9684 4.14567 58.2107 3.36676 54.9824 2.428C51.9618 1.54962 50.1969 1.06517 47.0482 1.0059C43.5294 0.93967 41.5237 1.4324 38.1522 2.428C35.0106 3.35573 33.2555 4.05826 30.4584 5.74622C27.8946 7.29341 26.5493 8.36776 24.4476 10.4865C21.5705 13.3871 20.2299 15.3676 18.4369 19.0191C16.5599 22.8415 15.7404 25.2222 15.3112 29.4478C14.8506 33.9842 14.7614 35.4931 16.0326 39.8765C17.1411 43.6992 18.2223 47.2817 20.8412 50.3052C22.8411 52.6142 24.3714 54.194 26.852 55.9936C29.6212 58.0027 31.2132 58.5404 34.3053 60.0229C37.6457 61.6243 39.7626 62.1262 43.4417 62.6301C46.9758 63.114 49.0467 63.1325 52.5781 62.63C56.1653 62.1196 58.1518 61.4509 61.4741 60.0229C64.9871 58.5129 66.8839 57.39 69.8892 55.0455C72.0244 53.3798 73.3583 52.4914 74.9383 50.3052C77.1957 47.1815 78.0177 44.7661 79.0256 41.0616C79.9415 37.6951 80.0441 35.777 79.9873 32.292C79.9349 29.0794 79.2692 27.3025 78.3043 24.2335C77.3079 21.0642 76.7174 19.2285 74.9383 16.4119C73.3178 13.8466 69.8892 10.4865 69.8892 10.4865C69.8892 10.4865 65.8141 7.31913 62.9167 5.74622Z" fill="#FFE6B6" stroke="#FFE6B6" stroke-width="0.525853"/>
<path d="M64.1795 6.74622C61.2765 5.14567 59.546 4.36676 56.3673 3.428C53.3932 2.54962 51.6554 2.06517 48.5551 2.0059C45.0905 1.93967 43.1156 2.4324 39.796 3.428C36.7027 4.35573 34.9747 5.05826 32.2206 6.74622C29.6962 8.29342 28.3716 9.36776 26.3023 11.4865C23.4694 14.3871 22.1495 16.3676 20.384 20.0191C18.5359 23.8415 17.729 26.2222 17.3065 30.4478C16.8528 34.9842 16.765 36.4931 18.0167 40.8765C19.1082 44.6992 20.1727 48.2817 22.7513 51.3052C24.7205 53.6142 26.2272 55.194 28.6696 56.9936C31.3963 59.0027 32.9638 59.5405 36.0083 61.0229C39.2973 62.6243 41.3816 63.1262 45.0042 63.6301C48.4838 64.114 50.5229 64.1325 54 63.6301C57.532 63.1196 59.4879 62.4509 62.7591 61.0229C66.2181 59.5129 68.0857 58.39 71.0447 56.0455C73.1471 54.3798 74.4605 53.4914 76.0161 51.3052C78.2389 48.1815 79.0482 45.7661 80.0406 42.0616C80.9424 38.6951 81.0434 36.7771 80.9875 33.292C80.936 30.0794 80.2804 28.3025 79.3304 25.2335C78.3493 22.0642 77.7679 20.2285 76.0161 17.4119C74.4206 14.8466 71.0447 11.4865 71.0447 11.4865C71.0447 11.4865 67.0323 8.31913 64.1795 6.74622Z" fill="#FFAB0B"/>
<path d="M62.9167 5.74622C59.9684 4.14567 58.2107 3.36676 54.9824 2.428C51.9618 1.54962 50.1969 1.06517 47.0482 1.0059C43.5294 0.93967 41.5237 1.4324 38.1522 2.428C35.0106 3.35573 33.2555 4.05826 30.4584 5.74622C27.8946 7.29341 26.5493 8.36776 24.4476 10.4865C21.5705 13.3871 20.2299 15.3676 18.4369 19.0191C16.5599 22.8415 15.7404 25.2222 15.3112 29.4478C14.8506 33.9842 14.7614 35.4931 16.0326 39.8765C17.1411 43.6992 18.2223 47.2817 20.8412 50.3052C22.8411 52.6142 24.3714 54.194 26.852 55.9936C29.6212 58.0027 31.2132 58.5404 34.3053 60.0229C37.6457 61.6243 39.7626 62.1262 43.4417 62.6301C46.9758 63.114 49.0467 63.1325 52.5781 62.63C56.1653 62.1196 58.1518 61.4509 61.4741 60.0229C64.9871 58.5129 66.8839 57.39 69.8892 55.0455C72.0244 53.3798 73.3583 52.4914 74.9383 50.3052C77.1957 47.1815 78.0177 44.7661 79.0256 41.0616C79.9415 37.6951 80.0441 35.777 79.9873 32.292C79.9349 29.0794 79.2692 27.3025 78.3043 24.2335C77.3079 21.0642 76.7174 19.2285 74.9383 16.4119C73.3178 13.8466 69.8892 10.4865 69.8892 10.4865C69.8892 10.4865 65.8141 7.31913 62.9167 5.74622Z" stroke="#E93405" stroke-width="0.525853"/>
<ellipse cx="2.5" cy="4" rx="2.5" ry="4" transform="matrix(-1 1.0804e-07 1.0804e-07 1 43 15)" fill="#2F245E"/>
<ellipse cx="2.5" cy="4" rx="2.5" ry="4" transform="matrix(-1 1.0804e-07 1.0804e-07 1 35 15)" fill="#2F245E"/>
<path d="M32.499 43.5C32.2229 43.5 31.9975 43.2756 32.0053 42.9996C32.0496 41.4291 32.3523 40.9926 33.588 38.99C34.9456 36.7898 37.0787 35.0423 39.6625 34.0135C42.2463 32.9846 45.1394 32.7307 47.9014 33.2904C50.357 33.788 52.5894 34.9045 54.3335 36.4962C54.6799 36.8124 54.631 37.3599 54.2542 37.6392C53.9366 37.8747 53.4951 37.8335 53.2049 37.5648C51.6742 36.1473 49.7034 35.1536 47.5328 34.7138C45.1215 34.2252 42.5958 34.4468 40.3401 35.3451C38.0844 36.2433 36.2222 37.7689 35.037 39.6896C34.0483 41.2918 33.2911 42.1765 33.067 43.0063C32.9951 43.2729 32.7752 43.5 32.499 43.5Z" fill="#2F245E"/>
<path d="M45.0474 49.7374C45.0474 49.7374 42.0808 45.0181 36.0965 45.0219C33.7068 45.0246 35.9228 55.3888 36.8963 55.39C37.8698 55.3911 42.1457 56.7708 45.2619 51.9044C45.0906 50.7891 45.0466 49.7411 45.0466 49.7411L45.0474 49.7374Z" fill="#50439F"/>
<path d="M37.3668 45.0505L35.363 51.1633C35.6207 52.5446 35.9761 53.8654 36.3302 54.786L39.3895 45.4477C38.7588 45.2686 38.0871 45.1302 37.3668 45.0505Z" fill="#FFF8FC"/>
<path d="M38.6592 55.6149C39.3179 55.6364 40.0708 55.5917 40.8666 55.3993L43.4613 47.4365C42.9772 47.0204 42.4007 46.5847 41.7383 46.1759L38.6637 55.6128L38.6592 55.6149Z" fill="#FFF8FC"/>
<mask id="mask0_1914_5389" style="mask-type:luminance" maskUnits="userSpaceOnUse" x="34" y="45" width="12" height="11">
<path d="M45.0539 49.8853C45.0539 49.8853 42.0303 45.1551 36.0222 45.0154C33.6231 44.9608 35.9473 55.246 36.9247 55.2704C37.902 55.2948 42.2081 56.7594 45.29 52.0298C45.1074 50.9246 45.0531 49.889 45.0531 49.889L45.0539 49.8853Z" fill="white"/>
</mask>
<g mask="url(#mask0_1914_5389)">
<g style="mix-blend-mode:multiply">
<path d="M46.2831 52.8903C46.0968 51.7628 44.9374 49.8174 44.9374 49.8174C44.9374 49.8174 43.9341 48.2427 41.9359 46.8667C43.2649 50.4676 41.8372 53.807 35.2547 53.0189C35.4287 54.0786 36.7335 58.2815 36.7335 58.2815C36.7335 58.2815 43.1534 57.7126 46.2865 52.8921L46.2831 52.8903Z" fill="#CDD0D1"/>
</g>
</g>
<path d="M45.8539 48.0114C45.8539 48.0114 47.3716 43.279 53.3635 43.2757C55.7561 43.2732 56.7206 53.6571 55.7492 53.6576C54.7745 53.6564 50.921 55.0457 46.3055 50.1767C46.1339 49.0596 45.8539 48.0114 45.8539 48.0114Z" fill="#50439F"/>
<path d="M47.7663 52.0241C48.3738 52.492 48.9624 52.877 49.5268 53.185L52.7722 43.247C51.9309 43.3011 51.1743 43.4317 50.5042 43.6308L47.7663 52.0241Z" fill="#FFF8FC"/>
<path d="M54.8706 44.7598L51.9504 53.6878C52.7575 53.8281 53.4658 53.8419 54.0572 53.8156L55.8134 48.447C55.6006 47.1448 55.2831 45.8216 54.8706 44.7598Z" fill="#FFF8FC"/>
<mask id="mask1_1914_5389" style="mask-type:luminance" maskUnits="userSpaceOnUse" x="45" y="43" width="12" height="11">
<path d="M45.8323 47.879C45.8323 47.879 47.3107 43.2426 53.3276 43.3841C55.7302 43.4394 56.7989 53.7163 55.8234 53.6932C54.8446 53.6685 50.9885 54.9473 46.3067 50.0279C46.1236 48.9207 45.8323 47.879 45.8323 47.879Z" fill="white"/>
</mask>
<g mask="url(#mask1_1914_5389)">
<g style="mix-blend-mode:multiply">
<path d="M45.3987 51.1486C45.222 50.0784 45.7328 48.2689 45.7328 48.2689C45.7328 48.2689 46.2087 46.8042 47.7093 45.5676C47.5607 48.953 50.0076 52.2065 56.1443 51.7218C56.3093 52.7276 56.3774 56.6929 56.3774 56.6929C56.3774 56.6929 49.9663 55.8871 45.3987 51.1486Z" fill="#CDD0D1"/>
</g>
</g>
<path d="M48.2815 49.4008C48.5354 51.3216 47.4973 52.93 45.962 52.9979C44.4275 53.0619 42.9782 51.5566 42.7242 49.6358C42.4703 47.715 43.5084 46.1065 45.0437 46.0387C46.5782 45.9746 48.0275 47.4799 48.2847 49.4023L48.2815 49.4008Z" fill="#50439F"/>
<path opacity="0.5" d="M45.8591 48.2106C45.9644 49.0147 45.5329 49.6868 44.8904 49.7124C44.248 49.7379 43.6426 49.1118 43.5373 48.3077C43.4319 47.5037 43.8634 46.8316 44.5059 46.806C45.1483 46.7805 45.7537 47.4066 45.8591 48.2106Z" fill="#FFFCF5"/>
<path d="M40 26.5015C40 29.5388 37.7612 32.0015 35 32.0015C32.2388 32.0015 30 29.5388 30 26.5015C30 23.4641 32.2388 21.0015 35 21.0015C37.7612 21.0015 40 23.4641 40 26.5015Z" fill="#E93405"/>
<path d="M35.2273 24.2451C35.2273 25.3287 34.4288 26.2071 33.4437 26.2071C32.4587 26.2071 31.6602 25.3287 31.6602 24.2451C31.6602 23.1616 32.4587 22.2832 33.4437 22.2832C34.4288 22.2832 35.2273 23.1616 35.2273 24.2451Z" fill="#FFFCF5"/>
<g style="mix-blend-mode:multiply">
<path d="M38.3686 22.4473C38.406 22.7223 38.4321 23.0014 38.4321 23.2887C38.4321 26.326 36.1933 28.7887 33.4321 28.7887C32.1336 28.7887 30.9545 28.2387 30.0664 27.3439C30.4358 29.9831 32.4992 32.0025 34.9992 32.0025C37.7604 32.0025 39.9992 29.5398 39.9992 26.5025C39.9992 24.8935 39.3686 23.4529 38.3686 22.4473Z" fill="#CDD0D1"/>
</g>
</svg>
