<svg width="1536" height="585" viewBox="0 0 1536 585" fill="none" xmlns="http://www.w3.org/2000/svg">
<g clip-path="url(#clip0_599_30557)">
<path d="M92.417 157.5C75.1197 162.895 0 189 0 189V585H1536V118C1536 118 1479.58 133.813 1443.58 144.5C1415.34 152.884 1399.69 158.204 1371.43 166.5C1340.26 175.647 1322.77 180.723 1291.37 189C1260.61 197.107 1243.54 202.604 1212.29 208.5C1179.21 214.744 1160.39 217.447 1126.8 219.5C1096.16 221.372 1078.82 221.768 1048.22 219.5C1018.65 217.309 998.379 215.944 969.143 210.999C930.728 204.501 915.843 198.646 878.208 188.499C841.409 178.577 819.313 168.542 782.826 157.5C750.488 147.714 732.134 142.936 699.305 135C668.783 127.622 649.979 121.406 619.243 114.999C579.947 106.808 537.699 99.5957 519.907 98.0001L519.688 97.9804C486.168 94.9741 464.157 93 430.456 93C399.962 93 378.564 93 362.255 94.5C336.662 96.8539 295.299 102.054 257.977 109.5C235.243 114.036 194.718 125 175.444 130.5C156.17 136 109.714 152.105 92.417 157.5Z" fill="#EDEBF5"/>
<g filter="url(#filter0_bd_599_30557)">
<path d="M14.9667 630.917C6.34556 602.287 6.4428 558.213 33.4675 516.599C62.5198 471.863 110.539 446.614 167.419 445.014C369.038 439.342 439.692 597.094 633.251 595.854C669.515 595.622 701.836 586.618 730.835 561.464C775.111 523.057 787.075 456.091 760.908 403.857C748.123 378.337 722.185 349.634 689.727 334.165C569.393 276.815 445.43 286.935 274.474 240.044C228.971 227.563 196.98 217.528 145.036 194.822C96.7442 173.712 -4.63057 108.046 -32.9599 91" stroke="url(#paint0_linear_599_30557)" stroke-opacity="0.75" stroke-width="132" shape-rendering="crispEdges"/>
</g>
<path d="M1154.97 133.706C1151.2 131.191 1144.66 128.371 1144.66 128.371V143.309L1147.15 157.179C1147.15 157.179 1150.59 158.908 1152.13 160.735C1153.97 162.925 1154.07 164.774 1154.97 167.492C1155.65 169.539 1156.13 170.687 1156.39 172.827C1156.63 174.757 1156.81 175.906 1156.39 177.806C1156.07 179.267 1155.28 179.899 1154.97 181.362C1154.6 183.129 1154.18 184.365 1154.97 185.986C1155.36 186.784 1155.55 187.47 1156.39 187.764C1157.63 188.198 1158.26 186.863 1159.24 185.986C1160.81 184.566 1162.08 181.362 1162.08 181.362C1162.08 181.362 1161.35 185.375 1162.08 187.764C1162.65 189.608 1162.79 191.282 1164.57 192.032C1165.72 192.518 1166.64 192.556 1167.77 192.032C1169.47 191.251 1170.62 187.764 1170.62 187.764C1170.62 187.764 1171.39 189.8 1172.75 190.609C1174.3 191.532 1175.65 192.565 1177.38 192.032C1178.41 191.711 1178.95 191.186 1179.51 190.254C1180.36 188.821 1179.51 185.986 1179.51 185.986C1179.51 185.986 1180.75 189.56 1182.71 190.254C1183.89 190.67 1184.91 191.004 1185.91 190.254C1187.24 189.254 1186.98 187.652 1186.98 185.986C1186.98 182.791 1186.58 180.93 1185.91 177.806C1184.84 172.827 1184.3 171.399 1182.71 167.492C1181 163.291 1179.81 161.004 1177.38 157.179C1174.82 153.171 1172.96 150.771 1169.91 147.576L1162.08 139.396C1159.03 136.202 1157.93 135.679 1154.97 133.706Z" fill="#E93405"/>
<path d="M1177.38 183.852C1177.38 183.852 1178.61 187.426 1180.58 188.12C1181.76 188.536 1182.78 188.87 1183.78 188.12C1185.11 187.12 1184.84 185.519 1184.84 183.852C1184.84 180.658 1184.45 178.796 1183.78 175.672C1182.71 170.693 1182.16 169.266 1180.58 165.359C1178.87 161.158 1177.68 158.87 1175.24 155.045C1172.69 151.038 1170.83 148.637 1167.77 145.443C1164.72 142.248 1163 140.457 1159.95 137.263C1156.89 134.068 1155.8 133.546 1152.84 131.572C1149.06 129.057 1142.52 126.238 1142.52 126.238V141.175L1145.01 155.045C1145.01 155.045 1148.45 156.774 1149.99 158.601C1151.84 160.791 1151.94 162.641 1152.84 165.359C1153.51 167.405 1153.99 168.554 1154.26 170.693C1154.5 172.623 1154.67 173.773 1154.26 175.672C1153.94 177.134 1153.15 177.765 1152.84 179.229C1152.46 180.995 1152.04 182.231 1152.84 183.852C1153.23 184.651 1153.42 185.336 1154.26 185.63C1155.5 186.064 1156.13 184.729 1157.1 183.852C1158.68 182.433 1159.95 179.229 1159.95 179.229C1159.95 179.229 1159.21 183.241 1159.95 185.63C1160.52 187.474 1160.66 189.148 1162.44 189.898C1163.59 190.384 1164.5 190.422 1165.64 189.898C1167.33 189.117 1168.48 185.63 1168.48 185.63M1177.38 183.852L1175.24 179.229M1177.38 183.852C1177.38 183.852 1178.23 186.688 1177.38 188.12C1176.82 189.052 1176.28 189.578 1175.24 189.898C1173.52 190.432 1172.17 189.399 1170.62 188.476C1169.26 187.666 1168.48 185.63 1168.48 185.63M1168.48 185.63L1167.77 181.007" stroke="#FFAB0B" stroke-width="1.42258"/>
<path d="M1075.31 126.238C1075.31 126.238 1071.1 125.848 1068.9 124.46C1067.24 123.409 1066.5 122.698 1065.7 120.903C1064.8 118.873 1064.99 116.28 1064.99 114.146C1064.99 110.674 1065.35 109.794 1065.35 106.322C1065.35 104.1 1065.65 102.833 1065.35 100.632C1065.01 98.193 1064.65 96.7963 1063.57 94.5856C1062.6 92.6129 1061.69 91.3633 1060.37 89.6066C1059.3 88.1842 1058.68 86.8221 1057.17 87.8283C1056.1 88.54 1056.28 89.6066 1056.46 90.3182C1056.97 92.3883 1057.17 92.78 1057.17 94.5856C1054.81 93.8911 1053.56 93.1609 1051.12 92.8073C1048.65 92.4482 1047.18 92.34 1044.72 92.8073C1042.69 93.1933 1041.87 93.2183 1039.74 94.5856C1038.09 95.6452 1036.87 96.3007 1036.18 98.142C1035.29 100.543 1036.29 102.348 1037.61 104.544C1038.62 106.228 1040.81 108.1 1040.81 108.1C1040.81 108.1 1042.17 114.245 1043.3 118.058C1044.26 121.323 1044.67 122.664 1045.79 125.883C1047.39 130.506 1048.61 132.684 1051.12 136.196C1053.12 138.993 1054.52 140.4 1057.17 142.597C1059.48 144.518 1060.89 145.496 1063.57 146.865C1066.46 148.347 1071.39 149.71 1071.39 149.71L1075.31 138.33V126.238Z" fill="#E93405"/>
<path d="M1054.32 93.1625C1054.32 91.357 1054.13 90.9653 1053.61 88.8951C1053.43 88.1836 1053.26 87.1169 1054.32 86.4053C1055.83 85.399 1056.81 86.414 1057.88 87.8364C1059.2 89.5931 1060.14 91.1899 1061.1 93.1625C1062.18 95.3733 1062.17 96.77 1062.5 99.2085C1062.8 101.41 1062.5 102.677 1062.5 104.899C1062.5 108.371 1062.15 109.251 1062.15 112.723C1062.15 114.857 1061.96 117.45 1062.86 119.48C1063.66 121.275 1064.4 121.986 1066.06 123.037C1068.25 124.425 1072.46 124.815 1072.46 124.815V136.907L1068.55 148.287C1068.55 148.287 1063.62 146.924 1060.72 145.442C1058.05 144.073 1056.63 143.095 1054.32 141.174C1051.68 138.977 1050.28 137.57 1048.28 134.773C1045.77 131.261 1044.54 129.083 1042.94 124.459C1041.83 121.241 1041.42 119.9 1040.45 116.635C1039.32 112.822 1037.96 106.677 1037.96 106.677M1054.32 93.1625C1055.57 94.5514 1055.8 95.326 1056.46 97.0749C1057.09 98.7648 1057.31 99.6294 1057.88 101.342C1058.23 102.41 1058.56 103.97 1057.52 104.899C1056.59 105.735 1055.3 105.68 1054.32 104.899C1052.54 103.476 1052.51 102.791 1051.48 101.342C1050.9 100.527 1050.06 99.2085 1050.06 99.2085C1050.06 99.2085 1050.77 102.765 1050.06 104.899C1049.74 105.83 1049.22 106.407 1048.28 106.677C1046.9 107.07 1045.79 105.61 1045.08 104.899C1044.42 104.238 1044.06 103.847 1043.48 103.121M1054.32 93.1625C1051.96 92.4681 1050.71 91.7378 1048.28 91.3843C1045.8 91.0252 1044.33 90.917 1041.88 91.3843C1039.85 91.7702 1039.03 91.7953 1036.9 93.1625C1035.24 94.2221 1034.02 94.8777 1033.34 96.719C1032.45 99.1197 1033.44 100.925 1034.76 103.121C1035.77 104.805 1037.96 106.677 1037.96 106.677M1042.23 100.631C1042.23 100.631 1042.85 102.426 1043.48 103.121M1043.48 103.121C1043.29 104.934 1042.92 106.56 1041.16 107.033C1040.36 107.249 1037.96 106.677 1037.96 106.677" stroke="#FFAB0B" stroke-width="1.42258"/>
<path d="M1139.68 177.806C1139.68 174.973 1138.97 169.626 1138.97 169.626L1126.17 175.672L1118.7 182.43C1118.7 182.43 1119.37 188.747 1120.12 192.743C1120.7 195.823 1121.22 197.51 1121.9 200.567C1122.89 205.007 1123.37 207.515 1124.39 211.948C1125.06 214.87 1125.1 216.927 1126.17 219.417C1126.52 220.233 1126.73 220.978 1127.59 221.195C1129.01 221.55 1131.93 221.195 1134.7 221.195H1141.46H1149.29C1150.67 221.195 1152.25 221.74 1152.84 220.483C1152.92 220.308 1153.06 220.075 1152.84 219.417C1152.35 217.943 1150.7 218.272 1149.29 217.638C1147.52 216.848 1146.33 216.836 1144.66 215.86C1143.29 215.061 1142.39 214.653 1141.46 213.371C1139.5 210.672 1140.31 208.157 1140.04 204.835C1139.76 201.467 1140.04 199.5 1140.04 196.3V188.12C1140.04 184.231 1139.68 181.718 1139.68 177.806Z" fill="#E93405"/>
<path d="M1137.54 176.384C1137.54 173.551 1136.83 168.204 1136.83 168.204L1124.03 174.25L1116.57 181.007C1116.57 181.007 1117.24 187.325 1117.99 191.321C1118.57 194.4 1119.08 196.087 1119.77 199.145C1120.76 203.585 1121.24 206.092 1122.26 210.526C1122.93 213.447 1122.96 215.505 1124.03 217.994C1124.39 218.811 1124.59 219.556 1125.46 219.772C1126.87 220.128 1129.79 219.772 1132.57 219.772H1139.33H1147.15C1148.54 219.772 1150.12 220.317 1150.71 219.061C1150.79 218.886 1150.93 218.653 1150.71 217.994C1150.22 216.521 1148.57 216.85 1147.15 216.216C1145.39 215.426 1144.2 215.414 1142.53 214.438C1141.16 213.639 1140.26 213.23 1139.33 211.948C1137.37 209.249 1138.18 206.735 1137.9 203.413C1137.63 200.045 1137.9 198.078 1137.9 194.877V186.698C1137.9 182.809 1137.54 180.296 1137.54 176.384Z" stroke="#FFAB0B" stroke-width="1.42258"/>
<path d="M1101.62 192.032C1101.97 188.438 1102.33 183.141 1102.33 183.141L1093.09 180.651L1081.71 171.76V180.651V186.697V196.655V206.257V213.37C1081.71 215.149 1081 215.504 1078.86 216.216C1076.49 217.007 1076.02 217.282 1072.82 218.349C1071.46 218.802 1070.68 218.705 1069.62 220.128C1069.03 220.905 1068.75 221.827 1069.62 222.261C1070.33 222.617 1072.1 222.617 1072.82 222.617H1078.86H1086.69C1089.19 222.617 1092.38 222.89 1093.09 222.617C1094.67 222.011 1095.5 221.374 1096.64 220.128C1099.09 217.476 1098.9 212.659 1099.13 211.237C1099.36 209.814 1100.56 200.567 1100.56 200.567C1100.56 200.567 1101.32 195.123 1101.62 192.032Z" fill="#E93405"/>
<path d="M1099.49 190.61C1099.84 187.015 1100.2 181.719 1100.2 181.719L1090.95 179.229L1079.57 170.338V179.229V185.275V195.233V204.835V211.948C1079.57 213.726 1078.86 214.082 1076.73 214.793C1074.35 215.585 1073.88 215.86 1070.68 216.927C1069.33 217.379 1068.55 217.283 1067.48 218.705C1066.9 219.483 1066.61 220.405 1067.48 220.839C1068.19 221.195 1069.97 221.195 1070.68 221.195H1076.73H1084.55C1087.05 221.195 1090.24 221.467 1090.95 221.195C1092.54 220.589 1093.36 219.952 1094.51 218.705C1096.95 216.054 1096.77 211.237 1097 209.814C1097.23 208.392 1098.42 199.145 1098.42 199.145C1098.42 199.145 1099.19 193.701 1099.49 190.61Z" stroke="#FFAB0B" stroke-width="1.42258"/>
<path d="M1143.59 123.393C1141.27 119.619 1139.33 117.906 1136.12 114.857C1133.4 112.274 1131.83 110.804 1128.65 108.811C1125.65 106.931 1123.85 105.957 1120.47 104.899C1116.33 103.602 1113.79 103.54 1109.45 103.477C1104.56 103.406 1101.78 103.839 1097 104.899C1092.28 105.946 1089.52 106.522 1085.26 108.811C1081.25 110.97 1079.11 112.581 1076.02 115.924C1072.67 119.543 1071.27 122.089 1069.26 126.594C1067.49 130.567 1066.77 132.972 1066.06 137.263C1065.12 142.88 1065.03 146.243 1066.06 151.844C1066.8 155.862 1067.47 158.129 1069.26 161.802C1071.52 166.448 1073.3 168.951 1077.08 172.472C1080.92 176.043 1083.68 177.439 1088.46 179.585C1093.6 181.889 1096.75 182.804 1102.33 183.497C1106.88 184.06 1109.54 184.211 1114.07 183.497C1118.84 182.743 1121.48 181.737 1125.81 179.585C1130.19 177.404 1132.42 175.675 1136.12 172.472C1139.31 169.706 1141.23 168.152 1143.59 164.647C1145.81 161.348 1146.67 159.197 1147.86 155.401C1149.16 151.238 1149.68 148.737 1149.64 144.376C1149.59 140.311 1148.96 138.025 1147.87 134.126L1147.86 134.062C1146.66 129.738 1145.94 127.217 1143.59 123.393Z" fill="white" stroke="#FFAB0B" stroke-width="1.42258"/>
<path d="M1145.01 124.815C1142.69 121.041 1140.76 119.328 1137.54 116.28C1134.82 113.697 1133.25 112.227 1130.08 110.234C1127.07 108.353 1125.27 107.38 1121.9 106.322C1117.75 105.024 1115.21 104.962 1110.87 104.899C1105.98 104.828 1103.2 105.261 1098.42 106.322C1093.71 107.368 1090.94 107.944 1086.69 110.234C1082.67 112.392 1080.53 114.003 1077.44 117.346C1074.09 120.966 1072.69 123.511 1070.68 128.016C1068.91 131.989 1068.2 134.394 1067.48 138.685C1066.54 144.302 1066.46 147.665 1067.48 153.267C1068.22 157.284 1068.9 159.552 1070.68 163.225C1072.94 167.871 1074.73 170.373 1078.51 173.894C1082.34 177.465 1085.11 178.861 1089.89 181.007C1095.02 183.311 1098.17 184.227 1103.76 184.919C1108.31 185.483 1110.97 185.634 1115.49 184.919C1120.27 184.165 1122.9 183.16 1127.23 181.007C1131.61 178.827 1133.85 177.097 1137.54 173.894C1140.74 171.129 1142.65 169.574 1145.01 166.07C1147.23 162.77 1148.1 160.62 1149.28 156.823C1150.58 152.66 1151.11 150.159 1151.06 145.798C1151.01 141.733 1150.38 139.448 1149.3 135.548L1149.28 135.484C1148.08 131.16 1147.36 128.639 1145.01 124.815Z" fill="#E93405"/>
<path d="M1143.59 123.393C1141.27 119.619 1139.33 117.906 1136.12 114.857C1133.4 112.274 1131.83 110.804 1128.65 108.811C1125.65 106.931 1123.85 105.957 1120.47 104.899C1116.33 103.602 1113.79 103.54 1109.45 103.477C1104.56 103.406 1101.78 103.839 1097 104.899C1092.28 105.946 1089.52 106.522 1085.26 108.811C1081.25 110.97 1079.11 112.581 1076.02 115.924C1072.67 119.543 1071.27 122.089 1069.26 126.594C1067.49 130.567 1066.77 132.972 1066.06 137.263C1065.12 142.88 1065.03 146.243 1066.06 151.844C1066.8 155.862 1067.47 158.129 1069.26 161.802C1071.52 166.448 1073.3 168.951 1077.08 172.472C1080.92 176.043 1083.68 177.439 1088.46 179.585C1093.6 181.889 1096.75 182.804 1102.33 183.497C1106.88 184.06 1109.54 184.211 1114.07 183.497C1118.84 182.743 1121.48 181.737 1125.81 179.585C1130.19 177.404 1132.42 175.675 1136.12 172.472C1139.31 169.706 1141.23 168.152 1143.59 164.647C1145.81 161.348 1146.67 159.197 1147.86 155.401C1149.16 151.238 1149.68 148.737 1149.64 144.376C1149.59 140.311 1148.96 138.025 1147.87 134.126L1147.86 134.062C1146.66 129.738 1145.94 127.217 1143.59 123.393Z" stroke="#FFAB0B" stroke-width="1.42258"/>
<ellipse cx="2.48951" cy="2.84515" rx="2.48951" ry="2.84515" transform="matrix(-1 0 0 1 1114.07 116.991)" fill="#2F245E"/>
<ellipse cx="2.48951" cy="2.84515" rx="2.48951" ry="2.84515" transform="matrix(-1 0 0 1 1104.82 116.991)" fill="#2F245E"/>
<path d="M1103.74 135.855C1103.43 136.167 1103.43 136.674 1103.76 136.963C1105.49 138.463 1107.63 139.412 1109.91 139.677C1112.46 139.972 1115.04 139.398 1117.22 138.048C1119.4 136.697 1121.06 134.649 1121.93 132.236C1122.71 130.074 1122.82 127.733 1122.24 125.519C1122.13 125.093 1121.68 124.868 1121.26 125.008C1120.84 125.148 1120.62 125.6 1120.73 126.028C1121.19 127.899 1121.09 129.871 1120.43 131.695C1119.68 133.769 1118.25 135.53 1116.38 136.691C1114.5 137.852 1112.29 138.346 1110.1 138.092C1108.17 137.868 1106.36 137.079 1104.89 135.832C1104.56 135.546 1104.05 135.544 1103.74 135.855Z" fill="#2F245E"/>
<path d="M1141.81 120.01C1141.81 120.01 1120.8 122.446 1102 105.535C1101.67 105.69 1137.84 68.1038 1137.84 68.1038L1141.81 120.004V120.01Z" fill="#FFAB0B"/>
<path d="M1119.13 97.4459L1116.54 99.9536L1113.02 99.2448L1114.6 102.479L1112.83 105.618L1116.4 105.106L1118.84 107.757L1119.45 104.207L1122.73 102.712L1119.54 101.026L1119.13 97.4459Z" fill="#FFFCF5"/>
<path d="M1138.5 77.8536L1138.58 77.7762L1139.03 83.7447L1138.35 83.0061L1134.79 83.5124L1136.55 80.3732L1134.97 77.1388L1138.5 77.8536Z" fill="#FFFCF5"/>
<path d="M1129.22 83.8878L1127.99 85.097L1126.29 84.7515L1127.05 86.3062L1126.2 87.8132L1127.91 87.569L1129.09 88.8437L1129.38 87.1401L1130.95 86.4194L1129.43 85.6093L1129.22 83.8878Z" fill="#FFFCF5"/>
<path d="M1135.95 96.8442L1134.71 98.0475L1133.01 97.7079L1133.77 99.2567L1132.92 100.764L1134.64 100.525L1135.81 101.794L1136.11 100.091L1137.68 99.3698L1136.15 98.5597L1135.95 96.8442Z" fill="#FFFCF5"/>
<path d="M1133.78 111.45L1132.54 112.653L1130.84 112.308L1131.6 113.862L1130.75 115.369L1132.47 115.125L1133.64 116.4L1133.94 114.696L1135.5 113.975L1133.98 113.165L1133.78 111.45Z" fill="#FFFCF5"/>
<g style="mix-blend-mode:multiply">
<path d="M1102 105.54C1101.69 105.689 1133.24 72.8916 1137.38 68.579C1137.57 68.6088 1137.74 68.6326 1137.88 68.6564L1138.3 74.0829C1137.71 73.928 1137.09 73.7553 1136.45 73.5527C1132.49 72.278 1127.76 82.4519 1120.95 91.4762C1114.62 99.875 1110.22 109.554 1141.3 113.474L1141.8 120.02C1141.8 120.02 1120.8 122.456 1102 105.546L1102 105.54Z" fill="#CDD0D1"/>
</g>
<path d="M1133.08 63.6536C1131.97 66.7629 1133.59 70.182 1136.7 71.29C1139.81 72.3979 1143.23 70.7777 1144.34 67.6683C1145.44 64.559 1143.82 61.1399 1140.71 60.032C1137.6 58.924 1134.19 60.5443 1133.08 63.6536Z" fill="#7263B1"/>
<g style="mix-blend-mode:multiply">
<path d="M1137.49 59.8171C1137.49 59.8171 1137.48 59.829 1137.48 59.841C1136.37 62.9503 1137.99 66.3694 1141.1 67.4773C1142.18 67.8585 1143.29 67.9122 1144.34 67.6918C1143.22 70.7833 1139.81 72.3975 1136.71 71.2895C1133.6 70.1816 1131.98 66.7625 1133.09 63.6532C1133.82 61.622 1135.53 60.2341 1137.49 59.8171H1137.49Z" fill="#CDD0D1"/>
</g>
<path d="M1111.24 129.033C1111.24 132.372 1108.54 135.079 1105.2 135.079C1101.86 135.079 1099.15 132.372 1099.15 129.033C1099.15 125.695 1101.86 122.988 1105.2 122.988C1108.54 122.988 1111.24 125.695 1111.24 129.033Z" fill="#E93405"/>
<path d="M1105.48 126.552C1105.48 127.743 1104.51 128.708 1103.32 128.708C1102.13 128.708 1101.16 127.743 1101.16 126.552C1101.16 125.36 1102.13 124.395 1103.32 124.395C1104.51 124.395 1105.48 125.36 1105.48 126.552Z" fill="#FFFCF5"/>
<g style="mix-blend-mode:multiply">
<path d="M1109.27 124.575C1109.32 124.877 1109.35 125.184 1109.35 125.5C1109.35 128.839 1106.64 131.546 1103.3 131.546C1101.73 131.546 1100.31 130.941 1099.23 129.958C1099.68 132.859 1102.17 135.079 1105.2 135.079C1108.54 135.079 1111.24 132.371 1111.24 129.033C1111.24 127.264 1110.48 125.68 1109.27 124.575Z" fill="#CDD0D1"/>
</g>
</g>
<defs>
<filter id="filter0_bd_599_30557" x="-106.987" y="14.4478" width="987.588" height="707.414" filterUnits="userSpaceOnUse" color-interpolation-filters="sRGB">
<feFlood flood-opacity="0" result="BackgroundImageFix"/>
<feGaussianBlur in="BackgroundImageFix" stdDeviation="5"/>
<feComposite in2="SourceAlpha" operator="in" result="effect1_backgroundBlur_599_30557"/>
<feColorMatrix in="SourceAlpha" type="matrix" values="0 0 0 0 0 0 0 0 0 0 0 0 0 0 0 0 0 0 127 0" result="hardAlpha"/>
<feOffset dy="20"/>
<feGaussianBlur stdDeviation="20"/>
<feComposite in2="hardAlpha" operator="out"/>
<feColorMatrix type="matrix" values="0 0 0 0 0.405844 0 0 0 0 0.377416 0 0 0 0 0.578597 0 0 0 0.35 0"/>
<feBlend mode="normal" in2="effect1_backgroundBlur_599_30557" result="effect2_dropShadow_599_30557"/>
<feBlend mode="normal" in="SourceGraphic" in2="effect2_dropShadow_599_30557" result="shape"/>
</filter>
<linearGradient id="paint0_linear_599_30557" x1="-127.928" y1="-121.913" x2="780.302" y2="1019.07" gradientUnits="userSpaceOnUse">
<stop stop-color="#50439F" stop-opacity="0.6"/>
<stop offset="0.48" stop-color="#50439F"/>
<stop offset="0.9999" stop-color="#50439F" stop-opacity="0.5"/>
</linearGradient>
<clipPath id="clip0_599_30557">
<rect width="1536" height="585" fill="white"/>
</clipPath>
</defs>
</svg>
