<svg width="95" height="100" viewBox="0 0 95 100" fill="none" xmlns="http://www.w3.org/2000/svg">
<path d="M18.9107 45.3321C21.1383 43.761 25 42 25 42V51.33L23.5302 59.9935C23.5302 59.9935 21.4994 61.0734 20.5905 62.2149C19.5014 63.5827 19.4422 64.7379 18.9107 66.4356C18.5105 67.7141 18.2277 68.4313 18.0708 69.7677C17.9293 70.973 17.8255 71.6913 18.0708 72.8777C18.2595 73.7905 18.7281 74.185 18.9107 75.0992C19.1312 76.2025 19.3802 76.9745 18.9107 77.987C18.6795 78.4857 18.5662 78.9138 18.0708 79.0977C17.3408 79.3687 16.9656 78.535 16.391 77.987C15.4613 77.1004 14.7112 75.0992 14.7112 75.0992C14.7112 75.0992 15.1457 77.6054 14.7112 79.0977C14.3758 80.2495 14.291 81.295 13.2414 81.7634C12.5614 82.0669 12.0217 82.0906 11.3516 81.7634C10.3527 81.2757 9.67169 79.0977 9.67169 79.0977C9.67169 79.0977 9.21534 80.3691 8.41183 80.8748C7.4957 81.4515 6.70064 82.0966 5.68223 81.7634C5.07038 81.5632 4.74987 81.235 4.42238 80.6527C3.9192 79.7581 4.42238 77.987 4.42238 77.987C4.42238 77.987 3.69248 80.2196 2.53259 80.6527C1.83666 80.9126 1.23322 81.1212 0.642813 80.6527C-0.144393 80.0281 0.0127134 79.028 0.0127134 77.987C0.0127134 75.9917 0.247742 74.8288 0.642813 72.8777C1.27257 69.7677 1.59535 68.876 2.53259 66.4356C3.54037 63.8115 4.24413 62.3826 5.68223 59.9935C7.18885 57.4906 8.28771 55.991 10.0917 53.9957L14.7112 48.8864C16.5152 46.8911 17.1632 46.5646 18.9107 45.3321Z" fill="#E93405"/>
<path d="M5.59927 75.987C5.59927 75.987 4.84018 78.2196 3.6339 78.6527C2.91013 78.9126 2.28255 79.1212 1.66853 78.6527C0.849831 78.0281 1.01322 77.028 1.01322 75.987C1.01322 73.9917 1.25765 72.8288 1.66853 70.8777C2.32347 67.7677 2.65917 66.876 3.6339 64.4356C4.68199 61.8115 5.4139 60.3826 6.90952 57.9935C8.4764 55.4906 9.61922 53.991 11.4954 51.9957C13.3716 50.0004 14.4235 48.8817 16.2996 46.8864C18.1758 44.8911 18.8497 44.5646 20.6671 43.3321C22.9839 41.761 27 40 27 40V49.33L25.4714 57.9935C25.4714 57.9935 23.3594 59.0734 22.4141 60.2149C21.2814 61.5827 21.2199 62.7379 20.6671 64.4356C20.2509 65.7141 19.9568 66.4313 19.7936 67.7677C19.6465 68.973 19.5385 69.6913 19.7936 70.8777C19.9899 71.7905 20.4772 72.185 20.6671 73.0992C20.8964 74.2025 21.1554 74.9745 20.6671 75.987C20.4266 76.4857 20.3089 76.9138 19.7936 77.0977C19.0345 77.3687 18.6442 76.535 18.0466 75.987C17.0797 75.1004 16.2996 73.0992 16.2996 73.0992C16.2996 73.0992 16.7516 75.6054 16.2996 77.0977C15.9508 78.2495 15.8626 79.295 14.771 79.7634C14.0638 80.0669 13.5025 80.0906 12.8056 79.7634C11.7668 79.2757 11.0586 77.0977 11.0586 77.0977M5.59927 75.987L6.90952 73.0992M5.59927 75.987C5.59927 75.987 5.07596 77.7581 5.59927 78.6527C5.93987 79.235 6.2732 79.5632 6.90952 79.7634C7.96867 80.0966 8.79553 79.4515 9.74831 78.8748C10.5839 78.3691 11.0586 77.0977 11.0586 77.0977M11.0586 77.0977L11.4954 74.2099" stroke="#FFAB0B" stroke-width="1.42258"/>
<path d="M68 40.6666C68 40.6666 70.5602 40.4284 71.8934 39.5807C72.9027 38.939 73.3549 38.5051 73.8401 37.4091C74.389 36.169 74.2727 34.5858 74.2727 33.2828C74.2727 31.1625 74.0564 30.6252 74.0564 28.5049C74.0564 27.148 73.8736 26.3747 74.0564 25.0302C74.2589 23.5411 74.4802 22.6882 75.1379 21.3382C75.7248 20.1337 76.2832 19.3706 77.0846 18.2979C77.7335 17.4293 78.1138 16.5975 79.0313 17.212C79.6802 17.6465 79.5721 18.2979 79.4639 18.7324C79.1492 19.9965 79.0313 20.2357 79.0313 21.3382C80.4673 20.9142 81.2271 20.4683 82.7084 20.2524C84.2131 20.0331 85.1082 19.967 86.6019 20.2524C87.8355 20.4881 88.3323 20.5034 89.6301 21.3382C90.6359 21.9853 91.3771 22.3856 91.7931 23.51C92.3354 24.976 91.7292 26.0781 90.9279 27.4191C90.3133 28.4476 88.9812 29.5908 88.9812 29.5908C88.9812 29.5908 88.1543 33.3431 87.4671 35.6716C86.8786 37.6655 86.6304 38.4844 85.953 40.4496C84.9796 43.273 84.2354 44.6027 82.7084 46.7474C81.4922 48.4557 80.6399 49.3145 79.0313 50.6565C77.6259 51.8291 76.7646 52.4266 75.1379 53.2626C73.3777 54.1673 70.3793 55 70.3793 55L68 48.0505V40.6666Z" fill="#E93405"/>
<path d="M81.0313 21.3697C81.0313 20.2682 81.1492 20.0292 81.4639 18.7662C81.5721 18.3321 81.6802 17.6814 81.0313 17.2472C80.1138 16.6334 79.5172 17.2526 78.8683 18.1203C78.0669 19.1921 77.4954 20.1662 76.9085 21.3697C76.2508 22.7184 76.2589 23.5705 76.0564 25.0582C75.8736 26.4014 76.0564 27.174 76.0564 28.5297C76.0564 30.648 76.2727 31.1848 76.2727 33.3031C76.2727 34.6049 76.389 36.1866 75.8401 37.4255C75.3549 38.5205 74.9027 38.954 73.8934 39.5951C72.5602 40.442 70 40.68 70 40.68V48.057L72.3793 55C72.3793 55 75.3777 54.1681 77.1379 53.2642C78.7646 52.429 79.6259 51.8321 81.0313 50.6606C82.6399 49.3198 83.4922 48.4618 84.7084 46.7551C86.2354 44.6124 86.9796 43.284 87.953 40.4632C88.6304 38.4998 88.8786 37.6817 89.4671 35.6897C90.1543 33.3633 90.9812 29.6145 90.9812 29.6145M81.0313 21.3697C80.2711 22.217 80.1337 22.6896 79.7335 23.7565C79.3469 24.7875 79.2155 25.315 78.8683 26.36C78.652 27.0111 78.4568 27.9629 79.0846 28.5297C79.6497 29.0398 80.4376 29.006 81.0313 28.5297C82.1128 27.662 82.1339 27.2436 82.7617 26.36C83.1153 25.8624 83.6269 25.0582 83.6269 25.0582C83.6269 25.0582 83.1943 27.228 83.6269 28.5297C83.8158 29.0981 84.1341 29.4499 84.7084 29.6145C85.5447 29.8542 86.2225 28.9638 86.6552 28.5297C87.0569 28.1266 87.271 27.8879 87.6285 27.4448M81.0313 21.3697C82.4673 20.946 83.2271 20.5005 84.7084 20.2848C86.2131 20.0657 87.1082 19.9997 88.6019 20.2848C89.8355 20.5203 90.3323 20.5356 91.6301 21.3697C92.6359 22.0161 93.3771 22.4161 93.7931 23.5394C94.3354 25.004 93.7292 26.1051 92.9279 27.4448C92.3133 28.4724 90.9812 29.6145 90.9812 29.6145M88.3856 25.9262C88.3856 25.9262 88.0086 27.0212 87.6285 27.4448M87.6285 27.4448C87.74 28.5512 87.9638 29.543 89.0345 29.8317C89.5239 29.9636 90.9812 29.6145 90.9812 29.6145" stroke="#FFAB0B" stroke-width="1.42258"/>
<path d="M28.1415 72.9022C28.1415 71.2045 28.5775 68 28.5775 68L36.4222 71.6234L41 75.673C41 75.673 40.5886 79.4594 40.128 81.8541C39.7731 83.6996 39.4575 84.7106 39.0381 86.5432C38.4291 89.2039 38.1382 90.7067 37.5121 93.3636C37.0995 95.1146 37.0792 96.3476 36.4222 97.8396C36.2066 98.3291 36.0789 98.7756 35.5502 98.9053C34.6813 99.1184 32.893 98.9053 31.1903 98.9053H27.0485H22.2527C21.4013 98.9053 20.436 99.2318 20.0727 98.479C20.0221 98.3741 19.9381 98.2344 20.0727 97.8396C20.3737 96.9567 21.3839 97.1539 22.2527 96.7739C23.335 96.3004 24.0628 96.2931 25.0866 95.7082C25.9246 95.2293 26.4788 94.9846 27.0485 94.2162C28.2476 92.5987 27.7531 91.0918 27.9205 89.1008C28.0901 87.0824 27.9205 85.9037 27.9205 83.9855V79.0833C27.9205 76.7527 28.1415 75.2468 28.1415 72.9022Z" fill="#E93405"/>
<path d="M30.1415 71.9022C30.1415 70.2045 30.5775 67 30.5775 67L38.4222 70.6234L43 74.673C43 74.673 42.5886 78.4594 42.128 80.8541C41.7731 82.6996 41.4575 83.7106 41.0381 85.5432C40.4291 88.2039 40.1382 89.7067 39.5121 92.3636C39.0995 94.1146 39.0792 95.3476 38.4222 96.8396C38.2066 97.3291 38.0789 97.7756 37.5502 97.9053C36.6813 98.1184 34.893 97.9053 33.1903 97.9053H29.0485H24.2527C23.4013 97.9053 22.436 98.2318 22.0727 97.479C22.0221 97.3741 21.9381 97.2344 22.0727 96.8396C22.3737 95.9567 23.3839 96.1539 24.2527 95.7739C25.335 95.3004 26.0628 95.2931 27.0866 94.7082C27.9246 94.2293 28.4788 93.9846 29.0485 93.2162C30.2476 91.5987 29.7531 90.0918 29.9205 88.1008C30.0901 86.0824 29.9205 84.9037 29.9205 82.9855V78.0833C29.9205 75.7527 30.1415 74.2468 30.1415 71.9022Z" stroke="#FFAB0B" stroke-width="1.42258"/>
<path d="M52.4276 81.3273C52.218 79.1416 52 75.9206 52 75.9206L57.5587 74.4067L64.4002 69V74.4067V78.0833V84.1388V89.978V94.3034C64.4002 95.3847 64.8278 95.601 66.1106 96.0335C67.5386 96.515 67.821 96.6824 69.7452 97.3312C70.5607 97.6061 71.028 97.5474 71.6693 98.4125C72.02 98.8855 72.1921 99.4457 71.6693 99.7101C71.2418 99.9264 70.1728 99.9264 69.7452 99.9264H66.1106H61.4071C59.9042 99.9264 57.9863 100.092 57.5587 99.9264C56.607 99.5577 56.1115 99.1705 55.4208 98.4125C53.9516 96.8003 54.0621 93.8709 53.9242 93.0058C53.7862 92.1407 53.069 86.5177 53.069 86.5177C53.069 86.5177 52.6079 83.207 52.4276 81.3273Z" fill="#E93405"/>
<path d="M53.4276 80.3273C53.218 78.1416 53 74.9206 53 74.9206L58.5587 73.4067L65.4002 68V73.4067V77.0833V83.1388V88.978V93.3034C65.4002 94.3847 65.8278 94.601 67.1106 95.0335C68.5386 95.515 68.821 95.6824 70.7452 96.3312C71.5607 96.6061 72.028 96.5474 72.6693 97.4125C73.02 97.8855 73.1921 98.4457 72.6693 98.7101C72.2418 98.9264 71.1728 98.9264 70.7452 98.9264H67.1106H62.4071C60.9042 98.9264 58.9863 99.092 58.5587 98.9264C57.607 98.5577 57.1115 98.1705 56.4208 97.4125C54.9516 95.8003 55.0621 92.8709 54.9242 92.0058C54.7862 91.1407 54.069 85.5177 54.069 85.5177C54.069 85.5177 53.6079 82.207 53.4276 80.3273Z" stroke="#FFAB0B" stroke-width="1.42258"/>
<path d="M25.7305 39.1261C27.1601 36.829 28.3549 35.7866 30.3365 33.9311C32.0154 32.3591 32.9816 31.4644 34.9426 30.2514C36.7929 29.1068 37.9033 28.5144 39.9873 27.8704C42.5423 27.0808 44.1096 27.0429 46.7866 27.0045C49.8038 26.9613 51.5176 27.2251 54.4634 27.8704C57.3721 28.5076 59.0776 28.858 61.7014 30.2514C64.1757 31.5653 65.4954 32.5457 67.4041 34.5805C69.4705 36.7833 70.3329 38.3326 71.5715 41.0742C72.664 43.4923 73.1039 44.9564 73.5455 47.5679C74.1236 50.9864 74.1787 53.0336 73.5455 56.4426C73.0913 58.888 72.6738 60.2679 71.5715 62.5034C70.1772 65.3311 69.0784 66.8542 66.7461 68.997C64.3804 71.1707 62.6764 72.0201 59.7274 73.3262C56.5608 74.7286 54.6179 75.2859 51.1733 75.7072C48.3682 76.0503 46.7273 76.1422 43.9353 75.7072C40.9922 75.2486 39.3646 74.6364 36.6972 73.3262C33.9959 71.9992 32.6175 70.9465 30.3365 68.997C28.3673 67.3139 27.1848 66.368 25.7305 64.235C24.3612 62.2267 23.8291 60.9179 23.0985 58.6071C22.2973 56.0733 21.9727 54.5512 22.0018 51.897C22.0289 49.4231 22.4201 48.0319 23.0875 45.6587L23.0985 45.6198C23.8386 42.9879 24.282 41.4535 25.7305 39.1261Z" fill="white" stroke="#FFAB0B" stroke-width="1.42258"/>
<path d="M24.7305 40.1261C26.1601 37.829 27.3549 36.7866 29.3365 34.9311C31.0154 33.3591 31.9816 32.4644 33.9426 31.2514C35.7929 30.1068 36.9033 29.5144 38.9873 28.8704C41.5423 28.0808 43.1096 28.0429 45.7866 28.0045C48.8038 27.9613 50.5176 28.2251 53.4634 28.8704C56.3721 29.5076 58.0776 29.858 60.7014 31.2514C63.1757 32.5653 64.4954 33.5457 66.4041 35.5805C68.4705 37.7833 69.3329 39.3326 70.5715 42.0742C71.664 44.4923 72.1039 45.9564 72.5455 48.5679C73.1236 51.9864 73.1787 54.0336 72.5455 57.4426C72.0913 59.888 71.6738 61.2679 70.5715 63.5034C69.1772 66.3311 68.0784 67.8542 65.7461 69.997C63.3804 72.1707 61.6764 73.0201 58.7274 74.3262C55.5608 75.7286 53.6179 76.2859 50.1733 76.7072C47.3682 77.0503 45.7273 77.1422 42.9353 76.7072C39.9922 76.2486 38.3646 75.6364 35.6972 74.3262C32.9959 72.9992 31.6175 71.9465 29.3365 69.997C27.3673 68.3139 26.1848 67.368 24.7305 65.235C23.3612 63.2267 22.8291 61.9179 22.0985 59.6071C21.2973 57.0733 20.9727 55.5512 21.0018 52.897C21.0289 50.4231 21.4201 49.0319 22.0875 46.6587L22.0985 46.6198C22.8386 43.9879 23.282 42.4535 24.7305 40.1261Z" fill="#E93405"/>
<path d="M25.7305 39.1261C27.1601 36.829 28.3549 35.7866 30.3365 33.9311C32.0154 32.3591 32.9816 31.4644 34.9426 30.2514C36.7929 29.1068 37.9033 28.5144 39.9873 27.8704C42.5423 27.0808 44.1096 27.0429 46.7866 27.0045C49.8038 26.9613 51.5176 27.2251 54.4634 27.8704C57.3721 28.5076 59.0776 28.858 61.7014 30.2514C64.1757 31.5653 65.4954 32.5457 67.4041 34.5805C69.4705 36.7833 70.3329 38.3326 71.5715 41.0742C72.664 43.4923 73.1039 44.9564 73.5455 47.5679C74.1236 50.9864 74.1787 53.0336 73.5455 56.4426C73.0913 58.888 72.6738 60.2679 71.5715 62.5034C70.1772 65.3311 69.0784 66.8542 66.7461 68.997C64.3804 71.1707 62.6764 72.0201 59.7274 73.3262C56.5608 74.7286 54.6179 75.2859 51.1733 75.7072C48.3682 76.0503 46.7273 76.1422 43.9353 75.7072C40.9922 75.2486 39.3646 74.6364 36.6972 73.3262C33.9959 71.9992 32.6175 70.9465 30.3365 68.997C28.3673 67.3139 27.1848 66.368 25.7305 64.235C24.3612 62.2267 23.8291 60.9179 23.0985 58.6071C22.2973 56.0733 21.9727 54.5512 22.0018 51.897C22.0289 49.4231 22.4201 48.0319 23.0875 45.6587L23.0985 45.6198C23.8386 42.9879 24.282 41.4535 25.7305 39.1261Z" stroke="#FFAB0B" stroke-width="1.42258"/>
<ellipse cx="46" cy="37.5" rx="2" ry="1.5" fill="#2F245E"/>
<circle cx="51.5" cy="37.5" r="1.5" fill="#2F245E"/>
<path d="M50.5771 46.7502C50.7783 46.937 50.7791 47.2567 50.5645 47.428C49.5075 48.2722 48.1994 48.8067 46.8066 48.9567C45.2392 49.1255 43.6563 48.7977 42.3148 48.0263C40.9732 47.2549 39.9517 46.0853 39.4159 44.7071C38.9367 43.4744 38.8712 42.1396 39.2216 40.8774C39.2913 40.6265 39.5589 40.4949 39.8075 40.5723C40.0724 40.6547 40.2126 40.9413 40.144 41.21C39.8747 42.264 39.9403 43.372 40.339 44.3977C40.7997 45.5826 41.678 46.5882 42.8315 47.2515C43.9849 47.9147 45.3458 48.1966 46.6935 48.0514C47.8906 47.9225 49.0149 47.4633 49.9236 46.7379C50.1168 46.5836 50.3959 46.5819 50.5771 46.7502Z" fill="#2F245E"/>
<path d="M27.2363 37.0138C27.2363 37.0138 40.1267 38.5086 51.6612 28.1327C51.8659 28.2277 29.6741 5.16602 29.6741 5.16602L27.2363 37.0101V37.0138Z" fill="#FFAB0B"/>
<path d="M41.1528 23.1704L42.739 24.7091L44.9026 24.2742L43.9304 26.2587L45.0159 28.1848L42.8267 27.8705L41.3319 29.4968L40.9518 27.3186L38.9453 26.4012L40.897 25.3669L41.1528 23.1704Z" fill="#FFFCF5"/>
<path d="M29.2684 11.1485L29.2209 11.101L28.9395 14.7631L29.3598 14.3099L31.5453 14.6206L30.4635 12.6945L31.4357 10.71L29.2684 11.1485Z" fill="#FFFCF5"/>
<path d="M34.9583 14.8511L35.7185 15.593L36.7601 15.381L36.2923 16.3349L36.815 17.2596L35.7624 17.1097L35.0424 17.8918L34.8633 16.8466L33.8984 16.4044L34.8341 15.9073L34.9583 14.8511Z" fill="#FFFCF5"/>
<path d="M30.8333 22.8008L31.5935 23.539L32.6351 23.3307L32.1673 24.281L32.69 25.2056L31.6374 25.0594L30.9174 25.8379L30.7346 24.7926L29.7734 24.3504L30.7091 23.8533L30.8333 22.8008Z" fill="#FFFCF5"/>
<path d="M32.1654 31.7627L32.9256 32.501L33.9672 32.289L33.4994 33.2429L34.022 34.1675L32.9694 34.0177L32.2494 34.7998L32.0667 33.7545L31.1055 33.3123L32.0411 32.8153L32.1654 31.7627Z" fill="#FFFCF5"/>
<g style="mix-blend-mode:multiply">
<path d="M51.6615 28.1364C51.8515 28.2278 32.4958 8.10456 29.9521 5.4585C29.8388 5.47677 29.7365 5.49139 29.6487 5.50601L29.3929 8.83551C29.7547 8.74049 30.1348 8.6345 30.5259 8.51024C32.9563 7.72812 35.8582 13.9705 40.0356 19.5075C43.9207 24.6607 46.6179 30.5997 27.5472 33.0046L27.2402 37.0212C27.2402 37.0212 40.1307 38.516 51.6651 28.1401L51.6615 28.1364Z" fill="#CDD0D1"/>
</g>
<path d="M32.5941 2.43602C33.2739 4.34381 32.2798 6.44165 30.372 7.12144C28.4642 7.80123 26.3664 6.80713 25.6866 4.89934C25.0068 2.99154 26.0009 0.893693 27.9087 0.213904C29.8165 -0.465886 31.9143 0.528221 32.5941 2.43602Z" fill="#7263B1"/>
<g style="mix-blend-mode:multiply">
<path d="M29.8905 0.0825195C29.8905 0.0825195 29.8942 0.0898211 29.8942 0.0971306C30.5739 2.00493 29.5798 4.10277 27.672 4.78256C27.0105 5.01647 26.3271 5.04937 25.6875 4.91414C26.3746 6.81097 28.4651 7.80141 30.3656 7.12162C32.2734 6.44183 33.2675 4.344 32.5877 2.4362C32.1418 1.18992 31.0929 0.338354 29.8868 0.0825195H29.8905Z" fill="#CDD0D1"/>
</g>
<path d="M46 42.5C46 44.4328 47.791 46 50 46C52.209 46 54 44.4328 54 42.5C54 40.5672 52.209 39 50 39C47.791 39 46 40.5672 46 42.5Z" fill="#E93405"/>
<path d="M49.8142 41.0634C49.8142 41.753 50.453 42.312 51.2411 42.312C52.0292 42.312 52.668 41.753 52.668 41.0634C52.668 40.3739 52.0292 39.8149 51.2411 39.8149C50.453 39.8149 49.8142 40.3739 49.8142 41.0634Z" fill="#FFFCF5"/>
<g style="mix-blend-mode:multiply">
<path d="M47.3035 39.9189C47.2737 40.0939 47.2528 40.2716 47.2528 40.4544C47.2528 42.3872 49.0438 43.9544 51.2528 43.9544C52.2916 43.9544 53.2349 43.6044 53.9453 43.035C53.6498 44.7145 51.999 45.9995 49.999 45.9995C47.7901 45.9995 45.999 44.4324 45.999 42.4995C45.999 41.4757 46.5035 40.5589 47.3035 39.9189Z" fill="#CDD0D1"/>
</g>
</svg>
