<svg width="1536" height="492" viewBox="0 0 1536 492" fill="none" xmlns="http://www.w3.org/2000/svg">
<path shape-rendering="geometricPrecision" d="M92.417 64.5C75.1197 69.895 0 96 0 96V492H1536V25.0001C1536 25.0001 1479.58 40.8133 1443.58 51.5C1415.34 59.8841 1399.69 65.2041 1371.43 73.5C1340.26 82.6473 1322.77 87.7235 1291.37 96C1260.61 104.107 1243.54 109.604 1212.29 115.5C1179.21 121.744 1160.39 124.447 1126.8 126.5C1096.16 128.372 1078.82 128.768 1048.22 126.5C1018.65 124.309 998.379 122.944 969.143 117.999C930.728 111.501 915.843 105.646 878.208 95.499C841.409 85.5768 819.313 75.5417 782.826 64.5C750.488 54.714 732.134 49.9363 699.305 42C668.783 34.6216 649.979 28.4055 619.243 21.999C579.947 13.808 537.699 6.59571 519.907 5.00005L519.688 4.98039C486.168 1.97411 464.157 0 430.456 0C399.962 0 378.564 0 362.255 1.5C336.662 3.85393 295.299 9.05378 257.977 16.5C235.243 21.0357 194.718 32 175.444 37.5C156.17 43 109.714 59.1051 92.417 64.5Z" fill="#EDEBF5"/>
</svg>
