<svg width="54" height="54" viewBox="0 0 54 54" fill="none" xmlns="http://www.w3.org/2000/svg">
<path fill-rule="evenodd" clip-rule="evenodd" d="M33.7472 18.8986C33.7478 18.8987 33.7483 18.899 33.7492 18.9L35.1013 20.2521C35.1023 20.253 35.1025 20.2535 35.1027 20.254C35.1029 20.2546 35.1029 20.2551 35.1027 20.2557C35.1025 20.2562 35.1023 20.2566 35.1013 20.2576L28.3583 27.0006L35.1013 33.7437C35.1023 33.7446 35.1025 33.7451 35.1027 33.7456C35.1029 33.7462 35.1029 33.7467 35.1027 33.7473C35.1025 33.7478 35.1023 33.7483 35.1013 33.7492L33.7492 35.1013C33.7483 35.1023 33.7478 35.1025 33.7472 35.1027C33.7467 35.1029 33.7462 35.1029 33.7456 35.1027C33.7451 35.1025 33.7446 35.1023 33.7437 35.1013L27.0006 28.3583L20.2576 35.1013C20.2567 35.1023 20.2562 35.1025 20.2557 35.1027C20.2551 35.1029 20.2546 35.1029 20.254 35.1027C20.2535 35.1025 20.253 35.1023 20.2521 35.1013L18.9 33.7492C18.899 33.7483 18.8987 33.7478 18.8986 33.7472C18.8984 33.7467 18.8984 33.7462 18.8986 33.7456C18.8987 33.7451 18.899 33.7446 18.9 33.7437L25.643 27.0006L18.9 20.2576C18.899 20.2567 18.8987 20.2562 18.8986 20.2557C18.8984 20.2551 18.8984 20.2546 18.8986 20.254C18.8987 20.2535 18.899 20.253 18.9 20.2521L20.2521 18.9C20.253 18.899 20.2535 18.8987 20.254 18.8986C20.2546 18.8984 20.2551 18.8984 20.2557 18.8986C20.2562 18.8987 20.2566 18.899 20.2576 18.9L27.0006 25.643L33.7437 18.9C33.7446 18.899 33.7451 18.8987 33.7456 18.8986C33.7462 18.8984 33.7467 18.8984 33.7473 18.8986H33.7472Z" fill="#2F245E"/>
</svg>
