<svg width="44" height="44" viewBox="0 0 44 44" fill="none" xmlns="http://www.w3.org/2000/svg">
<rect x="1" y="1" width="42" height="42" rx="21" stroke="#FFAB0B" stroke-width="2"/>
<path d="M22.0001 17.8347C19.7064 17.8347 17.8345 19.7066 17.8345 22.0003C17.8345 24.2941 19.7064 26.166 22.0001 26.166C24.2939 26.166 26.1658 24.2941 26.1658 22.0003C26.1658 19.7066 24.2939 17.8347 22.0001 17.8347ZM34.4939 22.0003C34.4939 20.2753 34.5095 18.566 34.4126 16.8441C34.3158 14.8441 33.8595 13.0691 32.397 11.6066C30.9314 10.141 29.1595 9.68784 27.1595 9.59097C25.4345 9.49409 23.7251 9.50972 22.0033 9.50972C20.2783 9.50972 18.5689 9.49409 16.847 9.59097C14.847 9.68784 13.072 10.1441 11.6095 11.6066C10.1439 13.0722 9.69077 14.8441 9.5939 16.8441C9.49702 18.5691 9.51265 20.2785 9.51265 22.0003C9.51265 23.7222 9.49702 25.4347 9.5939 27.1566C9.69077 29.1566 10.147 30.9316 11.6095 32.3941C13.0751 33.8597 14.847 34.3128 16.847 34.4097C18.572 34.5066 20.2814 34.491 22.0033 34.491C23.7283 34.491 25.4376 34.5066 27.1595 34.4097C29.1595 34.3128 30.9345 33.8566 32.397 32.3941C33.8626 30.9285 34.3158 29.1566 34.4126 27.1566C34.5126 25.4347 34.4939 23.7253 34.4939 22.0003ZM22.0001 28.4097C18.4533 28.4097 15.5908 25.5472 15.5908 22.0003C15.5908 18.4535 18.4533 15.591 22.0001 15.591C25.547 15.591 28.4095 18.4535 28.4095 22.0003C28.4095 25.5472 25.547 28.4097 22.0001 28.4097ZM28.672 16.8253C27.8439 16.8253 27.1751 16.1566 27.1751 15.3285C27.1751 14.5003 27.8439 13.8316 28.672 13.8316C29.5001 13.8316 30.1689 14.5003 30.1689 15.3285C30.1691 15.5251 30.1306 15.7199 30.0555 15.9016C29.9803 16.0833 29.8701 16.2484 29.731 16.3875C29.592 16.5265 29.4269 16.6368 29.2451 16.7119C29.0634 16.787 28.8687 16.8256 28.672 16.8253Z" fill="#FFAB0B"/>
</svg>
