<svg width="234" height="174" viewBox="0 0 234 174" fill="none" xmlns="http://www.w3.org/2000/svg">
<path d="M48.5012 59.5C52.9191 58.3768 60.0012 57.5 60.0012 57.5L60.0012 83C60.0012 83 54.6041 83.5855 51.5012 85C48.6919 86.2806 47.4205 86.5823 45.001 88.5C42.0774 90.8172 40.5409 93.2676 38.0012 96C34.9698 99.2614 33.4364 101.272 31.0012 105C29.0407 108.001 28.5045 109.746 27.001 113C25.6015 116.029 25.501 117.5 23.5012 121C22.7446 122.324 21.5198 123.138 20.001 123C18.6262 122.875 18.4379 122.31 18.0014 121.001L18.0012 121C17.6924 120.074 17.5011 118.476 17.5011 117.5C17.5011 115.352 17.7445 115.132 18.0012 113C18.1831 111.489 18.7365 109.653 19.2766 108.121C18.8721 109.103 18.4188 110.152 18.0012 111C17.1132 112.804 17.0011 113 15.5011 115.5C14.5244 117.128 14.0559 118.427 12.5012 119C11.2186 119.473 9.89069 119.538 9.00117 118.5C8.23872 117.61 8.50107 116.672 8.50107 115.5C8.50107 113.743 8.82603 112.749 9.00117 111C9.32017 107.815 11.2403 103.573 12.0933 101.816C11.1979 103.607 9.01895 107.965 7.50117 111C6.50107 113 6.00107 114.5 4.00117 115.5C3.30259 115.849 2.7149 115.817 2.00117 115.5C0.395275 114.786 1.00107 113 1.5013 111C2.2827 107.876 2.54029 106.074 3.50109 103C4.62623 99.4006 5.72878 97.3287 7.50117 94C9.53881 90.1732 11.2363 88.3395 14.0012 85C16.3802 82.1266 17.9168 80.6903 20.5012 78C23.562 74.8137 25.1557 72.886 28.5012 70C31.9906 66.9898 33.8995 65.1007 38.0012 63C41.8483 61.0297 44.3121 60.565 48.5012 59.5Z" fill="#7263B1"/>
<path d="M62.0012 54.5C62.0012 54.5 54.9191 55.3768 50.5012 56.5C46.3121 57.565 43.8483 58.0297 40.0012 60C35.8995 62.1007 33.9906 63.9898 30.5012 67C27.1557 69.886 25.562 71.8137 22.5012 75C19.9168 77.6903 18.3802 79.1266 16.0012 82C13.2363 85.3395 11.5388 87.1732 9.50117 91C7.72878 94.3287 6.62623 96.4006 5.50109 100C4.54029 103.074 4.2827 104.876 3.5013 108C3.00107 110 2.39527 111.786 4.00117 112.5C4.7149 112.817 5.30259 112.849 6.00117 112.5C8.00107 111.5 8.50107 110 9.50117 108C11.454 104.095 14.5012 98 14.5012 98C14.5012 98 11.4135 103.883 11.0012 108C10.826 109.749 10.5011 110.743 10.5011 112.5C10.5011 113.672 10.2387 114.61 11.0012 115.5C11.8907 116.538 13.2186 116.473 14.5012 116C16.0559 115.427 16.5244 114.128 17.5011 112.5C19.0011 110 19.1132 109.804 20.0012 108C21.1223 105.723 22.5012 102 22.5012 102C22.5012 102 20.3923 106.75 20.0012 110C19.7445 112.132 19.5011 112.352 19.5011 114.5C19.5011 115.476 19.6924 117.074 20.0012 118C20.4378 119.31 20.6259 119.875 22.001 120C23.5198 120.138 24.7446 119.324 25.5012 118C27.501 114.5 27.6015 113.029 29.001 110C30.5045 106.746 31.0407 105.001 33.0012 102C35.4364 98.2723 36.9698 96.2614 40.0012 93C42.5409 90.2676 44.0774 87.8172 47.001 85.5C49.4205 83.5823 50.6919 83.2806 53.5012 82C56.6041 80.5855 62.0012 80 62.0012 80L62.0012 54.5Z" stroke="#FFAB0B" stroke-width="2"/>
<path d="M181.5 37C177.571 39.2776 171 42 171 42L178.5 65C178.5 65 187.15 61.9251 192.5 59.5C196.477 57.6975 198.839 56.8799 202.5 54.5C206.336 52.0062 208.336 50.305 211.5 47C214.876 43.4737 216.489 41.186 219 37C221.336 33.1054 222.216 30.6766 224 26.5C225.966 21.8973 227.5 19.5 228.5 14.5C228.96 12.2024 229 10.8431 229 8.49999C229 7.49999 228.707 6.00829 227.5 5.5C225.7 4.74227 225 7 224 9C222.982 11.0367 221.5 14.5 221.5 14.5L219 22C219 22 219.39 19.8624 219.5 18.5C219.745 15.4786 220.5 13.5 221 11C221.5 8.5 222.076 6.85883 221 5C220.447 4.04407 220.083 3.71662 219 3.5C217.619 3.22385 217 4 216 5.5C214.643 7.53571 214.113 8.82124 213 11C211.53 13.8783 209.5 18.5 209.5 18.5C209.5 18.5 210.794 13.0305 211.5 9.5C212 7 212.5 5.5 212 3.5C211.732 2.42841 211.105 2 210 2C208.895 2 208.221 2.66319 207.5 3.5C205.729 5.55508 205.259 7.0972 204 9.5C202.215 12.9069 201.81 15.1062 200 18.5C198.266 21.7508 197.384 23.6911 195 26.5C192.943 28.9235 191.494 30.0288 189 32C186.238 34.1829 184.545 35.2347 181.5 37Z" fill="#7263B1"/>
<path d="M185.5 36C181.571 38.2776 175 41 175 41L182.5 64C182.5 64 191.15 60.9251 196.5 58.5C200.477 56.6975 202.839 55.8799 206.5 53.5C210.336 51.0062 212.336 49.305 215.5 46C218.876 42.4737 220.489 40.186 223 36C225.336 32.1054 226.216 29.6766 228 25.5C229.966 20.8973 231.5 18.5 232.5 13.5C232.96 11.2024 233 9.84314 233 7.49999C233 6.49999 232.707 5.00829 231.5 4.5C229.7 3.74227 229 6 228 8C226.982 10.0367 225.5 13.5 225.5 13.5L223 21C223 21 223.39 18.8624 223.5 17.5C223.745 14.4786 224.5 12.5 225 10C225.5 7.5 226.076 5.85883 225 4C224.447 3.04407 224.083 2.71662 223 2.5C221.619 2.22385 221 3 220 4.5C218.643 6.53571 218.113 7.82124 217 10C215.53 12.8783 213.5 17.5 213.5 17.5C213.5 17.5 214.794 12.0305 215.5 8.5C216 6 216.5 4.5 216 2.5C215.732 1.42841 215.105 0.999996 214 0.999997C212.895 0.999997 212.221 1.66319 211.5 2.5C209.729 4.55508 209.259 6.0972 208 8.5C206.215 11.9069 205.81 14.1062 204 17.5C202.266 20.7508 201.384 22.6911 199 25.5C196.943 27.9235 195.494 29.0288 193 31C190.238 33.1829 188.545 34.2347 185.5 36Z" stroke="#FFAB0B" stroke-width="2"/>
<path d="M99.0008 141.5C100.501 136.5 101.501 130.5 101.501 130.5L115.501 132.5C115.501 132.5 115.492 137.52 115.001 141C114.579 144.002 114.418 146.111 113.501 149C112.491 152.18 112.001 153.5 110.501 157C109.413 159.538 108.07 160.988 105.501 162C103.139 162.93 101.477 162.557 99.0008 162C96.6989 161.482 95.6634 160.443 93.5008 159.5C91.1741 158.485 89.812 155.95 87.5008 157C85.5131 157.903 86.0014 160 85.0008 162C83.6194 164.761 82.7323 166.443 81.0014 169C79.8174 170.749 79.5204 172.382 77.5008 173C76.5672 173.286 75.3632 173.407 75.0008 172.5C74.0014 170 75.0008 168.429 75.0008 165.5L75.0008 157L75.0008 149C75.0008 146.223 75.2916 144.328 77.5008 143.5C78.5978 143.089 80.5008 143.5 80.5008 143.5C80.5008 143.5 83.311 144.017 85.0008 144.5C88.5012 145.5 89.4935 146.204 93.0012 146.5C94.1686 146.598 95.4082 146.923 96.5008 146.5C98.5367 145.712 98.3733 143.591 99.0008 141.5Z" fill="#7263B1"/>
<path d="M102.001 138.5C103.501 133.5 104.501 127.5 104.501 127.5L118.501 129.5C118.501 129.5 118.492 134.52 118.001 138C117.579 141.002 117.418 143.111 116.501 146C115.491 149.18 115.001 150.5 113.501 154C112.413 156.538 111.07 157.988 108.501 159C106.139 159.93 104.477 159.557 102.001 159C99.6989 158.482 98.6634 157.443 96.5008 156.5C94.1741 155.485 92.812 152.95 90.5008 154C88.5131 154.903 89.0014 157 88.0008 159C86.6194 161.761 85.7323 163.443 84.0014 166C82.8174 167.749 82.5204 169.382 80.5008 170C79.5672 170.286 78.3632 170.407 78.0008 169.5C77.0014 167 78.0008 165.429 78.0008 162.5L78.0008 154L78.0008 146C78.0008 143.223 78.2916 141.328 80.5008 140.5C81.5978 140.089 83.5008 140.5 83.5008 140.5C83.5008 140.5 86.311 141.017 88.0008 141.5C91.5012 142.5 92.4935 143.204 96.0012 143.5C97.1686 143.598 98.4082 143.923 99.5008 143.5C101.537 142.712 101.373 140.591 102.001 138.5Z" stroke="#FFAB0B" stroke-width="2"/>
<path d="M142.5 142.5C140.673 138.234 138 131.5 138 131.5L151 124.5C151 124.5 153.06 129.818 154.5 133.5C155.807 136.843 156.865 139.094 158 142.5C159 145.5 159.832 149.471 163 149C165.326 148.654 165.766 147.088 167.5 145.5C170.095 143.122 172.011 141.989 174.5 139.5C176 138 176.5 137 178.5 137C179.476 137 180.121 137.6 180.5 138.5C181.106 139.94 181.217 140 181 142C180.594 145.749 179.534 147.055 178 150.5C176.579 153.691 174.988 155.628 173 158.5C171.034 161.341 170.007 162.623 167.5 165C165.994 166.428 164.451 168.292 162.5 169C160.664 169.666 159.802 170.251 158 169.5C156.216 168.757 155.698 167.517 154.5 166C152.713 163.738 151.888 162.027 150.5 159.5C148.775 156.358 148.114 154.701 146.5 151.5C144.769 148.066 144.014 146.036 142.5 142.5Z" fill="#7263B1"/>
<path d="M145.5 139.5C143.673 135.234 141 128.5 141 128.5L154 121.5C154 121.5 156.06 126.818 157.5 130.5C158.807 133.843 159.865 136.094 161 139.5C162 142.5 162.832 146.471 166 146C168.326 145.654 168.766 144.088 170.5 142.5C173.095 140.122 175.011 138.989 177.5 136.5C179 135 179.5 134 181.5 134C182.476 134 183.121 134.6 183.5 135.5C184.106 136.94 184.217 137 184 139C183.594 142.749 182.534 144.055 181 147.5C179.579 150.691 177.988 152.628 176 155.5C174.034 158.341 173.007 159.623 170.5 162C168.994 163.428 167.451 165.292 165.5 166C163.664 166.666 162.802 167.251 161 166.5C159.216 165.757 158.698 164.517 157.5 163C155.713 160.738 154.888 159.027 153.5 156.5C151.775 153.358 151.114 151.701 149.5 148.5C147.769 145.066 147.014 143.036 145.5 139.5Z" stroke="#FFAB0B" stroke-width="2"/>
<path d="M89.501 13.5007C95.6323 10.1243 99.2875 8.4811 106.001 6.50072C112.283 4.64773 115.953 3.62574 122.501 3.50072C129.819 3.361 133.99 4.40045 141.001 6.50071C147.534 8.45783 151.184 9.93985 157.001 13.5007C162.333 16.7646 165.13 19.031 169.501 23.5007C175.484 29.6197 178.272 33.7976 182.001 41.5007C185.904 49.5643 187.609 54.5866 188.501 63.5007C189.459 73.0704 189.645 76.2536 187.001 85.5007C184.696 93.5649 182.447 101.122 177.001 107.501C172.842 112.372 169.66 115.704 164.501 119.501C158.742 123.739 155.431 124.873 149.001 128.001C142.054 131.379 137.652 132.438 130.001 133.501C122.652 134.522 118.345 134.561 111.001 133.501C103.541 132.424 99.41 131.013 92.501 128.001C85.1953 124.815 81.2507 122.447 75.001 117.501C70.5606 113.987 67.7866 112.113 64.501 107.501C59.8064 100.911 58.097 95.8156 56.001 88.0007C54.0962 80.8989 53.8829 76.8526 54.001 69.5007C54.1099 62.7234 55.4944 58.9751 57.501 52.5007C59.5731 45.8149 60.8011 41.9425 64.501 36.0007C67.8709 30.5889 75.001 23.5007 75.001 23.5007C75.001 23.5007 83.4756 16.8189 89.501 13.5007Z" fill="white" stroke="#FFAB0B" stroke-width="2"/>
<path d="M86.4991 16.5007C92.6304 13.1243 96.2855 11.4811 102.999 9.50072C109.281 7.64773 112.951 6.62574 119.499 6.50072C126.817 6.361 130.988 7.40045 137.999 9.50071C144.532 11.4578 148.182 12.9399 153.999 16.5007C159.331 19.7646 162.128 22.031 166.499 26.5007C172.482 32.6197 175.27 36.7976 178.999 44.5007C182.902 52.5643 184.607 57.5866 185.499 66.5007C186.457 76.0704 186.643 79.2536 183.999 88.5007C181.694 96.5649 179.445 104.122 173.999 110.501C169.84 115.372 166.658 118.704 161.499 122.501C155.74 126.739 152.429 127.873 145.999 131.001C139.052 134.379 134.65 135.438 126.999 136.501C119.65 137.522 115.343 137.561 107.999 136.501C100.539 135.424 96.4081 134.013 89.4991 131.001C82.1934 127.815 78.2488 125.447 71.9991 120.501C67.5587 116.987 64.7847 115.113 61.4991 110.501C56.8044 103.911 55.095 98.8156 52.999 91.0007C51.0943 83.8989 50.8809 79.8526 50.9991 72.5007C51.1079 65.7234 52.4925 61.9751 54.4991 55.5007C56.5712 48.8149 57.7992 44.9425 61.4991 39.0007C64.8689 33.5889 71.999 26.5007 71.999 26.5007C71.999 26.5007 80.4736 19.8189 86.4991 16.5007Z" fill="#7263B1"/>
<path d="M89.4991 13.5007C95.6304 10.1243 99.2855 8.4811 105.999 6.50072C112.281 4.64773 115.951 3.62574 122.499 3.50072C129.817 3.361 133.988 4.40045 140.999 6.50071C147.532 8.45783 151.182 9.93985 156.999 13.5007C162.331 16.7646 165.128 19.031 169.499 23.5007C175.482 29.6197 178.27 33.7976 181.999 41.5007C185.902 49.5643 187.607 54.5866 188.499 63.5007C189.457 73.0704 189.643 76.2536 186.999 85.5007C184.694 93.5649 182.445 101.122 176.999 107.501C172.84 112.372 169.658 115.704 164.499 119.501C158.74 123.739 155.429 124.873 148.999 128.001C142.052 131.379 137.65 132.438 129.999 133.501C122.65 134.522 118.343 134.561 110.999 133.501C103.539 132.424 99.4081 131.013 92.4991 128.001C85.1934 124.815 81.2488 122.447 74.9991 117.501C70.5587 113.987 67.7847 112.113 64.4991 107.501C59.8044 100.911 58.095 95.8156 55.999 88.0007C54.0943 80.8989 53.8809 76.8526 53.9991 69.5007C54.1079 62.7234 55.4925 58.9751 57.4991 52.5007C59.5712 45.8149 60.7992 41.9425 64.4991 36.0007C67.8689 30.5889 74.999 23.5007 74.999 23.5007C74.999 23.5007 83.4736 16.8189 89.4991 13.5007Z" stroke="#FFAB0B" stroke-width="2"/>
<ellipse cx="135.5" cy="41.5" rx="5.5" ry="8" fill="#2F245E"/>
<ellipse cx="152.5" cy="41.5" rx="5.5" ry="8" fill="#2F245E"/>
<path d="M115.018 50.4604C114.066 50.3307 113.177 50.9825 113.092 51.9394C112.652 56.8803 113.802 61.845 116.423 66.2179C119.347 71.0965 123.942 74.9714 129.507 77.2528C135.072 79.5342 141.303 80.0972 147.252 78.8562C152.56 77.7488 157.384 75.2591 161.147 71.709C161.877 71.0196 161.772 69.8519 160.974 69.2425C160.273 68.7075 159.284 68.7999 158.644 69.4072C155.352 72.5348 151.119 74.7276 146.458 75.6999C141.265 76.7833 135.825 76.2918 130.966 74.3001C126.108 72.3084 122.097 68.9255 119.544 64.6665C117.312 60.9418 116.301 56.7254 116.61 52.5163C116.683 51.5203 116.008 50.5952 115.018 50.4604Z" fill="#2F245E"/>
<path d="M128.354 100.982C128.354 100.982 134.924 91.9965 149.772 93.5686C155.701 94.1988 151.937 115.056 149.522 114.803C147.107 114.551 136.73 116.287 128.184 105.408C128.422 103.146 128.356 100.99 128.356 100.99L128.354 100.982Z" fill="#FFAB0B"/>
<path d="M147.091 93.391L152.619 105.796C152.285 108.409 151.723 110.878 151.094 112.57L142.654 93.6202C144.028 93.4415 145.5 93.3528 147.091 93.391Z" fill="#FFF8FC"/>
<path d="M144.515 114.639C143.04 114.503 141.342 114.213 139.522 113.623L132.309 97.4206C133.323 96.7412 134.541 96.0486 135.957 95.4316L144.504 114.634L144.515 114.639Z" fill="#FFF8FC"/>
<mask id="mask0_1113_4424" style="mask-type:luminance" maskUnits="userSpaceOnUse" x="128" y="93" width="25" height="22">
<path d="M128.353 100.981C128.353 100.981 134.923 91.996 149.77 93.5691C155.699 94.1998 151.937 115.057 149.522 114.805C147.107 114.552 136.73 116.288 128.184 105.407C128.422 103.145 128.356 100.989 128.356 100.989L128.353 100.981Z" fill="white"/>
</mask>
<g mask="url(#mask0_1113_4424)">
<g style="mix-blend-mode:multiply">
<path d="M125.661 106.881C125.899 104.619 128.349 100.974 128.349 100.974C128.349 100.974 130.49 98.0441 135.09 95.8291C132.543 102.827 136.656 110.135 152.525 110.54C152.304 112.666 149.931 120.909 149.931 120.909C149.931 120.909 134.198 117.763 125.653 106.883L125.661 106.881Z" fill="#CDD0D1"/>
</g>
</g>
<path d="M125.789 100.718C125.789 100.718 121.238 90.5496 106.39 88.9775C100.461 88.3473 99.806 109.538 102.213 109.792C104.628 110.045 114.409 113.92 125.032 105.072C125.271 102.81 125.789 100.718 125.789 100.718Z" fill="#FFAB0B"/>
<path d="M121.286 107.714C120.008 108.46 118.757 109.051 117.547 109.498L108.549 89.2951C110.443 89.6269 112.159 90.0846 113.694 90.6523L121.286 107.714Z" fill="#FFF8FC"/>
<path d="M102.575 92.7136L110.649 110.844C108.871 110.9 107.292 110.737 105.967 110.527L101.112 99.6245C101.36 97.1516 101.839 94.6659 102.575 92.7136Z" fill="#FFF8FC"/>
<mask id="mask1_1113_4424" style="mask-type:luminance" maskUnits="userSpaceOnUse" x="100" y="88" width="26" height="23">
<path d="M125.788 100.72C125.788 100.72 121.236 90.5503 106.389 88.9772C100.46 88.3465 99.8063 109.538 102.213 109.793C104.628 110.045 114.409 113.921 125.032 105.073C125.27 102.811 125.788 100.72 125.788 100.72Z" fill="white"/>
</mask>
<g mask="url(#mask1_1113_4424)">
<g style="mix-blend-mode:multiply">
<path d="M127.181 107.063C127.419 104.801 125.776 100.728 125.776 100.728C125.776 100.728 124.288 97.4122 120.254 94.2762C121.289 101.649 115.739 107.942 100.134 105.014C99.9133 107.14 100.514 115.702 100.514 115.702C100.514 115.702 116.56 115.921 127.181 107.063Z" fill="#CDD0D1"/>
</g>
</g>
<path d="M120.161 101.417C119.76 105.23 122.53 108.647 126.35 109.058C130.167 109.46 133.585 106.694 133.986 102.88C134.386 99.0664 131.617 95.6495 127.797 95.2392C123.98 94.8368 120.562 97.6026 120.153 101.419L120.161 101.417Z" fill="#FFAB0B"/>
<path opacity="0.5" d="M126.245 99.4127C126.08 101.009 127.231 102.437 128.829 102.603C130.428 102.769 131.856 101.619 132.021 100.022C132.186 98.4254 131.035 96.998 129.437 96.832C127.839 96.666 126.411 97.8161 126.245 99.4127Z" fill="#FFFCF5"/>
<path d="M135.51 57.9687C135.51 64.5956 140.883 69.9687 147.51 69.9687C154.137 69.9687 159.51 64.5956 159.51 57.9687C159.51 51.3419 154.137 45.9688 147.51 45.9688C140.883 45.9688 135.51 51.3419 135.51 57.9687Z" fill="#E93405"/>
<path d="M146.954 53.0433C146.954 55.4075 148.871 57.3239 151.235 57.3239C153.599 57.3239 155.516 55.4075 155.516 53.0433C155.516 50.6791 153.599 48.7627 151.235 48.7627C148.871 48.7627 146.954 50.6791 146.954 53.0433Z" fill="#FFFCF5"/>
<g style="mix-blend-mode:multiply">
<path d="M139.424 49.1211C139.335 49.7211 139.272 50.3301 139.272 50.9569C139.272 57.5838 144.645 62.9569 151.272 62.9569C154.388 62.9569 157.218 61.7569 159.35 59.8047C158.463 65.5629 153.511 69.9688 147.511 69.9688C140.884 69.9688 135.511 64.5957 135.511 57.9688C135.511 54.4584 137.024 51.3151 139.424 49.1211Z" fill="#CDD0D1"/>
</g>
</svg>
