<svg aria-hidden="true" style="position: absolute; width: 0; height: 0; overflow: hidden;" version="1.1" xmlns="http://www.w3.org/2000/svg" xmlns:xlink="http://www.w3.org/1999/xlink">
<defs>

<symbol id="title-line" width="81" height="13" viewBox="0 0 81 13" fill="none" xmlns="http://www.w3.org/2000/svg">
<path d="M0 5.07135C0 5.07135 12.4943 5.07135 20.5 5.07135C26.3579 5.07135 29.6843 4.36973 35.5 5.07135C40.6727 5.69541 43.307 7.64725 48.5 8.07135C51.4192 8.30977 53.0788 8.28338 56 8.07135C61.5768 7.66659 64.4296 5.55574 70 5.07135C73.8906 4.73305 80 5.07135 80 5.07135" stroke="#E93405" stroke-width="2"/>
</symbol>

<symbol id="admin-photo" width="32" height="32" viewBox="0 0 32 32" fill="none" xmlns="http://www.w3.org/2000/svg">
<path d="M26.7062 9.02188L19.9813 2.29375C19.7938 2.10625 19.5375 2 19.2719 2H6C5.44687 2 5 2.44687 5 3V29C5 29.5531 5.44687 30 6 30H26C26.5531 30 27 29.5531 27 29V9.72812C27 9.4625 26.8937 9.20938 26.7062 9.02188ZM12.5 12.5625C13.1906 12.5625 13.75 13.1219 13.75 13.8125C13.75 14.5031 13.1906 15.0625 12.5 15.0625C11.8094 15.0625 11.25 14.5031 11.25 13.8125C11.25 13.1219 11.8094 12.5625 12.5 12.5625ZM21.75 21.75H10.25C10.0406 21.75 9.925 21.5094 10.0531 21.3469L13.1719 17.3719C13.1953 17.342 13.2251 17.3178 13.2593 17.3012C13.2934 17.2846 13.3308 17.276 13.3687 17.276C13.4067 17.276 13.4441 17.2846 13.4782 17.3012C13.5124 17.3178 13.5422 17.342 13.5656 17.3719L14.85 19.0094L17.2812 15.9094C17.3046 15.8795 17.3345 15.8553 17.3686 15.8387C17.4027 15.8221 17.4402 15.8135 17.4781 15.8135C17.5161 15.8135 17.5535 15.8221 17.5876 15.8387C17.6217 15.8553 17.6516 15.8795 17.675 15.9094L21.9406 21.3469C22.075 21.5094 21.9562 21.75 21.75 21.75ZM18.8125 10.1875V4.30625L24.6938 10.1875H18.8125Z" fill="#50439F"/>
</symbol>

</defs>

<symbol id="slider-arrow" width="11" height="16" viewBox="0 0 11 16" fill="none" xmlns="http://www.w3.org/2000/svg">
  <path d="M10.5337 8L2.53366 16L0.666992 14.1333L6.80033 8L0.666992 1.86667L2.53366 -8.15946e-08L10.5337 8Z" fill="#50439F" />
</symbol>

</svg>