<svg aria-hidden="true" style="position: absolute; width: 0; height: 0; overflow: hidden;" version="1.1" xmlns="http://www.w3.org/2000/svg" xmlns:xlink="http://www.w3.org/1999/xlink">
<defs>

<symbol id="title-line" width="81" height="13" viewBox="0 0 81 13" fill="none" xmlns="http://www.w3.org/2000/svg">
<path d="M0 5.07135C0 5.07135 12.4943 5.07135 20.5 5.07135C26.3579 5.07135 29.6843 4.36973 35.5 5.07135C40.6727 5.69541 43.307 7.64725 48.5 8.07135C51.4192 8.30977 53.0788 8.28338 56 8.07135C61.5768 7.66659 64.4296 5.55574 70 5.07135C73.8906 4.73305 80 5.07135 80 5.07135" stroke="#E93405" stroke-width="2"/>
</symbol>

<symbol id="counter-item1-circle" width="180" height="179" viewBox="0 0 180 179" fill="none" xmlns="http://www.w3.org/2000/svg">
  <path d="M0.589584 102.467C1.59334 111.129 2.93922 115.971 6.04232 124.128C8.77703 131.317 10.4546 135.441 14.903 141.728C19.2327 147.848 22.5642 150.747 28.1146 155.578L28.5349 155.943C34.7011 161.312 38.3185 164.335 45.5747 168.128C53.4091 172.223 58.4561 173.433 66.9408 175.468L67.3857 175.574C77.5591 178.014 83.5059 179.247 93.9678 178.959C105.083 178.653 111.494 177.4 121.913 173.543C131.628 169.948 136.86 166.947 145.087 160.682C152.555 154.994 156.481 151.236 162.127 143.759C167.774 136.282 170.371 131.511 173.714 122.774C177.201 113.661 178.139 108.1 179.167 98.405C180.114 89.4663 180.43 84.2897 179.167 75.3896C177.85 66.1126 176.15 60.9495 172.351 52.3743C169.133 45.1113 166.975 41.0817 162.127 34.7743C157.102 28.2365 153.597 25.0221 147.132 19.882C140.502 14.6108 136.408 11.9768 128.729 8.3743C121.118 4.80378 116.592 2.93081 108.281 1.60507C100.134 0.305431 95.3838 -0.363969 87.152 0.203002C78.0265 0.83153 72.778 2.51076 63.9777 4.98968C56.5118 7.09272 52.4215 8.80787 45.5747 12.4358C38.4748 16.1979 34.5083 18.5882 28.5349 23.9435C22.3622 29.4775 19.4711 33.2886 14.903 40.1897C10.7829 46.4141 8.72143 50.1552 6.04232 57.1127C2.35016 66.7012 1.50478 72.6104 0.589584 82.8358C-0.0938709 90.472 -0.29291 94.8505 0.589584 102.467Z" fill="#E93405" />
</symbol>

<symbol id="counter-item1-border" width="182" height="181" viewBox="0 0 182 181" fill="none" xmlns="http://www.w3.org/2000/svg">
  <path d="M1.58958 103.088C2.59334 111.794 3.93922 116.66 7.04232 124.857C9.77703 132.081 11.4546 136.225 15.903 142.544C20.2328 148.694 23.5642 151.608 29.1146 156.462L29.5349 156.83C35.7011 162.224 39.3185 165.263 46.5747 169.074C54.409 173.19 59.456 174.406 67.9406 176.45L68.3857 176.557C78.5591 179.009 84.5059 180.248 94.9678 179.959C106.083 179.651 112.494 178.392 122.913 174.516C132.628 170.903 137.86 167.888 146.087 161.591C153.555 155.876 157.481 152.099 163.127 144.585C168.774 137.071 171.371 132.276 174.714 123.496C178.201 114.338 179.139 108.75 180.167 99.0069C181.114 90.024 181.43 84.8219 180.167 75.8778C178.85 66.5549 177.15 61.3663 173.351 52.7487C170.133 45.4499 167.975 41.4004 163.127 35.0618C158.102 28.4917 154.597 25.2614 148.132 20.0959C141.502 14.7987 137.408 12.1517 129.729 8.53141C122.118 4.94326 117.592 3.06103 109.281 1.72874C101.134 0.422681 96.3836 1.15897 88.1518 1.72874C79.0264 2.36037 73.778 2.63891 64.9777 5.13007C57.5118 7.2435 53.4215 8.96712 46.5747 12.613C39.4748 16.3937 35.5083 18.7958 29.5349 24.1775C23.3622 29.7389 20.4711 33.5688 15.903 40.5039C11.7829 46.7591 9.72143 50.5187 7.04232 57.5106C3.35016 67.1464 2.50478 73.0849 1.58958 83.3607C0.906129 91.0347 0.70709 95.4348 1.58958 103.088Z" stroke="#FFAB0B" stroke-width="2" />
</symbol>

<symbol id="counter-item1-decor" width="44" height="64" viewBox="0 0 44 64" fill="none" xmlns="http://www.w3.org/2000/svg">
  <path d="M56.6915 52.2275C56.6915 52.2275 43.1214 70.1826 16.294 72.213C16.1711 72.5871 13.8451 17.1287 13.8451 17.1287L56.6992 52.232L56.6915 52.2275Z" fill="#50439F" />
  <path d="M30.7071 50.1226C30.1657 48.1021 31.3669 46.0215 33.3874 45.4801C35.4079 44.9387 37.4885 46.1399 38.0299 48.1604C38.5713 50.1809 37.3701 52.2615 35.3496 52.8029C33.3291 53.3443 31.2485 52.1431 30.7071 50.1226Z" fill="#FFFCF5" />
  <path d="M18.2595 48.2201C17.9347 47.0078 18.6502 45.7595 19.8625 45.4347C21.0748 45.1098 22.3247 45.8315 22.6495 47.0438C22.9744 48.2561 22.2527 49.506 21.0404 49.8308C19.8281 50.1556 18.5843 49.4324 18.2595 48.2201Z" fill="#FFFCF5" />
  <path d="M47.9158 52.8802C47.5909 51.6679 48.3064 50.4197 49.5187 50.0948C50.731 49.77 51.9809 50.4916 52.3058 51.7039C52.6306 52.9162 51.909 54.1661 50.6967 54.491C49.4844 54.8158 48.2422 54.0986 47.9158 52.8802Z" fill="#FFFCF5" />
  <path d="M20.2897 28.7786C20.8311 30.7991 19.6298 32.8797 17.6093 33.4211C16.495 33.7196 15.3702 33.4895 14.4867 32.8862C14.3935 30.726 14.3053 28.6824 14.228 26.8263C14.6314 26.4951 15.1084 26.2426 15.6472 26.0983C17.6677 25.5569 19.7483 26.7581 20.2897 28.7786Z" fill="#FFFCF5" />
  <path d="M20.7969 70.6099C20.2555 68.5894 21.4568 66.5088 23.4773 65.9674C25.4978 65.426 27.5783 66.6272 28.1197 68.6477C28.2526 69.1437 28.281 69.6414 28.2199 70.1237C26.0223 70.7388 23.6984 71.2499 21.2494 71.6371C21.055 71.3282 20.9031 70.9817 20.8047 70.6144L20.7969 70.6099Z" fill="#FFFCF5" />
  <path d="M31.4079 34.2397C30.0793 34.5957 28.719 33.8052 28.3647 32.4827C28.0891 31.4541 28.5035 30.4046 29.3255 29.8234L33.0252 32.8548C32.7287 33.5117 32.1626 34.044 31.4095 34.2458L31.4079 34.2397Z" fill="#FFFCF5" />
  <path d="M15.8732 64.4545C16.4872 64.7625 16.9762 65.3139 17.1682 66.0303C17.4586 67.114 16.9772 68.2077 16.0796 68.7763C16.0227 67.5841 15.9536 66.1261 15.8748 64.4606L15.8732 64.4545Z" fill="#FFFCF5" />
  <g style="mix-blend-mode:multiply">
    <path d="M16.2858 72.2091C16.1687 72.5555 14.1308 24.1728 13.8639 17.8132C14.0218 17.6921 14.163 17.5821 14.2829 17.4909L18.7636 21.1596C18.2128 21.504 17.622 21.8461 16.9973 22.1841C13.1073 24.2961 17.452 35.4166 19.3923 47.2864C21.1972 58.3328 25.4145 68.8312 51.2842 47.797L56.6895 52.222C56.6895 52.222 43.1194 70.1771 16.292 72.2075L16.2858 72.2091Z" fill="#CDD0D1" />
  </g>
  <path d="M6.91227 17.5104C8.48885 20.6513 12.3126 21.917 15.4535 20.3404C18.5944 18.7638 19.8601 14.9401 18.2835 11.7992C16.7086 8.66439 12.8832 7.39258 9.74228 8.96916C6.60138 10.5457 5.33568 14.3695 6.91062 17.5043L6.91227 17.5104Z" fill="#FFAB0B" />
  <g style="mix-blend-mode:multiply">
    <path d="M7.20405 11.2966C7.20405 11.2966 7.20897 11.315 7.21061 11.3211C8.7872 14.462 12.611 15.7277 15.7519 14.1511C16.8389 13.6039 17.6954 12.7838 18.2912 11.8235C19.8462 14.9571 18.5833 18.767 15.453 20.3341C12.3121 21.9107 8.49448 20.6434 6.91177 17.5041C5.88241 15.4503 6.0707 13.1162 7.19792 11.2982L7.20405 11.2966Z" fill="#CDD0D1" />
  </g>
</symbol>

</defs>
</svg>