<svg aria-hidden="true" style="position: absolute; width: 0; height: 0; overflow: hidden;" version="1.1" xmlns="http://www.w3.org/2000/svg" xmlns:xlink="http://www.w3.org/1999/xlink">
<defs>

<symbol id="title-line" width="81" height="13" viewBox="0 0 81 13" fill="none" xmlns="http://www.w3.org/2000/svg">
<path d="M0 5.07135C0 5.07135 12.4943 5.07135 20.5 5.07135C26.3579 5.07135 29.6843 4.36973 35.5 5.07135C40.6727 5.69541 43.307 7.64725 48.5 8.07135C51.4192 8.30977 53.0788 8.28338 56 8.07135C61.5768 7.66659 64.4296 5.55574 70 5.07135C73.8906 4.73305 80 5.07135 80 5.07135" stroke="#E93405" stroke-width="2"/>
</symbol>

<symbol id="admin-photo" width="32" height="32" viewBox="0 0 32 32" fill="none" xmlns="http://www.w3.org/2000/svg">
<path d="M26.7062 9.02188L19.9813 2.29375C19.7938 2.10625 19.5375 2 19.2719 2H6C5.44687 2 5 2.44687 5 3V29C5 29.5531 5.44687 30 6 30H26C26.5531 30 27 29.5531 27 29V9.72812C27 9.4625 26.8937 9.20938 26.7062 9.02188ZM12.5 12.5625C13.1906 12.5625 13.75 13.1219 13.75 13.8125C13.75 14.5031 13.1906 15.0625 12.5 15.0625C11.8094 15.0625 11.25 14.5031 11.25 13.8125C11.25 13.1219 11.8094 12.5625 12.5 12.5625ZM21.75 21.75H10.25C10.0406 21.75 9.925 21.5094 10.0531 21.3469L13.1719 17.3719C13.1953 17.342 13.2251 17.3178 13.2593 17.3012C13.2934 17.2846 13.3308 17.276 13.3687 17.276C13.4067 17.276 13.4441 17.2846 13.4782 17.3012C13.5124 17.3178 13.5422 17.342 13.5656 17.3719L14.85 19.0094L17.2812 15.9094C17.3046 15.8795 17.3345 15.8553 17.3686 15.8387C17.4027 15.8221 17.4402 15.8135 17.4781 15.8135C17.5161 15.8135 17.5535 15.8221 17.5876 15.8387C17.6217 15.8553 17.6516 15.8795 17.675 15.9094L21.9406 21.3469C22.075 21.5094 21.9562 21.75 21.75 21.75ZM18.8125 10.1875V4.30625L24.6938 10.1875H18.8125Z" fill="#50439F"/>
</symbol>

</defs>

<symbol id="red-hat" xmlns="http://www.w3.org/2000/svg" width="46" height="64" viewBox="0 0 46 64" fill="none">
  <path d="M42.1445 63.8583C42.1445 63.8583 19.9053 66.4372 0.00538635 48.5361C-0.347717 48.7001 37.9388 8.91284 37.9388 8.91284L42.1445 63.852V63.8583Z" fill="#E93405"/>
  <path d="M18.1339 39.9734L15.3974 42.628L11.6645 41.8776L13.3418 45.3015L11.4691 48.6244L15.246 48.0822L17.8249 50.8881L18.4807 47.13L21.9424 45.5474L18.5753 43.763L18.1339 39.9734Z" fill="#FFFCF5"/>
  <path d="M38.6395 19.2349L38.7215 19.153L39.207 25.471L38.4819 24.6891L34.7113 25.2251L36.5777 21.9021L34.9004 18.4783L38.6395 19.2349Z" fill="#FFFCF5"/>
  <path d="M28.8208 25.6223L27.5093 26.9023L25.7123 26.5366L26.5194 28.1823L25.6177 29.7776L27.4336 29.5191L28.6758 30.8684L28.9848 29.0651L30.6494 28.3021L29.0352 27.4446L28.8208 25.6223Z" fill="#FFFCF5"/>
  <path d="M35.94 39.3364L34.6285 40.6101L32.8314 40.2507L33.6385 41.8901L32.7368 43.4854L34.5528 43.2332L35.795 44.5762L36.1102 42.7729L37.7686 42.0099L36.1544 41.1524L35.94 39.3364Z" fill="#FFFCF5"/>
  <path d="M33.6392 54.7974L32.3277 56.0711L30.5306 55.7053L31.3377 57.3511L30.436 58.9463L32.252 58.6878L33.4942 60.0372L33.8094 58.2338L35.4678 57.4709L33.8536 56.6133L33.6392 54.7974Z" fill="#FFFCF5"/>
  <g style="mix-blend-mode:multiply">
    <path d="M0.00583267 48.5426C-0.322048 48.7003 33.0715 13.9826 37.46 9.41748C37.6555 9.44901 37.8321 9.47423 37.9834 9.49945L38.4248 15.2437C37.8005 15.0797 37.1448 14.8969 36.4701 14.6825C32.277 13.3332 27.2705 24.1028 20.0634 33.6555C13.3607 42.5462 8.70732 52.7925 41.609 56.9415L42.1387 63.8711C42.1387 63.8711 19.8994 66.45 -0.000473022 48.5489L0.00583267 48.5426Z" fill="#CDD0D1"/>
  </g>
  <path d="M32.9012 4.20275C31.7284 7.49418 33.4435 11.1135 36.7349 12.2863C40.0263 13.4591 43.6457 11.744 44.8185 8.45259C45.9913 5.16116 44.2762 1.54185 40.9848 0.369038C37.6933 -0.803771 34.074 0.911315 32.9012 4.20275Z" fill="#50439F"/>
  <g style="mix-blend-mode:multiply">
    <path d="M37.5671 0.14209C37.5671 0.14209 37.5608 0.154687 37.5608 0.167298C36.388 3.45873 38.1031 7.07805 41.3945 8.25085C42.5358 8.6544 43.7149 8.71116 44.8184 8.47786C43.6329 11.7504 40.0262 13.4591 36.7474 12.2863C33.456 11.1135 31.7409 7.49421 32.9137 4.20278C33.683 2.05263 35.4926 0.583469 37.5734 0.14209H37.5671Z" fill="#CDD0D1"/>
  </g>
</symbol>

<symbol id="red-cap" xmlns="http://www.w3.org/2000/svg" width="73" height="48" viewBox="0 0 73 48" fill="none">
  <g clip-path="url(#clip0_1164_659)">
    <path d="M15.1949 29.5996C15.1949 29.5996 1.96176 36.0865 0.777308 38.0174C-0.407145 39.9483 -0.623147 41.7728 8.20921 43.7049C17.0404 45.6359 30.9346 49.0697 39.7669 47.6756C48.5981 46.2803 60.2302 38.6618 61.3078 37.4818C62.3855 36.3017 15.1961 29.5996 15.1961 29.5996H15.1949Z" fill="#50439F"/>
    <path d="M14.9945 30.829C14.8865 30.5074 15.1025 12.5875 18.6558 7.7584C21.9244 3.31833 32.334 0.676762 42.2428 1.10599C42.2428 1.10599 56.6378 1.86157 63.4609 6.57832C68.7387 10.2262 72.2921 19.2399 72.1853 22.1381C72.0773 25.035 70.2199 32.2148 69.6003 33.8348C69.1695 34.9616 66.4766 36.1417 64.9694 36.7317C63.1927 37.427 59.4767 37.9662 59.4767 37.9662C59.4767 37.9662 38.1601 38.6556 26.1957 35.5517C15.8561 32.8687 14.9945 30.8302 14.9945 30.8302V30.829Z" fill="#E93405"/>
    <path d="M61.3068 37.4826L60.4451 37.375C60.4451 37.375 50.9671 44.0274 42.8896 46.1735C34.8121 48.3197 26.6265 46.4952 12.9484 43.8134C0.791694 41.4296 0.204215 39.6382 0.224391 39.2693C-0.0711287 40.7509 1.30322 42.1958 8.20936 43.7058C17.0405 45.6367 30.9347 49.0705 39.7671 47.6764C48.5982 46.2811 60.2303 38.6627 61.308 37.4826H61.3068Z" fill="#FFAB0B"/>
    <path d="M65.8399 8.6801C65.8874 9.82943 65.8209 10.9977 65.218 11.9566C64.3243 13.3791 62.4646 13.929 60.7852 13.7989C59.107 13.67 59.1426 12.9925 57.544 12.4663C57.1511 12.3374 56.6633 12.2357 56.3678 12.5242C56.1364 12.7512 56.1352 13.1166 56.1495 13.4394C56.4557 20.7244 56.2444 29.5939 54.2387 36.6247C54.1188 37.0469 54.0191 37.6061 53.8672 38.0969C58.2822 38.1406 59.4761 37.9632 59.4761 37.9632C59.4761 37.9632 63.1921 37.4241 64.9688 36.7288C66.476 36.1387 69.1689 34.9587 69.5998 33.8318C70.2193 32.2119 72.0767 25.0333 72.1847 22.1351C72.2749 19.6981 69.7754 12.9369 65.8387 8.67773L65.8399 8.6801Z" fill="#BA2A04"/>
    <path d="M42.2425 1.10591C33.8006 0.740537 24.9956 2.60406 20.5533 5.90898C20.3859 6.2046 20.2542 6.51558 20.1854 6.84784C19.9076 8.18045 20.6921 9.53198 21.7187 10.4295C23.6521 12.1215 26.3272 12.6252 28.8622 13.0663C34.4783 14.0418 40.4908 14.9724 45.6902 12.6453C47.62 11.781 49.4098 10.4768 51.5057 10.1894C54.7505 9.74482 58.0487 11.8425 61.2139 10.9994C61.8714 10.8244 62.504 10.5181 62.9894 10.044C63.8226 9.23164 64.0813 8.14971 64.0232 6.99447C63.838 6.85021 63.6517 6.7095 63.4618 6.57943C56.6363 1.86149 42.2425 1.10591 42.2425 1.10591Z" fill="#ED5D37"/>
    <path d="M26.2766 35.5542L26.1152 35.5435C26.1283 35.3402 27.4362 15.1937 29.7861 10.6165C32.1111 6.08775 38.3206 2.68114 42.9824 1.77539L43.0133 1.93384C38.3894 2.83249 32.2321 6.20718 29.9297 10.691C27.5952 15.2375 26.2897 35.352 26.2766 35.5542Z" fill="#BA2A04"/>
    <path d="M27.2473 35.7698L27.0859 35.7591C27.0859 35.7591 27.1014 35.5274 27.1298 35.1088L27.2913 35.1194C27.2616 35.538 27.2473 35.7686 27.2473 35.7686V35.7698ZM27.3364 34.4738L27.1749 34.462C27.1892 34.2657 27.2046 34.0505 27.2224 33.8164L27.3838 33.8282C27.366 34.0612 27.3506 34.2775 27.3364 34.4727V34.4738ZM27.4337 33.1862L27.2723 33.1743C27.2877 32.9698 27.3055 32.7546 27.3233 32.5299L27.4847 32.5429C27.4669 32.7664 27.4503 32.9816 27.4337 33.1862ZM27.5369 31.8985L27.3755 31.8855C27.3921 31.6774 27.4111 31.4622 27.4289 31.2422L27.5903 31.2552C27.5713 31.4752 27.5535 31.6904 27.5369 31.8985ZM27.6461 30.6132L27.4847 30.599L27.5417 29.9557L27.7031 29.9699L27.6461 30.612V30.6132ZM27.7601 29.329L27.5986 29.3148C27.6176 29.1032 27.6378 28.8892 27.658 28.6728L27.8194 28.6882C27.7992 28.9045 27.779 29.1186 27.7601 29.3302V29.329ZM27.8811 28.0449L27.7197 28.0295C27.7399 27.8179 27.7612 27.6039 27.7826 27.3875L27.944 27.4028C27.9226 27.6192 27.9013 27.8332 27.8811 28.0449ZM28.0081 26.762L27.8467 26.7454C27.8681 26.5326 27.8906 26.3185 27.9132 26.1033L28.0734 26.1199C28.0508 26.3351 28.0283 26.5491 28.0069 26.7608L28.0081 26.762ZM28.1434 25.479L27.9832 25.4613C28.0057 25.2484 28.0295 25.0344 28.0532 24.8204L28.2134 24.8381C28.1897 25.0521 28.1659 25.2662 28.1434 25.479ZM28.2846 24.1984L28.1244 24.1807C28.1481 23.9678 28.1731 23.755 28.198 23.541L28.3582 23.5599C28.3333 23.7727 28.3084 23.9868 28.2846 24.1996V24.1984ZM28.4354 22.9178L28.2751 22.8989C28.3012 22.6849 28.3274 22.4709 28.3547 22.2569L28.5149 22.277C28.4888 22.491 28.4615 22.705 28.4354 22.919V22.9178ZM28.5956 21.6373L28.4354 21.6172C28.4627 21.4031 28.4911 21.1903 28.5196 20.9775L28.6798 20.9987C28.6514 21.2116 28.6229 21.4244 28.5956 21.6373ZM28.7665 20.3602L28.6063 20.3378C28.6359 20.1237 28.6656 19.9109 28.6965 19.6992L28.8567 19.7217C28.8258 19.9334 28.7962 20.1462 28.7665 20.3602ZM28.9504 19.0844L28.7902 19.0607C28.8223 18.8467 28.8555 18.6339 28.8875 18.4222L29.0478 18.447C29.0145 18.6575 28.9825 18.8703 28.9504 19.0844ZM29.1498 17.8109L28.9908 17.7849C29.0264 17.5708 29.0608 17.358 29.0976 17.1487L29.2566 17.1759C29.221 17.3852 29.1854 17.5969 29.1498 17.8109ZM29.3682 16.5409L29.2092 16.5126C29.2483 16.2974 29.2875 16.0857 29.3279 15.8776L29.4869 15.9083C29.4465 16.1164 29.4074 16.3269 29.3694 16.5421L29.3682 16.5409ZM29.6103 15.2757L29.4525 15.2438C29.4964 15.0286 29.5415 14.8181 29.5854 14.6112L29.7432 14.6455C29.6981 14.8512 29.6542 15.0617 29.6103 15.2757ZM29.8857 14.0176L29.729 13.981C29.78 13.7646 29.8311 13.5553 29.8845 13.3531L30.0411 13.3933C29.9889 13.5943 29.9379 13.8036 29.8868 14.0176H29.8857ZM30.2097 12.7725L30.0542 12.7276C30.1171 12.5076 30.1812 12.2995 30.2441 12.108L30.3972 12.1576C30.3343 12.348 30.2714 12.5549 30.2085 12.7713L30.2097 12.7725ZM30.6132 11.5546L30.4625 11.4966C30.5491 11.2743 30.6369 11.0733 30.7236 10.8995L30.8684 10.9705C30.7841 11.1407 30.6975 11.337 30.6132 11.5546ZM31.1734 10.4088L31.0333 10.3272C31.1401 10.1439 31.2564 9.95947 31.3787 9.77738L31.5128 9.86724C31.3929 10.047 31.2778 10.2291 31.1722 10.4088H31.1734ZM31.8843 9.34579L31.7549 9.24883C31.8831 9.07856 32.0184 8.9071 32.1572 8.74038L32.2819 8.84325C32.1442 9.00879 32.0101 9.17788 31.8843 9.34579ZM32.7032 8.35963L32.5833 8.25085C32.7257 8.09476 32.8765 7.93632 33.0307 7.78142L33.1459 7.89493C32.9928 8.04865 32.8444 8.20473 32.7032 8.35963ZM33.6075 7.44915L33.4972 7.33091C33.6526 7.18665 33.8152 7.04121 33.9802 6.89813L34.0858 7.01993C33.9221 7.16064 33.7618 7.30489 33.6075 7.44797V7.44915ZM34.5784 6.60962L34.4775 6.48428C34.6425 6.35066 34.8145 6.21705 34.9878 6.08698L35.0851 6.21587C34.9131 6.34593 34.7422 6.47837 34.5784 6.60962ZM35.605 5.83748L35.5112 5.70623C35.6857 5.58326 35.8661 5.46029 36.0465 5.34086L36.1355 5.47448C35.9563 5.59272 35.7771 5.71569 35.605 5.83748ZM36.6779 5.12684L36.5924 4.98967C36.7728 4.87734 36.9603 4.76501 37.1479 4.65504L37.2297 4.79339C37.0422 4.90217 36.8571 5.01451 36.6779 5.12566V5.12684ZM37.7911 4.4765L37.7128 4.33578C37.9003 4.23291 38.0938 4.13004 38.2848 4.0319L38.3596 4.17497C38.1685 4.27312 37.9774 4.37481 37.7911 4.47768V4.4765ZM38.9364 3.88764L38.8664 3.7422C39.061 3.64879 39.258 3.55656 39.4539 3.46787L39.5203 3.6145C39.3257 3.702 39.1299 3.79304 38.9364 3.88646V3.88764ZM40.1102 3.35909L40.0473 3.2101C40.2478 3.12615 40.4508 3.04456 40.649 2.9677L40.7071 3.11787C40.5101 3.19473 40.3084 3.27514 40.1102 3.35909ZM41.3124 2.89439L41.2578 2.74304C41.462 2.67091 41.6685 2.60114 41.8726 2.53493L41.9225 2.68865C41.7195 2.75368 41.5142 2.82344 41.3124 2.89557V2.89439ZM42.5372 2.49945L42.4921 2.34455C42.7034 2.28425 42.9146 2.22749 43.1188 2.17665L43.1579 2.33273C42.955 2.38358 42.7461 2.43915 42.536 2.49945H42.5372ZM43.787 2.18966L43.7537 2.03239C43.8202 2.0182 43.8867 2.00519 43.9531 1.99219L43.984 2.15063C43.9187 2.16364 43.8534 2.17665 43.787 2.19084V2.18966Z" fill="#BA2A04"/>
    <path d="M25.1458 35.233L24.9844 35.2235C24.9844 35.2235 24.9986 34.9917 25.0271 34.5732L25.1885 34.5838C25.16 35.0024 25.1458 35.233 25.1458 35.233ZM25.2348 33.9382L25.0734 33.9264C25.0876 33.7301 25.1031 33.5149 25.1209 33.2819L25.2823 33.2938C25.2645 33.5267 25.249 33.7431 25.2348 33.9382ZM25.3297 32.6493L25.1683 32.6375C25.1838 32.4329 25.2004 32.2177 25.2182 31.9931L25.3796 32.0061C25.3618 32.2296 25.3452 32.4448 25.3297 32.6493ZM25.4318 31.3628L25.2704 31.3498C25.287 31.1417 25.3048 30.9265 25.3238 30.7066L25.4852 30.7196C25.4662 30.9395 25.4484 31.1547 25.4318 31.3628ZM25.541 30.0763L25.3796 30.0622C25.3974 29.8517 25.4164 29.6377 25.4366 29.4189L25.598 29.4331C25.579 29.6518 25.56 29.8659 25.541 30.0752V30.0763ZM25.6549 28.7922L25.4935 28.778C25.5125 28.5664 25.5327 28.3523 25.5529 28.136L25.7143 28.1513C25.6941 28.3677 25.6739 28.5817 25.6549 28.7934V28.7922ZM25.776 27.5081L25.6146 27.4927C25.6348 27.281 25.6561 27.067 25.6775 26.8506L25.8389 26.866C25.8175 27.0824 25.7962 27.2964 25.776 27.5081ZM25.903 26.2251L25.7428 26.2086C25.7641 25.9957 25.7867 25.7817 25.8092 25.5665L25.9694 25.5831C25.9469 25.7983 25.9243 26.0123 25.903 26.2239V26.2251ZM26.0383 24.9434L25.8781 24.9256C25.9006 24.7128 25.9243 24.4988 25.9481 24.2847L26.1083 24.3025C26.0846 24.5165 26.0608 24.7305 26.0383 24.9434ZM26.1807 23.664L26.0205 23.645C26.0454 23.4322 26.0703 23.2182 26.0952 23.0053L26.2555 23.0243C26.2305 23.2383 26.2056 23.4511 26.1807 23.664ZM26.3326 22.3834L26.1724 22.3633C26.1985 22.1493 26.2246 21.9364 26.2519 21.7236L26.4121 21.7437C26.3848 21.9565 26.3587 22.1694 26.3326 22.3834ZM26.4952 21.1052L26.335 21.0839C26.3635 20.8699 26.392 20.657 26.4204 20.4442L26.5807 20.4655C26.5522 20.6771 26.5237 20.8911 26.4952 21.104V21.1052ZM26.6697 19.8281L26.5094 19.8057C26.5391 19.5916 26.57 19.3788 26.602 19.1671L26.7622 19.1908C26.7314 19.4024 26.7005 19.6153 26.6697 19.8281ZM26.8572 18.5535L26.697 18.5286C26.7302 18.3146 26.7634 18.1018 26.7967 17.8913L26.9569 17.9173C26.9225 18.1278 26.8892 18.3394 26.8572 18.5535ZM27.0613 17.2811L26.9023 17.254C26.9391 17.0399 26.9747 16.8271 27.0127 16.6178L27.1717 16.6462C27.1349 16.8555 27.0981 17.0671 27.0613 17.2811ZM27.2868 16.0124L27.1278 15.9828C27.1681 15.7676 27.2085 15.556 27.25 15.349L27.4079 15.3798C27.3663 15.5867 27.326 15.7984 27.2856 16.0124H27.2868ZM27.5396 14.7484L27.3818 14.7153C27.4281 14.5 27.4743 14.2896 27.5218 14.0838L27.6797 14.1193C27.6322 14.3239 27.5859 14.5332 27.5408 14.7484H27.5396ZM27.8292 13.495L27.6725 13.456C27.7271 13.2396 27.7817 13.0315 27.8375 12.8304L27.993 12.873C27.9372 13.0728 27.8826 13.2798 27.8292 13.495ZM28.1758 12.2558L28.0215 12.2073C28.0903 11.9897 28.1603 11.7828 28.2292 11.5924L28.3811 11.648C28.3122 11.836 28.2434 12.0406 28.1758 12.2558ZM28.622 11.0556L28.4748 10.9894C28.5164 10.8972 28.5591 10.8085 28.6018 10.7257C28.6564 10.6205 28.7122 10.5152 28.7715 10.41L28.9128 10.488C28.8558 10.5909 28.8 10.695 28.7466 10.799C28.7051 10.8794 28.6635 10.9657 28.6232 11.0556H28.622ZM29.2403 9.94056L29.1038 9.85424C29.219 9.67451 29.3424 9.49478 29.4694 9.31859L29.5999 9.41319C29.4741 9.58701 29.3531 9.76437 29.2391 9.94174L29.2403 9.94056ZM29.9904 8.90238L29.8646 8.80187C29.9975 8.63633 30.1388 8.4696 30.2836 8.30643L30.4046 8.41285C30.261 8.57484 30.1221 8.7392 29.9904 8.90238ZM30.8402 7.94223L30.7239 7.83109C30.871 7.67855 31.0253 7.52483 31.1844 7.37466L31.2959 7.49054C31.1393 7.63953 30.9862 7.79206 30.8402 7.94342V7.94223ZM31.7683 7.0554L31.6615 6.93479C31.8205 6.79408 31.9866 6.65219 32.154 6.51385L32.2572 6.638C32.0911 6.77517 31.9261 6.91588 31.7683 7.0554ZM32.7593 6.23834L32.6608 6.11063C32.8293 5.98175 33.0038 5.85168 33.1806 5.72398L33.2755 5.85404C33.0999 5.98057 32.9266 6.10945 32.7605 6.23715L32.7593 6.23834ZM33.8025 5.48749L33.7123 5.35387C33.8891 5.23444 34.0719 5.11502 34.2547 4.99914L34.3413 5.13512C34.1597 5.251 33.9781 5.36924 33.8025 5.48749ZM34.8896 4.79694L34.8066 4.6586C34.9917 4.54863 35.1804 4.43866 35.3691 4.33343L35.4486 4.47414C35.2611 4.57937 35.0736 4.68698 34.8908 4.79694H34.8896ZM36.0135 4.1667L35.9376 4.02481C36.1275 3.92548 36.3209 3.82616 36.5156 3.73038L36.588 3.87464C36.3957 3.96923 36.2023 4.06856 36.0147 4.1667H36.0135ZM37.1683 3.59795L37.1007 3.45132C37.2977 3.36028 37.4971 3.27159 37.6929 3.18764L37.757 3.33545C37.5624 3.4194 37.3642 3.5069 37.1683 3.59676V3.59795ZM38.3516 3.0895L38.2923 2.94051C38.494 2.8601 38.6982 2.78206 38.8987 2.70875L38.9545 2.8601C38.7551 2.93342 38.5534 3.01027 38.3528 3.0895H38.3516ZM39.561 2.64726L39.5099 2.49473C39.7165 2.42615 39.9241 2.35993 40.1283 2.29963L40.1746 2.45334C39.9716 2.51365 39.7651 2.57868 39.561 2.64726ZM40.7953 2.27953L40.7537 2.12344C40.9662 2.06787 41.1786 2.01584 41.3851 1.96973L41.4207 2.12699C41.2166 2.17192 41.0065 2.22395 40.7953 2.27834V2.27953Z" fill="#BA2A04"/>
    <path d="M51.8787 37.5899L51.7184 37.5686C51.7422 37.3888 51.7707 37.1748 51.8027 36.9289L51.9629 36.949C51.9309 37.1949 51.9024 37.4101 51.8787 37.5887V37.5899ZM52.0448 36.3093L51.8846 36.2892C51.9095 36.0893 51.9356 35.8753 51.9629 35.6495L52.1231 35.6684C52.0958 35.8942 52.0697 36.1083 52.0448 36.3093ZM52.2003 35.0275L52.0401 35.0086C52.0638 34.8028 52.0887 34.5888 52.1136 34.3677L52.2739 34.3854C52.2489 34.6066 52.224 34.8206 52.1991 35.0263L52.2003 35.0275ZM52.3475 33.7469L52.1872 33.7292C52.211 33.5211 52.2335 33.307 52.2573 33.0883L52.4175 33.106C52.3937 33.3248 52.37 33.5388 52.3475 33.7469ZM52.4851 32.464L52.3249 32.4474C52.3475 32.2369 52.3688 32.0241 52.3914 31.8065L52.5528 31.8231C52.5302 32.0407 52.5089 32.2547 52.4863 32.464H52.4851ZM52.6157 31.181L52.4543 31.1657C52.4744 30.9552 52.4958 30.7412 52.516 30.5248L52.6774 30.5401C52.6572 30.7565 52.6359 30.9705 52.6157 31.1822V31.181ZM52.7379 29.8981L52.5765 29.8839C52.5955 29.6722 52.6157 29.4582 52.6347 29.2418L52.7961 29.256C52.7771 29.4724 52.7581 29.6864 52.7379 29.8981ZM52.8519 28.6128L52.6904 28.5998C52.7082 28.3869 52.726 28.1729 52.7439 27.9577L52.9053 27.9707C52.8875 28.1859 52.8697 28.4011 52.8519 28.6128ZM52.9563 27.3274L52.7949 27.3156C52.8115 27.1028 52.8269 26.8888 52.8435 26.6736L53.005 26.6854C52.9895 26.9006 52.9729 27.1146 52.9563 27.3286V27.3274ZM53.0501 26.0421L52.8886 26.0315C52.9029 25.8175 52.9183 25.6034 52.9314 25.3894L53.0928 25.4001C53.0785 25.6153 53.0643 25.8293 53.0501 26.0433V26.0421ZM53.1343 24.7533L52.9729 24.7438C52.986 24.5298 52.9978 24.3146 53.0097 24.0994L53.1711 24.1077C53.1592 24.3229 53.1474 24.5381 53.1343 24.7521V24.7533ZM53.2043 23.4644L53.0429 23.4561C53.0536 23.2421 53.0643 23.0269 53.0738 22.8141L53.2352 22.8212C53.2257 23.0352 53.215 23.2504 53.2043 23.4644ZM53.2613 22.1791L53.0999 22.1732C53.1082 21.958 53.1153 21.744 53.1224 21.5299L53.2839 21.5347C53.2767 21.7487 53.2696 21.9639 53.2613 22.1791ZM53.3028 20.8891L53.1414 20.8855C53.1474 20.6703 53.1521 20.4551 53.1557 20.2423L53.3171 20.2446C53.3135 20.4586 53.3088 20.6739 53.3028 20.8891ZM53.3266 19.6002H53.1652C53.1675 19.3826 53.1687 19.1674 53.1687 18.9546H53.3301C53.3301 19.1686 53.329 19.3838 53.3266 19.6002ZM53.1664 18.3113C53.164 18.0949 53.1616 17.8809 53.1569 17.6681L53.3183 17.6645C53.323 17.8774 53.3254 18.0926 53.3278 18.309H53.1664V18.3113ZM53.1403 17.026C53.1331 16.8085 53.1248 16.5944 53.1153 16.384L53.2767 16.3769C53.2862 16.5885 53.2945 16.8037 53.3028 17.0213L53.1414 17.0272L53.1403 17.026ZM53.0797 15.7419C53.0655 15.5243 53.0501 15.3103 53.0334 15.101L53.1948 15.088C53.2126 15.2985 53.2269 15.5125 53.2411 15.7312L53.0797 15.7419ZM52.9729 14.4613C52.9492 14.2414 52.9242 14.0274 52.897 13.824L53.0572 13.8027C53.0845 14.0073 53.1106 14.2236 53.1331 14.4448L52.9729 14.4613ZM52.802 13.1902C52.7652 12.9714 52.7249 12.7598 52.6821 12.5611L52.84 12.5268C52.8839 12.7278 52.9242 12.9419 52.961 13.163L52.802 13.189V13.1902ZM52.529 11.9415L52.5053 11.8588C52.4531 11.6814 52.3973 11.504 52.3391 11.3302L52.4922 11.2794C52.5504 11.4555 52.6074 11.6353 52.6596 11.8138L52.6845 11.8978L52.529 11.9415ZM52.1243 10.7272C52.0484 10.5285 51.9677 10.3287 51.8834 10.1336L52.0318 10.0697C52.1172 10.2672 52.1991 10.4682 52.2751 10.6692L52.1243 10.726V10.7272ZM51.6176 9.55063C51.5262 9.35908 51.4277 9.16634 51.328 8.97833L51.4704 8.90265C51.5713 9.09303 51.6698 9.28695 51.7635 9.47968L51.6176 9.54945V9.55063ZM51.0158 8.41903C50.909 8.23576 50.7963 8.05248 50.6811 7.87275L50.8176 7.78643C50.9339 7.96853 51.0479 8.15417 51.1559 8.33863L51.0158 8.42022V8.41903ZM50.3239 7.33828C50.2029 7.16447 50.0759 6.98946 49.9465 6.81919L50.0759 6.72223C50.2064 6.89487 50.3346 7.07105 50.4568 7.24605L50.3239 7.33828ZM49.5501 6.31429C49.4148 6.14875 49.2759 5.98439 49.1359 5.82358L49.257 5.71716C49.3982 5.87797 49.5394 6.04469 49.6759 6.21142L49.5501 6.31311V6.31429ZM48.7039 5.34942C48.5603 5.19688 48.4096 5.04198 48.2553 4.88945L48.3692 4.77475C48.5247 4.92847 48.6766 5.08455 48.8214 5.23827L48.7039 5.34824V5.34942ZM47.79 4.44485C47.6346 4.30059 47.4732 4.15634 47.3106 4.01681L47.4162 3.89502C47.58 4.03691 47.7426 4.18235 47.8992 4.32661L47.7889 4.44485H47.79ZM46.8168 3.60414C46.6507 3.47052 46.4798 3.3369 46.3089 3.2092L46.4062 3.08031C46.5783 3.21038 46.7504 3.344 46.9177 3.4788L46.8157 3.60414H46.8168ZM45.7891 2.83082C45.611 2.70548 45.4306 2.58487 45.255 2.47136L45.3428 2.33656C45.5196 2.45126 45.7012 2.57305 45.8816 2.69957L45.7891 2.83082ZM44.709 2.132C44.3601 1.92507 44.1489 1.8222 44.1465 1.82102L44.2177 1.67676C44.226 1.68149 44.4349 1.78318 44.7909 1.99365L44.709 2.132Z" fill="#BA2A04"/>
    <path d="M42.674 11.3804C42.0355 11.3804 41.5156 10.8625 41.5156 10.2263C41.5156 9.59017 42.0355 9.07227 42.674 9.07227C43.3125 9.07227 43.8323 9.59017 43.8323 10.2263C43.8323 10.8625 43.3125 11.3804 42.674 11.3804ZM42.674 9.87751C42.4805 9.87751 42.3239 10.0336 42.3239 10.2263C42.3239 10.4191 42.4805 10.5751 42.674 10.5751C42.8674 10.5751 43.0241 10.4191 43.0241 10.2263C43.0241 10.0336 42.8674 9.87751 42.674 9.87751Z" fill="#BA2A04"/>
    <path d="M60.3306 10.8844C60.1395 10.8844 59.9413 10.8099 59.7609 10.6657C59.5532 10.499 59.3775 10.2483 59.2683 9.95858C59.158 9.66889 59.1224 9.36618 59.1675 9.10368C59.2244 8.77496 59.406 8.53019 59.6659 8.43205C59.9259 8.33391 60.2249 8.39658 60.486 8.60587C60.6937 8.7726 60.8694 9.02327 60.9786 9.31297C61.0889 9.60267 61.1245 9.90537 61.0794 10.1679C61.0225 10.4966 60.8409 10.7414 60.581 10.8395C60.5003 10.8702 60.416 10.8844 60.3306 10.8844ZM59.9342 9.14152C59.8986 9.20892 59.8665 9.42057 59.9698 9.69372C60.073 9.96686 60.238 10.1052 60.3092 10.1312C60.3448 10.065 60.3768 9.85216 60.2736 9.57902C60.1703 9.30588 60.0054 9.16753 59.9342 9.14152Z" fill="#BA2A04"/>
    <path d="M23.6647 8.46631C23.578 8.46631 23.4902 8.4533 23.4036 8.42611C22.8707 8.25702 22.6155 7.61968 22.8208 6.97525C23.0262 6.33082 23.6053 5.95717 24.137 6.12508C24.6699 6.29417 24.9251 6.9315 24.7198 7.57593C24.5477 8.11631 24.1133 8.46631 23.6635 8.46631H23.6647ZM23.5923 7.21883C23.5128 7.46833 23.597 7.64215 23.6492 7.6587C23.7015 7.67407 23.8712 7.58184 23.9507 7.33235C24.0266 7.0935 23.9483 6.90904 23.8937 6.89248C23.8415 6.87593 23.6706 6.97052 23.5923 7.21883Z" fill="#BA2A04"/>
    <path d="M70.1153 32.4766L69.9883 32.3773C70.0536 32.2945 70.1176 32.2094 70.1817 32.123L70.3123 32.2176C70.2482 32.3063 70.1817 32.3926 70.1165 32.4766H70.1153Z" fill="#0E2052"/>
    <path d="M22.3189 19.9375L21.9961 24.445L33.1428 26.3759L33.7896 21.5468L22.3189 19.9375Z" fill="#FFAB0B"/>
    <path d="M23.0722 20.8457L22.8574 23.7959L32.1716 25.4099L32.657 22.1913L23.0722 20.8457Z" fill="#50439F"/>
    <path d="M52.8775 38.1386L52.7173 38.1138C52.7481 37.9186 55.8149 18.5219 53.7961 11.6448C51.7844 4.78902 44.4427 2.17346 44.3691 2.14863L44.4225 1.99609C44.4973 2.02211 51.9174 4.66486 53.9516 11.5999C55.9799 18.5124 52.9084 37.9447 52.8763 38.1398L52.8775 38.1386Z" fill="#BA2A04"/>
    <path d="M54.0333 37.0106L53.8731 36.9881C53.9016 36.7953 53.9325 36.5813 53.9645 36.3496L54.1247 36.372C54.0915 36.6038 54.0606 36.8178 54.0333 37.0106ZM54.2149 35.7323L54.0547 35.711C54.0832 35.5077 54.1117 35.2948 54.1413 35.0725L54.3016 35.0938C54.2719 35.3173 54.2422 35.5301 54.2149 35.7335V35.7323ZM54.387 34.4541L54.2268 34.4328C54.2541 34.2259 54.2814 34.0131 54.3087 33.7931L54.4689 33.8132C54.4404 34.0332 54.4131 34.246 54.3858 34.4529L54.387 34.4541ZM54.5496 33.1735L54.3894 33.1534C54.4155 32.9441 54.4416 32.7313 54.4677 32.5137L54.6279 32.5326C54.6018 32.7502 54.5757 32.9642 54.5496 33.1723V33.1735ZM54.7039 31.8929L54.5437 31.874C54.5686 31.6636 54.5923 31.4507 54.6173 31.2343L54.7775 31.2521C54.7526 31.4685 54.7276 31.6825 54.7039 31.8929ZM54.8499 30.6124L54.6897 30.5946C54.7134 30.383 54.7359 30.1701 54.7585 29.9537L54.9187 29.9703C54.8962 30.1867 54.8724 30.4007 54.8499 30.6112V30.6124ZM54.9864 29.3294L54.8261 29.3129C54.8475 29.1012 54.8689 28.8872 54.8902 28.672L55.0516 28.6874C55.0303 28.9026 55.0089 29.1166 54.9876 29.3294H54.9864ZM55.1122 28.0465L54.9508 28.0311C54.9709 27.8183 54.9911 27.6042 55.0101 27.3902L55.1715 27.4044C55.1525 27.6196 55.1323 27.8336 55.1122 28.0465ZM55.2273 26.7623L55.0659 26.7481C55.0837 26.5353 55.1015 26.3213 55.1193 26.1061L55.2807 26.1191C55.2629 26.3343 55.2451 26.5483 55.2273 26.7612V26.7623ZM55.3317 25.477L55.1703 25.4652C55.1869 25.2512 55.2024 25.0372 55.2178 24.8231L55.3792 24.835C55.3638 25.0502 55.3483 25.2642 55.3317 25.4782V25.477ZM55.4219 24.1882L55.2605 24.1775C55.2748 23.9635 55.2878 23.7483 55.3009 23.5343L55.4623 23.5437C55.4492 23.7589 55.4362 23.973 55.4219 24.1882ZM55.4991 22.9005L55.3377 22.8922C55.3495 22.6782 55.3602 22.4642 55.3697 22.2501L55.5311 22.2572C55.5216 22.4713 55.5109 22.6853 55.4991 22.9005ZM55.5584 21.6128L55.397 21.6069C55.4053 21.3917 55.4136 21.1777 55.4196 20.9636L55.581 20.9684C55.5738 21.1824 55.5667 21.3976 55.5572 21.6128H55.5584ZM55.6 20.3239L55.4385 20.3204C55.4433 20.1052 55.448 19.89 55.4516 19.6772L55.613 19.6795C55.6095 19.8935 55.6059 20.1087 55.6 20.3239ZM55.6189 19.0339H55.4575C55.4575 18.9228 55.4575 18.8128 55.4575 18.7028C55.4575 18.5929 55.4575 18.4935 55.4575 18.3895H55.6189C55.6189 18.4923 55.6189 18.5976 55.6189 18.7028C55.6189 18.8081 55.6189 18.9228 55.6189 19.0339ZM55.4504 17.7462C55.4469 17.5298 55.4421 17.3158 55.435 17.103L55.5964 17.0983C55.6023 17.3111 55.6083 17.5263 55.6118 17.7427L55.4504 17.745V17.7462ZM55.4112 16.4621C55.4018 16.2445 55.3899 16.0317 55.3768 15.82L55.5382 15.8106C55.5513 16.0222 55.5632 16.2374 55.5727 16.455L55.4112 16.4621ZM55.3305 15.1791C55.3127 14.9616 55.2926 14.7487 55.2712 14.5394L55.4314 14.5229C55.454 14.7334 55.473 14.9474 55.4908 15.1661L55.3294 15.1791H55.3305ZM55.1964 13.9033C55.168 13.6857 55.1359 13.4729 55.1027 13.2695L55.2617 13.2435C55.2961 13.4492 55.3282 13.6644 55.3567 13.8832L55.1964 13.9045V13.9033ZM54.9864 12.6381C54.9413 12.4217 54.8926 12.2124 54.8404 12.0149L54.997 11.9736C55.0493 12.1734 55.0991 12.385 55.1442 12.605L54.9864 12.6369V12.6381ZM54.6588 11.4024C54.5923 11.2002 54.5211 10.998 54.4452 10.7994L54.5959 10.7414C54.673 10.9425 54.7466 11.147 54.8131 11.3516L54.66 11.4013L54.6588 11.4024ZM54.1995 10.2094C54.1129 10.0154 54.0203 9.82151 53.9242 9.63232L54.0678 9.55901C54.1651 9.75056 54.2588 9.94803 54.3467 10.1443L54.1995 10.2094ZM53.6191 9.06948C53.5147 8.88738 53.402 8.70292 53.2868 8.52201L53.4233 8.43569C53.5408 8.61779 53.6536 8.80461 53.7604 8.98907L53.6203 9.06948H53.6191ZM52.9284 7.99228C52.8062 7.82082 52.6768 7.64819 52.5439 7.4791L52.6709 7.37977C52.805 7.55004 52.9355 7.72504 53.059 7.89886L52.9272 7.99228H52.9284ZM52.1368 6.98365C51.9979 6.82284 51.8543 6.66321 51.7072 6.50713L51.8247 6.39716C51.973 6.55443 52.119 6.71642 52.2579 6.8796L52.1356 6.98484L52.1368 6.98365ZM51.2585 6.04834C51.1066 5.89936 50.9488 5.75155 50.7909 5.60848L50.8989 5.48905C51.0592 5.63331 51.2182 5.78348 51.3713 5.93365L51.2585 6.04834ZM50.3043 5.18753C50.1417 5.05155 49.9732 4.91675 49.8035 4.7855L49.902 4.65779C50.0741 4.79023 50.2438 4.92739 50.4076 5.06455L50.3043 5.18753ZM49.2884 4.4012C49.1163 4.27823 48.9383 4.15526 48.7591 4.03583L48.8493 3.90221C49.0297 4.02282 49.2101 4.14698 49.3834 4.27113L49.2884 4.4012ZM48.2167 3.68819C48.0351 3.57586 47.8488 3.46589 47.6625 3.35947L47.7432 3.21995C47.9307 3.32636 48.1182 3.43751 48.301 3.55103L48.2155 3.68819H48.2167ZM47.0975 3.05086C46.9065 2.95035 46.713 2.85339 46.5219 2.76116L46.5919 2.61572C46.7842 2.70795 46.98 2.80609 47.1723 2.90778L47.0963 3.04967L47.0975 3.05086ZM45.9368 2.49393C45.5653 2.33311 45.341 2.25507 45.3398 2.25507L45.3932 2.10254C45.4027 2.10609 45.6235 2.18294 46.0021 2.34612L45.938 2.49393H45.9368Z" fill="#BA2A04"/>
    <path d="M42.1802 2.22367C41.0349 1.87248 41.7898 -0.236992 44.65 0.0219624C47.5103 0.280917 47.3809 1.57687 46.9904 2.22367C46.6 2.87164 43.8703 2.74158 42.1802 2.22367Z" fill="#FFAB0B"/>
    <path d="M42.909 1.29578C42.134 1.13852 42.6455 0.193746 44.5801 0.309625C46.5146 0.425504 46.4268 1.00608 46.1633 1.29578C45.8998 1.58548 44.0531 1.52754 42.909 1.29578Z" fill="#FDBA36"/>
  </g>
  <defs>
    <clipPath id="clip0_1164_659">
      <rect width="72" height="48" fill="white" transform="translate(0.1875)"/>
    </clipPath>
  </defs>
</symbol>



<symbol id="bow-ties" xmlns="http://www.w3.org/2000/svg" width="89" height="48" viewBox="0 0 89 48" fill="none">
  <path d="M28.486 11.1347C28.486 11.1347 22.0305 0 4.77459 0C-2.1106 0 -0.305756 24.4372 2.49225 24.4372C5.29025 24.4372 17.0075 27.7031 28.1422 16.2246C28.1422 13.5889 28.486 11.1252 28.486 11.1252V11.1347Z" fill="#FFAB0B"/>
  <mask id="mask0_1200_414" style="mask-type:luminance" maskUnits="userSpaceOnUse" x="0" y="0" width="29" height="25">
    <path d="M28.486 11.1347C28.486 11.1347 22.0305 0 4.77459 0C-2.1106 0 -0.305756 24.4372 2.49225 24.4372C5.29025 24.4372 17.0075 27.7031 28.1422 16.2246C28.1422 13.5889 28.486 11.1252 28.486 11.1252V11.1347Z" fill="white"/>
  </mask>
  <g mask="url(#mask0_1200_414)">
    <g style="mix-blend-mode:multiply">
      <path d="M30.8646 18.2491C30.8646 15.6135 28.4868 11.1348 28.4868 11.1348C28.4868 11.1348 26.3764 7.50596 21.3629 4.39282C23.4447 12.7486 17.8296 20.6461 -0.448151 19.185C-0.448151 21.6583 1.28031 31.4179 1.28031 31.4179C1.28031 31.4179 19.7395 29.7181 30.8742 18.2491H30.8646Z" fill="#CDD0D1"/>
    </g>
  </g>
  <path d="M31.4551 11.1347C31.4551 11.1347 37.9106 0 55.1665 0C62.0517 0 60.2469 24.4372 57.4489 24.4372C54.6509 24.4372 42.9336 27.7031 31.7989 16.2246C31.7989 13.5889 31.4551 11.1252 31.4551 11.1252V11.1347Z" fill="#FFAB0B"/>
  <mask id="mask1_1200_414" style="mask-type:luminance" maskUnits="userSpaceOnUse" x="31" y="0" width="29" height="25">
    <path d="M31.4551 11.1347C31.4551 11.1347 37.9106 0 55.1665 0C62.0517 0 60.2469 24.4372 57.4489 24.4372C54.6509 24.4372 42.9336 27.7031 31.7989 16.2246C31.7989 13.5889 31.4551 11.1252 31.4551 11.1252V11.1347Z" fill="white"/>
  </mask>
  <g mask="url(#mask1_1200_414)">
    <g style="mix-blend-mode:multiply">
      <path d="M29.078 18.2492C29.078 15.6136 31.4559 11.1349 31.4559 11.1349C31.4559 11.1349 33.5663 7.50608 38.5798 4.39294C36.498 12.7488 42.1131 20.6462 60.3908 19.1851C60.3908 21.6584 58.6624 31.418 58.6624 31.418C58.6624 31.418 40.2032 29.7182 29.0685 18.2492H29.078Z" fill="#CDD0D1"/>
    </g>
  </g>
  <path d="M37.8342 12.6243C37.8342 17.0552 34.2436 20.6554 29.8031 20.6554C25.3626 20.6554 21.7719 17.0648 21.7719 12.6243C21.7719 8.18375 25.3626 4.59314 29.8031 4.59314C34.2436 4.59314 37.8342 8.18375 37.8342 12.6243Z" fill="#FFAB0B"/>
  <path opacity="0.5" d="M31.0926 9.58769C31.0926 11.4403 29.5934 12.9491 27.7408 12.9491C25.8882 12.9491 24.3889 11.4498 24.3889 9.58769C24.3889 7.72554 25.8882 6.23584 27.7408 6.23584C29.5934 6.23584 31.0926 7.73509 31.0926 9.58769Z" fill="#FFFCF5"/>
  <mask id="mask2_1200_414" style="mask-type:luminance" maskUnits="userSpaceOnUse" x="31" y="0" width="29" height="25">
    <path d="M31.4551 11.1347C31.4551 11.1347 37.9106 0 55.1665 0C62.0517 0 60.2469 24.4372 57.4489 24.4372C54.6509 24.4372 42.9336 27.7031 31.7989 16.2246C31.7989 13.5889 31.4551 11.1252 31.4551 11.1252V11.1347Z" fill="white"/>
  </mask>
  <g mask="url(#mask2_1200_414)">
    <path d="M42.6651 1.91936C42.1208 0.381891 40.6406 -0.0669163 39.3514 0.983528C38.0622 2.03397 37.3269 4.1253 37.7471 5.59592C38.1673 7.06654 39.6952 7.41033 41.1085 6.43628C42.5218 5.45268 43.2094 3.45683 42.6651 1.91936Z" fill="#FFF8FC"/>
    <path d="M57.4581 -1.64238C55.8251 -1.75697 54.1826 -0.458238 53.8197 1.22247C53.4569 2.90318 54.5646 4.38335 56.2549 4.55524C57.9547 4.72713 59.559 3.47614 59.855 1.74768C60.1511 0.0192251 59.0815 -1.51823 57.4486 -1.64238H57.4581Z" fill="#FFF8FC"/>
    <path d="M43.9168 22.222C44.0314 20.5031 42.8186 18.7937 41.2238 18.4595C39.629 18.1157 38.168 19.2999 37.977 21.0379C37.7764 22.7854 38.9797 24.4279 40.6508 24.7335C42.3315 25.0487 43.8022 23.9314 43.9168 22.222Z" fill="#FFF8FC"/>
    <path d="M62.184 11.4217C61.7543 11.0397 61.2673 10.7245 60.7612 10.5431C59.1951 9.97967 57.9536 10.8964 57.9441 12.5198C57.9441 14.1528 59.2428 15.8144 60.9044 16.2728C62.0408 16.5879 63.0053 16.2728 63.4828 15.5757C63.1103 14.1528 62.6806 12.7681 62.184 11.4312V11.4217Z" fill="#FFF8FC"/>
    <path d="M48.4139 9.5306C46.6759 9.24411 45.1002 10.3901 44.8615 12.0803C44.6227 13.7706 45.8164 15.3176 47.564 15.5181C49.3115 15.7282 50.9445 14.5823 51.1737 12.978C51.4029 11.3641 50.1519 9.81708 48.4139 9.5306Z" fill="#FFF8FC"/>
    <path d="M54.6682 22.5179C53.6464 23.8262 53.4077 26.0417 54.1525 27.369C54.8974 28.706 56.4635 28.6964 57.619 27.4263C58.7745 26.1562 58.9846 24.0458 58.1156 22.6707C57.237 21.2955 55.6996 21.1905 54.6778 22.5083L54.6682 22.5179Z" fill="#FFF8FC"/>
  </g>
  <path d="M11.3847 2.39689C12.5497 2.58788 13.6383 2.11998 14.3068 1.28917C12.6261 0.802148 10.7735 0.429693 8.74902 0.219604C9.1119 1.30825 10.1146 2.19635 11.3847 2.39689Z" fill="#FFF8FC"/>
  <path d="M20.7817 6.79922C21.8226 6.94246 22.8062 6.57003 23.4938 5.87292C22.0709 4.77472 20.3138 3.66699 18.1938 2.71204C18.146 2.86483 18.0983 3.02717 18.0792 3.18951C17.8309 4.92752 19.0437 6.55093 20.7913 6.79922H20.7817Z" fill="#FFF8FC"/>
  <path d="M5.56808 9.65456C6.36069 8.35583 6.2079 6.13079 5.2434 4.78431C4.26935 3.42828 2.73188 3.47603 1.80558 4.81296C0.879275 6.14989 1.00343 8.26035 2.11117 9.57818C3.21891 10.896 4.77548 10.9533 5.57764 9.65456H5.56808Z" fill="#FFF8FC"/>
  <path d="M11.2866 12.8633C11.172 14.5822 12.3847 16.2915 13.9795 16.6258C15.5743 16.9696 17.0258 15.7854 17.2263 14.0474C17.4269 12.2998 16.2332 10.6573 14.5525 10.3517C12.8718 10.0366 11.4011 11.1539 11.2866 12.8728V12.8633Z" fill="#FFF8FC"/>
  <path d="M9.03405 23.7876C8.62342 22.1546 7.18144 20.4261 5.86361 20.0059C4.54578 19.5858 3.70543 20.7031 3.96327 22.4124C4.08741 23.2337 4.47894 24.0263 5.00416 24.6661C6.131 24.7807 7.52522 24.8857 9.11043 24.8571C9.15818 24.542 9.13909 24.1791 9.03405 23.778V23.7876Z" fill="#FFF8FC"/>
  <path d="M20.7997 19.6911C19.3386 19.481 18.0208 20.6747 17.8489 22.4318C17.8203 22.6991 17.8298 22.957 17.8489 23.2148C19.3673 22.6419 20.9238 21.8683 22.5091 20.8561C22.1366 20.2258 21.535 19.7865 20.7997 19.6815V19.6911Z" fill="#FFF8FC"/>
  <path d="M56.657 25.2969C56.657 25.2969 46.2576 17.7146 30.4723 24.6666C24.1697 27.4455 35.6672 49.0847 38.236 47.9579C40.8048 46.831 52.8372 45.093 58.4046 30.1098C57.3446 27.7034 56.657 25.3065 56.657 25.3065V25.2969Z" fill="#E93405"/>
  <path d="M33.3568 23.5302L31.6474 39.1341C32.9366 41.8939 34.4263 44.4149 35.7155 46.0575L38.3225 22.2219C36.7469 22.5084 35.0948 22.9286 33.3568 23.5302Z" fill="#FFF8FC"/>
  <path d="M43.6798 46.0192C45.2554 45.3508 47.0221 44.434 48.8174 43.1448L51.0424 22.7662C49.6864 22.3747 48.1012 22.0404 46.325 21.859L43.6893 46.0097L43.6798 46.0192Z" fill="#FFF8FC"/>
  <mask id="mask3_1200_414" style="mask-type:luminance" maskUnits="userSpaceOnUse" x="28" y="21" width="31" height="28">
    <path d="M56.6581 25.297C56.6581 25.297 46.2587 17.7147 30.4734 24.6667C24.1708 27.4457 35.6683 49.0848 38.2371 47.958C40.8059 46.8311 52.8383 45.0931 58.4057 30.11C57.3457 27.7035 56.6581 25.3066 56.6581 25.3066V25.297Z" fill="white"/>
  </mask>
  <g mask="url(#mask3_1200_414)">
    <g style="mix-blend-mode:multiply">
      <path d="M61.6986 30.8454C60.6386 28.4389 56.6565 25.2876 56.6565 25.2876C56.6565 25.2876 53.2664 22.8143 47.4221 21.993C52.6934 28.8018 50.7453 38.294 33.4225 44.3198C34.4157 46.583 39.9353 54.8242 39.9353 54.8242C39.9353 54.8242 56.1408 45.8286 61.7081 30.8454H61.6986Z" fill="#CDD0D1"/>
    </g>
  </g>
  <path d="M59.3777 24.0937C59.3777 24.0937 60.8006 11.2974 76.5859 4.34534C82.8886 1.56644 91.082 24.6667 88.5228 25.7935C85.9539 26.9203 76.5573 34.6268 61.746 28.6202C60.686 26.2137 59.3777 24.0937 59.3777 24.0937Z" fill="#E93405"/>
  <path d="M66.7974 30.2147C68.4686 30.5871 70.0538 30.7972 71.5435 30.8641L74.3224 5.45288C72.3552 6.48423 70.6268 7.59196 69.1371 8.757L66.7974 30.2147Z" fill="#FFF8FC"/>
  <path d="M82.0951 7.11426L79.6027 29.9185C81.5794 29.355 83.2601 28.6197 84.6448 27.9226L86.1441 14.2096C84.9981 11.5739 83.5944 9.00506 82.0951 7.11426Z" fill="#FFF8FC"/>
  <mask id="mask4_1200_414" style="mask-type:luminance" maskUnits="userSpaceOnUse" x="59" y="4" width="31" height="27">
    <path d="M59.378 24.0937C59.378 24.0937 60.8008 11.2974 76.5861 4.34534C82.8888 1.56644 91.0823 24.6667 88.523 25.7935C85.9542 26.9203 76.5575 34.6268 61.7462 28.6202C60.6863 26.2137 59.378 24.0937 59.378 24.0937Z" fill="white"/>
  </mask>
  <g mask="url(#mask4_1200_414)">
    <g style="mix-blend-mode:multiply">
      <path d="M60.076 31.5709C59.016 29.1644 59.3884 24.1032 59.3884 24.1032C59.3884 24.1032 59.8564 19.9301 63.1891 15.0598C64.6502 23.5398 72.9773 28.5151 89.116 19.8059C90.1091 22.0691 92.4679 31.7046 92.4679 31.7046C92.4679 31.7046 74.8873 37.5871 60.076 31.5709Z" fill="#CDD0D1"/>
    </g>
  </g>
  <path d="M65.8153 22.8903C67.6011 26.9488 65.758 31.6854 61.6995 33.4807C57.6409 35.2664 52.9044 33.4234 51.1186 29.3649C49.3329 25.3063 51.1759 20.5698 55.2345 18.7745C59.293 16.9887 64.0296 18.8318 65.8249 22.8903H65.8153Z" fill="#E93405"/>
  <path opacity="0.5" d="M58.4127 22.8234C59.1575 24.5232 58.3936 26.5 56.6938 27.2449C54.994 27.9897 53.0172 27.2257 52.2723 25.5259C51.5275 23.8261 52.2914 21.8494 53.9912 21.1045C55.6911 20.3597 57.6678 21.1236 58.4127 22.8234Z" fill="#FFFCF5"/>
</symbol>




<symbol id="yellow-triangulars" xmlns="http://www.w3.org/2000/svg" width="65" height="51" viewBox="0 0 65 51" fill="none">
  <path d="M19.3002 2.39876L1.4186 22.0666C-1.02315 24.7491 0.354931 29.0707 3.90049 29.8467L29.87 35.4995C33.4156 36.2689 36.4661 32.9173 35.3623 29.4587L27.2744 4.13809C26.1706 0.679503 21.7353 -0.283819 19.2935 2.39876H19.3002Z" fill="#FFAB0B"/>
  <path d="M31.1276 31.0843C31.1677 30.917 31.1276 30.7297 30.9871 30.6026C30.7128 30.3417 30.4319 30.0875 30.1509 29.8467C27.6355 27.0838 20.3371 17.8654 23.0665 6.6601C23.0732 6.62665 23.0798 6.59989 23.0798 6.56644C23.0798 6.56644 23.0798 6.55975 23.0798 6.55306C23.1401 6.28547 22.9728 6.01119 22.7052 5.95099C22.4309 5.89078 22.1634 6.05802 22.1031 6.32561C22.0697 6.47279 18.4706 21.3173 5.23835 25.184C5.21828 25.184 5.2049 25.1973 5.19152 25.204C5.17814 25.204 5.16476 25.2174 5.14469 25.2241C5.12462 25.2308 5.11124 25.2442 5.09786 25.2575C5.08448 25.2642 5.07779 25.2709 5.06441 25.2776C5.05103 25.291 5.03765 25.3044 5.02427 25.3177C5.01758 25.3244 5.0042 25.3378 4.99751 25.3445C4.98414 25.3579 4.97745 25.378 4.96407 25.3913C4.95738 25.4047 4.95069 25.4114 4.944 25.4248C4.93731 25.4382 4.93062 25.4582 4.92393 25.4716C4.92393 25.485 4.91055 25.4984 4.90386 25.5118C4.90386 25.5251 4.90386 25.5452 4.89717 25.5586C4.89717 25.572 4.89048 25.592 4.88379 25.6054C4.88379 25.6188 4.88379 25.6322 4.88379 25.6455C4.88379 25.6656 4.88379 25.6857 4.88379 25.7058C4.88379 25.7191 4.88379 25.7258 4.88379 25.7392C4.88379 25.7593 4.88379 25.7793 4.89717 25.8061C4.89717 25.8262 4.91055 25.8395 4.91724 25.8529C4.93062 25.8797 4.93731 25.9064 4.95069 25.9265C4.96407 25.9466 4.97745 25.96 4.99082 25.9733C5.0042 25.9934 5.01758 26.0135 5.03765 26.0269C5.05772 26.0469 5.07779 26.0536 5.09786 26.067C5.11124 26.0804 5.12462 26.0938 5.14469 26.1004C5.17814 26.1205 5.21828 26.1272 5.25172 26.1406C5.25172 26.1406 5.25841 26.1406 5.2651 26.1406C5.30524 26.1473 5.34538 26.154 5.38552 26.154C5.3989 26.154 5.40559 26.154 5.41897 26.154C5.44573 26.154 5.47917 26.154 5.50593 26.1406C5.50593 26.1406 5.50593 26.1406 5.51262 26.1406C5.70663 26.0804 19.541 22.0532 29.4418 30.5625C29.9368 31.1044 30.2512 31.3987 30.2646 31.4188C30.3315 31.4857 30.4185 31.5258 30.4988 31.5459C30.666 31.5793 30.8466 31.5325 30.9737 31.3987C31.0607 31.305 31.1008 31.1913 31.1075 31.0776L31.1276 31.0843Z" fill="#50439F"/>
  <g style="mix-blend-mode:multiply" opacity="0.9">
    <path d="M29.8697 35.4928C33.4152 36.2621 36.4658 32.9106 35.362 29.452L28.2039 7.0481C29.3078 12.9417 28.2374 19.2569 25.0732 24.3678C22.9659 27.7729 19.9689 30.5959 16.4902 32.5828L29.863 35.4928H29.8697Z" fill="#FFAB0B"/>
  </g>
  <path opacity="0.5" d="M19.026 5.05444L4.75684 21.665C4.75684 21.665 14.8717 17.0291 19.026 5.05444Z" fill="white"/>
  <path d="M34.5328 15.6845L24.3711 43.8817C22.9863 47.7283 26.2843 51.6351 30.3116 50.9126L59.8066 45.6143C63.8338 44.8918 65.5664 40.0819 62.9307 36.9511L43.5974 14.0522C40.9549 10.9281 35.9242 11.8312 34.5395 15.6778L34.5328 15.6845Z" fill="#FFAB0B"/>
  <path d="M59.2107 40.4767C59.184 40.2827 59.0569 40.1087 58.8562 40.0284C58.4548 39.8746 58.0601 39.7341 57.6587 39.6003C53.8456 37.8008 42.2724 31.3452 40.2922 18.4875C40.2922 18.4541 40.2788 18.4206 40.2654 18.3872V18.3738C40.2119 18.0661 39.9243 17.8587 39.6165 17.9055C39.3021 17.959 39.1014 18.2467 39.1482 18.5544C39.175 18.7284 41.8241 35.7403 29.6957 45.4739C29.6823 45.4873 29.6689 45.5006 29.6555 45.514C29.6421 45.5274 29.6288 45.5408 29.6154 45.5542C29.602 45.5742 29.5886 45.5876 29.5752 45.6077C29.5686 45.6211 29.5552 45.6344 29.5485 45.6478C29.5351 45.6679 29.5284 45.688 29.5217 45.708C29.5217 45.7214 29.5083 45.7348 29.5083 45.7482C29.5083 45.7682 29.5017 45.7883 29.495 45.8084C29.495 45.8217 29.4883 45.8351 29.4883 45.8552C29.4883 45.8753 29.4883 45.8953 29.4883 45.9154C29.4883 45.9288 29.4883 45.9489 29.4883 45.9622C29.4883 45.9823 29.4883 45.9957 29.495 46.0158C29.495 46.0358 29.495 46.0559 29.5083 46.0693C29.5083 46.0826 29.5217 46.096 29.5284 46.1094C29.5351 46.1295 29.5418 46.1495 29.5552 46.1696C29.5552 46.183 29.5686 46.1897 29.5752 46.2031C29.5886 46.2231 29.602 46.2432 29.6154 46.2633C29.6288 46.2767 29.6421 46.29 29.6622 46.3034C29.6823 46.3235 29.709 46.3502 29.7291 46.3703C29.7492 46.3837 29.7693 46.3904 29.7893 46.4038C29.8094 46.4171 29.8361 46.4305 29.8629 46.4372C29.8897 46.4439 29.9164 46.4506 29.9432 46.4573C29.9633 46.4573 29.9833 46.4707 30.0034 46.4707C30.0502 46.4707 30.0904 46.4707 30.1372 46.4707C30.1372 46.4707 30.1506 46.4707 30.1573 46.4707C30.1573 46.4707 30.1573 46.4707 30.1639 46.4707C30.2041 46.464 30.2509 46.4506 30.291 46.4305C30.3044 46.4305 30.3111 46.4171 30.3245 46.4104C30.3513 46.3971 30.3847 46.377 30.4115 46.3569C30.5921 46.2098 43.2691 36.0548 57.2507 40.6573C57.9999 41.0118 58.4548 41.1858 58.4816 41.1925C58.5819 41.2326 58.6823 41.2393 58.7826 41.2192C58.9699 41.1858 59.1372 41.052 59.2107 40.858C59.2576 40.7242 59.2576 40.5904 59.2107 40.4633V40.4767Z" fill="#50439F"/>
  <path opacity="0.5" d="M35.389 18.5676L27.6758 42.0218C27.6758 42.0218 36.2186 32.8301 35.389 18.5676Z" fill="white"/>
</symbol>

<symbol id="blue-hat" xmlns="http://www.w3.org/2000/svg" width="45" height="65" viewBox="0 0 45 65" fill="none">
  <path d="M44.9898 54.0685C44.9898 54.0685 27.235 67.8996 0.796139 62.9174C0.580624 63.247 12.6876 9.07617 12.6876 9.07617L44.9961 54.0748L44.9898 54.0685Z" fill="#50439F"/>
  <path d="M20.453 45.3147C20.453 43.223 22.1518 41.5242 24.2436 41.5242C26.3354 41.5242 28.0342 43.223 28.0342 45.3147C28.0342 47.4065 26.3354 49.1053 24.2436 49.1053C22.1518 49.1053 20.453 47.4065 20.453 45.3147Z" fill="#FFFCF5"/>
  <path d="M8.92289 40.2563C8.92289 39.0012 9.9371 37.9807 11.1922 37.9807C12.4472 37.9807 13.4678 39.0012 13.4678 40.2563C13.4678 41.5114 12.4472 42.5319 11.1922 42.5319C9.9371 42.5319 8.92289 41.5114 8.92289 40.2563Z" fill="#FFFCF5"/>
  <path d="M36.3633 52.4331C36.3633 51.178 37.3775 50.1575 38.6326 50.1575C39.8877 50.1575 40.9082 51.178 40.9082 52.4331C40.9082 53.6881 39.8877 54.7087 38.6326 54.7087C37.3775 54.7087 36.3633 53.6945 36.3633 52.4331Z" fill="#FFFCF5"/>
  <path d="M15.915 22.0071C15.915 24.0989 14.2163 25.7977 12.1245 25.7977C10.9708 25.7977 9.94396 25.2842 9.2467 24.4729C9.71577 22.3621 10.1595 20.3654 10.5652 18.5525C11.0406 18.337 11.5667 18.2166 12.1245 18.2166C14.2163 18.2166 15.915 19.9153 15.915 22.0071Z" fill="#FFFCF5"/>
  <path d="M5.57707 62.5432C5.57707 60.4515 7.27585 58.7527 9.36764 58.7527C11.4594 58.7527 13.1582 60.4515 13.1582 62.5432C13.1582 63.0567 13.0568 63.5448 12.873 63.9948C10.591 64.0202 8.21399 63.9124 5.74823 63.6525C5.64047 63.3039 5.58341 62.9299 5.58341 62.5496L5.57707 62.5432Z" fill="#FFFCF5"/>
  <path d="M25.2395 30.1588C23.864 30.1588 22.7547 29.0431 22.7547 27.674C22.7547 26.6091 23.4266 25.7026 24.3711 25.354L27.1602 29.2396C26.7038 29.7975 26.0192 30.1651 25.2395 30.1651V30.1588Z" fill="#FFFCF5"/>
  <path d="M2.41377 55.3235C2.92721 55.7799 3.25684 56.4391 3.25684 57.1807C3.25684 58.3027 2.50885 59.2345 1.49465 59.5514C1.7482 58.3851 2.0588 56.9589 2.41377 55.3298V55.3235Z" fill="#FFFCF5"/>
  <g style="mix-blend-mode:multiply">
    <path d="M0.800022 63.3721C0.597183 63.6764 11.1512 16.4148 12.5393 10.2028C12.7232 10.1268 12.888 10.057 13.0274 10L16.406 14.7033C15.7848 14.8935 15.1256 15.071 14.4346 15.2358C10.1306 16.269 11.4491 28.1351 10.2511 40.1026C9.13546 51.2398 10.4919 62.472 40.9242 48.8501L45 54.5232C45 54.5232 27.2452 68.3544 0.806366 63.3721H0.800022Z" fill="#CDD0D1"/>
  </g>
  <path d="M5.89279 7.65004C6.60273 11.092 9.96861 13.3042 13.4105 12.5942C16.8525 11.8843 19.0647 8.51844 18.3547 5.07651C17.6448 1.64092 14.2789 -0.577636 10.837 0.132302C7.39508 0.84224 5.18285 4.20811 5.89279 7.6437V7.65004Z" fill="#FFAB0B"/>
  <g style="mix-blend-mode:multiply">
    <path d="M7.78186 1.72339C7.78186 1.72339 7.78186 1.7424 7.78186 1.74874C8.49179 5.19067 11.8577 7.40289 15.2996 6.69295C16.4913 6.44574 17.5308 5.87526 18.3549 5.10193C19.0458 8.53119 16.8399 11.8844 13.4107 12.588C9.96872 13.2979 6.60918 11.0857 5.89291 7.64376C5.43018 5.39351 6.21618 3.18764 7.77551 1.72339H7.78186Z" fill="#CDD0D1"/>
  </g>
</symbol>
<symbol id="slider-arrow" width="11" height="16" viewBox="0 0 11 16" fill="none" xmlns="http://www.w3.org/2000/svg">
  <path d="M10.5337 8L2.53366 16L0.666992 14.1333L6.80033 8L0.666992 1.86667L2.53366 -8.15946e-08L10.5337 8Z" fill="#50439F" />
</symbol>

</svg>