<svg xmlns="http://www.w3.org/2000/svg" xmlns:xlink="http://www.w3.org/1999/xlink" preserveAspectRatio="xMidYMid meet" width="400" height="400" viewBox="0 0 400 400" style="width:100%;height:100%" id="btn"><defs><animateTransform repeatCount="indefinite" dur="1.7666667s" begin="0s" xlink:href="#_R_G_L_4_G" fill="freeze" attributeName="transform" from="0 0" to="0 0" type="scale" additive="sum" keyTimes="0;0.1415094;0.4245283;0.5660377;1" values="0 0;5.38 5.38;5.38 5.38;0 0;0 0" keySplines="0.167 0.167 0.004 1;0.333 0 0.833 1;0.167 0 0.833 0.833;0 0 0 0" calcMode="spline"/><animateTransform repeatCount="indefinite" dur="1.7666667s" begin="0s" xlink:href="#_R_G_L_4_G" fill="freeze" attributeName="transform" from="-3.995 -33.75" to="-3.995 -33.75" type="translate" additive="sum" keyTimes="0;1" values="-3.995 -33.75;-3.995 -33.75" keySplines="0 0 1 1" calcMode="spline"/><animateTransform repeatCount="indefinite" dur="1.7666667s" begin="0s" xlink:href="#_R_G_L_3_G" fill="freeze" attributeName="transform" from="0 0" to="0 0" type="scale" additive="sum" keyTimes="0;0.0660377;0.2075472;0.490566;0.6320755;1" values="0 0;0 0;5.38 5.38;5.38 5.38;0 0;0 0" keySplines="0.167 0.167 0.004 1;0.167 0.167 0.004 1;0.333 0 0.833 1;0.167 0 0.833 0.833;0 0 0 0" calcMode="spline"/><animateTransform repeatCount="indefinite" dur="1.7666667s" begin="0s" xlink:href="#_R_G_L_3_G" fill="freeze" attributeName="transform" from="-20.004 -33.75" to="-20.004 -33.75" type="translate" additive="sum" keyTimes="0;1" values="-20.004 -33.75;-20.004 -33.75" keySplines="0 0 1 1" calcMode="spline"/><animate repeatCount="indefinite" dur="1.7666667s" begin="0s" xlink:href="#_R_G_L_3_G_M" fill="freeze" attributeName="opacity" from="0" to="1" keyTimes="0;0.0660377;0.0660396;1" values="0;0;1;1" keySplines="0 0 0 0;0 0 0 0;0 0 0 0" calcMode="spline"/><animateTransform repeatCount="indefinite" dur="1.7666667s" begin="0s" xlink:href="#_R_G_L_2_G" fill="freeze" attributeName="transform" from="0 0" to="0 0" type="scale" additive="sum" keyTimes="0;0.1415094;0.2830189;0.5660377;0.7075472;1" values="0 0;0 0;5.38 5.38;5.38 5.38;0 0;0 0" keySplines="0.167 0.167 0.004 1;0.167 0.167 0.004 1;0.333 0 0.833 1;0.167 0 0.833 0.833;0 0 0 0" calcMode="spline"/><animateTransform repeatCount="indefinite" dur="1.7666667s" begin="0s" xlink:href="#_R_G_L_2_G" fill="freeze" attributeName="transform" from="-36.5 -34" to="-36.5 -34" type="translate" additive="sum" keyTimes="0;1" values="-36.5 -34;-36.5 -34" keySplines="0 0 1 1" calcMode="spline"/><animate repeatCount="indefinite" dur="1.7666667s" begin="0s" xlink:href="#_R_G_L_2_G_M" fill="freeze" attributeName="opacity" from="0" to="1" keyTimes="0;0.1415094;0.1415113;1" values="0;0;1;1" keySplines="0 0 0 0;0 0 0 0;0 0 0 0" calcMode="spline"/><animateTransform repeatCount="indefinite" dur="1.7666667s" begin="0s" xlink:href="#_R_G_L_1_G" fill="freeze" attributeName="transform" from="0 0" to="0 0" type="scale" additive="sum" keyTimes="0;0.2075472;0.3490566;0.6320755;0.7735849;1" values="0 0;0 0;5.38 5.38;5.38 5.38;0 0;0 0" keySplines="0.167 0.167 0.004 1;0.167 0.167 0.004 1;0.333 0 0.833 1;0.167 0 0.833 0.833;0 0 0 0" calcMode="spline"/><animateTransform repeatCount="indefinite" dur="1.7666667s" begin="0s" xlink:href="#_R_G_L_1_G" fill="freeze" attributeName="transform" from="-52.062 -33.75" to="-52.062 -33.75" type="translate" additive="sum" keyTimes="0;1" values="-52.062 -33.75;-52.062 -33.75" keySplines="0 0 1 1" calcMode="spline"/><animate repeatCount="indefinite" dur="1.7666667s" begin="0s" xlink:href="#_R_G_L_1_G_M" fill="freeze" attributeName="opacity" from="0" to="1" keyTimes="0;0.2075472;0.2075491;1" values="0;0;1;1" keySplines="0 0 0 0;0 0 0 0;0 0 0 0" calcMode="spline"/><animateTransform repeatCount="indefinite" dur="1.7666667s" begin="0s" xlink:href="#_R_G_L_0_G" fill="freeze" attributeName="transform" from="0 0" to="0 0" type="scale" additive="sum" keyTimes="0;0.2830189;0.4245283;0.7075472;0.8490566;1" values="0 0;0 0;5.38 5.38;5.38 5.38;0 0;0 0" keySplines="0.167 0.167 0.004 1;0.167 0.167 0.004 1;0.333 0 0.833 1;0.167 0 0.833 0.833;0 0 0 0" calcMode="spline"/><animateTransform repeatCount="indefinite" dur="1.7666667s" begin="0s" xlink:href="#_R_G_L_0_G" fill="freeze" attributeName="transform" from="-67.982 -33.75" to="-67.982 -33.75" type="translate" additive="sum" keyTimes="0;1" values="-67.982 -33.75;-67.982 -33.75" keySplines="0 0 1 1" calcMode="spline"/><animate repeatCount="indefinite" dur="1.7666667s" begin="0s" xlink:href="#_R_G_L_0_G_M" fill="freeze" attributeName="opacity" from="0" to="1" keyTimes="0;0.2830189;0.2830208;1" values="0;0;1;1" keySplines="0 0 0 0;0 0 0 0;0 0 0 0" calcMode="spline"/><animate attributeType="XML" attributeName="opacity" dur="2s" from="0" to="1" xlink:href="#time_group"/></defs><g id="_R_G"><g id="_R_G_L_4_G" transform=" translate(25.125, 198.653)"><path id="_R_G_L_4_G_D_0_P_0" fill="#27201a" fill-opacity="1" fill-rule="nonzero" d=" M4.12 44.43 C5.1,44.47 6.06,44.15 6.78,43.53 C7.5,42.91 7.94,42.05 7.98,41.14 C7.98,41.14 7.98,25.08 7.98,25.08 C7.94,24.17 7.5,23.31 6.78,22.69 C6.06,22.07 5.1,21.75 4.12,21.78 C3.13,21.75 2.18,22.07 1.45,22.69 C0.73,23.31 0.3,24.17 0.25,25.08 C0.25,25.08 0.25,41.14 0.25,41.14 C0.3,42.05 0.73,42.91 1.45,43.53 C2.18,44.15 3.13,44.47 4.12,44.43z "/></g><g id="_R_G_L_3_G_M"><g id="_R_G_L_3_G" transform=" translate(111.25, 198.653)"><path id="_R_G_L_3_G_D_0_P_0" fill="#27201a" fill-opacity="1" fill-rule="nonzero" d=" M20.07 59.51 C21.05,59.54 22.01,59.22 22.73,58.6 C23.46,57.98 23.89,57.12 23.93,56.21 C23.93,56.21 23.93,10.77 23.93,10.77 C23.89,9.86 23.46,9 22.73,8.38 C22.01,7.76 21.05,7.44 20.07,7.47 C19.09,7.44 18.13,7.76 17.4,8.38 C16.68,9 16.25,9.86 16.2,10.77 C16.2,10.77 16.2,56.21 16.2,56.21 C16.25,57.12 16.68,57.98 17.4,58.6 C18.13,59.22 19.08,59.54 20.07,59.51z  M0.25 25.08 C0.25,25.08 0.25,41.14 0.25,41.14 C0.3,42.05 0.3,24.17 0.25,25.08z "/></g></g><g id="_R_G_L_2_G_M"><g id="_R_G_L_2_G" transform=" translate(200, 200)"><path id="_R_G_L_2_G_D_0_P_0" fill="#27201a" fill-opacity="1" fill-rule="nonzero" d=" M36.02 66.73 C37,66.77 37.96,66.44 38.68,65.82 C39.41,65.2 39.84,64.35 39.88,63.43 C39.88,63.43 39.88,3.55 39.88,3.55 C39.8,2.65 39.36,1.81 38.64,1.2 C37.93,0.59 36.99,0.25 36.02,0.25 C35.05,0.25 34.11,0.59 33.39,1.2 C32.68,1.81 32.23,2.65 32.15,3.55 C32.15,3.55 32.15,63.43 32.15,63.43 C32.2,64.35 32.63,65.21 33.35,65.82 C34.08,66.44 35.04,66.77 36.02,66.73z "/></g></g><g id="_R_G_L_1_G_M"><g id="_R_G_L_1_G" transform=" translate(283.726, 198.653)"><path id="_R_G_L_1_G_D_0_P_0" fill="#27201a" fill-opacity="1" fill-rule="nonzero" d=" M51.97 53.98 C52.95,54.02 53.91,53.69 54.63,53.07 C55.36,52.46 55.79,51.6 55.83,50.68 C55.83,50.68 55.83,16.3 55.83,16.3 C55.75,15.4 55.3,14.57 54.59,13.96 C53.87,13.35 52.94,13.02 51.97,13.02 C51,13.02 50.07,13.35 49.35,13.96 C48.64,14.57 48.19,15.4 48.11,16.3 C48.11,16.3 48.11,50.68 48.11,50.68 C48.15,51.6 48.58,52.45 49.3,53.07 C50.03,53.69 50.99,54.02 51.97,53.98z "/></g></g><g id="_R_G_L_0_G_M"><g id="_R_G_L_0_G" transform=" translate(369.375, 198.653)"><path id="_R_G_L_0_G_D_0_P_0" fill="#27201a" fill-opacity="1" fill-rule="nonzero" d=" M67.92 19.5 C66.94,19.46 65.98,19.79 65.26,20.41 C64.53,21.03 64.1,21.88 64.06,22.8 C64.06,22.8 64.06,44.12 64.06,44.12 C64.14,45.01 64.58,45.85 65.3,46.46 C66.01,47.07 66.95,47.41 67.92,47.41 C68.89,47.41 69.83,47.07 70.54,46.46 C71.26,45.85 71.7,45.01 71.79,44.12 C71.79,44.12 71.79,22.8 71.79,22.8 C71.74,21.88 71.31,21.03 70.58,20.41 C69.86,19.79 68.9,19.46 67.92,19.5z "/></g></g></g><g id="time_group"/></svg>