<svg width="74" height="40" viewBox="0 0 74 40" fill="none" xmlns="http://www.w3.org/2000/svg">
<path d="M23.6837 9.25759C23.6837 9.25759 18.3166 0 3.96967 0C-1.75479 0 -0.254211 20.3175 2.0721 20.3175C4.3984 20.3175 14.1403 23.0328 23.3979 13.4894C23.3979 11.2981 23.6837 9.24964 23.6837 9.24964V9.25759Z" fill="#50439F"/>
<mask id="mask0_1113_4538" style="mask-type:luminance" maskUnits="userSpaceOnUse" x="0" y="0" width="24" height="21">
<path d="M23.6837 9.25759C23.6837 9.25759 18.3166 0 3.96967 0C-1.75479 0 -0.254211 20.3175 2.0721 20.3175C4.3984 20.3175 14.1403 23.0328 23.3979 13.4894C23.3979 11.2981 23.6837 9.24964 23.6837 9.24964V9.25759Z" fill="white"/>
</mask>
<g mask="url(#mask0_1113_4538)">
<g style="mix-blend-mode:multiply">
<path d="M25.6609 15.1727C25.6609 12.9814 23.684 9.25771 23.684 9.25771C23.684 9.25771 21.9293 6.24066 17.761 3.65234C19.4919 10.5995 14.8234 17.1656 -0.373047 15.9508C-0.373047 18.0072 1.06402 26.1214 1.06402 26.1214C1.06402 26.1214 16.4113 24.7082 25.6689 15.1727H25.6609Z" fill="#CDD0D1"/>
</g>
</g>
<path d="M26.1523 9.25759C26.1523 9.25759 31.5195 0 45.8664 0C51.5908 0 50.0903 20.3175 47.764 20.3175C45.4377 20.3175 35.6957 23.0328 26.4382 13.4894C26.4382 11.2981 26.1523 9.24964 26.1523 9.24964V9.25759Z" fill="#50439F"/>
<mask id="mask1_1113_4538" style="mask-type:luminance" maskUnits="userSpaceOnUse" x="26" y="0" width="24" height="21">
<path d="M26.1523 9.25759C26.1523 9.25759 31.5195 0 45.8664 0C51.5908 0 50.0903 20.3175 47.764 20.3175C45.4377 20.3175 35.6957 23.0328 26.4382 13.4894C26.4382 11.2981 26.1523 9.24964 26.1523 9.24964V9.25759Z" fill="white"/>
</mask>
<g mask="url(#mask1_1113_4538)">
<g style="mix-blend-mode:multiply">
<path d="M24.1759 15.1727C24.1759 12.9814 26.1529 9.25771 26.1529 9.25771C26.1529 9.25771 27.9075 6.24066 32.0758 3.65234C30.345 10.5995 35.0135 17.1656 50.2099 15.9508C50.2099 18.0072 48.7728 26.1214 48.7728 26.1214C48.7728 26.1214 33.4256 24.7082 24.168 15.1727H24.1759Z" fill="#CDD0D1"/>
</g>
</g>
<path d="M31.456 10.4966C31.456 14.1805 28.4707 17.1738 24.7788 17.1738C21.0869 17.1738 18.1016 14.1885 18.1016 10.4966C18.1016 6.80463 21.0869 3.81934 24.7788 3.81934C28.4707 3.81934 31.456 6.80463 31.456 10.4966Z" fill="#50439F"/>
<path opacity="0.5" d="M25.851 7.97136C25.851 9.51164 24.6044 10.7661 23.0642 10.7661C21.5239 10.7661 20.2773 9.51958 20.2773 7.97136C20.2773 6.42313 21.5239 5.18457 23.0642 5.18457C24.6044 5.18457 25.851 6.43107 25.851 7.97136Z" fill="#FFFCF5"/>
<mask id="mask2_1113_4538" style="mask-type:luminance" maskUnits="userSpaceOnUse" x="26" y="0" width="24" height="21">
<path d="M26.1523 9.25759C26.1523 9.25759 31.5195 0 45.8664 0C51.5908 0 50.0903 20.3175 47.764 20.3175C45.4377 20.3175 35.6957 23.0328 26.4382 13.4894C26.4382 11.2981 26.1523 9.24964 26.1523 9.24964V9.25759Z" fill="white"/>
</mask>
<g mask="url(#mask2_1113_4538)">
<path d="M35.4726 1.5966C35.02 0.318322 33.7894 -0.0548245 32.7175 0.818533C31.6457 1.69189 31.0343 3.43065 31.3837 4.65335C31.733 5.87605 33.0033 6.16188 34.1784 5.35204C35.3535 4.53426 35.9251 2.87488 35.4726 1.5966Z" fill="#FFF8FC"/>
<path d="M47.7717 -1.36524C46.4141 -1.46052 45.0485 -0.38073 44.7468 1.01664C44.4451 2.41401 45.3661 3.64465 46.7714 3.78756C48.1846 3.93047 49.5185 2.89038 49.7646 1.45331C50.0107 0.0162413 49.1215 -1.26203 47.7638 -1.36524H47.7717Z" fill="#FFF8FC"/>
<path d="M36.5132 18.4755C36.6085 17.0464 35.6002 15.6252 34.2743 15.3473C32.9483 15.0615 31.7336 16.046 31.5748 17.491C31.4081 18.944 32.4084 20.3096 33.7979 20.5636C35.1953 20.8256 36.418 19.8967 36.5132 18.4755Z" fill="#FFF8FC"/>
<path d="M51.701 9.49594C51.3437 9.17836 50.9388 8.91634 50.518 8.76549C49.2159 8.29705 48.1837 9.05926 48.1758 10.409C48.1758 11.7667 49.2556 13.1482 50.6371 13.5293C51.5819 13.7913 52.3838 13.5293 52.7807 12.9497C52.4711 11.7667 52.1138 10.6154 51.701 9.50389V9.49594Z" fill="#FFF8FC"/>
<path d="M40.2522 7.9242C38.8072 7.68601 37.4972 8.63877 37.2987 10.0441C37.1002 11.4494 38.0927 12.7356 39.5456 12.9024C40.9986 13.077 42.3562 12.1243 42.5468 10.7904C42.7373 9.44862 41.6972 8.16239 40.2522 7.9242Z" fill="#FFF8FC"/>
<path d="M45.4522 18.7216C44.6027 19.8093 44.4042 21.6513 45.0235 22.7549C45.6427 23.8665 46.9448 23.8585 47.9055 22.8026C48.8662 21.7466 49.0409 19.9919 48.3184 18.8486C47.5879 17.7053 46.3097 17.618 45.4601 18.7136L45.4522 18.7216Z" fill="#FFF8FC"/>
</g>
<path d="M9.46475 1.99285C10.4334 2.15164 11.3385 1.76262 11.8943 1.07187C10.4969 0.666954 8.95663 0.357289 7.27344 0.182617C7.57514 1.08773 8.40879 1.82612 9.46475 1.99285Z" fill="#FFF8FC"/>
<path d="M17.2776 5.65304C18.143 5.77213 18.9608 5.46248 19.5325 4.88289C18.3495 3.96984 16.8886 3.04884 15.126 2.25488C15.0863 2.38192 15.0466 2.51689 15.0307 2.65186C14.8243 4.09687 15.8326 5.44661 17.2856 5.65304H17.2776Z" fill="#FFF8FC"/>
<path d="M4.62875 8.02747C5.28773 6.94768 5.1607 5.09775 4.3588 3.97826C3.54896 2.85084 2.27068 2.89054 1.50054 4.00208C0.730394 5.11363 0.833615 6.8683 1.75461 7.96396C2.6756 9.05963 3.96977 9.10726 4.63669 8.02747H4.62875Z" fill="#FFF8FC"/>
<path d="M9.38514 10.6948C9.28986 12.124 10.2982 13.5451 11.6241 13.823C12.95 14.1089 14.1568 13.1243 14.3236 11.6793C14.4903 10.2264 13.4979 8.86077 12.1005 8.6067C10.7031 8.34469 9.48042 9.27361 9.38514 10.7027V10.6948Z" fill="#FFF8FC"/>
<path d="M7.51042 19.7774C7.16902 18.4197 5.97013 16.9827 4.87446 16.6333C3.7788 16.284 3.08012 17.2129 3.29449 18.6341C3.3977 19.3169 3.72322 19.9759 4.1599 20.5079C5.09678 20.6031 6.25595 20.6905 7.57393 20.6667C7.61362 20.4046 7.59775 20.1029 7.51042 19.7695V19.7774Z" fill="#FFF8FC"/>
<path d="M17.2926 16.3715C16.0778 16.1968 14.9822 17.1892 14.8393 18.6501C14.8154 18.8724 14.8234 19.0868 14.8393 19.3012C16.1016 18.8248 17.3958 18.1817 18.7138 17.3401C18.4041 16.8161 17.9039 16.4509 17.2926 16.3635V16.3715Z" fill="#FFF8FC"/>
<path d="M47.1066 21.0321C47.1066 21.0321 38.4604 14.7281 25.3362 20.5081C20.0961 22.8185 29.6554 40.8097 31.7911 39.8728C33.9269 38.936 43.9308 37.4909 48.5596 25.0337C47.6783 23.0329 47.1066 21.0401 47.1066 21.0401V21.0321Z" fill="#FFAB0B"/>
<path d="M27.7337 19.5633L26.3125 32.5366C27.3843 34.8312 28.6229 36.9272 29.6948 38.2929L31.8623 18.4756C30.5523 18.7138 29.1787 19.0631 27.7337 19.5633Z" fill="#FFF8FC"/>
<path d="M36.3164 38.2611C37.6264 37.7053 39.0953 36.9431 40.5879 35.8712L42.4378 18.9281C41.3104 18.6026 39.9924 18.3247 38.5157 18.1738L36.3244 38.2531L36.3164 38.2611Z" fill="#FFF8FC"/>
<mask id="mask3_1113_4538" style="mask-type:luminance" maskUnits="userSpaceOnUse" x="23" y="18" width="26" height="22">
<path d="M47.1066 21.0321C47.1066 21.0321 38.4604 14.7281 25.3362 20.5081C20.0961 22.8185 29.6554 40.8097 31.7911 39.8728C33.9269 38.936 43.9308 37.4909 48.5596 25.0337C47.6783 23.0329 47.1066 21.0401 47.1066 21.0401V21.0321Z" fill="white"/>
</mask>
<g mask="url(#mask3_1113_4538)">
<g style="mix-blend-mode:multiply">
<path d="M51.2982 25.6452C50.4169 23.6444 47.1061 21.0243 47.1061 21.0243C47.1061 21.0243 44.2876 18.968 39.4285 18.2852C43.8112 23.9461 42.1915 31.8381 27.7891 36.848C28.6148 38.7297 33.2039 45.5815 33.2039 45.5815C33.2039 45.5815 46.6774 38.1024 51.3062 25.6452H51.2982Z" fill="#CDD0D1"/>
</g>
</g>
<path d="M49.3691 20.0318C49.3691 20.0318 50.5521 9.3927 63.6763 3.61266C68.9165 1.30223 75.7286 20.5081 73.6008 21.445C71.4651 22.3819 63.6525 28.7892 51.3382 23.7952C50.4569 21.7944 49.3691 20.0318 49.3691 20.0318Z" fill="#FFAB0B"/>
<path d="M55.5371 25.1206C56.9265 25.4303 58.2445 25.6049 59.4831 25.6605L61.7935 4.5332C60.158 5.39068 58.7209 6.31167 57.4823 7.2803L55.5371 25.1206Z" fill="#FFF8FC"/>
<path d="M68.2558 5.91504L66.1836 24.8748C67.8271 24.4064 69.2245 23.7951 70.3757 23.2155L71.6222 11.8142C70.6695 9.62286 69.5024 7.48708 68.2558 5.91504Z" fill="#FFF8FC"/>
<mask id="mask4_1113_4538" style="mask-type:luminance" maskUnits="userSpaceOnUse" x="49" y="3" width="26" height="23">
<path d="M49.3691 20.0318C49.3691 20.0318 50.5521 9.3927 63.6763 3.61266C68.9165 1.30223 75.7286 20.5081 73.6008 21.445C71.4651 22.3819 63.6525 28.7892 51.3382 23.7952C50.4569 21.7944 49.3691 20.0318 49.3691 20.0318Z" fill="white"/>
</mask>
<g mask="url(#mask4_1113_4538)">
<g style="mix-blend-mode:multiply">
<path d="M49.9486 26.2491C49.0673 24.2483 49.377 20.0403 49.377 20.0403C49.377 20.0403 49.766 16.5707 52.5369 12.5215C53.7517 19.5719 60.675 23.7084 74.0929 16.4675C74.9187 18.3492 76.8798 26.3602 76.8798 26.3602C76.8798 26.3602 62.2629 31.251 49.9486 26.2491Z" fill="#CDD0D1"/>
</g>
</g>
<path d="M54.7215 19.0308C56.2062 22.4052 54.6738 26.3432 51.2995 27.8359C47.9252 29.3206 43.9871 27.7882 42.5024 24.4139C41.0177 21.0396 42.5501 17.1015 45.9244 15.6089C49.2987 14.1242 53.2368 15.6565 54.7294 19.0308H54.7215Z" fill="#FFAB0B"/>
<path opacity="0.5" d="M48.5668 18.9757C49.1861 20.389 48.5509 22.0325 47.1377 22.6518C45.7244 23.271 44.0809 22.6359 43.4616 21.2226C42.8423 19.8094 43.4775 18.1659 44.8907 17.5466C46.304 16.9273 47.9475 17.5625 48.5668 18.9757Z" fill="#FFFCF5"/>
</svg>
