<svg width="423" height="365" viewBox="0 0 423 365" fill="none" xmlns="http://www.w3.org/2000/svg">
<path d="M145.03 136.706C148.803 134.19 155.343 131.371 155.343 131.371V146.308L152.854 160.178C152.854 160.178 149.414 161.907 147.875 163.735C146.03 165.924 145.93 167.774 145.03 170.492C144.352 172.539 143.873 173.687 143.607 175.827C143.368 177.756 143.192 178.906 143.607 180.806C143.927 182.267 144.72 182.899 145.03 184.362C145.403 186.129 145.825 187.364 145.03 188.985C144.638 189.784 144.446 190.469 143.607 190.764C142.371 191.197 141.735 189.863 140.762 188.985C139.187 187.566 137.917 184.362 137.917 184.362C137.917 184.362 138.653 188.374 137.917 190.764C137.349 192.608 137.205 194.281 135.427 195.031C134.276 195.517 133.362 195.555 132.227 195.031C130.535 194.251 129.381 190.764 129.381 190.764C129.381 190.764 128.608 192.799 127.247 193.609C125.696 194.532 124.349 195.565 122.624 195.031C121.588 194.711 121.045 194.185 120.49 193.253C119.638 191.821 120.49 188.985 120.49 188.985C120.49 188.985 119.254 192.56 117.29 193.253C116.111 193.669 115.089 194.003 114.089 193.253C112.755 192.253 113.022 190.652 113.022 188.985C113.022 185.791 113.42 183.929 114.089 180.806C115.155 175.827 115.702 174.399 117.29 170.492C118.996 166.291 120.188 164.003 122.624 160.178C125.176 156.171 127.037 153.77 130.093 150.576L137.917 142.396C140.972 139.202 142.07 138.679 145.03 136.706Z" fill="#E93405"/>
<path d="M122.623 186.853C122.623 186.853 121.387 190.427 119.422 191.12C118.244 191.536 117.222 191.87 116.222 191.12C114.888 190.12 115.154 188.519 115.154 186.853C115.154 183.658 115.552 181.796 116.222 178.673C117.288 173.694 117.835 172.266 119.422 168.359C121.129 164.158 122.321 161.87 124.757 158.045C127.309 154.038 129.17 151.637 132.226 148.443C135.281 145.249 136.994 143.458 140.05 140.263C143.105 137.069 144.203 136.546 147.163 134.573C150.936 132.058 157.476 129.238 157.476 129.238V144.175L154.987 158.045C154.987 158.045 151.547 159.774 150.008 161.602C148.163 163.792 148.063 165.641 147.163 168.359C146.485 170.406 146.006 171.554 145.74 173.694C145.5 175.623 145.325 176.773 145.74 178.673C146.06 180.134 146.853 180.766 147.163 182.229C147.536 183.996 147.958 185.232 147.163 186.853C146.771 187.651 146.579 188.336 145.74 188.631C144.504 189.065 143.868 187.73 142.895 186.853C141.32 185.433 140.05 182.229 140.05 182.229C140.05 182.229 140.786 186.242 140.05 188.631C139.482 190.475 139.338 192.149 137.56 192.899C136.409 193.384 135.494 193.422 134.359 192.899C132.668 192.118 131.514 188.631 131.514 188.631M122.623 186.853L124.757 182.229M122.623 186.853C122.623 186.853 121.771 189.688 122.623 191.12C123.178 192.053 123.721 192.578 124.757 192.899C126.482 193.432 127.829 192.399 129.38 191.476C130.741 190.666 131.514 188.631 131.514 188.631M131.514 188.631L132.226 184.007" stroke="#FFAB0B" stroke-width="1.42258"/>
<path d="M224.695 129.238C224.695 129.238 228.905 128.848 231.097 127.46C232.756 126.409 233.5 125.698 234.298 123.904C235.2 121.873 235.009 119.28 235.009 117.146C235.009 113.674 234.653 112.794 234.653 109.322C234.653 107.1 234.353 105.834 234.653 103.632C234.986 101.193 235.35 99.7965 236.432 97.5858C237.397 95.6132 238.315 94.3636 239.632 92.6069C240.699 91.1845 241.325 89.8223 242.833 90.8286C243.9 91.5402 243.722 92.6069 243.544 93.3184C243.027 95.3885 242.833 95.7803 242.833 97.5858C245.194 96.8914 246.444 96.1611 248.879 95.8076C251.353 95.4484 252.825 95.3403 255.281 95.8076C257.309 96.1935 258.126 96.2186 260.26 97.5858C261.914 98.6454 263.132 99.301 263.816 101.142C264.708 103.543 263.711 105.348 262.394 107.544C261.383 109.228 259.193 111.1 259.193 111.1C259.193 111.1 257.833 117.245 256.703 121.058C255.736 124.324 255.328 125.665 254.214 128.883C252.613 133.506 251.39 135.684 248.879 139.196C246.879 141.994 245.478 143.4 242.833 145.598C240.522 147.518 239.106 148.496 236.432 149.865C233.537 151.347 228.607 152.711 228.607 152.711L224.695 141.33V129.238Z" fill="#E93405"/>
<path d="M245.677 96.1625C245.677 94.357 245.871 93.9653 246.388 91.8951C246.566 91.1836 246.744 90.1169 245.677 89.4053C244.168 88.399 243.187 89.414 242.12 90.8364C240.803 92.5931 239.863 94.1899 238.898 96.1625C237.817 98.3733 237.83 99.77 237.497 102.208C237.197 104.41 237.497 105.677 237.497 107.899C237.497 111.371 237.853 112.251 237.853 115.723C237.853 117.857 238.044 120.45 237.141 122.48C236.344 124.275 235.6 124.986 233.941 126.037C231.749 127.425 227.539 127.815 227.539 127.815V139.907L231.451 151.287C231.451 151.287 236.381 149.924 239.275 148.442C241.95 147.073 243.366 146.095 245.677 144.174C248.322 141.977 249.723 140.57 251.723 137.773C254.233 134.261 255.457 132.083 257.058 127.459C258.171 124.241 258.579 122.9 259.547 119.635C260.677 115.822 262.037 109.677 262.037 109.677M245.677 96.1625C244.427 97.5514 244.201 98.326 243.543 100.075C242.907 101.765 242.691 102.629 242.12 104.342C241.765 105.41 241.444 106.97 242.476 107.899C243.405 108.735 244.701 108.68 245.677 107.899C247.455 106.476 247.49 105.791 248.522 104.342C249.103 103.527 249.945 102.208 249.945 102.208C249.945 102.208 249.233 105.765 249.945 107.899C250.255 108.83 250.779 109.407 251.723 109.677C253.098 110.07 254.212 108.61 254.924 107.899C255.584 107.238 255.936 106.847 256.524 106.121M245.677 96.1625C248.038 95.4681 249.287 94.7378 251.723 94.3843C254.197 94.0252 255.669 93.917 258.124 94.3843C260.153 94.7702 260.97 94.7953 263.103 96.1625C264.757 97.2221 265.976 97.8777 266.66 99.719C267.552 102.12 266.555 103.925 265.237 106.121C264.227 107.805 262.037 109.677 262.037 109.677M257.769 103.631C257.769 103.631 257.149 105.426 256.524 106.121M256.524 106.121C256.707 107.934 257.075 109.56 258.836 110.033C259.641 110.249 262.037 109.677 262.037 109.677" stroke="#FFAB0B" stroke-width="1.42258"/>
<path d="M160.322 180.806C160.322 177.973 161.033 172.626 161.033 172.626L173.831 178.672L181.3 185.429C181.3 185.429 180.628 191.747 179.877 195.743C179.298 198.822 178.783 200.509 178.099 203.567C177.105 208.007 176.631 210.514 175.609 214.948C174.936 217.869 174.903 219.927 173.831 222.416C173.479 223.233 173.271 223.978 172.408 224.194C170.991 224.55 168.073 224.194 165.296 224.194H158.538H150.714C149.325 224.194 147.75 224.739 147.158 223.483C147.075 223.308 146.938 223.075 147.158 222.416C147.649 220.943 149.297 221.272 150.714 220.638C152.48 219.848 153.667 219.836 155.338 218.86C156.705 218.061 157.609 217.652 158.538 216.37C160.495 213.671 159.688 211.157 159.961 207.835C160.238 204.467 159.961 202.5 159.961 199.299V191.119C159.961 187.231 160.322 184.718 160.322 180.806Z" fill="#E93405"/>
<path d="M162.456 179.384C162.456 176.551 163.168 171.204 163.168 171.204L175.966 177.25L183.434 184.007C183.434 184.007 182.763 190.325 182.012 194.321C181.433 197.4 180.918 199.087 180.234 202.145C179.24 206.585 178.765 209.092 177.744 213.526C177.071 216.447 177.038 218.505 175.966 220.994C175.614 221.811 175.406 222.556 174.543 222.772C173.126 223.128 170.208 222.772 167.43 222.772H160.673H152.849C151.46 222.772 149.885 223.317 149.292 222.061C149.21 221.886 149.073 221.653 149.292 220.994C149.784 219.521 151.432 219.85 152.849 219.216C154.615 218.426 155.802 218.414 157.472 217.438C158.84 216.639 159.744 216.23 160.673 214.948C162.629 212.249 161.823 209.735 162.096 206.413C162.372 203.045 162.096 201.078 162.096 197.877V189.698C162.096 185.809 162.456 183.296 162.456 179.384Z" stroke="#FFAB0B" stroke-width="1.42258"/>
<path d="M198.377 195.031C198.029 191.437 197.666 186.14 197.666 186.14L206.913 183.651L218.293 174.76V183.651V189.697V199.655V209.257V216.37C218.293 218.148 219.005 218.504 221.139 219.215C223.514 220.007 223.984 220.282 227.184 221.349C228.541 221.801 229.318 221.705 230.385 223.127C230.969 223.905 231.255 224.826 230.385 225.261C229.674 225.617 227.896 225.617 227.184 225.617H221.139H213.314C210.814 225.617 207.624 225.889 206.913 225.617C205.33 225.011 204.505 224.374 203.356 223.127C200.912 220.476 201.096 215.659 200.867 214.236C200.637 212.814 199.444 203.567 199.444 203.567C199.444 203.567 198.677 198.123 198.377 195.031Z" fill="#E93405"/>
<path d="M200.51 193.61C200.161 190.015 199.799 184.719 199.799 184.719L209.046 182.229L220.426 173.338V182.229V188.275V198.233V207.835V214.948C220.426 216.726 221.137 217.082 223.271 217.793C225.647 218.585 226.116 218.86 229.317 219.927C230.674 220.379 231.451 220.283 232.518 221.705C233.101 222.483 233.388 223.405 232.518 223.839C231.807 224.195 230.029 224.195 229.317 224.195H223.271H215.447C212.947 224.195 209.757 224.467 209.046 224.195C207.462 223.589 206.638 222.952 205.489 221.705C203.045 219.054 203.229 214.237 203 212.814C202.77 211.392 201.577 202.145 201.577 202.145C201.577 202.145 200.81 196.701 200.51 193.61Z" stroke="#FFAB0B" stroke-width="1.42258"/>
<path d="M156.41 126.393C158.728 122.619 160.666 120.906 163.879 117.858C166.601 115.275 168.168 113.805 171.347 111.812C174.348 109.931 176.148 108.958 179.527 107.9C183.67 106.602 186.211 106.54 190.552 106.477C195.444 106.406 198.223 106.84 203 107.9C207.716 108.947 210.481 109.523 214.736 111.812C218.748 113.971 220.888 115.582 223.983 118.925C227.333 122.544 228.731 125.09 230.74 129.594C232.511 133.567 233.224 135.973 233.941 140.263C234.878 145.88 234.967 149.244 233.941 154.845C233.204 158.863 232.527 161.13 230.74 164.803C228.479 169.449 226.697 171.951 222.916 175.472C219.08 179.043 216.317 180.439 211.535 182.585C206.4 184.889 203.25 185.805 197.665 186.497C193.116 187.061 190.456 187.212 185.929 186.497C181.157 185.744 178.517 184.738 174.192 182.585C169.812 180.405 167.577 178.675 163.879 175.472C160.686 172.707 158.768 171.153 156.41 167.648C154.19 164.348 153.327 162.198 152.142 158.401C150.843 154.238 150.317 151.737 150.364 147.376C150.408 143.311 151.043 141.026 152.125 137.126L152.142 137.063C153.342 132.738 154.062 130.217 156.41 126.393Z" fill="white" stroke="#FFAB0B" stroke-width="1.42258"/>
<path d="M154.988 127.815C157.306 124.041 159.244 122.328 162.457 119.28C165.179 116.697 166.746 115.227 169.925 113.234C172.926 111.353 174.726 110.38 178.105 109.322C182.248 108.024 184.789 107.962 189.13 107.899C194.022 107.828 196.801 108.261 201.578 109.322C206.294 110.369 209.06 110.944 213.314 113.234C217.326 115.393 219.466 117.003 222.561 120.347C225.911 123.966 227.31 126.511 229.318 131.016C231.089 134.989 231.803 137.395 232.519 141.685C233.456 147.302 233.545 150.666 232.519 156.267C231.782 160.285 231.105 162.552 229.318 166.225C227.057 170.871 225.275 173.373 221.494 176.894C217.658 180.465 214.895 181.861 210.113 184.007C204.979 186.311 201.828 187.227 196.243 187.919C191.695 188.483 189.034 188.634 184.507 187.919C179.735 187.165 177.096 186.16 172.771 184.007C168.39 181.827 166.155 180.097 162.457 176.894C159.264 174.129 157.346 172.574 154.988 169.07C152.768 165.77 151.905 163.62 150.721 159.823C149.421 155.66 148.895 153.159 148.942 148.798C148.986 144.733 149.621 142.448 150.703 138.548L150.721 138.484C151.921 134.16 152.64 131.639 154.988 127.815Z" fill="#E93405"/>
<path d="M156.41 126.393C158.728 122.619 160.666 120.906 163.879 117.858C166.601 115.275 168.168 113.805 171.347 111.812C174.348 109.931 176.148 108.958 179.527 107.9C183.67 106.602 186.211 106.54 190.552 106.477C195.444 106.406 198.223 106.84 203 107.9C207.716 108.947 210.481 109.523 214.736 111.812C218.748 113.971 220.888 115.582 223.983 118.925C227.333 122.544 228.731 125.09 230.74 129.594C232.511 133.567 233.224 135.973 233.941 140.263C234.878 145.88 234.967 149.244 233.941 154.845C233.204 158.863 232.527 161.13 230.74 164.803C228.479 169.449 226.697 171.951 222.916 175.472C219.08 179.043 216.317 180.439 211.535 182.585C206.4 184.889 203.25 185.805 197.665 186.497C193.116 187.061 190.456 187.212 185.929 186.497C181.157 185.744 178.517 184.738 174.192 182.585C169.812 180.405 167.577 178.675 163.879 175.472C160.686 172.707 158.768 171.153 156.41 167.648C154.19 164.348 153.327 162.198 152.142 158.401C150.843 154.238 150.317 151.737 150.364 147.376C150.408 143.311 151.043 141.026 152.125 137.126L152.142 137.063C153.342 132.738 154.062 130.217 156.41 126.393Z" stroke="#FFAB0B" stroke-width="1.42258"/>
<ellipse cx="188.419" cy="122.836" rx="2.48951" ry="2.84515" fill="#2F245E"/>
<ellipse cx="197.665" cy="122.836" rx="2.48951" ry="2.84515" fill="#2F245E"/>
<path d="M196.256 138.855C196.568 139.167 196.57 139.674 196.237 139.963C194.511 141.463 192.368 142.412 190.085 142.677C187.536 142.972 184.963 142.398 182.782 141.048C180.601 139.697 178.94 137.649 178.069 135.236C177.288 133.074 177.183 130.733 177.756 128.519C177.866 128.093 178.321 127.868 178.739 128.008C179.157 128.148 179.379 128.6 179.273 129.028C178.811 130.899 178.911 132.871 179.57 134.694C180.319 136.769 181.746 138.53 183.622 139.691C185.497 140.852 187.71 141.346 189.901 141.092C191.827 140.868 193.637 140.079 195.106 138.831C195.442 138.546 195.945 138.543 196.256 138.855Z" fill="#2F245E"/>
<path d="M158.189 123.009C158.189 123.009 179.198 125.446 197.997 108.535C198.331 108.69 162.163 71.1035 162.163 71.1035L158.189 123.003V123.009Z" fill="#FFAB0B"/>
<path d="M180.873 100.446L183.458 102.954L186.985 102.245L185.4 105.48L187.169 108.619L183.601 108.106L181.165 110.757L180.546 107.207L177.275 105.712L180.456 104.026L180.873 100.446Z" fill="#FFFCF5"/>
<path d="M161.503 80.8535L161.425 80.776L160.967 86.7445L161.652 86.0059L165.214 86.5122L163.451 83.3731L165.035 80.1387L161.503 80.8535Z" fill="#FFFCF5"/>
<path d="M170.776 86.8877L172.015 88.0969L173.713 87.7514L172.95 89.3061L173.802 90.8131L172.087 90.5689L170.913 91.8436L170.621 90.14L169.049 89.4193L170.574 88.6091L170.776 86.8877Z" fill="#FFFCF5"/>
<path d="M164.052 99.8447L165.291 101.048L166.988 100.708L166.226 102.257L167.078 103.764L165.362 103.526L164.189 104.795L163.891 103.091L162.324 102.37L163.849 101.56L164.052 99.8447Z" fill="#FFFCF5"/>
<path d="M166.225 114.45L167.464 115.653L169.162 115.308L168.4 116.863L169.251 118.37L167.536 118.125L166.362 119.4L166.065 117.697L164.498 116.976L166.023 116.166L166.225 114.45Z" fill="#FFFCF5"/>
<g style="mix-blend-mode:multiply">
<path d="M197.997 108.54C198.307 108.689 166.761 75.8917 162.615 71.5791C162.43 71.6089 162.264 71.6327 162.121 71.6565L161.704 77.083C162.293 76.9281 162.913 76.7554 163.55 76.5529C167.511 75.2782 172.241 85.452 179.049 94.4763C185.381 102.875 189.777 112.555 158.696 116.474L158.195 123.02C158.195 123.02 179.204 125.457 198.003 108.546L197.997 108.54Z" fill="#CDD0D1"/>
</g>
<path d="M166.923 66.6538C168.031 69.7632 166.411 73.1823 163.301 74.2902C160.192 75.3981 156.773 73.7779 155.665 70.6686C154.557 67.5592 156.177 64.1401 159.287 63.0322C162.396 61.9243 165.815 63.5445 166.923 66.6538Z" fill="#7263B1"/>
<g style="mix-blend-mode:multiply">
<path d="M162.516 62.8174C162.516 62.8174 162.522 62.8293 162.522 62.8412C163.63 65.9505 162.01 69.3696 158.9 70.4776C157.822 70.8588 156.708 70.9124 155.666 70.692C156.786 73.7835 160.193 75.3977 163.29 74.2898C166.4 73.1819 168.02 69.7628 166.912 66.6534C166.185 64.6222 164.476 63.2343 162.51 62.8174H162.516Z" fill="#CDD0D1"/>
</g>
<path d="M188.758 132.033C188.758 135.372 191.465 138.079 194.804 138.079C198.142 138.079 200.85 135.372 200.85 132.033C200.85 128.694 198.142 125.987 194.804 125.987C191.465 125.987 188.758 128.694 188.758 132.033Z" fill="#E93405"/>
<path d="M194.525 129.551C194.525 130.742 195.49 131.708 196.681 131.708C197.872 131.708 198.838 130.742 198.838 129.551C198.838 128.36 197.872 127.395 196.681 127.395C195.49 127.395 194.525 128.36 194.525 129.551Z" fill="#FFFCF5"/>
<g style="mix-blend-mode:multiply">
<path d="M190.729 127.575C190.683 127.877 190.652 128.184 190.652 128.5C190.652 131.839 193.359 134.546 196.698 134.546C198.268 134.546 199.694 133.941 200.768 132.958C200.321 135.859 197.826 138.079 194.803 138.079C191.464 138.079 188.757 135.372 188.757 132.033C188.757 130.264 189.519 128.681 190.729 127.575Z" fill="#CDD0D1"/>
</g>
<path d="M160 235.312C160 235.312 172.494 235.312 180.5 235.312C186.358 235.312 189.684 234.61 195.5 235.312C200.673 235.936 203.307 237.888 208.5 238.312C211.419 238.55 213.079 238.524 216 238.312C221.577 237.907 224.43 235.796 230 235.312C233.891 234.974 240 235.312 240 235.312" stroke="#FFAB0B" stroke-width="2"/>
<path d="M232.006 355.068C232.006 355.068 249.761 368.9 276.2 363.917C276.415 364.247 264.309 310.076 264.309 310.076L232 355.075L232.006 355.068Z" fill="#50439F"/>
<path d="M256.542 346.315C256.542 344.223 254.843 342.524 252.752 342.524C250.66 342.524 248.961 344.223 248.961 346.315C248.961 348.407 250.66 350.106 252.752 350.106C254.843 350.106 256.542 348.407 256.542 346.315Z" fill="#FFFCF5"/>
<path d="M268.072 341.256C268.072 340.001 267.058 338.98 265.803 338.98C264.548 338.98 263.527 340.001 263.527 341.256C263.527 342.511 264.548 343.532 265.803 343.532C267.058 343.532 268.072 342.511 268.072 341.256Z" fill="#FFFCF5"/>
<path d="M240.633 353.433C240.633 352.178 239.619 351.157 238.363 351.157C237.108 351.157 236.088 352.178 236.088 353.433C236.088 354.688 237.108 355.708 238.363 355.708C239.619 355.708 240.633 354.694 240.633 353.433Z" fill="#FFFCF5"/>
<path d="M261.08 323.007C261.08 325.099 262.779 326.798 264.871 326.798C266.024 326.798 267.051 326.284 267.748 325.473C267.279 323.362 266.836 321.366 266.43 319.553C265.955 319.337 265.428 319.217 264.871 319.217C262.779 319.217 261.08 320.916 261.08 323.007Z" fill="#FFFCF5"/>
<path d="M271.419 363.543C271.419 361.452 269.72 359.753 267.628 359.753C265.537 359.753 263.838 361.452 263.838 363.543C263.838 364.057 263.939 364.545 264.123 364.995C266.405 365.02 268.782 364.913 271.248 364.653C271.356 364.304 271.413 363.93 271.413 363.55L271.419 363.543Z" fill="#FFFCF5"/>
<path d="M251.757 331.159C253.132 331.159 254.241 330.044 254.241 328.674C254.241 327.61 253.569 326.703 252.625 326.354L249.836 330.24C250.292 330.798 250.977 331.166 251.757 331.166V331.159Z" fill="#FFFCF5"/>
<path d="M274.583 356.324C274.07 356.781 273.74 357.44 273.74 358.181C273.74 359.303 274.488 360.235 275.502 360.552C275.249 359.386 274.938 357.96 274.583 356.331V356.324Z" fill="#FFFCF5"/>
<g style="mix-blend-mode:multiply">
<path d="M276.206 363.911C276.409 364.215 265.855 316.954 264.467 310.742C264.283 310.666 264.118 310.596 263.978 310.539L260.6 315.242C261.221 315.433 261.88 315.61 262.571 315.775C266.875 316.808 265.557 328.674 266.755 340.642C267.87 351.779 266.514 363.011 236.082 349.389L232.006 355.062C232.006 355.062 249.761 368.893 276.199 363.911H276.206Z" fill="#CDD0D1"/>
</g>
<path d="M271.104 308.65C270.394 312.092 267.028 314.304 263.587 313.594C260.145 312.884 257.932 309.518 258.642 306.077C259.352 302.641 262.718 300.422 266.16 301.132C269.602 301.842 271.814 305.208 271.104 308.644V308.65Z" fill="#FFAB0B"/>
<g style="mix-blend-mode:multiply">
<path d="M269.215 302.724C269.215 302.724 269.215 302.743 269.215 302.749C268.505 306.191 265.139 308.403 261.697 307.693C260.506 307.446 259.466 306.876 258.642 306.102C257.951 309.531 260.157 312.885 263.586 313.588C267.028 314.298 270.388 312.086 271.104 308.644C271.567 306.394 270.781 304.188 269.222 302.724H269.215Z" fill="#CDD0D1"/>
</g>
<path d="M23.6837 252.258C23.6837 252.258 18.3166 243 3.96967 243C-1.75479 243 -0.254211 263.317 2.0721 263.317C4.3984 263.317 14.1403 266.033 23.3979 256.489C23.3979 254.298 23.6837 252.25 23.6837 252.25V252.258Z" fill="#FFAB0B"/>
<mask id="mask0_1113_4595" style="mask-type:luminance" maskUnits="userSpaceOnUse" x="0" y="243" width="24" height="21">
<path d="M23.6837 252.258C23.6837 252.258 18.3166 243 3.96967 243C-1.75479 243 -0.254211 263.317 2.0721 263.317C4.3984 263.317 14.1403 266.033 23.3979 256.489C23.3979 254.298 23.6837 252.25 23.6837 252.25V252.258Z" fill="white"/>
</mask>
<g mask="url(#mask0_1113_4595)">
<g style="mix-blend-mode:multiply">
<path d="M25.6609 258.173C25.6609 255.981 23.684 252.258 23.684 252.258C23.684 252.258 21.9293 249.241 17.761 246.652C19.4919 253.6 14.8234 260.166 -0.373047 258.951C-0.373047 261.007 1.06402 269.121 1.06402 269.121C1.06402 269.121 16.4113 267.708 25.6689 258.173H25.6609Z" fill="#CDD0D1"/>
</g>
</g>
<path d="M26.1523 252.258C26.1523 252.258 31.5195 243 45.8664 243C51.5908 243 50.0903 263.317 47.764 263.317C45.4377 263.317 35.6957 266.033 26.4382 256.489C26.4382 254.298 26.1523 252.25 26.1523 252.25V252.258Z" fill="#FFAB0B"/>
<mask id="mask1_1113_4595" style="mask-type:luminance" maskUnits="userSpaceOnUse" x="26" y="243" width="24" height="21">
<path d="M26.1523 252.258C26.1523 252.258 31.5195 243 45.8664 243C51.5908 243 50.0903 263.317 47.764 263.317C45.4377 263.317 35.6957 266.033 26.4382 256.489C26.4382 254.298 26.1523 252.25 26.1523 252.25V252.258Z" fill="white"/>
</mask>
<g mask="url(#mask1_1113_4595)">
<g style="mix-blend-mode:multiply">
<path d="M24.1759 258.173C24.1759 255.981 26.1529 252.258 26.1529 252.258C26.1529 252.258 27.9075 249.241 32.0758 246.652C30.345 253.6 35.0135 260.166 50.2099 258.951C50.2099 261.007 48.7728 269.121 48.7728 269.121C48.7728 269.121 33.4256 267.708 24.168 258.173H24.1759Z" fill="#CDD0D1"/>
</g>
</g>
<path d="M31.456 253.497C31.456 257.181 28.4707 260.174 24.7788 260.174C21.0869 260.174 18.1016 257.188 18.1016 253.497C18.1016 249.805 21.0869 246.819 24.7788 246.819C28.4707 246.819 31.456 249.805 31.456 253.497Z" fill="#FFAB0B"/>
<path opacity="0.5" d="M25.851 250.971C25.851 252.512 24.6044 253.766 23.0642 253.766C21.5239 253.766 20.2773 252.52 20.2773 250.971C20.2773 249.423 21.5239 248.185 23.0642 248.185C24.6044 248.185 25.851 249.431 25.851 250.971Z" fill="#FFFCF5"/>
<mask id="mask2_1113_4595" style="mask-type:luminance" maskUnits="userSpaceOnUse" x="26" y="243" width="24" height="21">
<path d="M26.1523 252.258C26.1523 252.258 31.5195 243 45.8664 243C51.5908 243 50.0903 263.317 47.764 263.317C45.4377 263.317 35.6957 266.033 26.4382 256.489C26.4382 254.298 26.1523 252.25 26.1523 252.25V252.258Z" fill="white"/>
</mask>
<g mask="url(#mask2_1113_4595)">
<path d="M35.4726 244.597C35.02 243.318 33.7894 242.945 32.7175 243.819C31.6457 244.692 31.0343 246.431 31.3837 247.653C31.733 248.876 33.0033 249.162 34.1784 248.352C35.3535 247.534 35.9251 245.875 35.4726 244.597Z" fill="#FFF8FC"/>
<path d="M47.7717 241.635C46.4141 241.539 45.0485 242.619 44.7468 244.017C44.4451 245.414 45.3661 246.645 46.7714 246.788C48.1846 246.93 49.5185 245.89 49.7646 244.453C50.0107 243.016 49.1215 241.738 47.7638 241.635H47.7717Z" fill="#FFF8FC"/>
<path d="M36.5132 261.476C36.6085 260.046 35.6002 258.625 34.2743 258.347C32.9483 258.061 31.7336 259.046 31.5748 260.491C31.4081 261.944 32.4084 263.31 33.7979 263.564C35.1953 263.826 36.418 262.897 36.5132 261.476Z" fill="#FFF8FC"/>
<path d="M51.701 252.496C51.3437 252.178 50.9388 251.916 50.518 251.765C49.2159 251.297 48.1837 252.059 48.1758 253.409C48.1758 254.767 49.2556 256.148 50.6371 256.529C51.5819 256.791 52.3838 256.529 52.7807 255.95C52.4711 254.767 52.1138 253.615 51.701 252.504V252.496Z" fill="#FFF8FC"/>
<path d="M40.2522 250.924C38.8072 250.686 37.4972 251.639 37.2987 253.044C37.1002 254.449 38.0927 255.736 39.5456 255.902C40.9986 256.077 42.3562 255.124 42.5468 253.79C42.7373 252.449 41.6972 251.162 40.2522 250.924Z" fill="#FFF8FC"/>
<path d="M45.4522 261.722C44.6027 262.809 44.4042 264.651 45.0235 265.755C45.6427 266.866 46.9448 266.859 47.9055 265.803C48.8662 264.747 49.0409 262.992 48.3184 261.849C47.5879 260.705 46.3097 260.618 45.4601 261.714L45.4522 261.722Z" fill="#FFF8FC"/>
</g>
<path d="M9.46475 244.993C10.4334 245.152 11.3385 244.763 11.8943 244.072C10.4969 243.667 8.95663 243.357 7.27344 243.183C7.57514 244.088 8.40879 244.826 9.46475 244.993Z" fill="#FFF8FC"/>
<path d="M17.2776 248.653C18.143 248.772 18.9608 248.462 19.5325 247.883C18.3495 246.97 16.8886 246.049 15.126 245.255C15.0863 245.382 15.0466 245.517 15.0307 245.652C14.8243 247.097 15.8326 248.447 17.2856 248.653H17.2776Z" fill="#FFF8FC"/>
<path d="M4.62875 251.027C5.28773 249.948 5.1607 248.098 4.3588 246.978C3.54896 245.851 2.27068 245.891 1.50054 247.002C0.730394 248.114 0.833615 249.868 1.75461 250.964C2.6756 252.06 3.96977 252.107 4.63669 251.027H4.62875Z" fill="#FFF8FC"/>
<path d="M9.38514 253.695C9.28986 255.124 10.2982 256.545 11.6241 256.823C12.95 257.109 14.1568 256.124 14.3236 254.679C14.4903 253.226 13.4979 251.861 12.1005 251.607C10.7031 251.345 9.48042 252.274 9.38514 253.703V253.695Z" fill="#FFF8FC"/>
<path d="M7.51042 262.777C7.16902 261.42 5.97013 259.983 4.87446 259.633C3.7788 259.284 3.08012 260.213 3.29449 261.634C3.3977 262.317 3.72322 262.976 4.1599 263.508C5.09678 263.603 6.25595 263.69 7.57393 263.667C7.61362 263.405 7.59775 263.103 7.51042 262.769V262.777Z" fill="#FFF8FC"/>
<path d="M17.2926 259.371C16.0778 259.197 14.9822 260.189 14.8393 261.65C14.8154 261.872 14.8234 262.087 14.8393 262.301C16.1016 261.825 17.3958 261.182 18.7138 260.34C18.4041 259.816 17.9039 259.451 17.2926 259.364V259.371Z" fill="#FFF8FC"/>
<path d="M47.1066 264.032C47.1066 264.032 38.4604 257.728 25.3362 263.508C20.0961 265.819 29.6554 283.81 31.7911 282.873C33.9269 281.936 43.9308 280.491 48.5596 268.034C47.6783 266.033 47.1066 264.04 47.1066 264.04V264.032Z" fill="#E93405"/>
<path d="M27.7337 262.563L26.3125 275.537C27.3843 277.831 28.6229 279.927 29.6948 281.293L31.8623 261.476C30.5523 261.714 29.1787 262.063 27.7337 262.563Z" fill="#FFF8FC"/>
<path d="M36.3164 281.261C37.6264 280.705 39.0953 279.943 40.5879 278.871L42.4378 261.928C41.3104 261.603 39.9924 261.325 38.5157 261.174L36.3244 281.253L36.3164 281.261Z" fill="#FFF8FC"/>
<mask id="mask3_1113_4595" style="mask-type:luminance" maskUnits="userSpaceOnUse" x="23" y="261" width="26" height="22">
<path d="M47.1066 264.032C47.1066 264.032 38.4604 257.728 25.3362 263.508C20.0961 265.819 29.6554 283.81 31.7911 282.873C33.9269 281.936 43.9308 280.491 48.5596 268.034C47.6783 266.033 47.1066 264.04 47.1066 264.04V264.032Z" fill="white"/>
</mask>
<g mask="url(#mask3_1113_4595)">
<g style="mix-blend-mode:multiply">
<path d="M51.2982 268.645C50.4169 266.644 47.1061 264.024 47.1061 264.024C47.1061 264.024 44.2876 261.968 39.4285 261.285C43.8112 266.946 42.1915 274.838 27.7891 279.848C28.6148 281.73 33.2039 288.582 33.2039 288.582C33.2039 288.582 46.6774 281.102 51.3062 268.645H51.2982Z" fill="#CDD0D1"/>
</g>
</g>
<path d="M49.3691 263.032C49.3691 263.032 50.5521 252.393 63.6763 246.613C68.9165 244.302 75.7286 263.508 73.6008 264.445C71.4651 265.382 63.6525 271.789 51.3382 266.795C50.4569 264.794 49.3691 263.032 49.3691 263.032Z" fill="#E93405"/>
<path d="M55.5371 268.121C56.9265 268.43 58.2445 268.605 59.4831 268.66L61.7935 247.533C60.158 248.391 58.7209 249.312 57.4823 250.28L55.5371 268.121Z" fill="#FFF8FC"/>
<path d="M68.2558 248.915L66.1836 267.875C67.8271 267.406 69.2245 266.795 70.3757 266.215L71.6222 254.814C70.6695 252.623 69.5024 250.487 68.2558 248.915Z" fill="#FFF8FC"/>
<mask id="mask4_1113_4595" style="mask-type:luminance" maskUnits="userSpaceOnUse" x="49" y="246" width="26" height="23">
<path d="M49.3691 263.032C49.3691 263.032 50.5521 252.393 63.6763 246.613C68.9165 244.302 75.7286 263.508 73.6008 264.445C71.4651 265.382 63.6525 271.789 51.3382 266.795C50.4569 264.794 49.3691 263.032 49.3691 263.032Z" fill="white"/>
</mask>
<g mask="url(#mask4_1113_4595)">
<g style="mix-blend-mode:multiply">
<path d="M49.9486 269.249C49.0673 267.248 49.377 263.04 49.377 263.04C49.377 263.04 49.766 259.571 52.5369 255.521C53.7517 262.572 60.675 266.708 74.0929 259.467C74.9187 261.349 76.8798 269.36 76.8798 269.36C76.8798 269.36 62.2629 274.251 49.9486 269.249Z" fill="#CDD0D1"/>
</g>
</g>
<path d="M54.7215 262.031C56.2062 265.405 54.6738 269.343 51.2995 270.836C47.9252 272.321 43.9871 270.788 42.5024 267.414C41.0177 264.04 42.5501 260.102 45.9244 258.609C49.2987 257.124 53.2368 258.657 54.7294 262.031H54.7215Z" fill="#E93405"/>
<path opacity="0.5" d="M48.5668 261.976C49.1861 263.389 48.5509 265.032 47.1377 265.652C45.7244 266.271 44.0809 265.636 43.4616 264.223C42.8423 262.809 43.4775 261.166 44.8907 260.547C46.304 259.927 47.9475 260.562 48.5668 261.976Z" fill="#FFFCF5"/>
<path d="M49.043 68.8585C49.043 68.8585 71.2822 71.4375 91.1821 53.5364C91.5352 53.7003 53.2487 13.9131 53.2487 13.9131L49.043 68.8522V68.8585Z" fill="#E93405"/>
<path d="M73.0546 44.9736L75.7911 47.6282L79.5239 46.8779L77.8467 50.3017L79.7194 53.6247L75.9425 53.0824L73.3635 55.8883L72.7078 52.1303L69.2461 50.5476L72.6132 48.7632L73.0546 44.9736Z" fill="#FFFCF5"/>
<path d="M52.548 24.2352L52.466 24.1532L51.9805 30.4712L52.7056 29.6894L56.4762 30.2253L54.6098 26.9024L56.2871 23.4785L52.548 24.2352Z" fill="#FFFCF5"/>
<path d="M62.3657 30.6221L63.6772 31.9021L65.4743 31.5363L64.6672 33.1821L65.5688 34.7773L63.7529 34.5188L62.5107 35.8682L62.2017 34.0648L60.5371 33.3019L62.1513 32.4443L62.3657 30.6221Z" fill="#FFFCF5"/>
<path d="M55.2485 44.3369L56.56 45.6106L58.3571 45.2512L57.55 46.8906L58.4516 48.4859L56.6357 48.2337L55.3935 49.5767L55.0782 47.7734L53.4199 47.0104L55.0341 46.1529L55.2485 44.3369Z" fill="#FFFCF5"/>
<path d="M57.5493 59.7979L58.8608 61.0715L60.6579 60.7058L59.8508 62.3515L60.7524 63.9468L58.9365 63.6883L57.6943 65.0377L57.379 63.2343L55.7207 62.4713L57.3349 61.6138L57.5493 59.7979Z" fill="#FFFCF5"/>
<g style="mix-blend-mode:multiply">
<path d="M91.1817 53.5421C91.5095 53.6998 58.116 18.9821 53.7275 14.417C53.532 14.4485 53.3554 14.4737 53.2041 14.499L52.7627 20.2432C53.387 20.0793 54.0427 19.8964 54.7174 19.682C58.9105 18.3327 63.917 29.1023 71.1241 38.655C77.8268 47.5457 82.4802 57.792 49.5785 61.941L49.0488 68.8706C49.0488 68.8706 71.2881 71.4495 91.188 53.5484L91.1817 53.5421Z" fill="#CDD0D1"/>
</g>
<path d="M58.2863 9.20275C59.4591 12.4942 57.744 16.1135 54.4526 17.2863C51.1612 18.4591 47.5418 16.744 46.369 13.4526C45.1962 10.1612 46.9113 6.54185 50.2027 5.36904C53.4942 4.19623 57.1135 5.91131 58.2863 9.20275Z" fill="#50439F"/>
<g style="mix-blend-mode:multiply">
<path d="M53.6204 5.14258C53.6204 5.14258 53.6267 5.15518 53.6267 5.16779C54.7995 8.45922 53.0844 12.0785 49.793 13.2513C48.6517 13.6549 47.4726 13.7116 46.3691 13.4783C47.5546 16.7509 51.1613 18.4596 54.4401 17.2868C57.7315 16.114 59.4466 12.4947 58.2738 9.20327C57.5045 7.05312 55.6949 5.58396 53.6141 5.14258H53.6204Z" fill="#CDD0D1"/>
</g>
<g clip-path="url(#clip0_1113_4595)">
<path d="M366.007 241.6C366.007 241.6 352.774 248.086 351.59 250.017C350.405 251.948 350.189 253.773 359.022 255.705C367.853 257.636 381.747 261.07 390.579 259.676C399.411 258.28 411.043 250.662 412.12 249.482C413.198 248.302 366.009 241.6 366.009 241.6H366.007Z" fill="#50439F"/>
<path d="M365.807 242.829C365.699 242.507 365.915 224.587 369.468 219.758C372.737 215.318 383.147 212.677 393.055 213.106C393.055 213.106 407.45 213.862 414.273 218.578C419.551 222.226 423.105 231.24 422.998 234.138C422.89 237.035 421.032 244.215 420.413 245.835C419.982 246.962 417.289 248.142 415.782 248.732C414.005 249.427 410.289 249.966 410.289 249.966C410.289 249.966 388.973 250.656 377.008 247.552C366.669 244.869 365.807 242.83 365.807 242.83V242.829Z" fill="#E93405"/>
<path d="M412.119 249.483L411.258 249.375C411.258 249.375 401.78 256.027 393.702 258.174C385.625 260.32 377.439 258.495 363.761 255.813C351.604 253.43 351.017 251.638 351.037 251.269C350.741 252.751 352.116 254.196 359.022 255.706C367.853 257.637 381.747 261.071 390.58 259.676C399.411 258.281 411.043 250.663 412.12 249.483H412.119Z" fill="#FFAB0B"/>
<path d="M416.652 220.68C416.7 221.829 416.633 222.998 416.03 223.957C415.137 225.379 413.277 225.929 411.598 225.799C409.92 225.67 409.955 224.992 408.356 224.466C407.964 224.337 407.476 224.236 407.18 224.524C406.949 224.751 406.948 225.117 406.962 225.439C407.268 232.724 407.057 241.594 405.051 248.625C404.931 249.047 404.832 249.606 404.68 250.097C409.095 250.141 410.289 249.963 410.289 249.963C410.289 249.963 414.005 249.424 415.781 248.729C417.289 248.139 419.981 246.959 420.412 245.832C421.032 244.212 422.889 237.033 422.997 234.135C423.087 231.698 420.588 224.937 416.651 220.678L416.652 220.68Z" fill="#BA2A04"/>
<path d="M393.057 213.106C384.615 212.741 375.81 214.604 371.368 217.909C371.2 218.205 371.069 218.516 371 218.848C370.722 220.18 371.507 221.532 372.533 222.429C374.467 224.122 377.142 224.625 379.677 225.066C385.293 226.042 391.305 226.972 396.505 224.645C398.434 223.781 400.224 222.477 402.32 222.189C405.565 221.745 408.863 223.842 412.028 222.999C412.686 222.824 413.318 222.518 413.804 222.044C414.637 221.232 414.896 220.15 414.838 218.994C414.652 218.85 414.466 218.709 414.276 218.579C407.451 213.861 393.057 213.106 393.057 213.106Z" fill="#ED5D37"/>
<path d="M377.089 247.555L376.928 247.545C376.941 247.341 378.249 227.195 380.599 222.617C382.924 218.089 389.133 214.682 393.795 213.776L393.826 213.935C389.202 214.833 383.045 218.208 380.742 222.692C378.408 227.238 377.102 247.353 377.089 247.555Z" fill="#BA2A04"/>
<path d="M378.058 247.77L377.896 247.759C377.896 247.759 377.912 247.527 377.94 247.109L378.102 247.119C378.072 247.538 378.058 247.769 378.058 247.769V247.77ZM378.147 246.474L377.985 246.462C378 246.266 378.015 246.051 378.033 245.816L378.194 245.828C378.177 246.061 378.161 246.278 378.147 246.473V246.474ZM378.244 245.186L378.083 245.174C378.098 244.97 378.116 244.755 378.134 244.53L378.295 244.543C378.277 244.766 378.261 244.982 378.244 245.186ZM378.347 243.898L378.186 243.885C378.203 243.677 378.222 243.462 378.239 243.242L378.401 243.255C378.382 243.475 378.364 243.69 378.347 243.898ZM378.457 242.613L378.295 242.599L378.352 241.956L378.514 241.97L378.457 242.612V242.613ZM378.571 241.329L378.409 241.315C378.428 241.103 378.448 240.889 378.469 240.673L378.63 240.688C378.61 240.905 378.59 241.119 378.571 241.33V241.329ZM378.692 240.045L378.53 240.03C378.55 239.818 378.572 239.604 378.593 239.387L378.755 239.403C378.733 239.619 378.712 239.833 378.692 240.045ZM378.819 238.762L378.657 238.745C378.679 238.533 378.701 238.319 378.724 238.103L378.884 238.12C378.861 238.335 378.839 238.549 378.817 238.761L378.819 238.762ZM378.954 237.479L378.794 237.461C378.816 237.248 378.84 237.034 378.864 236.82L379.024 236.838C379 237.052 378.976 237.266 378.954 237.479ZM379.095 236.198L378.935 236.181C378.959 235.968 378.984 235.755 379.009 235.541L379.169 235.56C379.144 235.773 379.119 235.987 379.095 236.2V236.198ZM379.246 234.918L379.086 234.899C379.112 234.685 379.138 234.471 379.165 234.257L379.325 234.277C379.299 234.491 379.272 234.705 379.246 234.919V234.918ZM379.406 233.637L379.246 233.617C379.273 233.403 379.302 233.19 379.33 232.977L379.49 232.999C379.462 233.212 379.433 233.424 379.406 233.637ZM379.577 232.36L379.417 232.338C379.446 232.124 379.476 231.911 379.507 231.699L379.667 231.722C379.636 231.933 379.607 232.146 379.577 232.36ZM379.761 231.084L379.601 231.061C379.633 230.847 379.666 230.634 379.698 230.422L379.858 230.447C379.825 230.658 379.793 230.87 379.761 231.084ZM379.96 229.811L379.801 229.785C379.837 229.571 379.871 229.358 379.908 229.149L380.067 229.176C380.032 229.385 379.996 229.597 379.96 229.811ZM380.179 228.541L380.02 228.513C380.059 228.297 380.098 228.086 380.138 227.878L380.297 227.908C380.257 228.116 380.218 228.327 380.18 228.542L380.179 228.541ZM380.421 227.276L380.263 227.244C380.307 227.029 380.352 226.818 380.396 226.611L380.554 226.645C380.509 226.851 380.465 227.062 380.421 227.276ZM380.696 226.018L380.54 225.981C380.591 225.765 380.642 225.555 380.695 225.353L380.852 225.393C380.799 225.594 380.748 225.804 380.697 226.018H380.696ZM381.02 224.772L380.865 224.728C380.928 224.508 380.992 224.3 381.055 224.108L381.208 224.158C381.145 224.348 381.082 224.555 381.019 224.771L381.02 224.772ZM381.424 223.555L381.273 223.497C381.36 223.274 381.447 223.073 381.534 222.9L381.679 222.97C381.595 223.141 381.508 223.337 381.424 223.555ZM381.984 222.409L381.844 222.327C381.951 222.144 382.067 221.959 382.189 221.777L382.323 221.867C382.203 222.047 382.088 222.229 381.983 222.409H381.984ZM382.695 221.346L382.565 221.249C382.694 221.079 382.829 220.907 382.968 220.74L383.092 220.843C382.955 221.009 382.821 221.178 382.695 221.346ZM383.514 220.36L383.394 220.251C383.536 220.095 383.687 219.936 383.841 219.781L383.956 219.895C383.803 220.049 383.655 220.205 383.514 220.36ZM384.418 219.449L384.308 219.331C384.463 219.187 384.626 219.041 384.791 218.898L384.896 219.02C384.733 219.161 384.572 219.305 384.418 219.448V219.449ZM385.389 218.61L385.288 218.484C385.453 218.351 385.625 218.217 385.798 218.087L385.896 218.216C385.724 218.346 385.553 218.478 385.389 218.61ZM386.416 217.837L386.322 217.706C386.496 217.583 386.677 217.46 386.857 217.341L386.946 217.474C386.767 217.593 386.588 217.716 386.416 217.837ZM387.488 217.127L387.403 216.99C387.583 216.877 387.771 216.765 387.958 216.655L388.04 216.793C387.853 216.902 387.668 217.015 387.488 217.126V217.127ZM388.602 216.476L388.523 216.336C388.711 216.233 388.904 216.13 389.095 216.032L389.17 216.175C388.979 216.273 388.788 216.375 388.602 216.478V216.476ZM389.747 215.888L389.677 215.742C389.872 215.649 390.069 215.557 390.264 215.468L390.331 215.614C390.136 215.702 389.94 215.793 389.747 215.886V215.888ZM390.921 215.359L390.858 215.21C391.058 215.126 391.261 215.045 391.46 214.968L391.518 215.118C391.321 215.195 391.119 215.275 390.921 215.359ZM392.123 214.894L392.068 214.743C392.273 214.671 392.479 214.601 392.683 214.535L392.733 214.689C392.53 214.754 392.325 214.823 392.123 214.896V214.894ZM393.348 214.499L393.303 214.345C393.514 214.284 393.725 214.227 393.929 214.177L393.968 214.333C393.766 214.384 393.557 214.439 393.347 214.499H393.348ZM394.598 214.19L394.564 214.032C394.631 214.018 394.697 214.005 394.764 213.992L394.795 214.151C394.729 214.164 394.664 214.177 394.598 214.191V214.19Z" fill="#BA2A04"/>
<path d="M375.958 247.233L375.797 247.224C375.797 247.224 375.811 246.992 375.84 246.573L376.001 246.584C375.973 247.002 375.958 247.233 375.958 247.233ZM376.047 245.938L375.886 245.926C375.9 245.73 375.916 245.515 375.933 245.282L376.095 245.294C376.077 245.527 376.062 245.743 376.047 245.938ZM376.142 244.649L375.981 244.638C375.996 244.433 376.013 244.218 376.031 243.993L376.192 244.006C376.174 244.23 376.158 244.445 376.142 244.649ZM376.244 243.363L376.083 243.35C376.1 243.142 376.117 242.927 376.136 242.707L376.298 242.72C376.279 242.94 376.261 243.155 376.244 243.363ZM376.353 242.076L376.192 242.062C376.21 241.852 376.229 241.638 376.249 241.419L376.41 241.433C376.391 241.652 376.372 241.866 376.353 242.075V242.076ZM376.467 240.792L376.306 240.778C376.325 240.566 376.345 240.352 376.365 240.136L376.527 240.151C376.507 240.368 376.486 240.582 376.467 240.793V240.792ZM376.588 239.508L376.427 239.493C376.447 239.281 376.469 239.067 376.49 238.851L376.651 238.866C376.63 239.082 376.609 239.296 376.588 239.508ZM376.715 238.225L376.555 238.209C376.577 237.996 376.599 237.782 376.622 237.567L376.782 237.583C376.759 237.798 376.737 238.012 376.715 238.224V238.225ZM376.851 236.943L376.691 236.926C376.713 236.713 376.737 236.499 376.761 236.285L376.921 236.302C376.897 236.517 376.873 236.731 376.851 236.943ZM376.993 235.664L376.833 235.645C376.858 235.432 376.883 235.218 376.908 235.005L377.068 235.024C377.043 235.238 377.018 235.451 376.993 235.664ZM377.145 234.383L376.985 234.363C377.011 234.149 377.037 233.936 377.064 233.724L377.225 233.744C377.197 233.957 377.171 234.169 377.145 234.383ZM377.308 233.105L377.147 233.084C377.176 232.87 377.204 232.657 377.233 232.444L377.393 232.465C377.365 232.677 377.336 232.891 377.308 233.104V233.105ZM377.482 231.828L377.322 231.806C377.352 231.592 377.382 231.379 377.415 231.167L377.575 231.191C377.544 231.402 377.513 231.615 377.482 231.828ZM377.67 230.553L377.509 230.529C377.543 230.315 377.576 230.102 377.609 229.891L377.769 229.917C377.735 230.128 377.702 230.339 377.67 230.553ZM377.874 229.281L377.715 229.254C377.752 229.04 377.787 228.827 377.825 228.618L377.984 228.646C377.947 228.855 377.911 229.067 377.874 229.281ZM378.099 228.012L377.94 227.983C377.981 227.768 378.021 227.556 378.063 227.349L378.22 227.38C378.179 227.587 378.138 227.798 378.098 228.012H378.099ZM378.352 226.748L378.194 226.715C378.241 226.5 378.287 226.29 378.334 226.084L378.492 226.119C378.445 226.324 378.398 226.533 378.353 226.748H378.352ZM378.642 225.495L378.485 225.456C378.54 225.24 378.594 225.031 378.65 224.83L378.805 224.873C378.75 225.073 378.695 225.28 378.642 225.495ZM378.988 224.256L378.834 224.207C378.903 223.99 378.973 223.783 379.042 223.592L379.194 223.648C379.125 223.836 379.056 224.041 378.988 224.256ZM379.434 223.056L379.287 222.989C379.329 222.897 379.372 222.808 379.414 222.726C379.469 222.62 379.525 222.515 379.584 222.41L379.725 222.488C379.668 222.591 379.613 222.695 379.559 222.799C379.518 222.879 379.476 222.966 379.436 223.056H379.434ZM380.053 221.941L379.916 221.854C380.031 221.675 380.155 221.495 380.282 221.319L380.412 221.413C380.287 221.587 380.166 221.764 380.052 221.942L380.053 221.941ZM380.803 220.902L380.677 220.802C380.81 220.636 380.951 220.47 381.096 220.306L381.217 220.413C381.074 220.575 380.935 220.739 380.803 220.902ZM381.653 219.942L381.536 219.831C381.684 219.679 381.838 219.525 381.997 219.375L382.108 219.491C381.952 219.64 381.799 219.792 381.653 219.943V219.942ZM382.581 219.055L382.474 218.935C382.633 218.794 382.799 218.652 382.966 218.514L383.07 218.638C382.904 218.775 382.739 218.916 382.581 219.055ZM383.572 218.238L383.473 218.111C383.642 217.982 383.816 217.852 383.993 217.724L384.088 217.854C383.912 217.981 383.739 218.109 383.573 218.237L383.572 218.238ZM384.615 217.487L384.525 217.354C384.702 217.234 384.884 217.115 385.067 216.999L385.154 217.135C384.972 217.251 384.791 217.369 384.615 217.487ZM385.702 216.797L385.619 216.659C385.804 216.549 385.993 216.439 386.182 216.333L386.261 216.474C386.074 216.579 385.886 216.687 385.703 216.797H385.702ZM386.826 216.167L386.75 216.025C386.94 215.925 387.133 215.826 387.328 215.73L387.4 215.875C387.208 215.969 387.015 216.069 386.827 216.167H386.826ZM387.981 215.598L387.913 215.451C388.11 215.36 388.31 215.272 388.505 215.188L388.569 215.335C388.375 215.419 388.177 215.507 387.981 215.597V215.598ZM389.164 215.089L389.105 214.941C389.307 214.86 389.511 214.782 389.711 214.709L389.767 214.86C389.568 214.933 389.366 215.01 389.165 215.089H389.164ZM390.373 214.647L390.322 214.495C390.529 214.426 390.737 214.36 390.941 214.3L390.987 214.453C390.784 214.514 390.578 214.579 390.373 214.647ZM391.608 214.28L391.566 214.123C391.779 214.068 391.991 214.016 392.198 213.97L392.233 214.127C392.029 214.172 391.819 214.224 391.608 214.278V214.28Z" fill="#BA2A04"/>
<path d="M402.691 249.59L402.531 249.569C402.555 249.389 402.583 249.175 402.615 248.929L402.775 248.949C402.743 249.195 402.715 249.41 402.691 249.589V249.59ZM402.857 248.309L402.697 248.289C402.722 248.089 402.748 247.875 402.775 247.649L402.936 247.668C402.908 247.894 402.882 248.108 402.857 248.309ZM403.013 247.028L402.853 247.009C402.876 246.803 402.901 246.589 402.926 246.368L403.086 246.385C403.061 246.607 403.037 246.821 403.012 247.026L403.013 247.028ZM403.16 245.747L403 245.729C403.023 245.521 403.046 245.307 403.07 245.088L403.23 245.106C403.206 245.325 403.183 245.539 403.16 245.747ZM403.298 244.464L403.137 244.447C403.16 244.237 403.181 244.024 403.204 243.807L403.365 243.823C403.343 244.041 403.321 244.255 403.299 244.464H403.298ZM403.428 243.181L403.267 243.166C403.287 242.955 403.308 242.741 403.328 242.525L403.49 242.54C403.47 242.757 403.448 242.971 403.428 243.182V243.181ZM403.55 241.898L403.389 241.884C403.408 241.672 403.428 241.458 403.447 241.242L403.609 241.256C403.59 241.472 403.571 241.686 403.55 241.898ZM403.664 240.613L403.503 240.6C403.521 240.387 403.539 240.173 403.556 239.958L403.718 239.971C403.7 240.186 403.682 240.401 403.664 240.613ZM403.769 239.327L403.607 239.316C403.624 239.103 403.639 238.889 403.656 238.674L403.817 238.685C403.802 238.901 403.785 239.115 403.769 239.329V239.327ZM403.863 238.042L403.701 238.031C403.715 237.817 403.731 237.603 403.744 237.389L403.905 237.4C403.891 237.615 403.877 237.829 403.863 238.043V238.042ZM403.947 236.753L403.785 236.744C403.798 236.53 403.81 236.315 403.822 236.099L403.984 236.108C403.972 236.323 403.96 236.538 403.947 236.752V236.753ZM404.017 235.464L403.855 235.456C403.866 235.242 403.877 235.027 403.886 234.814L404.048 234.821C404.038 235.035 404.028 235.25 404.017 235.464ZM404.074 234.179L403.912 234.173C403.921 233.958 403.928 233.744 403.935 233.53L404.096 233.535C404.089 233.749 404.082 233.964 404.074 234.179ZM404.115 232.889L403.954 232.886C403.96 232.67 403.965 232.455 403.968 232.242L404.13 232.245C404.126 232.459 404.121 232.674 404.115 232.889ZM404.139 231.6H403.978C403.98 231.383 403.981 231.167 403.981 230.955H404.143C404.143 231.169 404.141 231.384 404.139 231.6ZM403.979 230.311C403.976 230.095 403.974 229.881 403.969 229.668L404.131 229.665C404.136 229.877 404.138 230.093 404.14 230.309H403.979V230.311ZM403.953 229.026C403.946 228.808 403.937 228.594 403.928 228.384L404.089 228.377C404.099 228.589 404.107 228.804 404.115 229.021L403.954 229.027L403.953 229.026ZM403.892 227.742C403.878 227.524 403.863 227.31 403.846 227.101L404.007 227.088C404.025 227.298 404.039 227.512 404.054 227.731L403.892 227.742ZM403.785 226.461C403.762 226.241 403.737 226.027 403.709 225.824L403.87 225.803C403.897 226.007 403.923 226.224 403.946 226.445L403.785 226.461ZM403.615 225.19C403.578 224.971 403.537 224.76 403.495 224.561L403.652 224.527C403.696 224.728 403.737 224.942 403.774 225.163L403.615 225.189V225.19ZM403.342 223.942L403.318 223.859C403.266 223.681 403.21 223.504 403.152 223.33L403.305 223.279C403.363 223.456 403.42 223.635 403.472 223.814L403.497 223.898L403.342 223.942ZM402.937 222.727C402.861 222.529 402.78 222.329 402.696 222.134L402.844 222.07C402.93 222.267 403.012 222.468 403.088 222.669L402.937 222.726V222.727ZM402.43 221.551C402.339 221.359 402.24 221.166 402.14 220.978L402.283 220.903C402.384 221.093 402.482 221.287 402.576 221.48L402.43 221.549V221.551ZM401.828 220.419C401.722 220.236 401.609 220.052 401.494 219.873L401.63 219.786C401.746 219.969 401.86 220.154 401.968 220.339L401.828 220.42V220.419ZM401.136 219.338C401.015 219.164 400.888 218.989 400.759 218.819L400.888 218.722C401.019 218.895 401.147 219.071 401.269 219.246L401.136 219.338ZM400.363 218.314C400.227 218.149 400.088 217.984 399.948 217.824L400.069 217.717C400.211 217.878 400.352 218.045 400.488 218.211L400.363 218.313V218.314ZM399.516 217.349C399.373 217.197 399.222 217.042 399.068 216.889L399.182 216.775C399.337 216.928 399.489 217.085 399.634 217.238L399.516 217.348V217.349ZM398.603 216.445C398.447 216.301 398.286 216.156 398.123 216.017L398.229 215.895C398.392 216.037 398.555 216.182 398.712 216.327L398.601 216.445H398.603ZM397.629 215.604C397.463 215.471 397.292 215.337 397.121 215.209L397.219 215.08C397.391 215.21 397.563 215.344 397.73 215.479L397.628 215.604H397.629ZM396.602 214.831C396.424 214.705 396.243 214.585 396.067 214.471L396.155 214.337C396.332 214.451 396.514 214.573 396.694 214.7L396.602 214.831ZM395.522 214.132C395.173 213.925 394.961 213.822 394.959 213.821L395.03 213.677C395.038 213.681 395.247 213.783 395.603 213.994L395.522 214.132Z" fill="#BA2A04"/>
<path d="M393.486 223.379C392.848 223.379 392.328 222.862 392.328 222.225C392.328 221.589 392.848 221.071 393.486 221.071C394.125 221.071 394.645 221.589 394.645 222.225C394.645 222.862 394.125 223.379 393.486 223.379ZM393.486 221.877C393.293 221.877 393.136 222.033 393.136 222.225C393.136 222.418 393.293 222.574 393.486 222.574C393.68 222.574 393.837 222.418 393.837 222.225C393.837 222.033 393.68 221.877 393.486 221.877Z" fill="#BA2A04"/>
<path d="M411.143 222.884C410.952 222.884 410.754 222.81 410.573 222.666C410.366 222.499 410.19 222.248 410.081 221.959C409.97 221.669 409.935 221.366 409.98 221.104C410.037 220.775 410.219 220.53 410.478 220.432C410.738 220.334 411.037 220.397 411.299 220.606C411.506 220.773 411.682 221.023 411.791 221.313C411.901 221.603 411.937 221.905 411.892 222.168C411.835 222.497 411.653 222.741 411.393 222.84C411.313 222.87 411.229 222.884 411.143 222.884ZM410.747 221.142C410.711 221.209 410.679 221.421 410.782 221.694C410.886 221.967 411.05 222.105 411.122 222.131C411.157 222.065 411.189 221.852 411.086 221.579C410.983 221.306 410.818 221.168 410.747 221.142Z" fill="#BA2A04"/>
<path d="M374.477 220.466C374.391 220.466 374.303 220.453 374.216 220.426C373.683 220.257 373.428 219.62 373.633 218.975C373.839 218.331 374.418 217.957 374.95 218.125C375.482 218.294 375.738 218.932 375.532 219.576C375.36 220.116 374.926 220.466 374.476 220.466H374.477ZM374.405 219.219C374.325 219.468 374.41 219.642 374.462 219.659C374.514 219.674 374.684 219.582 374.763 219.332C374.839 219.093 374.761 218.909 374.706 218.892C374.654 218.876 374.483 218.971 374.405 219.219Z" fill="#BA2A04"/>
<path d="M420.928 244.477L420.801 244.377C420.866 244.295 420.93 244.209 420.994 244.123L421.125 244.218C421.061 244.306 420.994 244.393 420.929 244.477H420.928Z" fill="#0E2052"/>
<path d="M373.131 231.938L372.809 236.445L383.955 238.376L384.602 233.547L373.131 231.938Z" fill="#FFAB0B"/>
<path d="M373.885 232.846L373.67 235.796L382.984 237.41L383.47 234.191L373.885 232.846Z" fill="#50439F"/>
<path d="M403.69 250.139L403.53 250.114C403.561 249.919 406.627 230.522 404.609 223.645C402.597 216.789 395.255 214.173 395.182 214.149L395.235 213.996C395.31 214.022 402.73 216.665 404.764 223.6C406.792 230.512 403.721 249.945 403.689 250.14L403.69 250.139Z" fill="#BA2A04"/>
<path d="M404.846 249.011L404.686 248.988C404.714 248.795 404.745 248.581 404.777 248.35L404.937 248.372C404.904 248.604 404.873 248.818 404.846 249.011ZM405.027 247.732L404.867 247.711C404.896 247.508 404.924 247.295 404.954 247.073L405.114 247.094C405.084 247.317 405.055 247.53 405.027 247.734V247.732ZM405.2 246.454L405.039 246.433C405.067 246.226 405.094 246.013 405.121 245.793L405.281 245.813C405.253 246.033 405.226 246.246 405.198 246.453L405.2 246.454ZM405.362 245.174L405.202 245.153C405.228 244.944 405.254 244.731 405.28 244.514L405.44 244.533C405.414 244.75 405.388 244.964 405.362 245.172V245.174ZM405.516 243.893L405.356 243.874C405.381 243.664 405.405 243.451 405.43 243.234L405.59 243.252C405.565 243.468 405.54 243.682 405.516 243.893ZM405.662 242.612L405.502 242.595C405.526 242.383 405.548 242.17 405.571 241.954L405.731 241.97C405.709 242.187 405.685 242.401 405.662 242.611V242.612ZM405.799 241.329L405.639 241.313C405.66 241.101 405.681 240.887 405.703 240.672L405.864 240.687C405.843 240.903 405.821 241.117 405.8 241.329H405.799ZM405.925 240.046L405.763 240.031C405.783 239.818 405.804 239.604 405.823 239.39L405.984 239.404C405.965 239.62 405.945 239.834 405.925 240.046ZM406.04 238.762L405.878 238.748C405.896 238.535 405.914 238.321 405.932 238.106L406.093 238.119C406.075 238.334 406.058 238.548 406.04 238.761V238.762ZM406.144 237.477L405.983 237.465C405.999 237.251 406.015 237.037 406.03 236.823L406.192 236.835C406.176 237.05 406.161 237.264 406.144 237.478V237.477ZM406.234 236.188L406.073 236.178C406.087 235.964 406.1 235.748 406.113 235.534L406.275 235.544C406.262 235.759 406.249 235.973 406.234 236.188ZM406.312 234.9L406.15 234.892C406.162 234.678 406.173 234.464 406.182 234.25L406.344 234.257C406.334 234.471 406.323 234.685 406.312 234.9ZM406.371 233.613L406.21 233.607C406.218 233.392 406.226 233.178 406.232 232.964L406.393 232.968C406.386 233.182 406.379 233.398 406.37 233.613H406.371ZM406.412 232.324L406.251 232.32C406.256 232.105 406.261 231.89 406.264 231.677L406.426 231.68C406.422 231.894 406.418 232.109 406.412 232.324ZM406.431 231.034H406.27C406.27 230.923 406.27 230.813 406.27 230.703C406.27 230.593 406.27 230.494 406.27 230.389H406.431C406.431 230.492 406.431 230.598 406.431 230.703C406.431 230.808 406.431 230.923 406.431 231.034ZM406.263 229.746C406.259 229.53 406.255 229.316 406.247 229.103L406.409 229.098C406.415 229.311 406.421 229.526 406.424 229.743L406.263 229.745V229.746ZM406.224 228.462C406.214 228.245 406.202 228.032 406.189 227.82L406.351 227.811C406.364 228.022 406.376 228.237 406.385 228.455L406.224 228.462ZM406.143 227.179C406.125 226.962 406.105 226.749 406.084 226.539L406.244 226.523C406.266 226.733 406.285 226.947 406.303 227.166L406.142 227.179H406.143ZM406.009 225.903C405.98 225.686 405.948 225.473 405.915 225.27L406.074 225.243C406.109 225.449 406.141 225.664 406.169 225.883L406.009 225.904V225.903ZM405.799 224.638C405.754 224.422 405.705 224.212 405.653 224.015L405.81 223.974C405.862 224.173 405.912 224.385 405.957 224.605L405.799 224.637V224.638ZM405.471 223.402C405.405 223.2 405.334 222.998 405.258 222.799L405.408 222.741C405.486 222.942 405.559 223.147 405.626 223.352L405.472 223.401L405.471 223.402ZM405.012 222.209C404.925 222.015 404.833 221.822 404.737 221.632L404.88 221.559C404.978 221.751 405.071 221.948 405.159 222.144L405.012 222.209ZM404.432 221.069C404.327 220.887 404.214 220.703 404.099 220.522L404.236 220.436C404.353 220.618 404.466 220.805 404.573 220.989L404.433 221.069H404.432ZM403.741 219.992C403.619 219.821 403.489 219.648 403.356 219.479L403.483 219.38C403.617 219.55 403.748 219.725 403.871 219.899L403.74 219.992H403.741ZM402.949 218.984C402.81 218.823 402.667 218.663 402.52 218.507L402.637 218.397C402.786 218.554 402.931 218.716 403.07 218.88L402.948 218.985L402.949 218.984ZM402.071 218.048C401.919 217.899 401.761 217.752 401.603 217.608L401.711 217.489C401.872 217.633 402.031 217.783 402.184 217.934L402.071 218.048ZM401.117 217.188C400.954 217.052 400.786 216.917 400.616 216.785L400.715 216.658C400.887 216.79 401.056 216.927 401.22 217.065L401.117 217.188ZM400.101 216.401C399.929 216.278 399.751 216.155 399.572 216.036L399.662 215.902C399.842 216.023 400.023 216.147 400.196 216.271L400.101 216.401ZM399.029 215.688C398.848 215.576 398.661 215.466 398.475 215.359L398.556 215.22C398.743 215.326 398.931 215.438 399.113 215.551L399.028 215.688H399.029ZM397.91 215.051C397.719 214.95 397.526 214.853 397.334 214.761L397.404 214.616C397.597 214.708 397.793 214.806 397.985 214.908L397.909 215.05L397.91 215.051ZM396.749 214.494C396.378 214.333 396.154 214.255 396.152 214.255L396.206 214.103C396.215 214.106 396.436 214.183 396.815 214.346L396.751 214.494H396.749Z" fill="#BA2A04"/>
<path d="M392.993 214.225C391.847 213.873 392.602 211.764 395.463 212.023C398.323 212.282 398.193 213.578 397.803 214.225C397.412 214.873 394.683 214.743 392.993 214.225Z" fill="#FFAB0B"/>
<path d="M393.721 213.296C392.947 213.139 393.458 212.194 395.393 212.31C397.327 212.426 397.239 213.006 396.976 213.296C396.712 213.585 394.866 213.528 393.721 213.296Z" fill="#FDBA36"/>
</g>
<path d="M326.113 1.54329L308.231 21.2111C305.789 23.8937 307.167 28.2152 310.713 28.9912L336.683 34.6441C340.228 35.4134 343.279 32.0618 342.175 28.6032L334.087 3.28262C332.983 -0.175965 328.548 -1.13929 326.106 1.54329H326.113Z" fill="#FFAB0B"/>
<path d="M337.941 30.2286C337.981 30.0613 337.941 29.874 337.801 29.7469C337.526 29.486 337.245 29.2318 336.964 28.991C334.449 26.2281 327.151 17.0097 329.88 5.80439C329.887 5.77094 329.893 5.74418 329.893 5.71073C329.893 5.71073 329.893 5.70404 329.893 5.69735C329.954 5.42976 329.786 5.15548 329.519 5.09527C329.244 5.03507 328.977 5.20231 328.917 5.4699C328.883 5.61707 325.284 20.4616 312.052 24.3282C312.032 24.3282 312.018 24.3416 312.005 24.3483C311.992 24.3483 311.978 24.3617 311.958 24.3684C311.938 24.3751 311.925 24.3884 311.911 24.4018C311.898 24.4085 311.891 24.4152 311.878 24.4219C311.865 24.4353 311.851 24.4487 311.838 24.462C311.831 24.4687 311.818 24.4821 311.811 24.4888C311.798 24.5022 311.791 24.5222 311.778 24.5356C311.771 24.549 311.764 24.5557 311.757 24.5691C311.751 24.5824 311.744 24.6025 311.737 24.6159C311.737 24.6293 311.724 24.6427 311.717 24.656C311.717 24.6694 311.717 24.6895 311.711 24.7029C311.711 24.7162 311.704 24.7363 311.697 24.7497C311.697 24.7631 311.697 24.7765 311.697 24.7898C311.697 24.8099 311.697 24.83 311.697 24.85C311.697 24.8634 311.697 24.8701 311.697 24.8835C311.697 24.9036 311.697 24.9236 311.711 24.9504C311.711 24.9705 311.724 24.9838 311.731 24.9972C311.744 25.024 311.751 25.0507 311.764 25.0708C311.778 25.0909 311.791 25.1042 311.804 25.1176C311.818 25.1377 311.831 25.1578 311.851 25.1711C311.871 25.1912 311.891 25.1979 311.911 25.2113C311.925 25.2247 311.938 25.238 311.958 25.2447C311.992 25.2648 312.032 25.2715 312.065 25.2849C312.065 25.2849 312.072 25.2849 312.079 25.2849C312.119 25.2916 312.159 25.2983 312.199 25.2983C312.212 25.2983 312.219 25.2983 312.232 25.2983C312.259 25.2983 312.293 25.2983 312.319 25.2849C312.319 25.2849 312.319 25.2849 312.326 25.2849C312.52 25.2247 326.354 21.1974 336.255 29.7068C336.75 30.2486 337.065 30.543 337.078 30.5631C337.145 30.63 337.232 30.6701 337.312 30.6902C337.479 30.7236 337.66 30.6768 337.787 30.543C337.874 30.4493 337.914 30.3356 337.921 30.2219L337.941 30.2286Z" fill="#50439F"/>
<g style="mix-blend-mode:multiply" opacity="0.9">
<path d="M336.682 34.6371C340.228 35.4064 343.278 32.0549 342.174 28.5963L335.016 6.19238C336.12 12.086 335.05 18.4011 331.886 23.5121C329.778 26.9172 326.781 29.7402 323.303 31.7271L336.675 34.6371H336.682Z" fill="#FFAB0B"/>
</g>
<path opacity="0.5" d="M325.838 4.19922L311.568 20.8098C311.568 20.8098 321.683 16.1738 325.838 4.19922Z" fill="white"/>
<path d="M341.344 14.8293L331.183 43.0265C329.798 46.8731 333.096 50.7799 337.123 50.0574L366.618 44.7591C370.645 44.0366 372.378 39.2267 369.742 36.0959L350.409 13.197C347.766 10.0729 342.736 10.976 341.351 14.8226L341.344 14.8293Z" fill="#FFAB0B"/>
<path d="M366.023 39.6217C365.996 39.4277 365.869 39.2537 365.669 39.1735C365.267 39.0196 364.873 38.8791 364.471 38.7453C360.658 36.9458 349.085 30.4902 347.105 17.6325C347.105 17.5991 347.091 17.5657 347.078 17.5322V17.5188C347.024 17.2111 346.737 17.0037 346.429 17.0505C346.115 17.1041 345.914 17.3917 345.961 17.6994C345.988 17.8734 348.637 34.8853 336.508 44.6189C336.495 44.6323 336.481 44.6457 336.468 44.659C336.455 44.6724 336.441 44.6858 336.428 44.6992C336.415 44.7192 336.401 44.7326 336.388 44.7527C336.381 44.7661 336.368 44.7795 336.361 44.7928C336.348 44.8129 336.341 44.833 336.334 44.853C336.334 44.8664 336.321 44.8798 336.321 44.8932C336.321 44.9133 336.314 44.9333 336.307 44.9534C336.307 44.9668 336.301 44.9801 336.301 45.0002C336.301 45.0203 336.301 45.0404 336.301 45.0604C336.301 45.0738 336.301 45.0939 336.301 45.1073C336.301 45.1273 336.301 45.1407 336.307 45.1608C336.307 45.1808 336.307 45.2009 336.321 45.2143C336.321 45.2277 336.334 45.2411 336.341 45.2544C336.348 45.2745 336.354 45.2946 336.368 45.3146C336.368 45.328 336.381 45.3347 336.388 45.3481C336.401 45.3682 336.415 45.3882 336.428 45.4083C336.441 45.4217 336.455 45.4351 336.475 45.4484C336.495 45.4685 336.522 45.4953 336.542 45.5153C336.562 45.5287 336.582 45.5354 336.602 45.5488C336.622 45.5622 336.649 45.5755 336.675 45.5822C336.702 45.5889 336.729 45.5956 336.756 45.6023C336.776 45.6023 336.796 45.6157 336.816 45.6157C336.863 45.6157 336.903 45.6157 336.95 45.6157C336.95 45.6157 336.963 45.6157 336.97 45.6157C336.97 45.6157 336.97 45.6157 336.976 45.6157C337.017 45.609 337.063 45.5956 337.104 45.5755C337.117 45.5755 337.124 45.5622 337.137 45.5555C337.164 45.5421 337.197 45.522 337.224 45.5019C337.405 45.3548 350.082 35.1998 364.063 39.8023C364.812 40.1569 365.267 40.3308 365.294 40.3375C365.394 40.3776 365.495 40.3843 365.595 40.3642C365.782 40.3308 365.95 40.197 366.023 40.003C366.07 39.8692 366.07 39.7354 366.023 39.6083V39.6217Z" fill="#50439F"/>
<path opacity="0.5" d="M342.2 17.7129L334.486 41.1671C334.486 41.1671 343.029 31.9754 342.2 17.7129Z" fill="white"/>
<defs>
<clipPath id="clip0_1113_4595">
<rect width="72" height="48" fill="white" transform="translate(351 212)"/>
</clipPath>
</defs>
</svg>
