<svg width="64" height="51" viewBox="0 0 64 51" fill="none" xmlns="http://www.w3.org/2000/svg">
<path d="M19.1127 1.54329L1.2311 21.2111C-1.21065 23.8937 0.167431 28.2152 3.71299 28.9912L29.6825 34.6441C33.2281 35.4134 36.2786 32.0618 35.1748 28.6032L27.0869 3.28262C25.9831 -0.175965 21.5478 -1.13929 19.106 1.54329H19.1127Z" fill="#50439F"/>
<path d="M30.9411 30.2286C30.9812 30.0613 30.9411 29.874 30.8006 29.7469C30.5263 29.486 30.2453 29.2318 29.9644 28.991C27.449 26.2281 20.1505 17.0097 22.8799 5.80439C22.8866 5.77094 22.8933 5.74418 22.8933 5.71073C22.8933 5.71073 22.8933 5.70404 22.8933 5.69735C22.9535 5.42976 22.7863 5.15548 22.5187 5.09527C22.2444 5.03507 21.9768 5.20231 21.9166 5.4699C21.8832 5.61707 18.2841 20.4616 5.05182 24.3282C5.03175 24.3282 5.01837 24.3416 5.00499 24.3483C4.99161 24.3483 4.97824 24.3617 4.95817 24.3684C4.9381 24.3751 4.92472 24.3884 4.91134 24.4018C4.89796 24.4085 4.89127 24.4152 4.87789 24.4219C4.86451 24.4353 4.85113 24.4487 4.83775 24.462C4.83106 24.4687 4.81768 24.4821 4.81099 24.4888C4.79761 24.5022 4.79092 24.5222 4.77754 24.5356C4.77085 24.549 4.76416 24.5557 4.75747 24.5691C4.75078 24.5824 4.74409 24.6025 4.7374 24.6159C4.7374 24.6293 4.72402 24.6427 4.71734 24.656C4.71734 24.6694 4.71734 24.6895 4.71065 24.7029C4.71065 24.7162 4.70396 24.7363 4.69727 24.7497C4.69727 24.7631 4.69727 24.7765 4.69727 24.7898C4.69727 24.8099 4.69727 24.83 4.69727 24.85C4.69727 24.8634 4.69727 24.8701 4.69727 24.8835C4.69727 24.9036 4.69727 24.9236 4.71065 24.9504C4.71065 24.9705 4.72403 24.9838 4.73072 24.9972C4.74409 25.024 4.75078 25.0507 4.76416 25.0708C4.77754 25.0909 4.79092 25.1042 4.8043 25.1176C4.81768 25.1377 4.83106 25.1578 4.85113 25.1711C4.8712 25.1912 4.89127 25.1979 4.91134 25.2113C4.92472 25.2247 4.9381 25.238 4.95817 25.2447C4.99161 25.2648 5.03175 25.2715 5.0652 25.2849C5.0652 25.2849 5.07189 25.2849 5.07858 25.2849C5.11872 25.2916 5.15886 25.2983 5.199 25.2983C5.21237 25.2983 5.21907 25.2983 5.23244 25.2983C5.2592 25.2983 5.29265 25.2983 5.31941 25.2849C5.31941 25.2849 5.31941 25.2849 5.3261 25.2849C5.5201 25.2247 19.3545 21.1974 29.2553 29.7068C29.7503 30.2486 30.0647 30.543 30.0781 30.5631C30.145 30.63 30.232 30.6701 30.3122 30.6902C30.4795 30.7236 30.6601 30.6768 30.7872 30.543C30.8742 30.4493 30.9143 30.3356 30.921 30.2219L30.9411 30.2286Z" fill="#FFAB0B"/>
<g style="mix-blend-mode:multiply" opacity="0.9">
<path d="M29.6822 34.6371C33.2277 35.4064 36.2783 32.0549 35.1745 28.5963L28.0164 6.19238C29.1203 12.086 28.0499 18.4011 24.8857 23.5121C22.7784 26.9172 19.7814 29.7402 16.3027 31.7271L29.6755 34.6371H29.6822Z" fill="#50439F"/>
</g>
<path opacity="0.5" d="M18.8375 4.19922L4.56836 20.8098C4.56836 20.8098 14.6832 16.1738 18.8375 4.19922Z" fill="white"/>
<path d="M34.3443 14.8293L24.1826 43.0265C22.7978 46.8731 26.0959 50.7799 30.1231 50.0574L59.6181 44.7591C63.6453 44.0366 65.3779 39.2267 62.7422 36.0959L43.4089 13.197C40.7664 10.0729 35.7358 10.976 34.351 14.8226L34.3443 14.8293Z" fill="#50439F"/>
<path d="M59.0232 39.6217C58.9965 39.4277 58.8694 39.2537 58.6687 39.1735C58.2673 39.0196 57.8726 38.8791 57.4712 38.7453C53.6581 36.9458 42.0849 30.4902 40.1047 17.6325C40.1047 17.5991 40.0913 17.5657 40.0779 17.5322V17.5188C40.0244 17.2111 39.7368 17.0037 39.429 17.0505C39.1146 17.1041 38.9139 17.3917 38.9607 17.6994C38.9875 17.8734 41.6366 34.8853 29.5082 44.6189C29.4948 44.6323 29.4814 44.6457 29.468 44.659C29.4546 44.6724 29.4413 44.6858 29.4279 44.6992C29.4145 44.7192 29.4011 44.7326 29.3877 44.7527C29.3811 44.7661 29.3677 44.7795 29.361 44.7928C29.3476 44.8129 29.3409 44.833 29.3342 44.853C29.3342 44.8664 29.3208 44.8798 29.3208 44.8932C29.3208 44.9133 29.3142 44.9333 29.3075 44.9534C29.3075 44.9668 29.3008 44.9801 29.3008 45.0002C29.3008 45.0203 29.3008 45.0404 29.3008 45.0604C29.3008 45.0738 29.3008 45.0939 29.3008 45.1073C29.3008 45.1273 29.3008 45.1407 29.3075 45.1608C29.3075 45.1808 29.3075 45.2009 29.3208 45.2143C29.3208 45.2277 29.3342 45.2411 29.3409 45.2544C29.3476 45.2745 29.3543 45.2946 29.3677 45.3146C29.3677 45.328 29.3811 45.3347 29.3877 45.3481C29.4011 45.3682 29.4145 45.3882 29.4279 45.4083C29.4413 45.4217 29.4546 45.4351 29.4747 45.4484C29.4948 45.4685 29.5215 45.4953 29.5416 45.5153C29.5617 45.5287 29.5818 45.5354 29.6018 45.5488C29.6219 45.5622 29.6486 45.5755 29.6754 45.5822C29.7022 45.5889 29.7289 45.5956 29.7557 45.6023C29.7758 45.6023 29.7958 45.6157 29.8159 45.6157C29.8627 45.6157 29.9029 45.6157 29.9497 45.6157C29.9497 45.6157 29.9631 45.6157 29.9698 45.6157C29.9698 45.6157 29.9698 45.6157 29.9764 45.6157C30.0166 45.609 30.0634 45.5956 30.1035 45.5755C30.1169 45.5755 30.1236 45.5622 30.137 45.5555C30.1638 45.5421 30.1972 45.522 30.224 45.5019C30.4046 45.3548 43.0816 35.1998 57.0632 39.8023C57.8124 40.1569 58.2673 40.3308 58.2941 40.3375C58.3944 40.3776 58.4948 40.3843 58.5951 40.3642C58.7824 40.3308 58.9497 40.197 59.0232 40.003C59.0701 39.8692 59.0701 39.7354 59.0232 39.6083V39.6217Z" fill="#FFAB0B"/>
<path opacity="0.5" d="M35.1996 17.7129L27.4863 41.1671C27.4863 41.1671 36.0291 31.9754 35.1996 17.7129Z" fill="white"/>
</svg>
