<svg width="218" height="230" viewBox="0 0 218 230" fill="none" xmlns="http://www.w3.org/2000/svg">
<path d="M172.477 104.07C167.173 100.534 157.977 96.5703 157.977 96.5703V117.57L161.477 137.07C161.477 137.07 166.313 139.501 168.477 142.07C171.071 145.149 171.211 147.749 172.477 151.57C173.43 154.448 174.104 156.062 174.477 159.07C174.814 161.783 175.061 163.4 174.477 166.07C174.028 168.125 172.912 169.013 172.477 171.07C171.952 173.554 171.359 175.291 172.477 177.57C173.028 178.693 173.297 179.656 174.477 180.07C176.215 180.68 177.109 178.804 178.477 177.57C180.691 175.575 182.477 171.07 182.477 171.07C182.477 171.07 181.442 176.711 182.477 180.07C183.276 182.663 183.478 185.016 185.977 186.07C187.596 186.753 188.882 186.807 190.477 186.07C192.856 184.972 194.477 180.07 194.477 180.07C194.477 180.07 195.564 182.932 197.477 184.07C199.659 185.368 201.552 186.82 203.977 186.07C205.434 185.62 206.197 184.881 206.977 183.57C208.175 181.557 206.977 177.57 206.977 177.57C206.977 177.57 208.715 182.596 211.477 183.57C213.134 184.155 214.571 184.625 215.977 183.57C217.852 182.164 217.478 179.913 217.478 177.57C217.478 173.079 216.918 170.462 215.977 166.07C214.478 159.07 213.709 157.063 211.477 151.57C209.077 145.664 207.402 142.448 203.977 137.07C200.39 131.437 197.773 128.061 193.477 123.57L182.477 112.07C178.181 107.579 176.638 106.844 172.477 104.07Z" fill="#FFAB0B"/>
<path d="M203.977 174.57C203.977 174.57 205.715 179.596 208.477 180.57C210.134 181.155 211.571 181.625 212.977 180.57C214.852 179.164 214.478 176.913 214.478 174.57C214.478 170.079 213.918 167.462 212.977 163.07C211.478 156.07 210.709 154.063 208.477 148.57C206.077 142.664 204.402 139.448 200.977 134.07C197.39 128.437 194.773 125.061 190.477 120.57C186.181 116.079 183.773 113.561 179.477 109.07C175.181 104.579 173.638 103.844 169.477 101.07C164.173 97.534 154.977 93.5703 154.977 93.5703V114.57L158.477 134.07C158.477 134.07 163.313 136.501 165.477 139.07C168.071 142.149 168.211 144.749 169.477 148.57C170.43 151.448 171.104 153.062 171.477 156.07C171.814 158.783 172.061 160.4 171.477 163.07C171.028 165.125 169.912 166.013 169.477 168.07C168.952 170.554 168.359 172.291 169.477 174.57C170.028 175.693 170.297 176.656 171.477 177.07C173.215 177.68 174.109 175.804 175.477 174.57C177.691 172.575 179.477 168.07 179.477 168.07C179.477 168.07 178.442 173.711 179.477 177.07C180.276 179.663 180.478 182.016 182.977 183.07C184.596 183.753 185.882 183.807 187.477 183.07C189.856 181.972 191.477 177.07 191.477 177.07M203.977 174.57L200.977 168.07M203.977 174.57C203.977 174.57 205.175 178.557 203.977 180.57C203.197 181.881 202.434 182.62 200.977 183.07C198.552 183.82 196.659 182.368 194.477 181.07C192.564 179.932 191.477 177.07 191.477 177.07M191.477 177.07L190.477 170.57" stroke="#50439F" stroke-width="2"/>
<path d="M60.4766 93.57C60.4766 93.57 54.5584 93.0217 51.4766 91.07C49.1436 89.5926 48.0981 88.5936 46.9766 86.0701C45.7077 83.2152 45.9766 79.5702 45.9766 76.5701C45.9766 71.6886 46.4766 70.4516 46.4766 65.57C46.4766 62.4458 46.8992 60.6655 46.4766 57.57C46.0085 54.1418 45.497 52.1781 43.9766 49.07C42.6199 46.2967 41.3292 44.5399 39.4766 42.0701C37.9766 40.0704 37.0975 38.1554 34.9766 39.57C33.4766 40.5706 33.7265 42.0701 33.9766 43.0705C34.7042 45.9809 34.9766 46.5316 34.9766 49.07C31.6571 48.0937 29.9007 47.0671 26.4766 46.57C22.9983 46.0651 20.9293 45.9131 17.4766 46.57C14.6249 47.1126 13.4766 47.1479 10.4766 49.07C8.15145 50.5598 6.43805 51.4814 5.47656 54.07C4.22293 57.4452 5.62414 59.9827 7.47656 63.07C8.8973 65.4379 11.9766 68.07 11.9766 68.07C11.9766 68.07 13.8879 76.709 15.4766 82.07C16.8369 86.6606 17.4105 88.5459 18.9766 93.0704C21.2266 99.5708 22.9469 102.632 26.4766 107.57C29.2879 111.503 31.2583 113.48 34.9766 116.57C38.2254 119.27 40.2164 120.645 43.9766 122.57C48.0454 124.653 54.9766 126.57 54.9766 126.57L60.4766 110.57V93.57Z" fill="#FFAB0B"/>
<path d="M30.9766 47.0698C30.9766 44.5314 30.7042 43.9807 29.9766 41.0702C29.7265 40.0699 29.4766 38.5703 30.9766 37.5698C33.0975 36.1551 34.4766 37.5821 35.9766 39.5818C37.8292 42.0515 39.1501 44.2965 40.5068 47.0698C42.0273 50.1779 42.0085 52.1415 42.4766 55.5698C42.8992 58.6653 42.4766 60.4456 42.4766 63.5698C42.4766 68.4513 41.9766 69.6883 41.9766 74.5699C41.9766 77.57 41.7077 81.2149 42.9766 84.0699C44.0981 86.5933 45.1436 87.5924 47.4766 89.0698C50.5584 91.0214 56.4766 91.5698 56.4766 91.5698V108.57L50.9766 124.57C50.9766 124.57 44.0454 122.653 39.9766 120.57C36.2164 118.645 34.2254 117.269 30.9766 114.57C27.2583 111.48 25.2879 109.503 22.4766 105.57C18.9469 100.632 17.2266 97.5706 14.9766 91.0702C13.4105 86.5456 12.8369 84.6604 11.4766 80.0698C9.88793 74.7088 7.97656 66.0698 7.97656 66.0698M30.9766 47.0698C32.7339 49.0224 33.0516 50.1114 33.9766 52.5702C34.8704 54.946 35.174 56.1616 35.9766 58.5698C36.4766 60.0702 36.9279 62.2635 35.4766 63.5698C34.1703 64.7454 32.3489 64.6675 30.9766 63.5698C28.4766 61.5702 28.4279 60.606 26.9766 58.5698C26.1593 57.4232 24.9766 55.5698 24.9766 55.5698C24.9766 55.5698 25.9766 60.5702 24.9766 63.5698C24.5399 64.8796 23.8042 65.6905 22.4766 66.0698C20.5436 66.6221 18.9766 64.5702 17.9766 63.5698C17.048 62.6408 16.5529 62.0908 15.7266 61.0698M30.9766 47.0698C27.6571 46.0935 25.9007 45.0668 22.4766 44.5698C18.9983 44.0649 16.9293 43.9128 13.4766 44.5698C10.6249 45.1124 9.47656 45.1476 6.47656 47.0698C4.15145 48.5595 2.43805 49.4811 1.47656 52.0698C0.222932 55.4449 1.62414 57.9824 3.47656 61.0698C4.8973 63.4377 7.97656 66.0698 7.97656 66.0698M13.9766 57.5702C13.9766 57.5702 14.8479 60.0935 15.7266 61.0698M15.7266 61.0698C15.4688 63.6195 14.9514 65.905 12.4766 66.5702C11.3451 66.8743 7.97656 66.0698 7.97656 66.0698" stroke="#50439F" stroke-width="2"/>
<path d="M150.979 166.07C150.979 162.088 149.979 154.57 149.979 154.57L131.986 163.07L121.486 172.57C121.486 172.57 122.429 181.453 123.486 187.07C124.3 191.4 125.023 193.771 125.986 198.07C127.382 204.312 128.05 207.837 129.486 214.07C130.432 218.178 130.479 221.07 131.986 224.57C132.48 225.719 132.773 226.766 133.986 227.07C135.979 227.57 140.08 227.07 143.986 227.07H153.486H164.486C166.438 227.07 168.652 227.836 169.486 226.07C169.602 225.824 169.794 225.497 169.486 224.57C168.795 222.499 166.478 222.962 164.486 222.07C162.003 220.96 160.334 220.943 157.986 219.57C156.063 218.447 154.792 217.873 153.486 216.07C150.735 212.276 151.869 208.741 151.486 204.07C151.096 199.335 151.486 196.57 151.486 192.07V180.57C151.486 175.103 150.979 171.57 150.979 166.07Z" fill="#FFAB0B"/>
<path d="M147.979 164.07C147.979 160.088 146.979 152.57 146.979 152.57L128.986 161.07L118.486 170.57C118.486 170.57 119.429 179.453 120.486 185.07C121.3 189.4 122.023 191.771 122.986 196.07C124.382 202.312 125.05 205.837 126.486 212.07C127.432 216.178 127.479 219.07 128.986 222.57C129.48 223.719 129.773 224.766 130.986 225.07C132.979 225.57 137.08 225.07 140.986 225.07H150.486H161.486C163.438 225.07 165.652 225.836 166.486 224.07C166.602 223.824 166.794 223.497 166.486 222.57C165.795 220.499 163.478 220.962 161.486 220.07C159.003 218.96 157.334 218.943 154.986 217.57C153.063 216.447 151.792 215.873 150.486 214.07C147.735 210.276 148.869 206.741 148.486 202.07C148.096 197.335 148.486 194.57 148.486 190.07V178.57C148.486 173.103 147.979 169.57 147.979 164.07Z" stroke="#50439F" stroke-width="2"/>
<path d="M97.4766 186.07C97.9668 181.017 98.4766 173.57 98.4766 173.57L85.4766 170.07L69.4766 157.57V170.07V178.57V192.57V206.07V216.07C69.4766 218.57 68.4766 219.07 65.4766 220.07C62.1371 221.183 61.4766 221.57 56.9766 223.07C55.0694 223.706 53.9766 223.57 52.4766 225.57C51.6565 226.664 51.254 227.959 52.4766 228.57C53.4766 229.07 55.9766 229.07 56.9766 229.07H65.4766H76.4766C79.9913 229.07 84.4766 229.453 85.4766 229.07C87.7024 228.218 88.8611 227.323 90.4766 225.57C93.9125 221.843 93.654 215.07 93.9766 213.07C94.2991 211.07 95.9766 198.07 95.9766 198.07C95.9766 198.07 97.055 190.416 97.4766 186.07Z" fill="#FFAB0B"/>
<path d="M94.4766 184.07C94.9668 179.017 95.4766 171.57 95.4766 171.57L82.4766 168.07L66.4766 155.57V168.07V176.57V190.57V204.07V214.07C66.4766 216.57 65.4766 217.07 62.4766 218.07C59.1371 219.183 58.4766 219.57 53.9766 221.07C52.0694 221.706 50.9766 221.57 49.4766 223.57C48.6565 224.664 48.254 225.959 49.4766 226.57C50.4766 227.07 52.9766 227.07 53.9766 227.07H62.4766H73.4766C76.9913 227.07 81.4766 227.453 82.4766 227.07C84.7024 226.218 85.8611 225.323 87.4766 223.57C90.9125 219.843 90.654 213.07 90.9766 211.07C91.2991 209.07 92.9766 196.07 92.9766 196.07C92.9766 196.07 94.055 188.416 94.4766 184.07Z" stroke="#50439F" stroke-width="2"/>
<path d="M156.476 89.5701C153.217 84.264 150.494 81.8561 145.976 77.5701C142.149 73.9388 139.947 71.872 135.476 69.0701C131.258 66.4261 128.727 65.0578 123.976 63.5701C118.152 61.7461 114.579 61.6588 108.476 61.5701C101.598 61.4701 97.6916 62.0795 90.9764 63.5701C84.3456 65.0419 80.4576 65.8515 74.4764 69.0701C68.8361 72.1052 65.8276 74.3698 61.4764 79.0701C56.766 84.1583 54.7999 87.7371 51.9764 94.0701C49.486 99.6558 48.4832 103.038 47.4764 109.07C46.1585 116.967 46.0329 121.696 47.4764 129.57C48.5118 135.219 49.4635 138.406 51.9764 143.57C55.155 150.102 57.6598 153.62 62.9764 158.57C68.3693 163.591 72.2539 165.553 78.9764 168.57C86.1951 171.81 90.6241 173.097 98.4764 174.07C104.871 174.863 108.612 175.075 114.976 174.07C121.685 173.011 125.396 171.597 131.476 168.57C137.634 165.505 140.777 163.073 145.976 158.57C150.466 154.682 153.161 152.497 156.476 147.57C159.598 142.931 160.811 139.908 162.476 134.57C164.303 128.717 165.043 125.201 164.976 119.07C164.915 113.355 164.023 110.142 162.501 104.66L162.476 104.57C160.789 98.4907 159.778 94.9462 156.476 89.5701Z" fill="white" stroke="#50439F" stroke-width="2"/>
<path d="M158.476 91.5701C155.217 86.264 152.494 83.8561 147.976 79.5701C144.149 75.9388 141.947 73.872 137.476 71.0701C133.258 68.4261 130.727 67.0578 125.976 65.5701C120.152 63.7461 116.579 63.6588 110.476 63.5701C103.598 63.4701 99.6916 64.0795 92.9764 65.5701C86.3456 67.0419 82.4576 67.8515 76.4764 71.0701C70.8361 74.1052 67.8276 76.3698 63.4764 81.0701C58.766 86.1583 56.7999 89.7371 53.9764 96.0701C51.486 101.656 50.4832 105.038 49.4764 111.07C48.1585 118.967 48.0329 123.696 49.4764 131.57C50.5118 137.219 51.4635 140.406 53.9764 145.57C57.155 152.102 59.6598 155.62 64.9764 160.57C70.3693 165.591 74.2539 167.553 80.9764 170.57C88.1951 173.81 92.6241 175.097 100.476 176.07C106.871 176.863 110.612 177.075 116.976 176.07C123.685 175.011 127.396 173.597 133.476 170.57C139.634 167.505 142.777 165.073 147.976 160.57C152.466 156.682 155.161 154.497 158.476 149.57C161.598 144.931 162.811 141.908 164.476 136.57C166.303 130.717 167.043 127.201 166.976 121.07C166.915 115.355 166.023 112.142 164.501 106.66L164.476 106.57C162.789 100.491 161.778 96.9462 158.476 91.5701Z" fill="#FFAB0B"/>
<path d="M156.476 89.5701C153.217 84.264 150.494 81.8561 145.976 77.5701C142.149 73.9388 139.947 71.872 135.476 69.0701C131.258 66.4261 128.727 65.0578 123.976 63.5701C118.152 61.7461 114.579 61.6588 108.476 61.5701C101.598 61.4701 97.6916 62.0795 90.9764 63.5701C84.3456 65.0419 80.4576 65.8515 74.4764 69.0701C68.8361 72.1052 65.8276 74.3698 61.4764 79.0701C56.766 84.1583 54.7999 87.7371 51.9764 94.0701C49.486 99.6558 48.4832 103.038 47.4764 109.07C46.1585 116.967 46.0329 121.696 47.4764 129.57C48.5118 135.219 49.4635 138.406 51.9764 143.57C55.155 150.102 57.6598 153.62 62.9764 158.57C68.3693 163.591 72.2539 165.553 78.9764 168.57C86.1951 171.81 90.6241 173.097 98.4764 174.07C104.871 174.863 108.612 175.075 114.976 174.07C121.685 173.011 125.396 171.597 131.476 168.57C137.634 165.505 140.777 163.073 145.976 158.57C150.466 154.682 153.161 152.497 156.476 147.57C159.598 142.931 160.811 139.908 162.476 134.57C164.303 128.717 165.043 125.201 164.976 119.07C164.915 113.355 164.023 110.142 162.501 104.66L162.476 104.57C160.789 98.4907 159.778 94.9462 156.476 89.5701Z" stroke="#50439F" stroke-width="2"/>
<ellipse cx="3.5" cy="4" rx="3.5" ry="4" transform="matrix(-1 0 0 1 114.977 80.5703)" fill="#50439F"/>
<ellipse cx="3.5" cy="4" rx="3.5" ry="4" transform="matrix(-1 0 0 1 101.977 80.5703)" fill="#50439F"/>
<path d="M100.456 107.091C100.018 107.529 100.016 108.242 100.483 108.649C102.91 110.757 105.923 112.091 109.133 112.464C112.716 112.879 116.334 112.072 119.4 110.173C122.466 108.275 124.801 105.396 126.026 102.003C127.123 98.9636 127.272 95.6715 126.466 92.5598C126.311 91.9601 125.671 91.6442 125.083 91.8411C124.496 92.038 124.184 92.6731 124.333 93.2745C124.982 95.9049 124.842 98.6776 123.916 101.242C122.863 104.158 120.855 106.634 118.219 108.266C115.582 109.899 112.472 110.593 109.391 110.235C106.684 109.921 104.139 108.811 102.074 107.058C101.601 106.657 100.894 106.653 100.456 107.091Z" fill="#50439F"/>
<path d="M153.973 84.8123C153.973 84.8123 124.436 88.2375 98.0066 64.4626C97.5376 64.6803 148.387 11.8379 148.387 11.8379L153.973 84.804V84.8123Z" fill="#E93405"/>
<path d="M122.082 53.0898L118.448 56.6155L113.49 55.6189L115.718 60.1662L113.231 64.5795L118.247 63.8593L121.672 67.5859L122.543 62.5948L127.141 60.4928L122.669 58.1229L122.082 53.0898Z" fill="#FFFCF5"/>
<path d="M149.317 25.546L149.425 25.4371L150.07 33.8282L149.107 32.7898L144.099 33.5016L146.578 29.0883L144.351 24.541L149.317 25.546Z" fill="#FFFCF5"/>
<path d="M136.278 34.0293L134.537 35.7293L132.15 35.2436L133.222 37.4293L132.024 39.548L134.436 39.2047L136.086 40.9968L136.496 38.6017L138.707 37.5884L136.563 36.4495L136.278 34.0293Z" fill="#FFFCF5"/>
<path d="M145.732 52.2441L143.99 53.9358L141.603 53.4584L142.675 55.6358L141.477 57.7545L143.889 57.4195L145.539 59.2033L145.958 56.8082L148.16 55.7949L146.016 54.6559L145.732 52.2441Z" fill="#FFFCF5"/>
<path d="M142.677 72.7783L140.935 74.4699L138.548 73.9842L139.62 76.1699L138.423 78.2887L140.835 77.9453L142.484 79.7374L142.903 77.3423L145.105 76.3291L142.962 75.1901L142.677 72.7783Z" fill="#FFFCF5"/>
<g style="mix-blend-mode:multiply">
<path d="M98.0071 64.4699C97.5717 64.6793 141.922 18.5699 147.751 12.5068C148.011 12.5487 148.245 12.5822 148.446 12.6157L149.032 20.2448C148.203 20.027 147.332 19.7842 146.436 19.4995C140.867 17.7073 134.218 32.0108 124.646 44.698C115.744 56.5059 109.564 70.1143 153.261 75.6246L153.965 84.8281C153.965 84.8281 124.428 88.2532 97.9988 64.4783L98.0071 64.4699Z" fill="#CDD0D1"/>
</g>
<path d="M141.696 5.58177C140.138 9.95321 142.416 14.7601 146.788 16.3177C151.159 17.8754 155.966 15.5975 157.524 11.2261C159.081 6.85467 156.803 2.04777 152.432 0.490128C148.06 -1.06751 143.254 1.21034 141.696 5.58177Z" fill="#7263B1"/>
<g style="mix-blend-mode:multiply">
<path d="M147.893 0.188477C147.893 0.188477 147.885 0.205207 147.885 0.221956C146.327 4.59339 148.605 9.4003 152.976 10.9579C154.492 11.4939 156.058 11.5693 157.523 11.2594C155.949 15.6057 151.159 17.8752 146.804 16.3175C142.433 14.7599 140.155 9.95302 141.713 5.58159C142.734 2.72592 145.138 0.774684 147.901 0.188477H147.893Z" fill="#CDD0D1"/>
</g>
<path d="M111 97.5C111 102.194 107.194 106 102.5 106C97.806 106 94 102.194 94 97.5C94 92.806 97.806 89 102.5 89C107.194 89 111 92.806 111 97.5Z" fill="#E93405"/>
<path d="M102.892 94.0116C102.892 95.6862 101.535 97.0437 99.8602 97.0437C98.1856 97.0437 96.8281 95.6862 96.8281 94.0116C96.8281 92.337 98.1856 90.9795 99.8602 90.9795C101.535 90.9795 102.892 92.337 102.892 94.0116Z" fill="#FFFCF5"/>
<g style="mix-blend-mode:multiply">
<path d="M108.227 91.2324C108.291 91.6574 108.335 92.0888 108.335 92.5328C108.335 97.2268 104.529 101.033 99.8349 101.033C97.6275 101.033 95.623 100.183 94.1133 98.8C94.7413 102.879 98.2491 106 102.499 106C107.193 106 110.999 102.194 110.999 97.4996C110.999 95.013 109.927 92.7865 108.227 91.2324Z" fill="#CDD0D1"/>
</g>
</svg>
