<svg width="218" height="227" viewBox="0 0 218 227" fill="none" xmlns="http://www.w3.org/2000/svg">
<path d="M172.478 101.07C167.174 97.534 157.978 93.5703 157.978 93.5703V114.57L161.478 134.07C161.478 134.07 166.314 136.501 168.478 139.07C171.072 142.149 171.212 144.749 172.478 148.57C173.431 151.448 174.105 153.062 174.478 156.07C174.815 158.783 175.062 160.4 174.478 163.07C174.029 165.125 172.913 166.013 172.478 168.07C171.953 170.554 171.36 172.291 172.478 174.57C173.029 175.693 173.298 176.656 174.478 177.07C176.216 177.68 177.11 175.804 178.478 174.57C180.692 172.575 182.478 168.07 182.478 168.07C182.478 168.07 181.443 173.711 182.478 177.07C183.277 179.663 183.479 182.016 185.978 183.07C187.597 183.753 188.882 183.807 190.478 183.07C192.857 181.972 194.478 177.07 194.478 177.07C194.478 177.07 195.565 179.932 197.478 181.07C199.66 182.368 201.553 183.82 203.978 183.07C205.435 182.62 206.198 181.881 206.978 180.57C208.176 178.557 206.978 174.57 206.978 174.57C206.978 174.57 208.716 179.596 211.478 180.57C213.135 181.155 214.572 181.625 215.978 180.57C217.853 179.164 217.479 176.913 217.479 174.57C217.479 170.079 216.919 167.462 215.978 163.07C214.479 156.07 213.71 154.063 211.478 148.57C209.078 142.664 207.403 139.448 203.978 134.07C200.391 128.437 197.774 125.061 193.478 120.57L182.478 109.07C178.182 104.579 176.639 103.844 172.478 101.07Z" fill="#FFAB0B"/>
<path d="M203.978 171.57C203.978 171.57 205.716 176.596 208.478 177.57C210.135 178.155 211.572 178.625 212.978 177.57C214.853 176.164 214.479 173.913 214.479 171.57C214.479 167.079 213.919 164.462 212.978 160.07C211.479 153.07 210.71 151.063 208.478 145.57C206.078 139.664 204.403 136.448 200.978 131.07C197.391 125.437 194.774 122.061 190.478 117.57C186.182 113.079 183.774 110.561 179.478 106.07C175.182 101.579 173.639 100.844 169.478 98.0703C164.174 94.534 154.978 90.5703 154.978 90.5703V111.57L158.478 131.07C158.478 131.07 163.314 133.501 165.478 136.07C168.072 139.149 168.212 141.749 169.478 145.57C170.431 148.448 171.105 150.062 171.478 153.07C171.815 155.783 172.062 157.4 171.478 160.07C171.029 162.125 169.913 163.013 169.478 165.07C168.953 167.554 168.36 169.291 169.478 171.57C170.029 172.693 170.298 173.656 171.478 174.07C173.216 174.68 174.11 172.804 175.478 171.57C177.692 169.575 179.478 165.07 179.478 165.07C179.478 165.07 178.443 170.711 179.478 174.07C180.277 176.663 180.479 179.016 182.978 180.07C184.597 180.753 185.882 180.807 187.478 180.07C189.857 178.972 191.478 174.07 191.478 174.07M203.978 171.57L200.978 165.07M203.978 171.57C203.978 171.57 205.176 175.557 203.978 177.57C203.198 178.881 202.435 179.62 200.978 180.07C198.553 180.82 196.66 179.368 194.478 178.07C192.565 176.932 191.478 174.07 191.478 174.07M191.478 174.07L190.478 167.57" stroke="#50439F" stroke-width="2"/>
<path d="M60.4775 90.57C60.4775 90.57 54.5593 90.0217 51.4775 88.07C49.1446 86.5926 48.0991 85.5936 46.9775 83.0701C45.7087 80.2152 45.9775 76.5702 45.9775 73.5701C45.9775 68.6886 46.4775 67.4516 46.4775 62.57C46.4775 59.4458 46.9001 57.6655 46.4775 54.57C46.0095 51.1418 45.498 49.1781 43.9775 46.07C42.6208 43.2967 41.3301 41.5399 39.4775 39.0701C37.9775 37.0704 37.0984 35.1554 34.9775 36.57C33.4775 37.5706 33.7274 39.0701 33.9775 40.0705C34.7052 42.9809 34.9775 43.5316 34.9775 46.07C31.6581 45.0937 29.9017 44.0671 26.4775 43.57C22.9993 43.0651 20.9303 42.9131 17.4775 43.57C14.6259 44.1126 13.4775 44.1479 10.4775 46.07C8.15243 47.5598 6.43903 48.4814 5.47754 51.07C4.22391 54.4452 5.62512 56.9827 7.47754 60.07C8.89828 62.4379 11.9775 65.07 11.9775 65.07C11.9775 65.07 13.8889 73.709 15.4775 79.07C16.8379 83.6606 17.4114 85.5459 18.9775 90.0704C21.2275 96.5708 22.9479 99.6322 26.4775 104.57C29.2889 108.503 31.2593 110.48 34.9775 113.57C38.2264 116.27 40.2174 117.645 43.9775 119.57C48.0464 121.653 54.9775 123.57 54.9775 123.57L60.4775 107.57V90.57Z" fill="#FFAB0B"/>
<path d="M30.9775 44.0698C30.9775 41.5314 30.7052 40.9807 29.9775 38.0702C29.7274 37.0699 29.4775 35.5703 30.9775 34.5698C33.0984 33.1551 34.4775 34.5821 35.9775 36.5818C37.8301 39.0515 39.1511 41.2965 40.5078 44.0698C42.0283 47.1779 42.0095 49.1415 42.4775 52.5698C42.9001 55.6653 42.4775 57.4456 42.4775 60.5698C42.4775 65.4513 41.9775 66.6883 41.9775 71.5699C41.9775 74.57 41.7087 78.2149 42.9775 81.0699C44.0991 83.5933 45.1446 84.5924 47.4775 86.0698C50.5593 88.0214 56.4775 88.5698 56.4775 88.5698V105.57L50.9775 121.57C50.9775 121.57 44.0464 119.653 39.9775 117.57C36.2174 115.645 34.2264 114.269 30.9775 111.57C27.2593 108.48 25.2889 106.503 22.4775 102.57C18.9479 97.632 17.2275 94.5706 14.9775 88.0702C13.4115 83.5456 12.8379 81.6604 11.4775 77.0698C9.88891 71.7088 7.97754 63.0698 7.97754 63.0698M30.9775 44.0698C32.7349 46.0224 33.0525 47.1114 33.9775 49.5702C34.8713 51.946 35.175 53.1616 35.9775 55.5698C36.4775 57.0702 36.9289 59.2635 35.4775 60.5698C34.1713 61.7454 32.3499 61.6675 30.9775 60.5698C28.4775 58.5702 28.4289 57.606 26.9775 55.5698C26.1603 54.4232 24.9775 52.5698 24.9775 52.5698C24.9775 52.5698 25.9775 57.5702 24.9775 60.5698C24.5409 61.8796 23.8051 62.6905 22.4775 63.0698C20.5445 63.6221 18.9775 61.5702 17.9775 60.5698C17.0489 59.6408 16.5539 59.0908 15.7275 58.0698M30.9775 44.0698C27.6581 43.0935 25.9017 42.0668 22.4775 41.5698C18.9993 41.0649 16.9303 40.9128 13.4775 41.5698C10.6259 42.1124 9.47754 42.1476 6.47754 44.0698C4.15243 45.5595 2.43903 46.4811 1.47754 49.0698C0.223909 52.4449 1.62512 54.9824 3.47754 58.0698C4.89828 60.4377 7.97754 63.0698 7.97754 63.0698M13.9775 54.5702C13.9775 54.5702 14.8489 57.0935 15.7275 58.0698M15.7275 58.0698C15.4698 60.6195 14.9524 62.905 12.4775 63.5702C11.3461 63.8743 7.97754 63.0698 7.97754 63.0698" stroke="#50439F" stroke-width="2"/>
<path d="M150.979 163.07C150.979 159.088 149.979 151.57 149.979 151.57L131.986 160.07L121.486 169.57C121.486 169.57 122.43 178.453 123.486 184.07C124.301 188.4 125.024 190.771 125.986 195.07C127.383 201.312 128.05 204.837 129.486 211.07C130.433 215.178 130.479 218.07 131.986 221.57C132.481 222.719 132.774 223.766 133.986 224.07C135.979 224.57 140.081 224.07 143.986 224.07H153.486H164.486C166.439 224.07 168.653 224.836 169.486 223.07C169.603 222.824 169.795 222.497 169.486 221.57C168.796 219.499 166.479 219.962 164.486 219.07C162.004 217.96 160.335 217.943 157.986 216.57C156.064 215.447 154.793 214.873 153.486 213.07C150.736 209.276 151.87 205.741 151.486 201.07C151.097 196.335 151.486 193.57 151.486 189.07V177.57C151.486 172.103 150.979 168.57 150.979 163.07Z" fill="#FFAB0B"/>
<path d="M147.979 161.07C147.979 157.088 146.979 149.57 146.979 149.57L128.986 158.07L118.486 167.57C118.486 167.57 119.43 176.453 120.486 182.07C121.301 186.4 122.024 188.771 122.986 193.07C124.383 199.312 125.05 202.837 126.486 209.07C127.433 213.178 127.479 216.07 128.986 219.57C129.481 220.719 129.774 221.766 130.986 222.07C132.979 222.57 137.081 222.07 140.986 222.07H150.486H161.486C163.439 222.07 165.653 222.836 166.486 221.07C166.603 220.824 166.795 220.497 166.486 219.57C165.796 217.499 163.479 217.962 161.486 217.07C159.004 215.96 157.335 215.943 154.986 214.57C153.064 213.447 151.793 212.873 150.486 211.07C147.736 207.276 148.87 203.741 148.486 199.07C148.097 194.335 148.486 191.57 148.486 187.07V175.57C148.486 170.103 147.979 166.57 147.979 161.07Z" stroke="#50439F" stroke-width="2"/>
<path d="M97.4775 183.07C97.9678 178.017 98.4775 170.57 98.4775 170.57L85.4775 167.07L69.4775 154.57V167.07V175.57V189.57V203.07V213.07C69.4775 215.57 68.4775 216.07 65.4775 217.07C62.138 218.183 61.4775 218.57 56.9775 220.07C55.0704 220.706 53.9775 220.57 52.4775 222.57C51.6574 223.664 51.255 224.959 52.4775 225.57C53.4775 226.07 55.9775 226.07 56.9775 226.07H65.4775H76.4775C79.9923 226.07 84.4775 226.453 85.4775 226.07C87.7034 225.218 88.8621 224.323 90.4775 222.57C93.9134 218.843 93.655 212.07 93.9775 210.07C94.3001 208.07 95.9775 195.07 95.9775 195.07C95.9775 195.07 97.0559 187.416 97.4775 183.07Z" fill="#FFAB0B"/>
<path d="M94.4775 181.07C94.9678 176.017 95.4775 168.57 95.4775 168.57L82.4775 165.07L66.4775 152.57V165.07V173.57V187.57V201.07V211.07C66.4775 213.57 65.4775 214.07 62.4775 215.07C59.138 216.183 58.4775 216.57 53.9775 218.07C52.0704 218.706 50.9775 218.57 49.4775 220.57C48.6574 221.664 48.255 222.959 49.4775 223.57C50.4775 224.07 52.9775 224.07 53.9775 224.07H62.4775H73.4775C76.9923 224.07 81.4775 224.453 82.4775 224.07C84.7034 223.218 85.8621 222.323 87.4775 220.57C90.9134 216.843 90.655 210.07 90.9775 208.07C91.3001 206.07 92.9775 193.07 92.9775 193.07C92.9775 193.07 94.0559 185.416 94.4775 181.07Z" stroke="#50439F" stroke-width="2"/>
<path d="M156.477 86.5701C153.218 81.264 150.495 78.8561 145.977 74.5701C142.15 70.9388 139.948 68.872 135.477 66.0701C131.259 63.4261 128.728 62.0578 123.977 60.5701C118.153 58.7461 114.58 58.6588 108.477 58.5701C101.599 58.4701 97.6926 59.0795 90.9774 60.5701C84.3466 62.0419 80.4586 62.8515 74.4774 66.0701C68.8371 69.1052 65.8286 71.3698 61.4774 76.0701C56.767 81.1583 54.8009 84.7371 51.9774 91.0701C49.487 96.6558 48.4841 100.038 47.4774 106.07C46.1595 113.967 46.0339 118.696 47.4774 126.57C48.5128 132.219 49.4645 135.406 51.9774 140.57C55.156 147.102 57.6607 150.62 62.9774 155.57C68.3703 160.591 72.2549 162.553 78.9774 165.57C86.1961 168.81 90.6251 170.097 98.4774 171.07C104.872 171.863 108.613 172.075 114.977 171.07C121.686 170.011 125.397 168.597 131.477 165.57C137.635 162.505 140.778 160.073 145.977 155.57C150.467 151.682 153.162 149.497 156.477 144.57C159.599 139.931 160.812 136.908 162.477 131.57C164.304 125.717 165.044 122.201 164.977 116.07C164.916 110.355 164.024 107.142 162.502 101.66L162.477 101.57C160.79 95.4907 159.779 91.9462 156.477 86.5701Z" fill="white" stroke="#50439F" stroke-width="2"/>
<path d="M158.477 88.5701C155.218 83.264 152.495 80.8561 147.977 76.5701C144.15 72.9388 141.948 70.872 137.477 68.0701C133.259 65.4261 130.728 64.0578 125.977 62.5701C120.153 60.7461 116.58 60.6588 110.477 60.5701C103.599 60.4701 99.6926 61.0795 92.9774 62.5701C86.3466 64.0419 82.4586 64.8515 76.4774 68.0701C70.8371 71.1052 67.8286 73.3698 63.4774 78.0701C58.767 83.1583 56.8009 86.7371 53.9774 93.0701C51.487 98.6558 50.4841 102.038 49.4774 108.07C48.1595 115.967 48.0339 120.696 49.4774 128.57C50.5128 134.219 51.4645 137.406 53.9774 142.57C57.156 149.102 59.6607 152.62 64.9774 157.57C70.3703 162.591 74.2549 164.553 80.9774 167.57C88.1961 170.81 92.6251 172.097 100.477 173.07C106.872 173.863 110.613 174.075 116.977 173.07C123.686 172.011 127.397 170.597 133.477 167.57C139.635 164.505 142.778 162.073 147.977 157.57C152.467 153.682 155.162 151.497 158.477 146.57C161.599 141.931 162.812 138.908 164.477 133.57C166.304 127.717 167.044 124.201 166.977 118.07C166.916 112.355 166.024 109.142 164.502 103.66L164.477 103.57C162.79 97.4907 161.779 93.9462 158.477 88.5701Z" fill="#FFAB0B"/>
<path d="M156.477 86.5701C153.218 81.264 150.495 78.8561 145.977 74.5701C142.15 70.9388 139.948 68.872 135.477 66.0701C131.259 63.4261 128.728 62.0578 123.977 60.5701C118.153 58.7461 114.58 58.6588 108.477 58.5701C101.599 58.4701 97.6926 59.0795 90.9774 60.5701C84.3466 62.0419 80.4586 62.8515 74.4774 66.0701C68.8371 69.1052 65.8286 71.3698 61.4774 76.0701C56.767 81.1583 54.8009 84.7371 51.9774 91.0701C49.487 96.6558 48.4841 100.038 47.4774 106.07C46.1595 113.967 46.0339 118.696 47.4774 126.57C48.5128 132.219 49.4645 135.406 51.9774 140.57C55.156 147.102 57.6607 150.62 62.9774 155.57C68.3703 160.591 72.2549 162.553 78.9774 165.57C86.1961 168.81 90.6251 170.097 98.4774 171.07C104.872 171.863 108.613 172.075 114.977 171.07C121.686 170.011 125.397 168.597 131.477 165.57C137.635 162.505 140.778 160.073 145.977 155.57C150.467 151.682 153.162 149.497 156.477 144.57C159.599 139.931 160.812 136.908 162.477 131.57C164.304 125.717 165.044 122.201 164.977 116.07C164.916 110.355 164.024 107.142 162.502 101.66L162.477 101.57C160.79 95.4907 159.779 91.9462 156.477 86.5701Z" stroke="#50439F" stroke-width="2"/>
<ellipse cx="3.5" cy="4" rx="3.5" ry="4" transform="matrix(-1 0 0 1 114.978 77.5703)" fill="#50439F"/>
<ellipse cx="3.5" cy="4" rx="3.5" ry="4" transform="matrix(-1 0 0 1 101.978 77.5703)" fill="#50439F"/>
<path d="M100.457 104.091C100.019 104.529 100.017 105.242 100.484 105.649C102.911 107.757 105.924 109.091 109.134 109.464C112.717 109.879 116.335 109.072 119.401 107.173C122.467 105.275 124.802 102.396 126.027 99.0033C127.124 95.9636 127.273 92.6715 126.467 89.5598C126.311 88.9601 125.672 88.6442 125.084 88.8411C124.497 89.038 124.185 89.6731 124.334 90.2745C124.983 92.9049 124.842 95.6776 123.917 98.2415C122.864 101.158 120.856 103.634 118.22 105.266C115.583 106.899 112.473 107.593 109.392 107.235C106.685 106.921 104.14 105.811 102.075 104.058C101.602 103.657 100.895 103.653 100.457 104.091Z" fill="#50439F"/>
<path d="M157.887 85.6452C157.887 85.6452 127.326 85.1667 103.404 58.1182C102.898 58.2726 161.502 12.5344 161.502 12.5344L157.889 85.6369L157.887 85.6452Z" fill="#E93405"/>
<path d="M129.41 49.9974L125.253 53.0173L120.324 51.3784L122.016 56.1808L118.916 60.2317L124.124 60.1756L127.142 64.3212L128.667 59.4851L133.624 58.0036L129.366 55.0662L129.41 49.9974Z" fill="#FFFCF5"/>
<path d="M160.701 26.2523L160.826 26.1586L160.413 34.5658L159.563 33.4095L154.365 33.4584L157.456 29.4064L155.765 24.604L160.701 26.2523Z" fill="#FFFCF5"/>
<path d="M146.321 32.9555L144.327 34.413L141.955 33.6181L142.77 35.9266L141.278 37.8709L143.781 37.8468L145.235 39.8407L145.96 37.5191L148.344 36.8042L146.303 35.3933L146.321 32.9555Z" fill="#FFFCF5"/>
<path d="M153.638 52.2619L151.645 53.7111L149.272 52.9245L150.088 55.2247L148.596 57.169L151.098 57.1532L152.553 59.1389L153.286 56.8183L155.662 56.1023L153.62 54.6913L153.638 52.2619Z" fill="#FFFCF5"/>
<path d="M147.902 72.2272L145.91 73.6765L143.537 72.8816L144.352 75.19L142.86 77.1343L145.364 77.1102L146.818 79.1042L147.55 76.7836L149.926 76.0676L147.885 74.6567L147.902 72.2272Z" fill="#FFFCF5"/>
<g style="mix-blend-mode:multiply">
<path d="M103.403 58.1255C102.932 58.276 154.05 18.363 160.768 13.1143C161.027 13.1899 161.262 13.2539 161.463 13.3135L161.087 20.9571C160.27 20.6324 159.412 20.2773 158.535 19.8773C153.084 17.3691 144.477 30.6831 133.095 42.0106C122.509 52.5539 114.47 65.2401 158.334 76.4392L157.877 85.6597C157.877 85.6597 127.316 85.1812 103.394 58.1327L103.403 58.1255Z" fill="#CDD0D1"/>
</g>
<path d="M155.476 5.45139C153.33 9.5827 155.04 14.6492 159.299 16.7677C163.559 18.8862 168.752 17.2577 170.899 13.1264C173.045 8.99511 171.335 3.92861 167.076 1.8101C162.816 -0.308405 157.623 1.32008 155.476 5.45139Z" fill="#7263B1"/>
<g style="mix-blend-mode:multiply">
<path d="M162.485 0.915272C162.485 0.915272 162.474 0.930767 162.472 0.947379C160.326 5.07869 162.035 10.1452 166.295 12.2637C167.773 12.9942 169.36 13.2744 170.894 13.1594C168.734 17.2636 163.559 18.8859 159.316 16.7696C155.057 14.6511 153.347 9.58465 155.493 5.45334C156.9 2.75508 159.6 1.13516 162.493 0.916371L162.485 0.915272Z" fill="#CDD0D1"/>
</g>
<path d="M111.001 94.5C111.001 99.194 107.195 103 102.501 103C97.807 103 94.001 99.194 94.001 94.5C94.001 89.806 97.807 86 102.501 86C107.195 86 111.001 89.806 111.001 94.5Z" fill="#E93405"/>
<path d="M102.893 91.0116C102.893 92.6862 101.536 94.0437 99.8612 94.0437C98.1866 94.0437 96.8291 92.6862 96.8291 91.0116C96.8291 89.337 98.1866 87.9795 99.8612 87.9795C101.536 87.9795 102.893 89.337 102.893 91.0116Z" fill="#FFFCF5"/>
<g style="mix-blend-mode:multiply">
<path d="M108.228 88.2324C108.291 88.6574 108.336 89.0888 108.336 89.5328C108.336 94.2268 104.53 98.0328 99.8359 98.0328C97.6284 98.0328 95.624 97.1828 94.1143 95.8C94.7422 99.8787 98.2501 103 102.5 103C107.194 103 111 99.1936 111 94.4996C111 92.013 109.928 89.7865 108.228 88.2324Z" fill="#CDD0D1"/>
</g>
<circle cx="97.5" cy="79.5" r="1.5" fill="#D9D9D9"/>
<circle cx="110.5" cy="79.5" r="1.5" fill="#D9D9D9"/>
</svg>
