<svg width="219" height="227" viewBox="0 0 219 227" fill="none" xmlns="http://www.w3.org/2000/svg">
<path d="M173.478 101.07C168.174 97.534 158.978 93.5703 158.978 93.5703V114.57L162.478 134.07C162.478 134.07 167.314 136.501 169.478 139.07C172.072 142.149 172.212 144.749 173.478 148.57C174.431 151.448 175.105 153.062 175.478 156.07C175.815 158.783 176.062 160.4 175.478 163.07C175.029 165.125 173.913 166.013 173.478 168.07C172.953 170.554 172.36 172.291 173.478 174.57C174.029 175.693 174.298 176.656 175.478 177.07C177.216 177.68 178.11 175.804 179.478 174.57C181.692 172.575 183.478 168.07 183.478 168.07C183.478 168.07 182.443 173.711 183.478 177.07C184.277 179.663 184.479 182.016 186.978 183.07C188.597 183.753 189.882 183.807 191.478 183.07C193.857 181.972 195.478 177.07 195.478 177.07C195.478 177.07 196.565 179.932 198.478 181.07C200.66 182.368 202.553 183.82 204.978 183.07C206.435 182.62 207.198 181.881 207.978 180.57C209.176 178.557 207.978 174.57 207.978 174.57C207.978 174.57 209.716 179.596 212.478 180.57C214.135 181.155 215.572 181.625 216.978 180.57C218.853 179.164 218.479 176.913 218.479 174.57C218.479 170.079 217.919 167.462 216.978 163.07C215.479 156.07 214.71 154.063 212.478 148.57C210.078 142.664 208.403 139.448 204.978 134.07C201.391 128.437 198.774 125.061 194.478 120.57L183.478 109.07C179.182 104.579 177.639 103.844 173.478 101.07Z" fill="#FFAB0B"/>
<path d="M204.978 171.57C204.978 171.57 206.716 176.596 209.478 177.57C211.135 178.155 212.572 178.625 213.978 177.57C215.853 176.164 215.479 173.913 215.479 171.57C215.479 167.079 214.919 164.462 213.978 160.07C212.479 153.07 211.71 151.063 209.478 145.57C207.078 139.664 205.403 136.448 201.978 131.07C198.391 125.437 195.774 122.061 191.478 117.57C187.182 113.079 184.774 110.561 180.478 106.07C176.182 101.579 174.639 100.844 170.478 98.0703C165.174 94.534 155.978 90.5703 155.978 90.5703V111.57L159.478 131.07C159.478 131.07 164.314 133.501 166.478 136.07C169.072 139.149 169.212 141.749 170.478 145.57C171.431 148.448 172.105 150.062 172.478 153.07C172.815 155.783 173.062 157.4 172.478 160.07C172.029 162.125 170.913 163.013 170.478 165.07C169.953 167.554 169.36 169.291 170.478 171.57C171.029 172.693 171.298 173.656 172.478 174.07C174.216 174.68 175.11 172.804 176.478 171.57C178.692 169.575 180.478 165.07 180.478 165.07C180.478 165.07 179.443 170.711 180.478 174.07C181.277 176.663 181.479 179.016 183.978 180.07C185.597 180.753 186.882 180.807 188.478 180.07C190.857 178.972 192.478 174.07 192.478 174.07M204.978 171.57L201.978 165.07M204.978 171.57C204.978 171.57 206.176 175.557 204.978 177.57C204.198 178.881 203.435 179.62 201.978 180.07C199.553 180.82 197.66 179.368 195.478 178.07C193.565 176.932 192.478 174.07 192.478 174.07M192.478 174.07L191.478 167.57" stroke="#50439F" stroke-width="2"/>
<path d="M61 124.29C61 124.29 54.9195 124.76 51.7531 126.433C49.3562 127.699 48.282 128.556 47.1297 130.719C45.8261 133.166 46.1023 136.291 46.1023 138.863C46.1023 143.048 46.616 144.108 46.616 148.293C46.616 150.971 47.0502 152.497 46.616 155.151C46.1351 158.09 45.6096 159.773 44.0474 162.438C42.6535 164.815 41.3274 167.321 39.424 169.438C37.8829 171.153 36.9797 172.794 34.8006 171.582C33.2594 170.724 33.5162 169.438 33.7732 168.581C34.5208 166.086 34.8006 164.614 34.8006 162.438C31.3901 163.275 29.5855 164.155 26.0674 164.581C22.4938 165.014 20.3681 165.144 16.8206 164.581C13.8908 164.116 12.7109 164.085 9.6286 162.438C7.23972 161.161 5.47932 160.37 4.49146 158.151C3.20345 155.258 4.64309 153.083 6.54631 150.436C8.00602 148.406 10.2665 145.721 10.2665 145.721C10.2665 145.721 13.1335 138.744 14.7657 134.148C16.1634 130.213 16.7527 128.597 18.3617 124.718C20.6735 119.145 22.441 116.521 26.0674 112.288C28.9559 108.916 30.9803 107.221 34.8006 104.573C38.1386 102.258 40.1842 101.079 44.0474 99.429C48.2279 97.6435 55.3491 96 55.3491 96L61 109.716V124.29Z" fill="#FFAB0B"/>
<path d="M47.7531 127.404C50.9195 125.733 57 125.263 57 125.263V110.703L51.3491 97C51.3491 97 44.2279 98.642 40.0474 100.426C36.1842 102.074 34.1386 103.252 30.8006 105.565C26.9803 108.211 24.9559 109.904 22.0674 113.273C18.441 117.502 16.6735 120.124 14.3617 125.691C12.7527 129.566 12.1634 131.181 10.7657 135.112C9.13353 139.704 7.16974 147.103 7.16974 147.103C7.16974 147.103 3.61746 150.265 2.5 152.5C1.5 154.5 1.08578 157.172 2.5 160C3 161 3.23972 162.1 5.6286 163.376C8.71088 165.022 9.89076 165.052 12.8206 165.517C16.3681 166.079 18.4938 165.949 22.0674 165.517C25.5855 165.091 27.3901 164.212 30.8006 163.376C30.8006 165.55 30.5208 166.021 29.7732 168.514C29.5162 169.371 28.9589 172.143 30.5 173C32.6791 174.211 34.3966 171.501 35.9377 169.789C37.8411 167.674 39.1983 165.751 40.5923 163.376C42.1544 160.714 42.1351 159.032 42.616 156.096C43.0502 153.445 42.616 151.92 42.616 149.244C42.616 145.063 42.1023 144.004 42.1023 139.823C42.1023 137.253 41.8261 134.132 43.1297 131.687C44.282 129.525 45.3562 128.67 47.7531 127.404Z" stroke="#50439F" stroke-width="2"/>
<path d="M151.979 163.07C151.979 159.088 150.979 151.57 150.979 151.57L132.986 160.07L122.486 169.57C122.486 169.57 123.43 178.453 124.486 184.07C125.301 188.4 126.024 190.771 126.986 195.07C128.383 201.312 129.05 204.837 130.486 211.07C131.433 215.178 131.479 218.07 132.986 221.57C133.481 222.719 133.774 223.766 134.986 224.07C136.979 224.57 141.081 224.07 144.986 224.07H154.486H165.486C167.439 224.07 169.653 224.836 170.486 223.07C170.603 222.824 170.795 222.497 170.486 221.57C169.796 219.499 167.479 219.962 165.486 219.07C163.004 217.96 161.335 217.943 158.986 216.57C157.064 215.447 155.793 214.873 154.486 213.07C151.736 209.276 152.87 205.741 152.486 201.07C152.097 196.335 152.486 193.57 152.486 189.07V177.57C152.486 172.103 151.979 168.57 151.979 163.07Z" fill="#FFAB0B"/>
<path d="M148.979 161.07C148.979 157.088 147.979 149.57 147.979 149.57L129.986 158.07L119.486 167.57C119.486 167.57 120.43 176.453 121.486 182.07C122.301 186.4 123.024 188.771 123.986 193.07C125.383 199.312 126.05 202.837 127.486 209.07C128.433 213.178 128.479 216.07 129.986 219.57C130.481 220.719 130.774 221.766 131.986 222.07C133.979 222.57 138.081 222.07 141.986 222.07H151.486H162.486C164.439 222.07 166.653 222.836 167.486 221.07C167.603 220.824 167.795 220.497 167.486 219.57C166.796 217.499 164.479 217.962 162.486 217.07C160.004 215.96 158.335 215.943 155.986 214.57C154.064 213.447 152.793 212.873 151.486 211.07C148.736 207.276 149.87 203.741 149.486 199.07C149.097 194.335 149.486 191.57 149.486 187.07V175.57C149.486 170.103 148.979 166.57 148.979 161.07Z" stroke="#50439F" stroke-width="2"/>
<path d="M98.4775 183.07C98.9678 178.017 99.4775 170.57 99.4775 170.57L86.4775 167.07L70.4775 154.57V167.07V175.57V189.57V203.07V213.07C70.4775 215.57 69.4775 216.07 66.4775 217.07C63.138 218.183 62.4775 218.57 57.9775 220.07C56.0704 220.706 54.9775 220.57 53.4775 222.57C52.6574 223.664 52.255 224.959 53.4775 225.57C54.4775 226.07 56.9775 226.07 57.9775 226.07H66.4775H77.4775C80.9923 226.07 85.4775 226.453 86.4775 226.07C88.7034 225.218 89.8621 224.323 91.4775 222.57C94.9134 218.843 94.655 212.07 94.9775 210.07C95.3001 208.07 96.9775 195.07 96.9775 195.07C96.9775 195.07 98.0559 187.416 98.4775 183.07Z" fill="#FFAB0B"/>
<path d="M95.4775 181.07C95.9678 176.017 96.4775 168.57 96.4775 168.57L83.4775 165.07L67.4775 152.57V165.07V173.57V187.57V201.07V211.07C67.4775 213.57 66.4775 214.07 63.4775 215.07C60.138 216.183 59.4775 216.57 54.9775 218.07C53.0704 218.706 51.9775 218.57 50.4775 220.57C49.6574 221.664 49.255 222.959 50.4775 223.57C51.4775 224.07 53.9775 224.07 54.9775 224.07H63.4775H74.4775C77.9923 224.07 82.4775 224.453 83.4775 224.07C85.7034 223.218 86.8621 222.323 88.4775 220.57C91.9134 216.843 91.655 210.07 91.9775 208.07C92.3001 206.07 93.9775 193.07 93.9775 193.07C93.9775 193.07 95.0559 185.416 95.4775 181.07Z" stroke="#50439F" stroke-width="2"/>
<path d="M157.477 86.5701C154.218 81.264 151.495 78.8561 146.977 74.5701C143.15 70.9388 140.948 68.872 136.477 66.0701C132.259 63.4261 129.728 62.0578 124.977 60.5701C119.153 58.7461 115.58 58.6588 109.477 58.5701C102.599 58.4701 98.6926 59.0795 91.9774 60.5701C85.3466 62.0419 81.4586 62.8515 75.4774 66.0701C69.8371 69.1052 66.8286 71.3698 62.4774 76.0701C57.767 81.1583 55.8009 84.7371 52.9774 91.0701C50.487 96.6558 49.4841 100.038 48.4774 106.07C47.1595 113.967 47.0339 118.696 48.4774 126.57C49.5128 132.219 50.4645 135.406 52.9774 140.57C56.156 147.102 58.6607 150.62 63.9774 155.57C69.3703 160.591 73.2549 162.553 79.9774 165.57C87.1961 168.81 91.6251 170.097 99.4774 171.07C105.872 171.863 109.613 172.075 115.977 171.07C122.686 170.011 126.397 168.597 132.477 165.57C138.635 162.505 141.778 160.073 146.977 155.57C151.467 151.682 154.162 149.497 157.477 144.57C160.599 139.931 161.812 136.908 163.477 131.57C165.304 125.717 166.044 122.201 165.977 116.07C165.916 110.355 165.024 107.142 163.502 101.66L163.477 101.57C161.79 95.4907 160.779 91.9462 157.477 86.5701Z" fill="white" stroke="#50439F" stroke-width="2"/>
<path d="M159.477 88.5701C156.218 83.264 153.495 80.8561 148.977 76.5701C145.15 72.9388 142.948 70.872 138.477 68.0701C134.259 65.4261 131.728 64.0578 126.977 62.5701C121.153 60.7461 117.58 60.6588 111.477 60.5701C104.599 60.4701 100.693 61.0795 93.9774 62.5701C87.3466 64.0419 83.4586 64.8515 77.4774 68.0701C71.8371 71.1052 68.8286 73.3698 64.4774 78.0701C59.767 83.1583 57.8009 86.7371 54.9774 93.0701C52.487 98.6558 51.4841 102.038 50.4774 108.07C49.1595 115.967 49.0339 120.696 50.4774 128.57C51.5128 134.219 52.4645 137.406 54.9774 142.57C58.156 149.102 60.6607 152.62 65.9774 157.57C71.3703 162.591 75.2549 164.553 81.9774 167.57C89.1961 170.81 93.6251 172.097 101.477 173.07C107.872 173.863 111.613 174.075 117.977 173.07C124.686 172.011 128.397 170.597 134.477 167.57C140.635 164.505 143.778 162.073 148.977 157.57C153.467 153.682 156.162 151.497 159.477 146.57C162.599 141.931 163.812 138.908 165.477 133.57C167.304 127.717 168.044 124.201 167.977 118.07C167.916 112.355 167.024 109.142 165.502 103.66L165.477 103.57C163.79 97.4907 162.779 93.9462 159.477 88.5701Z" fill="#FFAB0B"/>
<path d="M157.477 86.5701C154.218 81.264 151.495 78.8561 146.977 74.5701C143.15 70.9388 140.948 68.872 136.477 66.0701C132.259 63.4261 129.728 62.0578 124.977 60.5701C119.153 58.7461 115.58 58.6588 109.477 58.5701C102.599 58.4701 98.6926 59.0795 91.9774 60.5701C85.3466 62.0419 81.4586 62.8515 75.4774 66.0701C69.8371 69.1052 66.8286 71.3698 62.4774 76.0701C57.767 81.1583 55.8009 84.7371 52.9774 91.0701C50.487 96.6558 49.4841 100.038 48.4774 106.07C47.1595 113.967 47.0339 118.696 48.4774 126.57C49.5128 132.219 50.4645 135.406 52.9774 140.57C56.156 147.102 58.6607 150.62 63.9774 155.57C69.3703 160.591 73.2549 162.553 79.9774 165.57C87.1961 168.81 91.6251 170.097 99.4774 171.07C105.872 171.863 109.613 172.075 115.977 171.07C122.686 170.011 126.397 168.597 132.477 165.57C138.635 162.505 141.778 160.073 146.977 155.57C151.467 151.682 154.162 149.497 157.477 144.57C160.599 139.931 161.812 136.908 163.477 131.57C165.304 125.717 166.044 122.201 165.977 116.07C165.916 110.355 165.024 107.142 163.502 101.66L163.477 101.57C161.79 95.4907 160.779 91.9462 157.477 86.5701Z" stroke="#50439F" stroke-width="2"/>
<ellipse cx="3.5" cy="4" rx="3.5" ry="4" transform="matrix(-1 0 0 1 115.978 77.5703)" fill="#50439F"/>
<ellipse cx="3.5" cy="4" rx="3.5" ry="4" transform="matrix(-1 0 0 1 102.978 77.5703)" fill="#50439F"/>
<circle cx="98.5" cy="83.5" r="1.5" fill="#D9D9D9"/>
<circle cx="111.5" cy="83.5" r="1.5" fill="#D9D9D9"/>
<path d="M101.457 104.091C101.019 104.529 101.017 105.242 101.484 105.649C103.911 107.757 106.924 109.091 110.134 109.464C113.717 109.879 117.335 109.072 120.401 107.173C123.467 105.275 125.802 102.396 127.027 99.0033C128.124 95.9636 128.273 92.6715 127.467 89.5598C127.311 88.9601 126.672 88.6442 126.084 88.8411C125.497 89.038 125.185 89.6731 125.334 90.2745C125.983 92.9049 125.842 95.6776 124.917 98.2415C123.864 101.158 121.856 103.634 119.22 105.266C116.583 106.899 113.473 107.593 110.392 107.235C107.685 106.921 105.14 105.811 103.075 104.058C102.602 103.657 101.895 103.653 101.457 104.091Z" fill="#50439F"/>
<path d="M158.887 85.6452C158.887 85.6452 128.326 85.1667 104.404 58.1182C103.898 58.2726 162.502 12.5344 162.502 12.5344L158.889 85.6369L158.887 85.6452Z" fill="#E93405"/>
<path d="M130.41 49.9974L126.253 53.0173L121.324 51.3784L123.016 56.1808L119.916 60.2317L125.124 60.1756L128.142 64.3212L129.667 59.4851L134.624 58.0036L130.366 55.0662L130.41 49.9974Z" fill="#FFFCF5"/>
<path d="M161.701 26.2523L161.826 26.1586L161.413 34.5658L160.563 33.4095L155.365 33.4584L158.456 29.4064L156.765 24.604L161.701 26.2523Z" fill="#FFFCF5"/>
<path d="M147.321 32.9555L145.327 34.413L142.955 33.6181L143.77 35.9266L142.278 37.8709L144.781 37.8468L146.235 39.8407L146.96 37.5191L149.344 36.8042L147.303 35.3933L147.321 32.9555Z" fill="#FFFCF5"/>
<path d="M154.638 52.2619L152.645 53.7111L150.272 52.9245L151.088 55.2247L149.596 57.169L152.098 57.1532L153.553 59.1389L154.286 56.8183L156.662 56.1023L154.62 54.6913L154.638 52.2619Z" fill="#FFFCF5"/>
<path d="M148.902 72.2272L146.91 73.6765L144.537 72.8816L145.352 75.19L143.86 77.1343L146.364 77.1102L147.818 79.1042L148.55 76.7836L150.926 76.0676L148.885 74.6567L148.902 72.2272Z" fill="#FFFCF5"/>
<g style="mix-blend-mode:multiply">
<path d="M104.403 58.1255C103.932 58.276 155.05 18.363 161.768 13.1143C162.027 13.1899 162.262 13.2539 162.463 13.3135L162.087 20.9571C161.27 20.6324 160.412 20.2773 159.535 19.8773C154.084 17.3691 145.477 30.6831 134.095 42.0106C123.509 52.5539 115.47 65.2401 159.334 76.4392L158.877 85.6597C158.877 85.6597 128.316 85.1812 104.394 58.1327L104.403 58.1255Z" fill="#CDD0D1"/>
</g>
<path d="M156.476 5.45139C154.33 9.5827 156.04 14.6492 160.299 16.7677C164.559 18.8862 169.752 17.2577 171.899 13.1264C174.045 8.99511 172.335 3.92861 168.076 1.8101C163.816 -0.308405 158.623 1.32008 156.476 5.45139Z" fill="#7263B1"/>
<g style="mix-blend-mode:multiply">
<path d="M163.485 0.915272C163.485 0.915272 163.474 0.930767 163.472 0.947379C161.326 5.07869 163.035 10.1452 167.295 12.2637C168.773 12.9942 170.36 13.2744 171.894 13.1594C169.734 17.2636 164.559 18.8859 160.316 16.7696C156.057 14.6511 154.347 9.58465 156.493 5.45334C157.9 2.75508 160.6 1.13516 163.493 0.916371L163.485 0.915272Z" fill="#CDD0D1"/>
</g>
<path d="M112.001 94.5C112.001 99.194 108.195 103 103.501 103C98.807 103 95.001 99.194 95.001 94.5C95.001 89.806 98.807 86 103.501 86C108.195 86 112.001 89.806 112.001 94.5Z" fill="#E93405"/>
<path d="M103.893 91.0116C103.893 92.6862 102.536 94.0437 100.861 94.0437C99.1866 94.0437 97.8291 92.6862 97.8291 91.0116C97.8291 89.337 99.1866 87.9795 100.861 87.9795C102.536 87.9795 103.893 89.337 103.893 91.0116Z" fill="#FFFCF5"/>
<g style="mix-blend-mode:multiply">
<path d="M109.228 88.2324C109.291 88.6574 109.336 89.0888 109.336 89.5328C109.336 94.2268 105.53 98.0328 100.836 98.0328C98.6284 98.0328 96.624 97.1828 95.1143 95.8C95.7422 99.8787 99.2501 103 103.5 103C108.194 103 112 99.1936 112 94.4996C112 92.013 110.928 89.7865 109.228 88.2324Z" fill="#CDD0D1"/>
</g>
</svg>
