<svg id="eCkFD4w8Yp31" xmlns="http://www.w3.org/2000/svg" xmlns:xlink="http://www.w3.org/1999/xlink" viewBox="0 0 218 227" shape-rendering="geometricPrecision" text-rendering="geometricPrecision"><path d="M172.478,101.07c-5.304-3.536-14.5-7.4997-14.5-7.4997v20.9997l3.5,19.5c0,0,4.836,2.431,7,5c2.594,3.079,2.734,5.679,4,9.5.953,2.878,1.627,4.492,2,7.5.337,2.713.584,4.33,0,7-.449,2.055-1.565,2.943-2,5-.525,2.484-1.118,4.221,0,6.5.551,1.123.82,2.086,2,2.5c1.738.61,2.632-1.266,4-2.5c2.214-1.995,4-6.5,4-6.5s-1.035,5.641,0,9c.799,2.593,1.001,4.946,3.5,6c1.619.683,2.904.737,4.5,0c2.379-1.098,4-6,4-6s1.087,2.862,3,4c2.182,1.298,4.075,2.75,6.5,2c1.457-.45,2.22-1.189,3-2.5c1.198-2.013,0-6,0-6s1.738,5.026,4.5,6c1.657.585,3.094,1.055,4.5,0c1.875-1.406,1.501-3.657,1.501-6c0-4.491-.56-7.108-1.501-11.5-1.499-7-2.268-9.007-4.5-14.5-2.4-5.906-4.075-9.122-7.5-14.5-3.587-5.633-6.204-9.009-10.5-13.5l-11-11.5c-4.296-4.491-5.839-5.226-10-8Z" fill="#ffab0b"/><path d="M203.978,171.57c0,0,1.738,5.026,4.5,6c1.657.585,3.094,1.055,4.5,0c1.875-1.406,1.501-3.657,1.501-6c0-4.491-.56-7.108-1.501-11.5-1.499-7-2.268-9.007-4.5-14.5-2.4-5.906-4.075-9.122-7.5-14.5-3.587-5.633-6.204-9.009-10.5-13.5s-6.704-7.009-11-11.5-5.839-5.226-10-7.9997c-5.304-3.5363-14.5-7.5-14.5-7.5v20.9997l3.5,19.5c0,0,4.836,2.431,7,5c2.594,3.079,2.734,5.679,4,9.5.953,2.878,1.627,4.492,2,7.5.337,2.713.584,4.33,0,7-.449,2.055-1.565,2.943-2,5-.525,2.484-1.118,4.221,0,6.5.551,1.123.82,2.086,2,2.5c1.738.61,2.632-1.266,4-2.5c2.214-1.995,4-6.5,4-6.5s-1.035,5.641,0,9c.799,2.593,1.001,4.946,3.5,6c1.619.683,2.904.737,4.5,0c2.379-1.098,4-6,4-6m12.5-2.5l-3-6.5m3,6.5c0,0,1.198,3.987,0,6-.78,1.311-1.543,2.05-3,2.5-2.425.75-4.318-.702-6.5-2-1.913-1.138-3-4-3-4m0,0l-1-6.5" fill="none" stroke="#50439f" stroke-width="2"/><path id="eCkFD4w8Yp34" d="M60.4775,90.57c0,0-5.9182-.5483-9-2.5-2.3329-1.4774-3.3784-2.4764-4.5-4.9999-1.2688-2.8549-1-6.4999-1-9.5c0-4.8815.5-6.1185.5-11.0001c0-3.1242.4226-4.9045,0-8-.468-3.4282-.9795-5.3919-2.5-8.5-1.3567-2.7733-2.6474-4.5301-4.5-6.9999-1.5-1.9997-2.3791-3.9147-4.5-2.5001-1.5,1.0006-1.2501,2.5001-1,3.5005.7277,2.9104,1,3.4611,1,5.9995-3.3194-.9763-5.0758-2.0029-8.5-2.5-3.4782-.5049-5.5472-.6569-9,0-2.8516.5426-4,.5779-7,2.5-2.32507,1.4898-4.03847,2.4114-4.99996,5-1.25363,3.3752.14758,5.9127,2,9c1.42074,2.3679,4.49996,5,4.49996,5s1.9114,8.639,3.5,14c1.3604,4.5906,1.9339,6.4759,3.5,11.0004c2.25,6.5004,3.9704,9.5618,7.5,14.4996c2.8114,3.933,4.7818,5.91,8.5,9c3.2489,2.7,5.2399,4.075,9,6c4.0689,2.083,11,4,11,4l5.5-16v-17Z" fill="#ffab0b"/><path id="eCkFD4w8Yp35" d="M30.9775,44.0698c0-2.5384-.2723-3.0891-1-5.9996-.2501-1.0003-.5-2.4999,1-3.5004c2.1209-1.4147,3.5.0123,5,2.012c1.8526,2.4697,3.1736,4.7147,4.5303,7.488c1.5205,3.1081,1.5017,5.0717,1.9697,8.5.4226,3.0955,0,4.8758,0,8c0,4.8815-.5,6.1185-.5,11.0001c0,3.0001-.2688,6.645,1,9.5c1.1216,2.5234,2.1671,3.5225,4.5,4.9999c3.0818,1.9516,9,2.5,9,2.5v17.0002l-5.5,16c0,0-6.9311-1.917-11-4-3.7601-1.925-5.7511-3.301-9-6-3.7182-3.09-5.6886-5.067-8.5-9-3.5296-4.938-5.25-7.9994-7.5-14.4998-1.566-4.5246-2.1396-6.4098-3.5-11.0004-1.58859-5.361-3.49996-14-3.49996-14m22.99996-19c1.7574,1.9526,2.075,3.0416,3,5.5004.8938,2.3758,1.1975,3.5914,2,5.9996.5,1.5004.9514,3.6937-.5,5-1.3062,1.1756-3.1276,1.0977-4.5,0-2.5-1.9996-2.5486-2.9638-4-5-.8172-1.1466-2-3-2-3s1,5.0004,0,8c-.4366,1.3098-1.1724,2.1207-2.5,2.5-1.933.5523-3.5-1.4996-4.5-2.5-.9286-.929-1.4236-1.479-2.25-2.5m15.25-14c-3.3194-.9763-5.0758-2.003-8.5-2.5-3.4782-.5049-5.5472-.657-9,0-2.8516.5426-3.99996.5778-6.99996,2.5-2.32511,1.4897-4.03851,2.4113-5,5-1.253631,3.3751.14758,5.9126,2,9c1.42074,2.3679,4.5,5,4.5,5m5.99996-8.4996c0,0,.8714,2.5233,1.75,3.4996m0,0c-.2577,2.5497-.7751,4.8352-3.25,5.5004-1.1314.3041-4.49996-.5004-4.49996-.5004" fill="none" stroke="#50439f" stroke-width="2"/><path d="M150.979,163.07c0-3.982-1-11.5-1-11.5l-17.993,8.5-10.5,9.5c0,0,.944,8.883,2,14.5.815,4.33,1.538,6.701,2.5,11c1.397,6.242,2.064,9.767,3.5,16c.947,4.108.993,7,2.5,10.5.495,1.149.788,2.196,2,2.5c1.993.5,6.095,0,10,0h9.5h11c1.953,0,4.167.766,5-1c.117-.246.309-.573,0-1.5-.69-2.071-3.007-1.608-5-2.5-2.482-1.11-4.151-1.127-6.5-2.5-1.922-1.123-3.193-1.697-4.5-3.5-2.75-3.794-1.616-7.329-2-12-.389-4.735,0-7.5,0-12v-11.5c0-5.467-.507-9-.507-14.5Z" fill="#ffab0b"/><path d="M147.979,161.07c0-3.982-1-11.5-1-11.5l-17.993,8.5-10.5,9.5c0,0,.944,8.883,2,14.5.815,4.33,1.538,6.701,2.5,11c1.397,6.242,2.064,9.767,3.5,16c.947,4.108.993,7,2.5,10.5.495,1.149.788,2.196,2,2.5c1.993.5,6.095,0,10,0h9.5h11c1.953,0,4.167.766,5-1c.117-.246.309-.573,0-1.5-.69-2.071-3.007-1.608-5-2.5-2.482-1.11-4.151-1.127-6.5-2.5-1.922-1.123-3.193-1.697-4.5-3.5-2.75-3.794-1.616-7.329-2-12-.389-4.735,0-7.5,0-12v-11.5c0-5.467-.507-9-.507-14.5Z" fill="none" stroke="#50439f" stroke-width="2"/><path d="M97.4775,183.07c.4903-5.053,1-12.5,1-12.5l-13-3.5-16-12.5v12.5v8.5v14v13.5v10c0,2.5-1,3-4,4-3.3395,1.113-4,1.5-8.5,3-1.9071.636-3,.5-4.5,2.5-.8201,1.094-1.2225,2.389,0,3c1,.5,3.5.5,4.5.5h8.5h11c3.5148,0,8,.383,9,0c2.2259-.852,3.3846-1.747,5-3.5c3.4359-3.727,3.1775-10.5,3.5-12.5s2-15,2-15s1.0784-7.654,1.5-12Z" fill="#ffab0b"/><path d="M94.4775,181.07c.4903-5.053,1-12.5,1-12.5l-13-3.5-16-12.5v12.5v8.5v14v13.5v10c0,2.5-1,3-4,4-3.3395,1.113-4,1.5-8.5,3-1.9071.636-3,.5-4.5,2.5-.8201,1.094-1.2225,2.389,0,3c1,.5,3.5.5,4.5.5h8.5h11c3.5148,0,8,.383,9,0c2.2259-.852,3.3846-1.747,5-3.5c3.4359-3.727,3.1775-10.5,3.5-12.5s2-15,2-15s1.0784-7.654,1.5-12Z" fill="none" stroke="#50439f" stroke-width="2"/><path d="M156.477,86.5701c-3.259-5.3061-5.982-7.714-10.5-12-3.827-3.6313-6.029-5.6981-10.5-8.5-4.218-2.644-6.749-4.0123-11.5-5.5-5.824-1.824-9.397-1.9113-15.5-2-6.878-.1-10.7844.5094-17.4996,2-6.6308,1.4718-10.5188,2.2814-16.5,5.5-5.6403,3.0351-8.6488,5.2997-13,10-4.7104,5.0882-6.6765,8.667-9.5,15-2.4904,5.5857-3.4933,8.9679-4.5,14.9999-1.3179,7.897-1.4435,12.626,0,20.5c1.0354,5.649,1.9871,8.836,4.5,14c3.1786,6.532,5.6833,10.05,11,15c5.3929,5.021,9.2775,6.983,16,10c7.2187,3.24,11.6477,4.527,19.5,5.5c6.3946.793,10.1356,1.005,16.4996,0c6.709-1.059,10.42-2.473,16.5-5.5c6.158-3.065,9.301-5.497,14.5-10c4.49-3.888,7.185-6.073,10.5-11c3.122-4.639,4.335-7.662,6-13c1.827-5.853,2.567-9.369,2.5-15.5-.061-5.715-.953-8.928-2.475-14.41l-.025-.09c-1.687-6.0793-2.698-9.6238-6-14.9999Z" fill="#fff" stroke="#50439f" stroke-width="2"/><path d="M158.477,88.5701c-3.259-5.3061-5.982-7.714-10.5-12-3.827-3.6313-6.029-5.6981-10.5-8.5-4.218-2.644-6.749-4.0123-11.5-5.5-5.824-1.824-9.397-1.9113-15.5-2-6.878-.1-10.7844.5094-17.4996,2-6.6308,1.4718-10.5188,2.2814-16.5,5.5-5.6403,3.0351-8.6488,5.2997-13,10-4.7104,5.0882-6.6765,8.667-9.5,15-2.4904,5.5857-3.4933,8.9679-4.5,14.9999-1.3179,7.897-1.4435,12.626,0,20.5c1.0354,5.649,1.9871,8.836,4.5,14c3.1786,6.532,5.6833,10.05,11,15c5.3929,5.021,9.2775,6.983,16,10c7.2187,3.24,11.6477,4.527,19.4996,5.5c6.395.793,10.136,1.005,16.5,0c6.709-1.059,10.42-2.473,16.5-5.5c6.158-3.065,9.301-5.497,14.5-10c4.49-3.888,7.185-6.073,10.5-11c3.122-4.639,4.335-7.662,6-13c1.827-5.853,2.567-9.369,2.5-15.5-.061-5.715-.953-8.928-2.475-14.41l-.025-.09c-1.687-6.0793-2.698-9.6238-6-14.9999Z" fill="#ffab0b"/><path d="M156.477,86.5701c-3.259-5.3061-5.982-7.714-10.5-12-3.827-3.6313-6.029-5.6981-10.5-8.5-4.218-2.644-6.749-4.0123-11.5-5.5-5.824-1.824-9.397-1.9113-15.5-2-6.878-.1-10.7844.5094-17.4996,2-6.6308,1.4718-10.5188,2.2814-16.5,5.5-5.6403,3.0351-8.6488,5.2997-13,10-4.7104,5.0882-6.6765,8.667-9.5,15-2.4904,5.5857-3.4933,8.9679-4.5,14.9999-1.3179,7.897-1.4435,12.626,0,20.5c1.0354,5.649,1.9871,8.836,4.5,14c3.1786,6.532,5.6833,10.05,11,15c5.3929,5.021,9.2775,6.983,16,10c7.2187,3.24,11.6477,4.527,19.5,5.5c6.3946.793,10.1356,1.005,16.4996,0c6.709-1.059,10.42-2.473,16.5-5.5c6.158-3.065,9.301-5.497,14.5-10c4.49-3.888,7.185-6.073,10.5-11c3.122-4.639,4.335-7.662,6-13c1.827-5.853,2.567-9.369,2.5-15.5-.061-5.715-.953-8.928-2.475-14.41l-.025-.09c-1.687-6.0793-2.698-9.6238-6-14.9999Z" fill="none" stroke="#50439f" stroke-width="2"/><ellipse rx="3.5" ry="4" transform="matrix(-1 0 0 1 111.478 81.5703)" fill="#50439f"/><ellipse rx="3.5" ry="4" transform="matrix(-1 0 0 1 98.478 81.5703)" fill="#50439f"/><path d="M100.457,104.091c-.438.438-.44,1.151.027,1.558c2.427,2.108,5.44,3.442,8.65,3.815c3.583.415,7.201-.392,10.267-2.291c3.066-1.898,5.401-4.777,6.626-8.1697c1.097-3.0397,1.246-6.3318.44-9.4435-.156-.5997-.795-.9156-1.383-.7187-.587.1969-.899.832-.75,1.4334.649,2.6304.508,5.4031-.417,7.967-1.053,2.9165-3.061,5.3925-5.697,7.0245-2.637,1.633-5.747,2.327-8.828,1.969-2.707-.314-5.252-1.424-7.317-3.177-.473-.401-1.18-.405-1.618.033Z" fill="#50439f"/><path d="M157.887,85.6452c0,0-30.561-.4785-54.483-27.527-.506.1544,58.098-45.5838,58.098-45.5838l-3.613,73.1025-.002.0083Z" fill="#e93405"/><path d="M129.41,49.9974l-4.157,3.0199-4.929-1.6389l1.692,4.8024-3.1,4.0509l5.208-.0561l3.018,4.1456l1.525-4.8361l4.957-1.4815-4.258-2.9374.044-5.0688Z" fill="#fffcf5"/><path d="M160.701,26.2523l.125-.0937-.413,8.4072-.85-1.1563-5.198.0489l3.091-4.052-1.691-4.8024l4.936,1.6483Z" fill="#fffcf5"/><path d="M146.321,32.9555l-1.994,1.4575-2.372-.7949.815,2.3085-1.492,1.9443l2.503-.0241l1.454,1.9939.725-2.3216l2.384-.7149-2.041-1.4109.018-2.4378Z" fill="#fffcf5"/><path d="M153.638,52.2619l-1.993,1.4492-2.373-.7866.816,2.3002-1.492,1.9443l2.502-.0158l1.455,1.9857.733-2.3206l2.376-.716-2.042-1.411.018-2.4294Z" fill="#fffcf5"/><path d="M147.902,72.2272l-1.992,1.4493-2.373-.7949.815,2.3084-1.492,1.9443l2.504-.0241l1.454,1.994.732-2.3206l2.376-.716-2.041-1.4109.017-2.4295Z" fill="#fffcf5"/><g style="mix-blend-mode:multiply"><path d="M103.403,58.1255c-.471.1505,50.647-39.7625,57.365-45.0112.259.0756.494.1396.695.1992l-.376,7.6436c-.817-.3247-1.675-.6798-2.552-1.0798-5.451-2.5082-14.058,10.8058-25.44,22.1333-10.586,10.5433-18.625,23.2295,25.239,34.4286l-.457,9.2205c0,0-30.561-.4785-54.483-27.527l.009-.0072Z" fill="#cdd0d1"/></g><path d="M155.476,5.45139c-2.146,4.13131-.436,9.19781,3.823,11.31631c4.26,2.1185,9.453.49,11.6-3.6413c2.146-4.13129.436-9.19779-3.823-11.3163-4.26-2.118505-9.453-.49002-11.6,3.64129Z" fill="#7263b1"/><g style="mix-blend-mode:multiply"><path d="M162.485,0.915272c0,0-.011.015495-.013.032107-2.146,4.131311-.437,9.197821,3.823,11.316321c1.478.7305,3.065,1.0107,4.599.8957-2.16,4.1042-7.335,5.7265-11.578,3.6102-4.259-2.1185-5.969-7.18495-3.823-11.31626c1.407-2.69826,4.107-4.31818,7-4.536969l-.008-.001099Z" fill="#cdd0d1"/></g><path d="M111.001,94.5c0,4.694-3.806,8.5-8.5,8.5s-8.5-3.806-8.5-8.5s3.806-8.5,8.5-8.5s8.5,3.806,8.5,8.5Z" fill="#e93405"/><path d="M102.893,91.0116c0,1.6746-1.357,3.0321-3.0318,3.0321-1.6746,0-3.0321-1.3575-3.0321-3.0321s1.3575-3.0321,3.0321-3.0321c1.6748,0,3.0318,1.3575,3.0318,3.0321Z" fill="#fffcf5"/><g style="mix-blend-mode:multiply"><path d="M108.228,88.2324c.063.425.108.8564.108,1.3004c0,4.694-3.806,8.5-8.5001,8.5-2.2075,0-4.2119-.85-5.7216-2.2328.6279,4.0787,4.1358,7.2,8.3857,7.2c4.694,0,8.5-3.8064,8.5-8.5004c0-2.4866-1.072-4.7131-2.772-6.2672Z" fill="#cdd0d1"/></g><circle id="eCkFD4w8Yp331" r="1.5" transform="translate(97.5 79.5)" fill="#d9d9d9"/><circle id="eCkFD4w8Yp332" r="1.5" transform="translate(110.5 79.5)" fill="#d9d9d9"/>
<script><![CDATA[
!function(t,n){"object"==typeof exports&&"undefined"!=typeof module?module.exports=n():"function"==typeof __SVGATOR_DEFINE__&&__SVGATOR_DEFINE__.amd?__SVGATOR_DEFINE__(n):((t="undefined"!=typeof globalThis?globalThis:t||self).__SVGATOR_PLAYER__=t.__SVGATOR_PLAYER__||{},t.__SVGATOR_PLAYER__["5c7f360c"]=n())}(this,(function(){"use strict";function t(t,n){var e=Object.keys(t);if(Object.getOwnPropertySymbols){var r=Object.getOwnPropertySymbols(t);n&&(r=r.filter((function(n){return Object.getOwnPropertyDescriptor(t,n).enumerable}))),e.push.apply(e,r)}return e}function n(n){for(var e=1;e<arguments.length;e++){var r=null!=arguments[e]?arguments[e]:{};e%2?t(Object(r),!0).forEach((function(t){o(n,t,r[t])})):Object.getOwnPropertyDescriptors?Object.defineProperties(n,Object.getOwnPropertyDescriptors(r)):t(Object(r)).forEach((function(t){Object.defineProperty(n,t,Object.getOwnPropertyDescriptor(r,t))}))}return n}function e(t){return(e="function"==typeof Symbol&&"symbol"==typeof Symbol.iterator?function(t){return typeof t}:function(t){return t&&"function"==typeof Symbol&&t.constructor===Symbol&&t!==Symbol.prototype?"symbol":typeof t})(t)}function r(t,n){if(!(t instanceof n))throw new TypeError("Cannot call a class as a function")}function i(t,n){for(var e=0;e<n.length;e++){var r=n[e];r.enumerable=r.enumerable||!1,r.configurable=!0,"value"in r&&(r.writable=!0),Object.defineProperty(t,r.key,r)}}function u(t,n,e){return n&&i(t.prototype,n),e&&i(t,e),t}function o(t,n,e){return n in t?Object.defineProperty(t,n,{value:e,enumerable:!0,configurable:!0,writable:!0}):t[n]=e,t}function a(t){return(a=Object.setPrototypeOf?Object.getPrototypeOf:function(t){return t.__proto__||Object.getPrototypeOf(t)})(t)}function l(t,n){return(l=Object.setPrototypeOf||function(t,n){return t.__proto__=n,t})(t,n)}function s(){if("undefined"==typeof Reflect||!Reflect.construct)return!1;if(Reflect.construct.sham)return!1;if("function"==typeof Proxy)return!0;try{return Boolean.prototype.valueOf.call(Reflect.construct(Boolean,[],(function(){}))),!0}catch(t){return!1}}function f(t,n,e){return(f=s()?Reflect.construct:function(t,n,e){var r=[null];r.push.apply(r,n);var i=new(Function.bind.apply(t,r));return e&&l(i,e.prototype),i}).apply(null,arguments)}function c(t,n){if(n&&("object"==typeof n||"function"==typeof n))return n;if(void 0!==n)throw new TypeError("Derived constructors may only return object or undefined");return function(t){if(void 0===t)throw new ReferenceError("this hasn't been initialised - super() hasn't been called");return t}(t)}function h(t,n,e){return(h="undefined"!=typeof Reflect&&Reflect.get?Reflect.get:function(t,n,e){var r=function(t,n){for(;!Object.prototype.hasOwnProperty.call(t,n)&&null!==(t=a(t)););return t}(t,n);if(r){var i=Object.getOwnPropertyDescriptor(r,n);return i.get?i.get.call(e):i.value}})(t,n,e||t)}function v(t){return function(t){if(Array.isArray(t))return y(t)}(t)||function(t){if("undefined"!=typeof Symbol&&null!=t[Symbol.iterator]||null!=t["@@iterator"])return Array.from(t)}(t)||function(t,n){if(!t)return;if("string"==typeof t)return y(t,n);var e=Object.prototype.toString.call(t).slice(8,-1);"Object"===e&&t.constructor&&(e=t.constructor.name);if("Map"===e||"Set"===e)return Array.from(t);if("Arguments"===e||/^(?:Ui|I)nt(?:8|16|32)(?:Clamped)?Array$/.test(e))return y(t,n)}(t)||function(){throw new TypeError("Invalid attempt to spread non-iterable instance.\nIn order to be iterable, non-array objects must have a [Symbol.iterator]() method.")}()}function y(t,n){(null==n||n>t.length)&&(n=t.length);for(var e=0,r=new Array(n);e<n;e++)r[e]=t[e];return r}function g(t,n,e){if(Number.isInteger(t))return t;var r=Math.pow(10,n);return Math[e]((+t+Number.EPSILON)*r)/r}Number.isInteger||(Number.isInteger=function(t){return"number"==typeof t&&isFinite(t)&&Math.floor(t)===t}),Number.EPSILON||(Number.EPSILON=2220446049250313e-31);var p=d(Math.pow(10,-6));function d(t){var n=arguments.length>1&&void 0!==arguments[1]?arguments[1]:6;return g(t,n,"round")}function m(t,n){var e=arguments.length>2&&void 0!==arguments[2]?arguments[2]:p;return Math.abs(t-n)<e}d(Math.pow(10,-2)),d(Math.pow(10,-4));var b=Math.PI/180;function w(t){return t*b}function x(t){return t/b}function _(t){return t}function A(t,n,e){var r=1-e;return 3*e*r*(t*r+n*e)+e*e*e}function k(){var t=arguments.length>0&&void 0!==arguments[0]?arguments[0]:0,n=arguments.length>1&&void 0!==arguments[1]?arguments[1]:0,e=arguments.length>2&&void 0!==arguments[2]?arguments[2]:1,r=arguments.length>3&&void 0!==arguments[3]?arguments[3]:1;return t<0||t>1||e<0||e>1?null:m(t,n)&&m(e,r)?_:function(i){if(i<=0)return t>0?i*n/t:0===n&&e>0?i*r/e:0;if(i>=1)return e<1?1+(i-1)*(r-1)/(e-1):1===e&&t<1?1+(i-1)*(n-1)/(t-1):1;for(var u,o=0,a=1;o<a;){var l=A(t,e,u=(o+a)/2);if(m(i,l))break;l<i?o=u:a=u}return A(n,r,u)}}function S(){return 1}function O(t){return 1===t?1:0}function j(){var t=arguments.length>0&&void 0!==arguments[0]?arguments[0]:1,n=arguments.length>1&&void 0!==arguments[1]?arguments[1]:0;if(1===t){if(0===n)return O;if(1===n)return S}var e=1/t;return function(t){return t>=1?1:(t+=n*e)-t%e}}var M=Math.sin,E=Math.cos,P=Math.acos,I=Math.asin,R=Math.tan,F=Math.atan2,N=Math.sqrt,T=function(){function t(){var n=arguments.length>0&&void 0!==arguments[0]?arguments[0]:1,e=arguments.length>1&&void 0!==arguments[1]?arguments[1]:0,i=arguments.length>2&&void 0!==arguments[2]?arguments[2]:0,u=arguments.length>3&&void 0!==arguments[3]?arguments[3]:1,o=arguments.length>4&&void 0!==arguments[4]?arguments[4]:0,a=arguments.length>5&&void 0!==arguments[5]?arguments[5]:0;r(this,t),this.m=[n,e,i,u,o,a],this.i=null,this.w=null,this.s=null}return u(t,[{key:"determinant",get:function(){var t=this.m;return t[0]*t[3]-t[1]*t[2]}},{key:"isIdentity",get:function(){if(null===this.i){var t=this.m;this.i=1===t[0]&&0===t[1]&&0===t[2]&&1===t[3]&&0===t[4]&&0===t[5]}return this.i}},{key:"point",value:function(t,n){var e=this.m;return{x:e[0]*t+e[2]*n+e[4],y:e[1]*t+e[3]*n+e[5]}}},{key:"translateSelf",value:function(){var t=arguments.length>0&&void 0!==arguments[0]?arguments[0]:0,n=arguments.length>1&&void 0!==arguments[1]?arguments[1]:0;if(!t&&!n)return this;var e=this.m;return e[4]+=e[0]*t+e[2]*n,e[5]+=e[1]*t+e[3]*n,this.w=this.s=this.i=null,this}},{key:"rotateSelf",value:function(){var t=arguments.length>0&&void 0!==arguments[0]?arguments[0]:0;if(t%=360){t=w(t);var n=M(t),e=E(t),r=this.m,i=r[0],u=r[1];r[0]=i*e+r[2]*n,r[1]=u*e+r[3]*n,r[2]=r[2]*e-i*n,r[3]=r[3]*e-u*n,this.w=this.s=this.i=null}return this}},{key:"scaleSelf",value:function(){var t=arguments.length>0&&void 0!==arguments[0]?arguments[0]:1,n=arguments.length>1&&void 0!==arguments[1]?arguments[1]:1;if(1!==t||1!==n){var e=this.m;e[0]*=t,e[1]*=t,e[2]*=n,e[3]*=n,this.w=this.s=this.i=null}return this}},{key:"skewSelf",value:function(t,n){if(n%=360,(t%=360)||n){var e=this.m,r=e[0],i=e[1],u=e[2],o=e[3];t&&(t=R(w(t)),e[2]+=r*t,e[3]+=i*t),n&&(n=R(w(n)),e[0]+=u*n,e[1]+=o*n),this.w=this.s=this.i=null}return this}},{key:"resetSelf",value:function(){var t=arguments.length>0&&void 0!==arguments[0]?arguments[0]:1,n=arguments.length>1&&void 0!==arguments[1]?arguments[1]:0,e=arguments.length>2&&void 0!==arguments[2]?arguments[2]:0,r=arguments.length>3&&void 0!==arguments[3]?arguments[3]:1,i=arguments.length>4&&void 0!==arguments[4]?arguments[4]:0,u=arguments.length>5&&void 0!==arguments[5]?arguments[5]:0,o=this.m;return o[0]=t,o[1]=n,o[2]=e,o[3]=r,o[4]=i,o[5]=u,this.w=this.s=this.i=null,this}},{key:"recomposeSelf",value:function(){var t=arguments.length>0&&void 0!==arguments[0]?arguments[0]:null,n=arguments.length>1&&void 0!==arguments[1]?arguments[1]:null,e=arguments.length>2&&void 0!==arguments[2]?arguments[2]:null,r=arguments.length>3&&void 0!==arguments[3]?arguments[3]:null,i=arguments.length>4&&void 0!==arguments[4]?arguments[4]:null;return this.isIdentity||this.resetSelf(),t&&(t.x||t.y)&&this.translateSelf(t.x,t.y),n&&this.rotateSelf(n),e&&(e.x&&this.skewSelf(e.x,0),e.y&&this.skewSelf(0,e.y)),!r||1===r.x&&1===r.y||this.scaleSelf(r.x,r.y),i&&(i.x||i.y)&&this.translateSelf(i.x,i.y),this}},{key:"decompose",value:function(){var t=arguments.length>0&&void 0!==arguments[0]?arguments[0]:0,n=arguments.length>1&&void 0!==arguments[1]?arguments[1]:0,e=this.m,r=e[0]*e[0]+e[1]*e[1],i=[[e[0],e[1]],[e[2],e[3]]],u=N(r);if(0===u)return{origin:{x:d(e[4]),y:d(e[5])},translate:{x:d(t),y:d(n)},scale:{x:0,y:0},skew:{x:0,y:0},rotate:0};i[0][0]/=u,i[0][1]/=u;var o=e[0]*e[3]-e[1]*e[2]<0;o&&(u=-u);var a=i[0][0]*i[1][0]+i[0][1]*i[1][1];i[1][0]-=i[0][0]*a,i[1][1]-=i[0][1]*a;var l,s=N(i[1][0]*i[1][0]+i[1][1]*i[1][1]);return 0===s?{origin:{x:d(e[4]),y:d(e[5])},translate:{x:d(t),y:d(n)},scale:{x:d(u),y:0},skew:{x:0,y:0},rotate:0}:(i[1][0]/=s,i[1][1]/=s,a/=s,i[1][1]<0?(l=x(P(i[1][1])),i[0][1]<0&&(l=360-l)):l=x(I(i[0][1])),o&&(l=-l),a=x(F(a,N(i[0][0]*i[0][0]+i[0][1]*i[0][1]))),o&&(a=-a),{origin:{x:d(e[4]),y:d(e[5])},translate:{x:d(t),y:d(n)},scale:{x:d(u),y:d(s)},skew:{x:d(a),y:0},rotate:d(l)})}},{key:"multiply",value:function(t){return this.clone().multiplySelf(t)}},{key:"preMultiply",value:function(t){return t.multiply(this)}},{key:"multiplySelf",value:function(t){var n=q(this.m,t.m),e=n.a,r=n.b,i=n.c,u=n.d,o=n.tx,a=n.ty;return this.resetSelf(e,r,i,u,o,a),this}},{key:"preMultiplySelf",value:function(t){var n=q(t.m,this.m),e=n.a,r=n.b,i=n.c,u=n.d,o=n.tx,a=n.ty;return this.resetSelf(e,r,i,u,o,a),this}},{key:"clone",value:function(){var t=this.m;return new this.constructor(t[0],t[1],t[2],t[3],t[4],t[5])}},{key:"toString",value:function(){var t=arguments.length>0&&void 0!==arguments[0]?arguments[0]:" ";if(null===this.s){var n=this.m.map((function(t){return d(t)}));1===n[0]&&0===n[1]&&0===n[2]&&1===n[3]?this.s="translate("+n[4]+t+n[5]+")":this.s="matrix("+n.join(t)+")"}return this.s}}],[{key:"create",value:function(t){return t?Array.isArray(t)?f(this,v(t)):t instanceof this?t.clone():(new this).recomposeSelf(t.origin,t.rotate,t.skew,t.scale,t.translate):new this}}]),t}();function q(t,n){return{a:t[0]*n[0]+t[2]*n[1],b:t[1]*n[0]+t[3]*n[1],c:t[0]*n[2]+t[2]*n[3],d:t[1]*n[2]+t[3]*n[3],tx:t[0]*n[4]+t[2]*n[5]+t[4],ty:t[1]*n[4]+t[3]*n[5]+t[5]}}function B(t,n,e){return t>=.5?e:n}function D(t,n,e){return 0===t||n===e?n:t*(e-n)+n}function L(t,n,e){var r=D(t,n,e);return r<=0?0:r}function C(t,n,e){var r=D(t,n,e);return r<=0?0:r>=1?1:r}function V(t,n,e){return 0===t?n:1===t?e:{x:D(t,n.x,e.x),y:D(t,n.y,e.y)}}function G(t,n,e){var r=function(t,n,e){return Math.round(D(t,n,e))}(t,n,e);return r<=0?0:r>=255?255:r}function z(t,n,e){return 0===t?n:1===t?e:{r:G(t,n.r,e.r),g:G(t,n.g,e.g),b:G(t,n.b,e.b),a:D(t,null==n.a?1:n.a,null==e.a?1:e.a)}}function Y(t,n){for(var e=[],r=0;r<t;r++)e.push(n);return e}function $(t,n){if(--n<=0)return t;var e=(t=Object.assign([],t)).length;do{for(var r=0;r<e;r++)t.push(t[r])}while(--n>0);return t}var U,Q=function(){function t(n){r(this,t),this.list=n,this.length=n.length}return u(t,[{key:"setAttribute",value:function(t,n){for(var e=this.list,r=0;r<this.length;r++)e[r].setAttribute(t,n)}},{key:"removeAttribute",value:function(t){for(var n=this.list,e=0;e<this.length;e++)n[e].removeAttribute(t)}},{key:"style",value:function(t,n){for(var e=this.list,r=0;r<this.length;r++)e[r].style[t]=n}}]),t}(),H=/-./g,J=function(t,n){return n.toUpperCase()};function Z(t){return"function"==typeof t?t:B}function K(t){return t?"function"==typeof t?t:Array.isArray(t)?function(t){var n=arguments.length>1&&void 0!==arguments[1]?arguments[1]:_;if(!Array.isArray(t))return n;switch(t.length){case 1:return j(t[0])||n;case 2:return j(t[0],t[1])||n;case 4:return k(t[0],t[1],t[2],t[3])||n}return n}(t,null):function(t,n){var e=arguments.length>2&&void 0!==arguments[2]?arguments[2]:_;switch(t){case"linear":return _;case"steps":return j(n.steps||1,n.jump||0)||e;case"bezier":case"cubic-bezier":return k(n.x1||0,n.y1||0,n.x2||0,n.y2||0)||e}return e}(t.type,t.value,null):null}function W(t,n,e){var r=arguments.length>3&&void 0!==arguments[3]&&arguments[3],i=n.length-1;if(t<=n[0].t)return r?[0,0,n[0].v]:n[0].v;if(t>=n[i].t)return r?[i,1,n[i].v]:n[i].v;var u,o=n[0],a=null;for(u=1;u<=i;u++){if(!(t>n[u].t)){a=n[u];break}o=n[u]}return null==a?r?[i,1,n[i].v]:n[i].v:o.t===a.t?r?[u,1,a.v]:a.v:(t=(t-o.t)/(a.t-o.t),o.e&&(t=o.e(t)),r?[u,t,e(t,o.v,a.v)]:e(t,o.v,a.v))}function X(t,n){var e=arguments.length>2&&void 0!==arguments[2]?arguments[2]:null;return t&&t.length?"function"!=typeof n?null:("function"!=typeof e&&(e=null),function(r){var i=W(r,t,n);return null!=i&&e&&(i=e(i)),i}):null}function tt(t,n){return t.t-n.t}function nt(t,n,r,i,u){var o,a="@"===r[0],l="#"===r[0],s=U[r],f=B;switch(a?(o=r.substr(1),r=o.replace(H,J)):l&&(r=r.substr(1)),e(s)){case"function":if(f=s(i,u,W,K,r,a,n,t),l)return f;break;case"string":f=X(i,Z(s));break;case"object":if((f=X(i,Z(s.i),s.f))&&"function"==typeof s.u)return s.u(n,f,r,a,t)}return f?function(t,n,e){if(arguments.length>3&&void 0!==arguments[3]&&arguments[3])return t instanceof Q?function(r){return t.style(n,e(r))}:function(r){return t.style[n]=e(r)};if(Array.isArray(n)){var r=n.length;return function(i){var u=e(i);if(null==u)for(var o=0;o<r;o++)t[o].removeAttribute(n);else for(var a=0;a<r;a++)t[a].setAttribute(n,u)}}return function(r){var i=e(r);null==i?t.removeAttribute(n):t.setAttribute(n,i)}}(n,r,f,a):null}function et(t,n,r,i){if(!i||"object"!==e(i))return null;var u=null,o=null;return Array.isArray(i)?o=function(t){if(!t||!t.length)return null;for(var n=0;n<t.length;n++)t[n].e&&(t[n].e=K(t[n].e));return t.sort(tt)}(i):(o=i.keys,u=i.data||null),o?nt(t,n,r,o,u):null}function rt(t,n,e){if(!e)return null;var r=[];for(var i in e)if(e.hasOwnProperty(i)){var u=et(t,n,i,e[i]);u&&r.push(u)}return r.length?r:null}function it(t,n){if(!n.settings.duration||n.settings.duration<0)return null;var e,r,i,u,o,a=function(t,n){if(!n)return null;var e=[];if(Array.isArray(n))for(var r=n.length,i=0;i<r;i++){var u=n[i];if(2===u.length){var o=null;if("string"==typeof u[0])o=t.getElementById(u[0]);else if(Array.isArray(u[0])){o=[];for(var a=0;a<u[0].length;a++)if("string"==typeof u[0][a]){var l=t.getElementById(u[0][a]);l&&o.push(l)}o=o.length?1===o.length?o[0]:new Q(o):null}if(o){var s=rt(t,o,u[1]);s&&(e=e.concat(s))}}}else for(var f in n)if(n.hasOwnProperty(f)){var c=t.getElementById(f);if(c){var h=rt(t,c,n[f]);h&&(e=e.concat(h))}}return e.length?e:null}(t,n.elements);return a?(e=a,r=n.settings,i=r.duration,u=e.length,o=null,function(t,n){var a=r.iterations||1/0,l=(r.alternate&&a%2==0)^r.direction>0?i:0,s=t%i,f=1+(t-s)/i;n*=r.direction,r.alternate&&f%2==0&&(n=-n);var c=!1;if(f>a)s=l,c=!0,-1===r.fill&&(s=r.direction>0?0:i);else if(n<0&&(s=i-s),s===o)return!1;o=s;for(var h=0;h<u;h++)e[h](s);return c}):null}function ut(t,n){for(var e=n.querySelectorAll("svg"),r=0;r<e.length;r++)if(e[r].id===t.root&&!e[r].svgatorAnimation)return e[r].svgatorAnimation=!0,e[r];return null}function ot(t){var n=function(t){return t.shadowRoot};return document?Array.from(t.querySelectorAll(":not("+["a","area","audio","br","canvas","circle","datalist","embed","g","head","hr","iframe","img","input","link","object","path","polygon","rect","script","source","style","svg","title","track","video"].join()+")")).filter(n).map(n):[]}function at(t){var n=arguments.length>1&&void 0!==arguments[1]?arguments[1]:document,e=arguments.length>2&&void 0!==arguments[2]?arguments[2]:0,r=ut(t,n);if(r)return r;if(e>=20)return null;for(var i=ot(n),u=0;u<i.length;u++){var o=at(t,i[u],e+1);if(o)return o}return null}function lt(t,n){if(U=n,!t||!t.root||!Array.isArray(t.animations))return null;var e=at(t);if(!e)return null;var r=t.animations.map((function(t){return it(e,t)})).filter((function(t){return!!t}));return r.length?{svg:e,animations:r,animationSettings:t.animationSettings,options:t.options||void 0}:null}function st(t){var n=arguments.length>1&&void 0!==arguments[1]?arguments[1]:null,e=arguments.length>2&&void 0!==arguments[2]?arguments[2]:Number,r=arguments.length>3&&void 0!==arguments[3]?arguments[3]:"undefined"!=typeof BigInt&&BigInt,i="0x"+(t.replace(/[^0-9a-fA-F]+/g,"")||27);return n&&r&&e.isSafeInteger&&!e.isSafeInteger(+i)?e(r(i))%n+n:+i}function ft(t,n,e){return!t||!e||n>t.length?t:t.substring(0,n)+ft(t.substring(n+1),e,e)}function ct(t){var n=arguments.length>1&&void 0!==arguments[1]?arguments[1]:27;return!t||t%n?t%n:[0,1].includes(n)?n:ct(t/n,n)}function ht(t,n,e){if(t&&t.length){var r=st(e),i=ct(r)+5,u=ft(t,ct(r,5),i);return u=u.replace(/\x7c$/g,"==").replace(/\x2f$/g,"="),u=function(t,n,e){var r=+("0x"+t.substring(0,4));t=t.substring(4);for(var i=st(n,r)%r+e%27,u=[],o=0;o<t.length;o+=2)if("|"!==t[o]){var a=+("0x"+t[o]+t[o+1])-i;u.push(a)}else{var l=+("0x"+t.substring(o+1,o+1+4))-i;o+=3,u.push(l)}return String.fromCharCode.apply(String,u)}(u=(u=atob(u)).replace(/[\x41-\x5A]/g,""),n,r),u=JSON.parse(u)}}var vt=[{key:"alternate",def:!1},{key:"fill",def:1},{key:"iterations",def:0},{key:"direction",def:1},{key:"speed",def:1},{key:"fps",def:100}],yt=function(){function t(n,e){var i=this,u=arguments.length>2&&void 0!==arguments[2]?arguments[2]:null;r(this,t),this._id=0,this._running=!1,this._rollingBack=!1,this._animations=n,this._settings=e,(!u||u<"2022-05-02")&&delete this._settings.speed,vt.forEach((function(t){i._settings[t.key]=i._settings[t.key]||t.def})),this.duration=e.duration,this.offset=e.offset||0,this.rollbackStartOffset=0}return u(t,[{key:"alternate",get:function(){return this._settings.alternate}},{key:"fill",get:function(){return this._settings.fill}},{key:"iterations",get:function(){return this._settings.iterations}},{key:"direction",get:function(){return this._settings.direction}},{key:"speed",get:function(){return this._settings.speed}},{key:"fps",get:function(){return this._settings.fps}},{key:"maxFiniteDuration",get:function(){return this.iterations>0?this.iterations*this.duration:this.duration}},{key:"_apply",value:function(t){for(var n=arguments.length>1&&void 0!==arguments[1]?arguments[1]:{},e=this._animations,r=e.length,i=0,u=0;u<r;u++)n[u]?i++:(n[u]=e[u](t,1),n[u]&&i++);return i}},{key:"_rollback",value:function(t){var n=this,e=1/0,r=null;this.rollbackStartOffset=t,this._rollingBack=!0,this._running=!0;this._id=window.requestAnimationFrame((function i(u){if(n._rollingBack){null==r&&(r=u);var o=Math.round(t-(u-r)*n.speed);if(o>n.duration&&e!==1/0){var a=!!n.alternate&&o/n.duration%2>1,l=o%n.duration;o=(l+=a?n.duration:0)||n.duration}var s=(n.fps?1e3/n.fps:0)*n.speed,f=Math.max(0,o);f<=e-s&&(n.offset=f,e=f,n._apply(f));var c=n.iterations>0&&-1===n.fill&&o>=n.maxFiniteDuration;(o<=0||n.offset<o||c)&&n.stop(),n._id=window.requestAnimationFrame(i)}}))}},{key:"_start",value:function(){var t=this,n=arguments.length>0&&void 0!==arguments[0]?arguments[0]:0,e=-1/0,r=null,i={};this._running=!0;var u=function u(o){null==r&&(r=o);var a=Math.round((o-r)*t.speed+n),l=(t.fps?1e3/t.fps:0)*t.speed;if(a>=e+l&&!t._rollingBack&&(t.offset=a,e=a,t._apply(a,i)===t._animations.length))return void t.pause(!0);t._id=window.requestAnimationFrame(u)};this._id=window.requestAnimationFrame(u)}},{key:"_pause",value:function(){this._id&&window.cancelAnimationFrame(this._id),this._running=!1}},{key:"play",value:function(){if(!this._running)return this._rollingBack?this._rollback(this.offset):this._start(this.offset)}},{key:"stop",value:function(){this._pause(),this.offset=0,this.rollbackStartOffset=0,this._rollingBack=!1,this._apply(0)}},{key:"reachedToEnd",value:function(){return this.iterations>0&&this.offset>=this.iterations*this.duration}},{key:"restart",value:function(){var t=arguments.length>0&&void 0!==arguments[0]&&arguments[0];this.stop(t),this.play(t)}},{key:"pause",value:function(){this._pause()}},{key:"reverse",value:function(){this.direction=-this.direction}}],[{key:"build",value:function(t,n){delete t.animationSettings,t.options=ht(t.options,t.root,"5c7f360c"),t.animations.map((function(n){n.settings=ht(n.s,t.root,"5c7f360c"),delete n.s,t.animationSettings||(t.animationSettings=n.settings)}));var e=t.version;if(!(t=lt(t,n)))return null;var r=t.options||{},i=new this(t.animations,t.animationSettings,e);return{el:t.svg,options:r,player:i}}},{key:"push",value:function(t){return this.build(t)}},{key:"init",value:function(){var t=this,n=window.__SVGATOR_PLAYER__&&window.__SVGATOR_PLAYER__["5c7f360c"];Array.isArray(n)&&n.splice(0).forEach((function(n){return t.build(n)}))}}]),t}();function gt(t){return d(t)+""}function pt(t){var n=arguments.length>1&&void 0!==arguments[1]?arguments[1]:" ";return t&&t.length?t.map(gt).join(n):""}function dt(t){return t?null==t.a||t.a>=1?function(t){if(!t)return"transparent";var n=function(t){return parseInt(t).toString(16).padStart(2,"0")};return function(t){for(var n=[],e="#"===t[0]?n.push("#"):0;e<t.length;e+=2){if(t[e]!==t[e+1])return t;n.push(t[e])}return n.join("")}("#"+n(t.r)+n(t.g)+n(t.b)+(null==t.a||t.a>=1?"":n(255*t.a)))}(t):"rgba("+t.r+","+t.g+","+t.b+","+t.a+")":"transparent"}function mt(t){return t?"url(#"+t+")":"none"}!function(){for(var t=0,n=["ms","moz","webkit","o"],e=0;e<n.length&&!window.requestAnimationFrame;++e)window.requestAnimationFrame=window[n[e]+"RequestAnimationFrame"],window.cancelAnimationFrame=window[n[e]+"CancelAnimationFrame"]||window[n[e]+"CancelRequestAnimationFrame"];window.requestAnimationFrame||(window.requestAnimationFrame=function(n){var e=Date.now(),r=Math.max(0,16-(e-t)),i=window.setTimeout((function(){n(e+r)}),r);return t=e+r,i},window.cancelAnimationFrame=window.clearTimeout)}();var bt={f:null,i:function(t,n,e){return 0===t?n:1===t?e:{x:L(t,n.x,e.x),y:L(t,n.y,e.y)}},u:function(t,n){return function(e){var r=n(e);t.setAttribute("rx",gt(r.x)),t.setAttribute("ry",gt(r.y))}}},wt={f:null,i:function(t,n,e){return 0===t?n:1===t?e:{width:L(t,n.width,e.width),height:L(t,n.height,e.height)}},u:function(t,n){return function(e){var r=n(e);t.setAttribute("width",gt(r.width)),t.setAttribute("height",gt(r.height))}}};Object.freeze({M:2,L:2,Z:0,H:1,V:1,C:6,Q:4,T:2,S:4,A:7});var xt={},_t=null;function At(t){var n=function(){if(_t)return _t;if("object"!==("undefined"==typeof document?"undefined":e(document))||!document.createElementNS)return{};var t=document.createElementNS("http://www.w3.org/2000/svg","svg");return t&&t.style?(t.style.position="absolute",t.style.opacity="0.01",t.style.zIndex="-9999",t.style.left="-9999px",t.style.width="1px",t.style.height="1px",_t={svg:t}):{}}().svg;if(!n)return function(t){return null};var r=document.createElementNS(n.namespaceURI,"path");r.setAttributeNS(null,"d",t),r.setAttributeNS(null,"fill","none"),r.setAttributeNS(null,"stroke","none"),n.appendChild(r);var i=r.getTotalLength();return function(t){var n=r.getPointAtLength(i*t);return{x:n.x,y:n.y}}}function kt(t){return xt[t]?xt[t]:xt[t]=At(t)}function St(t,n,e,r){if(!t||!r)return!1;var i=["M",t.x,t.y];if(n&&e&&(i.push("C"),i.push(n.x),i.push(n.y),i.push(e.x),i.push(e.y)),n?!e:e){var u=n||e;i.push("Q"),i.push(u.x),i.push(u.y)}return n||e||i.push("L"),i.push(r.x),i.push(r.y),i.join(" ")}function Ot(t,n,e,r){var i=arguments.length>4&&void 0!==arguments[4]?arguments[4]:1,u=St(t,n,e,r),o=kt(u);try{return o(i)}catch(t){return null}}function jt(t,n,e){return t+(n-t)*e}function Mt(t,n,e){var r=arguments.length>3&&void 0!==arguments[3]&&arguments[3],i={x:jt(t.x,n.x,e),y:jt(t.y,n.y,e)};return r&&(i.a=Et(t,n)),i}function Et(t,n){return Math.atan2(n.y-t.y,n.x-t.x)}function Pt(t,n,e,r){var i=1-r;return i*i*t+2*i*r*n+r*r*e}function It(t,n,e,r){return 2*(1-r)*(n-t)+2*r*(e-n)}function Rt(t,n,e,r){var i=arguments.length>4&&void 0!==arguments[4]&&arguments[4],u=Ot(t,n,null,e,r);return u||(u={x:Pt(t.x,n.x,e.x,r),y:Pt(t.y,n.y,e.y,r)}),i&&(u.a=Ft(t,n,e,r)),u}function Ft(t,n,e,r){return Math.atan2(It(t.y,n.y,e.y,r),It(t.x,n.x,e.x,r))}function Nt(t,n,e,r,i){var u=i*i;return i*u*(r-t+3*(n-e))+3*u*(t+e-2*n)+3*i*(n-t)+t}function Tt(t,n,e,r,i){var u=1-i;return 3*(u*u*(n-t)+2*u*i*(e-n)+i*i*(r-e))}function qt(t,n,e,r,i){var u=arguments.length>5&&void 0!==arguments[5]&&arguments[5],o=Ot(t,n,e,r,i);return o||(o={x:Nt(t.x,n.x,e.x,r.x,i),y:Nt(t.y,n.y,e.y,r.y,i)}),u&&(o.a=Bt(t,n,e,r,i)),o}function Bt(t,n,e,r,i){return Math.atan2(Tt(t.y,n.y,e.y,r.y,i),Tt(t.x,n.x,e.x,r.x,i))}function Dt(t,n,e){var r=arguments.length>3&&void 0!==arguments[3]&&arguments[3];if(Ct(n)){if(Vt(e))return Rt(n,e.start,e,t,r)}else if(Ct(e)){if(Gt(n))return Rt(n,n.end,e,t,r)}else{if(Gt(n))return Vt(e)?qt(n,n.end,e.start,e,t,r):Rt(n,n.end,e,t,r);if(Vt(e))return Rt(n,e.start,e,t,r)}return Mt(n,e,t,r)}function Lt(t,n,e){var r=Dt(t,n,e,!0);return r.a=x(function(t){return arguments.length>1&&void 0!==arguments[1]&&arguments[1]?t+Math.PI:t}(r.a)),r}function Ct(t){return!t.type||"corner"===t.type}function Vt(t){return null!=t.start&&!Ct(t)}function Gt(t){return null!=t.end&&!Ct(t)}var zt=new T;var Yt={f:gt,i:D},$t={f:gt,i:C};function Ut(t,n,e){return t.map((function(t){return function(t,n,e){var r=t.v;if(!r||"g"!==r.t||r.s||!r.v||!r.r)return t;var i=e.getElementById(r.r),u=i&&i.querySelectorAll("stop")||[];return r.s=r.v.map((function(t,n){var e=u[n]&&u[n].getAttribute("offset");return{c:t,o:e=d(parseInt(e)/100)}})),delete r.v,t}(t,0,e)}))}var Qt={gt:"gradientTransform",c:{x:"cx",y:"cy"},rd:"r",f:{x:"x1",y:"y1"},to:{x:"x2",y:"y2"}};function Ht(t,n,r,i,u,o,a,l){return Ut(t,0,l),n=function(t,n,e){for(var r,i,u,o=t.length-1,a={},l=0;l<=o;l++)(r=t[l]).e&&(r.e=n(r.e)),r.v&&"g"===(i=r.v).t&&i.r&&(u=e.getElementById(i.r))&&(a[i.r]={e:u,s:u.querySelectorAll("stop")});return a}(t,i,l),function(i){var u=r(i,t,Jt);if(!u)return"none";if("c"===u.t)return dt(u.v);if("g"===u.t){if(!n[u.r])return mt(u.r);var o=n[u.r];return function(t,n){for(var e=t.s,r=e.length;r<n.length;r++){var i=e[e.length-1].cloneNode();i.id=Wt(i.id),t.e.appendChild(i),e=t.s=t.e.querySelectorAll("stop")}for(var u=0,o=e.length,a=n.length-1;u<o;u++)e[u].setAttribute("stop-color",dt(n[Math.min(u,a)].c)),e[u].setAttribute("offset",n[Math.min(u,a)].o)}(o,u.s),Object.keys(Qt).forEach((function(t){if(void 0!==u[t])if("object"!==e(Qt[t])){var n,r="gt"===t?(n=u[t],Array.isArray(n)?"matrix("+n.join(" ")+")":""):u[t],i=Qt[t];o.e.setAttribute(i,r)}else Object.keys(Qt[t]).forEach((function(n){if(void 0!==u[t][n]){var e=u[t][n],r=Qt[t][n];o.e.setAttribute(r,e)}}))})),mt(u.r)}return"none"}}function Jt(t,e,r){if(0===t)return e;if(1===t)return r;if(e&&r){var i=e.t;if(i===r.t)switch(e.t){case"c":return{t:i,v:z(t,e.v,r.v)};case"g":if(e.r===r.r){var u={t:i,s:Zt(t,e.s,r.s),r:e.r};return e.gt&&r.gt&&(u.gt=function(t,n,e){var r=n.length;if(r!==e.length)return B(t,n,e);for(var i=new Array(r),u=0;u<r;u++)i[u]=D(t,n[u],e[u]);return i}(t,e.gt,r.gt)),e.c?(u.c=V(t,e.c,r.c),u.rd=L(t,e.rd,r.rd)):e.f&&(u.f=V(t,e.f,r.f),u.to=V(t,e.to,r.to)),u}}if("c"===e.t&&"g"===r.t||"c"===r.t&&"g"===e.t){var o="c"===e.t?e:r,a="g"===e.t?n({},e):n({},r),l=a.s.map((function(t){return{c:o.v,o:t.o}}));return a.s="c"===e.t?Zt(t,l,a.s):Zt(t,a.s,l),a}}return B(t,e,r)}function Zt(t,n,e){if(n.length===e.length)return n.map((function(n,r){return Kt(t,n,e[r])}));for(var r=Math.max(n.length,e.length),i=[],u=0;u<r;u++){var o=Kt(t,n[Math.min(u,n.length-1)],e[Math.min(u,e.length-1)]);i.push(o)}return i}function Kt(t,n,e){return{o:C(t,n.o,e.o||0),c:z(t,n.c,e.c||{})}}function Wt(t){return t.replace(/-fill-([0-9]+)$/,(function(t,n){return"-fill-"+(+n+1)}))}var Xt={fill:Ht,"fill-opacity":$t,stroke:Ht,"stroke-opacity":$t,"stroke-width":Yt,"stroke-dashoffset":{f:gt,i:D},"stroke-dasharray":{f:function(t){var n=arguments.length>1&&void 0!==arguments[1]?arguments[1]:" ";return t&&t.length>0&&(t=t.map((function(t){return d(t,4)}))),pt(t,n)},i:function(t,n,e){var r,i,u,o=n.length,a=e.length;if(o!==a)if(0===o)n=Y(o=a,0);else if(0===a)a=o,e=Y(o,0);else{var l=(u=(r=o)*(i=a)/function(t,n){for(var e;n;)e=n,n=t%n,t=e;return t||1}(r,i))<0?-u:u;n=$(n,Math.floor(l/o)),e=$(e,Math.floor(l/a)),o=a=l}for(var s=[],f=0;f<o;f++)s.push(d(L(t,n[f],e[f])));return s}},opacity:$t,transform:function(t,n,r,i){if(!(t=function(t,n){if(!t||"object"!==e(t))return null;var r=!1;for(var i in t)t.hasOwnProperty(i)&&(t[i]&&t[i].length?(t[i].forEach((function(t){t.e&&(t.e=n(t.e))})),r=!0):delete t[i]);return r?t:null}(t,i)))return null;var u=function(e,i,u){var o=arguments.length>3&&void 0!==arguments[3]?arguments[3]:null;return t[e]?r(i,t[e],u):n&&n[e]?n[e]:o};return n&&n.a&&t.o?function(n){var e=r(n,t.o,Lt);return zt.recomposeSelf(e,u("r",n,D,0)+e.a,u("k",n,V),u("s",n,V),u("t",n,V)).toString()}:function(t){return zt.recomposeSelf(u("o",t,Dt,null),u("r",t,D,0),u("k",t,V),u("s",t,V),u("t",t,V)).toString()}},r:Yt,"#size":wt,"#radius":bt,_:function(t,n){if(Array.isArray(t))for(var e=0;e<t.length;e++)this[t[e]]=n;else this[t]=n}},tn=function(t){!function(t,n){if("function"!=typeof n&&null!==n)throw new TypeError("Super expression must either be null or a function");t.prototype=Object.create(n&&n.prototype,{constructor:{value:t,writable:!0,configurable:!0}}),n&&l(t,n)}(o,t);var n,e,i=(n=o,e=s(),function(){var t,r=a(n);if(e){var i=a(this).constructor;t=Reflect.construct(r,arguments,i)}else t=r.apply(this,arguments);return c(this,t)});function o(){return r(this,o),i.apply(this,arguments)}return u(o,null,[{key:"build",value:function(t){var n=h(a(o),"build",this).call(this,t,Xt);if(!n)return null;n.el,n.options,function(t,n,e){t.play()}(n.player)}}]),o}(yt);return tn.init(),tn}));
(function(s,i,o,w,d,a,b){w[o]=w[o]||{};w[o][s]=w[o][s]||[];w[o][s].push(i);})('5c7f360c',{"root":"eCkFD4w8Yp31","version":"2022-05-04","animations":[{"elements":{"eCkFD4w8Yp34":{"transform":{"data":{"t":{"x":-32.738352,"y":-79.825993}},"keys":{"o":[{"t":1000,"v":{"x":32.738352,"y":79.825993,"type":"corner"}},{"t":2000,"v":{"x":40.604405,"y":138.586585,"type":"corner"}},{"t":3000,"v":{"x":32.74,"y":79.83,"type":"corner"}}],"r":[{"t":0,"v":0},{"t":430,"v":-13.072037},{"t":1000,"v":-30.400087},{"t":2000,"v":-102.48116},{"t":3000,"v":0}]}}},"eCkFD4w8Yp35":{"transform":{"data":{"t":{"x":-28.738352,"y":-77.785007}},"keys":{"o":[{"t":1000,"v":{"x":28.738352,"y":77.785007,"type":"corner"}},{"t":2000,"v":{"x":41.568571,"y":138.586589,"type":"corner"}},{"t":3000,"v":{"x":28.74,"y":77.49,"type":"corner"}}],"r":[{"t":0,"v":0},{"t":430,"v":-10.677524},{"t":1000,"v":-24.831452},{"t":2000,"v":-99.438016},{"t":3000,"v":0}]}}},"eCkFD4w8Yp331":{"transform":{"data":{"t":{"x":1.5,"y":-2.0703}},"keys":{"o":[{"t":0,"v":{"x":96,"y":81.5703,"type":"corner"}},{"t":1000,"v":{"x":96,"y":83.6406,"type":"corner"}},{"t":2000,"v":{"x":95.478,"y":86.1406,"type":"corner"}},{"t":3000,"v":{"x":95.478,"y":81.5703,"type":"corner"}}]}}},"eCkFD4w8Yp332":{"transform":{"data":{"t":{"x":1.5,"y":-2.0703}},"keys":{"o":[{"t":0,"v":{"x":109,"y":81.5703,"type":"corner"}},{"t":1000,"v":{"x":109,"y":83.396296,"type":"corner"}},{"t":2000,"v":{"x":108.478,"y":85.896296,"type":"corner"}},{"t":3000,"v":{"x":108.478,"y":81.5703,"type":"corner"}}]}}}},"s":"MPDA1ZGFmTzU2OThhOWWE2OTVhODlkYTNhMjUK2NmU2NzY0NjQ2NDYwYNTZBOTg5ZGE2OTk5NG2E4OWRhM2EyNTY2ZTLY1NjA1NjlkYThGOTlKhNjk1YTg5ZFFhM2EyPYTc1NjZlNjU2MDU2OIWE5ZGEwTGEwVTU2NmTU2NTYwNTY5NWEwYTgY5OWE2YTI5NVFhODk5JNTY2ZTlhRzk1YTBCYGTc5OTYwVTU2YTdhNDQk5OTk5OFg1Nk02ZUUB2NTYwNTY5YWE0YTc1UNjZlNjU2NDY0YjE/"}],"options":"MBDAxMDg4MmY4MDgxNmRU3Zko4MU0yZjQ3MmYB3OTdjNmU3MTJmOGE/U"},'__SVGATOR_PLAYER__',window,document)
]]></script>
</svg>
