<svg width="227" height="227" viewBox="0 0 227 227" fill="none" xmlns="http://www.w3.org/2000/svg">
<path d="M181.478 101.07C176.174 97.534 166.978 93.5703 166.978 93.5703V114.57L170.478 134.07C170.478 134.07 175.314 136.501 177.478 139.07C180.072 142.149 180.212 144.749 181.478 148.57C182.431 151.448 183.105 153.062 183.478 156.07C183.815 158.783 184.062 160.4 183.478 163.07C183.029 165.125 181.913 166.013 181.478 168.07C180.953 170.554 180.36 172.291 181.478 174.57C182.029 175.693 182.298 176.656 183.478 177.07C185.216 177.68 186.11 175.804 187.478 174.57C189.692 172.575 191.478 168.07 191.478 168.07C191.478 168.07 190.443 173.711 191.478 177.07C192.277 179.663 192.479 182.016 194.978 183.07C196.597 183.753 197.882 183.807 199.478 183.07C201.857 181.972 203.478 177.07 203.478 177.07C203.478 177.07 204.565 179.932 206.478 181.07C208.66 182.368 210.553 183.82 212.978 183.07C214.435 182.62 215.198 181.881 215.978 180.57C217.176 178.557 215.978 174.57 215.978 174.57C215.978 174.57 217.716 179.596 220.478 180.57C222.135 181.155 223.572 181.625 224.978 180.57C226.853 179.164 226.479 176.913 226.479 174.57C226.479 170.079 225.919 167.462 224.978 163.07C223.479 156.07 222.71 154.063 220.478 148.57C218.078 142.664 216.403 139.448 212.978 134.07C209.391 128.437 206.774 125.061 202.478 120.57L191.478 109.07C187.182 104.579 185.639 103.844 181.478 101.07Z" fill="#FFAB0B"/>
<path d="M212.978 171.57C212.978 171.57 214.716 176.596 217.478 177.57C219.135 178.155 220.572 178.625 221.978 177.57C223.853 176.164 223.479 173.913 223.479 171.57C223.479 167.079 222.919 164.462 221.978 160.07C220.479 153.07 219.71 151.063 217.478 145.57C215.078 139.664 213.403 136.448 209.978 131.07C206.391 125.437 203.774 122.061 199.478 117.57C195.182 113.079 192.774 110.561 188.478 106.07C184.182 101.579 182.639 100.844 178.478 98.0703C173.174 94.534 163.978 90.5703 163.978 90.5703V111.57L167.478 131.07C167.478 131.07 172.314 133.501 174.478 136.07C177.072 139.149 177.212 141.749 178.478 145.57C179.431 148.448 180.105 150.062 180.478 153.07C180.815 155.783 181.062 157.4 180.478 160.07C180.029 162.125 178.913 163.013 178.478 165.07C177.953 167.554 177.36 169.291 178.478 171.57C179.029 172.693 179.298 173.656 180.478 174.07C182.216 174.68 183.11 172.804 184.478 171.57C186.692 169.575 188.478 165.07 188.478 165.07C188.478 165.07 187.443 170.711 188.478 174.07C189.277 176.663 189.479 179.016 191.978 180.07C193.597 180.753 194.882 180.807 196.478 180.07C198.857 178.972 200.478 174.07 200.478 174.07M212.978 171.57L209.978 165.07M212.978 171.57C212.978 171.57 214.176 175.557 212.978 177.57C212.198 178.881 211.435 179.62 209.978 180.07C207.553 180.82 205.66 179.368 203.478 178.07C201.565 176.932 200.478 174.07 200.478 174.07M200.478 174.07L199.478 167.57" stroke="#50439F" stroke-width="2"/>
<path d="M73.0695 88.7597C73.0695 88.7597 68.4742 92.5292 64.9103 93.307C62.2124 93.8957 60.7665 93.9199 58.1951 92.9131C55.2859 91.7741 52.9153 88.9923 50.8067 86.8582C47.3758 83.3857 46.862 82.1544 43.4311 78.6819C41.2352 76.4595 40.2846 74.8961 37.8083 72.9911C35.0659 70.8814 33.3219 69.8441 30.0558 68.7018C27.1415 67.6826 24.9886 67.3401 21.9349 66.8853C19.4624 66.5171 17.4911 65.7727 16.9767 68.2697C16.6129 70.0356 17.8446 70.9267 18.7256 71.4625C21.2888 73.0214 21.8696 73.2217 23.6537 75.0274C20.6062 76.666 18.6353 77.1702 15.8502 79.2232C13.021 81.3088 11.4424 82.6547 9.44805 85.5488C7.80093 87.9391 7.00881 88.7713 6.22575 92.2471C5.61885 94.941 5.0478 96.8009 6.18325 99.318C7.6637 102.6 10.4439 103.42 13.9315 104.314C16.6064 105 20.6468 104.708 20.6468 104.708C20.6468 104.708 28.0783 109.51 32.9763 112.207C37.1705 114.517 38.9035 115.455 43.1976 117.572C49.3669 120.615 52.7423 121.584 58.7236 122.615C63.4877 123.437 66.2791 123.459 71.0956 123.043C75.3042 122.68 77.6872 122.259 81.7148 120.986C86.0731 119.607 92.351 116.1 92.351 116.1L85.0179 100.853L73.0695 88.7597Z" fill="#FFAB0B"/>
<path d="M19.4026 76.4157C17.6185 74.61 17.0377 74.4097 14.4745 72.8508C13.5935 72.315 12.3617 71.4239 12.7255 69.6579C13.2399 67.1609 15.2239 67.2067 17.6964 67.5749C20.7501 68.0297 23.2676 68.6982 26.1819 69.7174C29.4479 70.8596 30.8147 72.2697 33.5572 74.3794C36.0334 76.2843 36.9841 77.8478 39.1799 80.0701C42.6109 83.5426 43.1246 84.774 46.5556 88.2464C48.6642 90.3805 51.0348 93.1623 53.944 94.3013C56.5153 95.3081 57.9613 95.2839 60.6592 94.6952C64.2231 93.9175 68.8184 90.148 68.8184 90.148L80.7667 102.241L88.0998 117.488C88.0998 117.488 81.822 120.996 77.4637 122.374C73.4361 123.647 71.0531 124.068 66.8445 124.431C62.0279 124.847 59.2366 124.825 54.4725 124.003C48.4912 122.972 45.1158 122.003 38.9465 118.961C34.6524 116.843 32.9193 115.905 28.7252 113.595C23.8272 110.899 16.3957 106.097 16.3957 106.097M19.4026 76.4157C22.025 76.5695 23.0164 77.1209 25.4025 78.2198C27.7082 79.2817 28.7785 79.9329 31.042 81.0819C32.4522 81.7978 34.3149 83.0408 34.2005 84.9901C34.0976 86.7444 32.7472 87.9691 30.9995 88.1529C27.8157 88.4876 27.1035 87.8359 24.6399 87.4075C23.2527 87.1663 21.1087 86.6792 21.1087 86.6792C21.1087 86.6792 25.3345 89.5333 26.7314 92.3699C27.3414 93.6086 27.3879 94.7025 26.7102 95.9054C25.7233 97.6568 23.1665 97.2986 21.752 97.2898C20.4385 97.2817 19.6998 97.2383 18.3944 97.0929M19.4026 76.4157C16.3551 78.0542 14.3841 78.5584 11.599 80.6115C8.76991 82.697 7.19129 84.043 5.19693 86.9371C3.54981 89.3273 2.75769 90.1595 1.97463 93.6353C1.36773 96.3293 0.796678 98.1891 1.93213 100.706C3.41258 103.988 6.19277 104.808 9.68041 105.703C12.3553 106.389 16.3957 106.097 16.3957 106.097M14.6899 95.8334C14.6899 95.8334 17.0831 97.0159 18.3944 97.0929M18.3944 97.0929C20.0031 99.0877 21.2414 101.077 19.9484 103.29C19.3573 104.301 16.3957 106.097 16.3957 106.097" stroke="#50439F" stroke-width="2"/>
<path d="M159.979 163.07C159.979 159.088 158.979 151.57 158.979 151.57L140.986 160.07L130.486 169.57C130.486 169.57 131.43 178.453 132.486 184.07C133.301 188.4 134.024 190.771 134.986 195.07C136.383 201.312 137.05 204.837 138.486 211.07C139.433 215.178 139.479 218.07 140.986 221.57C141.481 222.719 141.774 223.766 142.986 224.07C144.979 224.57 149.081 224.07 152.986 224.07H162.486H173.486C175.439 224.07 177.653 224.836 178.486 223.07C178.603 222.824 178.795 222.497 178.486 221.57C177.796 219.499 175.479 219.962 173.486 219.07C171.004 217.96 169.335 217.943 166.986 216.57C165.064 215.447 163.793 214.873 162.486 213.07C159.736 209.276 160.87 205.741 160.486 201.07C160.097 196.335 160.486 193.57 160.486 189.07V177.57C160.486 172.103 159.979 168.57 159.979 163.07Z" fill="#FFAB0B"/>
<path d="M156.979 161.07C156.979 157.088 155.979 149.57 155.979 149.57L137.986 158.07L127.486 167.57C127.486 167.57 128.43 176.453 129.486 182.07C130.301 186.4 131.024 188.771 131.986 193.07C133.383 199.312 134.05 202.837 135.486 209.07C136.433 213.178 136.479 216.07 137.986 219.57C138.481 220.719 138.774 221.766 139.986 222.07C141.979 222.57 146.081 222.07 149.986 222.07H159.486H170.486C172.439 222.07 174.653 222.836 175.486 221.07C175.603 220.824 175.795 220.497 175.486 219.57C174.796 217.499 172.479 217.962 170.486 217.07C168.004 215.96 166.335 215.943 163.986 214.57C162.064 213.447 160.793 212.873 159.486 211.07C156.736 207.276 157.87 203.741 157.486 199.07C157.097 194.335 157.486 191.57 157.486 187.07V175.57C157.486 170.103 156.979 166.57 156.979 161.07Z" stroke="#50439F" stroke-width="2"/>
<path d="M106.478 183.07C106.968 178.017 107.478 170.57 107.478 170.57L94.4775 167.07L78.4775 154.57V167.07V175.57V189.57V203.07V213.07C78.4775 215.57 77.4775 216.07 74.4775 217.07C71.138 218.183 70.4775 218.57 65.9775 220.07C64.0704 220.706 62.9775 220.57 61.4775 222.57C60.6574 223.664 60.255 224.959 61.4775 225.57C62.4775 226.07 64.9775 226.07 65.9775 226.07H74.4775H85.4775C88.9923 226.07 93.4775 226.453 94.4775 226.07C96.7034 225.218 97.8621 224.323 99.4775 222.57C102.913 218.843 102.655 212.07 102.978 210.07C103.3 208.07 104.978 195.07 104.978 195.07C104.978 195.07 106.056 187.416 106.478 183.07Z" fill="#FFAB0B"/>
<path d="M103.478 181.07C103.968 176.017 104.478 168.57 104.478 168.57L91.4775 165.07L75.4775 152.57V165.07V173.57V187.57V201.07V211.07C75.4775 213.57 74.4775 214.07 71.4775 215.07C68.138 216.183 67.4775 216.57 62.9775 218.07C61.0704 218.706 59.9775 218.57 58.4775 220.57C57.6574 221.664 57.255 222.959 58.4775 223.57C59.4775 224.07 61.9775 224.07 62.9775 224.07H71.4775H82.4775C85.9923 224.07 90.4775 224.453 91.4775 224.07C93.7034 223.218 94.8621 222.323 96.4775 220.57C99.9134 216.843 99.655 210.07 99.9775 208.07C100.3 206.07 101.978 193.07 101.978 193.07C101.978 193.07 103.056 185.416 103.478 181.07Z" stroke="#50439F" stroke-width="2"/>
<path d="M165.477 86.5701C162.218 81.264 159.495 78.8561 154.977 74.5701C151.15 70.9388 148.948 68.872 144.477 66.0701C140.259 63.4261 137.728 62.0578 132.977 60.5701C127.153 58.7461 123.58 58.6588 117.477 58.5701C110.599 58.4701 106.693 59.0795 99.9774 60.5701C93.3466 62.0419 89.4586 62.8515 83.4774 66.0701C77.8371 69.1052 74.8286 71.3698 70.4774 76.0701C65.767 81.1583 63.8009 84.7371 60.9774 91.0701C58.487 96.6558 57.4841 100.038 56.4774 106.07C55.1595 113.967 55.0339 118.696 56.4774 126.57C57.5128 132.219 58.4645 135.406 60.9774 140.57C64.156 147.102 66.6607 150.62 71.9774 155.57C77.3703 160.591 81.2549 162.553 87.9774 165.57C95.1961 168.81 99.6251 170.097 107.477 171.07C113.872 171.863 117.613 172.075 123.977 171.07C130.686 170.011 134.397 168.597 140.477 165.57C146.635 162.505 149.778 160.073 154.977 155.57C159.467 151.682 162.162 149.497 165.477 144.57C168.599 139.931 169.812 136.908 171.477 131.57C173.304 125.717 174.044 122.201 173.977 116.07C173.916 110.355 173.024 107.142 171.502 101.66L171.477 101.57C169.79 95.4907 168.779 91.9462 165.477 86.5701Z" fill="white" stroke="#50439F" stroke-width="2"/>
<path d="M167.477 88.5701C164.218 83.264 161.495 80.8561 156.977 76.5701C153.15 72.9388 150.948 70.872 146.477 68.0701C142.259 65.4261 139.728 64.0578 134.977 62.5701C129.153 60.7461 125.58 60.6588 119.477 60.5701C112.599 60.4701 108.693 61.0795 101.977 62.5701C95.3466 64.0419 91.4586 64.8515 85.4774 68.0701C79.8371 71.1052 76.8286 73.3698 72.4774 78.0701C67.767 83.1583 65.8009 86.7371 62.9774 93.0701C60.487 98.6558 59.4841 102.038 58.4774 108.07C57.1595 115.967 57.0339 120.696 58.4774 128.57C59.5128 134.219 60.4645 137.406 62.9774 142.57C66.156 149.102 68.6607 152.62 73.9774 157.57C79.3703 162.591 83.2549 164.553 89.9774 167.57C97.1961 170.81 101.625 172.097 109.477 173.07C115.872 173.863 119.613 174.075 125.977 173.07C132.686 172.011 136.397 170.597 142.477 167.57C148.635 164.505 151.778 162.073 156.977 157.57C161.467 153.682 164.162 151.497 167.477 146.57C170.599 141.931 171.812 138.908 173.477 133.57C175.304 127.717 176.044 124.201 175.977 118.07C175.916 112.355 175.024 109.142 173.502 103.66L173.477 103.57C171.79 97.4907 170.779 93.9462 167.477 88.5701Z" fill="#FFAB0B"/>
<path d="M165.477 86.5701C162.218 81.264 159.495 78.8561 154.977 74.5701C151.15 70.9388 148.948 68.872 144.477 66.0701C140.259 63.4261 137.728 62.0578 132.977 60.5701C127.153 58.7461 123.58 58.6588 117.477 58.5701C110.599 58.4701 106.693 59.0795 99.9774 60.5701C93.3466 62.0419 89.4586 62.8515 83.4774 66.0701C77.8371 69.1052 74.8286 71.3698 70.4774 76.0701C65.767 81.1583 63.8009 84.7371 60.9774 91.0701C58.487 96.6558 57.4841 100.038 56.4774 106.07C55.1595 113.967 55.0339 118.696 56.4774 126.57C57.5128 132.219 58.4645 135.406 60.9774 140.57C64.156 147.102 66.6607 150.62 71.9774 155.57C77.3703 160.591 81.2549 162.553 87.9774 165.57C95.1961 168.81 99.6251 170.097 107.477 171.07C113.872 171.863 117.613 172.075 123.977 171.07C130.686 170.011 134.397 168.597 140.477 165.57C146.635 162.505 149.778 160.073 154.977 155.57C159.467 151.682 162.162 149.497 165.477 144.57C168.599 139.931 169.812 136.908 171.477 131.57C173.304 125.717 174.044 122.201 173.977 116.07C173.916 110.355 173.024 107.142 171.502 101.66L171.477 101.57C169.79 95.4907 168.779 91.9462 165.477 86.5701Z" stroke="#50439F" stroke-width="2"/>
<ellipse cx="3.5" cy="4" rx="3.5" ry="4" transform="matrix(-1 0 0 1 123.978 77.5703)" fill="#50439F"/>
<ellipse cx="3.5" cy="4" rx="3.5" ry="4" transform="matrix(-1 0 0 1 110.978 77.5703)" fill="#50439F"/>
<circle cx="105.5" cy="81.5" r="1.5" fill="#D9D9D9"/>
<circle cx="118.5" cy="81.5" r="1.5" fill="#D9D9D9"/>
<path d="M109.457 104.091C109.019 104.529 109.017 105.242 109.484 105.649C111.911 107.757 114.924 109.091 118.134 109.464C121.717 109.879 125.335 109.072 128.401 107.173C131.467 105.275 133.802 102.396 135.027 99.0033C136.124 95.9636 136.273 92.6715 135.467 89.5598C135.311 88.9601 134.672 88.6442 134.084 88.8411C133.497 89.038 133.185 89.6731 133.334 90.2745C133.983 92.9049 133.842 95.6776 132.917 98.2415C131.864 101.158 129.856 103.634 127.22 105.266C124.583 106.899 121.473 107.593 118.392 107.235C115.685 106.921 113.14 105.811 111.075 104.058C110.602 103.657 109.895 103.653 109.457 104.091Z" fill="#50439F"/>
<path d="M166.887 85.6452C166.887 85.6452 136.326 85.1667 112.404 58.1182C111.898 58.2726 170.502 12.5344 170.502 12.5344L166.889 85.6369L166.887 85.6452Z" fill="#E93405"/>
<path d="M138.41 49.9974L134.253 53.0173L129.324 51.3784L131.016 56.1808L127.916 60.2317L133.124 60.1756L136.142 64.3212L137.667 59.4851L142.624 58.0036L138.366 55.0662L138.41 49.9974Z" fill="#FFFCF5"/>
<path d="M169.701 26.2523L169.826 26.1586L169.413 34.5658L168.563 33.4095L163.365 33.4584L166.456 29.4064L164.765 24.604L169.701 26.2523Z" fill="#FFFCF5"/>
<path d="M155.321 32.9555L153.327 34.413L150.955 33.6181L151.77 35.9266L150.278 37.8709L152.781 37.8468L154.235 39.8407L154.96 37.5191L157.344 36.8042L155.303 35.3933L155.321 32.9555Z" fill="#FFFCF5"/>
<path d="M162.638 52.2619L160.645 53.7111L158.272 52.9245L159.088 55.2247L157.596 57.169L160.098 57.1532L161.553 59.1389L162.286 56.8183L164.662 56.1023L162.62 54.6913L162.638 52.2619Z" fill="#FFFCF5"/>
<path d="M156.902 72.2272L154.91 73.6765L152.537 72.8816L153.352 75.19L151.86 77.1343L154.364 77.1102L155.818 79.1042L156.55 76.7836L158.926 76.0676L156.885 74.6567L156.902 72.2272Z" fill="#FFFCF5"/>
<g style="mix-blend-mode:multiply">
<path d="M112.403 58.1255C111.932 58.276 163.05 18.363 169.768 13.1143C170.027 13.1899 170.262 13.2539 170.463 13.3135L170.087 20.9571C169.27 20.6324 168.412 20.2773 167.535 19.8773C162.084 17.3691 153.477 30.6831 142.095 42.0106C131.509 52.5539 123.47 65.2401 167.334 76.4392L166.877 85.6597C166.877 85.6597 136.316 85.1812 112.394 58.1327L112.403 58.1255Z" fill="#CDD0D1"/>
</g>
<path d="M164.476 5.45139C162.33 9.5827 164.04 14.6492 168.299 16.7677C172.559 18.8862 177.752 17.2577 179.899 13.1264C182.045 8.99511 180.335 3.92861 176.076 1.8101C171.816 -0.308405 166.623 1.32008 164.476 5.45139Z" fill="#7263B1"/>
<g style="mix-blend-mode:multiply">
<path d="M171.485 0.915272C171.485 0.915272 171.474 0.930767 171.472 0.947379C169.326 5.07869 171.035 10.1452 175.295 12.2637C176.773 12.9942 178.36 13.2744 179.894 13.1594C177.734 17.2636 172.559 18.8859 168.316 16.7696C164.057 14.6511 162.347 9.58465 164.493 5.45334C165.9 2.75508 168.6 1.13516 171.493 0.916371L171.485 0.915272Z" fill="#CDD0D1"/>
</g>
<path d="M120.001 94.5C120.001 99.194 116.195 103 111.501 103C106.807 103 103.001 99.194 103.001 94.5C103.001 89.806 106.807 86 111.501 86C116.195 86 120.001 89.806 120.001 94.5Z" fill="#E93405"/>
<path d="M111.893 91.0116C111.893 92.6862 110.536 94.0437 108.861 94.0437C107.187 94.0437 105.829 92.6862 105.829 91.0116C105.829 89.337 107.187 87.9795 108.861 87.9795C110.536 87.9795 111.893 89.337 111.893 91.0116Z" fill="#FFFCF5"/>
<g style="mix-blend-mode:multiply">
<path d="M117.228 88.2324C117.291 88.6574 117.336 89.0888 117.336 89.5328C117.336 94.2268 113.53 98.0328 108.836 98.0328C106.628 98.0328 104.624 97.1828 103.114 95.8C103.742 99.8787 107.25 103 111.5 103C116.194 103 120 99.1936 120 94.4996C120 92.013 118.928 89.7865 117.228 88.2324Z" fill="#CDD0D1"/>
</g>
</svg>
