<svg width="27" height="20" viewBox="0 0 27 20" fill="none" xmlns="http://www.w3.org/2000/svg">
<g clip-path="url(#clip0_3552_13726)">
<path d="M0 0H27V20H0V0Z" fill="#012169"/>
<path d="M3.16406 0L13.4578 7.54167L23.7094 0H27V2.58333L16.875 10.0417L27 17.4583V20H23.625L13.5 12.5417L3.41719 20H0V17.5L10.0828 10.0833L0 2.66667V0H3.16406Z" fill="white"/>
<path d="M17.8875 11.7083L27 18.3333V20L15.5672 11.7083H17.8875ZM10.125 12.5417L10.3781 14L2.27813 20H0L10.125 12.5417ZM27 0V0.125L16.4953 7.95833L16.5797 6.125L24.8906 0H27ZM0 0L10.0828 7.33333H7.55156L0 1.75V0Z" fill="#C8102E"/>
<path d="M10.1672 0V20H16.9172V0H10.1672ZM0 6.66667V13.3333H27V6.66667H0Z" fill="white"/>
<path d="M0 8.04167V12.0417H27V8.04167H0ZM11.5172 0V20H15.5672V0H11.5172Z" fill="#C8102E"/>
</g>
<defs>
<clipPath id="clip0_3552_13726">
<rect width="27" height="20" fill="white"/>
</clipPath>
</defs>
</svg>
