<svg width="25" height="24" viewBox="0 0 25 24" fill="none" xmlns="http://www.w3.org/2000/svg">
<path d="M22.5822 11.3953C21.7583 9.65954 20.7778 8.24391 19.6408 7.14844L18.4483 8.34094C19.4207 9.27024 20.2678 10.4859 21.0002 12C19.0502 16.0359 16.2822 17.9531 12.4994 17.9531C11.3639 17.9531 10.3181 17.7783 9.36182 17.4286L8.06972 18.7207C9.39784 19.334 10.8744 19.6406 12.4994 19.6406C17.0041 19.6406 20.365 17.2945 22.5822 12.6023C22.6714 12.4136 22.7176 12.2075 22.7176 11.9988C22.7176 11.7901 22.6714 11.584 22.5822 11.3953ZM21.0923 3.88032L20.0932 2.88C20.0757 2.86257 20.0551 2.84874 20.0323 2.8393C20.0095 2.82987 19.9851 2.82501 19.9605 2.82501C19.9359 2.82501 19.9115 2.82987 19.8887 2.8393C19.8659 2.84874 19.8453 2.86257 19.8278 2.88L17.2645 5.44219C15.8512 4.72032 14.2628 4.35938 12.4994 4.35938C7.99472 4.35938 4.63378 6.70547 2.41659 11.3977C2.32747 11.5864 2.28125 11.7925 2.28125 12.0012C2.28125 12.2099 2.32747 12.416 2.41659 12.6047C3.30237 14.4703 4.36878 15.9657 5.61581 17.0909L3.13565 19.5703C3.10052 19.6055 3.08078 19.6531 3.08078 19.7029C3.08078 19.7526 3.10052 19.8002 3.13565 19.8354L4.1362 20.8359C4.17136 20.8711 4.21903 20.8908 4.26874 20.8908C4.31845 20.8908 4.36612 20.8711 4.40128 20.8359L21.0923 4.14563C21.1097 4.12821 21.1236 4.10754 21.133 4.08477C21.1424 4.06201 21.1473 4.03761 21.1473 4.01297C21.1473 3.98833 21.1424 3.96393 21.133 3.94117C21.1236 3.91841 21.1097 3.89773 21.0923 3.88032ZM3.99862 12C5.95097 7.96407 8.71893 6.04688 12.4994 6.04688C13.7777 6.04688 14.9399 6.26625 15.9944 6.71227L14.3467 8.35993C13.5664 7.94359 12.673 7.78907 11.7982 7.91917C10.9234 8.04927 10.1135 8.4571 9.48813 9.08248C8.86275 9.70787 8.45492 10.5177 8.32482 11.3925C8.19472 12.2673 8.34924 13.1608 8.76557 13.9411L6.81042 15.8963C5.72831 14.9412 4.7955 13.6472 3.99862 12ZM9.78065 12C9.78106 11.5867 9.87896 11.1794 10.0664 10.811C10.2538 10.4427 10.5255 10.1237 10.8593 9.8801C11.1932 9.63648 11.5798 9.47504 11.9877 9.4089C12.3957 9.34276 12.8135 9.37379 13.2072 9.49946L9.90511 12.8016C9.82234 12.5424 9.78035 12.272 9.78065 12Z" fill="#50439F"/>
<path d="M12.4059 14.625C12.3248 14.625 12.2449 14.6212 12.1657 14.614L10.9277 15.8519C11.6723 16.1371 12.4836 16.2005 13.2634 16.0344C14.0432 15.8683 14.7583 15.4799 15.3221 14.9161C15.8858 14.3523 16.2743 13.6373 16.4403 12.8575C16.6064 12.0776 16.543 11.2664 16.2579 10.5218L15.0199 11.7598C15.0272 11.839 15.0309 11.9189 15.0309 12C15.0311 12.3448 14.9634 12.6862 14.8315 13.0048C14.6996 13.3233 14.5063 13.6128 14.2625 13.8566C14.0187 14.1004 13.7293 14.2937 13.4107 14.4256C13.0921 14.5574 12.7507 14.6252 12.4059 14.625Z" fill="black"/>
</svg>
