<svg width="32" height="32" viewBox="0 0 32 32" fill="none" xmlns="http://www.w3.org/2000/svg">
<path d="M11.25 5.75H11C11.1375 5.75 11.25 5.6375 11.25 5.5V5.75ZM11.25 5.75H20.75V5.5C20.75 5.6375 20.8625 5.75 21 5.75H20.75V8H23V5.5C23 4.39688 22.1031 3.5 21 3.5H11C9.89687 3.5 9 4.39688 9 5.5V8H11.25V5.75ZM27 8H5C4.44687 8 4 8.44688 4 9V10C4 10.1375 4.1125 10.25 4.25 10.25H6.1375L6.90938 26.5938C6.95938 27.6594 7.84063 28.5 8.90625 28.5H23.0938C24.1625 28.5 25.0406 27.6625 25.0906 26.5938L25.8625 10.25H27.75C27.8875 10.25 28 10.1375 28 10V9C28 8.44688 27.5531 8 27 8ZM22.8531 26.25H9.14688L8.39062 10.25H23.6094L22.8531 26.25Z" fill="#50439F"/>
</svg>
