<svg width="60" height="60" viewBox="0 0 60 60" fill="none" xmlns="http://www.w3.org/2000/svg">
<path d="M50.0742 16.9102L37.4648 4.30078C37.1133 3.94922 36.6387 3.75 36.1406 3.75H11.25C10.2129 3.75 9.375 4.58789 9.375 5.625V54.375C9.375 55.4121 10.2129 56.25 11.25 56.25H48.75C49.7871 56.25 50.625 55.4121 50.625 54.375V18.2402C50.625 17.7422 50.4258 17.2617 50.0742 16.9102ZM46.3008 19.1016H35.2734V8.07422L46.3008 19.1016ZM46.4062 52.0312H13.5938V7.96875H31.2891V20.625C31.2891 21.2777 31.5483 21.9036 32.0099 22.3651C32.4714 22.8267 33.0973 23.0859 33.75 23.0859H46.4062V52.0312ZM29.5312 36.2109H18.75C18.4922 36.2109 18.2812 36.4219 18.2812 36.6797V39.4922C18.2812 39.75 18.4922 39.9609 18.75 39.9609H29.5312C29.7891 39.9609 30 39.75 30 39.4922V36.6797C30 36.4219 29.7891 36.2109 29.5312 36.2109ZM18.2812 28.7109V31.5234C18.2812 31.7812 18.4922 31.9922 18.75 31.9922H41.25C41.5078 31.9922 41.7188 31.7812 41.7188 31.5234V28.7109C41.7188 28.4531 41.5078 28.2422 41.25 28.2422H18.75C18.4922 28.2422 18.2812 28.4531 18.2812 28.7109Z" fill="#50439F"/>
</svg>
