<svg width="25" height="24" viewBox="0 0 25 24" fill="none" xmlns="http://www.w3.org/2000/svg">
<path d="M22.9611 11.3953C20.7392 6.71484 17.3807 4.35938 12.8783 4.35938C8.37362 4.35938 5.01737 6.71484 2.7955 11.3977C2.70638 11.5864 2.66016 11.7925 2.66016 12.0012C2.66016 12.2099 2.70638 12.416 2.7955 12.6047C5.01737 17.2852 8.37597 19.6406 12.8783 19.6406C17.383 19.6406 20.7392 17.2852 22.9611 12.6023C23.1416 12.2227 23.1416 11.782 22.9611 11.3953ZM12.8783 17.9531C9.09784 17.9531 6.32987 16.0359 4.37753 12C6.32987 7.96406 9.09784 6.04688 12.8783 6.04688C16.6588 6.04688 19.4267 7.96406 21.3791 12C19.4291 16.0359 16.6611 17.9531 12.8783 17.9531ZM12.7846 7.875C10.5064 7.875 8.65956 9.72188 8.65956 12C8.65956 14.2781 10.5064 16.125 12.7846 16.125C15.0627 16.125 16.9096 14.2781 16.9096 12C16.9096 9.72188 15.0627 7.875 12.7846 7.875ZM12.7846 14.625C11.3338 14.625 10.1596 13.4508 10.1596 12C10.1596 10.5492 11.3338 9.375 12.7846 9.375C14.2353 9.375 15.4096 10.5492 15.4096 12C15.4096 13.4508 14.2353 14.625 12.7846 14.625Z" fill="#50439F"/>
</svg>
