<svg width="32.000000" height="32.000000" viewBox="0 0 32 32" fill="none" xmlns="http://www.w3.org/2000/svg" xmlns:xlink="http://www.w3.org/1999/xlink">
	<desc>
			Created with Pixso.
	</desc>
	<defs>
		<clipPath id="clip2_4031">
			<rect id="ant-design:edit-outlined" width="32.000000" height="32.000000" fill="white" fill-opacity="0"/>
		</clipPath>
	</defs>
	<rect id="ant-design:edit-outlined" width="32.000000" height="32.000000" fill="#FFFFFF" fill-opacity="0"/>
	<g clip-path="url(#clip2_4031)">
		<path id="Vector" d="M8.05 23.5C8.11 23.5 8.17 23.49 8.24 23.48L13.49 22.56C13.55 22.54 13.61 22.52 13.66 22.47L26.9 9.22C26.93 9.19 26.96 9.16 26.97 9.12C26.99 9.08 27 9.04 27 9C27 8.96 26.99 8.92 26.97 8.88C26.96 8.85 26.93 8.81 26.9 8.78L21.71 3.59C21.65 3.53 21.57 3.5 21.49 3.5C21.4 3.5 21.33 3.53 21.27 3.59L8.02 16.83C7.97 16.88 7.94 16.94 7.93 17L7.01 22.25C6.98 22.42 6.99 22.59 7.04 22.76C7.09 22.92 7.18 23.07 7.3 23.19C7.51 23.39 7.77 23.5 8.05 23.5ZM10.15 18.04L21.49 6.71L23.78 9L12.45 20.34L9.67 20.83L10.15 18.04ZM27.5 26.12L4.5 26.12C3.94 26.12 3.5 26.57 3.5 27.12L3.5 28.25C3.5 28.38 3.61 28.5 3.75 28.5L28.25 28.5C28.38 28.5 28.5 28.38 28.5 28.25L28.5 27.12C28.5 26.57 28.05 26.12 27.5 26.12Z" fill="#50439F" fill-opacity="1.000000" fill-rule="nonzero"/>
	</g>
</svg>
