<svg width="24" height="24" viewBox="0 0 24 24" fill="none" xmlns="http://www.w3.org/2000/svg">
<path d="M20.7422 18.2809H3.86719C3.76406 18.2809 3.67969 18.3653 3.67969 18.4684V19.8747C3.67969 19.9778 3.76406 20.0622 3.86719 20.0622H20.7422C20.8453 20.0622 20.9297 19.9778 20.9297 19.8747V18.4684C20.9297 18.3653 20.8453 18.2809 20.7422 18.2809ZM9.375 7.63327H11.107V15.5622C11.107 15.6653 11.1914 15.7497 11.2945 15.7497H12.7008C12.8039 15.7497 12.8883 15.6653 12.8883 15.5622V7.63327H14.625C14.782 7.63327 14.8687 7.4528 14.7727 7.33093L12.1477 4.00749C12.1301 3.98508 12.1077 3.96695 12.0821 3.95449C12.0565 3.94202 12.0285 3.93555 12 3.93555C11.9715 3.93555 11.9435 3.94202 11.9179 3.95449C11.8923 3.96695 11.8699 3.98508 11.8523 4.00749L9.22734 7.32858C9.13125 7.4528 9.21797 7.63327 9.375 7.63327Z" fill="#50439F"/>
</svg>
