<svg width="95" height="78" viewBox="0 0 95 78" fill="none" xmlns="http://www.w3.org/2000/svg">
<g clip-path="url(#clip0_1108_970)">
<path d="M23.1268 37.6396C23.1268 37.6396 6.74982 39.8576 4.80598 41.4929C2.86214 43.1282 1.98645 44.9931 10.7006 50.1755C19.4138 55.3562 32.9824 63.9283 42.8739 65.5715C52.7646 67.213 67.8386 63.2242 69.403 62.35C70.9674 61.4758 23.128 37.64 23.128 37.64L23.1268 37.6396Z" fill="#FDBA36"/>
<path d="M22.4795 38.8755C22.4785 38.495 29.0517 19.5038 34.5421 15.6233C39.5917 12.0559 51.6032 12.93 61.9947 16.8943C61.9947 16.8943 77.0442 22.794 82.6346 30.2281C86.9592 35.9779 87.5493 46.8268 86.4098 49.8728C85.2694 52.9171 80.7515 59.8992 79.5188 61.4036C78.6615 62.4501 75.3784 62.7525 73.5657 62.8468C71.4291 62.9577 67.2843 62.216 67.2843 62.216C67.2843 62.216 44.3584 55.4037 32.7265 47.8657C22.6743 41.3508 22.4791 38.8767 22.4791 38.8767L22.4795 38.8755Z" fill="#E93405"/>
<path d="M69.402 62.3496L68.5233 61.9301C68.5233 61.9301 56.0833 65.6535 46.7288 65.0777C37.3742 64.502 29.3102 59.663 15.7053 51.9676C3.61386 45.1278 3.62289 43.0137 3.77495 42.6283C2.93604 44.1001 3.88691 46.1241 10.7009 50.1755C19.4141 55.3562 32.9827 63.9284 42.8742 65.5715C52.7649 67.213 67.8389 63.2242 69.4033 62.35L69.402 62.3496Z" fill="#FFAB0B"/>
<path d="M84.4203 33.3071C84.064 34.5469 83.5797 35.7664 82.5987 36.5734C81.1443 37.7706 78.9708 37.6973 77.2299 36.9645C75.4899 36.2333 75.7676 35.5249 74.2528 34.3991C73.8804 34.1229 73.3974 33.8421 72.9808 34.0444C72.6542 34.2041 72.5236 34.5924 72.4245 34.941C70.1715 42.801 66.807 52.1637 62.184 58.9348C61.907 59.3416 61.603 59.9014 61.2676 60.3698C65.9499 61.9792 67.2831 62.2131 67.2831 62.2131C67.2831 62.2131 71.4279 62.9548 73.5645 62.8439C75.3772 62.7496 78.6603 62.4472 79.5176 61.4007C80.7502 59.8963 85.2677 52.9154 86.4086 49.8699C87.3672 47.3087 87.1011 39.2297 84.4199 33.3042L84.4203 33.3071Z" fill="#BA2A04"/>
<path d="M61.9943 16.8948C53.1411 13.5177 43.1124 12.3837 37.2157 14.3277C36.933 14.583 36.6828 14.8673 36.4919 15.1965C35.7247 16.5161 36.081 18.2319 36.8556 19.5503C38.3138 22.0351 40.982 23.5181 43.5233 24.8847C49.1537 27.9108 55.2218 31.0293 61.5781 30.3938C63.9374 30.1572 66.3035 29.4029 68.6354 29.8391C72.2453 30.5147 75.0122 33.9142 78.6787 34.1376C79.4402 34.1841 80.2217 34.0822 80.9061 33.7495C82.0802 33.18 82.7384 32.1204 83.0855 30.8706C82.9396 30.6516 82.7911 30.4359 82.6351 30.2303C77.0426 22.794 61.9943 16.8948 61.9943 16.8948Z" fill="#ED5D37"/>
<path d="M32.8101 47.8978L32.6422 47.8294C32.7281 47.6176 41.2513 26.6438 45.372 22.6052C49.449 18.6095 57.2621 17.1827 62.5432 17.8692L62.5199 18.0487C57.2818 17.3682 49.5356 18.7794 45.4985 22.7353C41.405 26.7466 32.8956 47.6873 32.8101 47.8978Z" fill="#BA2A04"/>
<path d="M33.7656 48.4708L33.5977 48.4023C33.5977 48.4023 33.6961 48.1612 33.8746 47.7259L34.0426 47.7943C33.8628 48.2292 33.7661 48.4695 33.7661 48.4695L33.7656 48.4708ZM34.3191 47.1233L34.1515 47.0536C34.2362 46.8498 34.3288 46.6263 34.4306 46.3835L34.5982 46.4532C34.4968 46.6947 34.4037 46.9195 34.3195 47.1221L34.3191 47.1233ZM34.8785 45.7876L34.7109 45.7179C34.7998 45.5057 34.8949 45.283 34.9933 45.0503L35.1605 45.1212C35.0624 45.3527 34.9686 45.5758 34.8785 45.7876ZM35.4442 44.454L35.277 44.3831C35.3684 44.1675 35.4648 43.9452 35.5616 43.7175L35.7287 43.7885C35.6306 44.0158 35.5355 44.2385 35.4442 44.454ZM36.0153 43.125L35.8486 43.0528L36.1369 42.3885L36.3037 42.4608L36.0158 43.1238L36.0153 43.125ZM36.5911 41.799L36.4244 41.7268C36.5195 41.5083 36.6168 41.2877 36.7148 41.0646L36.8812 41.1381C36.7831 41.3612 36.6859 41.5818 36.5907 41.8003L36.5911 41.799ZM37.1745 40.4755L37.0082 40.402C37.1046 40.1839 37.2031 39.9637 37.3024 39.7411L37.4687 39.8146C37.3694 40.0372 37.2709 40.2574 37.1745 40.4755ZM37.7638 39.1553L37.5979 39.0806C37.696 38.8617 37.7957 38.6419 37.8959 38.4209L38.0605 38.4952C37.9604 38.7162 37.8606 38.936 37.7629 39.1536L37.7638 39.1553ZM38.3619 37.8381L38.1977 37.7625C38.297 37.544 38.3981 37.3247 38.4991 37.1054L38.6633 37.1809C38.5623 37.4003 38.4612 37.6196 38.3619 37.8381ZM38.9655 36.5255L38.8013 36.4499C38.9019 36.2318 39.0038 36.0142 39.106 35.7953L39.2698 35.8721C39.168 36.0898 39.0657 36.3087 38.9651 36.5267L38.9655 36.5255ZM39.5792 35.2162L39.4154 35.1394C39.5189 34.9209 39.6225 34.7024 39.7273 34.4843L39.8907 34.5624C39.7871 34.7809 39.6823 34.999 39.5788 35.2175L39.5792 35.2162ZM40.203 33.9103L40.0396 33.8322C40.1444 33.6142 40.2501 33.3978 40.3557 33.1814L40.5187 33.2608C40.413 33.4771 40.3074 33.6935 40.203 33.9103ZM40.8369 32.612L40.6744 32.5314C40.7817 32.3142 40.8886 32.0982 40.9964 31.8839L41.1589 31.9645C41.0511 32.1788 40.9442 32.3948 40.8369 32.612ZM41.4843 31.3196L41.3222 31.2377C41.432 31.0213 41.5427 30.8066 41.6517 30.5927L41.8134 30.6759C41.7036 30.8881 41.5941 31.1032 41.4843 31.3196ZM42.1472 30.0351L41.9872 29.9511C42.1009 29.736 42.2128 29.5217 42.3261 29.312L42.4857 29.3973C42.3737 29.6074 42.2609 29.82 42.1472 30.0351ZM42.8291 28.7611L42.67 28.6746C42.7878 28.4595 42.9044 28.2482 43.021 28.041L43.1794 28.13C43.0627 28.3372 42.9466 28.5473 42.83 28.7628L42.8291 28.7611ZM43.5346 27.5006L43.378 27.4107C43.5009 27.1973 43.6234 26.9893 43.7433 26.7847L43.8992 26.877C43.7783 27.08 43.6571 27.2884 43.5346 27.5006ZM44.273 26.2594L44.1192 26.1649C44.2501 25.9527 44.3785 25.7481 44.5069 25.5518L44.6594 25.6501C44.5327 25.8455 44.4043 26.0501 44.2742 26.2598L44.273 26.2594ZM45.0585 25.0492L44.9089 24.9463C45.0537 24.7346 45.1956 24.5358 45.3303 24.3543L45.4757 24.4613C45.3413 24.6416 45.2012 24.8395 45.0576 25.0475L45.0585 25.0492ZM45.919 23.8961L45.7791 23.7811C45.95 23.5752 46.1146 23.3924 46.2683 23.2382L46.3972 23.3649C46.2473 23.5162 46.0856 23.6944 45.919 23.8961ZM46.9206 22.8752L46.8005 22.7389C46.979 22.5816 47.1681 22.4265 47.3626 22.2761L47.4735 22.4191C47.2823 22.568 47.0954 22.721 46.9194 22.8748L46.9206 22.8752ZM48.0534 21.9958L47.95 21.8468C48.1467 21.711 48.3513 21.5765 48.5581 21.4482L48.6543 21.6018C48.4492 21.7292 48.2467 21.8617 48.0534 21.9958ZM49.2738 21.2364L49.1848 21.0782C49.3916 20.9625 49.608 20.8473 49.827 20.7371L49.9093 20.8986C49.692 21.008 49.4789 21.1215 49.2738 21.2364ZM50.5584 20.5877L50.4828 20.4228C50.6993 20.3244 50.9238 20.2272 51.15 20.1333L51.2192 20.3003C50.9952 20.392 50.7736 20.4888 50.5588 20.5864L50.5584 20.5877ZM51.8886 20.0381L51.8256 19.869C52.0484 19.7852 52.2788 19.704 52.5093 19.6269L52.5672 19.7985C52.338 19.876 52.1093 19.9564 51.8886 20.0381ZM53.2543 19.5799L53.201 19.407C53.4301 19.3379 53.6656 19.2709 53.8998 19.2077L53.9472 19.3814C53.7147 19.4438 53.4805 19.5112 53.2543 19.5799ZM54.6474 19.2035L54.6051 19.0273C54.8368 18.9716 55.0761 18.9185 55.3145 18.8679L55.3527 19.0441C55.1146 19.0934 54.8779 19.1474 54.6478 19.2022L54.6474 19.2035ZM56.0622 18.9056L56.0286 18.7281C56.2646 18.6851 56.5068 18.6441 56.7449 18.6073L56.7738 18.786C56.5358 18.8228 56.2964 18.8633 56.0618 18.9068L56.0622 18.9056ZM57.4893 18.6844L57.4662 18.5049C57.7064 18.4744 57.9487 18.446 58.1885 18.421L58.2073 18.6005C57.9692 18.6247 57.7286 18.6523 57.4897 18.6832L57.4893 18.6844ZM58.9253 18.5375L58.9111 18.3567C59.1543 18.3384 59.3991 18.3234 59.6372 18.3118L59.6459 18.4922C59.4091 18.5042 59.1659 18.5184 58.9253 18.5375ZM60.3691 18.4687L60.3646 18.2883C60.6073 18.2838 60.8517 18.2827 61.0924 18.2845L61.091 18.4657C60.852 18.463 60.6089 18.4646 60.3687 18.4699L60.3691 18.4687ZM61.8121 18.482L61.819 18.3012C62.0651 18.3118 62.31 18.3262 62.5452 18.3444L62.5316 18.5243C62.2977 18.5066 62.0557 18.4918 61.8109 18.4816L61.8121 18.482ZM63.2516 18.5947L63.2719 18.4156C63.3476 18.4241 63.4229 18.4338 63.4983 18.4434L63.475 18.623C63.401 18.6137 63.3269 18.6044 63.2511 18.596L63.2516 18.5947Z" fill="#BA2A04"/>
<path d="M31.7212 47.1559L31.5528 47.0887C31.5528 47.0887 31.65 46.8471 31.8284 46.4118L31.9964 46.4803C31.8179 46.9156 31.7212 47.1559 31.7212 47.1559ZM32.2742 45.8097L32.1066 45.74C32.1913 45.5362 32.2839 45.3126 32.3853 45.0711L32.5528 45.1408C32.4514 45.3824 32.3584 45.6071 32.2742 45.8097ZM32.8315 44.4719L32.6639 44.4022C32.7527 44.19 32.8466 43.9669 32.9451 43.7341L33.1122 43.8051C33.0142 44.0366 32.9203 44.2597 32.8315 44.4719ZM33.3955 43.1391L33.2283 43.0682C33.3197 42.8526 33.4148 42.6299 33.5129 42.4026L33.68 42.4736C33.582 42.7009 33.4868 42.9236 33.3955 43.1391ZM33.9671 41.8089L33.8003 41.7367C33.8938 41.519 33.9898 41.298 34.0887 41.0724L34.2554 41.1446C34.1578 41.3707 34.0618 41.5917 33.9675 41.8076L33.9671 41.8089ZM34.5429 40.4829L34.3761 40.4106C34.4713 40.1921 34.5685 39.9715 34.6666 39.7484L34.8329 39.8219C34.7348 40.045 34.6376 40.2656 34.5425 40.4841L34.5429 40.4829ZM35.1263 39.1593L34.9599 39.0858C35.0563 38.8678 35.1548 38.6476 35.2542 38.4249L35.4205 38.4984C35.3211 38.7211 35.2226 38.9413 35.1263 39.1593ZM35.7155 37.8392L35.5509 37.7648C35.649 37.5459 35.7487 37.3262 35.8489 37.1052L36.0135 37.1795C35.9134 37.4005 35.8136 37.6203 35.7159 37.8379L35.7155 37.8392ZM36.3132 36.5232L36.149 36.4476C36.2483 36.2291 36.3494 36.0098 36.4504 35.7905L36.6146 35.8661C36.5136 36.0854 36.4126 36.3047 36.3132 36.5232ZM36.9176 35.2123L36.7539 35.1354C36.8557 34.9178 36.958 34.6989 37.0599 34.4812L37.2237 34.5581C37.1214 34.777 37.0195 34.9946 36.9176 35.2123ZM37.5326 33.9034L37.3692 33.8253C37.4728 33.6069 37.5759 33.3896 37.6803 33.1728L37.8437 33.2509C37.7393 33.4677 37.6361 33.685 37.5326 33.9034ZM38.1581 32.6009L37.9951 32.5216C38.1012 32.3039 38.2069 32.0875 38.3125 31.8711L38.4755 31.9505C38.3702 32.1656 38.2642 32.3833 38.1585 32.5997L38.1581 32.6009ZM38.7958 31.3038L38.6333 31.2232C38.7406 31.006 38.8488 30.7905 38.9578 30.5766L39.1199 30.6585C39.0121 30.8728 38.904 31.0883 38.7958 31.3038ZM39.4465 30.0139L39.2848 29.9308C39.396 29.7148 39.5067 29.5001 39.6165 29.2879L39.7778 29.3723C39.6667 29.5841 39.5564 29.7975 39.4465 30.0139ZM40.1141 28.7324L39.9545 28.6471C40.0694 28.4324 40.1827 28.2186 40.2972 28.0093L40.4563 28.0958C40.3431 28.3055 40.229 28.5177 40.1141 28.7324ZM40.8032 27.4622L40.6444 27.3744C40.7635 27.1597 40.8814 26.9488 40.9989 26.7433L41.1559 26.8319C41.0385 27.0374 40.9206 27.2483 40.8019 27.4618L40.8032 27.4622ZM41.5196 26.2067L41.3634 26.1156C41.4888 25.903 41.6126 25.6954 41.7359 25.4933L41.8913 25.5869C41.7684 25.7878 41.6451 25.9941 41.5209 26.2071L41.5196 26.2067ZM42.2714 24.9755L42.1186 24.8786C42.2532 24.6676 42.385 24.4655 42.5155 24.2714L42.6659 24.3717C42.5358 24.5646 42.4044 24.7654 42.2714 24.9755ZM43.0789 23.7796L42.9318 23.6734C43.0821 23.4663 43.2299 23.2709 43.3705 23.0927L43.5125 23.2056C43.3727 23.3813 43.227 23.5746 43.0789 23.7796ZM43.9785 22.6606L43.8454 22.538C43.9222 22.4546 43.9991 22.3753 44.0738 22.3024C44.1692 22.2097 44.2658 22.1175 44.3662 22.0265L44.4888 22.1596C44.3918 22.2489 44.2956 22.3398 44.202 22.4316C44.1293 22.5025 44.0545 22.5796 43.9798 22.661L43.9785 22.6606ZM45.0312 21.693L44.9165 21.5528C45.1026 21.4023 45.2976 21.2548 45.4951 21.1123L45.6005 21.2591C45.4051 21.3996 45.2135 21.5454 45.0295 21.6938L45.0312 21.693ZM46.1968 20.8538L46.0985 20.7024C46.2986 20.5733 46.5079 20.4459 46.7197 20.3235L46.8108 20.4796C46.6007 20.6011 46.3947 20.7268 46.1968 20.8538ZM47.4409 20.133L47.3565 19.9736C47.567 19.8634 47.7856 19.7544 48.008 19.6509L48.0857 19.8137C47.8663 19.9168 47.6494 20.0249 47.4405 20.1343L47.4409 20.133ZM48.7423 19.5179L48.6714 19.3518C48.8904 19.2583 49.1174 19.1662 49.3445 19.0782L49.4104 19.2469C49.185 19.334 48.9597 19.4253 48.7423 19.5179ZM50.086 18.9993L50.0264 18.8286C50.2514 18.7511 50.4831 18.6744 50.7164 18.6011L50.7714 18.7732C50.5397 18.8456 50.3097 18.9214 50.0877 18.9985L50.086 18.9993ZM51.4619 18.5697L51.4132 18.3956C51.6436 18.3311 51.8804 18.2687 52.1159 18.2101L52.1599 18.3855C51.9257 18.4445 51.6906 18.506 51.4619 18.5697ZM52.8631 18.2197L52.8237 18.0431C53.0596 17.9916 53.2993 17.9414 53.5373 17.8962L53.5721 18.0741C53.3354 18.1197 53.0977 18.1678 52.8643 18.2201L52.8631 18.2197ZM54.2821 17.947L54.2515 17.7691C54.4887 17.7306 54.7297 17.6934 54.9707 17.6604L54.9967 17.8395C54.7586 17.8721 54.5176 17.9093 54.2833 17.9474L54.2821 17.947ZM55.7122 17.7506L55.6921 17.5706C55.9339 17.5435 56.1775 17.5197 56.4156 17.4997L56.4315 17.6796C56.1946 17.7001 55.9528 17.723 55.7126 17.7493L55.7122 17.7506ZM57.1512 17.6284L57.1408 17.4489C57.3839 17.4347 57.6288 17.424 57.8682 17.417L57.8739 17.5978C57.6358 17.6052 57.3939 17.6155 57.1525 17.6288L57.1512 17.6284ZM58.5946 17.586L58.5943 17.4056C58.8383 17.4057 59.0827 17.4088 59.3213 17.4169L59.3161 17.5968C59.0788 17.5892 58.8361 17.5852 58.5946 17.586ZM60.0381 17.6316L60.0492 17.4508C60.2949 17.4669 60.5393 17.4867 60.7754 17.5108L60.7576 17.6907C60.5245 17.6662 60.2826 17.6472 60.0385 17.6303L60.0381 17.6316Z" fill="#BA2A04"/>
<path d="M59.331 59.1261L59.168 59.0468C59.2569 58.8639 59.363 58.6463 59.4841 58.3959L59.6475 58.474C59.5264 58.7244 59.4199 58.9433 59.3314 59.1249L59.331 59.1261ZM59.9611 57.8224L59.7977 57.7442C59.895 57.5404 59.9985 57.3219 60.1075 57.0913L60.2713 57.1681C60.1623 57.3988 60.0588 57.6173 59.9611 57.8224ZM60.5803 56.5135L60.4165 56.4367C60.5146 56.2262 60.6168 56.0073 60.7216 55.7808L60.8858 55.8564C60.781 56.0828 60.6788 56.3017 60.5794 56.5118L60.5803 56.5135ZM61.1902 55.203L61.026 55.1274C61.1249 54.9144 61.2246 54.6946 61.3273 54.4703L61.4915 54.5459C61.3888 54.7702 61.2878 54.9896 61.1902 55.203ZM61.7908 53.8866L61.6262 53.8123C61.7247 53.5963 61.8227 53.3774 61.9238 53.1539L62.0896 53.2287C61.9886 53.4522 61.8901 53.6723 61.7921 53.8871L61.7908 53.8866ZM62.3839 52.5677L62.2176 52.4942C62.3135 52.2774 62.412 52.0573 62.5101 51.8341L62.6764 51.9076C62.5783 52.1307 62.4798 52.3509 62.3834 52.569L62.3839 52.5677ZM62.9681 51.2459L62.8014 51.1736C62.8965 50.9552 62.9937 50.7346 63.0905 50.511L63.2572 50.5833C63.1604 50.8068 63.0645 51.0278 62.9681 51.2459ZM63.5443 49.9186L63.3772 49.8476C63.4714 49.6274 63.5661 49.406 63.6613 49.1833L63.8284 49.2543C63.7333 49.477 63.6382 49.6997 63.5443 49.9186ZM64.1104 48.5879L63.9429 48.5182C64.0359 48.2976 64.1281 48.0753 64.2219 47.8522L64.3895 47.922C64.2969 48.1455 64.2034 48.3673 64.11 48.5892L64.1104 48.5879ZM64.6652 47.2535L64.4972 47.185C64.5881 46.9623 64.6803 46.7401 64.7699 46.5169L64.9379 46.5854C64.8466 46.8094 64.7557 47.032 64.6647 47.2547L64.6652 47.2535ZM65.2111 45.9119L65.0427 45.8447C65.1323 45.6216 65.2211 45.3968 65.3099 45.172L65.4788 45.238C65.3899 45.4627 65.3011 45.6875 65.2115 45.9106L65.2111 45.9119ZM65.7418 44.5653L65.573 44.4993C65.6601 44.2754 65.7477 44.0502 65.8331 43.8271L66.0024 43.8917C65.9165 44.1161 65.8289 44.3413 65.7418 44.5653ZM66.2574 43.2178L66.0878 43.1544C66.1728 42.9283 66.2561 42.7031 66.3395 42.4779L66.5095 42.5401C66.4262 42.7653 66.3424 42.9918 66.2574 43.2178ZM66.7583 41.8598L66.5878 41.7989C66.6703 41.572 66.7515 41.3447 66.8306 41.1195L67.0016 41.1792C66.922 41.4056 66.8408 41.633 66.7583 41.8598ZM67.2398 40.4968L67.068 40.4397C67.1476 40.209 67.225 39.9805 67.3004 39.754L67.4721 39.8111C67.3963 40.0389 67.3189 40.2674 67.2398 40.4968ZM67.5255 39.0687C67.5996 38.8376 67.6728 38.609 67.7431 38.3809L67.9161 38.4343C67.8459 38.6624 67.7722 38.8922 67.6981 39.1233L67.5264 39.0662L67.5255 39.0687ZM67.9527 37.6918C68.0222 37.4578 68.0891 37.2271 68.1535 36.9998L68.3278 37.0494C68.2629 37.278 68.1956 37.5099 68.1274 37.7443L67.9536 37.6935L67.9527 37.6918ZM68.3429 36.304C68.4048 36.0675 68.4641 35.8343 68.5205 35.6057L68.6969 35.649C68.6413 35.8793 68.5807 36.112 68.5184 36.3498L68.3429 36.304ZM68.6826 34.9036C68.7352 34.6612 68.7844 34.4246 68.8273 34.1986L69.0054 34.2326C68.962 34.46 68.9132 34.6995 68.8589 34.9427L68.6826 34.9036ZM68.9507 33.4906C68.989 33.2448 69.021 33.0053 69.0458 32.7788L69.2259 32.7982C69.2015 33.0276 69.1686 33.2696 69.1295 33.5179L68.9511 33.4893L68.9507 33.4906ZM69.1022 32.0653L69.1063 31.9688C69.1135 31.7616 69.1169 31.5532 69.1166 31.3476L69.2975 31.3477C69.297 31.5558 69.294 31.7672 69.2864 31.9756L69.2832 32.0738L69.1022 32.0653ZM69.1015 30.6299C69.091 30.3916 69.0758 30.1504 69.0552 29.913L69.2357 29.8976C69.2567 30.138 69.2727 30.3808 69.2824 30.6216L69.1019 30.6286L69.1015 30.6299ZM68.9787 29.1986C68.9493 28.9625 68.9127 28.7225 68.8732 28.4872L69.0515 28.4571C69.0915 28.6953 69.1276 28.9365 69.1592 29.1748L68.9791 29.1974L68.9787 29.1986ZM68.739 27.7816C68.6903 27.5487 68.6352 27.3138 68.5763 27.0818L68.7521 27.0383C68.8114 27.2732 68.8669 27.5111 68.9165 27.7456L68.7386 27.7828L68.739 27.7816ZM68.3854 26.3867C68.3181 26.1589 68.2449 25.9277 68.1675 25.7007L68.3395 25.6433C68.4173 25.8732 68.4913 26.1061 68.5595 26.3356L68.3854 26.3867ZM67.9245 25.0232C67.8391 24.7991 67.7495 24.5751 67.6575 24.3544L67.8239 24.284C67.9173 24.5051 68.0086 24.7325 68.0948 24.9582L67.9249 25.0219L67.9245 25.0232ZM67.3656 23.6969C67.2668 23.4838 67.1613 23.2656 67.0511 23.0487L67.2129 22.967C67.324 23.1856 67.4303 23.4054 67.53 23.6203L67.3661 23.6957L67.3656 23.6969ZM66.7134 22.4109C66.5991 22.2024 66.4784 21.9918 66.3548 21.7858L66.5103 21.6936C66.6343 21.9025 66.7559 22.1148 66.8715 22.3238L66.7122 22.4105L66.7134 22.4109ZM65.9755 21.1719C65.846 20.9709 65.7115 20.7682 65.5748 20.5718L65.724 20.4691C65.8611 20.6685 65.9969 20.8716 66.1272 21.0742L65.9743 21.1715L65.9755 21.1719ZM65.1557 19.9852C65.0106 19.7888 64.8613 19.5966 64.7146 19.4137L64.8558 19.3013C65.0033 19.486 65.1534 19.6798 65.3006 19.8783L65.1557 19.9852ZM64.2538 18.8593C63.9558 18.5156 63.7674 18.3314 63.7653 18.3293L63.8922 18.201C63.8993 18.209 64.0856 18.3911 64.39 18.7411L64.2538 18.8593Z" fill="#BA2A04"/>
<path d="M58.8159 27.9793C58.1365 27.7532 57.7667 27.0182 57.9919 26.3413C58.2171 25.6644 58.9535 25.2973 59.6329 25.5233C60.3123 25.7493 60.6821 26.4844 60.4569 27.1613C60.2317 27.8382 59.4953 28.2053 58.8159 27.9793ZM59.3479 26.3801C59.142 26.3117 58.9201 26.4223 58.8519 26.6274C58.7836 26.8324 58.8951 27.054 59.1009 27.1225C59.3068 27.1909 59.5287 27.0803 59.5969 26.8752C59.6652 26.6702 59.5537 26.4486 59.3479 26.3801Z" fill="#BA2A04"/>
<path d="M77.778 33.7021C77.5747 33.6345 77.3901 33.4851 77.2492 33.2677C77.0873 33.0168 76.9891 32.6879 76.9755 32.341C76.9606 31.9936 77.0298 31.6589 77.1708 31.3956C77.3477 31.066 77.6276 30.8698 77.9389 30.8574C78.2502 30.845 78.5462 31.0175 78.75 31.3327C78.912 31.5836 79.0101 31.9125 79.0238 32.2594C79.0387 32.6067 78.9694 32.9414 78.8285 33.2048C78.6515 33.5344 78.3716 33.7305 78.0603 33.743C77.9636 33.7471 77.8689 33.7324 77.778 33.7021ZM77.9732 31.7073C77.9114 31.7664 77.8024 31.9802 77.8156 32.3074C77.8287 32.6346 77.9553 32.8402 78.0219 32.8931C78.0832 32.8353 78.1926 32.6201 78.1795 32.2929C78.1663 31.9657 78.0397 31.7601 77.9732 31.7073Z" fill="#BA2A04"/>
<path d="M39.6205 18.1506C39.5283 18.12 39.4395 18.075 39.3569 18.0154C38.8498 17.6469 38.8039 16.8784 39.2505 16.2654C39.697 15.6523 40.4456 15.4598 40.9519 15.8266C41.4591 16.1952 41.505 16.9637 41.0584 17.5767C40.684 18.0908 40.0979 18.3094 39.6193 18.1502L39.6205 18.1506ZM39.9851 16.7976C39.8121 17.0349 39.8403 17.2497 39.89 17.2858C39.9401 17.3207 40.1533 17.2826 40.3263 17.0453C40.4916 16.818 40.4736 16.594 40.4214 16.5571C40.3717 16.521 40.1563 16.5611 39.9851 16.7976Z" fill="#BA2A04"/>
<path d="M80.5471 60.1418L80.4471 59.9912C80.5459 59.9262 80.6442 59.8583 80.743 59.7892L80.8484 59.936C80.7488 60.0077 80.6475 60.076 80.5483 60.1423L80.5471 60.1418Z" fill="#0E2052"/>
<path d="M36.5868 31.0995C35.256 30.4392 33.6443 31.0436 33.0758 32.4162C32.5716 33.6338 33.0717 35.0354 34.2328 35.6588L40.9041 39.2402C42.2475 39.9614 43.9211 39.4218 44.5903 38.0517C45.2388 36.7239 44.6936 35.1215 43.3698 34.4647L36.5868 31.0995Z" fill="#FFAB0B"/>
<path d="M36.218 31.9104C35.3476 31.4785 34.2932 31.8731 33.9203 32.7705C33.589 33.5678 33.9161 34.4865 34.6768 34.8949L41.0586 38.3214C41.9461 38.7979 43.0518 38.4515 43.5087 37.5538C43.9619 36.6635 43.6014 35.5745 42.7065 35.1304L36.218 31.9104Z" fill="#FDBA36"/>
<path d="M60.2007 60.0639L60.039 59.9808C60.1409 59.7841 70.2703 40.2306 70.5566 32.1985C70.843 24.1915 63.9569 18.8095 63.8874 18.757L63.9982 18.6136C64.0686 18.6678 71.0284 24.1064 70.7379 32.2057C70.4492 40.279 60.3022 59.8685 60.199 60.0648L60.2007 60.0639Z" fill="#BA2A04"/>
<path d="M61.8308 59.273L61.6682 59.1923C61.7668 58.9973 61.8754 58.7805 61.9915 58.5453L62.154 58.6259C62.0366 58.8607 61.928 59.0775 61.8308 59.273ZM62.4765 57.9771L62.3135 57.8978C62.4158 57.6915 62.5215 57.4751 62.6317 57.249L62.7947 57.3284C62.684 57.5557 62.5771 57.7717 62.476 57.9784L62.4765 57.9771ZM63.112 56.678L62.9491 56.5986C63.0514 56.3881 63.1558 56.1713 63.2627 55.9469L63.426 56.025C63.3179 56.249 63.2135 56.4658 63.1112 56.6763L63.112 56.678ZM63.7384 55.3729L63.575 55.2948C63.6769 55.0814 63.78 54.8641 63.8848 54.6419L64.0486 54.7187C63.9438 54.941 63.8402 55.1595 63.7388 55.3717L63.7384 55.3729ZM64.3558 54.0649L64.1921 53.9881C64.2931 53.773 64.3937 53.5549 64.4968 53.3335L64.661 53.4091C64.5579 53.6305 64.4556 53.8494 64.3558 54.0649ZM64.9645 52.754L64.8003 52.6784C64.9005 52.4616 64.9998 52.2431 65.1004 52.0209L65.265 52.0952C65.1644 52.3175 65.0634 52.5368 64.9649 52.7528L64.9645 52.754ZM65.5639 51.4372L65.3992 51.3629C65.4969 51.1452 65.5954 50.9251 65.6943 50.7036L65.8606 50.7771C65.7617 50.9986 65.6632 51.2187 65.5651 51.4376L65.5639 51.4372ZM66.1519 50.1166L65.9856 50.0431C66.0824 49.8238 66.1796 49.6032 66.2756 49.3822L66.4423 49.4544C66.3459 49.6767 66.2487 49.8973 66.1519 50.1166ZM66.7289 48.791L66.5622 48.7188C66.6565 48.4986 66.7512 48.2772 66.8463 48.0545L67.0135 48.1255C66.9183 48.3482 66.8236 48.5696 66.7294 48.7898L66.7289 48.791ZM67.2951 47.4603L67.1275 47.3906C67.2209 47.1688 67.3131 46.9465 67.4053 46.7242L67.5728 46.794C67.4803 47.0175 67.3881 47.2398 67.2946 47.4616L67.2951 47.4603ZM67.8473 46.1209L67.6793 46.0524C67.7702 45.8297 67.8603 45.6054 67.9499 45.3822L68.1183 45.4494C68.0283 45.6738 67.9386 45.8969 67.8473 46.1209ZM68.3852 44.778L68.2164 44.7121C68.3047 44.4886 68.3919 44.2646 68.4777 44.0402L68.647 44.1049C68.5611 44.3293 68.474 44.5532 68.3852 44.778ZM68.9041 43.4289L68.7345 43.3654C68.8195 43.1394 68.9041 42.9146 68.9862 42.689L69.1563 42.7512C69.0729 42.9764 68.9892 43.2028 68.9029 43.4285L68.9041 43.4289ZM69.4046 42.0722L69.2341 42.0113C69.3153 41.784 69.3966 41.5566 69.4757 41.3314L69.6466 41.3911C69.567 41.6176 69.4871 41.8453 69.4046 42.0722ZM69.8814 40.7062L69.7097 40.6491C69.749 40.5308 69.788 40.4138 69.8269 40.2968C69.8658 40.1798 69.901 40.0741 69.9378 39.9634L70.1096 40.0205C70.0732 40.13 70.0359 40.242 69.9986 40.3539C69.9614 40.4659 69.9208 40.588 69.8814 40.7062ZM70.1579 39.2764C70.2308 39.0449 70.3015 38.8155 70.3692 38.5865L70.5427 38.6386C70.4736 38.8672 70.4038 39.0983 70.3309 39.3298L70.1584 39.2752L70.1579 39.2764ZM70.5708 37.8962C70.6378 37.6613 70.7005 37.4306 70.7615 37.2008L70.9366 37.2479C70.8756 37.4777 70.812 37.7109 70.7451 37.9458L70.5708 37.8962ZM70.9391 36.5025C70.9972 36.2647 71.0511 36.0311 71.1024 35.8008L71.2788 35.8399C71.2283 36.0719 71.1727 36.3063 71.1142 36.5454L70.9379 36.5021L70.9391 36.5025ZM71.2481 35.0974C71.2948 34.8559 71.336 34.618 71.3726 34.3899L71.5511 34.4185C71.5149 34.6496 71.4728 34.8899 71.4257 35.1328L71.2476 35.0987L71.2481 35.0974ZM71.4724 33.6768C71.501 33.4306 71.5233 33.1907 71.5377 32.9621L71.719 32.9735C71.7038 33.2046 71.6819 33.4475 71.6521 33.6975L71.4728 33.6756L71.4724 33.6768ZM71.5613 32.2461C71.5621 32.0074 71.5579 31.7671 71.5474 31.5288L71.7283 31.5205C71.7392 31.7617 71.7451 32.0054 71.7434 32.2466L71.5629 32.2453L71.5613 32.2461ZM71.4949 30.814C71.4713 30.577 71.4415 30.3379 71.4062 30.1026L71.5849 30.0754C71.6207 30.3137 71.6505 30.557 71.6745 30.7969L71.4949 30.814ZM71.2809 29.3957C71.2342 29.165 71.1795 28.9288 71.1211 28.6955L71.2968 28.652C71.3574 28.8873 71.4112 29.126 71.4596 29.3601L71.2821 29.3961L71.2809 29.3957ZM70.9272 28.005C70.8578 27.7793 70.7813 27.5498 70.6997 27.3228L70.87 27.2621C70.9524 27.4907 71.0294 27.7232 71.0992 27.9518L70.9259 28.0046L70.9272 28.005ZM70.4419 26.6515C70.3511 26.4313 70.2548 26.2106 70.1535 25.9924L70.3174 25.917C70.4196 26.1368 70.5176 26.3609 70.6076 26.5837L70.4402 26.6524L70.4419 26.6515ZM69.8385 25.3454C69.7296 25.1331 69.614 24.92 69.4967 24.7119L69.6539 24.623C69.7733 24.8332 69.8893 25.0493 69.9991 25.2633L69.8385 25.3454ZM69.1279 24.0917C69.003 23.8895 68.8714 23.6864 68.7373 23.4866L68.8873 23.3856C69.0236 23.5875 69.1556 23.7935 69.2813 23.9974L69.1279 24.0917ZM68.3253 22.8954C68.1857 22.7036 68.0398 22.5098 67.8914 22.3192L68.0347 22.209C68.1839 22.4012 68.3319 22.5972 68.4723 22.7906L68.3253 22.8954ZM67.4373 21.7573C67.2839 21.5735 67.1245 21.3906 66.9639 21.2114L67.0992 21.0915C67.2611 21.2711 67.4212 21.4557 67.5755 21.6412L67.4361 21.7569L67.4373 21.7573ZM66.4721 20.683C66.3043 20.5084 66.1328 20.3368 65.9621 20.171L66.0881 20.041C66.2601 20.2072 66.4337 20.381 66.6023 20.5572L66.4712 20.6813L66.4721 20.683ZM65.4342 19.6795C65.0958 19.3769 64.8848 19.2145 64.8835 19.2141L64.9943 19.0707C65.0032 19.0778 65.2109 19.2377 65.5559 19.5454L65.4354 19.68L65.4342 19.6795Z" fill="#BA2A04"/>
<path d="M61.5313 18.0621C60.437 17.283 61.9869 15.3056 64.9387 16.5936C67.8905 17.8817 67.2941 19.2148 66.6496 19.7648C66.0048 20.3161 63.1463 19.2114 61.5313 18.0621Z" fill="#FFAB0B"/>
<path d="M62.6353 17.3328C61.8663 16.8911 62.745 16.0669 64.7624 16.875C66.7798 17.6831 66.4809 18.2698 66.098 18.4848C65.7151 18.6998 63.7706 17.9844 62.6353 17.3328Z" fill="#FDBA36"/>
</g>
<defs>
<clipPath id="clip0_1108_970">
<rect width="80.7398" height="53.8265" fill="white" transform="translate(17.6367 0.831055) rotate(18.4013)"/>
</clipPath>
</defs>
</svg>
