<svg width="60" height="74" viewBox="0 0 60 74" fill="none" xmlns="http://www.w3.org/2000/svg">
<path d="M56.9415 52.2275C56.9415 52.2275 43.3714 70.1826 16.544 72.213C16.4211 72.5871 14.0951 17.1287 14.0951 17.1287L56.9492 52.232L56.9415 52.2275Z" fill="#50439F"/>
<path d="M30.9551 50.1226C30.4137 48.1021 31.615 46.0215 33.6355 45.4801C35.656 44.9387 37.7366 46.1399 38.2779 48.1604C38.8193 50.1809 37.6181 52.2615 35.5976 52.8029C33.5771 53.3443 31.4965 52.1431 30.9551 50.1226Z" fill="#FFFCF5"/>
<path d="M18.5075 48.2201C18.1827 47.0078 18.8982 45.7595 20.1105 45.4347C21.3228 45.1098 22.5727 45.8315 22.8976 47.0438C23.2224 48.2561 22.5008 49.506 21.2885 49.8308C20.0762 50.1556 18.8324 49.4324 18.5075 48.2201Z" fill="#FFFCF5"/>
<path d="M48.1638 52.8802C47.839 51.6679 48.5545 50.4197 49.7668 50.0948C50.9791 49.77 52.229 50.4916 52.5538 51.7039C52.8786 52.9162 52.157 54.1661 50.9447 54.491C49.7324 54.8158 48.4903 54.0986 48.1638 52.8802Z" fill="#FFFCF5"/>
<path d="M20.5377 28.7786C21.0791 30.7991 19.8779 32.8797 17.8574 33.4211C16.7431 33.7196 15.6183 33.4895 14.7348 32.8862C14.6415 30.726 14.5534 28.6824 14.476 26.8263C14.8794 26.4951 15.3565 26.2426 15.8953 26.0983C17.9158 25.5569 19.9963 26.7581 20.5377 28.7786Z" fill="#FFFCF5"/>
<path d="M21.045 70.6099C20.5036 68.5894 21.7048 66.5088 23.7253 65.9674C25.7458 65.426 27.8264 66.6272 28.3678 68.6477C28.5007 69.1437 28.529 69.6414 28.468 70.1237C26.2703 70.7388 23.9464 71.2499 21.4974 71.6371C21.3031 71.3282 21.1512 70.9817 21.0527 70.6144L21.045 70.6099Z" fill="#FFFCF5"/>
<path d="M31.656 34.2397C30.3273 34.5957 28.9671 33.8052 28.6127 32.4827C28.3371 31.4541 28.7515 30.4046 29.5736 29.8234L33.2733 32.8548C32.9768 33.5117 32.4107 34.044 31.6576 34.2458L31.656 34.2397Z" fill="#FFFCF5"/>
<path d="M16.1212 64.4545C16.7353 64.7625 17.2243 65.3139 17.4162 66.0303C17.7066 67.114 17.2253 68.2077 16.3277 68.7763C16.2707 67.5841 16.2016 66.1261 16.1229 64.4606L16.1212 64.4545Z" fill="#FFFCF5"/>
<g style="mix-blend-mode:multiply">
<path d="M16.5358 72.2091C16.4187 72.5555 14.3808 24.1728 14.1139 17.8132C14.2718 17.6921 14.413 17.5821 14.5329 17.4909L19.0136 21.1596C18.4628 21.504 17.872 21.8461 17.2473 22.1841C13.3573 24.2961 17.702 35.4166 19.6423 47.2864C21.4472 58.3328 25.6645 68.8312 51.5342 47.797L56.9395 52.222C56.9395 52.222 43.3694 70.1771 16.542 72.2075L16.5358 72.2091Z" fill="#CDD0D1"/>
</g>
<path d="M7.16227 17.5104C8.73885 20.6513 12.5626 21.917 15.7035 20.3404C18.8444 18.7638 20.1101 14.9401 18.5335 11.7992C16.9586 8.66439 13.1332 7.39258 9.99228 8.96916C6.85138 10.5457 5.58568 14.3695 7.16062 17.5043L7.16227 17.5104Z" fill="#FFAB0B"/>
<g style="mix-blend-mode:multiply">
<path d="M7.45405 11.2966C7.45405 11.2966 7.45897 11.315 7.46061 11.3211C9.0372 14.462 12.861 15.7277 16.0019 14.1511C17.0889 13.6039 17.9454 12.7838 18.5412 11.8235C20.0962 14.9571 18.8333 18.767 15.703 20.3341C12.5621 21.9107 8.74448 20.6434 7.16177 17.5041C6.13241 15.4503 6.3207 13.1162 7.44792 11.2982L7.45405 11.2966Z" fill="#CDD0D1"/>
</g>
</svg>
