<svg width="191" height="182" viewBox="0 0 191 182" fill="none" xmlns="http://www.w3.org/2000/svg">
<path d="M14.5589 45.7974C19.7549 37.406 24.0977 33.598 31.3 26.8199C37.402 21.0773 40.914 17.8086 48.0412 13.3775C54.7665 9.19626 58.8022 7.03228 66.3768 4.67952C75.6632 1.79504 81.3599 1.65686 91.0899 1.51661C102.056 1.35854 108.285 2.32221 118.992 4.67952C129.564 7.0072 135.763 8.28754 145.299 13.3775C154.292 18.1774 159.089 21.7589 166.027 29.1921C173.537 37.2389 176.671 42.8986 181.173 52.9139C185.144 61.7475 186.743 67.0958 188.348 76.6357C190.449 89.1237 190.65 96.6023 188.348 109.056C186.697 117.989 185.18 123.03 181.173 131.196C176.105 141.526 172.112 147.09 163.635 154.918C155.037 162.858 148.843 165.961 138.125 170.732C126.615 175.856 119.554 177.891 107.034 179.43C96.8382 180.684 90.8744 181.02 80.7263 179.43C70.0294 177.755 64.1137 175.519 54.4188 170.732C44.6005 165.885 39.5904 162.039 31.3 154.918C24.1426 148.769 19.8447 145.314 14.5589 137.522C9.58213 130.185 7.64812 125.404 4.99249 116.963C2.08044 107.707 0.900706 102.146 1.0065 92.4503C1.10511 83.4128 2.52703 78.3308 4.95274 69.6612L4.99249 69.5192C7.68244 59.905 9.29429 54.2994 14.5589 45.7974Z" stroke="#50439F" stroke-width="2"/>
</svg>
