<svg width="56" height="62" viewBox="0 0 56 62" fill="none" xmlns="http://www.w3.org/2000/svg">
<path d="M27.8537 29.3675C27.8537 29.3675 29.5027 18.7949 18.3579 9.77019C13.9057 6.16804 2.2827 22.9003 4.09302 24.3706C5.90335 25.841 11.7658 34.0749 24.9605 32.4905C26.3362 30.7913 27.8466 29.3711 27.8466 29.3711L27.8537 29.3675Z" fill="#50439F"/>
<path d="M20.2945 11.4704L8.1087 16.1431C6.55892 18.1461 5.26193 20.2065 4.53813 21.7844L23.1508 14.6437C22.3396 13.5878 21.4004 12.5264 20.2945 11.4704Z" fill="#FFF8FC"/>
<path d="M7.59807 27.6564C8.69169 28.5669 10.0415 29.5242 11.6776 30.3609L27.5894 24.253C27.3629 23.1015 27.0069 21.8025 26.4653 20.4204L7.60877 27.6598L7.59807 27.6564Z" fill="#FFF8FC"/>
<mask id="mask0_1108_920" style="mask-type:luminance" maskUnits="userSpaceOnUse" x="3" y="9" width="25" height="24">
<path d="M27.8537 29.3675C27.8537 29.3675 29.5027 18.7949 18.3579 9.77019C13.9057 6.16804 2.2827 22.9003 4.09302 24.3706C5.90335 25.841 11.7658 34.0749 24.9605 32.4905C26.3362 30.7913 27.8466 29.3711 27.8466 29.3711L27.8537 29.3675Z" fill="white"/>
</mask>
<g mask="url(#mask0_1108_920)">
<g style="mix-blend-mode:multiply">
<path d="M25.6701 35.205C27.0459 33.5059 27.8606 29.3631 27.8606 29.3631C27.8606 29.3631 28.3993 25.916 26.783 21.283C23.7549 27.7703 15.9965 29.9414 4.95158 19.4276C3.65628 21.0228 -0.336317 28.2386 -0.336317 28.2386C-0.336317 28.2386 12.4791 36.7965 25.6738 35.2121L25.6701 35.205Z" fill="#CDD0D1"/>
</g>
</g>
<path d="M29.7781 30.9206C29.7781 30.9206 39.7793 27.1042 50.9242 36.129C55.3763 39.7312 41.4162 54.5766 39.6095 53.1133C37.7992 51.643 28.5271 47.6282 27.3328 34.3935C28.7086 32.6943 29.7781 30.9206 29.7781 30.9206Z" fill="#50439F"/>
<path d="M28.0752 38.7339C28.4357 40.111 28.8834 41.3629 29.4008 42.4896L49.2437 34.8765C47.7328 33.8146 46.2564 32.9582 44.8283 32.3001L28.0752 38.7339Z" fill="#FFF8FC"/>
<path d="M50.9736 41.2557L33.167 48.0887C34.3355 49.3357 35.5185 50.2985 36.5607 51.0569L47.2687 46.9483C48.7812 45.0984 50.1462 43.0834 50.9736 41.2557Z" fill="#FFF8FC"/>
<mask id="mask1_1108_920" style="mask-type:luminance" maskUnits="userSpaceOnUse" x="27" y="30" width="25" height="24">
<path d="M29.7781 30.9206C29.7781 30.9206 39.7793 27.1042 50.9242 36.129C55.3763 39.7312 41.4162 54.5766 39.6095 53.1133C37.7992 51.643 28.5271 47.6282 27.3328 34.3935C28.7086 32.6943 29.7781 30.9206 29.7781 30.9206Z" fill="white"/>
</mask>
<g mask="url(#mask1_1108_920)">
<g style="mix-blend-mode:multiply">
<path d="M24.5151 34.281C25.8909 32.5819 29.7742 30.9317 29.7742 30.9317C29.7742 30.9317 33.0373 29.69 37.9056 30.301C32.1925 34.6072 31.6824 42.656 44.2606 51.2735C42.9653 52.8687 36.7395 58.2782 36.7395 58.2782C36.7395 58.2782 25.7024 47.5193 24.5151 34.281Z" fill="#CDD0D1"/>
</g>
</g>
<path d="M33.1164 35.2224C30.7954 38.0866 26.5926 38.526 23.7214 36.2087C20.8572 33.8877 20.4177 29.685 22.7387 26.8208C25.0597 23.9566 29.2624 23.5171 32.1337 25.8345C34.9979 28.1554 35.4373 32.3582 33.12 35.2294L33.1164 35.2224Z" fill="#50439F"/>
<path opacity="0.5" d="M30.3517 29.7254C29.3784 30.9227 27.6265 31.11 26.4291 30.1367C25.2318 29.1635 25.0445 27.4115 26.0178 26.2142C26.991 25.0168 28.743 24.8296 29.9403 25.8028C31.1376 26.7761 31.3249 28.528 30.3517 29.7254Z" fill="#FFFCF5"/>
</svg>
