<svg width="180" height="173" viewBox="0 0 180 173" fill="none" xmlns="http://www.w3.org/2000/svg">
<path d="M132.455 13.2435C124.336 8.77742 119.496 6.60402 110.605 3.98456C102.287 1.53361 97.427 0.181825 88.7558 0.0164558C79.0655 -0.16835 73.5422 1.20654 64.2577 3.98456C55.6061 6.57324 50.7729 8.53352 43.0702 13.2435C36.0098 17.5606 32.305 20.5584 26.5174 26.4705C18.5941 34.5641 14.9024 40.0902 9.96458 50.2791C4.7957 60.9449 2.53893 67.5879 1.35715 79.3786C0.0884399 92.0364 -0.157135 96.2469 3.34352 108.478C6.39633 119.144 9.37373 129.141 16.5857 137.577C22.0933 144.02 26.3073 148.428 33.1385 153.45C40.7646 159.056 45.1488 160.556 53.6639 164.693C62.8628 169.161 68.6924 170.562 78.8242 171.968C88.5564 173.318 94.2595 173.37 103.984 171.968C113.863 170.544 119.333 168.678 128.482 164.693C138.157 160.479 143.38 157.346 151.656 150.805C157.536 146.157 161.21 143.678 165.561 137.577C171.777 128.861 174.041 122.121 176.817 111.785C179.339 102.391 179.621 97.0392 179.465 87.3148C179.321 78.3505 177.487 73.3925 174.83 64.8289C172.086 55.9855 170.46 50.8634 165.561 43.0043C161.098 35.8461 151.656 26.4705 151.656 26.4705C151.656 26.4705 140.434 17.6324 132.455 13.2435Z" fill="#7263B1"/>
</svg>
