<svg width="56" height="44" viewBox="0 0 56 44" fill="none" xmlns="http://www.w3.org/2000/svg">
<path d="M26.4201 21.3853C26.4201 21.3853 18.669 14.0084 4.90357 18.029C-0.592959 19.6369 6.54049 38.7203 8.78012 38.0697C11.0197 37.4191 21.1267 37.29 27.3392 25.5421C26.7262 23.4435 26.419 21.3932 26.419 21.3932L26.4201 21.3853Z" fill="#E93405"/>
<path d="M7.40406 17.4052L4.30451 30.0828C5.06823 32.4974 6.02313 34.737 6.9079 36.2306L11.6392 16.8648C10.3093 16.9302 8.90193 17.0976 7.40406 17.4052Z" fill="#FFF8FC"/>
<path d="M13.4763 37.0615C14.8476 36.6811 16.4032 36.1168 18.0228 35.2486L22.0647 18.691C20.9893 18.2213 19.7188 17.7741 18.2743 17.4321L13.4852 37.0546L13.4763 37.0615Z" fill="#FFF8FC"/>
<mask id="mask0_1108_1017" style="mask-type:luminance" maskUnits="userSpaceOnUse" x="2" y="16" width="26" height="23">
<path d="M26.4201 21.3853C26.4201 21.3853 18.669 14.0084 4.90357 18.029C-0.592959 19.6369 6.54049 38.7203 8.78012 38.0697C11.0197 37.4191 21.1267 37.29 27.3392 25.5421C26.7262 23.4435 26.419 21.3932 26.419 21.3932L26.4201 21.3853Z" fill="white"/>
</mask>
<g mask="url(#mask0_1108_1017)">
<g style="mix-blend-mode:multiply">
<path d="M29.9747 26.5051C29.3616 24.4066 26.4204 21.3774 26.4204 21.3774C26.4204 21.3774 23.8939 18.9713 19.1652 17.6612C22.7729 23.845 20.1387 31.4586 5.20619 34.5491C5.77968 36.5223 9.4368 43.9138 9.4368 43.9138C9.4368 43.9138 23.77 38.2541 29.9826 26.5062L29.9747 26.5051Z" fill="#CDD0D1"/>
</g>
</g>
<path d="M28.7924 20.688C28.7924 20.688 31.3517 10.2938 45.1171 6.27315C50.6136 4.66523 54.8651 24.5951 52.6334 25.2467C50.3938 25.8973 41.8129 31.2319 30.2543 24.6759C29.6412 22.5773 28.7924 20.688 28.7924 20.688Z" fill="#E93405"/>
<path d="M34.2451 26.5379C35.5824 27.0259 36.8663 27.3708 38.0871 27.5873L43.1308 6.94121C41.3975 7.57826 39.8526 8.30414 38.4984 9.10312L34.2451 26.5379Z" fill="#FFF8FC"/>
<path d="M49.3593 9.15284L44.8342 27.681C46.5247 27.4307 47.9898 27.0066 49.2067 26.582L51.9283 15.4403C51.2692 13.1435 50.3903 10.8739 49.3593 9.15284Z" fill="#FFF8FC"/>
<mask id="mask1_1108_1017" style="mask-type:luminance" maskUnits="userSpaceOnUse" x="28" y="6" width="26" height="22">
<path d="M28.7924 20.688C28.7924 20.688 31.3517 10.2938 45.1171 6.27315C50.6136 4.66523 54.8651 24.5951 52.6334 25.2467C50.3938 25.8973 41.8129 31.2319 30.2543 24.6759C29.6412 22.5773 28.7924 20.688 28.7924 20.688Z" fill="white"/>
</mask>
<g mask="url(#mask1_1108_1017)">
<g style="mix-blend-mode:multiply">
<path d="M28.5569 26.9273C27.9438 24.8287 28.7991 20.6969 28.7991 20.6969C28.7991 20.6969 29.6369 17.3076 32.9119 13.654C33.1976 20.8025 39.5229 25.8059 53.7699 20.3752C54.3434 22.3484 55.2439 30.5467 55.2439 30.5467C55.2439 30.5467 40.1144 33.4912 28.5569 26.9273Z" fill="#CDD0D1"/>
</g>
</g>
<path d="M34.2294 20.3943C35.2618 23.9334 33.2294 27.6382 29.6893 28.6784C26.1503 29.7107 22.4455 27.6783 21.4131 24.1393C20.3808 20.6003 22.4132 16.8955 25.9532 15.8552C29.4923 14.8229 33.1971 16.8553 34.2373 20.3954L34.2294 20.3943Z" fill="#E93405"/>
<path opacity="0.5" d="M28.1362 19.5365C28.566 21.0184 27.7221 22.5651 26.2402 22.995C24.7583 23.4249 23.2116 22.5809 22.7818 21.099C22.3519 19.6171 23.1958 18.0704 24.6777 17.6406C26.1596 17.2107 27.7063 18.0546 28.1362 19.5365Z" fill="#FFFCF5"/>
</svg>
