<svg width="181" height="179" viewBox="0 0 181 179" fill="none" xmlns="http://www.w3.org/2000/svg">
<path d="M0.839584 102.467C1.84334 111.129 3.18922 115.971 6.29232 124.128C9.02703 131.317 10.7046 135.441 15.153 141.728C19.4827 147.848 22.8142 150.747 28.3646 155.578L28.7849 155.943C34.9511 161.312 38.5685 164.335 45.8247 168.128C53.6591 172.223 58.7061 173.433 67.1908 175.468L67.6357 175.574C77.8091 178.014 83.7559 179.247 94.2178 178.959C105.333 178.653 111.744 177.4 122.163 173.543C131.878 169.948 137.11 166.947 145.337 160.682C152.805 154.994 156.731 151.236 162.377 143.759C168.024 136.282 170.621 131.511 173.964 122.774C177.451 113.661 178.389 108.1 179.417 98.405C180.364 89.4663 180.68 84.2897 179.417 75.3896C178.1 66.1126 176.4 60.9495 172.601 52.3743C169.383 45.1113 167.225 41.0817 162.377 34.7743C157.352 28.2365 153.847 25.0221 147.382 19.882C140.752 14.6108 136.658 11.9768 128.979 8.3743C121.368 4.80378 116.842 2.93081 108.531 1.60507C100.384 0.305431 95.6338 -0.363969 87.402 0.203002C78.2765 0.83153 73.028 2.51076 64.2277 4.98968C56.7618 7.09272 52.6715 8.80787 45.8247 12.4358C38.7248 16.1979 34.7583 18.5882 28.7849 23.9435C22.6122 29.4775 19.7211 33.2886 15.153 40.1897C11.0329 46.4141 8.97143 50.1552 6.29232 57.1127C2.60016 66.7012 1.75478 72.6104 0.839584 82.8358C0.156129 90.472 -0.0429103 94.8505 0.839584 102.467Z" fill="#E93405"/>
</svg>
