<svg width="182" height="175" viewBox="0 0 182 175" fill="none" xmlns="http://www.w3.org/2000/svg">
<path d="M133.455 14.2435C125.336 9.77742 120.496 7.60402 111.605 4.98456C103.287 2.53361 98.427 1.18182 89.7558 1.01646C80.0655 0.83165 74.5422 2.20654 65.2577 4.98456C56.6061 7.57324 51.7729 9.53352 44.0702 14.2435C37.0098 18.5606 33.305 21.5584 27.5174 27.4705C19.5941 35.5641 15.9024 41.0902 10.9646 51.2791C5.7957 61.9449 3.53893 68.5879 2.35715 80.3786C1.08844 93.0364 0.842865 97.2469 4.34352 109.478C7.39633 120.144 10.3737 130.141 17.5857 138.577C23.0933 145.02 27.3073 149.428 34.1385 154.45C41.7646 160.056 46.1488 161.556 54.6639 165.693C63.8628 170.161 69.6924 171.562 79.8242 172.968C89.5564 174.318 95.2595 174.37 104.984 172.968C114.863 171.544 120.333 169.678 129.482 165.693C139.157 161.479 144.38 158.346 152.656 151.805C158.536 147.157 162.21 144.678 166.561 138.577C172.777 129.861 175.041 123.121 177.817 112.785C180.339 103.391 180.621 98.0392 180.465 88.3148C180.321 79.3505 178.487 74.3925 175.83 65.8289C173.086 56.9855 171.46 51.8634 166.561 44.0043C162.098 36.8461 152.656 27.4705 152.656 27.4705C152.656 27.4705 141.434 18.6324 133.455 14.2435Z" stroke="#E93405" stroke-width="2"/>
</svg>
