<svg width="61" height="74" viewBox="0 0 61 74" fill="none" xmlns="http://www.w3.org/2000/svg">
<path d="M3.32609 52.2275C3.32609 52.2275 16.8961 70.1826 43.7236 72.213C43.8465 72.5871 46.1725 17.1287 46.1725 17.1287L3.31834 52.232L3.32609 52.2275Z" fill="#FFAB0B"/>
<path d="M29.3124 50.1226C29.8538 48.1021 28.6526 46.0215 26.6321 45.4801C24.6116 44.9387 22.531 46.1399 21.9896 48.1604C21.4482 50.1809 22.6495 52.2615 24.67 52.8029C26.6905 53.3443 28.7711 52.1431 29.3124 50.1226Z" fill="#FFFCF5"/>
<path d="M41.76 48.2201C42.0849 47.0078 41.3694 45.7595 40.157 45.4347C38.9447 45.1098 37.6949 45.8315 37.37 47.0438C37.0452 48.2561 37.7668 49.506 38.9791 49.8308C40.1914 50.1556 41.4352 49.4324 41.76 48.2201Z" fill="#FFFCF5"/>
<path d="M12.1038 52.8802C12.4286 51.6679 11.7131 50.4197 10.5008 50.0948C9.28849 49.77 8.0386 50.4916 7.71377 51.7039C7.38893 52.9162 8.11055 54.1661 9.32286 54.491C10.5352 54.8158 11.7773 54.0986 12.1038 52.8802Z" fill="#FFFCF5"/>
<path d="M39.7299 28.7786C39.1885 30.7991 40.3897 32.8797 42.4102 33.4211C43.5245 33.7196 44.6493 33.4895 45.5328 32.8862C45.626 30.726 45.7142 28.6824 45.7916 26.8263C45.3881 26.4951 44.9111 26.2426 44.3723 26.0983C42.3518 25.5569 40.2713 26.7581 39.7299 28.7786Z" fill="#FFFCF5"/>
<path d="M39.2226 70.6099C39.764 68.5894 38.5628 66.5088 36.5423 65.9674C34.5218 65.426 32.4412 66.6272 31.8998 68.6477C31.7669 69.1437 31.7385 69.6414 31.7996 70.1237C33.9973 70.7388 36.3212 71.2499 38.7702 71.6371C38.9645 71.3282 39.1164 70.9817 39.2148 70.6144L39.2226 70.6099Z" fill="#FFFCF5"/>
<path d="M28.6116 34.2397C29.9403 34.5957 31.3005 33.8052 31.6549 32.4827C31.9305 31.4541 31.5161 30.4046 30.694 29.8234L26.9943 32.8548C27.2908 33.5117 27.8569 34.044 28.61 34.2458L28.6116 34.2397Z" fill="#FFFCF5"/>
<path d="M44.1464 64.4545C43.5323 64.7625 43.0433 65.3139 42.8513 66.0303C42.561 67.114 43.0423 68.2077 43.9399 68.7763C43.9969 67.5841 44.066 66.1261 44.1447 64.4606L44.1464 64.4545Z" fill="#FFFCF5"/>
<g style="mix-blend-mode:multiply">
<path d="M43.7317 72.2091C43.8489 72.5555 45.8868 24.1728 46.1536 17.8132C45.9958 17.6921 45.8546 17.5821 45.7347 17.4909L41.254 21.1596C41.8048 21.504 42.3956 21.8461 43.0203 22.1841C46.9102 24.2961 42.5655 35.4166 40.6253 47.2864C38.8204 58.3328 34.603 68.8312 8.73336 47.797L3.3281 52.222C3.3281 52.222 16.8981 70.1771 43.7256 72.2075L43.7317 72.2091Z" fill="#CDD0D1"/>
</g>
<path d="M53.1053 17.5104C51.5287 20.6513 47.705 21.917 44.5641 20.3404C41.4232 18.7638 40.1575 14.9401 41.7341 11.7992C43.309 8.66439 47.1344 7.39258 50.2753 8.96916C53.4162 10.5457 54.6819 14.3695 53.107 17.5043L53.1053 17.5104Z" fill="#50439F"/>
<g style="mix-blend-mode:multiply">
<path d="M52.8135 11.2966C52.8135 11.2966 52.8086 11.315 52.807 11.3211C51.2304 14.462 47.4066 15.7277 44.2657 14.1511C43.1786 13.6039 42.3222 12.7838 41.7264 11.8235C40.1714 14.9571 41.4343 18.767 44.5646 20.3341C47.7055 21.9107 51.5231 20.6434 53.1058 17.5041C54.1352 15.4503 53.9469 13.1162 52.8197 11.2982L52.8135 11.2966Z" fill="#CDD0D1"/>
</g>
</svg>
