<svg width="187" height="181" viewBox="0 0 187 181" fill="none" xmlns="http://www.w3.org/2000/svg">
<path d="M13.4154 45.0448C18.5565 36.6066 22.8533 32.7773 29.9794 25.9613C36.0168 20.1866 39.4917 16.8997 46.5434 12.4439C53.1976 8.23926 57.1906 6.06319 64.685 3.69728C73.8731 0.796687 79.5095 0.65774 89.1366 0.516705C99.9867 0.357752 106.15 1.32681 116.743 3.69728C127.204 6.03797 133.337 7.32546 142.772 12.4439C151.67 17.2706 156.416 20.872 163.28 28.3468C170.711 36.4386 173.813 42.1299 178.267 52.2011C182.195 61.0841 183.777 66.4623 185.366 76.0555C187.445 88.6133 187.643 96.1336 185.366 108.656C183.732 117.64 182.231 122.708 178.267 130.92C173.252 141.308 169.301 146.903 160.914 154.775C152.407 162.76 146.278 165.88 135.674 170.678C124.286 175.83 117.299 177.877 104.912 179.424C94.824 180.685 88.9233 181.023 78.8827 179.424C68.2989 177.74 62.4458 175.491 52.8535 170.678C43.1392 165.803 38.1821 161.936 29.9794 154.775C22.8977 148.592 18.6452 145.117 13.4154 137.282C8.49132 129.904 6.57777 125.096 3.95024 116.608C1.06901 107.3 -0.0982431 101.708 0.0064301 91.9584C0.103995 82.8704 1.51087 77.76 3.91091 69.0421L3.95024 68.8992C6.61172 59.2312 8.20652 53.5943 13.4154 45.0448Z" fill="#FFAB0B"/>
</svg>
