<svg width="183" height="181" viewBox="0 0 183 181" fill="none" xmlns="http://www.w3.org/2000/svg">
<path d="M1.83958 103.088C2.84334 111.794 4.18922 116.66 7.29232 124.857C10.027 132.081 11.7046 136.225 16.153 142.544C20.4828 148.694 23.8142 151.608 29.3646 156.462L29.7849 156.83C35.9511 162.224 39.5685 165.263 46.8247 169.074C54.659 173.19 59.706 174.406 68.1906 176.45L68.6357 176.557C78.8091 179.009 84.7559 180.248 95.2178 179.959C106.333 179.651 112.744 178.392 123.163 174.516C132.878 170.903 138.11 167.888 146.337 161.591C153.805 155.876 157.731 152.099 163.377 144.585C169.024 137.071 171.621 132.276 174.964 123.496C178.451 114.338 179.389 108.75 180.417 99.0069C181.364 90.024 181.68 84.8219 180.417 75.8778C179.1 66.5549 177.4 61.3663 173.601 52.7487C170.383 45.4499 168.225 41.4004 163.377 35.0618C158.352 28.4917 154.847 25.2614 148.382 20.0959C141.752 14.7987 137.658 12.1517 129.979 8.53141C122.368 4.94326 117.842 3.06103 109.531 1.72874C101.384 0.422681 96.6336 1.15897 88.4018 1.72874C79.2764 2.36037 74.028 2.63891 65.2277 5.13007C57.7618 7.2435 53.6715 8.96712 46.8247 12.613C39.7248 16.3937 35.7583 18.7958 29.7849 24.1775C23.6122 29.7389 20.7211 33.5688 16.153 40.5039C12.0329 46.7591 9.97143 50.5187 7.29232 57.5106C3.60016 67.1464 2.75478 73.0849 1.83958 83.3607C1.15613 91.0347 0.95709 95.4348 1.83958 103.088Z" stroke="#FFAB0B" stroke-width="2"/>
</svg>
