<svg width="45" height="65" viewBox="0 0 45 65" fill="none" xmlns="http://www.w3.org/2000/svg">
<path d="M44.9898 54.0685C44.9898 54.0685 27.235 67.8996 0.796139 62.9174C0.580624 63.247 12.6876 9.07617 12.6876 9.07617L44.9961 54.0748L44.9898 54.0685Z" fill="#50439F"/>
<path d="M20.453 45.3147C20.453 43.223 22.1518 41.5242 24.2436 41.5242C26.3354 41.5242 28.0342 43.223 28.0342 45.3147C28.0342 47.4065 26.3354 49.1053 24.2436 49.1053C22.1518 49.1053 20.453 47.4065 20.453 45.3147Z" fill="#FFFCF5"/>
<path d="M8.92289 40.2563C8.92289 39.0012 9.9371 37.9807 11.1922 37.9807C12.4472 37.9807 13.4678 39.0012 13.4678 40.2563C13.4678 41.5114 12.4472 42.5319 11.1922 42.5319C9.9371 42.5319 8.92289 41.5114 8.92289 40.2563Z" fill="#FFFCF5"/>
<path d="M36.3633 52.4331C36.3633 51.178 37.3775 50.1575 38.6326 50.1575C39.8877 50.1575 40.9082 51.178 40.9082 52.4331C40.9082 53.6881 39.8877 54.7087 38.6326 54.7087C37.3775 54.7087 36.3633 53.6945 36.3633 52.4331Z" fill="#FFFCF5"/>
<path d="M15.915 22.0071C15.915 24.0989 14.2163 25.7977 12.1245 25.7977C10.9708 25.7977 9.94396 25.2842 9.2467 24.4729C9.71577 22.3621 10.1595 20.3654 10.5652 18.5525C11.0406 18.337 11.5667 18.2166 12.1245 18.2166C14.2163 18.2166 15.915 19.9153 15.915 22.0071Z" fill="#FFFCF5"/>
<path d="M5.57707 62.5432C5.57707 60.4515 7.27585 58.7527 9.36764 58.7527C11.4594 58.7527 13.1582 60.4515 13.1582 62.5432C13.1582 63.0567 13.0568 63.5448 12.873 63.9948C10.591 64.0202 8.21399 63.9124 5.74823 63.6525C5.64047 63.3039 5.58341 62.9299 5.58341 62.5496L5.57707 62.5432Z" fill="#FFFCF5"/>
<path d="M25.2395 30.1588C23.864 30.1588 22.7547 29.0431 22.7547 27.674C22.7547 26.6091 23.4266 25.7026 24.3711 25.354L27.1602 29.2396C26.7038 29.7975 26.0192 30.1651 25.2395 30.1651V30.1588Z" fill="#FFFCF5"/>
<path d="M2.41377 55.3235C2.92721 55.7799 3.25684 56.4391 3.25684 57.1807C3.25684 58.3027 2.50885 59.2345 1.49465 59.5514C1.7482 58.3851 2.0588 56.9589 2.41377 55.3298V55.3235Z" fill="#FFFCF5"/>
<g style="mix-blend-mode:multiply">
<path d="M0.800022 63.3721C0.597183 63.6764 11.1512 16.4148 12.5393 10.2028C12.7232 10.1268 12.888 10.057 13.0274 10L16.406 14.7033C15.7848 14.8935 15.1256 15.071 14.4346 15.2358C10.1306 16.269 11.4491 28.1351 10.2511 40.1026C9.13546 51.2398 10.4919 62.472 40.9242 48.8501L45 54.5232C45 54.5232 27.2452 68.3544 0.806366 63.3721H0.800022Z" fill="#CDD0D1"/>
</g>
<path d="M5.89279 7.65004C6.60273 11.092 9.96861 13.3042 13.4105 12.5942C16.8525 11.8843 19.0647 8.51844 18.3547 5.07651C17.6448 1.64092 14.2789 -0.577636 10.837 0.132302C7.39508 0.84224 5.18285 4.20811 5.89279 7.6437V7.65004Z" fill="#FFAB0B"/>
<g style="mix-blend-mode:multiply">
<path d="M7.78186 1.72339C7.78186 1.72339 7.78186 1.7424 7.78186 1.74874C8.49179 5.19067 11.8577 7.40289 15.2996 6.69295C16.4913 6.44574 17.5308 5.87526 18.3549 5.10193C19.0458 8.53119 16.8399 11.8844 13.4107 12.588C9.96872 13.2979 6.60918 11.0857 5.89291 7.64376C5.43018 5.39351 6.21618 3.18764 7.77551 1.72339H7.78186Z" fill="#CDD0D1"/>
</g>
</svg>
