<svg width="46" height="64" viewBox="0 0 46 64" fill="none" xmlns="http://www.w3.org/2000/svg">
<path d="M42.1445 63.8583C42.1445 63.8583 19.9053 66.4372 0.00538635 48.5361C-0.347717 48.7001 37.9388 8.91284 37.9388 8.91284L42.1445 63.852V63.8583Z" fill="#E93405"/>
<path d="M18.1339 39.9734L15.3974 42.628L11.6645 41.8776L13.3418 45.3015L11.4691 48.6244L15.246 48.0822L17.8249 50.8881L18.4807 47.13L21.9424 45.5474L18.5753 43.763L18.1339 39.9734Z" fill="#FFFCF5"/>
<path d="M38.6395 19.2349L38.7215 19.153L39.207 25.471L38.4819 24.6891L34.7113 25.2251L36.5777 21.9021L34.9004 18.4783L38.6395 19.2349Z" fill="#FFFCF5"/>
<path d="M28.8208 25.6223L27.5093 26.9023L25.7123 26.5366L26.5194 28.1823L25.6177 29.7776L27.4336 29.5191L28.6758 30.8684L28.9848 29.0651L30.6494 28.3021L29.0352 27.4446L28.8208 25.6223Z" fill="#FFFCF5"/>
<path d="M35.94 39.3364L34.6285 40.6101L32.8314 40.2507L33.6385 41.8901L32.7368 43.4854L34.5528 43.2332L35.795 44.5762L36.1102 42.7729L37.7686 42.0099L36.1544 41.1524L35.94 39.3364Z" fill="#FFFCF5"/>
<path d="M33.6392 54.7974L32.3277 56.0711L30.5306 55.7053L31.3377 57.3511L30.436 58.9463L32.252 58.6878L33.4942 60.0372L33.8094 58.2338L35.4678 57.4709L33.8536 56.6133L33.6392 54.7974Z" fill="#FFFCF5"/>
<g style="mix-blend-mode:multiply">
<path d="M0.00583267 48.5426C-0.322048 48.7003 33.0715 13.9826 37.46 9.41748C37.6555 9.44901 37.8321 9.47423 37.9834 9.49945L38.4248 15.2437C37.8005 15.0797 37.1448 14.8969 36.4701 14.6825C32.277 13.3332 27.2705 24.1028 20.0634 33.6555C13.3607 42.5462 8.70732 52.7925 41.609 56.9415L42.1387 63.8711C42.1387 63.8711 19.8994 66.45 -0.000473022 48.5489L0.00583267 48.5426Z" fill="#CDD0D1"/>
</g>
<path d="M32.9012 4.20275C31.7284 7.49418 33.4435 11.1135 36.7349 12.2863C40.0263 13.4591 43.6457 11.744 44.8185 8.45259C45.9913 5.16116 44.2762 1.54185 40.9848 0.369038C37.6933 -0.803771 34.074 0.911315 32.9012 4.20275Z" fill="#50439F"/>
<g style="mix-blend-mode:multiply">
<path d="M37.5671 0.14209C37.5671 0.14209 37.5608 0.154687 37.5608 0.167298C36.388 3.45873 38.1031 7.07805 41.3945 8.25085C42.5358 8.6544 43.7149 8.71116 44.8184 8.47786C43.6329 11.7504 40.0262 13.4591 36.7474 12.2863C33.456 11.1135 31.7409 7.49421 32.9137 4.20278C33.683 2.05263 35.4926 0.583469 37.5734 0.14209H37.5671Z" fill="#CDD0D1"/>
</g>
</svg>
