<svg width="73" height="48" viewBox="0 0 73 48" fill="none" xmlns="http://www.w3.org/2000/svg">
<g clip-path="url(#clip0_1629_19)">
<path d="M15.1949 29.5996C15.1949 29.5996 1.96176 36.0865 0.777308 38.0174C-0.407145 39.9483 -0.623147 41.7728 8.20921 43.7049C17.0404 45.6359 30.9346 49.0697 39.7669 47.6756C48.5981 46.2803 60.2302 38.6618 61.3078 37.4818C62.3855 36.3017 15.1961 29.5996 15.1961 29.5996H15.1949Z" fill="#50439F"/>
<path d="M14.9945 30.829C14.8865 30.5074 15.1025 12.5875 18.6558 7.7584C21.9244 3.31833 32.334 0.676762 42.2428 1.10599C42.2428 1.10599 56.6378 1.86157 63.4609 6.57832C68.7387 10.2262 72.2921 19.2399 72.1853 22.1381C72.0773 25.035 70.2199 32.2148 69.6003 33.8348C69.1695 34.9616 66.4766 36.1417 64.9694 36.7317C63.1927 37.427 59.4767 37.9662 59.4767 37.9662C59.4767 37.9662 38.1601 38.6556 26.1957 35.5517C15.8561 32.8687 14.9945 30.8302 14.9945 30.8302V30.829Z" fill="#E93405"/>
<path d="M61.3068 37.4826L60.4451 37.375C60.4451 37.375 50.9671 44.0274 42.8896 46.1735C34.8121 48.3197 26.6265 46.4952 12.9484 43.8134C0.791694 41.4296 0.204215 39.6382 0.224391 39.2693C-0.0711287 40.7509 1.30322 42.1958 8.20936 43.7058C17.0405 45.6367 30.9347 49.0705 39.7671 47.6764C48.5982 46.2811 60.2303 38.6627 61.308 37.4826H61.3068Z" fill="#FFAB0B"/>
<path d="M65.8399 8.6801C65.8874 9.82943 65.8209 10.9977 65.218 11.9566C64.3243 13.3791 62.4646 13.929 60.7852 13.7989C59.107 13.67 59.1426 12.9925 57.544 12.4663C57.1511 12.3374 56.6633 12.2357 56.3678 12.5242C56.1364 12.7512 56.1352 13.1166 56.1495 13.4394C56.4557 20.7244 56.2444 29.5939 54.2387 36.6247C54.1188 37.0469 54.0191 37.6061 53.8672 38.0969C58.2822 38.1406 59.4761 37.9632 59.4761 37.9632C59.4761 37.9632 63.1921 37.4241 64.9688 36.7288C66.476 36.1387 69.1689 34.9587 69.5998 33.8318C70.2193 32.2119 72.0767 25.0333 72.1847 22.1351C72.2749 19.6981 69.7754 12.9369 65.8387 8.67773L65.8399 8.6801Z" fill="#BA2A04"/>
<path d="M42.2425 1.10591C33.8006 0.740537 24.9956 2.60406 20.5533 5.90898C20.3859 6.2046 20.2542 6.51558 20.1854 6.84784C19.9076 8.18045 20.6921 9.53198 21.7187 10.4295C23.6521 12.1215 26.3272 12.6252 28.8622 13.0663C34.4783 14.0418 40.4908 14.9724 45.6902 12.6453C47.62 11.781 49.4098 10.4768 51.5057 10.1894C54.7505 9.74482 58.0487 11.8425 61.2139 10.9994C61.8714 10.8244 62.504 10.5181 62.9894 10.044C63.8226 9.23164 64.0813 8.14971 64.0232 6.99447C63.838 6.85021 63.6517 6.7095 63.4618 6.57943C56.6363 1.86149 42.2425 1.10591 42.2425 1.10591Z" fill="#ED5D37"/>
<path d="M26.2766 35.5542L26.1152 35.5435C26.1283 35.3402 27.4362 15.1937 29.7861 10.6165C32.1111 6.08775 38.3206 2.68114 42.9824 1.77539L43.0133 1.93384C38.3894 2.83249 32.2321 6.20718 29.9297 10.691C27.5952 15.2375 26.2897 35.352 26.2766 35.5542Z" fill="#BA2A04"/>
<path d="M27.2473 35.7698L27.0859 35.7591C27.0859 35.7591 27.1014 35.5274 27.1298 35.1088L27.2913 35.1194C27.2616 35.538 27.2473 35.7686 27.2473 35.7686V35.7698ZM27.3364 34.4738L27.1749 34.462C27.1892 34.2657 27.2046 34.0505 27.2224 33.8164L27.3838 33.8282C27.366 34.0612 27.3506 34.2775 27.3364 34.4727V34.4738ZM27.4337 33.1862L27.2723 33.1743C27.2877 32.9698 27.3055 32.7546 27.3233 32.5299L27.4847 32.5429C27.4669 32.7664 27.4503 32.9816 27.4337 33.1862ZM27.5369 31.8985L27.3755 31.8855C27.3921 31.6774 27.4111 31.4622 27.4289 31.2422L27.5903 31.2552C27.5713 31.4752 27.5535 31.6904 27.5369 31.8985ZM27.6461 30.6132L27.4847 30.599L27.5417 29.9557L27.7031 29.9699L27.6461 30.612V30.6132ZM27.7601 29.329L27.5986 29.3148C27.6176 29.1032 27.6378 28.8892 27.658 28.6728L27.8194 28.6882C27.7992 28.9045 27.779 29.1186 27.7601 29.3302V29.329ZM27.8811 28.0449L27.7197 28.0295C27.7399 27.8179 27.7612 27.6039 27.7826 27.3875L27.944 27.4028C27.9226 27.6192 27.9013 27.8332 27.8811 28.0449ZM28.0081 26.762L27.8467 26.7454C27.8681 26.5326 27.8906 26.3185 27.9132 26.1033L28.0734 26.1199C28.0508 26.3351 28.0283 26.5491 28.0069 26.7608L28.0081 26.762ZM28.1434 25.479L27.9832 25.4613C28.0057 25.2484 28.0295 25.0344 28.0532 24.8204L28.2134 24.8381C28.1897 25.0521 28.1659 25.2662 28.1434 25.479ZM28.2846 24.1984L28.1244 24.1807C28.1481 23.9678 28.1731 23.755 28.198 23.541L28.3582 23.5599C28.3333 23.7727 28.3084 23.9868 28.2846 24.1996V24.1984ZM28.4354 22.9178L28.2751 22.8989C28.3012 22.6849 28.3274 22.4709 28.3547 22.2569L28.5149 22.277C28.4888 22.491 28.4615 22.705 28.4354 22.919V22.9178ZM28.5956 21.6373L28.4354 21.6172C28.4627 21.4031 28.4911 21.1903 28.5196 20.9775L28.6798 20.9987C28.6514 21.2116 28.6229 21.4244 28.5956 21.6373ZM28.7665 20.3602L28.6063 20.3378C28.6359 20.1237 28.6656 19.9109 28.6965 19.6992L28.8567 19.7217C28.8258 19.9334 28.7962 20.1462 28.7665 20.3602ZM28.9504 19.0844L28.7902 19.0607C28.8223 18.8467 28.8555 18.6339 28.8875 18.4222L29.0478 18.447C29.0145 18.6575 28.9825 18.8703 28.9504 19.0844ZM29.1498 17.8109L28.9908 17.7849C29.0264 17.5708 29.0608 17.358 29.0976 17.1487L29.2566 17.1759C29.221 17.3852 29.1854 17.5969 29.1498 17.8109ZM29.3682 16.5409L29.2092 16.5126C29.2483 16.2974 29.2875 16.0857 29.3279 15.8776L29.4869 15.9083C29.4465 16.1164 29.4074 16.3269 29.3694 16.5421L29.3682 16.5409ZM29.6103 15.2757L29.4525 15.2438C29.4964 15.0286 29.5415 14.8181 29.5854 14.6112L29.7432 14.6455C29.6981 14.8512 29.6542 15.0617 29.6103 15.2757ZM29.8857 14.0176L29.729 13.981C29.78 13.7646 29.8311 13.5553 29.8845 13.3531L30.0411 13.3933C29.9889 13.5943 29.9379 13.8036 29.8868 14.0176H29.8857ZM30.2097 12.7725L30.0542 12.7276C30.1171 12.5076 30.1812 12.2995 30.2441 12.108L30.3972 12.1576C30.3343 12.348 30.2714 12.5549 30.2085 12.7713L30.2097 12.7725ZM30.6132 11.5546L30.4625 11.4966C30.5491 11.2743 30.6369 11.0733 30.7236 10.8995L30.8684 10.9705C30.7841 11.1407 30.6975 11.337 30.6132 11.5546ZM31.1734 10.4088L31.0333 10.3272C31.1401 10.1439 31.2564 9.95947 31.3787 9.77738L31.5128 9.86724C31.3929 10.047 31.2778 10.2291 31.1722 10.4088H31.1734ZM31.8843 9.34579L31.7549 9.24883C31.8831 9.07856 32.0184 8.9071 32.1572 8.74038L32.2819 8.84325C32.1442 9.00879 32.0101 9.17788 31.8843 9.34579ZM32.7032 8.35963L32.5833 8.25085C32.7257 8.09476 32.8765 7.93632 33.0307 7.78142L33.1459 7.89493C32.9928 8.04865 32.8444 8.20473 32.7032 8.35963ZM33.6075 7.44915L33.4972 7.33091C33.6526 7.18665 33.8152 7.04121 33.9802 6.89813L34.0858 7.01993C33.9221 7.16064 33.7618 7.30489 33.6075 7.44797V7.44915ZM34.5784 6.60962L34.4775 6.48428C34.6425 6.35066 34.8145 6.21705 34.9878 6.08698L35.0851 6.21587C34.9131 6.34593 34.7422 6.47837 34.5784 6.60962ZM35.605 5.83748L35.5112 5.70623C35.6857 5.58326 35.8661 5.46029 36.0465 5.34086L36.1355 5.47448C35.9563 5.59272 35.7771 5.71569 35.605 5.83748ZM36.6779 5.12684L36.5924 4.98967C36.7728 4.87734 36.9603 4.76501 37.1479 4.65504L37.2297 4.79339C37.0422 4.90217 36.8571 5.01451 36.6779 5.12566V5.12684ZM37.7911 4.4765L37.7128 4.33578C37.9003 4.23291 38.0938 4.13004 38.2848 4.0319L38.3596 4.17497C38.1685 4.27312 37.9774 4.37481 37.7911 4.47768V4.4765ZM38.9364 3.88764L38.8664 3.7422C39.061 3.64879 39.258 3.55656 39.4539 3.46787L39.5203 3.6145C39.3257 3.702 39.1299 3.79304 38.9364 3.88646V3.88764ZM40.1102 3.35909L40.0473 3.2101C40.2478 3.12615 40.4508 3.04456 40.649 2.9677L40.7071 3.11787C40.5101 3.19473 40.3084 3.27514 40.1102 3.35909ZM41.3124 2.89439L41.2578 2.74304C41.462 2.67091 41.6685 2.60114 41.8726 2.53493L41.9225 2.68865C41.7195 2.75368 41.5142 2.82344 41.3124 2.89557V2.89439ZM42.5372 2.49945L42.4921 2.34455C42.7034 2.28425 42.9146 2.22749 43.1188 2.17665L43.1579 2.33273C42.955 2.38358 42.7461 2.43915 42.536 2.49945H42.5372ZM43.787 2.18966L43.7537 2.03239C43.8202 2.0182 43.8867 2.00519 43.9531 1.99219L43.984 2.15063C43.9187 2.16364 43.8534 2.17665 43.787 2.19084V2.18966Z" fill="#BA2A04"/>
<path d="M25.1458 35.233L24.9844 35.2235C24.9844 35.2235 24.9986 34.9917 25.0271 34.5732L25.1885 34.5838C25.16 35.0024 25.1458 35.233 25.1458 35.233ZM25.2348 33.9382L25.0734 33.9264C25.0876 33.7301 25.1031 33.5149 25.1209 33.2819L25.2823 33.2938C25.2645 33.5267 25.249 33.7431 25.2348 33.9382ZM25.3297 32.6493L25.1683 32.6375C25.1838 32.4329 25.2004 32.2177 25.2182 31.9931L25.3796 32.0061C25.3618 32.2296 25.3452 32.4448 25.3297 32.6493ZM25.4318 31.3628L25.2704 31.3498C25.287 31.1417 25.3048 30.9265 25.3238 30.7066L25.4852 30.7196C25.4662 30.9395 25.4484 31.1547 25.4318 31.3628ZM25.541 30.0763L25.3796 30.0622C25.3974 29.8517 25.4164 29.6377 25.4366 29.4189L25.598 29.4331C25.579 29.6518 25.56 29.8659 25.541 30.0752V30.0763ZM25.6549 28.7922L25.4935 28.778C25.5125 28.5664 25.5327 28.3523 25.5529 28.136L25.7143 28.1513C25.6941 28.3677 25.6739 28.5817 25.6549 28.7934V28.7922ZM25.776 27.5081L25.6146 27.4927C25.6348 27.281 25.6561 27.067 25.6775 26.8506L25.8389 26.866C25.8175 27.0824 25.7962 27.2964 25.776 27.5081ZM25.903 26.2251L25.7428 26.2086C25.7641 25.9957 25.7867 25.7817 25.8092 25.5665L25.9694 25.5831C25.9469 25.7983 25.9243 26.0123 25.903 26.2239V26.2251ZM26.0383 24.9434L25.8781 24.9256C25.9006 24.7128 25.9243 24.4988 25.9481 24.2847L26.1083 24.3025C26.0846 24.5165 26.0608 24.7305 26.0383 24.9434ZM26.1807 23.664L26.0205 23.645C26.0454 23.4322 26.0703 23.2182 26.0952 23.0053L26.2555 23.0243C26.2305 23.2383 26.2056 23.4511 26.1807 23.664ZM26.3326 22.3834L26.1724 22.3633C26.1985 22.1493 26.2246 21.9364 26.2519 21.7236L26.4121 21.7437C26.3848 21.9565 26.3587 22.1694 26.3326 22.3834ZM26.4952 21.1052L26.335 21.0839C26.3635 20.8699 26.392 20.657 26.4204 20.4442L26.5807 20.4655C26.5522 20.6771 26.5237 20.8911 26.4952 21.104V21.1052ZM26.6697 19.8281L26.5094 19.8057C26.5391 19.5916 26.57 19.3788 26.602 19.1671L26.7622 19.1908C26.7314 19.4024 26.7005 19.6153 26.6697 19.8281ZM26.8572 18.5535L26.697 18.5286C26.7302 18.3146 26.7634 18.1018 26.7967 17.8913L26.9569 17.9173C26.9225 18.1278 26.8892 18.3394 26.8572 18.5535ZM27.0613 17.2811L26.9023 17.254C26.9391 17.0399 26.9747 16.8271 27.0127 16.6178L27.1717 16.6462C27.1349 16.8555 27.0981 17.0671 27.0613 17.2811ZM27.2868 16.0124L27.1278 15.9828C27.1681 15.7676 27.2085 15.556 27.25 15.349L27.4079 15.3798C27.3663 15.5867 27.326 15.7984 27.2856 16.0124H27.2868ZM27.5396 14.7484L27.3818 14.7153C27.4281 14.5 27.4743 14.2896 27.5218 14.0838L27.6797 14.1193C27.6322 14.3239 27.5859 14.5332 27.5408 14.7484H27.5396ZM27.8292 13.495L27.6725 13.456C27.7271 13.2396 27.7817 13.0315 27.8375 12.8304L27.993 12.873C27.9372 13.0728 27.8826 13.2798 27.8292 13.495ZM28.1758 12.2558L28.0215 12.2073C28.0903 11.9897 28.1603 11.7828 28.2292 11.5924L28.3811 11.648C28.3122 11.836 28.2434 12.0406 28.1758 12.2558ZM28.622 11.0556L28.4748 10.9894C28.5164 10.8972 28.5591 10.8085 28.6018 10.7257C28.6564 10.6205 28.7122 10.5152 28.7715 10.41L28.9128 10.488C28.8558 10.5909 28.8 10.695 28.7466 10.799C28.7051 10.8794 28.6635 10.9657 28.6232 11.0556H28.622ZM29.2403 9.94056L29.1038 9.85424C29.219 9.67451 29.3424 9.49478 29.4694 9.31859L29.5999 9.41319C29.4741 9.58701 29.3531 9.76437 29.2391 9.94174L29.2403 9.94056ZM29.9904 8.90238L29.8646 8.80187C29.9975 8.63633 30.1388 8.4696 30.2836 8.30643L30.4046 8.41285C30.261 8.57484 30.1221 8.7392 29.9904 8.90238ZM30.8402 7.94223L30.7239 7.83109C30.871 7.67855 31.0253 7.52483 31.1844 7.37466L31.2959 7.49054C31.1393 7.63953 30.9862 7.79206 30.8402 7.94342V7.94223ZM31.7683 7.0554L31.6615 6.93479C31.8205 6.79408 31.9866 6.65219 32.154 6.51385L32.2572 6.638C32.0911 6.77517 31.9261 6.91588 31.7683 7.0554ZM32.7593 6.23834L32.6608 6.11063C32.8293 5.98175 33.0038 5.85168 33.1806 5.72398L33.2755 5.85404C33.0999 5.98057 32.9266 6.10945 32.7605 6.23715L32.7593 6.23834ZM33.8025 5.48749L33.7123 5.35387C33.8891 5.23444 34.0719 5.11502 34.2547 4.99914L34.3413 5.13512C34.1597 5.251 33.9781 5.36924 33.8025 5.48749ZM34.8896 4.79694L34.8066 4.6586C34.9917 4.54863 35.1804 4.43866 35.3691 4.33343L35.4486 4.47414C35.2611 4.57937 35.0736 4.68698 34.8908 4.79694H34.8896ZM36.0135 4.1667L35.9376 4.02481C36.1275 3.92548 36.3209 3.82616 36.5156 3.73038L36.588 3.87464C36.3957 3.96923 36.2023 4.06856 36.0147 4.1667H36.0135ZM37.1683 3.59795L37.1007 3.45132C37.2977 3.36028 37.4971 3.27159 37.6929 3.18764L37.757 3.33545C37.5624 3.4194 37.3642 3.5069 37.1683 3.59676V3.59795ZM38.3516 3.0895L38.2923 2.94051C38.494 2.8601 38.6982 2.78206 38.8987 2.70875L38.9545 2.8601C38.7551 2.93342 38.5534 3.01027 38.3528 3.0895H38.3516ZM39.561 2.64726L39.5099 2.49473C39.7165 2.42615 39.9241 2.35993 40.1283 2.29963L40.1746 2.45334C39.9716 2.51365 39.7651 2.57868 39.561 2.64726ZM40.7953 2.27953L40.7537 2.12344C40.9662 2.06787 41.1786 2.01584 41.3851 1.96973L41.4207 2.12699C41.2166 2.17192 41.0065 2.22395 40.7953 2.27834V2.27953Z" fill="#BA2A04"/>
<path d="M51.8787 37.5899L51.7184 37.5686C51.7422 37.3888 51.7707 37.1748 51.8027 36.9289L51.9629 36.949C51.9309 37.1949 51.9024 37.4101 51.8787 37.5887V37.5899ZM52.0448 36.3093L51.8846 36.2892C51.9095 36.0893 51.9356 35.8753 51.9629 35.6495L52.1231 35.6684C52.0958 35.8942 52.0697 36.1083 52.0448 36.3093ZM52.2003 35.0275L52.0401 35.0086C52.0638 34.8028 52.0887 34.5888 52.1136 34.3677L52.2739 34.3854C52.2489 34.6066 52.224 34.8206 52.1991 35.0263L52.2003 35.0275ZM52.3475 33.7469L52.1872 33.7292C52.211 33.5211 52.2335 33.307 52.2573 33.0883L52.4175 33.106C52.3937 33.3248 52.37 33.5388 52.3475 33.7469ZM52.4851 32.464L52.3249 32.4474C52.3475 32.2369 52.3688 32.0241 52.3914 31.8065L52.5528 31.8231C52.5302 32.0407 52.5089 32.2547 52.4863 32.464H52.4851ZM52.6157 31.181L52.4543 31.1657C52.4744 30.9552 52.4958 30.7412 52.516 30.5248L52.6774 30.5401C52.6572 30.7565 52.6359 30.9705 52.6157 31.1822V31.181ZM52.7379 29.8981L52.5765 29.8839C52.5955 29.6722 52.6157 29.4582 52.6347 29.2418L52.7961 29.256C52.7771 29.4724 52.7581 29.6864 52.7379 29.8981ZM52.8519 28.6128L52.6904 28.5998C52.7082 28.3869 52.726 28.1729 52.7439 27.9577L52.9053 27.9707C52.8875 28.1859 52.8697 28.4011 52.8519 28.6128ZM52.9563 27.3274L52.7949 27.3156C52.8115 27.1028 52.8269 26.8888 52.8435 26.6736L53.005 26.6854C52.9895 26.9006 52.9729 27.1146 52.9563 27.3286V27.3274ZM53.0501 26.0421L52.8886 26.0315C52.9029 25.8175 52.9183 25.6034 52.9314 25.3894L53.0928 25.4001C53.0785 25.6153 53.0643 25.8293 53.0501 26.0433V26.0421ZM53.1343 24.7533L52.9729 24.7438C52.986 24.5298 52.9978 24.3146 53.0097 24.0994L53.1711 24.1077C53.1592 24.3229 53.1474 24.5381 53.1343 24.7521V24.7533ZM53.2043 23.4644L53.0429 23.4561C53.0536 23.2421 53.0643 23.0269 53.0738 22.8141L53.2352 22.8212C53.2257 23.0352 53.215 23.2504 53.2043 23.4644ZM53.2613 22.1791L53.0999 22.1732C53.1082 21.958 53.1153 21.744 53.1224 21.5299L53.2839 21.5347C53.2767 21.7487 53.2696 21.9639 53.2613 22.1791ZM53.3028 20.8891L53.1414 20.8855C53.1474 20.6703 53.1521 20.4551 53.1557 20.2423L53.3171 20.2446C53.3135 20.4586 53.3088 20.6739 53.3028 20.8891ZM53.3266 19.6002H53.1652C53.1675 19.3826 53.1687 19.1674 53.1687 18.9546H53.3301C53.3301 19.1686 53.329 19.3838 53.3266 19.6002ZM53.1664 18.3113C53.164 18.0949 53.1616 17.8809 53.1569 17.6681L53.3183 17.6645C53.323 17.8774 53.3254 18.0926 53.3278 18.309H53.1664V18.3113ZM53.1403 17.026C53.1331 16.8085 53.1248 16.5944 53.1153 16.384L53.2767 16.3769C53.2862 16.5885 53.2945 16.8037 53.3028 17.0213L53.1414 17.0272L53.1403 17.026ZM53.0797 15.7419C53.0655 15.5243 53.0501 15.3103 53.0334 15.101L53.1948 15.088C53.2126 15.2985 53.2269 15.5125 53.2411 15.7312L53.0797 15.7419ZM52.9729 14.4613C52.9492 14.2414 52.9242 14.0274 52.897 13.824L53.0572 13.8027C53.0845 14.0073 53.1106 14.2236 53.1331 14.4448L52.9729 14.4613ZM52.802 13.1902C52.7652 12.9714 52.7249 12.7598 52.6821 12.5611L52.84 12.5268C52.8839 12.7278 52.9242 12.9419 52.961 13.163L52.802 13.189V13.1902ZM52.529 11.9415L52.5053 11.8588C52.4531 11.6814 52.3973 11.504 52.3391 11.3302L52.4922 11.2794C52.5504 11.4555 52.6074 11.6353 52.6596 11.8138L52.6845 11.8978L52.529 11.9415ZM52.1243 10.7272C52.0484 10.5285 51.9677 10.3287 51.8834 10.1336L52.0318 10.0697C52.1172 10.2672 52.1991 10.4682 52.2751 10.6692L52.1243 10.726V10.7272ZM51.6176 9.55063C51.5262 9.35908 51.4277 9.16634 51.328 8.97833L51.4704 8.90265C51.5713 9.09303 51.6698 9.28695 51.7635 9.47968L51.6176 9.54945V9.55063ZM51.0158 8.41903C50.909 8.23576 50.7963 8.05248 50.6811 7.87275L50.8176 7.78643C50.9339 7.96853 51.0479 8.15417 51.1559 8.33863L51.0158 8.42022V8.41903ZM50.3239 7.33828C50.2029 7.16447 50.0759 6.98946 49.9465 6.81919L50.0759 6.72223C50.2064 6.89487 50.3346 7.07105 50.4568 7.24605L50.3239 7.33828ZM49.5501 6.31429C49.4148 6.14875 49.2759 5.98439 49.1359 5.82358L49.257 5.71716C49.3982 5.87797 49.5394 6.04469 49.6759 6.21142L49.5501 6.31311V6.31429ZM48.7039 5.34942C48.5603 5.19688 48.4096 5.04198 48.2553 4.88945L48.3692 4.77475C48.5247 4.92847 48.6766 5.08455 48.8214 5.23827L48.7039 5.34824V5.34942ZM47.79 4.44485C47.6346 4.30059 47.4732 4.15634 47.3106 4.01681L47.4162 3.89502C47.58 4.03691 47.7426 4.18235 47.8992 4.32661L47.7889 4.44485H47.79ZM46.8168 3.60414C46.6507 3.47052 46.4798 3.3369 46.3089 3.2092L46.4062 3.08031C46.5783 3.21038 46.7504 3.344 46.9177 3.4788L46.8157 3.60414H46.8168ZM45.7891 2.83082C45.611 2.70548 45.4306 2.58487 45.255 2.47136L45.3428 2.33656C45.5196 2.45126 45.7012 2.57305 45.8816 2.69957L45.7891 2.83082ZM44.709 2.132C44.3601 1.92507 44.1489 1.8222 44.1465 1.82102L44.2177 1.67676C44.226 1.68149 44.4349 1.78318 44.7909 1.99365L44.709 2.132Z" fill="#BA2A04"/>
<path d="M42.674 11.3804C42.0355 11.3804 41.5156 10.8625 41.5156 10.2263C41.5156 9.59017 42.0355 9.07227 42.674 9.07227C43.3125 9.07227 43.8323 9.59017 43.8323 10.2263C43.8323 10.8625 43.3125 11.3804 42.674 11.3804ZM42.674 9.87751C42.4805 9.87751 42.3239 10.0336 42.3239 10.2263C42.3239 10.4191 42.4805 10.5751 42.674 10.5751C42.8674 10.5751 43.0241 10.4191 43.0241 10.2263C43.0241 10.0336 42.8674 9.87751 42.674 9.87751Z" fill="#BA2A04"/>
<path d="M60.3306 10.8844C60.1395 10.8844 59.9413 10.8099 59.7609 10.6657C59.5532 10.499 59.3775 10.2483 59.2683 9.95858C59.158 9.66889 59.1224 9.36618 59.1675 9.10368C59.2244 8.77496 59.406 8.53019 59.6659 8.43205C59.9259 8.33391 60.2249 8.39658 60.486 8.60587C60.6937 8.7726 60.8694 9.02327 60.9786 9.31297C61.0889 9.60267 61.1245 9.90537 61.0794 10.1679C61.0225 10.4966 60.8409 10.7414 60.581 10.8395C60.5003 10.8702 60.416 10.8844 60.3306 10.8844ZM59.9342 9.14152C59.8986 9.20892 59.8665 9.42057 59.9698 9.69372C60.073 9.96686 60.238 10.1052 60.3092 10.1312C60.3448 10.065 60.3768 9.85216 60.2736 9.57902C60.1703 9.30588 60.0054 9.16753 59.9342 9.14152Z" fill="#BA2A04"/>
<path d="M23.6647 8.46631C23.578 8.46631 23.4902 8.4533 23.4036 8.42611C22.8707 8.25702 22.6155 7.61968 22.8208 6.97525C23.0262 6.33082 23.6053 5.95717 24.137 6.12508C24.6699 6.29417 24.9251 6.9315 24.7198 7.57593C24.5477 8.11631 24.1133 8.46631 23.6635 8.46631H23.6647ZM23.5923 7.21883C23.5128 7.46833 23.597 7.64215 23.6492 7.6587C23.7015 7.67407 23.8712 7.58184 23.9507 7.33235C24.0266 7.0935 23.9483 6.90904 23.8937 6.89248C23.8415 6.87593 23.6706 6.97052 23.5923 7.21883Z" fill="#BA2A04"/>
<path d="M70.1153 32.4766L69.9883 32.3773C70.0536 32.2945 70.1176 32.2094 70.1817 32.123L70.3123 32.2176C70.2482 32.3063 70.1817 32.3926 70.1165 32.4766H70.1153Z" fill="#0E2052"/>
<path d="M22.3189 19.9375L21.9961 24.445L33.1428 26.3759L33.7896 21.5468L22.3189 19.9375Z" fill="#FFAB0B"/>
<path d="M23.0722 20.8457L22.8574 23.7959L32.1716 25.4099L32.657 22.1913L23.0722 20.8457Z" fill="#50439F"/>
<path d="M52.8775 38.1386L52.7173 38.1138C52.7481 37.9186 55.8149 18.5219 53.7961 11.6448C51.7844 4.78902 44.4427 2.17346 44.3691 2.14863L44.4225 1.99609C44.4973 2.02211 51.9174 4.66486 53.9516 11.5999C55.9799 18.5124 52.9084 37.9447 52.8763 38.1398L52.8775 38.1386Z" fill="#BA2A04"/>
<path d="M54.0333 37.0106L53.8731 36.9881C53.9016 36.7953 53.9325 36.5813 53.9645 36.3496L54.1247 36.372C54.0915 36.6038 54.0606 36.8178 54.0333 37.0106ZM54.2149 35.7323L54.0547 35.711C54.0832 35.5077 54.1117 35.2948 54.1413 35.0725L54.3016 35.0938C54.2719 35.3173 54.2422 35.5301 54.2149 35.7335V35.7323ZM54.387 34.4541L54.2268 34.4328C54.2541 34.2259 54.2814 34.0131 54.3087 33.7931L54.4689 33.8132C54.4404 34.0332 54.4131 34.246 54.3858 34.4529L54.387 34.4541ZM54.5496 33.1735L54.3894 33.1534C54.4155 32.9441 54.4416 32.7313 54.4677 32.5137L54.6279 32.5326C54.6018 32.7502 54.5757 32.9642 54.5496 33.1723V33.1735ZM54.7039 31.8929L54.5437 31.874C54.5686 31.6636 54.5923 31.4507 54.6173 31.2343L54.7775 31.2521C54.7526 31.4685 54.7276 31.6825 54.7039 31.8929ZM54.8499 30.6124L54.6897 30.5946C54.7134 30.383 54.7359 30.1701 54.7585 29.9537L54.9187 29.9703C54.8962 30.1867 54.8724 30.4007 54.8499 30.6112V30.6124ZM54.9864 29.3294L54.8261 29.3129C54.8475 29.1012 54.8689 28.8872 54.8902 28.672L55.0516 28.6874C55.0303 28.9026 55.0089 29.1166 54.9876 29.3294H54.9864ZM55.1122 28.0465L54.9508 28.0311C54.9709 27.8183 54.9911 27.6042 55.0101 27.3902L55.1715 27.4044C55.1525 27.6196 55.1323 27.8336 55.1122 28.0465ZM55.2273 26.7623L55.0659 26.7481C55.0837 26.5353 55.1015 26.3213 55.1193 26.1061L55.2807 26.1191C55.2629 26.3343 55.2451 26.5483 55.2273 26.7612V26.7623ZM55.3317 25.477L55.1703 25.4652C55.1869 25.2512 55.2024 25.0372 55.2178 24.8231L55.3792 24.835C55.3638 25.0502 55.3483 25.2642 55.3317 25.4782V25.477ZM55.4219 24.1882L55.2605 24.1775C55.2748 23.9635 55.2878 23.7483 55.3009 23.5343L55.4623 23.5437C55.4492 23.7589 55.4362 23.973 55.4219 24.1882ZM55.4991 22.9005L55.3377 22.8922C55.3495 22.6782 55.3602 22.4642 55.3697 22.2501L55.5311 22.2572C55.5216 22.4713 55.5109 22.6853 55.4991 22.9005ZM55.5584 21.6128L55.397 21.6069C55.4053 21.3917 55.4136 21.1777 55.4196 20.9636L55.581 20.9684C55.5738 21.1824 55.5667 21.3976 55.5572 21.6128H55.5584ZM55.6 20.3239L55.4385 20.3204C55.4433 20.1052 55.448 19.89 55.4516 19.6772L55.613 19.6795C55.6095 19.8935 55.6059 20.1087 55.6 20.3239ZM55.6189 19.0339H55.4575C55.4575 18.9228 55.4575 18.8128 55.4575 18.7028C55.4575 18.5929 55.4575 18.4935 55.4575 18.3895H55.6189C55.6189 18.4923 55.6189 18.5976 55.6189 18.7028C55.6189 18.8081 55.6189 18.9228 55.6189 19.0339ZM55.4504 17.7462C55.4469 17.5298 55.4421 17.3158 55.435 17.103L55.5964 17.0983C55.6023 17.3111 55.6083 17.5263 55.6118 17.7427L55.4504 17.745V17.7462ZM55.4112 16.4621C55.4018 16.2445 55.3899 16.0317 55.3768 15.82L55.5382 15.8106C55.5513 16.0222 55.5632 16.2374 55.5727 16.455L55.4112 16.4621ZM55.3305 15.1791C55.3127 14.9616 55.2926 14.7487 55.2712 14.5394L55.4314 14.5229C55.454 14.7334 55.473 14.9474 55.4908 15.1661L55.3294 15.1791H55.3305ZM55.1964 13.9033C55.168 13.6857 55.1359 13.4729 55.1027 13.2695L55.2617 13.2435C55.2961 13.4492 55.3282 13.6644 55.3567 13.8832L55.1964 13.9045V13.9033ZM54.9864 12.6381C54.9413 12.4217 54.8926 12.2124 54.8404 12.0149L54.997 11.9736C55.0493 12.1734 55.0991 12.385 55.1442 12.605L54.9864 12.6369V12.6381ZM54.6588 11.4024C54.5923 11.2002 54.5211 10.998 54.4452 10.7994L54.5959 10.7414C54.673 10.9425 54.7466 11.147 54.8131 11.3516L54.66 11.4013L54.6588 11.4024ZM54.1995 10.2094C54.1129 10.0154 54.0203 9.82151 53.9242 9.63232L54.0678 9.55901C54.1651 9.75056 54.2588 9.94803 54.3467 10.1443L54.1995 10.2094ZM53.6191 9.06948C53.5147 8.88738 53.402 8.70292 53.2868 8.52201L53.4233 8.43569C53.5408 8.61779 53.6536 8.80461 53.7604 8.98907L53.6203 9.06948H53.6191ZM52.9284 7.99228C52.8062 7.82082 52.6768 7.64819 52.5439 7.4791L52.6709 7.37977C52.805 7.55004 52.9355 7.72504 53.059 7.89886L52.9272 7.99228H52.9284ZM52.1368 6.98365C51.9979 6.82284 51.8543 6.66321 51.7072 6.50713L51.8247 6.39716C51.973 6.55443 52.119 6.71642 52.2579 6.8796L52.1356 6.98484L52.1368 6.98365ZM51.2585 6.04834C51.1066 5.89936 50.9488 5.75155 50.7909 5.60848L50.8989 5.48905C51.0592 5.63331 51.2182 5.78348 51.3713 5.93365L51.2585 6.04834ZM50.3043 5.18753C50.1417 5.05155 49.9732 4.91675 49.8035 4.7855L49.902 4.65779C50.0741 4.79023 50.2438 4.92739 50.4076 5.06455L50.3043 5.18753ZM49.2884 4.4012C49.1163 4.27823 48.9383 4.15526 48.7591 4.03583L48.8493 3.90221C49.0297 4.02282 49.2101 4.14698 49.3834 4.27113L49.2884 4.4012ZM48.2167 3.68819C48.0351 3.57586 47.8488 3.46589 47.6625 3.35947L47.7432 3.21995C47.9307 3.32636 48.1182 3.43751 48.301 3.55103L48.2155 3.68819H48.2167ZM47.0975 3.05086C46.9065 2.95035 46.713 2.85339 46.5219 2.76116L46.5919 2.61572C46.7842 2.70795 46.98 2.80609 47.1723 2.90778L47.0963 3.04967L47.0975 3.05086ZM45.9368 2.49393C45.5653 2.33311 45.341 2.25507 45.3398 2.25507L45.3932 2.10254C45.4027 2.10609 45.6235 2.18294 46.0021 2.34612L45.938 2.49393H45.9368Z" fill="#BA2A04"/>
<path d="M42.1802 2.22367C41.0349 1.87248 41.7898 -0.236992 44.65 0.0219624C47.5103 0.280917 47.3809 1.57687 46.9904 2.22367C46.6 2.87164 43.8703 2.74158 42.1802 2.22367Z" fill="#FFAB0B"/>
<path d="M42.909 1.29578C42.134 1.13852 42.6455 0.193746 44.5801 0.309625C46.5146 0.425504 46.4268 1.00608 46.1633 1.29578C45.8998 1.58548 44.0531 1.52754 42.909 1.29578Z" fill="#FDBA36"/>
</g>
<defs>
<clipPath id="clip0_1629_19">
<rect width="72" height="48" fill="white" transform="translate(0.1875)"/>
</clipPath>
</defs>
</svg>
