<svg width="65" height="51" viewBox="0 0 65 51" fill="none" xmlns="http://www.w3.org/2000/svg">
<path d="M19.3002 2.39876L1.4186 22.0666C-1.02315 24.7491 0.354931 29.0707 3.90049 29.8467L29.87 35.4995C33.4156 36.2689 36.4661 32.9173 35.3623 29.4587L27.2744 4.13809C26.1706 0.679503 21.7353 -0.283819 19.2935 2.39876H19.3002Z" fill="#FFAB0B"/>
<path d="M31.1276 31.0843C31.1677 30.917 31.1276 30.7297 30.9871 30.6026C30.7128 30.3417 30.4319 30.0875 30.1509 29.8467C27.6355 27.0838 20.3371 17.8654 23.0665 6.6601C23.0732 6.62665 23.0798 6.59989 23.0798 6.56644C23.0798 6.56644 23.0798 6.55975 23.0798 6.55306C23.1401 6.28547 22.9728 6.01119 22.7052 5.95099C22.4309 5.89078 22.1634 6.05802 22.1031 6.32561C22.0697 6.47279 18.4706 21.3173 5.23835 25.184C5.21828 25.184 5.2049 25.1973 5.19152 25.204C5.17814 25.204 5.16476 25.2174 5.14469 25.2241C5.12462 25.2308 5.11124 25.2442 5.09786 25.2575C5.08448 25.2642 5.07779 25.2709 5.06441 25.2776C5.05103 25.291 5.03765 25.3044 5.02427 25.3177C5.01758 25.3244 5.0042 25.3378 4.99751 25.3445C4.98414 25.3579 4.97745 25.378 4.96407 25.3913C4.95738 25.4047 4.95069 25.4114 4.944 25.4248C4.93731 25.4382 4.93062 25.4582 4.92393 25.4716C4.92393 25.485 4.91055 25.4984 4.90386 25.5118C4.90386 25.5251 4.90386 25.5452 4.89717 25.5586C4.89717 25.572 4.89048 25.592 4.88379 25.6054C4.88379 25.6188 4.88379 25.6322 4.88379 25.6455C4.88379 25.6656 4.88379 25.6857 4.88379 25.7058C4.88379 25.7191 4.88379 25.7258 4.88379 25.7392C4.88379 25.7593 4.88379 25.7793 4.89717 25.8061C4.89717 25.8262 4.91055 25.8395 4.91724 25.8529C4.93062 25.8797 4.93731 25.9064 4.95069 25.9265C4.96407 25.9466 4.97745 25.96 4.99082 25.9733C5.0042 25.9934 5.01758 26.0135 5.03765 26.0269C5.05772 26.0469 5.07779 26.0536 5.09786 26.067C5.11124 26.0804 5.12462 26.0938 5.14469 26.1004C5.17814 26.1205 5.21828 26.1272 5.25172 26.1406C5.25172 26.1406 5.25841 26.1406 5.2651 26.1406C5.30524 26.1473 5.34538 26.154 5.38552 26.154C5.3989 26.154 5.40559 26.154 5.41897 26.154C5.44573 26.154 5.47917 26.154 5.50593 26.1406C5.50593 26.1406 5.50593 26.1406 5.51262 26.1406C5.70663 26.0804 19.541 22.0532 29.4418 30.5625C29.9368 31.1044 30.2512 31.3987 30.2646 31.4188C30.3315 31.4857 30.4185 31.5258 30.4988 31.5459C30.666 31.5793 30.8466 31.5325 30.9737 31.3987C31.0607 31.305 31.1008 31.1913 31.1075 31.0776L31.1276 31.0843Z" fill="#50439F"/>
<g style="mix-blend-mode:multiply" opacity="0.9">
<path d="M29.8697 35.4928C33.4152 36.2621 36.4658 32.9106 35.362 29.452L28.2039 7.0481C29.3078 12.9417 28.2374 19.2569 25.0732 24.3678C22.9659 27.7729 19.9689 30.5959 16.4902 32.5828L29.863 35.4928H29.8697Z" fill="#FFAB0B"/>
</g>
<path opacity="0.5" d="M19.026 5.05444L4.75684 21.665C4.75684 21.665 14.8717 17.0291 19.026 5.05444Z" fill="white"/>
<path d="M34.5328 15.6845L24.3711 43.8817C22.9863 47.7283 26.2843 51.6351 30.3116 50.9126L59.8066 45.6143C63.8338 44.8918 65.5664 40.0819 62.9307 36.9511L43.5974 14.0522C40.9549 10.9281 35.9242 11.8312 34.5395 15.6778L34.5328 15.6845Z" fill="#FFAB0B"/>
<path d="M59.2107 40.4767C59.184 40.2827 59.0569 40.1087 58.8562 40.0284C58.4548 39.8746 58.0601 39.7341 57.6587 39.6003C53.8456 37.8008 42.2724 31.3452 40.2922 18.4875C40.2922 18.4541 40.2788 18.4206 40.2654 18.3872V18.3738C40.2119 18.0661 39.9243 17.8587 39.6165 17.9055C39.3021 17.959 39.1014 18.2467 39.1482 18.5544C39.175 18.7284 41.8241 35.7403 29.6957 45.4739C29.6823 45.4873 29.6689 45.5006 29.6555 45.514C29.6421 45.5274 29.6288 45.5408 29.6154 45.5542C29.602 45.5742 29.5886 45.5876 29.5752 45.6077C29.5686 45.6211 29.5552 45.6344 29.5485 45.6478C29.5351 45.6679 29.5284 45.688 29.5217 45.708C29.5217 45.7214 29.5083 45.7348 29.5083 45.7482C29.5083 45.7682 29.5017 45.7883 29.495 45.8084C29.495 45.8217 29.4883 45.8351 29.4883 45.8552C29.4883 45.8753 29.4883 45.8953 29.4883 45.9154C29.4883 45.9288 29.4883 45.9489 29.4883 45.9622C29.4883 45.9823 29.4883 45.9957 29.495 46.0158C29.495 46.0358 29.495 46.0559 29.5083 46.0693C29.5083 46.0826 29.5217 46.096 29.5284 46.1094C29.5351 46.1295 29.5418 46.1495 29.5552 46.1696C29.5552 46.183 29.5686 46.1897 29.5752 46.2031C29.5886 46.2231 29.602 46.2432 29.6154 46.2633C29.6288 46.2767 29.6421 46.29 29.6622 46.3034C29.6823 46.3235 29.709 46.3502 29.7291 46.3703C29.7492 46.3837 29.7693 46.3904 29.7893 46.4038C29.8094 46.4171 29.8361 46.4305 29.8629 46.4372C29.8897 46.4439 29.9164 46.4506 29.9432 46.4573C29.9633 46.4573 29.9833 46.4707 30.0034 46.4707C30.0502 46.4707 30.0904 46.4707 30.1372 46.4707C30.1372 46.4707 30.1506 46.4707 30.1573 46.4707C30.1573 46.4707 30.1573 46.4707 30.1639 46.4707C30.2041 46.464 30.2509 46.4506 30.291 46.4305C30.3044 46.4305 30.3111 46.4171 30.3245 46.4104C30.3513 46.3971 30.3847 46.377 30.4115 46.3569C30.5921 46.2098 43.2691 36.0548 57.2507 40.6573C57.9999 41.0118 58.4548 41.1858 58.4816 41.1925C58.5819 41.2326 58.6823 41.2393 58.7826 41.2192C58.9699 41.1858 59.1372 41.052 59.2107 40.858C59.2576 40.7242 59.2576 40.5904 59.2107 40.4633V40.4767Z" fill="#50439F"/>
<path opacity="0.5" d="M35.389 18.5676L27.6758 42.0218C27.6758 42.0218 36.2186 32.8301 35.389 18.5676Z" fill="white"/>
</svg>
