<svg id="notFound" width="207" height="209" viewBox="0 0 207 209" fill="none" xmlns="http://www.w3.org/2000/svg">
<path d="M169 148.036C168.264 154.434 167.276 158.011 165 164.036C162.994 169.345 161.763 172.391 158.5 177.036C155.324 181.556 152.88 183.697 148.808 187.265L148.5 187.536C143.977 191.501 141.323 193.734 136 196.536C130.253 199.56 126.551 200.454 120.327 201.957L120 202.036C112.537 203.838 108.175 204.748 100.5 204.536C92.3465 204.31 87.6433 203.384 80.0001 200.536C72.8737 197.88 69.0351 195.664 63.0001 191.036C57.5219 186.835 54.6423 184.058 50.5001 178.536C46.358 173.013 44.4523 169.489 42.0001 163.036C39.4423 156.304 38.754 152.197 38.0001 145.036C37.3051 138.433 37.0735 134.61 38.0001 128.036C38.966 121.183 40.2129 117.37 43.0001 111.036C45.3608 105.671 46.9438 102.695 50.5001 98.0356C54.1862 93.2066 56.7575 90.8323 61.5001 87.0356C66.3637 83.1421 69.3669 81.1966 75.0001 78.5356C80.5833 75.8983 83.9035 74.5149 90.0001 73.5356C95.9766 72.5757 99.4615 73.1168 105.5 73.5356C112.194 73.9999 116.044 74.2046 122.5 76.0356C127.977 77.589 130.977 78.8559 136 81.5356C141.208 84.3144 144.118 86.08 148.5 90.0356C153.028 94.1232 155.149 96.9383 158.5 102.036C161.523 106.633 163.035 109.397 165 114.536C167.709 121.618 168.329 125.983 169 133.536C169.501 139.176 169.647 142.41 169 148.036Z" fill="white" stroke="#7263B1" stroke-width="2"/>
<path d="M206.348 122.488C205.238 132.167 203.751 137.577 200.32 146.691C197.297 154.722 195.442 159.33 190.524 166.355C185.737 173.193 182.054 176.433 175.918 181.83L175.453 182.238C168.636 188.236 164.637 191.615 156.615 195.853C147.953 200.428 142.374 201.78 132.993 204.053L132.501 204.172C121.254 206.899 114.68 208.276 103.113 207.954C90.8253 207.612 83.7372 206.212 72.2184 201.903C61.4783 197.886 55.6932 194.534 46.598 187.533C38.342 181.178 34.0021 176.979 27.7596 168.624C21.5171 160.27 18.6451 154.94 14.9494 145.178C11.0946 134.996 10.0572 128.783 8.92113 117.95C7.87372 107.962 7.52455 102.178 8.92113 92.2342C10.3768 81.8688 12.256 76.1 16.4565 66.5187C20.0142 58.4037 22.4 53.9014 27.7596 46.8539C33.3149 39.5492 37.1899 35.9576 44.3374 30.2145C51.6672 24.3249 56.1933 21.3819 64.683 17.3568C73.0972 13.3674 78.1011 11.2747 87.2891 9.79337C96.2962 8.34126 101.548 7.59333 110.649 8.22682C120.737 8.92908 126.54 10.8053 136.269 13.5751C144.523 15.9248 149.045 17.8412 156.615 21.8948C164.464 26.0982 168.849 28.7689 175.453 34.7525C182.277 40.9358 185.474 45.194 190.524 52.9047C195.079 59.8593 197.358 64.0393 200.32 71.8131C204.402 82.5264 205.336 89.129 206.348 100.554C207.104 109.086 207.324 113.978 206.348 122.488Z" fill="#FFAB0B"/>
<path d="M200.348 117.495C199.238 127.173 197.751 132.583 194.32 141.696C191.297 149.727 189.442 154.334 184.524 161.359C179.737 168.196 176.054 171.435 169.918 176.832L169.453 177.241C162.636 183.238 158.637 186.616 150.615 190.854C141.953 195.429 136.374 196.781 126.993 199.053L126.501 199.173C115.254 201.899 108.68 203.276 97.1134 202.954C84.8253 202.612 77.7372 201.212 66.2183 196.904C55.4783 192.887 49.6932 189.535 40.598 182.535C32.342 176.18 28.0021 171.981 21.7596 163.628C15.5171 155.274 12.6451 149.944 8.94942 140.183C5.09456 130.002 4.05721 123.789 2.92113 112.957C1.87372 102.971 1.52457 97.1874 2.92113 87.244C4.37685 76.8795 6.25598 71.1112 10.4565 61.5307C14.0142 53.4164 16.4 48.9144 21.7596 41.8676C27.3149 34.5634 31.1899 30.9722 38.3374 25.2296C45.6672 19.3405 50.1933 16.3977 58.683 12.3729C67.0972 8.38384 72.1011 6.29132 81.2891 4.81016C90.2962 3.35818 95.5481 4.17673 104.649 4.81016C114.738 5.51237 120.54 5.82203 130.269 8.59153C138.523 10.9411 143.045 12.8573 150.615 16.9105C158.464 21.1136 162.849 23.7841 169.453 29.7672C176.277 35.9499 179.474 40.2078 184.524 47.9178C189.079 54.8719 191.358 59.0515 194.32 66.8246C198.402 77.5371 199.336 84.139 200.348 95.5631C201.104 104.094 201.324 108.986 200.348 117.495Z" stroke="#7263B1" stroke-width="2"/>
<path d="M102.656 115.104C102.656 115.104 106.858 111.343 109.839 109.323C113.335 106.954 115.455 105.816 119.334 104.145C122.422 102.814 124.182 102.026 127.472 101.329C131.224 100.534 133.502 99.9579 137.27 100.673C140.901 101.362 142.51 102.227 145.812 103.886C149.249 105.612 151.386 107.112 154.507 109.36C158.065 111.922 159.572 112.371 162.497 115.638C164.19 117.528 166.468 118.4 166.72 122.168C166.846 124.053 165.038 125.309 163.154 125.435C159.385 125.688 159.739 124.907 155.415 122.925C153.502 122.049 150.691 120.214 150.691 120.214M147.424 116.647L150.691 120.214M150.691 120.214C150.691 120.214 153.332 125.528 152.703 127.649C152.021 129.951 150.025 130.857 147.63 131.017C145.369 131.169 144.039 130.404 142.203 129.11C140.612 127.988 140.204 126.821 138.923 125.355M135.643 121.6C135.643 121.6 137.642 123.889 138.923 125.355M138.923 125.355C139.723 126.681 139.804 127.891 139.188 129.312C138.602 130.665 137.69 131.216 136.325 131.774C133.735 132.835 131.871 131.264 129.391 129.968C126.803 128.615 125.542 126.548 123.008 125.096C120.773 123.816 119.996 123.636 117.556 122.812C114.857 121.9 112.215 121.422 109.792 119.925C104.264 116.51 103.373 115.633 98.6855 112.342C95.0966 109.822 93.0374 108.263 89.1873 106.164C86.0579 104.458 84.0293 103.148 80.5942 102.198C77.0776 101.225 75.0947 101.451 71.4493 101.296C68.5022 101.171 66.7835 101.123 63.9128 101.801C61.1893 102.445 59.779 102.606 57.2308 103.763C55.7844 104.419 54.4643 104.934 53.614 106.276C52.6667 107.771 52.7122 108.703 53.8664 110.044C55.4053 111.833 57.6368 111.159 59.9966 111.148C62.3748 111.136 66.0259 110.744 66.0259 110.744C66.0259 110.744 62.4369 111.448 60.0471 111.901C57.7286 112.341 56.1543 112.619 54.1188 113.813C52.9895 114.475 51.9083 114.718 51.2556 116.275C50.9136 117.092 51.4071 118.536 51.4071 118.536C52.3222 121.181 55.5542 120.092 58.3414 120.343C60.9856 120.581 65.1243 119.889 65.1243 119.889C65.1243 119.889 61.5636 121.562 59.2465 122.554C57.5314 123.288 57.036 123.459 54.8255 124.364C53.3746 124.958 52.456 125.437 51.9624 126.827C51.5675 127.939 52.1643 129.841 52.1643 129.841C53.6522 132.04 56.3866 130.883 59.0355 130.706C62.2731 130.489 64.0882 130.367 67.3257 130.151C71.1519 129.894 73.3782 128.67 77.1233 129.494C81.3185 130.418 82.9905 132.752 86.5836 135.106C90.4378 137.631 92.2445 138.733 96.0818 141.283C100.852 144.454 103.848 146.551 108.746 149.519C113.086 152.15 115.097 154.448 119.802 156.349C125.175 158.521 128.596 158.704 134.374 159.158C141.873 159.749 146.217 159.35 153.592 157.871C159.695 156.648 163.254 155.914 168.79 153.068C173.74 150.524 176.513 148.762 180.343 144.724C183.228 141.682 184.858 139.806 186.571 135.979C188.21 132.317 188.929 125.98 188.929 125.98" stroke="#7263B1" stroke-width="2"/>
<path d="M20 120C20 120 22.1876 127.031 24.5556 131.084C26.9595 135.198 28.7007 137.352 32.1481 140.69C36.058 144.476 38.6938 146.25 43.537 148.818C48.8092 151.614 52.0558 152.946 57.963 153.991C64.0893 155.074 66.9422 155.225 73.1481 154.73C78.8326 154.277 82.9299 153.551 88.3333 151.774C94.1176 149.872 102 144.385 102 144.385" stroke="#7263B1" stroke-width="2"/>
<path d="M153 107L159 101" stroke="#7263B1" stroke-width="2"/>
<ellipse cx="4" cy="6" rx="4" ry="6" transform="matrix(-1 0 0 1 106 34)" fill="#2F245E"/>
<ellipse cx="4.5" cy="6" rx="4.5" ry="6" transform="matrix(-1 0 0 1 88 34)" fill="#2F245E"/>
<path d="M95.411 89.8904C96.4979 89.1053 96.5547 87.5065 95.4037 86.8188C93.2272 85.5185 90.6223 84.6166 87.7195 84.1687C84.1735 83.6215 80.29 83.7682 76.3743 84.5916C75.6388 84.7462 75.1509 85.4358 75.219 86.1842C75.3034 87.1126 76.195 87.7445 77.1113 87.5733C80.1489 87.0056 83.1481 86.9285 85.903 87.3536C88.5465 87.7615 90.8937 88.6208 92.803 89.8714C93.5979 90.392 94.6406 90.4469 95.411 89.8904Z" fill="#2F245E"/>
<path d="M72 63.5C72 70.403 77.597 76 84.5 76C91.403 76 97 70.403 97 63.5C97 56.597 91.403 51 84.5 51C77.597 51 72 56.597 72 63.5Z" fill="#CF2F05"/>
<path d="M83.9219 58.3691C83.9219 60.8318 85.9182 62.8281 88.3809 62.8281C90.8436 62.8281 92.8398 60.8318 92.8398 58.3691C92.8398 55.9064 90.8436 53.9102 88.3809 53.9102C85.9182 53.9102 83.9219 55.9064 83.9219 58.3691Z" fill="#FFFCF5"/>
<g style="mix-blend-mode:multiply">
<path d="M76.0764 54.2832C75.9832 54.9082 75.9179 55.5425 75.9179 56.1955C75.9179 63.0985 81.5149 68.6955 88.4179 68.6955C91.6641 68.6955 94.6119 67.4455 96.832 65.4119C95.9085 71.4101 90.7499 75.9996 84.4999 75.9996C77.597 75.9996 72 70.4026 72 63.4996C72 59.8429 73.5764 56.5686 76.0764 54.2832Z" fill="#CDD0D1"/>
</g>
</svg>
