<svg width="564" height="209" viewBox="0 0 564 209" fill="none" xmlns="http://www.w3.org/2000/svg">
<path d="M348 148.036C347.264 154.434 346.276 158.011 344 164.036C341.994 169.345 340.763 172.391 337.5 177.036C334.324 181.556 331.88 183.697 327.808 187.265L327.5 187.536C322.977 191.501 320.323 193.734 315 196.536C309.253 199.56 305.551 200.454 299.327 201.957L299 202.036C291.537 203.838 287.175 204.748 279.5 204.536C271.347 204.31 266.643 203.384 259 200.536C251.874 197.88 248.035 195.664 242 191.036C236.522 186.835 233.642 184.058 229.5 178.536C225.358 173.013 223.452 169.489 221 163.036C218.442 156.304 217.754 152.197 217 145.036C216.305 138.433 216.073 134.61 217 128.036C217.966 121.183 219.213 117.37 222 111.036C224.361 105.671 225.944 102.695 229.5 98.0356C233.186 93.2066 235.757 90.8323 240.5 87.0356C245.364 83.1421 248.367 81.1966 254 78.5356C259.583 75.8983 262.904 74.5149 269 73.5356C274.977 72.5757 278.461 73.1168 284.5 73.5356C291.194 73.9999 295.044 74.2046 301.5 76.0356C306.977 77.589 309.977 78.8559 315 81.5356C320.208 84.3144 323.118 86.08 327.5 90.0356C332.028 94.1232 334.149 96.9383 337.5 102.036C340.523 106.633 342.035 109.397 344 114.536C346.709 121.618 347.329 125.983 348 133.536C348.501 139.176 348.647 142.41 348 148.036Z" fill="white" stroke="#7263B1" stroke-width="2"/>
<path d="M385.348 122.488C384.238 132.167 382.751 137.577 379.32 146.691C376.297 154.722 374.442 159.33 369.524 166.355C364.737 173.193 361.054 176.433 354.918 181.83L354.453 182.238C347.636 188.236 343.637 191.615 335.615 195.853C326.953 200.428 321.374 201.78 311.993 204.053L311.501 204.172C300.254 206.899 293.68 208.276 282.113 207.954C269.825 207.612 262.737 206.212 251.218 201.903C240.478 197.886 234.693 194.534 225.598 187.533C217.342 181.178 213.002 176.979 206.76 168.624C200.517 160.27 197.645 154.94 193.949 145.178C190.095 134.996 189.057 128.783 187.921 117.95C186.874 107.962 186.525 102.178 187.921 92.2342C189.377 81.8688 191.256 76.1 195.456 66.5187C199.014 58.4037 201.4 53.9014 206.76 46.8539C212.315 39.5492 216.19 35.9576 223.337 30.2145C230.667 24.3249 235.193 21.3819 243.683 17.3568C252.097 13.3674 257.101 11.2747 266.289 9.79337C275.296 8.34126 280.548 7.59333 289.649 8.22682C299.737 8.92908 305.54 10.8053 315.269 13.5751C323.523 15.9248 328.045 17.8412 335.615 21.8948C343.464 26.0982 347.849 28.7689 354.453 34.7525C361.277 40.9358 364.474 45.194 369.524 52.9047C374.079 59.8593 376.358 64.0393 379.32 71.8131C383.402 82.5264 384.336 89.129 385.348 100.554C386.104 109.086 386.324 113.978 385.348 122.488Z" fill="#FFAB0B"/>
<path d="M379.348 117.495C378.238 127.173 376.751 132.583 373.32 141.696C370.297 149.727 368.442 154.334 363.524 161.359C358.737 168.196 355.054 171.435 348.918 176.832L348.453 177.241C341.636 183.238 337.637 186.616 329.615 190.854C320.953 195.429 315.374 196.781 305.993 199.053L305.501 199.173C294.254 201.899 287.68 203.276 276.113 202.954C263.825 202.612 256.737 201.212 245.218 196.904C234.478 192.887 228.693 189.535 219.598 182.535C211.342 176.18 207.002 171.981 200.76 163.628C194.517 155.274 191.645 149.944 187.949 140.183C184.095 130.002 183.057 123.789 181.921 112.957C180.874 102.971 180.525 97.1874 181.921 87.244C183.377 76.8795 185.256 71.1112 189.456 61.5307C193.014 53.4164 195.4 48.9144 200.76 41.8676C206.315 34.5634 210.19 30.9722 217.337 25.2296C224.667 19.3405 229.193 16.3977 237.683 12.3729C246.097 8.38384 251.101 6.29132 260.289 4.81016C269.296 3.35818 274.548 4.17673 283.649 4.81016C293.738 5.51237 299.54 5.82203 309.269 8.59153C317.523 10.9411 322.045 12.8573 329.615 16.9105C337.464 21.1136 341.849 23.7841 348.453 29.7672C355.277 35.9499 358.474 40.2078 363.524 47.9178C368.079 54.8719 370.358 59.0515 373.32 66.8246C377.402 77.5371 378.336 84.139 379.348 95.5631C380.104 104.094 380.324 108.986 379.348 117.495Z" stroke="#7263B1" stroke-width="2"/>
<path d="M281.656 115.104C281.656 115.104 285.858 111.343 288.839 109.323C292.335 106.954 294.455 105.816 298.334 104.145C301.422 102.814 303.182 102.026 306.472 101.329C310.224 100.534 312.502 99.9579 316.27 100.673C319.901 101.362 321.51 102.227 324.812 103.886C328.249 105.612 330.386 107.112 333.507 109.36C337.065 111.922 338.572 112.371 341.497 115.638C343.19 117.528 345.468 118.4 345.72 122.168C345.846 124.053 344.038 125.309 342.154 125.435C338.385 125.688 338.739 124.907 334.415 122.925C332.502 122.049 329.691 120.214 329.691 120.214M326.424 116.647L329.691 120.214M329.691 120.214C329.691 120.214 332.332 125.528 331.703 127.649C331.021 129.951 329.025 130.857 326.63 131.017C324.369 131.169 323.039 130.404 321.203 129.11C319.612 127.988 319.204 126.821 317.923 125.355M314.643 121.6C314.643 121.6 316.642 123.889 317.923 125.355M317.923 125.355C318.723 126.681 318.804 127.891 318.188 129.312C317.602 130.665 316.69 131.216 315.325 131.774C312.735 132.835 310.871 131.264 308.391 129.968C305.803 128.615 304.542 126.548 302.008 125.096C299.773 123.816 298.996 123.636 296.556 122.812C293.857 121.9 291.215 121.422 288.792 119.925C283.264 116.51 282.373 115.633 277.685 112.342C274.097 109.822 272.037 108.263 268.187 106.164C265.058 104.458 263.029 103.148 259.594 102.198C256.078 101.225 254.095 101.451 250.449 101.296C247.502 101.171 245.784 101.123 242.913 101.801C240.189 102.445 238.779 102.606 236.231 103.763C234.784 104.419 233.464 104.934 232.614 106.276C231.667 107.771 231.712 108.703 232.866 110.044C234.405 111.833 236.637 111.159 238.997 111.148C241.375 111.136 245.026 110.744 245.026 110.744C245.026 110.744 241.437 111.448 239.047 111.901C236.729 112.341 235.154 112.619 233.119 113.813C231.99 114.475 230.908 114.718 230.256 116.275C229.914 117.092 230.407 118.536 230.407 118.536C231.322 121.181 234.554 120.092 237.341 120.343C239.986 120.581 244.124 119.889 244.124 119.889C244.124 119.889 240.564 121.562 238.247 122.554C236.531 123.288 236.036 123.459 233.826 124.364C232.375 124.958 231.456 125.437 230.962 126.827C230.567 127.939 231.164 129.841 231.164 129.841C232.652 132.04 235.387 130.883 238.036 130.706C241.273 130.489 243.088 130.367 246.326 130.151C250.152 129.894 252.378 128.67 256.123 129.494C260.318 130.418 261.991 132.752 265.584 135.106C269.438 137.631 271.244 138.733 275.082 141.283C279.852 144.454 282.848 146.551 287.746 149.519C292.086 152.15 294.097 154.448 298.802 156.349C304.175 158.521 307.596 158.704 313.374 159.158C320.873 159.749 325.217 159.35 332.592 157.871C338.695 156.648 342.254 155.914 347.79 153.068C352.74 150.524 355.513 148.762 359.343 144.724C362.228 141.682 363.858 139.806 365.571 135.979C367.21 132.317 367.929 125.98 367.929 125.98" stroke="#7263B1" stroke-width="2"/>
<path d="M199 120C199 120 201.188 127.031 203.556 131.084C205.96 135.198 207.701 137.352 211.148 140.69C215.058 144.476 217.694 146.25 222.537 148.818C227.809 151.614 231.056 152.946 236.963 153.991C243.089 155.074 245.942 155.225 252.148 154.73C257.833 154.277 261.93 153.551 267.333 151.774C273.118 149.872 281 144.385 281 144.385" stroke="#7263B1" stroke-width="2"/>
<path d="M332 107L338 101" stroke="#7263B1" stroke-width="2"/>
<ellipse cx="4" cy="6" rx="4" ry="6" transform="matrix(-1 0 0 1 285 34)" fill="#2F245E"/>
<ellipse cx="4.5" cy="6" rx="4.5" ry="6" transform="matrix(-1 0 0 1 267 34)" fill="#2F245E"/>
<path d="M274.411 89.8904C275.498 89.1053 275.555 87.5065 274.404 86.8188C272.227 85.5185 269.622 84.6166 266.72 84.1687C263.174 83.6215 259.29 83.7682 255.374 84.5916C254.639 84.7462 254.151 85.4358 254.219 86.1842C254.303 87.1126 255.195 87.7445 256.111 87.5733C259.149 87.0056 262.148 86.9285 264.903 87.3536C267.546 87.7615 269.894 88.6208 271.803 89.8714C272.598 90.392 273.641 90.4469 274.411 89.8904Z" fill="#2F245E"/>
<path d="M251 63.5C251 70.403 256.597 76 263.5 76C270.403 76 276 70.403 276 63.5C276 56.597 270.403 51 263.5 51C256.597 51 251 56.597 251 63.5Z" fill="#CF2F05"/>
<path d="M262.922 58.3691C262.922 60.8318 264.918 62.8281 267.381 62.8281C269.844 62.8281 271.84 60.8318 271.84 58.3691C271.84 55.9064 269.844 53.9102 267.381 53.9102C264.918 53.9102 262.922 55.9064 262.922 58.3691Z" fill="#FFFCF5"/>
<g style="mix-blend-mode:multiply">
<path d="M255.076 54.283C254.983 54.908 254.918 55.5423 254.918 56.1953C254.918 63.0983 260.515 68.6953 267.418 68.6953C270.664 68.6953 273.612 67.4453 275.832 65.4117C274.909 71.4098 269.75 75.9994 263.5 75.9994C256.597 75.9994 251 70.4023 251 63.4994C251 59.8427 252.576 56.5684 255.076 54.283Z" fill="#CDD0D1"/>
</g>
<path d="M128.7 141.405H145.2V170.505H128.7V208.005H95.4V170.505H4.2V141.405L91.2 8.50507H128.7V141.405ZM95.4 141.405V73.0051C95.4 70.0051 96 67.0051 96.9 64.0051L101.7 46.3051L97.5 45.1051L93.3 59.5051C92.4 62.5051 91.2 65.8051 89.4 68.5051L48.9 130.305C45.6 135.105 41.1 139.005 36 141.705L32.1 143.505L34.2 147.405L39.3 145.005C44.1 142.605 49.2 141.405 54.3 141.405H95.4Z" fill="#FFAB0B"/>
<path d="M546.7 133.7H563.2V162.8H546.7V200.3H513.4V162.8H422.2V133.7L509.2 0.79999H546.7V133.7ZM513.4 133.7V65.3C513.4 62.3 514 59.3 514.9 56.3L519.7 38.6L515.5 37.4L511.3 51.8C510.4 54.8 509.2 58.1 507.4 60.8L466.9 122.6C463.6 127.4 459.1 131.3 454 134L450.1 135.8L452.2 139.7L457.3 137.3C462.1 134.9 467.2 133.7 472.3 133.7H513.4Z" fill="#FFAB0B"/>
</svg>
