<?xml version="1.0" encoding="utf-8"?>
<!-- Generator: Adobe Illustrator 27.2.0, SVG Export Plug-In . SVG Version: 6.00 Build 0)  -->
<svg version="1.1" id="Layer_1" xmlns="http://www.w3.org/2000/svg" xmlns:xlink="http://www.w3.org/1999/xlink" x="0px" y="0px"
	 viewBox="0 0 168 164" style="enable-background:new 0 0 168 164;" xml:space="preserve">
<style type="text/css">
	.st0{fill:#E93405;}
	.st1{fill:none;stroke:#FFAB0B;stroke-width:1.4226;}
	.st2{fill:#FFFFFF;stroke:#FFAB0B;stroke-width:1.4226;}
	.st3{fill:#2F245E;}
	.st4{fill:#FFAB0B;}
	.st5{fill:#FFFCF5;}
	.st6{opacity:0.3;}
	.st7{fill:#231F20;}
	.st8{fill:#7263B1;}
</style>
<path class="st0" d="M32.7,74.7c3.8-2.5,10.3-5.3,10.3-5.3v14.9l-2.5,13.9c0,0-3.4,1.7-5,3.6c-1.8,2.2-1.9,4-2.8,6.8
	c-0.7,2-1.2,3.2-1.4,5.3c-0.2,1.9-0.4,3.1,0,5c0.3,1.5,1.1,2.1,1.4,3.6c0.4,1.8,0.8,3,0,4.6c-0.4,0.8-0.6,1.5-1.4,1.8
	c-1.2,0.4-1.9-0.9-2.8-1.8c-1.6-1.4-2.8-4.6-2.8-4.6s0.7,4,0,6.4c-0.6,1.8-0.7,3.5-2.5,4.3c-1.2,0.5-2.1,0.5-3.2,0
	c-1.7-0.8-2.8-4.3-2.8-4.3s-0.8,2-2.1,2.8c-1.6,0.9-2.9,2-4.6,1.4c-1-0.3-1.6-0.8-2.1-1.8c-0.9-1.4,0-4.3,0-4.3s-1.2,3.6-3.2,4.3
	c-1.2,0.4-2.2,0.8-3.2,0c-1.3-1-1.1-2.6-1.1-4.3c0-3.2,0.4-5.1,1.1-8.2c1.1-5,1.6-6.4,3.2-10.3c1.7-4.2,2.9-6.5,5.3-10.3
	c2.6-4,4.4-6.4,7.5-9.6l7.8-8.2C28.6,77.2,29.7,76.7,32.7,74.7z"/>
<path class="st1" d="M10.3,124.9c0,0-1.2,3.6-3.2,4.3c-1.2,0.4-2.2,0.8-3.2,0c-1.3-1-1.1-2.6-1.1-4.3c0-3.2,0.4-5.1,1.1-8.2
	c1.1-5,1.6-6.4,3.2-10.3c1.7-4.2,2.9-6.5,5.3-10.3c2.6-4,4.4-6.4,7.5-9.6c3.1-3.2,4.8-5,7.8-8.2c3.1-3.2,4.2-3.7,7.1-5.7
	c3.8-2.5,10.3-5.3,10.3-5.3v14.9L42.7,96c0,0-3.4,1.7-5,3.6c-1.8,2.2-1.9,4-2.8,6.8c-0.7,2-1.2,3.2-1.4,5.3c-0.2,1.9-0.4,3.1,0,5
	c0.3,1.5,1.1,2.1,1.4,3.6c0.4,1.8,0.8,3,0,4.6c-0.4,0.8-0.6,1.5-1.4,1.8c-1.2,0.4-1.9-0.9-2.8-1.8c-1.6-1.4-2.8-4.6-2.8-4.6
	s0.7,4,0,6.4c-0.6,1.8-0.7,3.5-2.5,4.3c-1.2,0.5-2.1,0.5-3.2,0c-1.7-0.8-2.8-4.3-2.8-4.3 M10.3,124.9l2.1-4.6 M10.3,124.9
	c0,0-0.9,2.8,0,4.3c0.6,0.9,1.1,1.5,2.1,1.8c1.7,0.5,3.1-0.5,4.6-1.4c1.4-0.8,2.1-2.8,2.1-2.8 M19.2,126.6l0.7-4.6"/>
<path class="st0" d="M112.4,67.2c0,0,4.2-0.4,6.4-1.8c1.7-1.1,2.4-1.8,3.2-3.6c0.9-2,0.7-4.6,0.7-6.8c0-3.5-0.4-4.4-0.4-7.8
	c0-2.2-0.3-3.5,0-5.7c0.3-2.4,0.7-3.8,1.8-6c1-2,1.9-3.2,3.2-5c1.1-1.4,1.7-2.8,3.2-1.8c1.1,0.7,0.9,1.8,0.7,2.5
	c-0.5,2.1-0.7,2.5-0.7,4.3c2.4-0.7,3.6-1.4,6-1.8c2.5-0.4,3.9-0.5,6.4,0c2,0.4,2.8,0.4,5,1.8c1.7,1.1,2.9,1.7,3.6,3.6
	c0.9,2.4-0.1,4.2-1.4,6.4c-1,1.7-3.2,3.6-3.2,3.6s-1.4,6.1-2.5,10c-1,3.3-1.4,4.6-2.5,7.8c-1.6,4.6-2.8,6.8-5.3,10.3
	c-2,2.8-3.4,4.2-6,6.4c-2.3,1.9-3.7,2.9-6.4,4.3c-2.9,1.5-7.8,2.8-7.8,2.8l-3.9-11.4V67.2z"/>
<path class="st1" d="M133.3,34.2c0-1.8,0.2-2.2,0.7-4.3c0.2-0.7,0.4-1.8-0.7-2.5c-1.5-1-2.5,0-3.6,1.4c-1.3,1.8-2.3,3.4-3.2,5.3
	c-1.1,2.2-1.1,3.6-1.4,6c-0.3,2.2,0,3.5,0,5.7c0,3.5,0.4,4.4,0.4,7.8c0,2.1,0.2,4.7-0.7,6.8c-0.8,1.8-1.5,2.5-3.2,3.6
	c-2.2,1.4-6.4,1.8-6.4,1.8v12.1l3.9,11.4c0,0,4.9-1.4,7.8-2.8c2.7-1.4,4.1-2.3,6.4-4.3c2.6-2.2,4-3.6,6-6.4
	c2.5-3.5,3.7-5.7,5.3-10.3c1.1-3.2,1.5-4.6,2.5-7.8c1.1-3.8,2.5-10,2.5-10 M133.3,34.2c-1.2,1.4-1.5,2.2-2.1,3.9
	c-0.6,1.7-0.9,2.6-1.4,4.3c-0.4,1.1-0.7,2.6,0.4,3.6c0.9,0.8,2.2,0.8,3.2,0c1.8-1.4,1.8-2.1,2.8-3.6c0.6-0.8,1.4-2.1,1.4-2.1
	s-0.7,3.6,0,5.7c0.3,0.9,0.8,1.5,1.8,1.8c1.4,0.4,2.5-1.1,3.2-1.8c0.7-0.7,1-1.1,1.6-1.8 M133.3,34.2c2.4-0.7,3.6-1.4,6-1.8
	c2.5-0.4,3.9-0.5,6.4,0c2,0.4,2.8,0.4,5,1.8c1.7,1.1,2.9,1.7,3.6,3.6c0.9,2.4-0.1,4.2-1.4,6.4c-1,1.7-3.2,3.6-3.2,3.6 M145.4,41.6
	c0,0-0.6,1.8-1.2,2.5 M144.2,44.1c0.2,1.8,0.6,3.4,2.3,3.9c0.8,0.2,3.2-0.4,3.2-0.4"/>
<path class="st0" d="M48,118.8c0-2.8,0.7-8.2,0.7-8.2l12.8,6l7.5,6.8c0,0-0.7,6.3-1.4,10.3c-0.6,3.1-1.1,4.8-1.8,7.8
	c-1,4.4-1.5,6.9-2.5,11.4c-0.7,2.9-0.7,5-1.8,7.5c-0.4,0.8-0.6,1.6-1.4,1.8c-1.4,0.4-4.3,0-7.1,0h-6.8h-7.8c-1.4,0-3,0.5-3.6-0.7
	c-0.1-0.2-0.2-0.4,0-1.1c0.5-1.5,2.1-1.1,3.6-1.8c1.8-0.8,3-0.8,4.6-1.8c1.4-0.8,2.3-1.2,3.2-2.5c2-2.7,1.1-5.2,1.4-8.5
	c0.3-3.4,0-5.3,0-8.5v-8.2C47.6,125.2,48,122.7,48,118.8z"/>
<path class="st1" d="M50.1,117.4c0-2.8,0.7-8.2,0.7-8.2l12.8,6l7.5,6.8c0,0-0.7,6.3-1.4,10.3c-0.6,3.1-1.1,4.8-1.8,7.8
	c-1,4.4-1.5,6.9-2.5,11.4c-0.7,2.9-0.7,5-1.8,7.5c-0.4,0.8-0.6,1.6-1.4,1.8c-1.4,0.4-4.3,0-7.1,0h-6.8h-7.8c-1.4,0-3,0.5-3.6-0.7
	c-0.1-0.2-0.2-0.4,0-1.1c0.5-1.5,2.1-1.1,3.6-1.8c1.8-0.8,3-0.8,4.6-1.8c1.4-0.8,2.3-1.2,3.2-2.5c2-2.7,1.1-5.2,1.4-8.5
	c0.3-3.4,0-5.3,0-8.5v-8.2C49.8,123.8,50.1,121.3,50.1,117.4z"/>
<path class="st0" d="M86,133c-0.3-3.6-0.7-8.9-0.7-8.9l9.2-2.5l11.4-8.9v8.9v6v10v9.6v7.1c0,1.8,0.7,2.1,2.8,2.8
	c2.4,0.8,2.8,1.1,6,2.1c1.4,0.5,2.1,0.4,3.2,1.8c0.6,0.8,0.9,1.7,0,2.1c-0.7,0.4-2.5,0.4-3.2,0.4h-6H101c-2.5,0-5.7,0.3-6.4,0
	c-1.6-0.6-2.4-1.2-3.6-2.5c-2.4-2.7-2.3-7.5-2.5-8.9c-0.2-1.4-1.4-10.7-1.4-10.7S86.3,136.1,86,133z"/>
<path class="st1" d="M88.2,131.6c-0.3-3.6-0.7-8.9-0.7-8.9l9.2-2.5l11.4-8.9v8.9v6v10v9.6v7.1c0,1.8,0.7,2.1,2.8,2.8
	c2.4,0.8,2.8,1.1,6,2.1c1.4,0.5,2.1,0.4,3.2,1.8c0.6,0.8,0.9,1.7,0,2.1c-0.7,0.4-2.5,0.4-3.2,0.4h-6h-7.8c-2.5,0-5.7,0.3-6.4,0
	c-1.6-0.6-2.4-1.2-3.6-2.5c-2.4-2.7-2.3-7.5-2.5-8.9c-0.2-1.4-1.4-10.7-1.4-10.7S88.5,134.7,88.2,131.6z"/>
<path class="st2" d="M44.1,64.4c2.3-3.8,4.3-5.5,7.5-8.5c2.7-2.6,4.3-4.1,7.5-6c3-1.9,4.8-2.9,8.2-3.9c4.1-1.3,6.7-1.4,11-1.4
	c4.9-0.1,7.7,0.4,12.4,1.4c4.7,1,7.5,1.6,11.7,3.9c4,2.2,6.2,3.8,9.2,7.1c3.4,3.6,4.7,6.2,6.8,10.7c1.8,4,2.5,6.4,3.2,10.7
	c0.9,5.6,1,9,0,14.6c-0.7,4-1.4,6.3-3.2,10c-2.3,4.6-4,7.1-7.8,10.7c-3.8,3.6-6.6,5-11.4,7.1c-5.1,2.3-8.3,3.2-13.9,3.9
	c-4.5,0.6-7.2,0.7-11.7,0c-4.8-0.8-7.4-1.8-11.7-3.9c-4.4-2.2-6.6-3.9-10.3-7.1c-3.2-2.8-5.1-4.3-7.5-7.8c-2.2-3.3-3.1-5.5-4.3-9.2
	c-1.3-4.2-1.8-6.7-1.8-11c0-4.1,0.7-6.4,1.8-10.2l0-0.1C41,70.7,41.7,68.2,44.1,64.4z"/>
<path class="st0" d="M43,64.9c2.3-3.8,4.3-5.5,7.5-8.5c2.7-2.6,4.3-4.1,7.5-6c3-1.9,4.8-2.9,8.2-3.9c4.1-1.3,6.7-1.4,11-1.4
	c4.9-0.1,7.7,0.4,12.4,1.4c4.7,1,7.5,1.6,11.7,3.9c4,2.2,6.2,3.8,9.2,7.1c3.4,3.6,4.7,6.2,6.8,10.7c1.8,4,2.5,6.4,3.2,10.7
	c0.9,5.6,1,9,0,14.6c-0.7,4-1.4,6.3-3.2,10c-2.3,4.6-4,7.1-7.8,10.7c-3.8,3.6-6.6,5-11.4,7.1c-5.1,2.3-8.3,3.2-13.9,3.9
	c-4.5,0.6-7.2,0.7-11.7,0c-4.8-0.8-7.4-1.8-11.7-3.9c-4.4-2.2-6.6-3.9-10.3-7.1c-3.2-2.8-5.1-4.3-7.5-7.8c-2.2-3.3-3.1-5.5-4.3-9.2
	c-1.3-4.2-1.8-6.7-1.8-11c0-4.1,0.7-6.4,1.8-10.2l0-0.1C40,71.3,40.7,68.7,43,64.9z"/>
<path class="st1" d="M44.1,64.4c2.3-3.8,4.3-5.5,7.5-8.5c2.7-2.6,4.3-4.1,7.5-6c3-1.9,4.8-2.9,8.2-3.9c4.1-1.3,6.7-1.4,11-1.4
	c4.9-0.1,7.7,0.4,12.4,1.4c4.7,1,7.5,1.6,11.7,3.9c4,2.2,6.2,3.8,9.2,7.1c3.4,3.6,4.7,6.2,6.8,10.7c1.8,4,2.5,6.4,3.2,10.7
	c0.9,5.6,1,9,0,14.6c-0.7,4-1.4,6.3-3.2,10c-2.3,4.6-4,7.1-7.8,10.7c-3.8,3.6-6.6,5-11.4,7.1c-5.1,2.3-8.3,3.2-13.9,3.9
	c-4.5,0.6-7.2,0.7-11.7,0c-4.8-0.8-7.4-1.8-11.7-3.9c-4.4-2.2-6.6-3.9-10.3-7.1c-3.2-2.8-5.1-4.3-7.5-7.8c-2.2-3.3-3.1-5.5-4.3-9.2
	c-1.3-4.2-1.8-6.7-1.8-11c0-4.1,0.7-6.4,1.8-10.2l0-0.1C41,70.7,41.7,68.2,44.1,64.4z"/>
<ellipse class="st3" cx="76.1" cy="60.8" rx="2.5" ry="2.8"/>
<ellipse class="st3" cx="85.3" cy="60.8" rx="2.5" ry="2.8"/>
<path class="st3" d="M83.9,76.9c0.3,0.3,0.3,0.8,0,1.1c-1.7,1.5-3.9,2.4-6.2,2.7c-2.5,0.3-5.1-0.3-7.3-1.6c-2.2-1.4-3.8-3.4-4.7-5.8
	c-0.8-2.2-0.9-4.5-0.3-6.7c0.1-0.4,0.6-0.7,1-0.5c0.4,0.1,0.6,0.6,0.5,1c-0.5,1.9-0.4,3.8,0.3,5.7c0.7,2.1,2.2,3.8,4.1,5
	s4.1,1.7,6.3,1.4c1.9-0.2,3.7-1,5.2-2.3C83.1,76.5,83.6,76.5,83.9,76.9z"/>
<path class="st4" d="M49.5,61c0,0,22.7,2.4,43-14.5c0.4,0.2-38.7-37.4-38.7-37.4L49.5,61L49.5,61z"/>
<path class="st5" d="M74,38.4l2.8,2.5l3.8-0.7l-1.7,3.2l1.9,3.1L77,46.1l-2.6,2.7l-0.7-3.6l-3.5-1.5l3.4-1.7L74,38.4z"/>
<path class="st5" d="M53.1,18.9L53.1,18.9l-0.6,5.9l0.7-0.7l3.8,0.5l-1.9-3.1l1.7-3.2L53.1,18.9z"/>
<path class="st5" d="M63.1,24.9l1.3,1.2l1.8-0.3l-0.8,1.6l0.9,1.5l-1.9-0.2l-1.3,1.3l-0.3-1.7l-1.7-0.7l1.6-0.8L63.1,24.9z"/>
<path class="st5" d="M55.8,37.8l1.3,1.2l1.8-0.3l-0.8,1.5l0.9,1.5l-1.9-0.2L56,42.8l-0.3-1.7L54,40.4l1.6-0.8L55.8,37.8z"/>
<path class="st5" d="M58.2,52.5l1.3,1.2l1.8-0.3l-0.8,1.6l0.9,1.5l-1.9-0.2l-1.3,1.3L58,55.7L56.3,55l1.6-0.8L58.2,52.5z"/>
<g class="st6">
	<path class="st7" d="M92.5,46.5c0.3,0.1-33.8-32.6-38.2-37c-0.2,0-0.4,0.1-0.5,0.1l-0.5,5.4c0.6-0.2,1.3-0.3,2-0.5
		c4.3-1.3,9.4,8.9,16.7,17.9c6.8,8.4,11.6,18.1-22,22L49.5,61C49.5,61,72.2,63.5,92.5,46.5L92.5,46.5z"/>
</g>
<path class="st8" d="M58.9,4.7c1.2,3.1-0.6,6.5-3.9,7.6c-3.4,1.1-7.1-0.5-8.3-3.6c-1.2-3.1,0.6-6.5,3.9-7.6
	C54-0.1,57.7,1.5,58.9,4.7z"/>
<g class="st6">
	<path class="st7" d="M54.2,0.8C54.2,0.8,54.2,0.8,54.2,0.8c1.2,3.1-0.5,6.6-3.9,7.7c-1.2,0.4-2.4,0.4-3.5,0.2
		c1.2,3.1,4.9,4.7,8.2,3.6c3.4-1.1,5.1-4.5,3.9-7.6C58.1,2.6,56.3,1.2,54.2,0.8L54.2,0.8z"/>
</g>
<path class="st0" d="M76.4,70c0,3.3,2.7,6,6,6c3.3,0,6-2.7,6-6c0-3.3-2.7-6-6-6C79.1,64,76.4,66.7,76.4,70z"/>
<path class="st5" d="M82.2,67.6c0,1.2,1,2.2,2.2,2.2c1.2,0,2.2-1,2.2-2.2c0-1.2-1-2.2-2.2-2.2C83.2,65.4,82.2,66.4,82.2,67.6z"/>
<g class="st6">
	<path class="st7" d="M78.4,65.6c0,0.3-0.1,0.6-0.1,0.9c0,3.3,2.7,6,6,6c1.6,0,3-0.6,4.1-1.6c-0.4,2.9-2.9,5.1-6,5.1
		c-3.3,0-6-2.7-6-6C76.4,68.3,77.2,66.7,78.4,65.6z"/>
</g>
</svg>
