<svg width="168" height="164" viewBox="0 0 168 164" fill="none" xmlns="http://www.w3.org/2000/svg">
<path d="M32.6954 74.7062C36.4685 72.1909 43.0091 69.3716 43.0091 69.3716V84.3086L40.5196 98.1788C40.5196 98.1788 37.0801 99.9077 35.5406 101.735C33.6959 103.925 33.5957 105.774 32.6954 108.492C32.0175 110.539 31.5385 111.687 31.2729 113.827C31.0333 115.757 30.8573 116.907 31.2729 118.806C31.5925 120.267 32.3861 120.899 32.6954 122.363C33.0689 124.129 33.4906 125.365 32.6954 126.986C32.3038 127.784 32.112 128.47 31.2729 128.764C30.0365 129.198 29.4009 127.863 28.4277 126.986C26.853 125.566 25.5826 122.363 25.5826 122.363C25.5826 122.363 26.3186 126.375 25.5826 128.764C25.0145 130.608 24.8708 132.282 23.0931 133.032C21.9414 133.518 21.0272 133.556 19.8923 133.032C18.2004 132.251 17.047 128.764 17.047 128.764C17.047 128.764 16.274 130.8 14.9131 131.609C13.3614 132.532 12.0148 133.565 10.2899 133.032C9.25355 132.711 8.7107 132.186 8.156 131.254C7.30374 129.821 8.156 126.986 8.156 126.986C8.156 126.986 6.91975 130.56 4.9552 131.254C3.77648 131.67 2.7544 132.004 1.75441 131.254C0.421086 130.254 0.687183 128.653 0.687183 126.986C0.687183 123.792 1.08526 121.93 1.75441 118.806C2.82105 113.827 3.36776 112.4 4.9552 108.492C6.66212 104.291 7.8541 102.004 10.2899 98.1788C12.8417 94.1716 14.7029 91.7708 17.7584 88.5764L25.5826 80.3965C28.6381 77.2021 29.7356 76.6795 32.6954 74.7062Z" fill="#E93405"/>
<path d="M10.2888 124.852C10.2888 124.852 9.05256 128.426 7.08802 129.12C5.90929 129.536 4.88721 129.87 3.88722 129.12C2.5539 128.12 2.82 126.519 2.82 124.852C2.82 121.658 3.21807 119.796 3.88722 116.672C4.95386 111.693 5.50057 110.266 7.08802 106.359C8.79493 102.158 9.98691 99.8699 12.4227 96.045C14.9745 92.0378 16.8357 89.637 19.8912 86.4426C22.9467 83.2482 24.6598 81.4572 27.7154 78.2628C30.7709 75.0683 31.8684 74.5457 34.8283 72.5725C38.6013 70.0571 45.1419 67.2378 45.1419 67.2378V82.1748L42.6524 96.045C42.6524 96.045 39.2129 97.7739 37.6734 99.6014C35.8287 101.791 35.7285 103.641 34.8283 106.359C34.1504 108.405 33.6714 109.554 33.4057 111.693C33.1661 113.623 32.9902 114.773 33.4057 116.672C33.7253 118.134 34.5189 118.765 34.8283 120.229C35.2017 121.995 35.6235 123.231 34.8283 124.852C34.4366 125.651 34.2448 126.336 33.4057 126.63C32.1693 127.064 31.5338 125.729 30.5605 124.852C28.9858 123.433 27.7154 120.229 27.7154 120.229C27.7154 120.229 28.4514 124.241 27.7154 126.63C27.1473 128.474 27.0036 130.148 25.2259 130.898C24.0742 131.384 23.16 131.422 22.0251 130.898C20.3332 130.117 19.1798 126.63 19.1798 126.63M10.2888 124.852L12.4227 120.229M10.2888 124.852C10.2888 124.852 9.43656 127.688 10.2888 129.12C10.8435 130.052 11.3864 130.578 12.4227 130.898C14.1476 131.432 15.4942 130.399 17.0459 129.476C18.4068 128.666 19.1798 126.63 19.1798 126.63M19.1798 126.63L19.8912 122.007" stroke="#FFAB0B" stroke-width="1.42258"/>
<path d="M112.361 67.2381C112.361 67.2381 116.571 66.8481 118.763 65.4599C120.422 64.409 121.166 63.6984 121.963 61.9035C122.866 59.8728 122.675 57.2802 122.675 55.1463C122.675 51.6741 122.319 50.7942 122.319 47.322C122.319 45.0998 122.018 43.8335 122.319 41.6317C122.652 39.1933 123.016 37.7965 124.097 35.5858C125.062 33.6132 125.98 32.3636 127.298 30.6069C128.365 29.1845 128.99 27.8223 130.499 28.8286C131.566 29.5402 131.388 30.6069 131.21 31.3184C130.693 33.3885 130.499 33.7803 130.499 35.5858C132.86 34.8914 134.109 34.1611 136.545 33.8076C139.019 33.4484 140.49 33.3403 142.946 33.8076C144.975 34.1935 145.792 34.2186 147.925 35.5858C149.579 36.6454 150.798 37.301 151.482 39.1422C152.374 41.5429 151.377 43.3478 150.059 45.5438C149.049 47.2281 146.858 49.1003 146.858 49.1003C146.858 49.1003 145.499 55.2451 144.369 59.0583C143.401 62.3235 142.993 63.6645 141.879 66.8828C140.279 71.5064 139.055 73.6839 136.545 77.1961C134.545 79.9936 133.144 81.4 130.499 83.5977C128.188 85.518 126.772 86.4964 124.097 87.8655C121.203 89.347 116.273 90.7106 116.273 90.7106L112.361 79.33V67.2381Z" fill="#E93405"/>
<path d="M133.343 34.1625C133.343 32.357 133.536 31.9653 134.054 29.8951C134.232 29.1836 134.41 28.1169 133.343 27.4053C131.834 26.399 130.853 27.414 129.786 28.8364C128.469 30.5931 127.529 32.1899 126.564 34.1625C125.483 36.3733 125.496 37.77 125.163 40.2085C124.862 42.4102 125.163 43.6766 125.163 45.8988C125.163 49.371 125.519 50.2508 125.519 53.723C125.519 55.8569 125.71 58.4496 124.807 60.4802C124.01 62.2751 123.266 62.9857 121.607 64.0366C119.414 65.4248 115.205 65.8148 115.205 65.8148V77.9067L119.117 89.2873C119.117 89.2873 124.047 87.9237 126.941 86.4422C129.616 85.0731 131.032 84.0947 133.343 82.1745C135.988 79.9768 137.389 78.5703 139.389 75.7729C141.899 72.2607 143.123 70.0831 144.723 65.4595C145.837 62.2412 146.245 60.9003 147.213 57.635C148.343 53.8218 149.702 47.677 149.702 47.677M133.343 34.1625C132.093 35.5514 131.867 36.326 131.209 38.0749C130.573 39.7648 130.357 40.6294 129.786 42.3423C129.431 43.4095 129.11 44.9697 130.142 45.8988C131.071 46.735 132.367 46.6795 133.343 45.8988C135.121 44.4765 135.156 43.7907 136.188 42.3423C136.769 41.5268 137.611 40.2085 137.611 40.2085C137.611 40.2085 136.899 43.7652 137.611 45.8988C137.921 46.8304 138.444 47.4072 139.389 47.677C140.764 48.0698 141.878 46.6103 142.59 45.8988C143.25 45.238 143.602 44.8468 144.19 44.1205M133.343 34.1625C135.704 33.4681 136.953 32.7378 139.389 32.3843C141.863 32.0252 143.334 31.917 145.79 32.3843C147.819 32.7702 148.635 32.7953 150.769 34.1625C152.423 35.2221 153.642 35.8777 154.326 37.719C155.217 40.1197 154.221 41.9245 152.903 44.1205C151.893 45.8048 149.702 47.677 149.702 47.677M145.435 41.6313C145.435 41.6313 144.815 43.4261 144.19 44.1205M144.19 44.1205C144.373 45.9341 144.741 47.5598 146.502 48.0329C147.306 48.2492 149.702 47.677 149.702 47.677" stroke="#FFAB0B" stroke-width="1.42258"/>
<path d="M47.9872 118.806C47.9872 115.974 48.6985 110.626 48.6985 110.626L61.4967 116.672L68.9652 123.43C68.9652 123.43 68.294 129.747 67.5426 133.743C66.9636 136.823 66.4487 138.51 65.7644 141.567C64.7708 146.007 64.2963 148.515 63.2749 152.948C62.6018 155.87 62.5686 157.927 61.4967 160.417C61.145 161.233 60.9367 161.978 60.0741 162.195C58.6565 162.55 55.739 162.195 52.9612 162.195H46.204H38.3798C36.9909 162.195 35.416 162.74 34.8234 161.484C34.7408 161.308 34.6038 161.075 34.8234 160.417C35.3144 158.944 36.9624 159.273 38.3798 158.638C40.1456 157.848 41.333 157.836 43.0032 156.86C44.3704 156.061 45.2746 155.653 46.204 154.371C48.1602 151.672 47.3535 149.157 47.6266 145.835C47.9034 142.467 47.6266 140.501 47.6266 137.3V129.12C47.6266 125.231 47.9872 122.718 47.9872 118.806Z" fill="#E93405"/>
<path d="M50.122 117.384C50.122 114.551 50.8332 109.204 50.8332 109.204L63.6314 115.25L71.1 122.007C71.1 122.007 70.4288 128.325 69.6774 132.321C69.0983 135.4 68.5835 137.087 67.8992 140.145C66.9056 144.585 66.4311 147.092 65.4097 151.526C64.7365 154.447 64.7034 156.505 63.6314 158.994C63.2797 159.811 63.0715 160.556 62.2089 160.772C60.7913 161.128 57.8737 160.772 55.096 160.772H48.3387H40.5146C39.1257 160.772 37.5508 161.317 36.9581 160.061C36.8755 159.886 36.7385 159.653 36.9581 158.994C37.4492 157.521 39.0972 157.85 40.5146 157.216C42.2804 156.426 43.4678 156.414 45.138 155.438C46.5052 154.639 47.4094 154.23 48.3387 152.948C50.295 150.249 49.4883 147.735 49.7613 144.413C50.0381 141.045 49.7613 139.078 49.7613 135.877V127.698C49.7613 123.809 50.122 121.296 50.122 117.384Z" stroke="#FFAB0B" stroke-width="1.42258"/>
<path d="M86.043 133.032C85.6943 129.438 85.3317 124.141 85.3317 124.141L94.5784 121.651L105.959 112.76V121.651V127.697V137.655V147.258V154.371C105.959 156.149 106.67 156.504 108.804 157.216C111.18 158.008 111.649 158.283 114.85 159.35C116.207 159.802 116.984 159.705 118.051 161.128C118.634 161.906 118.92 162.827 118.051 163.262C117.34 163.617 115.561 163.617 114.85 163.617H108.804H100.98C98.48 163.617 95.2897 163.89 94.5784 163.617C92.9952 163.011 92.171 162.374 91.022 161.128C88.5781 158.477 88.7619 153.659 88.5325 152.237C88.303 150.814 87.1099 141.567 87.1099 141.567C87.1099 141.567 86.3428 136.123 86.043 133.032Z" fill="#E93405"/>
<path d="M88.1758 131.61C87.8271 128.015 87.4645 122.719 87.4645 122.719L96.7112 120.229L108.092 111.338V120.229V126.275V136.233V145.835V152.948C108.092 154.726 108.803 155.082 110.937 155.793C113.312 156.585 113.782 156.86 116.983 157.927C118.339 158.379 119.117 158.283 120.184 159.705C120.767 160.483 121.053 161.405 120.184 161.839C119.472 162.195 117.694 162.195 116.983 162.195H110.937H103.113C100.613 162.195 97.4225 162.467 96.7112 162.195C95.128 161.589 94.3039 160.952 93.1548 159.705C90.7109 157.054 90.8947 152.237 90.6653 150.814C90.4358 149.392 89.2427 140.145 89.2427 140.145C89.2427 140.145 88.4756 134.701 88.1758 131.61Z" stroke="#FFAB0B" stroke-width="1.42258"/>
<path d="M44.0758 64.3928C46.3939 60.6186 48.3313 58.9059 51.5444 55.8573C54.2666 53.2745 55.8333 51.8043 59.0129 49.8114C62.0132 47.9308 63.8136 46.9575 67.1927 45.8993C71.3355 44.6019 73.8769 44.5398 78.2177 44.4767C83.1099 44.4056 85.8887 44.839 90.6652 45.8993C95.3816 46.9462 98.1471 47.5221 102.401 49.8114C106.413 51.9702 108.553 53.581 111.648 56.9243C114.999 60.5435 116.397 63.089 118.405 67.5936C120.177 71.5667 120.89 73.9722 121.606 78.2629C122.544 83.8796 122.633 87.2432 121.606 92.8443C120.87 96.8622 120.193 99.1293 118.405 102.802C116.145 107.448 114.363 109.951 110.581 113.472C106.745 117.043 103.982 118.439 99.2007 120.585C94.0661 122.889 90.9158 123.804 85.3305 124.497C80.782 125.06 78.1215 125.211 73.5943 124.497C68.8222 123.743 66.1831 122.737 61.858 120.585C57.4779 118.404 55.2428 116.675 51.5444 113.472C48.3513 110.706 46.4339 109.152 44.0758 105.647C41.8556 102.348 40.9928 100.197 39.8081 96.4007C38.509 92.2376 37.9827 89.7367 38.0299 85.3758C38.0739 81.311 38.7082 79.0253 39.7904 75.126L39.8081 75.0621C41.0081 70.7379 41.7272 68.2167 44.0758 64.3928Z" fill="white" stroke="#FFAB0B" stroke-width="1.42258"/>
<path d="M43.0488 64.9235C45.3669 61.1494 47.3043 59.4367 50.5174 56.3881C53.2396 53.8052 54.8063 52.3351 57.9859 50.3421C60.9862 48.4615 62.7866 47.4882 66.1657 46.43C70.3085 45.1327 72.8499 45.0706 77.1907 45.0075C82.0829 44.9364 84.8618 45.3698 89.6382 46.43C94.3546 47.477 97.1201 48.0528 101.374 50.3421C105.386 52.501 107.526 54.1118 110.621 57.455C113.972 61.0742 115.37 63.6198 117.378 68.1243C119.15 72.0974 119.863 74.5029 120.579 78.7937C121.517 84.4104 121.606 87.774 120.579 93.3751C119.843 97.3929 119.166 99.6601 117.378 103.333C115.118 107.979 113.336 110.482 109.554 114.002C105.718 117.574 102.955 118.969 98.1737 121.115C93.0391 123.42 89.8888 124.335 84.3036 125.027C79.7551 125.591 77.0945 125.742 72.5673 125.027C67.7952 124.274 65.1561 123.268 60.8311 121.115C56.451 118.935 54.2159 117.206 50.5174 114.002C47.3243 111.237 45.4069 109.683 43.0488 106.178C40.8286 102.879 39.9658 100.728 38.7811 96.9315C37.482 92.7683 36.9557 90.2674 37.0029 85.9065C37.0469 81.8418 37.6812 79.556 38.7634 75.6568L38.7811 75.5929C39.9812 71.2687 40.7002 68.7475 43.0488 64.9235Z" fill="#E93405"/>
<path d="M44.0758 64.3928C46.3939 60.6186 48.3313 58.9059 51.5444 55.8573C54.2666 53.2745 55.8333 51.8043 59.0129 49.8114C62.0132 47.9308 63.8136 46.9575 67.1927 45.8993C71.3355 44.6019 73.8769 44.5398 78.2177 44.4767C83.1099 44.4056 85.8887 44.839 90.6652 45.8993C95.3816 46.9462 98.1471 47.5221 102.401 49.8114C106.413 51.9702 108.553 53.581 111.648 56.9243C114.999 60.5435 116.397 63.089 118.405 67.5936C120.177 71.5667 120.89 73.9722 121.606 78.2629C122.544 83.8796 122.633 87.2432 121.606 92.8443C120.87 96.8622 120.193 99.1293 118.405 102.802C116.145 107.448 114.363 109.951 110.581 113.472C106.745 117.043 103.982 118.439 99.2007 120.585C94.0661 122.889 90.9158 123.804 85.3305 124.497C80.782 125.06 78.1215 125.211 73.5943 124.497C68.8222 123.743 66.1831 122.737 61.858 120.585C57.4779 118.404 55.2428 116.675 51.5444 113.472C48.3513 110.706 46.4339 109.152 44.0758 105.647C41.8556 102.348 40.9928 100.197 39.8081 96.4007C38.509 92.2376 37.9827 89.7367 38.0299 85.3758C38.0739 81.311 38.7082 79.0253 39.7904 75.126L39.8081 75.0621C41.0081 70.7379 41.7272 68.2167 44.0758 64.3928Z" stroke="#FFAB0B" stroke-width="1.42258"/>
<ellipse cx="76.0848" cy="60.8364" rx="2.48951" ry="2.84515" fill="#2F245E"/>
<ellipse cx="85.3309" cy="60.8364" rx="2.48951" ry="2.84515" fill="#2F245E"/>
<path d="M83.922 76.855C84.2336 77.1666 84.2353 77.6741 83.9027 77.9631C82.1767 79.4626 80.0335 80.4118 77.7502 80.6766C75.2019 80.9722 72.6285 80.3982 70.4474 79.0476C68.2663 77.697 66.6055 75.6492 65.7344 73.2362C64.9539 71.0741 64.8484 68.7325 65.4215 66.5192C65.532 66.0926 65.9871 65.868 66.4049 66.008C66.8227 66.1481 67.0444 66.5998 66.9388 67.0276C66.4771 68.8985 66.5769 70.8707 67.2352 72.6944C67.9842 74.769 69.4121 76.5298 71.2874 77.691C73.1627 78.8522 75.3753 79.3458 77.5663 79.0916C79.4923 78.8682 81.3023 78.0786 82.7713 76.8314C83.1072 76.5462 83.6104 76.5434 83.922 76.855Z" fill="#2F245E"/>
<path d="M49.495 61.0099C49.495 61.0099 72.1961 63.4461 92.5094 46.5353C92.8698 46.6902 53.788 9.104 53.788 9.104L49.495 61.0039V61.0099Z" fill="#FFAB0B"/>
<path d="M74.006 38.4463L76.7994 40.954L80.6097 40.2452L78.8976 43.4796L80.8092 46.6188L76.9538 46.1065L74.3213 48.7572L73.652 45.207L70.1184 43.7119L73.5554 42.0262L74.006 38.4463Z" fill="#FFFCF5"/>
<path d="M53.0753 18.854L52.9916 18.7765L52.496 24.745L53.2362 24.0064L57.0852 24.5127L55.18 21.3736L56.8921 18.1392L53.0753 18.854Z" fill="#FFFCF5"/>
<path d="M63.0957 24.8882L64.4345 26.0974L66.2689 25.7519L65.445 27.3066L66.3654 28.8136L64.5117 28.5694L63.2437 29.8441L62.9284 28.1405L61.2292 27.4197L62.8769 26.6096L63.0957 24.8882Z" fill="#FFFCF5"/>
<path d="M55.8293 37.8447L57.1681 39.048L59.0025 38.7084L58.1786 40.2571L59.099 41.7642L57.2453 41.5259L55.9774 42.7947L55.6555 41.0911L53.9628 40.3703L55.6105 39.5602L55.8293 37.8447Z" fill="#FFFCF5"/>
<path d="M58.1783 52.4502L59.517 53.6534L61.3514 53.3079L60.5275 54.8626L61.4479 56.3696L59.5943 56.1254L58.3263 57.4001L58.0045 55.6965L56.3117 54.9758L57.9594 54.1657L58.1783 52.4502Z" fill="#FFFCF5"/>
<g style="mix-blend-mode:multiply">
<path d="M92.5093 46.5398C92.844 46.6888 58.7568 13.8917 54.2771 9.5791C54.0776 9.60888 53.8974 9.63271 53.7429 9.65654L53.2923 15.083C53.9296 14.9281 54.5989 14.7554 55.2876 14.5529C59.5678 13.2782 64.6783 23.452 72.0351 32.4763C78.877 40.8751 83.6271 50.5546 50.042 54.474L49.5013 61.0203C49.5013 61.0203 72.2025 63.4566 92.5157 46.5458L92.5093 46.5398Z" fill="#CDD0D1"/>
</g>
<path d="M58.932 4.65384C60.1292 7.76319 58.3785 11.1823 55.0187 12.2902C51.6589 13.3981 47.9644 11.7779 46.7672 8.66859C45.57 5.55924 47.3207 2.14014 50.6805 1.03222C54.0403 -0.0757126 57.7348 1.54449 58.932 4.65384Z" fill="#7263B1"/>
<g style="mix-blend-mode:multiply">
<path d="M54.1701 0.817383C54.1701 0.817383 54.1766 0.829283 54.1766 0.841196C55.3737 3.95054 53.623 7.36964 50.2632 8.47757C49.0983 8.85879 47.8946 8.91241 46.7683 8.69202C47.9783 11.7835 51.6599 13.3977 55.0069 12.2898C58.3667 11.1819 60.1174 7.76279 58.9202 4.65344C58.1349 2.62224 56.2877 1.23435 54.1637 0.817383H54.1701Z" fill="#CDD0D1"/>
</g>
<path d="M76.423 70.0332C76.423 73.3721 79.1301 76.0792 82.4689 76.0792C85.8077 76.0792 88.5149 73.3721 88.5149 70.0332C88.5149 66.6944 85.8077 63.9873 82.4689 63.9873C79.1301 63.9873 76.423 66.6944 76.423 70.0332Z" fill="#E93405"/>
<path d="M82.19 67.5517C82.19 68.7428 83.1555 69.7084 84.3467 69.7084C85.5378 69.7084 86.5034 68.7428 86.5034 67.5517C86.5034 66.3606 85.5378 65.395 84.3467 65.395C83.1555 65.395 82.19 66.3606 82.19 67.5517Z" fill="#FFFCF5"/>
<g style="mix-blend-mode:multiply">
<path d="M78.3941 65.5747C78.3489 65.877 78.3174 66.1838 78.3174 66.4996C78.3174 69.8385 81.0245 72.5456 84.3633 72.5456C85.9335 72.5456 87.3592 71.941 88.433 70.9574C87.9864 73.8586 85.4913 76.0784 82.4683 76.0784C79.1295 76.0784 76.4224 73.3713 76.4224 70.0325C76.4224 68.2638 77.1849 66.6801 78.3941 65.5747Z" fill="#CDD0D1"/>
</g>
</svg>
