<svg xmlns="http://www.w3.org/2000/svg" xmlns:xlink="http://www.w3.org/1999/xlink" preserveAspectRatio="xMidYMid meet" width="168" height="164" viewBox="0 0 168 164" style="width:100%;height:100%"><defs><animateTransform repeatCount="indefinite" dur="3.670337s" begin="0s" xlink:href="#_R_G_L_1_G" fill="freeze" attributeName="transform" from="0" to="0" type="rotate" additive="sum" keyTimes="0;0.2159;0.4318273;0.5454545;1" values="0;28;-10;0;0" keySplines="0.333 0 0.833 0.833;0.167 0.167 0.833 0.833;0.167 0.167 0.667 1;0 0 0 0" calcMode="spline"/><animateTransform repeatCount="indefinite" dur="3.670337s" begin="0s" xlink:href="#_R_G_L_1_G" fill="freeze" attributeName="transform" from="-3.64 -43.242" to="-3.64 -43.242" type="translate" additive="sum" keyTimes="0;1" values="-3.64 -43.242;-3.64 -43.242" keySplines="0 0 1 1" calcMode="spline"/><animate repeatCount="indefinite" dur="3.670337s" begin="0s" xlink:href="#_R_G_L_0_G_D_10_P_0" fill="freeze" attributeName="d" attributeType="XML" from="M75.91 58.32 C77.29,58.32 78.4,59.59 78.4,61.16 C78.4,62.73 77.29,64.01 75.91,64.01 C74.54,64.01 73.42,62.73 73.42,61.16 C73.42,59.59 74.54,58.32 75.91,58.32z " to="M75.91 58.32 C77.29,58.32 78.4,59.59 78.4,61.16 C78.4,62.73 77.29,64.01 75.91,64.01 C74.54,64.01 73.42,62.73 73.42,61.16 C73.42,59.59 74.54,58.32 75.91,58.32z " keyTimes="0;0.4363636;0.6090909;0.8090909;1" values="M75.91 58.32 C77.29,58.32 78.4,59.59 78.4,61.16 C78.4,62.73 77.29,64.01 75.91,64.01 C74.54,64.01 73.42,62.73 73.42,61.16 C73.42,59.59 74.54,58.32 75.91,58.32z ;M75.91 58.32 C77.29,58.32 78.4,59.59 78.4,61.16 C78.4,62.73 77.29,64.01 75.91,64.01 C74.54,64.01 73.42,62.73 73.42,61.16 C73.42,59.59 74.54,58.32 75.91,58.32z ;M75.85 60.44 C77.23,60.44 77.8,60.7 78.4,61.16 C77.7,61.76 77.26,61.91 75.88,61.91 C74.51,61.91 73.89,61.76 73.42,61.16 C74.33,60.55 74.48,60.44 75.85,60.44z ;M75.91 58.32 C77.29,58.32 78.4,59.59 78.4,61.16 C78.4,62.73 77.29,64.01 75.91,64.01 C74.54,64.01 73.42,62.73 73.42,61.16 C73.42,59.59 74.54,58.32 75.91,58.32z ;M75.91 58.32 C77.29,58.32 78.4,59.59 78.4,61.16 C78.4,62.73 77.29,64.01 75.91,64.01 C74.54,64.01 73.42,62.73 73.42,61.16 C73.42,59.59 74.54,58.32 75.91,58.32z " keySplines="0.167 0.167 0.667 1;0.167 0.167 0.667 1;0.333 0 0.833 0.833;0 0 0 0" calcMode="spline"/><animateTransform repeatCount="indefinite" dur="3.670337s" begin="0s" xlink:href="#_R_G_L_0_G_D_12_P_0_G_0_T_0" fill="freeze" attributeName="transform" from="0" to="0" type="rotate" additive="sum" keyTimes="0;0.4454545;0.6090909;0.8090909;1" values="0;0;-3;0;0" keySplines="0.167 0.167 0.667 1;0.167 0.167 0.667 1;0.333 0 0.833 0.833;0 0 0 0" calcMode="spline"/><animateTransform repeatCount="indefinite" dur="3.670337s" begin="0s" xlink:href="#_R_G_L_0_G_D_12_P_0_G_0_T_0" fill="freeze" attributeName="transform" from="-0.125 0.75" to="-0.125 0.75" type="translate" additive="sum" keyTimes="0;1" values="-0.125 0.75;-0.125 0.75" keySplines="0 0 1 1" calcMode="spline"/><animate attributeType="XML" attributeName="opacity" dur="4s" from="0" to="1" xlink:href="#time_group"/></defs><g id="_R_G"><g id="_R_G_L_1_G" transform=" translate(115.75, 68.219)"><path id="_R_G_L_1_G_D_0_P_0" fill="#e93405" fill-opacity="1" fill-rule="nonzero" d=" M0.25 42.26 C0.25,42.26 4.46,41.87 6.65,40.48 C8.31,39.43 9.06,38.72 9.85,36.93 C10.76,34.9 10.56,32.3 10.56,30.17 C10.56,26.7 10.21,25.82 10.21,22.35 C10.21,20.12 9.91,18.86 10.21,16.66 C10.54,14.22 10.91,12.82 11.99,10.61 C12.95,8.64 13.87,7.39 15.19,5.63 C16.25,4.21 16.88,2.85 18.39,3.85 C19.46,4.56 19.28,5.63 19.1,6.34 C18.58,8.41 18.39,8.8 18.39,10.61 C20.75,9.91 22,9.19 24.44,8.83 C26.91,8.47 28.38,8.36 30.84,8.83 C32.87,9.22 33.68,9.24 35.81,10.61 C37.47,11.67 38.69,12.33 39.37,14.17 C40.26,16.57 39.27,18.37 37.95,20.57 C36.94,22.25 34.75,24.12 34.75,24.12 C34.75,24.12 33.39,30.27 32.26,34.08 C31.29,37.35 30.88,38.69 29.77,41.91 C28.17,46.53 26.95,48.71 24.44,52.22 C22.44,55.02 21.03,56.42 18.39,58.62 C16.08,60.54 14.66,61.52 11.99,62.89 C9.09,64.37 4.16,65.74 4.16,65.74 C4.16,65.74 0.25,54.35 0.25,54.35 C0.25,54.35 0.25,42.26 0.25,42.26z "/><path id="_R_G_L_1_G_D_1_P_0" stroke="#ffab0b" stroke-linecap="round" stroke-linejoin="round" fill="none" stroke-width="1.423" stroke-opacity="1" d=" M21.23 9.19 C21.23,7.38 21.43,6.99 21.94,4.92 C22.12,4.21 22.3,3.14 21.23,2.43 C19.72,1.42 18.74,2.44 17.68,3.86 C16.36,5.62 15.42,7.21 14.45,9.19 C13.37,11.4 13.39,12.79 13.05,15.23 C12.75,17.43 13.05,18.7 13.05,20.92 C13.05,24.39 13.41,25.27 13.41,28.75 C13.41,30.88 13.6,33.47 12.7,35.5 C11.9,37.3 11.16,38.01 9.5,39.06 C7.3,40.45 3.09,40.84 3.09,40.84 C3.09,40.84 3.09,52.93 3.09,52.93 C3.09,52.93 7.01,64.31 7.01,64.31 C7.01,64.31 11.94,62.95 14.83,61.47 C17.51,60.1 18.92,59.12 21.23,57.2 C23.88,55 25.28,53.59 27.28,50.8 C29.79,47.28 31.01,45.11 32.61,40.48 C33.73,37.27 34.13,35.92 35.1,32.66 C36.23,28.85 37.59,22.7 37.59,22.7  M21.23 9.19 C19.98,10.57 19.76,11.35 19.1,13.1 C18.46,14.79 18.25,15.65 17.68,17.37 C17.32,18.43 17,19.99 18.03,20.92 C18.96,21.76 20.26,21.7 21.23,20.92 C23.01,19.5 23.05,18.81 24.08,17.37 C24.66,16.55 25.5,15.23 25.5,15.23 C25.5,15.23 24.79,18.79 25.5,20.92 C25.81,21.85 26.33,22.43 27.28,22.7 C28.65,23.09 29.77,21.63 30.48,20.92 C31.14,20.26 31.49,19.87 32.08,19.14  M21.23 9.19 C23.59,8.49 24.84,7.76 27.28,7.41 C29.75,7.05 31.22,6.94 33.68,7.41 C35.71,7.79 36.52,7.82 38.66,9.19 C40.31,10.25 41.53,10.9 42.22,12.74 C43.11,15.14 42.11,16.95 40.79,19.14 C39.78,20.83 37.59,22.7 37.59,22.7  M33.32 16.65 C33.32,16.65 32.7,18.45 32.08,19.14  M32.08 19.14 C32.26,20.96 32.63,22.58 34.39,23.06 C35.2,23.27 37.59,22.7 37.59,22.7 "/></g><g id="_R_G_L_0_G" transform=" translate(62.114, 81.907) translate(-61.942, -82.233)"><path id="_R_G_L_0_G_D_0_P_0" fill="#e93405" fill-opacity="1" fill-rule="nonzero" d=" M32.52 75.03 C36.3,72.52 42.84,69.7 42.84,69.7 C42.84,69.7 42.84,84.63 42.84,84.63 C42.84,84.63 40.35,98.51 40.35,98.51 C40.35,98.51 36.91,100.23 35.37,102.06 C33.53,104.25 33.42,106.1 32.52,108.82 C31.85,110.87 31.37,112.01 31.1,114.15 C30.86,116.08 30.69,117.23 31.1,119.13 C31.42,120.59 32.22,121.23 32.52,122.69 C32.9,124.46 33.32,125.69 32.52,127.31 C32.13,128.11 31.94,128.8 31.1,129.09 C29.87,129.52 29.23,128.19 28.26,127.31 C26.68,125.89 25.41,122.69 25.41,122.69 C25.41,122.69 26.15,126.7 25.41,129.09 C24.84,130.93 24.7,132.61 22.92,133.36 C21.77,133.84 20.86,133.88 19.72,133.36 C18.03,132.58 16.88,129.09 16.88,129.09 C16.88,129.09 16.1,131.13 14.74,131.94 C13.19,132.86 11.84,133.89 10.12,133.36 C9.08,133.04 8.54,132.51 7.99,131.58 C7.13,130.15 7.99,127.31 7.99,127.31 C7.99,127.31 6.75,130.89 4.78,131.58 C3.61,132 2.58,132.33 1.58,131.58 C0.25,130.58 0.52,128.98 0.52,127.31 C0.52,124.12 0.91,122.26 1.58,119.13 C2.65,114.15 3.2,112.73 4.78,108.82 C6.49,104.62 7.68,102.33 10.12,98.51 C12.67,94.5 14.53,92.1 17.59,88.9 C17.59,88.9 25.41,80.72 25.41,80.72 C28.47,77.53 29.56,77.01 32.52,75.03z "/><path id="_R_G_L_0_G_D_1_P_0" stroke="#ffab0b" stroke-linecap="round" stroke-linejoin="round" fill="none" stroke-width="1.423" stroke-opacity="1" d=" M10.12 125.18 C10.12,125.18 8.88,128.75 6.92,129.45 C5.74,129.86 4.72,130.2 3.72,129.45 C2.38,128.45 2.65,126.85 2.65,125.18 C2.65,121.98 3.05,120.12 3.72,117 C4.78,112.02 5.33,110.59 6.92,106.69 C8.62,102.48 9.81,100.2 12.25,96.37 C14.8,92.36 16.66,89.96 19.72,86.77 C22.78,83.57 24.49,81.78 27.54,78.59 C30.6,75.39 31.7,74.87 34.66,72.9 C38.43,70.38 44.97,67.56 44.97,67.56 C44.97,67.56 44.97,82.5 44.97,82.5 C44.97,82.5 42.48,96.37 42.48,96.37 C42.48,96.37 39.04,98.1 37.5,99.93 C35.66,102.12 35.56,103.97 34.66,106.69 C33.98,108.73 33.5,109.88 33.23,112.02 C32.99,113.95 32.82,115.1 33.23,117 C33.55,118.46 34.35,119.09 34.66,120.56 C35.03,122.32 35.45,123.56 34.66,125.18 C34.27,125.98 34.07,126.66 33.23,126.96 C32,127.39 31.36,126.06 30.39,125.18 C28.81,123.76 27.54,120.56 27.54,120.56 C27.54,120.56 28.28,124.57 27.54,126.96 C26.98,128.8 26.83,130.47 25.05,131.22 C23.9,131.71 22.99,131.75 21.85,131.22 C20.16,130.44 19.01,126.96 19.01,126.96  M10.12 125.18 C10.12,125.18 12.25,120.56 12.25,120.56  M10.12 125.18 C10.12,125.18 9.26,128.01 10.12,129.45 C10.67,130.38 11.21,130.9 12.25,131.22 C13.98,131.76 15.32,130.73 16.87,129.8 C18.24,128.99 19.01,126.96 19.01,126.96  M19.01 126.96 C19.01,126.96 19.72,122.33 19.72,122.33 "/><path id="_R_G_L_0_G_D_2_P_0" fill="#e93405" fill-opacity="1" fill-rule="nonzero" d=" M47.82 119.13 C47.82,116.3 48.53,110.95 48.53,110.95 C48.53,110.95 61.33,117 61.33,117 C61.33,117 68.79,123.76 68.79,123.76 C68.79,123.76 68.12,130.07 67.37,134.07 C66.79,137.15 66.28,138.84 65.59,141.89 C64.6,146.33 64.13,148.84 63.1,153.27 C62.43,156.2 62.4,158.25 61.33,160.74 C60.97,161.56 60.77,162.3 59.9,162.52 C58.49,162.88 55.57,162.52 52.79,162.52 C52.79,162.52 46.03,162.52 46.03,162.52 C46.03,162.52 38.21,162.52 38.21,162.52 C36.82,162.52 35.24,163.07 34.65,161.81 C34.57,161.63 34.43,161.4 34.65,160.74 C35.14,159.27 36.79,159.6 38.21,158.96 C39.97,158.17 41.16,158.16 42.83,157.19 C44.2,156.39 45.1,155.98 46.03,154.7 C47.99,152 47.18,149.48 47.46,146.16 C47.73,142.79 47.46,140.83 47.46,137.63 C47.46,137.63 47.46,129.45 47.46,129.45 C47.46,125.56 47.82,123.04 47.82,119.13z "/><path id="_R_G_L_0_G_D_3_P_0" stroke="#ffab0b" stroke-linecap="round" stroke-linejoin="round" fill="none" stroke-width="1.423" stroke-opacity="1" d=" M49.95 117.71 C49.95,114.88 50.66,109.53 50.66,109.53 C50.66,109.53 63.46,115.58 63.46,115.58 C63.46,115.58 70.93,122.33 70.93,122.33 C70.93,122.33 70.26,128.65 69.51,132.65 C68.93,135.73 68.41,137.41 67.73,140.47 C66.74,144.91 66.26,147.42 65.24,151.85 C64.57,154.77 64.53,156.83 63.46,159.32 C63.11,160.14 62.9,160.88 62.04,161.1 C60.62,161.45 57.7,161.1 54.93,161.1 C54.93,161.1 48.17,161.1 48.17,161.1 C48.17,161.1 40.34,161.1 40.34,161.1 C38.96,161.1 37.38,161.64 36.79,160.39 C36.7,160.21 36.57,159.98 36.79,159.32 C37.28,157.85 38.93,158.18 40.34,157.54 C42.11,156.75 43.3,156.74 44.97,155.76 C46.33,154.97 47.24,154.56 48.17,153.27 C50.12,150.58 49.32,148.06 49.59,144.74 C49.87,141.37 49.59,139.41 49.59,136.2 C49.59,136.2 49.59,128.02 49.59,128.02 C49.59,124.14 49.95,121.62 49.95,117.71z "/><path id="_R_G_L_0_G_D_4_P_0" fill="#e93405" fill-opacity="1" fill-rule="nonzero" d=" M85.87 133.36 C85.52,129.76 85.16,124.47 85.16,124.47 C85.16,124.47 94.41,121.98 94.41,121.98 C94.41,121.98 105.79,113.09 105.79,113.09 C105.79,113.09 105.79,121.98 105.79,121.98 C105.79,121.98 105.79,128.02 105.79,128.02 C105.79,128.02 105.79,137.98 105.79,137.98 C105.79,137.98 105.79,147.58 105.79,147.58 C105.79,147.58 105.79,154.7 105.79,154.7 C105.79,156.48 106.5,156.83 108.63,157.54 C111.01,158.33 111.48,158.61 114.68,159.68 C116.04,160.13 116.81,160.03 117.88,161.45 C118.46,162.23 118.75,163.15 117.88,163.59 C117.17,163.94 115.39,163.94 114.68,163.94 C114.68,163.94 108.63,163.94 108.63,163.94 C108.63,163.94 100.81,163.94 100.81,163.94 C98.31,163.94 95.12,164.22 94.41,163.94 C92.82,163.34 92,162.7 90.85,161.45 C88.41,158.8 88.59,153.99 88.36,152.56 C88.13,151.14 86.94,141.89 86.94,141.89 C86.94,141.89 86.17,136.45 85.87,133.36z "/><path id="_R_G_L_0_G_D_5_P_0" stroke="#ffab0b" stroke-linecap="round" stroke-linejoin="round" fill="none" stroke-width="1.423" stroke-opacity="1" d=" M88 131.94 C87.66,128.34 87.29,123.05 87.29,123.05 C87.29,123.05 96.54,120.56 96.54,120.56 C96.54,120.56 107.92,111.67 107.92,111.67 C107.92,111.67 107.92,120.56 107.92,120.56 C107.92,120.56 107.92,126.6 107.92,126.6 C107.92,126.6 107.92,136.56 107.92,136.56 C107.92,136.56 107.92,146.16 107.92,146.16 C107.92,146.16 107.92,153.28 107.92,153.28 C107.92,155.05 108.63,155.41 110.77,156.12 C113.14,156.91 113.61,157.19 116.81,158.25 C118.17,158.71 118.95,158.61 120.01,160.03 C120.6,160.81 120.88,161.73 120.01,162.17 C119.3,162.52 117.52,162.52 116.81,162.52 C116.81,162.52 110.77,162.52 110.77,162.52 C110.77,162.52 102.94,162.52 102.94,162.52 C100.44,162.52 97.25,162.79 96.54,162.52 C94.96,161.92 94.13,161.28 92.98,160.03 C90.54,157.38 90.72,152.56 90.49,151.14 C90.26,149.72 89.07,140.47 89.07,140.47 C89.07,140.47 88.3,135.03 88,131.94z "/><path id="_R_G_L_0_G_D_6_P_0" fill="#ffffff" fill-opacity="1" fill-rule="nonzero" d=" M43.9 64.72 C46.22,60.95 48.16,59.23 51.37,56.18 C54.1,53.6 55.66,52.13 58.84,50.14 C61.84,48.26 63.64,47.28 67.02,46.23 C71.16,44.93 73.71,44.87 78.05,44.8 C82.94,44.73 85.72,45.17 90.49,46.23 C95.21,47.27 97.98,47.85 102.23,50.14 C106.24,52.3 108.38,53.91 111.48,57.25 C114.83,60.87 116.23,63.42 118.23,67.92 C120.01,71.89 120.72,74.3 121.43,78.59 C122.37,84.21 122.46,87.57 121.43,93.17 C120.7,97.19 120.02,99.46 118.23,103.13 C115.97,107.77 114.19,110.28 110.41,113.8 C106.57,117.37 103.81,118.77 99.03,120.91 C93.89,123.22 90.74,124.13 85.16,124.82 C80.61,125.39 77.95,125.54 73.42,124.82 C68.65,124.07 66.01,123.06 61.69,120.91 C57.31,118.73 55.07,117 51.37,113.8 C48.18,111.03 46.26,109.48 43.9,105.97 C41.68,102.68 40.82,100.52 39.64,96.73 C38.34,92.56 37.81,90.06 37.86,85.7 C37.9,81.64 38.54,79.35 39.62,75.45 C39.62,75.45 39.64,75.39 39.64,75.39 C40.84,71.06 41.55,68.54 43.9,64.72z "/><path id="_R_G_L_0_G_D_7_P_0" stroke="#ffab0b" stroke-linecap="round" stroke-linejoin="round" fill="none" stroke-width="1.423" stroke-opacity="1" d=" M43.9 64.72 C46.22,60.95 48.16,59.23 51.37,56.18 C54.1,53.6 55.66,52.13 58.84,50.14 C61.84,48.26 63.64,47.28 67.02,46.23 C71.16,44.93 73.71,44.87 78.05,44.8 C82.94,44.73 85.72,45.17 90.49,46.23 C95.21,47.27 97.98,47.85 102.23,50.14 C106.24,52.3 108.38,53.91 111.48,57.25 C114.83,60.87 116.23,63.42 118.23,67.92 C120.01,71.89 120.72,74.3 121.43,78.59 C122.37,84.21 122.46,87.57 121.43,93.17 C120.7,97.19 120.02,99.46 118.23,103.13 C115.97,107.77 114.19,110.28 110.41,113.8 C106.57,117.37 103.81,118.77 99.03,120.91 C93.89,123.22 90.74,124.13 85.16,124.82 C80.61,125.39 77.95,125.54 73.42,124.82 C68.65,124.07 66.01,123.06 61.69,120.91 C57.31,118.73 55.07,117 51.37,113.8 C48.18,111.03 46.26,109.48 43.9,105.97 C41.68,102.68 40.82,100.52 39.64,96.73 C38.34,92.56 37.81,90.06 37.86,85.7 C37.9,81.64 38.54,79.35 39.62,75.45 C39.62,75.45 39.64,75.39 39.64,75.39 C40.84,71.06 41.55,68.54 43.9,64.72z "/><path id="_R_G_L_0_G_D_8_P_0" fill="#e93405" fill-opacity="1" fill-rule="nonzero" d=" M42.88 65.25 C45.19,61.48 47.13,59.76 50.35,56.71 C53.07,54.13 54.63,52.66 57.81,50.67 C60.81,48.79 62.61,47.81 65.99,46.76 C70.14,45.46 72.68,45.4 77.02,45.33 C81.91,45.26 84.69,45.7 89.47,46.76 C94.18,47.8 96.95,48.38 101.2,50.67 C105.21,52.83 107.35,54.44 110.45,57.78 C113.8,61.4 115.2,63.95 117.21,68.45 C118.98,72.42 119.69,74.83 120.41,79.12 C121.35,84.74 121.43,88.1 120.41,93.7 C119.67,97.72 118.99,99.99 117.21,103.66 C114.95,108.3 113.16,110.81 109.38,114.33 C105.55,117.9 102.78,119.3 98,121.44 C92.87,123.75 89.72,124.66 84.13,125.35 C79.58,125.92 76.92,126.07 72.4,125.35 C67.62,124.6 64.98,123.59 60.66,121.44 C56.28,119.26 54.04,117.53 50.35,114.33 C47.15,111.56 45.23,110.01 42.88,106.5 C40.66,103.21 39.79,101.05 38.61,97.26 C37.31,93.09 36.78,90.59 36.83,86.23 C36.87,82.17 37.51,79.88 38.59,75.98 C38.59,75.98 38.61,75.92 38.61,75.92 C39.81,71.59 40.53,69.07 42.88,65.25z "/><path id="_R_G_L_0_G_D_9_P_0" stroke="#ffab0b" stroke-linecap="round" stroke-linejoin="round" fill="none" stroke-width="1.423" stroke-opacity="1" d=" M43.9 64.72 C46.22,60.95 48.16,59.23 51.37,56.18 C54.1,53.6 55.66,52.13 58.84,50.14 C61.84,48.26 63.64,47.28 67.02,46.23 C71.16,44.93 73.71,44.87 78.05,44.8 C82.94,44.73 85.72,45.17 90.49,46.23 C95.21,47.27 97.98,47.85 102.23,50.14 C106.24,52.3 108.38,53.91 111.48,57.25 C114.83,60.87 116.23,63.42 118.23,67.92 C120.01,71.89 120.72,74.3 121.43,78.59 C122.37,84.21 122.46,87.57 121.43,93.17 C120.7,97.19 120.02,99.46 118.23,103.13 C115.97,107.77 114.19,110.28 110.41,113.8 C106.57,117.37 103.81,118.77 99.03,120.91 C93.89,123.22 90.74,124.13 85.16,124.82 C80.61,125.39 77.95,125.54 73.42,124.82 C68.65,124.07 66.01,123.06 61.69,120.91 C57.31,118.73 55.07,117 51.37,113.8 C48.18,111.03 46.26,109.48 43.9,105.97 C41.68,102.68 40.82,100.52 39.64,96.73 C38.34,92.56 37.81,90.06 37.86,85.7 C37.9,81.64 38.54,79.35 39.62,75.45 C39.62,75.45 39.64,75.39 39.64,75.39 C40.84,71.06 41.55,68.54 43.9,64.72z "/><path id="_R_G_L_0_G_D_10_P_0" fill="#2f245e" fill-opacity="1" fill-rule="nonzero" d=" M75.91 58.32 C77.29,58.32 78.4,59.59 78.4,61.16 C78.4,62.73 77.29,64.01 75.91,64.01 C74.54,64.01 73.42,62.73 73.42,61.16 C73.42,59.59 74.54,58.32 75.91,58.32z "/><path id="_R_G_L_0_G_D_11_P_0" fill="#2f245e" fill-opacity="1" fill-rule="nonzero" d=" M85.16 58.32 C86.54,58.32 87.65,59.59 87.65,61.16 C87.65,62.73 86.54,64.01 85.16,64.01 C83.79,64.01 82.67,62.73 82.67,61.16 C82.67,59.59 83.79,58.32 85.16,58.32z "/><g id="_R_G_L_0_G_D_12_P_0_G_0_T_0" transform=" translate(74.495, 72.996)"><path id="_R_G_L_0_G_D_12_P_0" fill="#2f245e" fill-opacity="1" fill-rule="nonzero" d=" M9.38 3.44 C9.69,3.75 9.69,4.25 9.36,4.54 C7.64,6.04 5.49,6.99 3.21,7.26 C0.66,7.55 -1.91,6.98 -4.09,5.63 C-6.27,4.28 -7.93,2.23 -8.81,-0.18 C-9.59,-2.35 -9.69,-4.69 -9.12,-6.9 C-9.01,-7.33 -8.55,-7.55 -8.14,-7.41 C-7.72,-7.27 -7.5,-6.82 -7.6,-6.39 C-8.06,-4.52 -7.97,-2.55 -7.31,-0.73 C-6.56,1.35 -5.13,3.11 -3.25,4.27 C-1.38,5.43 0.83,5.93 3.03,5.67 C4.95,5.45 6.76,4.66 8.23,3.41 C8.57,3.13 9.07,3.12 9.38,3.44z "/></g><path id="_R_G_L_0_G_D_13_P_0" fill="#ffab0b" fill-opacity="1" fill-rule="nonzero" d=" M49.32 61.34 C49.32,61.34 72.03,63.77 92.34,46.86 C92.7,47.02 53.62,9.43 53.62,9.43 C53.62,9.43 49.32,61.33 49.32,61.33 C49.32,61.33 49.32,61.34 49.32,61.34z "/><path id="_R_G_L_0_G_D_14_P_0" fill="#fffcf5" fill-opacity="1" fill-rule="nonzero" d=" M73.83 38.77 C73.83,38.77 76.63,41.28 76.63,41.28 C76.63,41.28 80.44,40.57 80.44,40.57 C80.44,40.57 78.73,43.81 78.73,43.81 C78.73,43.81 80.64,46.95 80.64,46.95 C80.64,46.95 76.78,46.43 76.78,46.43 C76.78,46.43 74.15,49.08 74.15,49.08 C74.15,49.08 73.48,45.53 73.48,45.53 C73.48,45.53 69.95,44.04 69.95,44.04 C69.95,44.04 73.38,42.35 73.38,42.35 C73.38,42.35 73.83,38.77 73.83,38.77z "/><path id="_R_G_L_0_G_D_15_P_0" fill="#fffcf5" fill-opacity="1" fill-rule="nonzero" d=" M52.9 19.18 C52.9,19.18 52.82,19.1 52.82,19.1 C52.82,19.1 52.33,25.07 52.33,25.07 C52.33,25.07 53.06,24.33 53.06,24.33 C53.06,24.33 56.91,24.84 56.91,24.84 C56.91,24.84 55.01,21.7 55.01,21.7 C55.01,21.7 56.72,18.47 56.72,18.47 C56.72,18.47 52.9,19.18 52.9,19.18z "/><path id="_R_G_L_0_G_D_16_P_0" fill="#fffcf5" fill-opacity="1" fill-rule="nonzero" d=" M62.93 25.21 C62.93,25.21 64.26,26.42 64.26,26.42 C64.26,26.42 66.1,26.08 66.1,26.08 C66.1,26.08 65.27,27.63 65.27,27.63 C65.27,27.63 66.19,29.14 66.19,29.14 C66.19,29.14 64.34,28.9 64.34,28.9 C64.34,28.9 63.07,30.17 63.07,30.17 C63.07,30.17 62.76,28.47 62.76,28.47 C62.76,28.47 61.06,27.75 61.06,27.75 C61.06,27.75 62.71,26.94 62.71,26.94 C62.71,26.94 62.93,25.21 62.93,25.21z "/><path id="_R_G_L_0_G_D_17_P_0" fill="#fffcf5" fill-opacity="1" fill-rule="nonzero" d=" M55.66 38.17 C55.66,38.17 57,39.37 57,39.37 C57,39.37 58.83,39.04 58.83,39.04 C58.83,39.04 58.01,40.58 58.01,40.58 C58.01,40.58 58.93,42.09 58.93,42.09 C58.93,42.09 57.07,41.85 57.07,41.85 C57.07,41.85 55.81,43.12 55.81,43.12 C55.81,43.12 55.48,41.42 55.48,41.42 C55.48,41.42 53.79,40.7 53.79,40.7 C53.79,40.7 55.44,39.89 55.44,39.89 C55.44,39.89 55.66,38.17 55.66,38.17z "/><path id="_R_G_L_0_G_D_18_P_0" fill="#fffcf5" fill-opacity="1" fill-rule="nonzero" d=" M58.01 52.78 C58.01,52.78 59.35,53.98 59.35,53.98 C59.35,53.98 61.18,53.63 61.18,53.63 C61.18,53.63 60.36,55.19 60.36,55.19 C60.36,55.19 61.28,56.7 61.28,56.7 C61.28,56.7 59.42,56.45 59.42,56.45 C59.42,56.45 58.16,57.73 58.16,57.73 C58.16,57.73 57.83,56.02 57.83,56.02 C57.83,56.02 56.14,55.3 56.14,55.3 C56.14,55.3 57.79,54.49 57.79,54.49 C57.79,54.49 58.01,52.78 58.01,52.78z "/><path id="_R_G_L_0_G_D_19_P_0" fill="#000000" fill-opacity="0.3" fill-rule="nonzero" d=" M92.34 46.87 C92.67,47.02 58.59,14.22 54.11,9.9 C53.91,9.93 53.73,9.96 53.57,9.98 C53.57,9.98 53.12,15.41 53.12,15.41 C53.76,15.25 54.43,15.08 55.12,14.88 C59.4,13.6 64.51,23.78 71.86,32.8 C78.71,41.2 83.46,50.88 49.87,54.8 C49.87,54.8 49.33,61.35 49.33,61.35 C49.33,61.35 72.03,63.78 92.34,46.87 C92.34,46.87 92.34,46.87 92.34,46.87z "/><path id="_R_G_L_0_G_D_20_P_0" fill="#7263b1" fill-opacity="1" fill-rule="nonzero" d=" M58.76 4.98 C59.96,8.09 58.21,11.51 54.85,12.62 C51.49,13.72 47.79,12.1 46.6,9 C45.4,5.89 47.15,2.47 50.51,1.36 C53.87,0.25 57.56,1.87 58.76,4.98z "/><path id="_R_G_L_0_G_D_21_P_0" fill="#000000" fill-opacity="0.3" fill-rule="nonzero" d=" M54 1.14 C54,1.14 54.01,1.16 54.01,1.17 C55.2,4.28 53.45,7.7 50.09,8.8 C48.93,9.18 47.72,9.24 46.6,9.02 C47.81,12.11 51.49,13.72 54.84,12.62 C58.2,11.51 59.94,8.09 58.75,4.98 C57.96,2.95 56.12,1.56 53.99,1.14 C53.99,1.14 54,1.14 54,1.14z "/><path id="_R_G_L_0_G_D_22_P_0" fill="#e93405" fill-opacity="1" fill-rule="nonzero" d=" M76.25 70.36 C76.25,73.7 78.96,76.41 82.3,76.41 C85.64,76.41 88.34,73.7 88.34,70.36 C88.34,67.02 85.64,64.31 82.3,64.31 C78.96,64.31 76.25,67.02 76.25,70.36z "/><path id="_R_G_L_0_G_D_23_P_0" fill="#fffcf5" fill-opacity="1" fill-rule="nonzero" d=" M82.02 67.88 C82.02,69.07 82.98,70.04 84.18,70.04 C85.37,70.04 86.33,69.07 86.33,67.88 C86.33,66.69 85.37,65.72 84.18,65.72 C82.98,65.72 82.02,66.69 82.02,67.88z "/><path id="_R_G_L_0_G_D_24_P_0" fill="#000000" fill-opacity="0.3" fill-rule="nonzero" d=" M78.22 65.9 C78.18,66.2 78.15,66.51 78.15,66.83 C78.15,70.17 80.85,72.87 84.19,72.87 C85.76,72.87 87.19,72.27 88.26,71.28 C87.81,74.19 85.32,76.41 82.3,76.41 C78.96,76.41 76.25,73.7 76.25,70.36 C76.25,68.59 77.01,67.01 78.22,65.9z "/></g></g><g id="time_group"/></svg>