<svg width="218" height="230" viewBox="0 0 218 230" fill="none" xmlns="http://www.w3.org/2000/svg">
<path d="M172.969 104.311C167.665 100.774 158.469 96.8105 158.469 96.8105V117.811L161.969 137.311C161.969 137.311 166.805 139.741 168.969 142.311C171.563 145.389 171.704 147.989 172.969 151.811C173.922 154.688 174.596 156.302 174.969 159.311C175.306 162.023 175.553 163.64 174.969 166.311C174.52 168.365 173.404 169.253 172.969 171.311C172.444 173.794 171.851 175.532 172.969 177.811C173.52 178.933 173.79 179.897 174.969 180.311C176.708 180.92 177.601 179.044 178.969 177.811C181.183 175.815 182.969 171.311 182.969 171.311C182.969 171.311 181.935 176.952 182.969 180.311C183.768 182.903 183.97 185.256 186.469 186.311C188.088 186.994 189.374 187.047 190.969 186.311C193.348 185.213 194.97 180.311 194.97 180.311C194.97 180.311 196.056 183.172 197.97 184.311C200.151 185.608 202.044 187.061 204.469 186.311C205.926 185.86 206.689 185.121 207.469 183.811C208.668 181.797 207.469 177.811 207.469 177.811C207.469 177.811 209.207 182.836 211.969 183.811C213.626 184.395 215.063 184.865 216.469 183.811C218.344 182.405 217.97 180.154 217.97 177.811C217.97 173.32 217.41 170.702 216.469 166.311C214.97 159.311 214.201 157.303 211.969 151.811C209.57 145.904 207.894 142.688 204.469 137.311C200.882 131.677 198.265 128.302 193.969 123.811L182.969 112.311C178.674 107.82 177.131 107.085 172.969 104.311Z" fill="#FFAB0B"/>
<path d="M204.469 174.811C204.469 174.811 206.207 179.836 208.969 180.811C210.626 181.395 212.063 181.865 213.469 180.811C215.344 179.405 214.97 177.154 214.97 174.811C214.97 170.32 214.41 167.702 213.469 163.311C211.97 156.311 211.201 154.303 208.969 148.811C206.57 142.904 204.894 139.688 201.469 134.311C197.882 128.677 195.265 125.302 190.969 120.811C186.674 116.32 184.265 113.802 179.969 109.311C175.674 104.82 174.131 104.085 169.969 101.311C164.665 97.7742 155.469 93.8105 155.469 93.8105V114.811L158.969 134.311C158.969 134.311 163.805 136.741 165.969 139.311C168.563 142.389 168.704 144.989 169.969 148.811C170.922 151.688 171.596 153.302 171.969 156.311C172.306 159.023 172.553 160.64 171.969 163.311C171.52 165.365 170.404 166.253 169.969 168.311C169.444 170.794 168.851 172.532 169.969 174.811C170.52 175.933 170.79 176.897 171.969 177.311C173.708 177.92 174.601 176.044 175.969 174.811C178.183 172.815 179.969 168.311 179.969 168.311C179.969 168.311 178.935 173.952 179.969 177.311C180.768 179.903 180.97 182.256 183.469 183.311C185.088 183.994 186.374 184.047 187.969 183.311C190.348 182.213 191.97 177.311 191.97 177.311M204.469 174.811L201.469 168.311M204.469 174.811C204.469 174.811 205.668 178.797 204.469 180.811C203.689 182.121 202.926 182.86 201.469 183.311C199.044 184.061 197.151 182.608 194.97 181.311C193.056 180.172 191.97 177.311 191.97 177.311M191.97 177.311L190.969 170.811" stroke="#50439F" stroke-width="2"/>
<path d="M60.9688 93.8103C60.9688 93.8103 55.0505 93.2619 51.9688 91.3103C49.6358 89.8329 48.5903 88.8338 47.4688 86.3104C46.1999 83.4554 46.4688 79.8104 46.4688 76.8104C46.4688 71.9288 46.9688 70.6918 46.9688 65.8103C46.9688 62.6861 47.3913 60.9058 46.9688 57.8103C46.5007 54.382 45.9892 52.4184 44.4688 49.3103C43.1121 46.537 41.8213 44.7801 39.9688 42.3104C38.4688 40.3107 37.5897 38.3956 35.4688 39.8103C33.9688 40.8108 34.2186 42.3104 34.4688 43.3107C35.1964 46.2212 35.4688 46.7719 35.4688 49.3103C32.1493 48.334 30.3929 47.3073 26.9688 46.8103C23.4905 46.3054 21.4215 46.1533 17.9688 46.8103C15.1171 47.3529 13.9688 47.3881 10.9688 49.3103C8.64364 50.8 6.93024 51.7216 5.96875 54.3103C4.71512 57.6854 6.11633 60.2229 7.96875 63.3103C9.38949 65.6782 12.4688 68.3103 12.4688 68.3103C12.4688 68.3103 14.3801 76.9492 15.9688 82.3103C17.3291 86.9009 17.9027 88.7861 19.4688 93.3107C21.7188 99.8111 23.4391 102.872 26.9688 107.81C29.7801 111.743 31.7505 113.721 35.4688 116.81C38.7176 119.51 40.7086 120.885 44.4688 122.81C48.5376 124.893 55.4688 126.81 55.4688 126.81L60.9688 110.81V93.8103Z" fill="#FFAB0B"/>
<path d="M31.4688 47.31C31.4688 44.7716 31.1964 44.2209 30.4688 41.3105C30.2186 40.3101 29.9688 38.8105 31.4688 37.81C33.5897 36.3953 34.9688 37.8223 36.4688 39.822C38.3213 42.2918 39.6423 44.5367 40.999 47.31C42.5195 50.4181 42.5007 52.3818 42.9688 55.81C43.3913 58.9055 42.9688 60.6858 42.9688 63.81C42.9688 68.6916 42.4688 69.9285 42.4688 74.8101C42.4688 77.8102 42.1999 81.4552 43.4688 84.3101C44.5903 86.8335 45.6358 87.8326 47.9688 89.31C51.0505 91.2617 56.9688 91.81 56.9688 91.81V108.81L51.4688 124.81C51.4688 124.81 44.5376 122.893 40.4688 120.81C36.7086 118.885 34.7176 117.51 31.4688 114.81C27.7505 111.72 25.7801 109.743 22.9688 105.81C19.4391 100.872 17.7188 97.8108 15.4688 91.3104C13.9027 86.7859 13.3291 84.9006 11.9688 80.31C10.3801 74.949 8.46875 66.31 8.46875 66.31M31.4688 47.31C33.2261 49.2626 33.5438 50.3517 34.4688 52.8104C35.3626 55.1863 35.6662 56.4018 36.4688 58.81C36.9688 60.3104 37.4201 62.5038 35.9688 63.81C34.6625 64.9856 32.8411 64.9077 31.4688 63.81C28.9688 61.8104 28.9201 60.8463 27.4688 58.81C26.6515 57.6634 25.4688 55.81 25.4688 55.81C25.4688 55.81 26.4688 60.8104 25.4688 63.81C25.0321 65.1199 24.2963 65.9307 22.9688 66.31C21.0358 66.8623 19.4688 64.8104 18.4688 63.81C17.5402 62.881 17.0451 62.331 16.2188 61.31M31.4688 47.31C28.1493 46.3337 26.3929 45.3071 22.9688 44.81C19.4905 44.3051 17.4215 44.153 13.9688 44.81C11.1171 45.3526 9.96875 45.3879 6.96875 47.31C4.64364 48.7998 2.93024 49.7214 1.96875 52.31C0.71512 55.6852 2.11633 58.2226 3.96875 61.31C5.38949 63.6779 8.46875 66.31 8.46875 66.31M14.4688 57.8104C14.4688 57.8104 15.3401 60.3337 16.2188 61.31M16.2188 61.31C15.961 63.8597 15.4436 66.1453 12.9688 66.8104C11.8373 67.1145 8.46875 66.31 8.46875 66.31" stroke="#50439F" stroke-width="2"/>
<path d="M151.471 166.311C151.471 162.328 150.471 154.811 150.471 154.811L132.478 163.311L121.978 172.811C121.978 172.811 122.921 181.693 123.978 187.311C124.792 191.64 125.516 194.012 126.478 198.311C127.875 204.552 128.542 208.078 129.978 214.311C130.924 218.418 130.971 221.311 132.478 224.811C132.972 225.959 133.265 227.006 134.478 227.311C136.471 227.811 140.572 227.311 144.478 227.311H153.978H164.978C166.93 227.311 169.145 228.076 169.978 226.311C170.094 226.064 170.286 225.737 169.978 224.811C169.287 222.739 166.97 223.202 164.978 222.311C162.495 221.2 160.826 221.183 158.478 219.811C156.556 218.687 155.284 218.113 153.978 216.311C151.227 212.516 152.362 208.981 151.978 204.311C151.589 199.576 151.978 196.811 151.978 192.311V180.811C151.978 175.343 151.471 171.811 151.471 166.311Z" fill="#FFAB0B"/>
<path d="M148.471 164.311C148.471 160.328 147.471 152.811 147.471 152.811L129.478 161.311L118.978 170.811C118.978 170.811 119.921 179.693 120.978 185.311C121.792 189.64 122.516 192.012 123.478 196.311C124.875 202.552 125.542 206.078 126.978 212.311C127.924 216.418 127.971 219.311 129.478 222.811C129.972 223.959 130.265 225.006 131.478 225.311C133.471 225.811 137.572 225.311 141.478 225.311H150.978H161.978C163.93 225.311 166.145 226.076 166.978 224.311C167.094 224.064 167.286 223.737 166.978 222.811C166.287 220.739 163.97 221.202 161.978 220.311C159.495 219.2 157.826 219.183 155.478 217.811C153.556 216.687 152.284 216.113 150.978 214.311C148.227 210.516 149.362 206.981 148.978 202.311C148.589 197.576 148.978 194.811 148.978 190.311V178.811C148.978 173.343 148.471 169.811 148.471 164.311Z" stroke="#50439F" stroke-width="2"/>
<path d="M97.9688 186.311C98.459 181.257 98.9688 173.811 98.9688 173.811L85.9688 170.311L69.9688 157.811V170.311V178.811V192.811V206.311V216.311C69.9688 218.811 68.9688 219.311 65.9688 220.311C62.6293 221.424 61.9688 221.811 57.4688 223.311C55.5616 223.946 54.4688 223.811 52.9688 225.811C52.1486 226.904 51.7462 228.199 52.9688 228.811C53.9688 229.311 56.4688 229.311 57.4688 229.311H65.9688H76.9688C80.4835 229.311 84.9688 229.694 85.9688 229.311C88.1946 228.458 89.3533 227.563 90.9688 225.811C94.4046 222.083 94.1462 215.311 94.4688 213.311C94.7913 211.311 96.4688 198.311 96.4688 198.311C96.4688 198.311 97.5471 190.656 97.9688 186.311Z" fill="#FFAB0B"/>
<path d="M94.9688 184.311C95.459 179.257 95.9688 171.811 95.9688 171.811L82.9688 168.311L66.9688 155.811V168.311V176.811V190.811V204.311V214.311C66.9688 216.811 65.9688 217.311 62.9688 218.311C59.6293 219.424 58.9688 219.811 54.4688 221.311C52.5616 221.946 51.4688 221.811 49.9688 223.811C49.1486 224.904 48.7462 226.199 49.9688 226.811C50.9688 227.311 53.4688 227.311 54.4688 227.311H62.9688H73.9688C77.4835 227.311 81.9688 227.694 82.9688 227.311C85.1946 226.458 86.3533 225.563 87.9688 223.811C91.4046 220.083 91.1462 213.311 91.4688 211.311C91.7913 209.311 93.4688 196.311 93.4688 196.311C93.4688 196.311 94.5471 188.656 94.9688 184.311Z" stroke="#50439F" stroke-width="2"/>
<path d="M156.969 89.8103C153.71 84.5042 150.986 82.0963 146.469 77.8103C142.641 74.1791 140.439 72.1122 135.969 69.3103C131.75 66.6664 129.219 65.298 124.469 63.8103C118.644 61.9864 115.071 61.899 108.969 61.8103C102.091 61.7104 98.1838 62.3197 91.4686 63.8103C84.8378 65.2822 80.9498 66.0918 74.9686 69.3103C69.3283 72.3454 66.3198 74.6101 61.9686 79.3103C57.2582 84.3986 55.2921 87.9774 52.4686 94.3103C49.9782 99.8961 48.9753 103.278 47.9686 109.31C46.6507 117.207 46.5251 121.936 47.9686 129.81C49.004 135.459 49.9557 138.646 52.4686 143.81C55.6472 150.342 58.1519 153.86 63.4686 158.81C68.8615 163.831 72.7461 165.793 79.4686 168.81C86.6873 172.05 91.1163 173.337 98.9686 174.31C105.363 175.103 109.104 175.315 115.469 174.31C122.178 173.251 125.888 171.837 131.969 168.81C138.127 165.745 141.269 163.314 146.469 158.81C150.958 154.922 153.653 152.737 156.969 147.81C160.09 143.171 161.303 140.148 162.969 134.81C164.795 128.957 165.535 125.441 165.469 119.31C165.407 113.596 164.515 110.382 162.994 104.9L162.969 104.81C161.281 98.731 160.271 95.1864 156.969 89.8103Z" fill="white" stroke="#50439F" stroke-width="2"/>
<path d="M158.969 91.8103C155.71 86.5042 152.986 84.0963 148.469 79.8103C144.641 76.1791 142.439 74.1122 137.969 71.3103C133.75 68.6664 131.219 67.298 126.469 65.8103C120.644 63.9864 117.071 63.899 110.969 63.8103C104.091 63.7104 100.184 64.3197 93.4686 65.8103C86.8378 67.2822 82.9498 68.0918 76.9686 71.3103C71.3283 74.3454 68.3198 76.6101 63.9686 81.3103C59.2582 86.3986 57.2921 89.9774 54.4686 96.3103C51.9782 101.896 50.9753 105.278 49.9686 111.31C48.6507 119.207 48.5251 123.936 49.9686 131.81C51.004 137.459 51.9557 140.646 54.4686 145.81C57.6472 152.342 60.1519 155.86 65.4686 160.81C70.8615 165.831 74.7461 167.793 81.4686 170.81C88.6873 174.05 93.1163 175.337 100.969 176.31C107.363 177.103 111.104 177.315 117.469 176.31C124.178 175.251 127.888 173.837 133.969 170.81C140.127 167.745 143.269 165.314 148.469 160.81C152.958 156.922 155.653 154.737 158.969 149.81C162.09 145.171 163.303 142.148 164.969 136.81C166.795 130.957 167.535 127.441 167.469 121.31C167.407 115.596 166.515 112.382 164.994 106.9L164.969 106.81C163.281 100.731 162.271 97.1864 158.969 91.8103Z" fill="#FFAB0B"/>
<path d="M156.969 89.8103C153.71 84.5042 150.986 82.0963 146.469 77.8103C142.641 74.1791 140.439 72.1122 135.969 69.3103C131.75 66.6664 129.219 65.298 124.469 63.8103C118.644 61.9864 115.071 61.899 108.969 61.8103C102.091 61.7104 98.1838 62.3197 91.4686 63.8103C84.8378 65.2822 80.9498 66.0918 74.9686 69.3103C69.3283 72.3454 66.3198 74.6101 61.9686 79.3103C57.2582 84.3986 55.2921 87.9774 52.4686 94.3103C49.9782 99.8961 48.9753 103.278 47.9686 109.31C46.6507 117.207 46.5251 121.936 47.9686 129.81C49.004 135.459 49.9557 138.646 52.4686 143.81C55.6472 150.342 58.1519 153.86 63.4686 158.81C68.8615 163.831 72.7461 165.793 79.4686 168.81C86.6873 172.05 91.1163 173.337 98.9686 174.31C105.363 175.103 109.104 175.315 115.469 174.31C122.178 173.251 125.888 171.837 131.969 168.81C138.127 165.745 141.269 163.314 146.469 158.81C150.958 154.922 153.653 152.737 156.969 147.81C160.09 143.171 161.303 140.148 162.969 134.81C164.795 128.957 165.535 125.441 165.469 119.31C165.407 113.596 164.515 110.382 162.994 104.9L162.969 104.81C161.281 98.731 160.271 95.1864 156.969 89.8103Z" stroke="#50439F" stroke-width="2"/>
<ellipse cx="3.5" cy="4" rx="3.5" ry="4" transform="matrix(-1 0 0 1 115.469 80.8105)" fill="#50439F"/>
<ellipse cx="3.5" cy="4" rx="3.5" ry="4" transform="matrix(-1 0 0 1 102.469 80.8105)" fill="#50439F"/>
<path d="M100.948 107.331C100.51 107.769 100.508 108.483 100.975 108.889C103.402 110.997 106.415 112.332 109.625 112.704C113.208 113.12 116.826 112.313 119.892 110.414C122.959 108.515 125.293 105.636 126.518 102.243C127.615 99.2038 127.764 95.9118 126.958 92.8C126.803 92.2003 126.163 91.8845 125.575 92.0814C124.988 92.2783 124.676 92.9133 124.825 93.5148C125.474 96.1451 125.334 98.9178 124.408 101.482C123.355 104.398 121.348 106.874 118.711 108.506C116.075 110.139 112.964 110.833 109.884 110.476C107.176 110.162 104.631 109.051 102.566 107.298C102.094 106.897 101.386 106.893 100.948 107.331Z" fill="#50439F"/>
<path d="M154.615 84.9925C154.615 84.9925 125.148 88.4134 98.7806 64.6682C98.3128 64.8857 149.043 12.1094 149.043 12.1094L154.615 84.9842V84.9925Z" fill="#E93405"/>
<path d="M122.801 53.3096L119.175 56.8308L114.229 55.8355L116.452 60.3771L113.97 64.7849L118.975 64.0656L122.392 67.7875L123.261 62.8026L127.848 60.7033L123.386 58.3363L122.801 53.3096Z" fill="#FFFCF5"/>
<path d="M149.971 25.8006L150.079 25.6918L150.723 34.0725L149.762 33.0353L144.766 33.7463L147.239 29.3385L145.016 24.7969L149.971 25.8006Z" fill="#FFFCF5"/>
<path d="M136.96 34.2725L135.222 35.9703L132.841 35.4852L133.91 37.6682L132.716 39.7843L135.122 39.4414L136.768 41.2312L137.177 38.8392L139.383 37.8271L137.244 36.6896L136.96 34.2725Z" fill="#FFFCF5"/>
<path d="M146.394 52.4648L144.656 54.1543L142.275 53.6776L143.344 55.8522L142.149 57.9683L144.555 57.6337L146.201 59.4153L146.619 57.0232L148.816 56.0111L146.678 54.8736L146.394 52.4648Z" fill="#FFFCF5"/>
<path d="M143.345 72.9736L141.607 74.6631L139.226 74.178L140.295 76.361L139.101 78.4771L141.507 78.1342L143.153 79.924L143.57 77.532L145.768 76.5199L143.629 75.3824L143.345 72.9736Z" fill="#FFFCF5"/>
<g style="mix-blend-mode:multiply">
<path d="M98.7792 64.6754C98.3448 64.8845 142.591 18.8328 148.406 12.7773C148.665 12.8192 148.899 12.8526 149.1 12.8861L149.685 20.5056C148.857 20.2881 147.989 20.0456 147.095 19.7612C141.539 17.9713 134.905 32.2569 125.356 44.9282C116.475 56.7214 110.309 70.3127 153.904 75.8162L154.605 85.0081C154.605 85.0081 125.138 88.429 98.7709 64.6838L98.7792 64.6754Z" fill="#CDD0D1"/>
</g>
<path d="M142.367 5.86092C140.813 10.2269 143.086 15.0278 147.447 16.5834C151.808 18.1391 156.604 15.8642 158.158 11.4982C159.711 7.13223 157.439 2.33134 153.078 0.775648C148.717 -0.780041 143.921 1.49496 142.367 5.86092Z" fill="#7263B1"/>
<g style="mix-blend-mode:multiply">
<path d="M148.55 0.474609C148.55 0.474609 148.542 0.491319 148.542 0.508047C146.988 4.87401 149.26 9.6749 153.622 11.2306C155.134 11.7659 156.696 11.8412 158.158 11.5317C156.588 15.8726 151.809 18.1392 147.464 16.5835C143.103 15.0278 140.831 10.2269 142.384 5.86097C143.404 3.00888 145.802 1.06008 148.559 0.474609H148.55Z" fill="#CDD0D1"/>
</g>
<path d="M111.492 97.7402C111.492 102.434 107.686 106.24 102.992 106.24C98.2982 106.24 94.4922 102.434 94.4922 97.7402C94.4922 93.0462 98.2982 89.2402 102.992 89.2402C107.686 89.2402 111.492 93.0462 111.492 97.7402Z" fill="#E93405"/>
<path d="M103.384 94.2518C103.384 95.9264 102.027 97.2839 100.352 97.2839C98.6778 97.2839 97.3203 95.9264 97.3203 94.2518C97.3203 92.5772 98.6778 91.2197 100.352 91.2197C102.027 91.2197 103.384 92.5772 103.384 94.2518Z" fill="#FFFCF5"/>
<g style="mix-blend-mode:multiply">
<path d="M108.719 91.4727C108.783 91.8977 108.827 92.329 108.827 92.773C108.827 97.4671 105.021 101.273 100.327 101.273C98.1196 101.273 96.1152 100.423 94.6055 99.0402C95.2335 103.119 98.7413 106.24 102.991 106.24C107.685 106.24 111.491 102.434 111.491 97.7398C111.491 95.2532 110.419 93.0268 108.719 91.4727Z" fill="#CDD0D1"/>
</g>
</svg>
