<svg width="20.578186" height="20.156250" viewBox="0 0 20.5782 20.1562" fill="none" xmlns="http://www.w3.org/2000/svg" xmlns:xlink="http://www.w3.org/1999/xlink">
	<desc>
			Created with Pixso.
	</desc>
	<defs/>
	<path id="Vector" d="M10.06 20.15C13.63 20.16 16.78 18.31 18.57 15.52C18.65 15.39 18.57 15.23 18.42 15.23L16.77 15.23C16.66 15.23 16.55 15.28 16.48 15.37C16.32 15.56 16.14 15.76 15.96 15.94C15.19 16.7 14.3 17.3 13.32 17.72C12.29 18.15 11.21 18.37 10.08 18.37C8.96 18.37 7.87 18.15 6.85 17.72C5.86 17.3 4.97 16.7 4.21 15.94C3.45 15.18 2.85 14.29 2.43 13.3C1.99 12.28 1.78 11.2 1.78 10.07C1.78 8.95 2 7.87 2.43 6.84C2.85 5.86 3.45 4.97 4.21 4.21C4.97 3.45 5.86 2.84 6.85 2.43C7.87 2 8.97 1.77 10.08 1.78C11.21 1.78 12.29 2 13.32 2.43C14.3 2.84 15.2 3.45 15.96 4.21C16.14 4.39 16.32 4.58 16.48 4.78C16.55 4.87 16.66 4.92 16.77 4.92L18.42 4.92C18.57 4.92 18.66 4.75 18.57 4.63C16.78 1.84 13.65 0 10.08 0C4.55 0 0.05 4.45 0 9.97C-0.06 15.58 4.44 20.14 10.06 20.15ZM13.03 7.45L13.03 9.23L20.39 9.23C20.49 9.23 20.57 9.31 20.57 9.42L20.57 10.73C20.57 10.83 20.49 10.92 20.39 10.92L13.03 10.92L13.03 12.7C13.03 12.86 12.84 12.94 12.72 12.85L9.4 10.22C9.37 10.2 9.36 10.18 9.34 10.16C9.33 10.13 9.32 10.1 9.32 10.07C9.32 10.04 9.33 10.02 9.34 9.99C9.36 9.97 9.37 9.94 9.4 9.93L12.72 7.3C12.84 7.2 13.03 7.29 13.03 7.45Z" fill="#948EB6" fill-opacity="0.710000" fill-rule="nonzero"/>
	<path id="Vector" d="M18.11 16.18C18.27 15.96 18.43 15.74 18.57 15.52C18.65 15.39 18.57 15.23 18.42 15.23L16.77 15.23C16.66 15.23 16.55 15.28 16.48 15.37C16.32 15.56 16.14 15.76 15.96 15.94C15.19 16.7 14.3 17.3 13.32 17.72C12.29 18.15 11.21 18.37 10.08 18.37C8.96 18.37 7.87 18.15 6.85 17.72C5.86 17.3 4.97 16.7 4.21 15.94C3.45 15.18 2.85 14.29 2.43 13.3C1.99 12.28 1.78 11.2 1.78 10.07C1.78 8.95 2 7.87 2.43 6.84C2.85 5.86 3.45 4.97 4.21 4.21C4.97 3.45 5.86 2.84 6.85 2.43C7.87 2 8.97 1.77 10.08 1.78C11.21 1.78 12.29 2 13.32 2.43C14.3 2.84 15.2 3.45 15.96 4.21C16.14 4.39 16.32 4.58 16.48 4.78C16.55 4.87 16.66 4.92 16.77 4.92L18.42 4.92C18.57 4.92 18.66 4.75 18.57 4.63C18.43 4.4 18.27 4.18 18.11 3.97C18.1 3.95 18.08 3.93 18.07 3.92C16.23 1.53 13.33 0 10.08 0C4.55 0 0.05 4.45 0 9.97C-0.06 15.58 4.44 20.14 10.06 20.15C13.32 20.16 16.22 18.62 18.07 16.23C18.08 16.21 18.1 16.2 18.11 16.18ZM13.03 8.23L13.03 7.45C13.03 7.29 12.84 7.2 12.72 7.3L12.09 7.8L12.03 7.85L10.02 9.44L9.4 9.93C9.37 9.94 9.36 9.97 9.34 9.99C9.33 10.02 9.32 10.04 9.32 10.07C9.32 10.1 9.33 10.13 9.34 10.16C9.36 10.18 9.37 10.2 9.4 10.22L10.02 10.71L12.03 12.3L12.09 12.35L12.72 12.85C12.84 12.94 13.03 12.86 13.03 12.7L13.03 10.92L20.39 10.92C20.49 10.92 20.57 10.83 20.57 10.73L20.57 9.42C20.57 9.31 20.49 9.23 20.39 9.23L13.03 9.23L13.03 8.23ZM12.03 9.12L10.82 10.07L12.03 11.02L12.03 9.12Z" fill="#50439F" fill-opacity="1.000000" fill-rule="evenodd"/>
</svg>
