<svg aria-hidden="true" style="position: absolute; width: 0; height: 0; overflow: hidden;" version="1.1" xmlns="http://www.w3.org/2000/svg" xmlns:xlink="http://www.w3.org/1999/xlink">
<defs>
<symbol id="applications" width="32" height="32" viewBox="0 0 32 32" fill="none" xmlns="http://www.w3.org/2000/svg">
 <path d="M29 5H3C2.44687 5 2 5.44687 2 6V26C2 26.5531 2.44687 27 3 27H29C29.5531 27 30 26.5531 30 26V6C30 5.44687 29.5531 5 29 5ZM27.75 24.75H4.25V7.25H27.75V24.75ZM19.0719 14.875H22.9281C22.9688 14.875 23 14.7625 23 14.625V13.125C23 12.9875 22.9688 12.875 22.9281 12.875H19.0719C19.0312 12.875 19 12.9875 19 13.125V14.625C19 14.7625 19.0312 14.875 19.0719 14.875ZM19.2219 19.375H25.025C25.1469 19.375 25.2469 19.2625 25.2469 19.125V17.625C25.2469 17.4875 25.1469 17.375 25.025 17.375H19.2219C19.1 17.375 19 17.4875 19 17.625V19.125C19 19.2625 19.1 19.375 19.2219 19.375ZM7 21.0312H8.37187C8.50312 21.0312 8.60937 20.9281 8.61875 20.7969C8.7375 19.2188 10.0562 17.9688 11.6562 17.9688C13.2563 17.9688 14.575 19.2188 14.6938 20.7969C14.7031 20.9281 14.8094 21.0312 14.9406 21.0312H16.3125C16.3464 21.0313 16.38 21.0244 16.4111 21.0111C16.4423 20.9978 16.4705 20.9782 16.4938 20.9537C16.5172 20.9291 16.5354 20.9001 16.5472 20.8683C16.559 20.8365 16.5642 20.8026 16.5625 20.7687C16.475 19.1031 15.5625 17.6531 14.2312 16.8281C14.8183 16.1828 15.1427 15.3412 15.1406 14.4688C15.1406 12.5344 13.5813 10.9688 11.6594 10.9688C9.7375 10.9688 8.17813 12.5344 8.17813 14.4688C8.17813 15.3781 8.52187 16.2031 9.0875 16.8281C8.40978 17.2481 7.84377 17.8259 7.43781 18.5121C7.03185 19.1983 6.79801 19.9725 6.75625 20.7687C6.74375 20.9125 6.85625 21.0312 7 21.0312ZM11.6562 12.8438C12.5469 12.8438 13.2719 13.5719 13.2719 14.4688C13.2719 15.3656 12.5469 16.0938 11.6562 16.0938C10.7656 16.0938 10.0406 15.3656 10.0406 14.4688C10.0406 13.5719 10.7656 12.8438 11.6562 12.8438Z" fill="#50439F"/>
</symbol>

<symbol id="blog" width="32" height="32" viewBox="0 0 32 32" fill="none" xmlns="http://www.w3.org/2000/svg">
<path d="M5.33335 26.6667C4.60002 26.6667 3.97246 26.4058 3.45069 25.884C2.92891 25.3622 2.66758 24.7342 2.66669 24V8C2.66669 7.26667 2.92802 6.63912 3.45069 6.11734C3.97335 5.59556 4.60091 5.33423 5.33335 5.33334H17.3334C17.7111 5.33334 18.028 5.46134 18.284 5.71734C18.54 5.97334 18.6676 6.28978 18.6667 6.66667C18.6658 7.04356 18.5378 7.36045 18.2827 7.61734C18.0276 7.87423 17.7111 8.00178 17.3334 8H5.33335V24H26.6667V16C26.6667 15.6222 26.7947 15.3058 27.0507 15.0507C27.3067 14.7956 27.6231 14.6676 28 14.6667C28.3769 14.6658 28.6938 14.7938 28.9507 15.0507C29.2076 15.3076 29.3351 15.624 29.3334 16V24C29.3334 24.7333 29.0725 25.3613 28.5507 25.884C28.0289 26.4067 27.4009 26.6676 26.6667 26.6667H5.33335ZM9.33335 21.3333H16C16.3778 21.3333 16.6947 21.2053 16.9507 20.9493C17.2067 20.6933 17.3342 20.3769 17.3334 20V18.6667C17.3334 18.2889 17.2054 17.9724 16.9494 17.7173C16.6934 17.4622 16.3769 17.3342 16 17.3333H9.33335C8.95558 17.3333 8.63913 17.4613 8.38402 17.7173C8.12891 17.9733 8.00091 18.2898 8.00002 18.6667V20C8.00002 20.3778 8.12802 20.6947 8.38402 20.9507C8.64002 21.2067 8.95646 21.3342 9.33335 21.3333ZM9.33335 14.6667H16C16.3778 14.6667 16.6947 14.5387 16.9507 14.2827C17.2067 14.0267 17.3342 13.7102 17.3334 13.3333V12C17.3334 11.6222 17.2054 11.3058 16.9494 11.0507C16.6934 10.7956 16.3769 10.6676 16 10.6667H9.33335C8.95558 10.6667 8.63913 10.7947 8.38402 11.0507C8.12891 11.3067 8.00091 11.6231 8.00002 12V13.3333C8.00002 13.7111 8.12802 14.028 8.38402 14.284C8.64002 14.54 8.95646 14.6676 9.33335 14.6667ZM21.3334 21.3333H22.6667C23.0445 21.3333 23.3614 21.2053 23.6174 20.9493C23.8734 20.6933 24.0009 20.3769 24 20V16C24 15.6222 23.872 15.3058 23.616 15.0507C23.36 14.7956 23.0436 14.6676 22.6667 14.6667H21.3334C20.9556 14.6667 20.6391 14.7947 20.384 15.0507C20.1289 15.3067 20.0009 15.6231 20 16V20C20 20.3778 20.128 20.6947 20.384 20.9507C20.64 21.2067 20.9565 21.3342 21.3334 21.3333ZM24 9.33334H22.6667C22.2889 9.33334 21.9725 9.20534 21.7174 8.94934C21.4622 8.69334 21.3342 8.37689 21.3334 8C21.3325 7.62312 21.4605 7.30667 21.7174 7.05067C21.9742 6.79467 22.2907 6.66667 22.6667 6.66667H24V5.33334C24 4.95556 24.128 4.63912 24.384 4.384C24.64 4.12889 24.9565 4.00089 25.3334 4C25.7102 3.99912 26.0271 4.12712 26.284 4.384C26.5409 4.64089 26.6685 4.95734 26.6667 5.33334V6.66667H28C28.3778 6.66667 28.6947 6.79467 28.9507 7.05067C29.2067 7.30667 29.3342 7.62312 29.3334 8C29.3325 8.37689 29.2045 8.69378 28.9494 8.95067C28.6942 9.20756 28.3778 9.33512 28 9.33334H26.6667V10.6667C26.6667 11.0444 26.5387 11.3613 26.2827 11.6173C26.0267 11.8733 25.7102 12.0009 25.3334 12C24.9565 11.9991 24.64 11.8711 24.384 11.616C24.128 11.3609 24 11.0444 24 10.6667V9.33334Z" fill="#50439F"/>
</symbol>

<symbol id="change-password" width="32" height="32" viewBox="0 0 32 32" fill="none" xmlns="http://www.w3.org/2000/svg">
<path d="M2.66665 25.3335V22.6668H29.3333V25.3335H2.66665ZM4.19998 17.2668L2.46665 16.2668L3.59998 14.2668H1.33331V12.2668H3.59998L2.46665 10.3335L4.19998 9.3335L5.33331 11.2668L6.46665 9.3335L8.19998 10.3335L7.06665 12.2668H9.33331V14.2668H7.06665L8.19998 16.2668L6.46665 17.2668L5.33331 15.2668L4.19998 17.2668ZM14.8666 17.2668L13.1333 16.2668L14.2666 14.2668H12V12.2668H14.2666L13.1333 10.3335L14.8666 9.3335L16 11.2668L17.1333 9.3335L18.8666 10.3335L17.7333 12.2668H20V14.2668H17.7333L18.8666 16.2668L17.1333 17.2668L16 15.2668L14.8666 17.2668ZM25.5333 17.2668L23.8 16.2668L24.9333 14.2668H22.6666V12.2668H24.9333L23.8 10.3335L25.5333 9.3335L26.6666 11.2668L27.8 9.3335L29.5333 10.3335L28.4 12.2668H30.6666V14.2668H28.4L29.5333 16.2668L27.8 17.2668L26.6666 15.2668L25.5333 17.2668Z" fill="#50439F"/>
</symbol>

<symbol id="contacts" width="32" height="32" viewBox="0 0 32 32" fill="none" xmlns="http://www.w3.org/2000/svg">
<path d="M27.4094 7.45937L24.0812 4.13438C23.675 3.72813 23.1313 3.5 22.5562 3.5C21.9812 3.5 21.4375 3.725 21.0312 4.13438L17.4469 7.7125C17.0406 8.11875 16.8125 8.66563 16.8125 9.24063C16.8125 9.81875 17.0375 10.3594 17.4469 10.7688L20.2469 13.5719C19.609 15.0581 18.6925 16.4084 17.5469 17.55C16.4 18.7031 15.0594 19.6125 13.5719 20.2563L10.7719 17.4531C10.3656 17.0469 9.82187 16.8188 9.24687 16.8188C8.96326 16.8177 8.68229 16.8733 8.42042 16.9822C8.15856 17.0911 7.92107 17.2512 7.72188 17.4531L4.13438 21.0312C3.72813 21.4375 3.5 21.9844 3.5 22.5594C3.5 23.1375 3.725 23.6781 4.13438 24.0875L7.45937 27.4125C8.15312 28.1063 9.10938 28.5031 10.0906 28.5031C10.2937 28.5031 10.4906 28.4875 10.6906 28.4531C14.8281 27.7719 18.9344 25.5688 22.25 22.2563C25.5625 18.9375 27.7625 14.8313 28.45 10.6906C28.6469 9.51562 28.2531 8.30625 27.4094 7.45937ZM26.2344 10.3188C25.625 14.0031 23.6437 17.6781 20.6594 20.6625C17.675 23.6469 14.0031 25.6281 10.3188 26.2375C9.85625 26.3156 9.38125 26.1594 9.04375 25.825L5.77812 22.5594L9.24063 19.0938L12.9844 22.8438L13.0125 22.8719L13.6875 22.6219C15.7341 21.8694 17.5927 20.6809 19.1343 19.1387C20.676 17.5965 21.8639 15.7375 22.6156 13.6906L22.8656 13.0156L19.0906 9.24375L22.5531 5.77812L25.8188 9.04375C26.1562 9.38125 26.3125 9.85625 26.2344 10.3188Z" fill="#50439F"/>
</symbol>

<symbol id="counter" width="32" height="32" viewBox="0 0 32 32" fill="none" xmlns="http://www.w3.org/2000/svg">
<path d="M28.75 23.75H10.5C10.3625 23.75 10.25 23.8625 10.25 24V25.75C10.25 25.8875 10.3625 26 10.5 26H28.75C28.8875 26 29 25.8875 29 25.75V24C29 23.8625 28.8875 23.75 28.75 23.75ZM28.75 6H10.5C10.3625 6 10.25 6.1125 10.25 6.25V8C10.25 8.1375 10.3625 8.25 10.5 8.25H28.75C28.8875 8.25 29 8.1375 29 8V6.25C29 6.1125 28.8875 6 28.75 6ZM28.75 14.875H10.5C10.3625 14.875 10.25 14.9875 10.25 15.125V16.875C10.25 17.0125 10.3625 17.125 10.5 17.125H28.75C28.8875 17.125 29 17.0125 29 16.875V15.125C29 14.9875 28.8875 14.875 28.75 14.875ZM6.75 22.25H3.125C3.05625 22.25 3 22.3062 3 22.375V23.4375C3 23.5063 3.05625 23.5625 3.125 23.5625H5.3875V24.2031H4.27187C4.20312 24.2031 4.14687 24.2594 4.14687 24.3281V25.3906C4.14687 25.4594 4.20312 25.5156 4.27187 25.5156H5.3875V26.1875H3.125C3.05625 26.1875 3 26.2437 3 26.3125V27.375C3 27.4438 3.05625 27.5 3.125 27.5H6.75C6.81875 27.5 6.875 27.4438 6.875 27.375V22.375C6.875 22.3062 6.81875 22.25 6.75 22.25ZM3.125 5.875H4.3125V9.625C4.3125 9.69375 4.36875 9.75 4.4375 9.75H5.6875C5.75625 9.75 5.8125 9.69375 5.8125 9.625V4.75C5.8125 4.6125 5.7 4.5 5.5625 4.5H3.125C3.05625 4.5 3 4.55625 3 4.625V5.75C3 5.81875 3.05625 5.875 3.125 5.875ZM6.75 13.375H3.125C3.05625 13.375 3 13.4312 3 13.5V14.625C3 14.6938 3.05625 14.75 3.125 14.75H5.2625L3.06562 17.1781C3.02419 17.2247 3.00089 17.2846 3 17.3469V18.5C3 18.5688 3.05625 18.625 3.125 18.625H6.75C6.81875 18.625 6.875 18.5688 6.875 18.5V17.375C6.875 17.3062 6.81875 17.25 6.75 17.25H4.6125L6.80937 14.8219C6.85081 14.7753 6.87411 14.7154 6.875 14.6531V13.5C6.875 13.4312 6.81875 13.375 6.75 13.375Z" fill="#50439F"/>
</symbol>

<symbol id="documents" width="32" height="32" viewBox="0 0 32 32" fill="none" xmlns="http://www.w3.org/2000/svg">
<path d="M26.7062 9.01875L19.9813 2.29375C19.7938 2.10625 19.5406 2 19.275 2H6C5.44687 2 5 2.44687 5 3V29C5 29.5531 5.44687 30 6 30H26C26.5531 30 27 29.5531 27 29V9.72812C27 9.4625 26.8937 9.20625 26.7062 9.01875ZM24.6938 10.1875H18.8125V4.30625L24.6938 10.1875ZM24.75 27.75H7.25V4.25H16.6875V11C16.6875 11.3481 16.8258 11.6819 17.0719 11.9281C17.3181 12.1742 17.6519 12.3125 18 12.3125H24.75V27.75ZM15.75 19.3125H10C9.8625 19.3125 9.75 19.425 9.75 19.5625V21.0625C9.75 21.2 9.8625 21.3125 10 21.3125H15.75C15.8875 21.3125 16 21.2 16 21.0625V19.5625C16 19.425 15.8875 19.3125 15.75 19.3125ZM9.75 15.3125V16.8125C9.75 16.95 9.8625 17.0625 10 17.0625H22C22.1375 17.0625 22.25 16.95 22.25 16.8125V15.3125C22.25 15.175 22.1375 15.0625 22 15.0625H10C9.8625 15.0625 9.75 15.175 9.75 15.3125Z" fill="#50439F"/>
</symbol>

<symbol id="friends" width="32" height="32" viewBox="0 0 32 32" fill="none" xmlns="http://www.w3.org/2000/svg">
<path d="M9 13.1562C9 13.5541 9.15804 13.9356 9.43934 14.2169C9.72064 14.4982 10.1022 14.6562 10.5 14.6562C10.8978 14.6562 11.2794 14.4982 11.5607 14.2169C11.842 13.9356 12 13.5541 12 13.1562C12 12.7584 11.842 12.3769 11.5607 12.0956C11.2794 11.8143 10.8978 11.6562 10.5 11.6562C10.1022 11.6562 9.72064 11.8143 9.43934 12.0956C9.15804 12.3769 9 12.7584 9 13.1562ZM20 13.1562C20 13.5541 20.158 13.9356 20.4393 14.2169C20.7206 14.4982 21.1022 14.6562 21.5 14.6562C21.8978 14.6562 22.2794 14.4982 22.5607 14.2169C22.842 13.9356 23 13.5541 23 13.1562C23 12.7584 22.842 12.3769 22.5607 12.0956C22.2794 11.8143 21.8978 11.6562 21.5 11.6562C21.1022 11.6562 20.7206 11.8143 20.4393 12.0956C20.158 12.3769 20 12.7584 20 13.1562ZM16 2C8.26875 2 2 8.26875 2 16C2 23.7313 8.26875 30 16 30C23.7313 30 30 23.7313 30 16C30 8.26875 23.7313 2 16 2ZM24.2188 24.2188C23.15 25.2875 21.9062 26.125 20.5219 26.7125C19.0938 27.3188 17.5719 27.625 16 27.625C14.4281 27.625 12.9062 27.3188 11.475 26.7125C10.0927 26.1287 8.83713 25.2818 7.77812 24.2188C6.70937 23.15 5.87188 21.9062 5.28438 20.5219C4.68125 19.0938 4.375 17.5719 4.375 16C4.375 14.4281 4.68125 12.9062 5.2875 11.475C5.87127 10.0927 6.71824 8.83713 7.78125 7.77812C8.85 6.70937 10.0938 5.87188 11.4781 5.28438C12.9062 4.68125 14.4281 4.375 16 4.375C17.5719 4.375 19.0938 4.68125 20.525 5.2875C21.9073 5.87127 23.1629 6.71824 24.2219 7.78125C25.2906 8.85 26.1281 10.0938 26.7156 11.4781C27.3188 12.9062 27.625 14.4281 27.625 16C27.625 17.5719 27.3188 19.0938 26.7125 20.525C26.1294 21.9067 25.2824 23.1614 24.2188 24.2188ZM20.75 16.6562H19.2469C19.1156 16.6562 19.0031 16.7563 18.9937 16.8875C18.875 18.4344 17.5781 19.6562 16 19.6562C14.4219 19.6562 13.1219 18.4344 13.0063 16.8875C12.9969 16.7563 12.8844 16.6562 12.7531 16.6562H11.25C11.2161 16.6562 11.1825 16.6631 11.1514 16.6764C11.1202 16.6897 11.092 16.7093 11.0687 16.7338C11.0453 16.7584 11.0271 16.7874 11.0153 16.8192C11.0035 16.851 10.9983 16.8849 11 16.9188C11.1375 19.5531 13.3281 21.6562 16 21.6562C18.6719 21.6562 20.8625 19.5531 21 16.9188C21.0017 16.8849 20.9965 16.851 20.9847 16.8192C20.9729 16.7874 20.9547 16.7584 20.9313 16.7338C20.908 16.7093 20.8798 16.6897 20.8486 16.6764C20.8175 16.6631 20.7839 16.6562 20.75 16.6562Z" fill="#50439F"/>
</symbol>

<symbol id="partners" width="32" height="32" viewBox="0 0 32 32" fill="none" xmlns="http://www.w3.org/2000/svg">
<path d="M28.112 8.641l-6.081 3.747-5.831-7.778c-0.023-0.031-0.054-0.057-0.089-0.074s-0.073-0.027-0.113-0.027c-0.039 0-0.078 0.009-0.113 0.027s-0.066 0.043-0.089 0.074l-5.828 7.778-6.084-3.747c-0.178-0.109-0.409 0.037-0.381 0.247l2.387 18.144c0.034 0.247 0.247 0.438 0.5 0.438h19.222c0.25 0 0.466-0.188 0.497-0.438l2.387-18.144c0.025-0.209-0.203-0.356-0.384-0.247zM24.174 25.331h-16.353l-1.681-12.794 4.369 2.691 5.491-7.325 5.491 7.325 4.369-2.691-1.684 12.794zM15.999 15.906c-1.941 0-3.519 1.578-3.519 3.519s1.578 3.519 3.519 3.519 3.519-1.578 3.519-3.519c0-1.941-1.578-3.519-3.519-3.519zM15.999 20.935c-0.831 0-1.506-0.675-1.506-1.509 0-0.831 0.675-1.509 1.506-1.509s1.506 0.675 1.506 1.509c0 0.831-0.675 1.509-1.506 1.509z" fill="#50439F"></path>
</symbol>

<symbol id="photo" width="32" height="32" viewBox="0 0 32 32" fill="none" xmlns="http://www.w3.org/2000/svg">
<path d="M29 5H3C2.44687 5 2 5.44687 2 6V26C2 26.5531 2.44687 27 3 27H29C29.5531 27 30 26.5531 30 26V6C30 5.44687 29.5531 5 29 5ZM27.75 24.75H4.25V23.5031L8.57812 18.3687L13.2688 23.9312L20.5656 15.2812L27.75 23.8V24.75ZM27.75 20.6938L20.7563 12.4C20.6562 12.2812 20.475 12.2812 20.375 12.4L13.2688 20.825L8.76875 15.4906C8.66875 15.3719 8.4875 15.3719 8.3875 15.4906L4.25 20.3969V7.25H27.75V20.6938ZM9.5 14.25C9.86114 14.25 10.2187 14.1789 10.5524 14.0407C10.886 13.9025 11.1892 13.6999 11.4445 13.4445C11.6999 13.1892 11.9025 12.886 12.0407 12.5524C12.1789 12.2187 12.25 11.8611 12.25 11.5C12.25 11.1389 12.1789 10.7813 12.0407 10.4476C11.9025 10.114 11.6999 9.81082 11.4445 9.55546C11.1892 9.3001 10.886 9.09753 10.5524 8.95933C10.2187 8.82113 9.86114 8.75 9.5 8.75C8.77065 8.75 8.07118 9.03973 7.55546 9.55546C7.03973 10.0712 6.75 10.7707 6.75 11.5C6.75 12.2293 7.03973 12.9288 7.55546 13.4445C8.07118 13.9603 8.77065 14.25 9.5 14.25ZM9.5 10.625C9.98438 10.625 10.375 11.0156 10.375 11.5C10.375 11.9844 9.98438 12.375 9.5 12.375C9.01562 12.375 8.625 11.9844 8.625 11.5C8.625 11.0156 9.01562 10.625 9.5 10.625Z" fill="#50439F"/>
</symbol>

<symbol id="press" width="32" height="32" viewBox="0 0 32 32" fill="none" xmlns="http://www.w3.org/2000/svg">
<path d="M11 14C11 13.7348 11.1054 13.4804 11.2929 13.2929C11.4804 13.1054 11.7348 13 12 13H22C22.2652 13 22.5196 13.1054 22.7071 13.2929C22.8946 13.4804 23 13.7348 23 14C23 14.2652 22.8946 14.5196 22.7071 14.7071C22.5196 14.8946 22.2652 15 22 15H12C11.7348 15 11.4804 14.8946 11.2929 14.7071C11.1054 14.5196 11 14.2652 11 14ZM12 19H22C22.2652 19 22.5196 18.8946 22.7071 18.7071C22.8946 18.5196 23 18.2652 23 18C23 17.7348 22.8946 17.4804 22.7071 17.2929C22.5196 17.1054 22.2652 17 22 17H12C11.7348 17 11.4804 17.1054 11.2929 17.2929C11.1054 17.4804 11 17.7348 11 18C11 18.2652 11.1054 18.5196 11.2929 18.7071C11.4804 18.8946 11.7348 19 12 19ZM29 8V23C29 23.7956 28.6839 24.5587 28.1213 25.1213C27.5587 25.6839 26.7956 26 26 26H4C3.20673 26 2.44574 25.6858 1.88353 25.1262C1.32131 24.5665 1.00364 23.807 1 23.0138V11C1 10.7348 1.10536 10.4804 1.29289 10.2929C1.48043 10.1054 1.73478 10 2 10C2.26522 10 2.51957 10.1054 2.70711 10.2929C2.89464 10.4804 3 10.7348 3 11V23C3 23.2652 3.10536 23.5196 3.29289 23.7071C3.48043 23.8946 3.73478 24 4 24C4.26522 24 4.51957 23.8946 4.70711 23.7071C4.89464 23.5196 5 23.2652 5 23V8C5 7.46957 5.21071 6.96086 5.58579 6.58579C5.96086 6.21071 6.46957 6 7 6H27C27.5304 6 28.0391 6.21071 28.4142 6.58579C28.7893 6.96086 29 7.46957 29 8ZM27 8H7V23C7.0006 23.3407 6.94267 23.6789 6.82875 24H26C26.2652 24 26.5196 23.8946 26.7071 23.7071C26.8946 23.5196 27 23.2652 27 23V8Z" fill="#50439F"/>
</symbol>

<symbol id="team" width="32" height="32" viewBox="0 0 32 32" fill="none" xmlns="http://www.w3.org/2000/svg">
<path d="M25.7563 21.8716C24.9741 21.0888 24.0601 20.4499 23.0563 19.9841C24.4719 18.8373 25.375 17.0873 25.375 15.1248C25.375 11.6623 22.4875 8.82163 19.025 8.87476C15.6156 8.92788 12.8688 11.706 12.8688 15.1248C12.8688 17.0873 13.775 18.8373 15.1875 19.9841C14.1835 20.4496 13.2695 21.0885 12.4875 21.8716C10.7813 23.581 9.81252 25.8373 9.75002 28.2435C9.74918 28.2769 9.75503 28.31 9.76722 28.3411C9.77941 28.3722 9.7977 28.4005 9.82099 28.4243C9.84429 28.4482 9.87213 28.4672 9.90288 28.4801C9.93363 28.4931 9.96665 28.4998 10 28.4998H11.75C11.8844 28.4998 11.9969 28.3935 12 28.2591C12.0594 26.4466 12.7938 24.7498 14.0844 23.4623C14.7448 22.7983 15.5304 22.2719 16.3956 21.9136C17.2608 21.5553 18.1885 21.3721 19.125 21.3748C21.0281 21.3748 22.8188 22.1154 24.1656 23.4623C25.4531 24.7498 26.1875 26.4466 26.25 28.2591C26.2531 28.3935 26.3656 28.4998 26.5 28.4998H28.25C28.2834 28.4998 28.3164 28.4931 28.3472 28.4801C28.3779 28.4672 28.4057 28.4482 28.429 28.4243C28.4523 28.4005 28.4706 28.3722 28.4828 28.3411C28.495 28.31 28.5009 28.2769 28.5 28.2435C28.4375 25.8373 27.4688 23.581 25.7563 21.8716ZM19.125 19.1248C18.0563 19.1248 17.05 18.7091 16.2969 17.9529C15.9189 17.5779 15.6204 17.1306 15.419 16.6378C15.2177 16.1449 15.1177 15.6165 15.125 15.0841C15.1344 14.0591 15.5438 13.0685 16.2594 12.3341C17.0094 11.5654 18.0125 11.1373 19.0844 11.1248C20.1438 11.1154 21.1719 11.5279 21.9281 12.2685C22.7031 13.0279 23.1281 14.0435 23.1281 15.1248C23.1281 16.1935 22.7125 17.1966 21.9563 17.9529C21.5852 18.3257 21.144 18.6212 20.658 18.8224C20.172 19.0235 19.651 19.1263 19.125 19.1248ZM11.2969 15.9498C11.2688 15.6779 11.2531 15.4029 11.2531 15.1248C11.2531 14.6279 11.3 14.1435 11.3875 13.6716C11.4094 13.5591 11.35 13.4435 11.2469 13.3966C10.8219 13.206 10.4313 12.9435 10.0938 12.6123C9.69608 12.2267 9.38314 11.7624 9.17491 11.2491C8.96668 10.7358 8.86774 10.1847 8.88439 9.63101C8.91252 8.62788 9.31564 7.67476 10.0188 6.95601C10.7906 6.16538 11.8281 5.73413 12.9313 5.74663C13.9281 5.75601 14.8906 6.14038 15.6188 6.82163C15.8656 7.05288 16.0781 7.30913 16.2563 7.58413C16.3188 7.68101 16.4406 7.72163 16.5469 7.68413C17.0969 7.49351 17.6781 7.35913 18.275 7.29663C18.45 7.27788 18.55 7.09038 18.4719 6.93413C17.4563 4.92476 15.3813 3.53726 12.9813 3.49976C9.51564 3.44663 6.62814 6.28726 6.62814 9.74663C6.62814 11.7091 7.53127 13.4591 8.94689 14.606C7.95314 15.0654 7.03752 15.6998 6.24377 16.4935C4.53127 18.2029 3.56252 20.4591 3.50002 22.8685C3.49918 22.9019 3.50503 22.935 3.51722 22.9661C3.52941 22.9972 3.5477 23.0255 3.57099 23.0493C3.59429 23.0732 3.62213 23.0922 3.65288 23.1051C3.68363 23.1181 3.71665 23.1248 3.75002 23.1248H5.50314C5.63752 23.1248 5.75002 23.0185 5.75314 22.8841C5.81252 21.0716 6.54689 19.3748 7.83752 18.0873C8.75627 17.1685 9.88127 16.531 11.1094 16.2216C11.2313 16.1904 11.3125 16.0748 11.2969 15.9498Z" fill="#50439F"/>
</symbol>

<symbol id="testimonials" width="32" height="32" viewBox="0 0 32 32" fill="none" xmlns="http://www.w3.org/2000/svg">
<path d="M12.1 18.9998L16 16.6332L19.9 18.9998L18.8667 14.5665L22.3334 11.5665L17.7667 11.1998L16 6.99984L14.2334 11.1998L9.66669 11.5665L13.1334 14.5665L12.1 18.9998ZM2.66669 29.3332V5.33317C2.66669 4.59984 2.92802 3.97228 3.45069 3.4505C3.97335 2.92873 4.60091 2.66739 5.33335 2.6665H26.6667C27.4 2.6665 28.028 2.92784 28.5507 3.4505C29.0734 3.97317 29.3342 4.60073 29.3334 5.33317V21.3332C29.3334 22.0665 29.0725 22.6945 28.5507 23.2172C28.0289 23.7398 27.4009 24.0007 26.6667 23.9998H8.00002L2.66669 29.3332ZM6.86669 21.3332H26.6667V5.33317H5.33335V22.8332L6.86669 21.3332Z" fill="#50439F"/>
</symbol>

<symbol id="logout" width="24" height="24" viewBox="0 0 24 24" fill="none" xmlns="http://www.w3.org/2000/svg">
<path d="M11.7739 21.5781L11.7739 21.5781C14.9607 21.5864 17.7889 20.0407 19.5378 17.6562H18.5445C18.3807 17.852 18.2066 18.041 18.024 18.2213C17.2154 19.0273 16.2737 19.6635 15.2249 20.1059C14.1411 20.5633 12.9875 20.7968 11.7984 20.7968C10.6102 20.7968 9.45636 20.566 8.37162 20.1058C7.32253 19.6632 6.38073 19.0267 5.57197 18.2205C4.76194 17.4129 4.12809 16.4707 3.68359 15.4253L3.68345 15.425C3.22317 14.3402 2.99217 13.1885 2.99217 12C2.99217 10.8107 3.22578 9.65945 3.68307 8.57587L3.6832 8.57556C4.12575 7.52886 4.76241 6.58654 5.57197 5.77946C6.38084 4.97307 7.32279 4.33654 8.37207 3.89396C9.45652 3.43595 10.6221 3.20099 11.7993 3.20309M11.7739 21.5781L11.7984 3.70309M11.7739 21.5781C6.43562 21.5647 2.15743 17.2326 2.21089 11.9019M11.7739 21.5781L1.71092 11.8968M11.7993 3.20309L11.7984 3.70309M11.7993 3.20309C11.799 3.20309 11.7987 3.20309 11.7984 3.20309V3.70309M11.7993 3.20309C12.9881 3.20321 14.1414 3.43676 15.2249 3.89399L15.2249 3.89402C16.2716 4.33589 17.2227 4.97642 18.0256 5.78019M11.7984 3.70309C12.9211 3.70309 14.0086 3.9234 15.0304 4.35465C16.0176 4.77139 16.9146 5.3755 17.6719 6.13356M18.0256 5.78019C18.0255 5.78013 18.0255 5.78007 18.0254 5.78L17.6719 6.13356M18.0256 5.78019L17.6719 6.13356M18.0256 5.78019C18.2093 5.96394 18.3808 6.15275 18.5437 6.34371M17.6719 6.13356C17.857 6.31871 18.0304 6.5109 18.1969 6.70778C18.2672 6.7945 18.375 6.84371 18.4851 6.84371H20.1328C20.2804 6.84371 20.3719 6.67965 20.2898 6.55543C18.4945 3.76871 15.3633 1.92184 11.7984 1.92184C6.26248 1.92184 1.76717 6.37731 1.71092 11.8968M18.5437 6.34371H18.4851C18.5174 6.34371 18.5514 6.35608 18.5785 6.38517C18.5808 6.38762 18.5831 6.39019 18.5852 6.39288L18.5853 6.39281L18.5787 6.38501C18.5671 6.37123 18.5554 6.35747 18.5437 6.34371ZM18.5437 6.34371H19.5374M19.5374 6.34371C19.6529 6.50097 19.7636 6.66187 19.8695 6.82622L19.8695 6.82624L19.8726 6.83096C19.8715 6.82938 19.8705 6.8278 19.8695 6.82622C19.7308 6.60874 19.896 6.34371 20.1328 6.34371H19.5374ZM19.5374 6.34371C17.7916 3.96545 14.9761 2.42184 11.7984 2.42184C6.53652 2.42184 2.26439 6.65665 2.21089 11.9019M2.21089 11.9019L1.71092 11.8968M2.21089 11.9019C2.21089 11.9019 2.21089 11.9019 2.21089 11.9019L1.71092 11.8968M14.2417 11.1562V11.6562H14.7417L21.7886 11.6562V12.3437L14.7417 12.3437H14.2417V12.8437V13.9815L11.7312 12L14.2417 10.0184V11.1562ZM11.2275 11.9996L11.2284 11.9992L11.2275 11.9996Z" fill="#948EB6" fill-opacity="0.71" stroke="#50439F"/>
</symbol>

</svg>