<svg id='party-hat-violet' width="77.14" height="114" viewBox="0 0 114 136" fill="none" xmlns="http://www.w3.org/2000/svg">
<g id="Group">
<path id="Vector" d="M7.26021 89.0637C7.26021 89.0637 27.0857 122.614 72.8416 131.367C72.9796 132.035 87.8547 37.0805 87.8547 37.0805L7.24599 89.07L7.26021 89.0637Z" fill="#50439F"/>
<g id="Group_2">
<path id="Vector_2" d="M52.6583 90.8714C53.8104 87.6883 51.8676 83.8725 48.3232 82.357C44.7788 80.8416 40.9648 82.1959 39.8127 85.379C38.6607 88.5621 40.6035 92.3779 44.1479 93.8934C47.6922 95.4089 51.5063 94.0545 52.6583 90.8714Z" fill="#FFFCF5"/>
<path id="Vector_3" d="M74.3171 89.9058C75.0084 87.9958 73.8519 85.7079 71.7252 84.7986C69.5984 83.8893 67.307 84.703 66.6158 86.6129C65.9245 88.5229 67.0917 90.8154 69.2184 91.7247C71.3452 92.634 73.6258 91.8158 74.3171 89.9058Z" fill="#FFFCF5"/>
<path id="Vector_4" d="M22.3855 92.1099C23.0767 90.1999 21.9202 87.912 19.7935 87.0027C17.6668 86.0934 15.3754 86.9071 14.6841 88.817C13.9929 90.727 15.1601 93.0195 17.2868 93.9288C19.4135 94.8381 21.6907 94.0295 22.3855 92.1099Z" fill="#FFFCF5"/>
<g id="Group_3">
<path id="Vector_5" d="M74.0515 55.4524C72.9428 58.5963 74.9802 62.4375 78.5976 64.0235C80.5926 64.8983 82.6406 64.9052 84.2764 64.2144C84.584 60.6863 84.8749 57.3489 85.1342 54.3167C84.4263 53.6323 83.5803 53.0524 82.6157 52.6294C78.9983 51.0434 75.1602 52.3086 74.0515 55.4524Z" fill="#FFFCF5"/>
<path id="Vector_6" d="M65.8151 127.949C66.899 124.89 64.9065 121.151 61.3691 119.608C57.8318 118.065 54.0787 119.297 52.9948 122.357C52.7288 123.108 52.6474 123.897 52.7251 124.691C56.5709 126.411 60.6464 128.007 64.9509 129.446C65.3138 129.015 65.604 128.51 65.8011 127.954L65.8151 127.949Z" fill="#FFFCF5"/>
<path id="Vector_7" d="M54.4725 62.7778C56.8464 63.8186 59.351 62.9846 60.0752 60.9309C60.6384 59.3336 59.9582 57.4656 58.5126 56.228L51.644 59.9459C52.1366 61.1279 53.1236 62.1973 54.4692 62.7873L54.4725 62.7778Z" fill="#FFFCF5"/>
<path id="Vector_8" d="M74.8773 118.232C73.6979 118.538 72.7381 119.302 72.3276 120.451C71.7067 122.19 72.5413 124.22 74.1967 125.504C74.3845 123.498 74.6131 121.045 74.8738 118.242L74.8773 118.232Z" fill="#FFFCF5"/>
</g>
</g>
<g id="Vector_9" style="mix-blend-mode:multiply">
<path d="M72.5475 132.096C72.6812 132.714 85.6733 49.8764 87.3793 38.9877C87.1314 38.7485 86.9102 38.5316 86.7217 38.3512L78.2938 43.7842C79.1739 44.4848 80.1232 45.1891 81.1317 45.8931C87.4099 50.2892 77.7549 68.5691 72.0897 88.6095C66.8187 107.26 57.5048 124.494 17.1227 83.235L6.95592 89.7879C6.95592 89.7879 26.7814 123.338 72.5373 132.092L72.5475 132.096Z" fill="#CDD0D1"/>
</g>
<g id="Group_4">
<path id="Vector_10" d="M100.336 39.5426C97.2375 44.2659 90.3159 45.1937 84.8748 41.6198C79.4337 38.0459 77.5391 31.3213 80.6377 26.5979C83.7328 21.8843 90.6578 20.9467 96.0989 24.5207C101.54 28.0946 103.435 34.8192 100.34 39.5329L100.336 39.5426Z" fill="#FFAB0B"/>
<g id="Vector_11" style="mix-blend-mode:multiply">
<path d="M100.273 29.2618C100.273 29.2618 100.263 29.2905 100.259 29.3001C97.1771 33.9955 90.2916 34.918 84.8789 31.3655C83.0057 30.1333 81.566 28.5217 80.6007 26.7585C77.5573 31.4484 79.4384 38.1093 84.8332 41.6431C90.2459 45.1957 97.1207 44.2686 100.214 39.5778C102.227 36.5071 102.11 32.6042 100.284 29.2663L100.273 29.2618Z" fill="#CDD0D1"/>
</g>
</g>
</g>
</svg>
