<svg width="58" height="76" viewBox="0 0 83 93" fill="none" xmlns="http://www.w3.org/2000/svg">
<path d="M13.9286 57.8262C13.9286 57.8262 25.6672 77.3941 52.5716 82.61C52.6545 82.9988 61.1342 27.8113 61.1342 27.8113L13.9202 57.8297L13.9286 57.8262Z" fill="#50439F"/>
<path d="M40.8287 59.5602C41.3733 58.0198 40.0195 55.7946 37.8081 54.5949C35.5967 53.3952 33.3586 53.6719 32.814 55.2122C32.2695 56.7526 33.6232 58.9778 35.8347 60.1775C38.0461 61.3772 40.2842 61.1005 40.8287 59.5602Z" fill="#FFFCF5"/>
<path d="M53.4629 58.834C53.7897 57.9096 52.983 56.5761 51.656 55.8562C50.329 55.1362 48.9843 55.3024 48.6576 56.2269C48.3308 57.1513 49.1441 58.4884 50.4711 59.2083C51.7981 59.9283 53.1362 59.7584 53.4629 58.834Z" fill="#FFFCF5"/>
<path d="M22.959 59.9741C23.2858 59.0497 22.4791 57.7163 21.1521 56.9963C19.8251 56.2763 18.4804 56.4426 18.1537 57.367C17.8269 58.2914 18.6402 59.6285 19.9672 60.3485C21.2942 61.0684 22.6306 60.9032 22.959 59.9741Z" fill="#FFFCF5"/>
<path d="M52.8028 37.7798C52.3081 39.2313 53.774 41.5134 56.0738 42.8719C57.3421 43.6212 58.5925 43.9318 59.551 43.8216C59.5345 42.0522 59.5189 40.3785 59.5016 38.857C59.0299 38.3987 58.4799 37.9734 57.8667 37.6112C55.5669 36.2527 53.2975 36.3282 52.8028 37.7798Z" fill="#FFFCF5"/>
<path d="M48.7173 80.9322C49.1914 79.6264 47.7972 77.5641 45.6065 76.3303C43.4158 75.0966 41.2517 75.1552 40.7776 76.4609C40.6613 76.7814 40.6569 77.1459 40.7474 77.5353C43.1315 78.897 45.6454 80.2316 48.2866 81.5237C48.4785 81.3696 48.623 81.1698 48.7092 80.9324L48.7173 80.9322Z" fill="#FFFCF5"/>
<path d="M41.7402 42.1718C43.2458 43.0584 44.7228 43.0054 45.0452 42.0628C45.296 41.3297 44.774 40.2725 43.8223 39.4237L39.8544 40.301C40.2226 40.9792 40.8854 41.6736 41.7388 42.1761L41.7402 42.1718Z" fill="#FFFCF5"/>
<path d="M53.6008 75.2083C52.8614 75.1885 52.2912 75.4632 52.0979 76.0454C51.8055 76.9262 52.4665 78.2086 53.6094 79.2044C53.6071 78.102 53.6035 76.7536 53.5991 75.2133L53.6008 75.2083Z" fill="#FFFCF5"/>
<g style="mix-blend-mode:multiply">
<path d="M52.4007 83.0326C52.4809 83.3929 59.8874 35.2477 60.86 28.9192C60.7137 28.7794 60.5831 28.6526 60.4719 28.5472L55.5355 31.6841C56.0544 32.094 56.6141 32.5063 57.2085 32.9185C60.9088 35.4925 55.2866 46.0982 52.0131 57.7388C48.9674 68.5719 43.5427 78.5705 19.7065 54.4628L13.7517 58.2464C13.7517 58.2464 25.4903 77.8144 52.3947 83.0302L52.4007 83.0326Z" fill="#CDD0D1"/>
</g>
<path d="M68.921 30.0082C67.2745 32.1356 63.1403 31.8343 59.6863 29.3374C56.2323 26.8406 54.7698 23.0933 56.4163 20.9659C58.0612 18.8432 62.197 19.1399 65.651 21.6367C69.105 24.1335 70.5675 27.8808 68.9227 30.0036L68.921 30.0082Z" fill="#FFAB0B"/>
<g style="mix-blend-mode:multiply">
<path d="M68.3051 24.7698C68.3051 24.7698 68.3002 24.7835 68.2985 24.788C66.6704 26.8658 62.5836 26.5686 59.17 24.1265C57.9884 23.28 57.0491 22.2862 56.3872 21.2675C54.7822 23.3468 56.2236 26.997 59.6257 29.4274C63.0394 31.8695 67.1194 32.1632 68.7542 30.089C69.8172 28.7298 69.564 26.7018 68.3117 24.7734L68.3051 24.7698Z" fill="#CDD0D1"/>
</g>
</svg>
