<svg id='red_bow_tie' width="61" height="45" viewBox="0 0 61 45" fill="none" xmlns="http://www.w3.org/2000/svg">
<g id="Group">
<g id="Group_2">
<g id="Group_3">
<path id="Vector" d="M28.0479 21.7767C28.0479 21.7767 17.6486 14.3262 1.86325 21.1574C-4.43942 23.888 7.05815 45.1511 9.62696 44.0438C12.1958 42.9365 24.2282 41.2287 29.7955 26.506C28.7355 24.1413 28.0479 21.7861 28.0479 21.7861V21.7767Z" fill="#E93405"/>
<g id="Group_4">
<path id="Vector_2" d="M4.74843 20.0409L3.03906 35.3736C4.32824 38.0854 5.81797 40.5627 7.10716 42.1766L9.71418 18.7554C8.13851 19.0369 6.48644 19.4497 4.74843 20.0409Z" fill="#FFF8FC"/>
<path id="Vector_3" d="M15.0723 42.1388C16.6479 41.4819 18.4146 40.5811 20.2099 39.3143L22.4349 19.2899C21.0789 18.9052 19.4937 18.5767 17.7175 18.3984L15.0818 42.1294L15.0723 42.1388Z" fill="#FFF8FC"/>
</g>
<g id="Clip path group">
<mask id="mask0_780_31187" style="mask-type:luminance" maskUnits="userSpaceOnUse" x="0" y="18" width="30" height="27">
<g id="clippath-3">
<path id="Vector_4" d="M28.0499 21.7767C28.0499 21.7767 17.6505 14.3262 1.8652 21.1574C-4.43747 23.888 7.0601 45.1511 9.62891 44.0438C12.1977 42.9365 24.2301 41.2287 29.7975 26.506C28.7375 24.1413 28.0499 21.7861 28.0499 21.7861V21.7767Z" fill="white"/>
</g>
</mask>
<g mask="url(#mask0_780_31187)">
<g id="Group_5">
<g id="Vector_5" style="mix-blend-mode:multiply">
<path d="M33.0902 27.2288C32.0303 24.8641 28.0481 21.7676 28.0481 21.7676C28.0481 21.7676 24.6581 19.3373 18.8138 18.5303C24.0851 25.2207 22.137 34.548 4.81421 40.469C5.80736 42.6929 11.3269 50.7908 11.3269 50.7908C11.3269 50.7908 27.5325 41.9515 33.0998 27.2288H33.0902Z" fill="#CDD0D1"/>
</g>
</g>
</g>
</g>
</g>
<g id="Group_6">
<path id="Vector_6" d="M30.7695 20.5938C30.7695 20.5938 32.1924 8.01993 47.9777 1.18873C54.2804 -1.54188 62.4738 21.1569 59.9146 22.2641C57.3458 23.3714 47.9491 30.9439 33.1378 25.0417C32.0778 22.677 30.7695 20.5938 30.7695 20.5938Z" fill="#E93405"/>
<g id="Group_7">
<path id="Vector_7" d="M38.1895 26.6088C39.8606 26.9748 41.4458 27.1812 42.9356 27.2469L45.7145 2.27734C43.7473 3.29076 42.0188 4.37924 40.5291 5.52403L38.1895 26.6088Z" fill="#FFF8FC"/>
<path id="Vector_8" d="M53.4866 3.90967L50.9941 26.3175C52.9709 25.7639 54.6516 25.0414 56.0363 24.3564L57.5355 10.8816C56.3896 8.29179 54.9858 5.76761 53.4866 3.90967Z" fill="#FFF8FC"/>
</g>
<g id="Clip path group_2">
<mask id="mask1_780_31187" style="mask-type:luminance" maskUnits="userSpaceOnUse" x="30" y="0" width="31" height="28">
<g id="clippath-4">
<path id="Vector_9" d="M30.7698 20.5938C30.7698 20.5938 32.1926 8.01993 47.978 1.18873C54.2806 -1.54188 62.4741 21.1569 59.9148 22.2641C57.346 23.3714 47.9493 30.9439 33.1381 25.0417C32.0781 22.677 30.7698 20.5938 30.7698 20.5938Z" fill="white"/>
</g>
</mask>
<g mask="url(#mask1_780_31187)">
<g id="Group_8">
<g id="Vector_10" style="mix-blend-mode:multiply">
<path d="M31.4678 27.9409C30.4078 25.5763 30.7802 20.603 30.7802 20.603C30.7802 20.603 31.2481 16.5024 34.5809 11.7168C36.042 20.0494 44.3691 24.9382 60.5078 16.3804C61.5009 18.6043 63.8597 28.0723 63.8597 28.0723C63.8597 28.0723 46.2791 33.8525 31.4678 27.9409Z" fill="#CDD0D1"/>
</g>
</g>
</g>
</g>
</g>
<path id="Vector_11" d="M37.2066 19.4115C38.9924 23.3995 37.1493 28.0537 33.0908 29.8178C29.0322 31.5726 24.2957 29.7615 22.5099 25.7736C20.7242 21.7856 22.5672 17.1313 26.6258 15.3672C30.6843 13.6125 35.4208 15.4235 37.2162 19.4115H37.2066Z" fill="#E93405"/>
<path id="Vector_12" opacity="0.5" d="M29.8043 19.3456C30.5492 21.0159 29.7852 22.9583 28.0854 23.6902C26.3856 24.4221 24.4088 23.6714 23.664 22.0011C22.9191 20.3309 23.6831 18.3885 25.3829 17.6566C27.0827 16.9247 29.0594 17.6753 29.8043 19.3456Z" fill="#FFFCF5"/>
</g>
</g>
</svg>
