<svg id='title_line_mobile' width="503" height="26" viewBox="0 0 503 26" fill="none" xmlns="http://www.w3.org/2000/svg">
<path d="M0 11.4479C0 11.4479 8.27744 11.4479 13.5813 11.4479C17.4621 11.4479 19.6659 10.4401 23.5188 11.4479C26.9457 12.3443 28.6909 15.148 32.1313 15.7572C34.0652 16.0996 35.1647 16.0617 37.1 15.7572C40.7946 15.1757 42.6846 12.1437 46.375 11.4479C48.9525 10.962 53 11.4479 53 11.4479" stroke="#E93405" stroke-width="2"/>
<path d="M78.48 20V5.8H81.24V17.58H85.58V5.8H88.34V17.58H92.68V5.8H95.44V20H78.48ZM98.1419 20V9.52H100.822V13.48H101.722L104.562 9.52H107.482L103.762 14.58L107.882 20H104.822L101.682 15.84H100.822V20H98.1419ZM113.841 20.2C112.988 20.2 112.221 20.06 111.541 19.78C110.861 19.4867 110.281 19.0867 109.801 18.58C109.335 18.0733 108.975 17.4933 108.721 16.84C108.468 16.1867 108.341 15.5 108.341 14.78C108.341 14.0467 108.468 13.3533 108.721 12.7C108.975 12.0467 109.335 11.4667 109.801 10.96C110.281 10.4533 110.861 10.06 111.541 9.78C112.221 9.48667 112.988 9.34 113.841 9.34C114.695 9.34 115.455 9.48667 116.121 9.78C116.801 10.06 117.381 10.4533 117.861 10.96C118.341 11.4667 118.701 12.0467 118.941 12.7C119.195 13.3533 119.321 14.0467 119.321 14.78C119.321 15.5 119.195 16.1867 118.941 16.84C118.701 17.4933 118.341 18.0733 117.861 18.58C117.395 19.0867 116.821 19.4867 116.141 19.78C115.461 20.06 114.695 20.2 113.841 20.2ZM111.101 14.78C111.101 15.3933 111.221 15.94 111.461 16.42C111.701 16.8867 112.028 17.2533 112.441 17.52C112.855 17.7867 113.321 17.92 113.841 17.92C114.348 17.92 114.808 17.7867 115.221 17.52C115.635 17.24 115.961 16.8667 116.201 16.4C116.455 15.92 116.581 15.3733 116.581 14.76C116.581 14.16 116.455 13.62 116.201 13.14C115.961 12.66 115.635 12.2867 115.221 12.02C114.808 11.7533 114.348 11.62 113.841 11.62C113.321 11.62 112.855 11.76 112.441 12.04C112.028 12.3067 111.701 12.68 111.461 13.16C111.221 13.6267 111.101 14.1667 111.101 14.78ZM120.37 20.14V17.76C120.69 17.7467 120.977 17.6667 121.23 17.52C121.483 17.3733 121.703 17.1267 121.89 16.78C122.09 16.42 122.243 15.92 122.35 15.28C122.47 14.64 122.55 13.82 122.59 12.82L122.73 9.52H130.59V20H127.91V11.86H125.09L125.05 13.08C124.997 14.4533 124.863 15.5933 124.65 16.5C124.437 17.4067 124.137 18.1267 123.75 18.66C123.377 19.18 122.91 19.5533 122.35 19.78C121.79 20.0067 121.13 20.1267 120.37 20.14ZM132.305 16.9C132.305 16.22 132.491 15.6267 132.865 15.12C133.251 14.6 133.785 14.2 134.465 13.92C135.145 13.64 135.925 13.5 136.805 13.5C137.245 13.5 137.691 13.5333 138.145 13.6C138.598 13.6667 138.991 13.7733 139.325 13.92V13.36C139.325 12.6933 139.125 12.18 138.725 11.82C138.338 11.46 137.758 11.28 136.985 11.28C136.411 11.28 135.865 11.38 135.345 11.58C134.825 11.78 134.278 12.0733 133.705 12.46L132.845 10.7C133.538 10.2467 134.245 9.90667 134.965 9.68C135.698 9.45333 136.465 9.34 137.265 9.34C138.758 9.34 139.918 9.71333 140.745 10.46C141.585 11.2067 142.005 12.2733 142.005 13.66V17C142.005 17.28 142.051 17.48 142.145 17.6C142.251 17.72 142.418 17.7933 142.645 17.82V20C142.405 20.04 142.185 20.0733 141.985 20.1C141.798 20.1267 141.638 20.14 141.505 20.14C140.971 20.14 140.565 20.02 140.285 19.78C140.018 19.54 139.851 19.2467 139.785 18.9L139.725 18.36C139.271 18.9467 138.705 19.4 138.025 19.72C137.345 20.04 136.651 20.2 135.945 20.2C135.251 20.2 134.625 20.06 134.065 19.78C133.518 19.4867 133.085 19.0933 132.765 18.6C132.458 18.0933 132.305 17.5267 132.305 16.9ZM138.825 17.44C138.971 17.28 139.091 17.12 139.185 16.96C139.278 16.8 139.325 16.6533 139.325 16.52V15.46C139.005 15.3267 138.658 15.2267 138.285 15.16C137.911 15.08 137.558 15.04 137.225 15.04C136.531 15.04 135.958 15.1933 135.505 15.5C135.065 15.7933 134.845 16.1867 134.845 16.68C134.845 16.9467 134.918 17.2 135.065 17.44C135.211 17.68 135.425 17.8733 135.705 18.02C135.985 18.1667 136.318 18.24 136.705 18.24C137.105 18.24 137.498 18.1667 137.885 18.02C138.271 17.86 138.585 17.6667 138.825 17.44ZM148.554 20.14V17.76C148.874 17.7467 149.16 17.6667 149.414 17.52C149.667 17.3733 149.887 17.1267 150.074 16.78C150.274 16.42 150.427 15.92 150.534 15.28C150.654 14.64 150.734 13.82 150.774 12.82L150.914 9.52H158.774V20H156.094V11.86H153.274L153.234 13.08C153.18 14.4533 153.047 15.5933 152.834 16.5C152.62 17.4067 152.32 18.1267 151.934 18.66C151.56 19.18 151.094 19.5533 150.534 19.78C149.974 20.0067 149.314 20.1267 148.554 20.14ZM161.208 20V9.52H163.888V20H161.208ZM161.208 8.06V5.4H163.888V8.06H161.208ZM166.306 20V9.52H168.986V13.48H169.886L172.726 9.52H175.646L171.926 14.58L176.046 20H172.986L169.846 15.84H168.986V20H166.306ZM176.895 16.9C176.895 16.22 177.081 15.6267 177.455 15.12C177.841 14.6 178.375 14.2 179.055 13.92C179.735 13.64 180.515 13.5 181.395 13.5C181.835 13.5 182.281 13.5333 182.735 13.6C183.188 13.6667 183.581 13.7733 183.915 13.92V13.36C183.915 12.6933 183.715 12.18 183.315 11.82C182.928 11.46 182.348 11.28 181.575 11.28C181.001 11.28 180.455 11.38 179.935 11.58C179.415 11.78 178.868 12.0733 178.295 12.46L177.435 10.7C178.128 10.2467 178.835 9.90667 179.555 9.68C180.288 9.45333 181.055 9.34 181.855 9.34C183.348 9.34 184.508 9.71333 185.335 10.46C186.175 11.2067 186.595 12.2733 186.595 13.66V17C186.595 17.28 186.641 17.48 186.735 17.6C186.841 17.72 187.008 17.7933 187.235 17.82V20C186.995 20.04 186.775 20.0733 186.575 20.1C186.388 20.1267 186.228 20.14 186.095 20.14C185.561 20.14 185.155 20.02 184.875 19.78C184.608 19.54 184.441 19.2467 184.375 18.9L184.315 18.36C183.861 18.9467 183.295 19.4 182.615 19.72C181.935 20.04 181.241 20.2 180.535 20.2C179.841 20.2 179.215 20.06 178.655 19.78C178.108 19.4867 177.675 19.0933 177.355 18.6C177.048 18.0933 176.895 17.5267 176.895 16.9ZM183.415 17.44C183.561 17.28 183.681 17.12 183.775 16.96C183.868 16.8 183.915 16.6533 183.915 16.52V15.46C183.595 15.3267 183.248 15.2267 182.875 15.16C182.501 15.08 182.148 15.04 181.815 15.04C181.121 15.04 180.548 15.1933 180.095 15.5C179.655 15.7933 179.435 16.1867 179.435 16.68C179.435 16.9467 179.508 17.2 179.655 17.44C179.801 17.68 180.015 17.8733 180.295 18.02C180.575 18.1667 180.908 18.24 181.295 18.24C181.695 18.24 182.088 18.1667 182.475 18.02C182.861 17.86 183.175 17.6667 183.415 17.44ZM195.379 20.2C194.566 20.2 193.846 20.02 193.219 19.66C192.606 19.2867 192.126 18.7867 191.779 18.16V24.26H189.099V9.52H191.439V11.32C191.839 10.7067 192.346 10.2267 192.959 9.88C193.572 9.52 194.272 9.34 195.059 9.34C195.766 9.34 196.412 9.48 196.999 9.76C197.599 10.04 198.119 10.4333 198.559 10.94C198.999 11.4333 199.339 12.0067 199.579 12.66C199.832 13.3 199.959 13.9933 199.959 14.74C199.959 15.7533 199.759 16.6733 199.359 17.5C198.972 18.3267 198.432 18.9867 197.739 19.48C197.059 19.96 196.272 20.2 195.379 20.2ZM194.479 17.92C194.892 17.92 195.266 17.8333 195.599 17.66C195.932 17.4867 196.219 17.2533 196.459 16.96C196.712 16.6533 196.899 16.3133 197.019 15.94C197.152 15.5533 197.219 15.1533 197.219 14.74C197.219 14.3 197.146 13.8933 196.999 13.52C196.866 13.1467 196.666 12.82 196.399 12.54C196.132 12.2467 195.819 12.02 195.459 11.86C195.112 11.7 194.732 11.62 194.319 11.62C194.066 11.62 193.806 11.6667 193.539 11.76C193.286 11.84 193.039 11.96 192.799 12.12C192.559 12.28 192.346 12.4667 192.159 12.68C191.986 12.8933 191.859 13.1267 191.779 13.38V15.84C191.939 16.2267 192.152 16.58 192.419 16.9C192.699 17.22 193.019 17.4733 193.379 17.66C193.739 17.8333 194.106 17.92 194.479 17.92ZM201.775 20V9.52H204.455V13.52H208.695V9.52H211.375V20H208.695V15.76H204.455V20H201.775ZM213.265 20L215.925 15.92C215.299 15.7467 214.799 15.4067 214.425 14.9C214.065 14.3933 213.885 13.7267 213.885 12.9C213.885 12.2067 214.045 11.6067 214.365 11.1C214.685 10.5933 215.125 10.2 215.685 9.92C216.245 9.62667 216.892 9.48 217.625 9.48H222.605V20H219.925V16.38H218.505L216.205 20H213.265ZM217.945 14.46H219.925V11.54H218.045C217.565 11.54 217.185 11.6733 216.905 11.94C216.625 12.2067 216.485 12.5533 216.485 12.98C216.485 13.4067 216.605 13.76 216.845 14.04C217.099 14.32 217.465 14.46 217.945 14.46ZM225.036 20V9.52H227.716V13.52H231.956V9.52H234.636V20H231.956V15.76H227.716V20H225.036ZM241.927 20.2C241.074 20.2 240.307 20.06 239.627 19.78C238.947 19.4867 238.367 19.0867 237.887 18.58C237.421 18.0733 237.061 17.4933 236.807 16.84C236.554 16.1867 236.427 15.5 236.427 14.78C236.427 14.0467 236.554 13.3533 236.807 12.7C237.061 12.0467 237.421 11.4667 237.887 10.96C238.367 10.4533 238.947 10.06 239.627 9.78C240.307 9.48667 241.074 9.34 241.927 9.34C242.781 9.34 243.541 9.48667 244.207 9.78C244.887 10.06 245.467 10.4533 245.947 10.96C246.427 11.4667 246.787 12.0467 247.027 12.7C247.281 13.3533 247.407 14.0467 247.407 14.78C247.407 15.5 247.281 16.1867 247.027 16.84C246.787 17.4933 246.427 18.0733 245.947 18.58C245.481 19.0867 244.907 19.4867 244.227 19.78C243.547 20.06 242.781 20.2 241.927 20.2ZM239.187 14.78C239.187 15.3933 239.307 15.94 239.547 16.42C239.787 16.8867 240.114 17.2533 240.527 17.52C240.941 17.7867 241.407 17.92 241.927 17.92C242.434 17.92 242.894 17.7867 243.307 17.52C243.721 17.24 244.047 16.8667 244.287 16.4C244.541 15.92 244.667 15.3733 244.667 14.76C244.667 14.16 244.541 13.62 244.287 13.14C244.047 12.66 243.721 12.2867 243.307 12.02C242.894 11.7533 242.434 11.62 241.927 11.62C241.407 11.62 240.941 11.76 240.527 12.04C240.114 12.3067 239.787 12.68 239.547 13.16C239.307 13.6267 239.187 14.1667 239.187 14.78ZM249.216 20V9.52H251.896V20H249.216ZM247.516 7.9V5.52H249.736V7.9H247.516ZM251.356 7.9V5.52H253.576V7.9H251.356ZM259.118 20V9.52H261.798V13.48H262.698L265.538 9.52H268.458L264.738 14.58L268.858 20H265.798L262.658 15.84H261.798V20H259.118ZM269.765 20.14V17.76C270.085 17.7467 270.371 17.6667 270.625 17.52C270.878 17.3733 271.098 17.1267 271.285 16.78C271.485 16.42 271.638 15.92 271.745 15.28C271.865 14.64 271.945 13.82 271.985 12.82L272.125 9.52H279.985V20H277.305V11.86H274.485L274.445 13.08C274.391 14.4533 274.258 15.5933 274.045 16.5C273.831 17.4067 273.531 18.1267 273.145 18.66C272.771 19.18 272.305 19.5533 271.745 19.78C271.185 20.0067 270.525 20.1267 269.765 20.14ZM287.259 20.2C286.406 20.2 285.639 20.06 284.959 19.78C284.279 19.4867 283.699 19.0867 283.219 18.58C282.753 18.0733 282.393 17.4933 282.139 16.84C281.886 16.1867 281.759 15.5 281.759 14.78C281.759 14.0467 281.886 13.3533 282.139 12.7C282.393 12.0467 282.753 11.4667 283.219 10.96C283.699 10.4533 284.279 10.06 284.959 9.78C285.639 9.48667 286.406 9.34 287.259 9.34C288.113 9.34 288.873 9.48667 289.539 9.78C290.219 10.06 290.799 10.4533 291.279 10.96C291.759 11.4667 292.119 12.0467 292.359 12.7C292.613 13.3533 292.739 14.0467 292.739 14.78C292.739 15.5 292.613 16.1867 292.359 16.84C292.119 17.4933 291.759 18.0733 291.279 18.58C290.813 19.0867 290.239 19.4867 289.559 19.78C288.879 20.06 288.113 20.2 287.259 20.2ZM284.519 14.78C284.519 15.3933 284.639 15.94 284.879 16.42C285.119 16.8867 285.446 17.2533 285.859 17.52C286.273 17.7867 286.739 17.92 287.259 17.92C287.766 17.92 288.226 17.7867 288.639 17.52C289.053 17.24 289.379 16.8667 289.619 16.4C289.873 15.92 289.999 15.3733 289.999 14.76C289.999 14.16 289.873 13.62 289.619 13.14C289.379 12.66 289.053 12.2867 288.639 12.02C288.226 11.7533 287.766 11.62 287.259 11.62C286.739 11.62 286.273 11.76 285.859 12.04C285.446 12.3067 285.119 12.68 284.879 13.16C284.639 13.6267 284.519 14.1667 284.519 14.78ZM295.718 24.52C295.438 24.52 295.151 24.4867 294.858 24.42C294.578 24.3533 294.251 24.2533 293.878 24.12L294.398 22C294.598 22.0933 294.784 22.16 294.958 22.2C295.144 22.24 295.311 22.26 295.458 22.26C295.791 22.26 296.084 22.14 296.338 21.9C296.604 21.66 296.818 21.2933 296.978 20.8L297.298 19.94L293.058 9.52H295.838L298.658 17.26L301.138 9.52H303.698L299.418 21.5C299.191 22.14 298.891 22.68 298.518 23.12C298.144 23.5733 297.718 23.92 297.238 24.16C296.758 24.4 296.251 24.52 295.718 24.52ZM305.154 20V9.52H307.834V13.52H312.074V9.52H314.754V20H312.074V15.76H307.834V20H305.154ZM316.484 16.9C316.484 16.22 316.671 15.6267 317.044 15.12C317.431 14.6 317.964 14.2 318.644 13.92C319.324 13.64 320.104 13.5 320.984 13.5C321.424 13.5 321.871 13.5333 322.324 13.6C322.778 13.6667 323.171 13.7733 323.504 13.92V13.36C323.504 12.6933 323.304 12.18 322.904 11.82C322.518 11.46 321.938 11.28 321.164 11.28C320.591 11.28 320.044 11.38 319.524 11.58C319.004 11.78 318.458 12.0733 317.884 12.46L317.024 10.7C317.718 10.2467 318.424 9.90667 319.144 9.68C319.878 9.45333 320.644 9.34 321.444 9.34C322.938 9.34 324.098 9.71333 324.924 10.46C325.764 11.2067 326.184 12.2733 326.184 13.66V17C326.184 17.28 326.231 17.48 326.324 17.6C326.431 17.72 326.598 17.7933 326.824 17.82V20C326.584 20.04 326.364 20.0733 326.164 20.1C325.978 20.1267 325.818 20.14 325.684 20.14C325.151 20.14 324.744 20.02 324.464 19.78C324.198 19.54 324.031 19.2467 323.964 18.9L323.904 18.36C323.451 18.9467 322.884 19.4 322.204 19.72C321.524 20.04 320.831 20.2 320.124 20.2C319.431 20.2 318.804 20.06 318.244 19.78C317.698 19.4867 317.264 19.0933 316.944 18.6C316.638 18.0933 316.484 17.5267 316.484 16.9ZM323.004 17.44C323.151 17.28 323.271 17.12 323.364 16.96C323.458 16.8 323.504 16.6533 323.504 16.52V15.46C323.184 15.3267 322.838 15.2267 322.464 15.16C322.091 15.08 321.738 15.04 321.404 15.04C320.711 15.04 320.138 15.1933 319.684 15.5C319.244 15.7933 319.024 16.1867 319.024 16.68C319.024 16.9467 319.098 17.2 319.244 17.44C319.391 17.68 319.604 17.8733 319.884 18.02C320.164 18.1667 320.498 18.24 320.884 18.24C321.284 18.24 321.678 18.1667 322.064 18.02C322.451 17.86 322.764 17.6667 323.004 17.44ZM327.829 22.54V17.66H328.109C328.375 17.66 328.622 17.5867 328.849 17.44C329.089 17.2933 329.295 17.0467 329.469 16.7C329.655 16.34 329.802 15.8467 329.909 15.22C330.029 14.5933 330.109 13.7933 330.149 12.82L330.269 9.52H338.129V17.66H339.589V22.54H337.249V20H330.189V22.54H327.829ZM331.489 17.66H335.449V11.78H332.609L332.549 13.08C332.509 13.96 332.442 14.7067 332.349 15.32C332.269 15.92 332.155 16.4133 332.009 16.8C331.875 17.1733 331.702 17.46 331.489 17.66ZM341.325 20V9.54H344.005V16.42L348.705 9.52H351.145V20H348.465V13.28L343.825 20H341.325ZM358.336 15.72V13.3H368.096V15.72H358.336Z" fill="url(#paint0_linear_2502_13196)"/>
<defs>
<linearGradient id="paint0_linear_2502_13196" x1="17.3212" y1="13.4747" x2="522.408" y2="13.4747" gradientUnits="userSpaceOnUse">
<stop stop-color="#2F245E"/>
<stop offset="1" stop-color="#50439F"/>
</linearGradient>
</defs>
</svg>
