<svg id="wave" width="467" height="1590" viewBox="0 0 467 1590" fill="none" xmlns="http://www.w3.org/2000/svg">
<g filter="url(#filter0_bd_893_1237)">
<path d="M547.5 1510.42C550.662 1481.39 376.5 1330.11 384.5 1217.6C391.578 1118.07 478.218 1090.62 503 1002.4C529.5 908.073 463.194 821.344 274.958 842.079C220 848.133 187 831.92 174.653 824.724C124.602 795.555 98.3004 736.247 110 680.596C112.892 666.84 121.609 626.51 170.5 597.074C281.629 530.166 405.513 662.736 485 580.369C540 523.377 483.255 430.13 458 383.845C395 268.387 505 86.6029 524.5 57.6156" stroke="url(#paint0_linear_893_1237)" stroke-opacity="0.75" stroke-width="132" shape-rendering="crispEdges"/>
</g>
<defs>
<filter id="filter0_bd_893_1237" x="0.903809" y="0.901855" width="652.977" height="1588.53" filterUnits="userSpaceOnUse" color-interpolation-filters="sRGB">
<feFlood flood-opacity="0" result="BackgroundImageFix"/>
<feGaussianBlur in="BackgroundImageFix" stdDeviation="5"/>
<feComposite in2="SourceAlpha" operator="in" result="effect1_backgroundBlur_893_1237"/>
<feColorMatrix in="SourceAlpha" type="matrix" values="0 0 0 0 0 0 0 0 0 0 0 0 0 0 0 0 0 0 127 0" result="hardAlpha"/>
<feOffset dy="20"/>
<feGaussianBlur stdDeviation="20"/>
<feComposite in2="hardAlpha" operator="out"/>
<feColorMatrix type="matrix" values="0 0 0 0 0.405844 0 0 0 0 0.377416 0 0 0 0 0.578597 0 0 0 0.35 0"/>
<feBlend mode="normal" in2="effect1_backgroundBlur_893_1237" result="effect2_dropShadow_893_1237"/>
<feBlend mode="normal" in="SourceGraphic" in2="effect2_dropShadow_893_1237" result="shape"/>
</filter>
<linearGradient id="paint0_linear_893_1237" x1="879.904" y1="25.8898" x2="199.826" y2="1269.18" gradientUnits="userSpaceOnUse">
<stop stop-color="#50439F" stop-opacity="0.6"/>
<stop offset="0.48" stop-color="#50439F"/>
<stop offset="0.9999" stop-color="#50439F" stop-opacity="0.5"/>
</linearGradient>
</defs>
</svg>
