<svg width="459" height="1590" viewBox="0 0 459 1590" fill="none" xmlns="http://www.w3.org/2000/svg">
<g filter="url(#filter0_bd_2151_10849)">
<path d="M569 1509C572.162 1479.97 408 1352.51 416 1240C423.077 1140.47 478.214 1123.72 502.997 1035.5C529.497 941.17 463.192 832.344 274.957 853.079C219.998 859.133 186.998 842.92 174.652 835.724C124.6 806.555 98.2987 747.247 109.998 691.596C112.891 677.84 125.5 635.166 170.498 608.074C281.627 541.166 400.359 620.667 467.5 528.5C522.5 453 453.009 363.957 447 315.5C431.5 190.5 555 86.4873 574.5 57.5" stroke="url(#paint0_linear_2151_10849)" stroke-opacity="0.75" stroke-width="132" shape-rendering="crispEdges"/>
</g>
<defs>
<filter id="filter0_bd_2151_10849" x="0.901855" y="0.696457" width="674.483" height="1588.57" filterUnits="userSpaceOnUse" color-interpolation-filters="sRGB">
<feFlood flood-opacity="0" result="BackgroundImageFix"/>
<feGaussianBlur in="BackgroundImageFix" stdDeviation="5"/>
<feComposite in2="SourceAlpha" operator="in" result="effect1_backgroundBlur_2151_10849"/>
<feColorMatrix in="SourceAlpha" type="matrix" values="0 0 0 0 0 0 0 0 0 0 0 0 0 0 0 0 0 0 127 0" result="hardAlpha"/>
<feOffset dy="20"/>
<feGaussianBlur stdDeviation="20"/>
<feComposite in2="hardAlpha" operator="out"/>
<feColorMatrix type="matrix" values="0 0 0 0 0.405844 0 0 0 0 0.377416 0 0 0 0 0.578597 0 0 0 0.35 0"/>
<feBlend mode="normal" in2="effect1_backgroundBlur_2151_10849" result="effect2_dropShadow_2151_10849"/>
<feBlend mode="normal" in="SourceGraphic" in2="effect2_dropShadow_2151_10849" result="shape"/>
</filter>
<linearGradient id="paint0_linear_2151_10849" x1="879.905" y1="36.8888" x2="199.828" y2="1280.18" gradientUnits="userSpaceOnUse">
<stop stop-color="#50439F" stop-opacity="0.6"/>
<stop offset="0.48" stop-color="#50439F"/>
<stop offset="0.9999" stop-color="#50439F" stop-opacity="0.5"/>
</linearGradient>
</defs>
</svg>
