<svg width="212" height="221" viewBox="0 0 212 221" fill="none" xmlns="http://www.w3.org/2000/svg">
<path d="M169.64 105.581C164.65 102.478 156 99 156 99V117.427L159.292 134.537C159.292 134.537 163.841 136.67 165.877 138.924C168.317 141.626 168.449 143.907 169.64 147.26C170.537 149.785 171.17 151.202 171.521 153.841C171.838 156.222 172.071 157.64 171.521 159.984C171.099 161.786 170.049 162.565 169.64 164.371C169.146 166.55 168.588 168.075 169.64 170.074C170.158 171.059 170.412 171.905 171.521 172.268C173.157 172.803 173.997 171.157 175.284 170.074C177.367 168.323 179.047 164.371 179.047 164.371C179.047 164.371 178.074 169.321 179.047 172.268C179.798 174.543 179.988 176.608 182.339 177.533C183.862 178.132 185.071 178.179 186.572 177.533C188.81 176.569 190.335 172.268 190.335 172.268C190.335 172.268 191.358 174.779 193.157 175.778C195.21 176.917 196.991 178.191 199.272 177.533C200.642 177.137 201.36 176.489 202.094 175.339C203.221 173.572 202.094 170.074 202.094 170.074C202.094 170.074 203.729 174.484 206.327 175.339C207.886 175.852 209.238 176.264 210.56 175.339C212.323 174.105 211.972 172.13 211.972 170.074C211.972 166.134 211.445 163.837 210.56 159.984C209.149 153.841 208.426 152.08 206.327 147.26C204.07 142.078 202.493 139.256 199.272 134.537C195.897 129.594 193.436 126.632 189.395 122.691L179.047 112.601C175.006 108.66 173.554 108.015 169.64 105.581Z" fill="#FFAB0B"/>
<path d="M199.094 167.074C199.094 167.074 200.729 171.484 203.327 172.339C204.886 172.852 206.238 173.264 207.56 172.339C209.323 171.105 208.972 169.13 208.972 167.074C208.972 163.134 208.445 160.837 207.56 156.984C206.149 150.841 205.426 149.08 203.327 144.26C201.07 139.078 199.493 136.256 196.272 131.537C192.897 126.594 190.436 123.632 186.395 119.691C182.354 115.751 180.088 113.541 176.047 109.601C172.006 105.66 170.554 105.015 166.64 102.581C161.65 99.4779 153 96 153 96V114.427L156.292 131.537C156.292 131.537 160.841 133.67 162.877 135.924C165.317 138.626 165.449 140.907 166.64 144.26C167.537 146.785 168.17 148.202 168.521 150.841C168.838 153.222 169.071 154.64 168.521 156.984C168.099 158.786 167.049 159.565 166.64 161.371C166.146 163.55 165.588 165.075 166.64 167.074C167.158 168.059 167.412 168.905 168.521 169.268C170.157 169.803 170.997 168.157 172.284 167.074C174.367 165.323 176.047 161.371 176.047 161.371C176.047 161.371 175.074 166.321 176.047 169.268C176.798 171.543 176.988 173.608 179.339 174.533C180.862 175.132 182.071 175.179 183.572 174.533C185.81 173.569 187.335 169.268 187.335 169.268M199.094 167.074L196.272 161.371M199.094 167.074C199.094 167.074 200.221 170.572 199.094 172.339C198.36 173.489 197.642 174.137 196.272 174.533C193.991 175.191 192.21 173.917 190.157 172.778C188.358 171.779 187.335 169.268 187.335 169.268M187.335 169.268L186.395 163.564" stroke="#50439F" stroke-width="2"/>
<path d="M63 96.3332C63 96.3332 57.4528 95.8569 54.5643 94.1615C52.3776 92.8781 51.3976 92.0102 50.3464 89.8181C49.1571 87.3381 49.4091 84.1717 49.4091 81.5656C49.4091 77.325 49.8778 76.2504 49.8778 72.0099C49.8778 69.2959 50.2739 67.7494 49.8778 65.0604C49.4391 62.0823 48.9596 60.3764 47.5345 57.6765C46.2629 55.2673 45.0531 53.7412 43.3166 51.5957C41.9107 49.8586 41.0867 48.195 39.0988 49.4239C37.6928 50.2931 37.9271 51.5957 38.1615 52.4648C38.8435 54.993 39.0988 55.4714 39.0988 57.6765C35.9874 56.8284 34.3412 55.9365 31.1317 55.5048C27.8715 55.0662 25.9323 54.9341 22.696 55.5048C20.0231 55.9761 18.9468 56.0067 16.1349 57.6765C13.9555 58.9706 12.3496 59.7712 11.4483 62.0199C10.2733 64.9519 11.5867 67.1562 13.3229 69.8382C14.6546 71.8951 17.5408 74.1816 17.5408 74.1816C17.5408 74.1816 19.3323 81.6862 20.8214 86.3433C22.0964 90.3311 22.634 91.9688 24.1019 95.8992C26.2109 101.546 27.8233 104.205 31.1317 108.495C33.7668 111.911 35.6136 113.629 39.0988 116.313C42.144 118.658 44.0101 119.853 47.5345 121.525C51.3482 123.335 57.8448 125 57.8448 125L63 111.101V96.3332Z" fill="#FFAB0B"/>
<path d="M35.6391 55.7394C35.6391 53.5363 35.379 53.0584 34.6838 50.5325C34.4449 49.6643 34.2061 48.3628 35.6391 47.4945C37.6653 46.2667 38.9828 47.5052 40.4158 49.2407C42.1856 51.3841 43.4476 53.3325 44.7437 55.7394C46.1962 58.4368 46.1783 60.141 46.6254 63.1163C47.0291 65.8028 46.6254 67.3479 46.6254 70.0594C46.6254 74.296 46.1477 75.3695 46.1477 79.6061C46.1477 82.2098 45.8909 85.3732 47.1031 87.851C48.1745 90.041 49.1733 90.9081 51.402 92.1903C54.3462 93.8841 60 94.36 60 94.36V109.114L54.7457 123C54.7457 123 48.1242 121.336 44.2371 119.528C40.6449 117.858 38.7429 116.664 35.6391 114.321C32.087 111.64 30.2046 109.924 27.5189 106.51C24.1469 102.225 22.5034 99.568 20.3539 93.9264C18.8578 89.9996 18.3098 88.3635 17.0102 84.3794C15.4926 79.7266 13.6666 72.2291 13.6666 72.2291M35.6391 55.7394C37.318 57.434 37.6215 58.3791 38.5051 60.513C39.359 62.575 39.6491 63.6299 40.4158 65.72C40.8934 67.0221 41.3247 68.9257 39.9381 70.0594C38.6902 71.0796 36.9502 71.012 35.6391 70.0594C33.2508 68.324 33.2044 67.4872 31.8178 65.72C31.0371 64.7248 29.9072 63.1163 29.9072 63.1163C29.9072 63.1163 30.8625 67.4561 29.9072 70.0594C29.49 71.1961 28.7871 71.8999 27.5189 72.2291C25.6722 72.7084 24.1752 70.9276 23.2199 70.0594C22.3328 69.2531 21.8598 68.7757 21.0704 67.8897M35.6391 55.7394C32.468 54.892 30.7901 54.001 27.5189 53.5697C24.196 53.1315 22.2194 52.9995 18.9209 53.5697C16.1967 54.0406 15.0996 54.0712 12.2336 55.7394C10.0124 57.0323 8.37551 57.8321 7.45697 60.0787C6.25934 63.008 7.59796 65.2102 9.36762 67.8897C10.7249 69.9447 13.6666 72.2291 13.6666 72.2291M19.3986 64.8524C19.3986 64.8524 20.231 67.0423 21.0704 67.8897M21.0704 67.8897C20.8242 70.1025 20.3299 72.0861 17.9656 72.6633C16.8847 72.9273 13.6666 72.2291 13.6666 72.2291" stroke="#50439F" stroke-width="2"/>
<path d="M66.5293 157.07C66.5293 153.088 67.5293 145.57 67.5293 145.57L85.5223 154.07L96.0223 163.57C96.0223 163.57 95.0787 172.453 94.0223 178.07C93.2082 182.4 92.4844 184.771 91.5223 189.07C90.1254 195.312 89.4583 198.837 88.0223 205.07C87.076 209.178 87.0293 212.07 85.5223 215.57C85.0278 216.719 84.735 217.766 83.5223 218.07C81.5293 218.57 77.4275 218.07 73.5223 218.07H64.0223H53.0223C51.0697 218.07 48.8555 218.836 48.0223 217.07C47.9061 216.824 47.7136 216.497 48.0223 215.57C48.7126 213.499 51.0296 213.962 53.0223 213.07C55.5048 211.96 57.1742 211.943 59.5223 210.57C61.4445 209.447 62.7157 208.873 64.0223 207.07C66.7726 203.276 65.6384 199.741 66.0223 195.07C66.4115 190.335 66.0223 187.57 66.0223 183.07V171.57C66.0223 166.103 66.5293 162.57 66.5293 157.07Z" fill="#FFAB0B"/>
<path d="M69.5293 155.07C69.5293 151.088 70.5293 143.57 70.5293 143.57L88.5223 152.07L99.0223 161.57C99.0223 161.57 98.0787 170.453 97.0223 176.07C96.2082 180.4 95.4844 182.771 94.5223 187.07C93.1254 193.312 92.4583 196.837 91.0223 203.07C90.076 207.178 90.0293 210.07 88.5223 213.57C88.0278 214.719 87.735 215.766 86.5223 216.07C84.5293 216.57 80.4275 216.07 76.5223 216.07H67.0223H56.0223C54.0697 216.07 51.8555 216.836 51.0223 215.07C50.9061 214.824 50.7136 214.497 51.0223 213.57C51.7126 211.499 54.0296 211.962 56.0223 211.07C58.5048 209.96 60.1742 209.943 62.5223 208.57C64.4445 207.447 65.7157 206.873 67.0223 205.07C69.7726 201.276 68.6384 197.741 69.0223 193.07C69.4115 188.335 69.0223 185.57 69.0223 181.07V169.57C69.0223 164.103 69.5293 160.57 69.5293 155.07Z" stroke="#50439F" stroke-width="2"/>
<path d="M120.031 177.07C119.541 172.017 119.031 164.57 119.031 164.57L132.031 161.07L148.031 148.57V161.07V169.57V183.57V197.07V207.07C148.031 209.57 149.031 210.07 152.031 211.07C155.371 212.183 156.031 212.57 160.531 214.07C162.438 214.706 163.531 214.57 165.031 216.57C165.851 217.664 166.254 218.959 165.031 219.57C164.031 220.07 161.531 220.07 160.531 220.07H152.031H141.031C137.517 220.07 133.031 220.453 132.031 220.07C129.805 219.218 128.647 218.323 127.031 216.57C123.595 212.843 123.854 206.07 123.531 204.07C123.209 202.07 121.531 189.07 121.531 189.07C121.531 189.07 120.453 181.416 120.031 177.07Z" fill="#FFAB0B"/>
<path d="M123.031 175.07C122.541 170.017 122.031 162.57 122.031 162.57L135.031 159.07L151.031 146.57V159.07V167.57V181.57V195.07V205.07C151.031 207.57 152.031 208.07 155.031 209.07C158.371 210.183 159.031 210.57 163.531 212.07C165.438 212.706 166.531 212.57 168.031 214.57C168.851 215.664 169.254 216.959 168.031 217.57C167.031 218.07 164.531 218.07 163.531 218.07H155.031H144.031C140.517 218.07 136.031 218.453 135.031 218.07C132.805 217.218 131.647 216.323 130.031 214.57C126.595 210.843 126.854 204.07 126.531 202.07C126.209 200.07 124.531 187.07 124.531 187.07C124.531 187.07 123.453 179.416 123.031 175.07Z" stroke="#50439F" stroke-width="2"/>
<path d="M61.0314 80.5701C64.2904 75.264 67.0142 72.8561 71.5314 68.5701C75.3586 64.9388 77.5613 62.872 82.0314 60.0701C86.2495 57.4261 88.7807 56.0578 93.5314 54.5701C99.3558 52.7461 102.929 52.6588 109.031 52.5701C115.909 52.4701 119.816 53.0795 126.531 54.5701C133.162 56.0419 137.05 56.8515 143.031 60.0701C148.672 63.1052 151.68 65.3698 156.031 70.0701C160.742 75.1583 162.708 78.7371 165.531 85.0701C168.022 90.6558 169.025 94.0377 170.031 100.07C171.349 107.967 171.475 112.696 170.031 120.57C168.996 126.219 168.044 129.406 165.531 134.57C162.353 141.102 159.848 144.62 154.531 149.57C149.138 154.591 145.254 156.553 138.531 159.57C131.313 162.81 126.884 164.097 119.031 165.07C112.637 165.863 108.896 166.075 102.531 165.07C95.8223 164.011 92.112 162.597 86.0314 159.57C79.8734 156.505 76.7311 154.073 71.5314 149.57C67.0423 145.682 64.3466 143.497 61.0314 138.57C57.91 133.931 56.697 130.908 55.0314 125.57C53.205 119.717 52.4651 116.201 52.5314 110.07C52.5933 104.355 53.4851 101.142 55.0065 95.6599L55.0314 95.5701C56.7185 89.4907 57.7295 85.9462 61.0314 80.5701Z" fill="white" stroke="#50439F" stroke-width="2"/>
<path d="M59.0314 82.5701C62.2904 77.264 65.0142 74.8561 69.5314 70.5701C73.3586 66.9388 75.5613 64.872 80.0314 62.0701C84.2495 59.4261 86.7807 58.0578 91.5314 56.5701C97.3558 54.7461 100.929 54.6588 107.031 54.5701C113.909 54.4701 117.816 55.0795 124.531 56.5701C131.162 58.0419 135.05 58.8515 141.031 62.0701C146.672 65.1052 149.68 67.3698 154.031 72.0701C158.742 77.1583 160.708 80.7371 163.531 87.0701C166.022 92.6558 167.025 96.0377 168.031 102.07C169.349 109.967 169.475 114.696 168.031 122.57C166.996 128.219 166.044 131.406 163.531 136.57C160.353 143.102 157.848 146.62 152.531 151.57C147.138 156.591 143.254 158.553 136.531 161.57C129.313 164.81 124.884 166.097 117.031 167.07C110.637 167.863 106.896 168.075 100.531 167.07C93.8223 166.011 90.112 164.597 84.0314 161.57C77.8734 158.505 74.7311 156.073 69.5314 151.57C65.0423 147.682 62.3466 145.497 59.0314 140.57C55.91 135.931 54.697 132.908 53.0314 127.57C51.205 121.717 50.4651 118.201 50.5314 112.07C50.5933 106.355 51.4851 103.142 53.0065 97.6599L53.0314 97.5701C54.7185 91.4907 55.7295 87.9462 59.0314 82.5701Z" fill="#FFAB0B"/>
<path d="M61.0314 80.5701C64.2904 75.264 67.0142 72.8561 71.5314 68.5701C75.3586 64.9388 77.5613 62.872 82.0314 60.0701C86.2495 57.4261 88.7807 56.0578 93.5314 54.5701C99.3558 52.7461 102.929 52.6588 109.031 52.5701C115.909 52.4701 119.816 53.0795 126.531 54.5701C133.162 56.0419 137.05 56.8515 143.031 60.0701C148.672 63.1052 151.68 65.3698 156.031 70.0701C160.742 75.1583 162.708 78.7371 165.531 85.0701C168.022 90.6558 169.025 94.0377 170.031 100.07C171.349 107.967 171.475 112.696 170.031 120.57C168.996 126.219 168.044 129.406 165.531 134.57C162.353 141.102 159.848 144.62 154.531 149.57C149.138 154.591 145.254 156.553 138.531 159.57C131.313 162.81 126.884 164.097 119.031 165.07C112.637 165.863 108.896 166.075 102.531 165.07C95.8223 164.011 92.112 162.597 86.0314 159.57C79.8734 156.505 76.7311 154.073 71.5314 149.57C67.0423 145.682 64.3466 143.497 61.0314 138.57C57.91 133.931 56.697 130.908 55.0314 125.57C53.205 119.717 52.4651 116.201 52.5314 110.07C52.5933 104.355 53.4851 101.142 55.0065 95.6599L55.0314 95.5701C56.7185 89.4907 57.7295 85.9462 61.0314 80.5701Z" stroke="#50439F" stroke-width="2"/>
<ellipse cx="108.5" cy="71" rx="3.5" ry="4" fill="#50439F"/>
<ellipse cx="119.5" cy="84" rx="3.5" ry="4" fill="#50439F"/>
<path d="M117.521 103.521C117.959 103.959 117.961 104.672 117.493 105.078C115.067 107.187 112.054 108.521 108.844 108.893C105.261 109.309 101.643 108.502 98.5766 106.603C95.5102 104.704 93.1753 101.825 91.9506 98.4329C90.8533 95.3932 90.705 92.1012 91.5108 88.9895C91.6661 88.3898 92.3059 88.0739 92.8933 88.2708C93.4806 88.4677 93.7923 89.1028 93.6439 89.7042C92.9948 92.3346 93.1351 95.1073 94.0607 97.6712C95.1136 100.588 97.1212 103.063 99.7576 104.696C102.394 106.328 105.505 107.022 108.585 106.665C111.293 106.351 113.837 105.241 115.903 103.487C116.375 103.087 117.083 103.083 117.521 103.521Z" fill="#50439F"/>
<path d="M96 88.5C96 93.194 99.806 97 104.5 97C109.194 97 113 93.194 113 88.5C113 83.806 109.194 80 104.5 80C99.806 80 96 83.806 96 88.5Z" fill="#E93405"/>
<path d="M104.108 85.0116C104.108 86.6862 105.465 88.0437 107.14 88.0437C108.814 88.0437 110.172 86.6862 110.172 85.0116C110.172 83.337 108.814 81.9795 107.14 81.9795C105.465 81.9795 104.108 83.337 104.108 85.0116Z" fill="#FFFCF5"/>
<g style="mix-blend-mode:multiply">
<path d="M98.7729 82.2324C98.7095 82.6574 98.6651 83.0888 98.6651 83.5328C98.6651 88.2268 102.471 92.0328 107.165 92.0328C109.373 92.0328 111.377 91.1828 112.887 89.8C112.259 93.8787 108.751 96.9996 104.501 96.9996C99.8069 96.9996 96.0009 93.1936 96.0009 88.4996C96.0009 86.013 97.0729 83.7865 98.7729 82.2324Z" fill="#CDD0D1"/>
</g>
<path d="M108.427 53.3702C108.427 53.3702 123.814 78.415 158.018 83.9747C158.138 84.4749 167.393 11.8843 167.393 11.8843L108.433 53.3649L108.427 53.3702Z" fill="#E93405"/>
<path d="M152.04 58.164L151.569 63.1961L155.349 66.4141L150.529 67.5427L148.683 72.2427L146.175 67.9011L141.249 67.5858L144.52 63.776L143.319 58.8913L147.849 60.8702L152.04 58.164Z" fill="#FFFCF5"/>
<path d="M156.325 19.7578L156.341 19.6051L149.561 24.3725L150.938 24.467L153.447 28.7947L155.296 24.1035L160.115 22.9755L156.325 19.7578Z" fill="#FFFCF5"/>
<path d="M157.843 35.2004L157.61 37.6185L159.434 39.164L157.117 39.7055L156.233 41.9646L155.024 39.879L152.654 39.7253L154.228 37.903L153.653 35.5525L155.827 36.4995L157.843 35.2004Z" fill="#FFFCF5"/>
<path d="M138.222 39.2599L137.995 41.6728L139.813 43.2236L137.502 43.7599L136.618 46.0189L135.403 43.9386L133.039 43.7796L134.608 41.9509L134.038 39.6068L136.212 40.5538L138.222 39.2599Z" fill="#FFFCF5"/>
<path d="M124.486 54.4963L124.259 56.9092L126.083 58.4547L123.765 58.9962L122.882 61.2553L121.673 59.1696L119.303 59.016L120.872 57.1872L120.302 54.8432L122.475 55.7901L124.486 54.4963Z" fill="#FFFCF5"/>
<g style="mix-blend-mode:multiply">
<path d="M158.015 83.9795C158.121 84.4485 166.209 21.1215 167.274 12.797C167.084 12.6221 166.916 12.4613 166.768 12.3266L160.602 16.662C161.272 17.1679 161.988 17.6905 162.751 18.2063C167.508 21.3979 160.668 35.5322 156.84 50.9172C153.273 65.2308 146.676 78.5652 115.858 48.1533L108.421 53.3863C108.421 53.3863 123.809 78.4315 158.013 83.9912L158.015 83.9795Z" fill="#CDD0D1"/>
</g>
<path d="M176.135 13.1581C173.754 17.1113 168.705 18.364 164.855 15.9527C161.004 13.5414 159.809 8.38366 162.19 4.43046C164.57 0.477269 169.619 -0.775458 173.47 1.63582C177.32 4.04711 178.515 9.20488 176.135 13.1581Z" fill="#7263B1"/>
<g style="mix-blend-mode:multiply">
<path d="M176.467 4.96622C176.467 4.96622 176.459 4.98322 176.446 4.99373C174.066 8.94683 169.017 10.1995 165.166 7.78831C163.834 6.94963 162.823 5.78274 162.166 4.45184C159.815 8.40214 161.005 13.5415 164.846 15.9398C168.696 18.351 173.745 17.0983 176.126 13.1452C177.678 10.5596 177.699 7.47063 176.462 4.95972L176.467 4.96622Z" fill="#CDD0D1"/>
</g>
</svg>
