<svg width="69" height="62" viewBox="0 0 69 62" fill="none" xmlns="http://www.w3.org/2000/svg">
<path d="M34.0523 30.3147C34.0523 30.3147 30.5721 18.344 13.3649 11.6519C6.49912 8.98178 1.80899 30.4592 4.5991 31.5443C7.38921 32.6294 18.2061 39.9503 32.3578 34.509C33.0577 32.268 34.0548 30.3066 34.0548 30.3066L34.0523 30.3147Z" fill="#FFAB0B"/>
<mask id="mask0_893_1300" style="mask-type:luminance" maskUnits="userSpaceOnUse" x="3" y="11" width="32" height="26">
<path d="M34.3561 30.9119C34.3561 30.9119 30.4188 19.1803 12.801 11.8332C5.77141 8.90165 1.79029 29.3849 4.64697 30.5762C7.50366 31.7675 18.6883 39.3912 32.7921 34.8718C33.4202 32.7455 34.3583 30.9042 34.3583 30.9042L34.3561 30.9119Z" fill="white"/>
</mask>
<g mask="url(#mask0_893_1300)">
<g style="mix-blend-mode:multiply">
<path d="M34.5353 38.2237C35.1631 36.0996 33.8039 31.4789 33.8039 31.4789C33.8039 31.4789 32.5152 27.657 28.1418 23.016C28.2755 30.6354 20.6658 34.6121 2.36661 25.6619C1.7775 27.6551 1.2163 36.2555 1.2163 36.2555C1.2163 36.2555 20.4535 42.7355 34.545 38.2277L34.5353 38.2237Z" fill="#CDD0D1"/>
</g>
</g>
<path d="M35.4025 29.289C35.4025 29.289 44.7969 22.3253 62.0041 29.0173C68.8699 31.6875 60.5803 51.7651 57.7902 50.68C55 49.5949 42.4485 47.8276 34.3936 33.7499C35.0936 31.509 35.4051 29.2809 35.4051 29.2809L35.4025 29.289Z" fill="#FFAB0B"/>
<mask id="mask1_893_1300" style="mask-type:luminance" maskUnits="userSpaceOnUse" x="34" y="26" width="31" height="25">
<path d="M35.0285 28.8048C35.0285 28.8048 44.273 22.5703 61.8908 29.9175C68.9204 32.849 61.2539 51.7953 58.3972 50.604C55.5405 49.4127 42.7992 47.0586 34.1665 33.0574C34.7946 30.9311 35.0308 28.797 35.0308 28.797L35.0285 28.8048Z" fill="white"/>
</mask>
<g mask="url(#mask1_893_1300)">
<g style="mix-blend-mode:multiply">
<path d="M30.5204 34.3155C31.1482 32.1914 34.6408 29.5932 34.6408 29.5932C34.6408 29.5932 37.6583 27.5662 43.5146 27.1893C39.4005 33.038 43.248 41.7905 62.2433 48.3857C61.6542 50.379 57.5662 57.5093 57.5662 57.5093C57.5662 57.5093 39.1387 48.2895 30.5107 34.3115L30.5204 34.3155Z" fill="#CDD0D1"/>
</g>
</g>
<path d="M42.2178 34.1695C41.0342 37.9676 36.4708 39.6499 32.0166 37.9139C27.5624 36.1779 24.9199 31.6963 26.1061 27.89C27.2923 24.0837 31.8531 22.4096 36.3073 24.1456C40.7615 25.8816 43.404 30.3632 42.2178 34.1695Z" fill="#FFAB0B"/>
<path opacity="0.5" d="M36.5581 28.8606C36.0632 30.4488 34.1562 31.156 32.2977 30.4317C30.4393 29.7074 29.3359 27.8359 29.8333 26.2396C30.3308 24.6433 32.2327 23.9524 34.0912 24.6767C35.9496 25.4011 37.0531 27.2725 36.5581 28.8606Z" fill="#FFFCF5"/>
<mask id="mask2_893_1300" style="mask-type:luminance" maskUnits="userSpaceOnUse" x="34" y="26" width="31" height="25">
<path d="M35.0285 28.8048C35.0285 28.8048 44.273 22.5703 61.8908 29.9175C68.9204 32.849 61.2539 51.7953 58.3972 50.604C55.5405 49.4127 42.7992 47.0586 34.1665 33.0574C34.7946 30.9311 35.0308 28.797 35.0308 28.797L35.0285 28.8048Z" fill="white"/>
</mask>
<g mask="url(#mask2_893_1300)">
<path d="M49.9063 25.666C49.7049 24.1495 48.2578 23.118 46.6501 23.4138C45.0424 23.7096 43.7657 25.1148 43.8528 26.5206C43.9398 27.9264 45.4624 28.8922 47.1821 28.7149C48.9042 28.5298 50.1077 27.1825 49.9063 25.666Z" fill="#FFF8FC"/>
<path d="M64.7336 27.0179C63.0724 26.2112 61.066 26.5485 60.2922 27.7554C59.5183 28.9622 60.3126 30.6488 62.0195 31.5271C63.7363 32.4095 65.6918 32.0943 66.4079 30.8194C67.124 29.5446 66.3828 27.8281 64.7238 27.0137L64.7336 27.0179Z" fill="#FFF8FC"/>
<path d="M44.7303 44.737C45.2586 43.3835 44.4066 41.4546 42.8307 40.4811C41.257 39.4997 39.4583 39.825 38.8462 41.1606C38.2219 42.4998 39.0798 44.3698 40.7419 45.3535C42.4116 46.3492 44.2043 46.0827 44.7303 44.737Z" fill="#FFF8FC"/>
<path d="M65.1516 40.6268C64.7961 40.1253 64.3651 39.6533 63.8824 39.2823C62.3891 38.1325 60.8804 38.3362 60.4834 39.6598C60.0942 40.9954 61.0478 42.9257 62.6653 44.0316C63.7712 44.7892 64.8487 44.9558 65.5111 44.5957C65.4632 43.2681 65.3467 41.9465 65.1494 40.6346L65.1516 40.6268Z" fill="#FFF8FC"/>
<path d="M52.5422 34.4949C50.8203 33.5084 48.9272 33.7494 48.2821 35.0108C47.637 36.2722 48.5007 38.0403 50.2527 38.9616C52.0025 39.8905 53.9546 39.6745 54.5695 38.4783C55.1867 37.2744 54.2641 35.4814 52.5422 34.4949Z" fill="#FFF8FC"/>
<path d="M54.1069 48.1843C52.708 48.8177 51.9175 50.5602 52.3835 52.0029C52.8472 53.4535 54.5069 54.1489 56.0381 53.6074C57.5693 53.066 58.3039 51.3983 57.7181 49.86C57.1222 48.3174 55.5206 47.5393 54.1193 48.1806L54.1069 48.1843Z" fill="#FFF8FC"/>
</g>
<path d="M20.1434 15.4642C21.2406 16.0597 22.4192 16.1256 23.272 15.7535C21.7395 14.7339 20.0113 13.7348 18.0759 12.7925C18.1732 13.7591 18.9456 14.8209 20.1434 15.4642Z" fill="#FFF8FC"/>
<path d="M27.6815 22.4954C28.6949 23.0385 29.7761 23.1415 30.6382 22.8607C29.4726 21.3893 27.9727 19.773 26.0702 18.1311C25.9849 18.2349 25.8974 18.3465 25.8386 18.4698C25.1655 19.7718 25.9917 21.5812 27.6911 22.4994L27.6815 22.4954Z" fill="#FFF8FC"/>
<path d="M12.5686 20.5686C13.7256 19.8081 14.128 17.8539 13.4596 16.2952C12.7837 14.7244 11.164 14.102 9.85762 14.8372C8.55125 15.5725 8.14785 17.4171 8.9732 19.0132C9.79856 20.6093 11.4117 21.3291 12.5786 20.5727L12.5686 20.5686Z" fill="#FFF8FC"/>
<path d="M16.2788 25.1047C15.7345 26.4867 16.5561 28.4219 18.1115 29.3743C19.6644 30.3346 21.4495 29.9628 22.0869 28.6012C22.7267 27.2317 21.9081 25.3602 20.2574 24.3954C18.609 23.4226 16.8208 23.7307 16.2765 25.1127L16.2788 25.1047Z" fill="#FFF8FC"/>
<path d="M11.1908 34.8937C11.1744 33.3763 10.1299 31.3485 8.88961 30.4506C7.64932 29.5527 6.5171 30.1215 6.35883 31.6379C6.28307 32.3666 6.48702 33.1835 6.86496 33.9306C7.98579 34.4967 9.38161 35.1669 11.0052 35.807C11.1315 35.5673 11.2014 35.2603 11.1932 34.8858L11.1908 34.8937Z" fill="#FFF8FC"/>
<path d="M23.2526 35.0019C21.8321 34.232 20.2141 34.6554 19.6132 36.0046C19.5192 36.2089 19.4661 36.4212 19.4226 36.6374C21.0914 36.798 22.8475 36.8122 24.6906 36.6453C24.4689 35.9831 23.97 35.381 23.2549 34.9942L23.2526 35.0019Z" fill="#FFF8FC"/>
</svg>
