<svg width="1455" height="1549" viewBox="0 0 1455 1549" fill="none" xmlns="http://www.w3.org/2000/svg">
<g filter="url(#filter0_bd_3199_12894)">
<path d="M104.939 65C104.939 65 190.751 185.311 245.588 247.432C284.412 291.414 319.436 314.397 364.49 343.654C519.064 444.031 662.175 425.036 853.572 474.703C931.92 495.034 1017.54 524.215 1047.84 617.199C1058.61 650.237 1057.68 702.843 1025.28 751.15C990.601 802.84 925.656 831.622 864.308 832.529C618.013 836.17 529.327 650.472 292.815 649.045C248.503 648.777 209.141 658.836 174.079 687.847C120.544 732.144 101.507 803.345 134.26 864.873C151.568 897.386 177.584 921.083 214.764 940.337C389.697 1030.93 526.928 1013.42 736.534 1070.85C792.325 1086.14 831.567 1098.36 895.382 1125.71C954.708 1151.14 1015.83 1184.18 1050.7 1204.55C1117.03 1243.3 1145.92 1263.85 1215.38 1314.01C1289.33 1367.41 1367.23 1426.99 1367.23 1426.99" stroke="url(#paint0_linear_3199_12894)" stroke-opacity="0.75" stroke-width="155" shape-rendering="crispEdges"/>
</g>
<defs>
<filter id="filter0_bd_3199_12894" x="0.513672" y="-0.00479889" width="1453.8" height="1548.55" filterUnits="userSpaceOnUse" color-interpolation-filters="sRGB">
<feFlood flood-opacity="0" result="BackgroundImageFix"/>
<feGaussianBlur in="BackgroundImageFix" stdDeviation="5"/>
<feComposite in2="SourceAlpha" operator="in" result="effect1_backgroundBlur_3199_12894"/>
<feColorMatrix in="SourceAlpha" type="matrix" values="0 0 0 0 0 0 0 0 0 0 0 0 0 0 0 0 0 0 127 0" result="hardAlpha"/>
<feOffset dy="20"/>
<feGaussianBlur stdDeviation="20"/>
<feComposite in2="hardAlpha" operator="out"/>
<feColorMatrix type="matrix" values="0 0 0 0 0.405844 0 0 0 0 0.377416 0 0 0 0 0.578597 0 0 0 0.35 0"/>
<feBlend mode="normal" in2="effect1_backgroundBlur_3199_12894" result="effect2_dropShadow_3199_12894"/>
<feBlend mode="normal" in="SourceGraphic" in2="effect2_dropShadow_3199_12894" result="shape"/>
</filter>
<linearGradient id="paint0_linear_3199_12894" x1="1233.66" y1="1500.5" x2="173.401" y2="101.05" gradientUnits="userSpaceOnUse">
<stop stop-color="#DFDEE1" stop-opacity="0"/>
<stop offset="0.205" stop-color="#50439F" stop-opacity="0.39"/>
<stop offset="0.54" stop-color="#50439F"/>
<stop offset="0.87" stop-color="#50439F" stop-opacity="0.5"/>
</linearGradient>
</defs>
</svg>
