<svg width="868" height="964" viewBox="0 0 868 964" fill="none" xmlns="http://www.w3.org/2000/svg">
<g filter="url(#filter0_bd_2287_16778)">
<path d="M100.992 -100C100.992 -100 159.489 -15.8862 196.933 27.5005C223.443 58.2183 247.428 74.2085 278.284 94.5618C384.144 164.39 482.624 150.452 614.016 184.521C667.801 198.467 726.552 218.596 746.993 283.755C754.256 306.907 753.399 343.847 730.915 377.901C706.856 414.341 662.08 434.822 619.895 435.717C450.532 439.308 390.333 309.296 227.718 309.287C197.252 309.286 170.145 316.514 145.915 337.031C108.919 368.358 95.5307 418.43 117.793 461.493C129.556 484.249 147.345 500.778 172.828 514.141C292.728 577.013 387.159 564.147 531.039 603.588C569.335 614.087 596.266 622.502 640.029 641.438C680.714 659.042 722.598 681.983 746.489 696.141C791.935 723.072 811.713 737.379 859.262 772.305C909.882 809.486 963.198 850.993 963.198 850.993" stroke="url(#paint0_linear_2287_16778)" stroke-opacity="0.75" stroke-width="132" shape-rendering="crispEdges"/>
</g>
<defs>
<filter id="filter0_bd_2287_16778" x="0.871094" y="-157.685" width="1042.87" height="1120.76" filterUnits="userSpaceOnUse" color-interpolation-filters="sRGB">
<feFlood flood-opacity="0" result="BackgroundImageFix"/>
<feGaussianBlur in="BackgroundImageFix" stdDeviation="5"/>
<feComposite in2="SourceAlpha" operator="in" result="effect1_backgroundBlur_2287_16778"/>
<feColorMatrix in="SourceAlpha" type="matrix" values="0 0 0 0 0 0 0 0 0 0 0 0 0 0 0 0 0 0 127 0" result="hardAlpha"/>
<feOffset dy="20"/>
<feGaussianBlur stdDeviation="20"/>
<feComposite in2="hardAlpha" operator="out"/>
<feColorMatrix type="matrix" values="0 0 0 0 0.405844 0 0 0 0 0.377416 0 0 0 0 0.578597 0 0 0 0.35 0"/>
<feBlend mode="normal" in2="effect1_backgroundBlur_2287_16778" result="effect2_dropShadow_2287_16778"/>
<feBlend mode="normal" in="SourceGraphic" in2="effect2_dropShadow_2287_16778" result="shape"/>
</filter>
<linearGradient id="paint0_linear_2287_16778" x1="871.044" y1="903.172" x2="125.398" y2="-57.4999" gradientUnits="userSpaceOnUse">
<stop stop-color="#50439F" stop-opacity="0.6"/>
<stop offset="0.48" stop-color="#50439F"/>
<stop offset="0.9999" stop-color="#50439F" stop-opacity="0.5"/>
</linearGradient>
</defs>
</svg>
