<svg xmlns="http://www.w3.org/2000/svg" width="567" height="764" viewBox="0 0 567 764" fill="none">
  <g filter="url(#filter0_bd_3078_15438)">
    <path d="M161.826 26C161.826 26 165.721 63.8136 179.5 93.2939C182.607 99.9413 207.5 136.794 226 148.794C252.271 165.835 322.18 176.185 378.282 200.107C401 209.794 440.681 233.948 444.5 280.794C445.315 290.794 446.693 311.294 434 336.294C414.961 373.794 378.87 384.343 358.627 385.943C272 392.794 218.159 328.294 179.5 328.294C174 328.294 151.237 327.209 129.5 342.794C103 361.794 88 392.294 100 430.294C101.104 433.789 107 450.294 129.5 469.294C173.736 506.649 239.411 497.156 301.75 516.803C316 521.294 330.812 526.141 349.752 537.037C367.361 547.167 385.058 561.168 395.058 569.949C414.078 586.653 422.125 595.84 441.423 618.321C461.968 642.253 483.397 669.199 483.397 669.199" stroke="url(#paint0_linear_3078_15438)" stroke-opacity="0.75" stroke-width="110" shape-rendering="crispEdges"/>
  </g>
  <defs>
    <filter id="filter0_bd_3078_15438" x="0.753906" y="0.226501" width="565.689" height="763.208" filterUnits="userSpaceOnUse" color-interpolation-filters="sRGB">
      <feFlood flood-opacity="0" result="BackgroundImageFix"/>
      <feGaussianBlur in="BackgroundImageFix" stdDeviation="5"/>
      <feComposite in2="SourceAlpha" operator="in" result="effect1_backgroundBlur_3078_15438"/>
      <feColorMatrix in="SourceAlpha" type="matrix" values="0 0 0 0 0 0 0 0 0 0 0 0 0 0 0 0 0 0 127 0" result="hardAlpha"/>
      <feOffset dy="20"/>
      <feGaussianBlur stdDeviation="20"/>
      <feComposite in2="hardAlpha" operator="out"/>
      <feColorMatrix type="matrix" values="0 0 0 0 0.405844 0 0 0 0 0.377416 0 0 0 0 0.578597 0 0 0 0.35 0"/>
      <feBlend mode="normal" in2="effect1_backgroundBlur_3078_15438" result="effect2_dropShadow_3078_15438"/>
      <feBlend mode="normal" in="SourceGraphic" in2="effect2_dropShadow_3078_15438" result="shape"/>
    </filter>
    <linearGradient id="paint0_linear_3078_15438" x1="435.294" y1="714.51" x2="-45.3578" y2="313.037" gradientUnits="userSpaceOnUse">
      <stop stop-color="#50439F" stop-opacity="0.6"/>
      <stop offset="0.48" stop-color="#50439F"/>
      <stop offset="0.9999" stop-color="#50439F" stop-opacity="0.5"/>
    </linearGradient>
  </defs>
</svg>