<svg width="66" height="103" viewBox="0 0 66 103" fill="none" xmlns="http://www.w3.org/2000/svg">
<path d="M18.75 90.45L19.8 89.4C21 88.2 22.5 87.6 24.15 87.6H61.65V102.15H3.15V87.6C3.15 75 13.8 66.75 30.45 64.65C40.95 63.3 49.2 53.1 49.2 39.75C49.2 25.95 41.25 14.85 31.5 14.85C26.25 14.85 21.6 18 18.3 23.1H0.45C5.85 9.59999 17.7 0.299995 31.5 0.299995C50.4 0.299995 65.7 18 65.7 39.75C65.7 61.2 51.15 75 30.45 79.2C28.35 79.65 22.2 80.85 20.55 84.9C20.25 85.65 19.65 86.25 19.2 86.85L17.1 88.8L18.75 90.45Z" fill="#CAC4E2"/>
</svg>
