<svg width="66" height="103" viewBox="0 0 66 103" fill="none" xmlns="http://www.w3.org/2000/svg">
<path d="M46.35 28.45C47.55 28.45 48.75 28.9 49.65 29.65C59.1 36.7 65.25 48.85 65.25 62.65C65.25 84.55 49.95 102.1 31.05 102.1C17.25 102.1 5.4 92.8 2.12342e-07 79.3H17.85C21.15 84.4 25.8 87.55 31.05 87.55C40.8 87.55 48.75 76.45 48.75 62.65C48.75 48.85 40.8 37.75 31.05 37.75H21.6V23.2H33L35.7 19C36.9 17.05 38.55 15.4 40.5 14.05L40.95 13.75L39.75 11.95L39.45 12.1C36.75 13.9 33.45 14.95 30.15 14.95H0.9V0.399995H54.9V14.95L49.35 23.65C48.3 25.3 46.5 26.2 44.55 26.2V28.45H46.35Z" fill="#CAC4E2"/>
</svg>
